<svg x="0" y="0" width="2550" height="3300" version="1.1" xmlns="http://www.w3.org/2000/svg" xmlns:xlink="http://www.w3.org/1999/xlink"><g fill="none" stroke="#000000" stroke-width="2" stroke-linecap="butt" stroke-linejoin="miter" stroke-miterlimit="10" stroke-dasharray="" stroke-dashoffset="0" font-family="sans-serif" font-weight="normal" font-size="12" text-anchor="start" mix-blend-mode="normal"><circle cx="2421.48" cy="1650" r="1.02"/><circle cx="2421.4596" cy="1650" r="1.0404"/><circle cx="2421.43879" cy="1650" r="1.06121"/><circle cx="2421.41757" cy="1650" r="1.08243"/><circle cx="2421.39592" cy="1650" r="1.10408"/><circle cx="2421.37384" cy="1650" r="1.12616"/><circle cx="2421.35131" cy="1650" r="1.14869"/><circle cx="2421.32834" cy="1650" r="1.17166"/><circle cx="2421.30491" cy="1650" r="1.19509"/><circle cx="2421.28101" cy="1650" r="1.21899"/><circle cx="2421.25663" cy="1650" r="1.24337"/><circle cx="2421.23176" cy="1650" r="1.26824"/><circle cx="2421.20639" cy="1650" r="1.29361"/><circle cx="2421.18052" cy="1650" r="1.31948"/><circle cx="2421.15413" cy="1650" r="1.34587"/><circle cx="2421.12721" cy="1650" r="1.37279"/><circle cx="2421.09976" cy="1650" r="1.40024"/><circle cx="2421.07175" cy="1650" r="1.42825"/><circle cx="2421.04319" cy="1650" r="1.45681"/><circle cx="2421.01405" cy="1650" r="1.48595"/><circle cx="2420.98433" cy="1650" r="1.51567"/><circle cx="2420.95402" cy="1650" r="1.54598"/><circle cx="2420.9231" cy="1650" r="1.5769"/><circle cx="2420.89156" cy="1650" r="1.60844"/><circle cx="2420.85939" cy="1650" r="1.64061"/><circle cx="2420.82658" cy="1650" r="1.67342"/><circle cx="2420.79311" cy="1650" r="1.70689"/><circle cx="2420.75898" cy="1650" r="1.74102"/><circle cx="2420.72416" cy="1650" r="1.77584"/><circle cx="2420.68864" cy="1650" r="1.81136"/><circle cx="2420.65241" cy="1650" r="1.84759"/><circle cx="2420.61546" cy="1650" r="1.88454"/><circle cx="2420.57777" cy="1650" r="1.92223"/><circle cx="2420.53932" cy="1650" r="1.96068"/><circle cx="2420.50011" cy="1650" r="1.99989"/><circle cx="2420.46011" cy="1650" r="2.03989"/><circle cx="2420.41931" cy="1650" r="2.08069"/><circle cx="2420.3777" cy="1650" r="2.1223"/><circle cx="2420.33526" cy="1650" r="2.16474"/><circle cx="2420.29196" cy="1650" r="2.20804"/><circle cx="2420.2478" cy="1650" r="2.2522"/><circle cx="2420.20276" cy="1650" r="2.29724"/><circle cx="2420.15681" cy="1650" r="2.34319"/><circle cx="2420.10995" cy="1650" r="2.39005"/><circle cx="2420.06215" cy="1650" r="2.43785"/><circle cx="2420.01339" cy="1650" r="2.48661"/><circle cx="2419.96366" cy="1650" r="2.53634"/><circle cx="2419.91293" cy="1650" r="2.58707"/><circle cx="2419.86119" cy="1650" r="2.63881"/><circle cx="2419.80841" cy="1650" r="2.69159"/><circle cx="2419.75458" cy="1650" r="2.74542"/><circle cx="2419.69967" cy="1650" r="2.80033"/><circle cx="2419.64367" cy="1650" r="2.85633"/><circle cx="2419.58654" cy="1650" r="2.91346"/><circle cx="2419.52827" cy="1650" r="2.97173"/><circle cx="2419.46883" cy="1650" r="3.03117"/><circle cx="2419.40821" cy="1650" r="3.09179"/><circle cx="2419.34638" cy="1650" r="3.15362"/><circle cx="2419.2833" cy="1650" r="3.2167"/><circle cx="2419.21897" cy="1650" r="3.28103"/><circle cx="2419.15335" cy="1650" r="3.34665"/><circle cx="2419.08642" cy="1650" r="3.41358"/><circle cx="2419.01814" cy="1650" r="3.48186"/><circle cx="2418.94851" cy="1650" r="3.55149"/><circle cx="2418.87748" cy="1650" r="3.62252"/><circle cx="2418.80503" cy="1650" r="3.69497"/><circle cx="2418.73113" cy="1650" r="3.76887"/><circle cx="2418.65575" cy="1650" r="3.84425"/><circle cx="2418.57886" cy="1650" r="3.92114"/><circle cx="2418.50044" cy="1650" r="3.99956"/><circle cx="2418.42045" cy="1650" r="4.07955"/><circle cx="2418.33886" cy="1650" r="4.16114"/><circle cx="2418.25564" cy="1650" r="4.24436"/><circle cx="2418.17075" cy="1650" r="4.32925"/><circle cx="2418.08416" cy="1650" r="4.41584"/><circle cx="2417.99585" cy="1650" r="4.50415"/><circle cx="2417.90576" cy="1650" r="4.59424"/><circle cx="2417.81388" cy="1650" r="4.68612"/><circle cx="2417.72016" cy="1650" r="4.77984"/><circle cx="2417.62456" cy="1650" r="4.87544"/><circle cx="2417.52705" cy="1650" r="4.97295"/><circle cx="2417.42759" cy="1650" r="5.07241"/><circle cx="2417.32614" cy="1650" r="5.17386"/><circle cx="2417.22267" cy="1650" r="5.27733"/><circle cx="2417.11712" cy="1650" r="5.38288"/><circle cx="2417.00946" cy="1650" r="5.49054"/><circle cx="2416.89965" cy="1650" r="5.60035"/><circle cx="2416.78765" cy="1650" r="5.71235"/><circle cx="2416.6734" cy="1650" r="5.8266"/><circle cx="2416.55687" cy="1650" r="5.94313"/><circle cx="2416.438" cy="1650" r="6.062"/><circle cx="2416.31676" cy="1650" r="6.18324"/><circle cx="2416.1931" cy="1650" r="6.3069"/><circle cx="2416.06696" cy="1650" r="6.43304"/><circle cx="2415.9383" cy="1650" r="6.5617"/><circle cx="2415.80707" cy="1650" r="6.69293"/><circle cx="2415.67321" cy="1650" r="6.82679"/><circle cx="2415.53667" cy="1650" r="6.96333"/><circle cx="2415.39741" cy="1650" r="7.10259"/><circle cx="2415.25535" cy="1650" r="7.24465"/><circle cx="2415.11046" cy="1650" r="7.38954"/><circle cx="2414.96267" cy="1650" r="7.53733"/><circle cx="2414.81192" cy="1650" r="7.68808"/><circle cx="2414.65816" cy="1650" r="7.84184"/><circle cx="2414.50133" cy="1650" r="7.99867"/><circle cx="2414.34135" cy="1650" r="8.15865"/><circle cx="2414.17818" cy="1650" r="8.32182"/><circle cx="2414.01174" cy="1650" r="8.48826"/><circle cx="2413.84198" cy="1650" r="8.65802"/><circle cx="2413.66882" cy="1650" r="8.83118"/><circle cx="2413.49219" cy="1650" r="9.00781"/><circle cx="2413.31204" cy="1650" r="9.18796"/><circle cx="2413.12828" cy="1650" r="9.37172"/><circle cx="2412.94084" cy="1650" r="9.55916"/><circle cx="2412.74966" cy="1650" r="9.75034"/><circle cx="2412.55465" cy="1650" r="9.94535"/><circle cx="2412.35575" cy="1650" r="10.14425"/><circle cx="2412.15286" cy="1650" r="10.34714"/><circle cx="2411.94592" cy="1650" r="10.55408"/><circle cx="2411.73484" cy="1650" r="10.76516"/><circle cx="2411.51953" cy="1650" r="10.98047"/><circle cx="2411.29992" cy="1650" r="11.20008"/><circle cx="2411.07592" cy="1650" r="11.42408"/><circle cx="2410.84744" cy="1650" r="11.65256"/><circle cx="2410.61439" cy="1650" r="11.88561"/><circle cx="2410.37668" cy="1650" r="12.12332"/><circle cx="2410.13421" cy="1650" r="12.36579"/><circle cx="2409.8869" cy="1650" r="12.6131"/><circle cx="2409.63463" cy="1650" r="12.86537"/><circle cx="2409.37733" cy="1650" r="13.12267"/><circle cx="2409.11487" cy="1650" r="13.38513"/><circle cx="2408.84717" cy="1650" r="13.65283"/><circle cx="2408.57411" cy="1650" r="13.92589"/><circle cx="2408.2956" cy="1650" r="14.2044"/><circle cx="2408.01151" cy="1650" r="14.48849"/><circle cx="2407.72174" cy="1650" r="14.77826"/><circle cx="2407.42617" cy="1650" r="15.07383"/><circle cx="2407.1247" cy="1650" r="15.3753"/><circle cx="2406.81719" cy="1650" r="15.68281"/><circle cx="2406.50353" cy="1650" r="15.99647"/><circle cx="2406.1836" cy="1650" r="16.3164"/><circle cx="2405.85728" cy="1650" r="16.64272"/><circle cx="2405.52442" cy="1650" r="16.97558"/><circle cx="2405.18491" cy="1650" r="17.31509"/><circle cx="2404.83861" cy="1650" r="17.66139"/><circle cx="2404.48538" cy="1650" r="18.01462"/><circle cx="2404.12509" cy="1650" r="18.37491"/><circle cx="2403.75759" cy="1650" r="18.74241"/><circle cx="2403.38274" cy="1650" r="19.11726"/><circle cx="2403.0004" cy="1650" r="19.4996"/><circle cx="2402.61041" cy="1650" r="19.88959"/><circle cx="2402.21261" cy="1650" r="20.28739"/><circle cx="2401.80687" cy="1650" r="20.69313"/><circle cx="2401.393" cy="1650" r="21.107"/><circle cx="2400.97086" cy="1650" r="21.52914"/><circle cx="2400.54028" cy="1650" r="21.95972"/><circle cx="2400.10109" cy="1650" r="22.39891"/><circle cx="2399.65311" cy="1650" r="22.84689"/><circle cx="2399.19617" cy="1650" r="23.30383"/><circle cx="2398.73009" cy="1650" r="23.76991"/><circle cx="2398.25469" cy="1650" r="24.24531"/><circle cx="2397.76979" cy="1650" r="24.73021"/><circle cx="2397.27518" cy="1650" r="25.22482"/><circle cx="2396.77069" cy="1650" r="25.72931"/><circle cx="2396.2561" cy="1650" r="26.2439"/><circle cx="2395.73122" cy="1650" r="26.76878"/><circle cx="2395.19585" cy="1650" r="27.30415"/><circle cx="2394.64977" cy="1650" r="27.85023"/><circle cx="2394.09276" cy="1650" r="28.40724"/><circle cx="2393.52462" cy="1650" r="28.97538"/><circle cx="2392.94511" cy="1650" r="29.55489"/><circle cx="2392.35401" cy="1650" r="30.14599"/><circle cx="2391.75109" cy="1650" r="30.74891"/><circle cx="2391.13611" cy="1650" r="31.36389"/><circle cx="2390.50883" cy="1650" r="31.99117"/><circle cx="2389.86901" cy="1650" r="32.63099"/><circle cx="2389.21639" cy="1650" r="33.28361"/><circle cx="2388.55072" cy="1650" r="33.94928"/><circle cx="2387.87173" cy="1650" r="34.62827"/><circle cx="2387.17917" cy="1650" r="35.32083"/><circle cx="2386.47275" cy="1650" r="36.02725"/><circle cx="2385.75221" cy="1650" r="36.74779"/><circle cx="2385.01725" cy="1650" r="37.48275"/><circle cx="2384.2676" cy="1650" r="38.2324"/><circle cx="2383.50295" cy="1650" r="38.99705"/><circle cx="2382.72301" cy="1650" r="39.77699"/><circle cx="2381.92747" cy="1650" r="40.57253"/><circle cx="2381.11602" cy="1650" r="41.38398"/><circle cx="2380.28834" cy="1650" r="42.21166"/><circle cx="2379.4441" cy="1650" r="43.0559"/><circle cx="2378.58299" cy="1650" r="43.91701"/><circle cx="2377.70465" cy="1650" r="44.79535"/><circle cx="2376.80874" cy="1650" r="45.69126"/><circle cx="2375.89491" cy="1650" r="46.60509"/><circle cx="2374.96281" cy="1650" r="47.53719"/><circle cx="2374.01207" cy="1650" r="48.48793"/><circle cx="2373.04231" cy="1650" r="49.45769"/><circle cx="2372.05316" cy="1650" r="50.44684"/><circle cx="2371.04422" cy="1650" r="51.45578"/><circle cx="2370.0151" cy="1650" r="52.4849"/><circle cx="2368.9654" cy="1650" r="53.5346"/><circle cx="2367.89471" cy="1650" r="54.60529"/><circle cx="2366.80261" cy="1650" r="55.69739"/><circle cx="2365.68866" cy="1650" r="56.81134"/><circle cx="2364.55243" cy="1650" r="57.94757"/><circle cx="2363.39348" cy="1650" r="59.10652"/><circle cx="2362.21135" cy="1650" r="60.28865"/><circle cx="2361.00558" cy="1650" r="61.49442"/><circle cx="2359.77569" cy="1650" r="62.72431"/><circle cx="2358.5212" cy="1650" r="63.9788"/><circle cx="2357.24163" cy="1650" r="65.25837"/><circle cx="2355.93646" cy="1650" r="66.56354"/><circle cx="2354.60519" cy="1650" r="67.89481"/><circle cx="2353.24729" cy="1650" r="69.25271"/><circle cx="2351.86224" cy="1650" r="70.63776"/><circle cx="2350.44948" cy="1650" r="72.05052"/><circle cx="2349.00847" cy="1650" r="73.49153"/><circle cx="2347.53864" cy="1650" r="74.96136"/><circle cx="2346.03942" cy="1650" r="76.46058"/><circle cx="2344.5102" cy="1650" r="77.9898"/><circle cx="2342.95041" cy="1650" r="79.54959"/><circle cx="2341.35942" cy="1650" r="81.14058"/><circle cx="2339.7366" cy="1650" r="82.7634"/><circle cx="2338.08134" cy="1650" r="84.41866"/><circle cx="2336.39296" cy="1650" r="86.10704"/><circle cx="2334.67082" cy="1650" r="87.82918"/><circle cx="2332.91424" cy="1650" r="89.58576"/><circle cx="2331.12252" cy="1650" r="91.37748"/><circle cx="2329.29497" cy="1650" r="93.20503"/><circle cx="2327.43087" cy="1650" r="95.06913"/><circle cx="2325.52949" cy="1650" r="96.97051"/><circle cx="2323.59008" cy="1650" r="98.90992"/><circle cx="2321.61188" cy="1650" r="100.88812"/><circle cx="2319.59412" cy="1650" r="102.90588"/><circle cx="2317.536" cy="1650" r="104.964"/><circle cx="2315.43672" cy="1650" r="107.06328"/><circle cx="2313.29546" cy="1650" r="109.20454"/><circle cx="2311.11137" cy="1650" r="111.38863"/><circle cx="2308.88359" cy="1650" r="113.61641"/><circle cx="2306.61126" cy="1650" r="115.88874"/><circle cx="2304.29349" cy="1650" r="118.20651"/><circle cx="2301.92936" cy="1650" r="120.57064"/><circle cx="2299.51795" cy="1650" r="122.98205"/><circle cx="2297.05831" cy="1650" r="125.44169"/><circle cx="2294.54947" cy="1650" r="127.95053"/><circle cx="2291.99046" cy="1650" r="130.50954"/><circle cx="2289.38027" cy="1650" r="133.11973"/><circle cx="2286.71788" cy="1650" r="135.78212"/><circle cx="2284.00223" cy="1650" r="138.49777"/><circle cx="2281.23228" cy="1650" r="141.26772"/><circle cx="2278.40692" cy="1650" r="144.09308"/><circle cx="2275.52506" cy="1650" r="146.97494"/><circle cx="2272.58556" cy="1650" r="149.91444"/><circle cx="2269.58728" cy="1650" r="152.91272"/><circle cx="2266.52902" cy="1650" r="155.97098"/><circle cx="2263.4096" cy="1650" r="159.0904"/><circle cx="2260.22779" cy="1650" r="162.27221"/><circle cx="2256.98235" cy="1650" r="165.51765"/><circle cx="2253.672" cy="1650" r="168.828"/><circle cx="2250.29544" cy="1650" r="172.20456"/><circle cx="2246.85134" cy="1650" r="175.64866"/><circle cx="2243.33837" cy="1650" r="179.16163"/><circle cx="2239.75514" cy="1650" r="182.74486"/><circle cx="2236.10024" cy="1650" r="186.39976"/><circle cx="2232.37225" cy="1650" r="190.12775"/><circle cx="2228.56969" cy="1650" r="193.93031"/><circle cx="2224.69109" cy="1650" r="197.80891"/><circle cx="2220.73491" cy="1650" r="201.76509"/><circle cx="2216.69961" cy="1650" r="205.80039"/><circle cx="2212.5836" cy="1650" r="209.9164"/><circle cx="2208.38527" cy="1650" r="214.11473"/><circle cx="2204.10297" cy="1650" r="218.39703"/><circle cx="2199.73503" cy="1650" r="222.76497"/><circle cx="2195.27973" cy="1650" r="227.22027"/><circle cx="2190.73533" cy="1650" r="231.76467"/><circle cx="2186.10004" cy="1650" r="236.39996"/><circle cx="2181.37204" cy="1650" r="241.12796"/><circle cx="2176.54948" cy="1650" r="245.95052"/><circle cx="2171.63047" cy="1650" r="250.86953"/><circle cx="2166.61308" cy="1650" r="255.88692"/><circle cx="2161.49534" cy="1650" r="261.00466"/><circle cx="2156.27524" cy="1650" r="266.22476"/><circle cx="2150.95075" cy="1650" r="271.54925"/><circle cx="2145.51976" cy="1650" r="276.98024"/><circle cx="2139.98016" cy="1650" r="282.51984"/><circle cx="2134.32976" cy="1650" r="288.17024"/><circle cx="2128.56636" cy="1650" r="293.93364"/><circle cx="2122.68769" cy="1650" r="299.81231"/><circle cx="2116.69144" cy="1650" r="305.80856"/><circle cx="2110.57527" cy="1650" r="311.92473"/><circle cx="2104.33677" cy="1650" r="318.16323"/><circle cx="2097.97351" cy="1650" r="324.52649"/><circle cx="2091.48298" cy="1650" r="331.01702"/><circle cx="2084.86264" cy="1650" r="337.63736"/><circle cx="2078.10989" cy="1650" r="344.39011"/><circle cx="2071.22209" cy="1650" r="351.27791"/><circle cx="2064.19653" cy="1650" r="358.30347"/><circle cx="2057.03046" cy="1650" r="365.46954"/><circle cx="2049.72107" cy="1650" r="372.77893"/><circle cx="2042.26549" cy="1650" r="380.23451"/><circle cx="2034.6608" cy="1650" r="387.8392"/><circle cx="2026.90402" cy="1650" r="395.59598"/><circle cx="2018.9921" cy="1650" r="403.5079"/><circle cx="2010.92194" cy="1650" r="411.57806"/><circle cx="2002.69038" cy="1650" r="419.80962"/><circle cx="1994.29419" cy="1650" r="428.20581"/><circle cx="1985.73007" cy="1650" r="436.76993"/><circle cx="1976.99467" cy="1650" r="445.50533"/><circle cx="1968.08457" cy="1650" r="454.41543"/><circle cx="1958.99626" cy="1650" r="463.50374"/><circle cx="1949.72618" cy="1650" r="472.77382"/><circle cx="1940.27071" cy="1650" r="482.22929"/><circle cx="1930.62612" cy="1650" r="491.87388"/><circle cx="1920.78864" cy="1650" r="501.71136"/><circle cx="1910.75441" cy="1650" r="511.74559"/><circle cx="1900.5195" cy="1650" r="521.9805"/><circle cx="1890.07989" cy="1650" r="532.42011"/><circle cx="1879.43149" cy="1650" r="543.06851"/><circle cx="1868.57012" cy="1650" r="553.92988"/><circle cx="1857.49152" cy="1650" r="565.00848"/><circle cx="1846.19135" cy="1650" r="576.30865"/><circle cx="1834.66518" cy="1650" r="587.83482"/><circle cx="1822.90848" cy="1650" r="599.59152"/><circle cx="1810.91665" cy="1650" r="611.58335"/><circle cx="1798.68499" cy="1650" r="623.81501"/><circle cx="1786.20869" cy="1650" r="636.29131"/><circle cx="1773.48286" cy="1650" r="649.01714"/><circle cx="1760.50252" cy="1650" r="661.99748"/><circle cx="1747.26257" cy="1650" r="675.23743"/><circle cx="1733.75782" cy="1650" r="688.74218"/><circle cx="1719.98298" cy="1650" r="702.51702"/><circle cx="1705.93264" cy="1650" r="716.56736"/><circle cx="1691.60129" cy="1650" r="730.89871"/><circle cx="1676.98331" cy="1650" r="745.51669"/><circle cx="1662.07298" cy="1650" r="760.42702"/><circle cx="1646.86444" cy="1650" r="775.63556"/><circle cx="1631.35173" cy="1650" r="791.14827"/><circle cx="1615.52876" cy="1650" r="806.97124"/><circle cx="1599.38934" cy="1650" r="823.11066"/><circle cx="1582.92712" cy="1650" r="839.57288"/><circle cx="1566.13567" cy="1650" r="856.36433"/><circle cx="1549.00838" cy="1650" r="873.49162"/><circle cx="1531.53855" cy="1650" r="890.96145"/><circle cx="1513.71932" cy="1650" r="908.78068"/><circle cx="1495.54371" cy="1650" r="926.95629"/><circle cx="1477.00458" cy="1650" r="945.49542"/><circle cx="1458.09467" cy="1650" r="964.40533"/><circle cx="1438.80656" cy="1650" r="983.69344"/><circle cx="1419.1327" cy="1650" r="1003.3673"/><circle cx="1399.06535" cy="1650" r="1023.43465"/><circle cx="1378.59666" cy="1650" r="1043.90334"/><circle cx="1357.71859" cy="1650" r="1064.78141"/><circle cx="1336.42296" cy="1650" r="1086.07704"/><circle cx="1314.70142" cy="1650" r="1107.79858"/><circle cx="1292.54545" cy="1650" r="1129.95455"/><circle cx="1269.94636" cy="1650" r="1152.55364"/><circle cx="1246.89529" cy="1650" r="1175.60471"/><circle cx="1223.38319" cy="1650" r="1199.11681"/><circle cx="1199.40086" cy="1650" r="1223.09914"/><circle cx="1174.93887" cy="1650" r="1247.56113"/><circle cx="1149.98765" cy="1650" r="1272.51235"/><circle cx="1124.5374" cy="1650" r="1297.9626"/><circle cx="1098.57815" cy="1650" r="1323.92185"/><circle cx="1072.09971" cy="1650" r="1350.40029"/><circle cx="1045.09171" cy="1650" r="1377.40829"/><circle cx="1017.54354" cy="1650" r="1404.95646"/><circle cx="989.44441" cy="1650" r="1433.05559"/><circle cx="960.7833" cy="1650" r="1461.7167"/><circle cx="931.54897" cy="1650" r="1490.95103"/><circle cx="901.72995" cy="1650" r="1520.77005"/><circle cx="871.31455" cy="1650" r="1551.18545"/><circle cx="840.29084" cy="1650" r="1582.20916"/><circle cx="808.64665" cy="1650" r="1613.85335"/><circle cx="776.36959" cy="1650" r="1646.13041"/><circle cx="743.44698" cy="1650" r="1679.05302"/><circle cx="709.86592" cy="1650" r="1712.63408"/><circle cx="675.61324" cy="1650" r="1746.88676"/><circle cx="640.6755" cy="1650" r="1781.8245"/><circle cx="605.03901" cy="1650" r="1817.46099"/><circle cx="568.68979" cy="1650" r="1853.81021"/><circle cx="531.61359" cy="1650" r="1890.88641"/><circle cx="493.79586" cy="1650" r="1928.70414"/><circle cx="455.22178" cy="1650" r="1967.27822"/><circle cx="415.87621" cy="1650" r="2006.62379"/><circle cx="375.74374" cy="1650" r="2046.75626"/><circle cx="334.80861" cy="1650" r="2087.69139"/><circle cx="293.05478" cy="1650" r="2129.44522"/><circle cx="250.46588" cy="1650" r="2172.03412"/><circle cx="207.0252" cy="1650" r="2215.4748"/><circle cx="162.7157" cy="1650" r="2259.7843"/><circle cx="117.52001" cy="1650" r="2304.97999"/><circle cx="71.42041" cy="1650" r="2351.07959"/><circle cx="24.39882" cy="1650" r="2398.10118"/><circle cx="-23.5632" cy="1650" r="2446.0632"/><circle cx="-72.48447" cy="1650" r="2494.98447"/><circle cx="-122.38416" cy="1650" r="2544.88416"/><circle cx="-173.28184" cy="1650" r="2595.78184"/><circle cx="-225.19747" cy="1650" r="2647.69747"/><circle cx="-278.15142" cy="1650" r="2700.65142"/><circle cx="-332.16445" cy="1650" r="2754.66445"/><circle cx="-387.25774" cy="1650" r="2809.75774"/><circle cx="-443.4529" cy="1650" r="2865.9529"/><circle cx="-500.77195" cy="1650" r="2923.27195"/><circle cx="-559.23739" cy="1650" r="2981.73739"/><circle cx="-618.87214" cy="1650" r="3041.37214"/><circle cx="-679.69958" cy="1650" r="3102.19958"/><circle cx="-741.74358" cy="1650" r="3164.24358"/><circle cx="-805.02845" cy="1650" r="3227.52845"/><circle cx="-869.57902" cy="1650" r="3292.07902"/><circle cx="-935.4206" cy="1650" r="3357.9206"/><circle cx="-1002.57901" cy="1650" r="3425.07901"/><circle cx="-1071.08059" cy="1650" r="3493.58059"/><circle cx="-1140.9522" cy="1650" r="3563.4522"/><circle cx="-1212.22124" cy="1650" r="3634.72124"/><circle cx="-1284.91567" cy="1650" r="3707.41567"/><circle cx="-1359.06398" cy="1650" r="3781.56398"/><circle cx="-1434.69526" cy="1650" r="3857.19526"/><circle cx="-1511.83917" cy="1650" r="3934.33917"/><circle cx="-1590.52595" cy="1650" r="4013.02595"/><circle cx="-1670.78647" cy="1650" r="4093.28647"/><circle cx="-1752.6522" cy="1650" r="4175.1522"/><circle cx="-1836.15524" cy="1650" r="4258.65524"/><circle cx="-1921.32835" cy="1650" r="4343.82835"/><circle cx="-2008.20492" cy="1650" r="4430.70492"/><circle cx="-2096.81901" cy="1650" r="4519.31901"/><circle cx="-2187.20539" cy="1650" r="4609.70539"/><circle cx="-2279.3995" cy="1650" r="4701.8995"/><circle cx="-2373.43749" cy="1650" r="4795.93749"/><circle cx="-2469.35624" cy="1650" r="4891.85624"/><circle cx="-2567.19337" cy="1650" r="4989.69337"/><circle cx="-2666.98723" cy="1650" r="5089.48723"/><circle cx="-2768.77698" cy="1650" r="5191.27698"/><circle cx="-2872.60252" cy="1650" r="5295.10252"/><circle cx="-2978.50457" cy="1650" r="5401.00457"/><circle cx="-3086.52466" cy="1650" r="5509.02466"/><circle cx="-3196.70515" cy="1650" r="5619.20515"/><circle cx="-3309.08926" cy="1650" r="5731.58926"/><circle cx="-3423.72104" cy="1650" r="5846.22104"/><circle cx="-3540.64546" cy="1650" r="5963.14546"/><circle cx="-3659.90837" cy="1650" r="6082.40837"/><circle cx="-3781.55654" cy="1650" r="6204.05654"/><circle cx="-3905.63767" cy="1650" r="6328.13767"/><circle cx="-4032.20042" cy="1650" r="6454.70042"/><circle cx="-4161.29443" cy="1650" r="6583.79443"/><circle cx="-4292.97032" cy="1650" r="6715.47032"/><circle cx="-4427.27973" cy="1650" r="6849.77973"/><circle cx="-4564.27532" cy="1650" r="6986.77532"/><circle cx="-4704.01083" cy="1650" r="7126.51083"/><circle cx="-4846.54104" cy="1650" r="7269.04104"/><circle cx="-4991.92187" cy="1650" r="7414.42187"/><circle cx="-5140.2103" cy="1650" r="7562.7103"/><circle cx="-5291.46451" cy="1650" r="7713.96451"/><circle cx="-5445.7438" cy="1650" r="7868.2438"/><circle cx="-5603.10867" cy="1650" r="8025.60867"/><circle cx="-5763.62085" cy="1650" r="8186.12085"/><circle cx="-5927.34327" cy="1650" r="8349.84327"/><circle cx="-6094.34013" cy="1650" r="8516.84013"/><circle cx="-6264.67693" cy="1650" r="8687.17693"/><circle cx="-6438.42047" cy="1650" r="8860.92047"/><circle cx="-6615.63888" cy="1650" r="9038.13888"/><circle cx="-6796.40166" cy="1650" r="9218.90166"/><circle cx="-6980.77969" cy="1650" r="9403.27969"/><circle cx="-7168.84529" cy="1650" r="9591.34529"/><circle cx="-7360.67219" cy="1650" r="9783.17219"/><circle cx="-7556.33564" cy="1650" r="9978.83564"/><circle cx="-7755.91235" cy="1650" r="10178.41235"/><circle cx="-7959.4806" cy="1650" r="10381.9806"/><circle cx="-8167.12021" cy="1650" r="10589.62021"/><circle cx="-8378.91261" cy="1650" r="10801.41261"/><circle cx="-8594.94086" cy="1650" r="11017.44086"/><circle cx="-8815.28968" cy="1650" r="11237.78968"/><circle cx="-9040.04547" cy="1650" r="11462.54547"/><circle cx="-9269.29638" cy="1650" r="11691.79638"/><circle cx="-9503.13231" cy="1650" r="11925.63231"/><circle cx="-9741.64496" cy="1650" r="12164.14496"/><circle cx="-9984.92786" cy="1650" r="12407.42786"/><circle cx="-10233.07641" cy="1650" r="12655.57641"/><circle cx="-10486.18794" cy="1650" r="12908.68794"/><circle cx="-10744.3617" cy="1650" r="13166.8617"/><circle cx="-11007.69894" cy="1650" r="13430.19894"/><circle cx="-11276.30291" cy="1650" r="13698.80291"/><circle cx="-11550.27897" cy="1650" r="13972.77897"/><circle cx="-11829.73455" cy="1650" r="14252.23455"/><circle cx="-12114.77924" cy="1650" r="14537.27924"/><circle cx="-12405.52483" cy="1650" r="14828.02483"/><circle cx="-12702.08532" cy="1650" r="15124.58532"/><circle cx="-13004.57703" cy="1650" r="15427.07703"/><circle cx="-13313.11857" cy="1650" r="15735.61857"/><circle cx="-13627.83094" cy="1650" r="16050.33094"/><circle cx="-13948.83756" cy="1650" r="16371.33756"/><circle cx="-14276.26431" cy="1650" r="16698.76431"/><circle cx="-14610.2396" cy="1650" r="17032.7396"/><circle cx="-14950.89439" cy="1650" r="17373.39439"/><circle cx="-15298.36228" cy="1650" r="17720.86228"/><circle cx="-15652.77952" cy="1650" r="18075.27952"/><circle cx="-16014.28511" cy="1650" r="18436.78511"/><circle cx="-16383.02082" cy="1650" r="18805.52082"/><circle cx="-16759.13123" cy="1650" r="19181.63123"/><circle cx="-17142.76386" cy="1650" r="19565.26386"/><circle cx="-17534.06914" cy="1650" r="19956.56914"/><circle cx="-17933.20052" cy="1650" r="20355.70052"/><circle cx="-18340.31453" cy="1650" r="20762.81453"/><circle cx="-18755.57082" cy="1650" r="21178.07082"/><circle cx="-19179.13224" cy="1650" r="21601.63224"/><circle cx="-19611.16488" cy="1650" r="22033.66488"/><circle cx="-20051.83818" cy="1650" r="22474.33818"/><circle cx="-20501.32494" cy="1650" r="22923.82494"/><circle cx="-20959.80144" cy="1650" r="23382.30144"/><circle cx="-21427.44747" cy="1650" r="23849.94747"/><circle cx="-21904.44642" cy="1650" r="24326.94642"/><circle cx="-22390.98535" cy="1650" r="24813.48535"/><circle cx="-22887.25505" cy="1650" r="25309.75505"/><circle cx="-23393.45015" cy="1650" r="25815.95015"/><circle cx="-23909.76916" cy="1650" r="26332.26916"/><circle cx="-24436.41454" cy="1650" r="26858.91454"/><circle cx="-24973.59283" cy="1650" r="27396.09283"/><circle cx="-25521.51469" cy="1650" r="27944.01469"/><circle cx="-26080.39498" cy="1650" r="28502.89498"/><circle cx="-26650.45288" cy="1650" r="29072.95288"/><circle cx="-27231.91194" cy="1650" r="29654.41194"/><circle cx="-27825.00018" cy="1650" r="30247.50018"/><circle cx="-28429.95018" cy="1650" r="30852.45018"/><circle cx="-29046.99919" cy="1650" r="31469.49919"/><circle cx="-29676.38917" cy="1650" r="32098.88917"/><circle cx="-30318.36695" cy="1650" r="32740.86695"/><circle cx="-30973.18429" cy="1650" r="33395.68429"/><circle cx="-31641.09798" cy="1650" r="34063.59798"/><circle cx="-32322.36994" cy="1650" r="34744.86994"/><circle cx="-33017.26734" cy="1650" r="35439.76734"/><circle cx="-33726.06268" cy="1650" r="36148.56268"/><circle cx="-34449.03394" cy="1650" r="36871.53394"/><circle cx="-35186.46461" cy="1650" r="37608.96461"/><circle cx="-35938.64391" cy="1650" r="38361.14391"/><circle cx="-36705.86679" cy="1650" r="39128.36679"/><circle cx="-37488.43412" cy="1650" r="39910.93412"/><circle cx="-38286.6528" cy="1650" r="40709.1528"/><circle cx="-39100.83586" cy="1650" r="41523.33586"/><circle cx="-39931.30258" cy="1650" r="42353.80258"/><circle cx="-40778.37863" cy="1650" r="43200.87863"/><circle cx="-41642.3962" cy="1650" r="44064.8962"/><circle cx="-42523.69412" cy="1650" r="44946.19412"/><circle cx="-43422.61801" cy="1650" r="45845.11801"/><circle cx="-44339.52037" cy="1650" r="46762.02037"/><circle cx="-45274.76077" cy="1650" r="47697.26077"/><circle cx="-46228.70599" cy="1650" r="48651.20599"/><circle cx="-47201.73011" cy="1650" r="49624.23011"/><circle cx="-48194.21471" cy="1650" r="50616.71471"/><circle cx="-49206.54901" cy="1650" r="51629.04901"/><circle cx="-50239.12999" cy="1650" r="52661.62999"/><circle cx="-51292.36259" cy="1650" r="53714.86259"/><circle cx="-52366.65984" cy="1650" r="54789.15984"/><circle cx="-53462.44303" cy="1650" r="55884.94303"/><circle cx="-54580.1419" cy="1650" r="57002.6419"/><circle cx="-55720.19473" cy="1650" r="58142.69473"/><circle cx="-56883.04863" cy="1650" r="59305.54863"/><circle cx="-58069.1596" cy="1650" r="60491.6596"/><circle cx="-59278.99279" cy="1650" r="61701.49279"/><circle cx="-60513.02265" cy="1650" r="62935.52265"/><circle cx="-61771.7331" cy="1650" r="64194.2331"/><circle cx="-63055.61776" cy="1650" r="65478.11776"/><circle cx="-64365.18012" cy="1650" r="66787.68012"/><circle cx="-65700.93372" cy="1650" r="68123.43372"/><circle cx="-67063.4024" cy="1650" r="69485.9024"/><circle cx="-68453.12044" cy="1650" r="70875.62044"/><circle cx="-69870.63285" cy="1650" r="72293.13285"/><circle cx="-71316.49551" cy="1650" r="73738.99551"/><circle cx="-72791.27542" cy="1650" r="75213.77542"/><circle cx="-74295.55093" cy="1650" r="76718.05093"/><circle cx="-75829.91195" cy="1650" r="78252.41195"/><circle cx="-77394.96019" cy="1650" r="79817.46019"/><circle cx="-78991.30939" cy="1650" r="81413.80939"/><circle cx="-80619.58558" cy="1650" r="83042.08558"/><circle cx="-82280.42729" cy="1650" r="84702.92729"/><circle cx="-83974.48583" cy="1650" r="86396.98583"/><circle cx="-85702.42555" cy="1650" r="88124.92555"/><circle cx="-87464.92406" cy="1650" r="89887.42406"/><circle cx="-89262.67254" cy="1650" r="91685.17254"/><circle cx="-91096.37599" cy="1650" r="93518.87599"/><circle cx="-92966.75351" cy="1650" r="95389.25351"/><circle cx="-94874.53858" cy="1650" r="97297.03858"/><circle cx="-96820.47936" cy="1650" r="99242.97936"/><circle cx="-98805.33894" cy="1650" r="101227.83894"/><circle cx="-100829.89572" cy="1650" r="103252.39572"/><circle cx="-102894.94364" cy="1650" r="105317.44364"/><circle cx="-105001.29251" cy="1650" r="107423.79251"/><circle cx="-107149.76836" cy="1650" r="109572.26836"/><circle cx="-109341.21373" cy="1650" r="111763.71373"/><circle cx="-111576.488" cy="1650" r="113998.988"/><circle cx="-113856.46776" cy="1650" r="116278.96776"/><circle cx="-116182.04712" cy="1650" r="118604.54712"/><circle cx="-118554.13806" cy="1650" r="120976.63806"/><circle cx="-120973.67082" cy="1650" r="123396.17082"/><circle cx="-123441.59424" cy="1650" r="125864.09424"/><circle cx="-125958.87612" cy="1650" r="128381.37612"/><circle cx="-128526.50364" cy="1650" r="130949.00364"/><circle cx="-131145.48372" cy="1650" r="133567.98372"/><circle cx="-133816.84339" cy="1650" r="136239.34339"/><circle cx="-136541.63026" cy="1650" r="138964.13026"/><circle cx="-139320.91286" cy="1650" r="141743.41286"/><circle cx="-142155.78112" cy="1650" r="144578.28112"/><circle cx="-145047.34674" cy="1650" r="147469.84674"/><circle cx="-147996.74368" cy="1650" r="150419.24368"/><circle cx="-151005.12855" cy="1650" r="153427.62855"/><circle cx="-154073.68112" cy="1650" r="156496.18112"/><circle cx="-157203.60475" cy="1650" r="159626.10475"/><circle cx="-160396.12684" cy="1650" r="162818.62684"/><circle cx="-163652.49938" cy="1650" r="166074.99938"/><circle cx="-166973.99936" cy="1650" r="169396.49936"/><circle cx="-170361.92935" cy="1650" r="172784.42935"/><circle cx="-173817.61794" cy="1650" r="176240.11794"/><circle cx="-177342.4203" cy="1650" r="179764.9203"/><circle cx="-180937.7187" cy="1650" r="183360.2187"/><circle cx="-184604.92308" cy="1650" r="187027.42308"/><circle cx="-188345.47154" cy="1650" r="190767.97154"/><circle cx="-192160.83097" cy="1650" r="194583.33097"/><circle cx="-196052.49759" cy="1650" r="198474.99759"/><circle cx="-200021.99754" cy="1650" r="202444.49754"/><circle cx="-204070.88749" cy="1650" r="206493.38749"/><circle cx="-208200.75524" cy="1650" r="210623.25524"/><circle cx="-212413.22035" cy="1650" r="214835.72035"/><circle cx="-216709.93475" cy="1650" r="219132.43475"/><circle cx="-221092.58345" cy="1650" r="223515.08345"/><circle cx="-225562.88512" cy="1650" r="227985.38512"/><circle cx="-230122.59282" cy="1650" r="232545.09282"/><circle cx="-234773.49468" cy="1650" r="237195.99468"/><circle cx="-239517.41457" cy="1650" r="241939.91457"/><circle cx="-244356.21286" cy="1650" r="246778.71286"/><circle cx="-249291.78712" cy="1650" r="251714.28712"/><circle cx="-254326.07286" cy="1650" r="256748.57286"/><circle cx="-259461.04432" cy="1650" r="261883.54432"/><circle cx="-264698.7152" cy="1650" r="267121.2152"/><circle cx="-270041.13951" cy="1650" r="272463.63951"/><circle cx="-275490.4123" cy="1650" r="277912.9123"/><circle cx="-281048.67054" cy="1650" r="283471.17054"/><circle cx="-286718.09396" cy="1650" r="289140.59396"/><circle cx="-292500.90583" cy="1650" r="294923.40583"/><circle cx="-298399.37395" cy="1650" r="300821.87395"/><circle cx="-304415.81143" cy="1650" r="306838.31143"/><circle cx="-310552.57766" cy="1650" r="312975.07766"/><circle cx="-316812.07921" cy="1650" r="319234.57921"/><circle cx="-323196.7708" cy="1650" r="325619.2708"/><circle cx="-329709.15621" cy="1650" r="332131.65621"/><circle cx="-336351.78934" cy="1650" r="338774.28934"/><circle cx="-343127.27512" cy="1650" r="345549.77512"/><circle cx="-350038.27063" cy="1650" r="352460.77063"/><circle cx="-357087.48604" cy="1650" r="359509.98604"/><circle cx="-364277.68576" cy="1650" r="366700.18576"/><circle cx="-371611.68947" cy="1650" r="374034.18947"/><circle cx="-379092.37326" cy="1650" r="381514.87326"/><circle cx="-386722.67073" cy="1650" r="389145.17073"/><circle cx="-394505.57414" cy="1650" r="396928.07414"/><circle cx="-402444.13563" cy="1650" r="404866.63563"/><circle cx="-410541.46834" cy="1650" r="412963.96834"/><circle cx="-418800.74771" cy="1650" r="421223.24771"/><circle cx="-427225.21266" cy="1650" r="429647.71266"/><circle cx="-435818.16691" cy="1650" r="438240.66691"/><circle cx="-444582.98025" cy="1650" r="447005.48025"/><circle cx="-453523.08986" cy="1650" r="455945.58986"/><circle cx="-462642.00165" cy="1650" r="465064.50165"/><circle cx="-471943.29169" cy="1650" r="474365.79169"/><circle cx="-481430.60752" cy="1650" r="483853.10752"/><circle cx="-491107.66967" cy="1650" r="493530.16967"/><circle cx="-500978.27306" cy="1650" r="503400.77306"/><circle cx="-511046.28853" cy="1650" r="513468.78853"/><circle cx="-521315.6643" cy="1650" r="523738.1643"/><circle cx="-531790.42758" cy="1650" r="534212.92758"/><circle cx="-542474.68613" cy="1650" r="544897.18613"/><circle cx="-553372.62986" cy="1650" r="555795.12986"/><circle cx="-564488.53245" cy="1650" r="566911.03245"/><circle cx="-575826.7531" cy="1650" r="578249.2531"/><circle cx="-587391.73816" cy="1650" r="589814.23816"/><circle cx="-599188.02293" cy="1650" r="601610.52293"/><circle cx="-611220.23339" cy="1650" r="613642.73339"/><circle cx="-623493.08805" cy="1650" r="625915.58805"/><circle cx="-636011.39981" cy="1650" r="638433.89981"/><circle cx="-648780.07781" cy="1650" r="651202.57781"/><circle cx="-661804.12937" cy="1650" r="664226.62937"/><circle cx="-675088.66195" cy="1650" r="677511.16195"/><circle cx="-688638.88519" cy="1650" r="691061.38519"/><circle cx="-702460.1129" cy="1650" r="704882.6129"/><circle cx="-716557.76516" cy="1650" r="718980.26516"/><circle cx="-730937.37046" cy="1650" r="733359.87046"/><circle cx="-745604.56787" cy="1650" r="748027.06787"/><circle cx="-760565.10923" cy="1650" r="762987.60923"/><circle cx="-775824.86141" cy="1650" r="778247.36141"/><circle cx="-791389.80864" cy="1650" r="793812.30864"/><circle cx="-807266.05481" cy="1650" r="809688.55481"/><circle cx="-823459.82591" cy="1650" r="825882.32591"/><circle cx="-839977.47242" cy="1650" r="842399.97242"/><circle cx="-856825.47187" cy="1650" r="859247.97187"/><circle cx="-874010.43131" cy="1650" r="876432.93131"/><circle cx="-891539.08994" cy="1650" r="893961.58994"/><circle cx="-909418.32174" cy="1650" r="911840.82174"/><circle cx="-927655.13817" cy="1650" r="930077.63817"/><circle cx="-946256.69093" cy="1650" r="948679.19093"/><circle cx="-965230.27475" cy="1650" r="967652.77475"/><circle cx="-984583.33025" cy="1650" r="987005.83025"/><circle cx="-1004323.44685" cy="1650" r="1006745.94685"/><circle cx="-1024458.36579" cy="1650" r="1026880.86579"/><circle cx="-1044995.98311" cy="1650" r="1047418.48311"/></g></svg>