<svg x="0" y="0" width="2550" height="3300" version="1.1" xmlns="http://www.w3.org/2000/svg" xmlns:xlink="http://www.w3.org/1999/xlink"><g fill="none" stroke="#000000" stroke-width="2" stroke-linecap="butt" stroke-linejoin="miter" stroke-miterlimit="10" stroke-dasharray="" stroke-dashoffset="0" font-family="sans-serif" font-weight="normal" font-size="12" text-anchor="start" mix-blend-mode="normal"><circle cx="2420.88197" cy="1650" r="1.61803"/><circle cx="2419.88197" cy="1650" r="2.61803"/><circle cx="2418.26393" cy="1650" r="4.23607"/><circle cx="2415.6459" cy="1650" r="6.8541"/><circle cx="2411.40983" cy="1650" r="11.09017"/><circle cx="2404.55573" cy="1650" r="17.94427"/><circle cx="2393.46557" cy="1650" r="29.03443"/><circle cx="2375.52131" cy="1650" r="46.97869"/><circle cx="2346.48688" cy="1650" r="76.01312"/><circle cx="2299.5082" cy="1650" r="122.9918"/><circle cx="2223.4951" cy="1650" r="199.0049"/><circle cx="2100.50332" cy="1650" r="321.99668"/><circle cx="1901.49845" cy="1650" r="521.00155"/><circle cx="1579.50183" cy="1650" r="842.99817"/><circle cx="1058.50039" cy="1650" r="1363.99961"/><circle cx="215.50239" cy="1650" r="2206.99761"/><circle cx="-1148.49695" cy="1650" r="3570.99695"/><circle cx="-3355.49412" cy="1650" r="5777.99412"/><circle cx="-6926.49036" cy="1650" r="9348.99036"/><circle cx="-12704.48334" cy="1650" r="15126.98334"/><circle cx="-22053.47185" cy="1650" r="24475.97185"/><circle cx="-37180.45219" cy="1650" r="39602.95219"/><circle cx="-61656.41918" cy="1650" r="64078.91918"/><circle cx="-101259.3635" cy="1650" r="103681.8635"/><circle cx="-165338.26996" cy="1650" r="167760.76996"/><circle cx="-269020.11289" cy="1650" r="271442.61289"/><circle cx="-436780.84956" cy="1650" r="439203.34956"/></g></svg>