<svg x="0" y="0" width="2550" height="3300" version="1.1" xmlns="http://www.w3.org/2000/svg" xmlns:xlink="http://www.w3.org/1999/xlink"><g fill="none" stroke="#000000" stroke-width="2" stroke-linecap="butt" stroke-linejoin="miter" stroke-miterlimit="10" stroke-dasharray="" stroke-dashoffset="0" font-family="sans-serif" font-weight="normal" font-size="12" text-anchor="start" mix-blend-mode="normal"><circle cx="2421.4" cy="1650" r="1.1"/><circle cx="2421.29" cy="1650" r="1.21"/><circle cx="2421.169" cy="1650" r="1.331"/><circle cx="2421.0359" cy="1650" r="1.4641"/><circle cx="2420.88949" cy="1650" r="1.61051"/><circle cx="2420.72844" cy="1650" r="1.77156"/><circle cx="2420.55128" cy="1650" r="1.94872"/><circle cx="2420.35641" cy="1650" r="2.14359"/><circle cx="2420.14205" cy="1650" r="2.35795"/><circle cx="2419.90626" cy="1650" r="2.59374"/><circle cx="2419.64688" cy="1650" r="2.85312"/><circle cx="2419.36157" cy="1650" r="3.13843"/><circle cx="2419.04773" cy="1650" r="3.45227"/><circle cx="2418.7025" cy="1650" r="3.7975"/><circle cx="2418.32275" cy="1650" r="4.17725"/><circle cx="2417.90503" cy="1650" r="4.59497"/><circle cx="2417.44553" cy="1650" r="5.05447"/><circle cx="2416.94008" cy="1650" r="5.55992"/><circle cx="2416.38409" cy="1650" r="6.11591"/><circle cx="2415.7725" cy="1650" r="6.7275"/><circle cx="2415.09975" cy="1650" r="7.40025"/><circle cx="2414.35973" cy="1650" r="8.14027"/><circle cx="2413.5457" cy="1650" r="8.9543"/><circle cx="2412.65027" cy="1650" r="9.84973"/><circle cx="2411.66529" cy="1650" r="10.83471"/><circle cx="2410.58182" cy="1650" r="11.91818"/><circle cx="2409.39001" cy="1650" r="13.10999"/><circle cx="2408.07901" cy="1650" r="14.42099"/><circle cx="2406.63691" cy="1650" r="15.86309"/><circle cx="2405.0506" cy="1650" r="17.4494"/><circle cx="2403.30566" cy="1650" r="19.19434"/><circle cx="2401.38622" cy="1650" r="21.11378"/><circle cx="2399.27485" cy="1650" r="23.22515"/><circle cx="2396.95233" cy="1650" r="25.54767"/><circle cx="2394.39756" cy="1650" r="28.10244"/><circle cx="2391.58732" cy="1650" r="30.91268"/><circle cx="2388.49605" cy="1650" r="34.00395"/><circle cx="2385.09566" cy="1650" r="37.40434"/><circle cx="2381.35522" cy="1650" r="41.14478"/><circle cx="2377.24074" cy="1650" r="45.25926"/><circle cx="2372.71482" cy="1650" r="49.78518"/><circle cx="2367.7363" cy="1650" r="54.7637"/><circle cx="2362.25993" cy="1650" r="60.24007"/><circle cx="2356.23592" cy="1650" r="66.26408"/><circle cx="2349.60952" cy="1650" r="72.89048"/><circle cx="2342.32047" cy="1650" r="80.17953"/><circle cx="2334.30251" cy="1650" r="88.19749"/><circle cx="2325.48277" cy="1650" r="97.01723"/><circle cx="2315.78104" cy="1650" r="106.71896"/><circle cx="2305.10915" cy="1650" r="117.39085"/><circle cx="2293.37006" cy="1650" r="129.12994"/><circle cx="2280.45707" cy="1650" r="142.04293"/><circle cx="2266.25277" cy="1650" r="156.24723"/><circle cx="2250.62805" cy="1650" r="171.87195"/><circle cx="2233.44086" cy="1650" r="189.05914"/><circle cx="2214.53494" cy="1650" r="207.96506"/><circle cx="2193.73844" cy="1650" r="228.76156"/><circle cx="2170.86228" cy="1650" r="251.63772"/><circle cx="2145.69851" cy="1650" r="276.80149"/><circle cx="2118.01836" cy="1650" r="304.48164"/><circle cx="2087.5702" cy="1650" r="334.9298"/><circle cx="2054.07722" cy="1650" r="368.42278"/><circle cx="2017.23494" cy="1650" r="405.26506"/><circle cx="1976.70843" cy="1650" r="445.79157"/><circle cx="1932.12927" cy="1650" r="490.37073"/><circle cx="1883.0922" cy="1650" r="539.4078"/><circle cx="1829.15142" cy="1650" r="593.34858"/><circle cx="1769.81656" cy="1650" r="652.68344"/><circle cx="1704.54822" cy="1650" r="717.95178"/><circle cx="1632.75304" cy="1650" r="789.74696"/><circle cx="1553.77835" cy="1650" r="868.72165"/><circle cx="1466.90618" cy="1650" r="955.59382"/><circle cx="1371.3468" cy="1650" r="1051.1532"/><circle cx="1266.23148" cy="1650" r="1156.26852"/><circle cx="1150.60463" cy="1650" r="1271.89537"/><circle cx="1023.41509" cy="1650" r="1399.08491"/><circle cx="883.5066" cy="1650" r="1538.9934"/><circle cx="729.60726" cy="1650" r="1692.89274"/><circle cx="560.31799" cy="1650" r="1862.18201"/><circle cx="374.09979" cy="1650" r="2048.40021"/><circle cx="169.25976" cy="1650" r="2253.24024"/><circle cx="-56.06426" cy="1650" r="2478.56426"/><circle cx="-303.92069" cy="1650" r="2726.42069"/><circle cx="-576.56275" cy="1650" r="2999.06275"/><circle cx="-876.46903" cy="1650" r="3298.96903"/><circle cx="-1206.36593" cy="1650" r="3628.86593"/><circle cx="-1569.25253" cy="1650" r="3991.75253"/><circle cx="-1968.42778" cy="1650" r="4390.92778"/><circle cx="-2407.52056" cy="1650" r="4830.02056"/><circle cx="-2890.52261" cy="1650" r="5313.02261"/><circle cx="-3421.82487" cy="1650" r="5844.32487"/><circle cx="-4006.25736" cy="1650" r="6428.75736"/><circle cx="-4649.1331" cy="1650" r="7071.6331"/><circle cx="-5356.29641" cy="1650" r="7778.79641"/><circle cx="-6134.17605" cy="1650" r="8556.67605"/><circle cx="-6989.84365" cy="1650" r="9412.34365"/><circle cx="-7931.07802" cy="1650" r="10353.57802"/><circle cx="-8966.43582" cy="1650" r="11388.93582"/><circle cx="-10105.3294" cy="1650" r="12527.8294"/><circle cx="-11358.11234" cy="1650" r="13780.61234"/><circle cx="-12736.17357" cy="1650" r="15158.67357"/><circle cx="-14252.04093" cy="1650" r="16674.54093"/><circle cx="-15919.49502" cy="1650" r="18341.99502"/><circle cx="-17753.69453" cy="1650" r="20176.19453"/><circle cx="-19771.31398" cy="1650" r="22193.81398"/><circle cx="-21990.69538" cy="1650" r="24413.19538"/><circle cx="-24432.01492" cy="1650" r="26854.51492"/><circle cx="-27117.46641" cy="1650" r="29539.96641"/><circle cx="-30071.46305" cy="1650" r="32493.96305"/><circle cx="-33320.85935" cy="1650" r="35743.35935"/><circle cx="-36895.19529" cy="1650" r="39317.69529"/><circle cx="-40826.96482" cy="1650" r="43249.46482"/><circle cx="-45151.9113" cy="1650" r="47574.4113"/><circle cx="-49909.35243" cy="1650" r="52331.85243"/><circle cx="-55142.53767" cy="1650" r="57565.03767"/><circle cx="-60899.04144" cy="1650" r="63321.54144"/><circle cx="-67231.19558" cy="1650" r="69653.69558"/><circle cx="-74196.56514" cy="1650" r="76619.06514"/><circle cx="-81858.47165" cy="1650" r="84280.97165"/><circle cx="-90286.56882" cy="1650" r="92709.06882"/><circle cx="-99557.4757" cy="1650" r="101979.9757"/><circle cx="-109755.47327" cy="1650" r="112177.97327"/><circle cx="-120973.2706" cy="1650" r="123395.7706"/><circle cx="-133312.84766" cy="1650" r="135735.34766"/><circle cx="-146886.38242" cy="1650" r="149308.88242"/><circle cx="-161817.27066" cy="1650" r="164239.77066"/><circle cx="-178241.24773" cy="1650" r="180663.74773"/><circle cx="-196307.6225" cy="1650" r="198730.1225"/><circle cx="-216180.63475" cy="1650" r="218603.13475"/><circle cx="-238040.94823" cy="1650" r="240463.44823"/><circle cx="-262087.29305" cy="1650" r="264509.79305"/><circle cx="-288538.27236" cy="1650" r="290960.77236"/><circle cx="-317634.34959" cy="1650" r="320056.84959"/><circle cx="-349640.03455" cy="1650" r="352062.53455"/><circle cx="-384846.28801" cy="1650" r="387268.78801"/><circle cx="-423573.16681" cy="1650" r="425995.66681"/><circle cx="-466172.73349" cy="1650" r="468595.23349"/><circle cx="-513032.25684" cy="1650" r="515454.75684"/><circle cx="-564577.73252" cy="1650" r="567000.23252"/><circle cx="-621277.75577" cy="1650" r="623700.25577"/><circle cx="-683647.78135" cy="1650" r="686070.28135"/><circle cx="-752254.80949" cy="1650" r="754677.30949"/><circle cx="-827722.54044" cy="1650" r="830145.04044"/><circle cx="-910737.04448" cy="1650" r="913159.54448"/><circle cx="-1002052.99893" cy="1650" r="1004475.49893"/><circle cx="-1102500.54882" cy="1650" r="1104923.04882"/><circle cx="-1212992.8537" cy="1650" r="1215415.3537"/><circle cx="-1334534.38907" cy="1650" r="1336956.88907"/><circle cx="-1468230.07798" cy="1650" r="1470652.57798"/><circle cx="-1615295.33578" cy="1650" r="1617717.83578"/></g></svg>