<svg x="0" y="0" width="2550" height="3300" version="1.1" xmlns="http://www.w3.org/2000/svg" xmlns:xlink="http://www.w3.org/1999/xlink"><g fill="none" stroke="#000000" stroke-width="2" stroke-linecap="butt" stroke-linejoin="miter" stroke-miterlimit="10" stroke-dasharray="" stroke-dashoffset="0" font-family="sans-serif" font-weight="normal" font-size="12" text-anchor="start" mix-blend-mode="normal"><circle cx="1276.1" cy="1650" r="1.1"/><circle cx="1276.21" cy="1650" r="1.21"/><circle cx="1276.331" cy="1650" r="1.331"/><circle cx="1276.4641" cy="1650" r="1.4641"/><circle cx="1276.61051" cy="1650" r="1.61051"/><circle cx="1276.77156" cy="1650" r="1.77156"/><circle cx="1276.94872" cy="1650" r="1.94872"/><circle cx="1277.14359" cy="1650" r="2.14359"/><circle cx="1277.35795" cy="1650" r="2.35795"/><circle cx="1277.59374" cy="1650" r="2.59374"/><circle cx="1277.85312" cy="1650" r="2.85312"/><circle cx="1278.13843" cy="1650" r="3.13843"/><circle cx="1278.45227" cy="1650" r="3.45227"/><circle cx="1278.7975" cy="1650" r="3.7975"/><circle cx="1279.17725" cy="1650" r="4.17725"/><circle cx="1279.59497" cy="1650" r="4.59497"/><circle cx="1280.05447" cy="1650" r="5.05447"/><circle cx="1280.55992" cy="1650" r="5.55992"/><circle cx="1281.11591" cy="1650" r="6.11591"/><circle cx="1281.7275" cy="1650" r="6.7275"/><circle cx="1282.40025" cy="1650" r="7.40025"/><circle cx="1283.14027" cy="1650" r="8.14027"/><circle cx="1283.9543" cy="1650" r="8.9543"/><circle cx="1284.84973" cy="1650" r="9.84973"/><circle cx="1285.83471" cy="1650" r="10.83471"/><circle cx="1286.91818" cy="1650" r="11.91818"/><circle cx="1288.10999" cy="1650" r="13.10999"/><circle cx="1289.42099" cy="1650" r="14.42099"/><circle cx="1290.86309" cy="1650" r="15.86309"/><circle cx="1292.4494" cy="1650" r="17.4494"/><circle cx="1294.19434" cy="1650" r="19.19434"/><circle cx="1296.11378" cy="1650" r="21.11378"/><circle cx="1298.22515" cy="1650" r="23.22515"/><circle cx="1300.54767" cy="1650" r="25.54767"/><circle cx="1303.10244" cy="1650" r="28.10244"/><circle cx="1305.91268" cy="1650" r="30.91268"/><circle cx="1309.00395" cy="1650" r="34.00395"/><circle cx="1312.40434" cy="1650" r="37.40434"/><circle cx="1316.14478" cy="1650" r="41.14478"/><circle cx="1320.25926" cy="1650" r="45.25926"/><circle cx="1324.78518" cy="1650" r="49.78518"/><circle cx="1329.7637" cy="1650" r="54.7637"/><circle cx="1335.24007" cy="1650" r="60.24007"/><circle cx="1341.26408" cy="1650" r="66.26408"/><circle cx="1347.89048" cy="1650" r="72.89048"/><circle cx="1355.17953" cy="1650" r="80.17953"/><circle cx="1363.19749" cy="1650" r="88.19749"/><circle cx="1372.01723" cy="1650" r="97.01723"/><circle cx="1381.71896" cy="1650" r="106.71896"/><circle cx="1392.39085" cy="1650" r="117.39085"/><circle cx="1404.12994" cy="1650" r="129.12994"/><circle cx="1417.04293" cy="1650" r="142.04293"/><circle cx="1431.24723" cy="1650" r="156.24723"/><circle cx="1446.87195" cy="1650" r="171.87195"/><circle cx="1464.05914" cy="1650" r="189.05914"/><circle cx="1482.96506" cy="1650" r="207.96506"/><circle cx="1503.76156" cy="1650" r="228.76156"/><circle cx="1526.63772" cy="1650" r="251.63772"/><circle cx="1551.80149" cy="1650" r="276.80149"/><circle cx="1579.48164" cy="1650" r="304.48164"/><circle cx="1609.9298" cy="1650" r="334.9298"/><circle cx="1643.42278" cy="1650" r="368.42278"/><circle cx="1680.26506" cy="1650" r="405.26506"/><circle cx="1720.79157" cy="1650" r="445.79157"/><circle cx="1765.37073" cy="1650" r="490.37073"/><circle cx="1814.4078" cy="1650" r="539.4078"/><circle cx="1868.34858" cy="1650" r="593.34858"/><circle cx="1927.68344" cy="1650" r="652.68344"/><circle cx="1992.95178" cy="1650" r="717.95178"/><circle cx="2064.74696" cy="1650" r="789.74696"/><circle cx="2143.72165" cy="1650" r="868.72165"/><circle cx="2230.59382" cy="1650" r="955.59382"/><circle cx="2326.1532" cy="1650" r="1051.1532"/><circle cx="2431.26852" cy="1650" r="1156.26852"/><circle cx="2546.89537" cy="1650" r="1271.89537"/><circle cx="2674.08491" cy="1650" r="1399.08491"/><circle cx="2813.9934" cy="1650" r="1538.9934"/><circle cx="2967.89274" cy="1650" r="1692.89274"/><circle cx="3137.18201" cy="1650" r="1862.18201"/><circle cx="3323.40021" cy="1650" r="2048.40021"/><circle cx="3528.24024" cy="1650" r="2253.24024"/><circle cx="3753.56426" cy="1650" r="2478.56426"/><circle cx="4001.42069" cy="1650" r="2726.42069"/><circle cx="4274.06275" cy="1650" r="2999.06275"/><circle cx="4573.96903" cy="1650" r="3298.96903"/><circle cx="4903.86593" cy="1650" r="3628.86593"/><circle cx="5266.75253" cy="1650" r="3991.75253"/><circle cx="5665.92778" cy="1650" r="4390.92778"/><circle cx="6105.02056" cy="1650" r="4830.02056"/><circle cx="6588.02261" cy="1650" r="5313.02261"/><circle cx="7119.32487" cy="1650" r="5844.32487"/><circle cx="7703.75736" cy="1650" r="6428.75736"/><circle cx="8346.6331" cy="1650" r="7071.6331"/><circle cx="9053.79641" cy="1650" r="7778.79641"/><circle cx="9831.67605" cy="1650" r="8556.67605"/><circle cx="10687.34365" cy="1650" r="9412.34365"/><circle cx="11628.57802" cy="1650" r="10353.57802"/><circle cx="12663.93582" cy="1650" r="11388.93582"/><circle cx="13802.8294" cy="1650" r="12527.8294"/><circle cx="15055.61234" cy="1650" r="13780.61234"/><circle cx="16433.67357" cy="1650" r="15158.67357"/><circle cx="17949.54093" cy="1650" r="16674.54093"/><circle cx="19616.99502" cy="1650" r="18341.99502"/><circle cx="21451.19453" cy="1650" r="20176.19453"/><circle cx="23468.81398" cy="1650" r="22193.81398"/><circle cx="25688.19538" cy="1650" r="24413.19538"/><circle cx="28129.51492" cy="1650" r="26854.51492"/><circle cx="30814.96641" cy="1650" r="29539.96641"/><circle cx="33768.96305" cy="1650" r="32493.96305"/><circle cx="37018.35935" cy="1650" r="35743.35935"/><circle cx="40592.69529" cy="1650" r="39317.69529"/><circle cx="44524.46482" cy="1650" r="43249.46482"/><circle cx="48849.4113" cy="1650" r="47574.4113"/><circle cx="53606.85243" cy="1650" r="52331.85243"/><circle cx="58840.03767" cy="1650" r="57565.03767"/><circle cx="64596.54144" cy="1650" r="63321.54144"/><circle cx="70928.69558" cy="1650" r="69653.69558"/><circle cx="77894.06514" cy="1650" r="76619.06514"/><circle cx="85555.97165" cy="1650" r="84280.97165"/><circle cx="93984.06882" cy="1650" r="92709.06882"/><circle cx="103254.9757" cy="1650" r="101979.9757"/><circle cx="113452.97327" cy="1650" r="112177.97327"/><circle cx="124670.7706" cy="1650" r="123395.7706"/><circle cx="137010.34766" cy="1650" r="135735.34766"/><circle cx="150583.88242" cy="1650" r="149308.88242"/><circle cx="165514.77066" cy="1650" r="164239.77066"/><circle cx="181938.74773" cy="1650" r="180663.74773"/><circle cx="200005.1225" cy="1650" r="198730.1225"/><circle cx="219878.13475" cy="1650" r="218603.13475"/><circle cx="241738.44823" cy="1650" r="240463.44823"/><circle cx="265784.79305" cy="1650" r="264509.79305"/><circle cx="292235.77236" cy="1650" r="290960.77236"/><circle cx="321331.84959" cy="1650" r="320056.84959"/><circle cx="353337.53455" cy="1650" r="352062.53455"/><circle cx="388543.78801" cy="1650" r="387268.78801"/><circle cx="427270.66681" cy="1650" r="425995.66681"/><circle cx="469870.23349" cy="1650" r="468595.23349"/><circle cx="516729.75684" cy="1650" r="515454.75684"/><circle cx="568275.23252" cy="1650" r="567000.23252"/><circle cx="624975.25577" cy="1650" r="623700.25577"/><circle cx="687345.28135" cy="1650" r="686070.28135"/><circle cx="755952.30949" cy="1650" r="754677.30949"/><circle cx="831420.04044" cy="1650" r="830145.04044"/><circle cx="914434.54448" cy="1650" r="913159.54448"/><circle cx="1005750.49893" cy="1650" r="1004475.49893"/><circle cx="1106198.04882" cy="1650" r="1104923.04882"/><circle cx="1216690.3537" cy="1650" r="1215415.3537"/><circle cx="1338231.88907" cy="1650" r="1336956.88907"/><circle cx="1471927.57798" cy="1650" r="1470652.57798"/><circle cx="1618992.83578" cy="1650" r="1617717.83578"/><circle cx="1780764.61935" cy="1650" r="1779489.61935"/><circle cx="1958713.58129" cy="1650" r="1957438.58129"/><circle cx="2154457.43942" cy="1650" r="2153182.43942"/><circle cx="2369775.68336" cy="1650" r="2368500.68336"/><circle cx="2606625.7517" cy="1650" r="2605350.7517"/><circle cx="2867160.82687" cy="1650" r="2865885.82687"/><circle cx="3153749.40955" cy="1650" r="3152474.40955"/><circle cx="3468996.85051" cy="1650" r="3467721.85051"/><circle cx="3815769.03556" cy="1650" r="3814494.03556"/><circle cx="4197218.43911" cy="1650" r="4195943.43911"/><circle cx="4616812.78303" cy="1650" r="4615537.78303"/><circle cx="5078366.56133" cy="1650" r="5077091.56133"/><circle cx="5586075.71746" cy="1650" r="5584800.71746"/><circle cx="6144555.78921" cy="1650" r="6143280.78921"/><circle cx="6758883.86813" cy="1650" r="6757608.86813"/><circle cx="7434644.75494" cy="1650" r="7433369.75494"/><circle cx="8177981.73043" cy="1650" r="8176706.73043"/><circle cx="8995652.40348" cy="1650" r="8994377.40348"/><circle cx="9895090.14383" cy="1650" r="9893815.14383"/><circle cx="10884471.65821" cy="1650" r="10883196.65821"/><circle cx="11972791.32403" cy="1650" r="11971516.32403"/><circle cx="13169942.95643" cy="1650" r="13168667.95643"/><circle cx="14486809.75207" cy="1650" r="14485534.75207"/><circle cx="15935363.22728" cy="1650" r="15934088.22728"/><circle cx="17528772.05001" cy="1650" r="17527497.05001"/><circle cx="19281521.75501" cy="1650" r="19280246.75501"/><circle cx="21209546.43051" cy="1650" r="21208271.43051"/><circle cx="23330373.57356" cy="1650" r="23329098.57356"/><circle cx="25663283.43092" cy="1650" r="25662008.43092"/><circle cx="28229484.27401" cy="1650" r="28228209.27401"/><circle cx="31052305.20141" cy="1650" r="31051030.20141"/><circle cx="34157408.22155" cy="1650" r="34156133.22155"/><circle cx="37573021.54371" cy="1650" r="37571746.54371"/><circle cx="41330196.19808" cy="1650" r="41328921.19808"/><circle cx="45463088.31789" cy="1650" r="45461813.31789"/><circle cx="50009269.64968" cy="1650" r="50007994.64968"/><circle cx="55010069.11464" cy="1650" r="55008794.11464"/><circle cx="60510948.52611" cy="1650" r="60509673.52611"/><circle cx="66561915.87872" cy="1650" r="66560640.87872"/><circle cx="73217979.96659" cy="1650" r="73216704.96659"/><circle cx="80539650.46325" cy="1650" r="80538375.46325"/><circle cx="88593488.00958" cy="1650" r="88592213.00958"/><circle cx="97452709.31053" cy="1650" r="97451434.31053"/><circle cx="107197852.74159" cy="1650" r="107196577.74159"/><circle cx="117917510.51575" cy="1650" r="117916235.51575"/><circle cx="129709134.06732" cy="1650" r="129707859.06732"/><circle cx="142679919.97405" cy="1650" r="142678644.97405"/><circle cx="156947784.47146" cy="1650" r="156946509.47146"/><circle cx="172642435.4186" cy="1650" r="172641160.4186"/><circle cx="189906551.46046" cy="1650" r="189905276.46046"/><circle cx="1273.9" cy="1650" r="1.1"/><circle cx="1273.79" cy="1650" r="1.21"/><circle cx="1273.669" cy="1650" r="1.331"/><circle cx="1273.5359" cy="1650" r="1.4641"/><circle cx="1273.38949" cy="1650" r="1.61051"/><circle cx="1273.22844" cy="1650" r="1.77156"/><circle cx="1273.05128" cy="1650" r="1.94872"/><circle cx="1272.85641" cy="1650" r="2.14359"/><circle cx="1272.64205" cy="1650" r="2.35795"/><circle cx="1272.40626" cy="1650" r="2.59374"/><circle cx="1272.14688" cy="1650" r="2.85312"/><circle cx="1271.86157" cy="1650" r="3.13843"/><circle cx="1271.54773" cy="1650" r="3.45227"/><circle cx="1271.2025" cy="1650" r="3.7975"/><circle cx="1270.82275" cy="1650" r="4.17725"/><circle cx="1270.40503" cy="1650" r="4.59497"/><circle cx="1269.94553" cy="1650" r="5.05447"/><circle cx="1269.44008" cy="1650" r="5.55992"/><circle cx="1268.88409" cy="1650" r="6.11591"/><circle cx="1268.2725" cy="1650" r="6.7275"/><circle cx="1267.59975" cy="1650" r="7.40025"/><circle cx="1266.85973" cy="1650" r="8.14027"/><circle cx="1266.0457" cy="1650" r="8.9543"/><circle cx="1265.15027" cy="1650" r="9.84973"/><circle cx="1264.16529" cy="1650" r="10.83471"/><circle cx="1263.08182" cy="1650" r="11.91818"/><circle cx="1261.89001" cy="1650" r="13.10999"/><circle cx="1260.57901" cy="1650" r="14.42099"/><circle cx="1259.13691" cy="1650" r="15.86309"/><circle cx="1257.5506" cy="1650" r="17.4494"/><circle cx="1255.80566" cy="1650" r="19.19434"/><circle cx="1253.88622" cy="1650" r="21.11378"/><circle cx="1251.77485" cy="1650" r="23.22515"/><circle cx="1249.45233" cy="1650" r="25.54767"/><circle cx="1246.89756" cy="1650" r="28.10244"/><circle cx="1244.08732" cy="1650" r="30.91268"/><circle cx="1240.99605" cy="1650" r="34.00395"/><circle cx="1237.59566" cy="1650" r="37.40434"/><circle cx="1233.85522" cy="1650" r="41.14478"/><circle cx="1229.74074" cy="1650" r="45.25926"/><circle cx="1225.21482" cy="1650" r="49.78518"/><circle cx="1220.2363" cy="1650" r="54.7637"/><circle cx="1214.75993" cy="1650" r="60.24007"/><circle cx="1208.73592" cy="1650" r="66.26408"/><circle cx="1202.10952" cy="1650" r="72.89048"/><circle cx="1194.82047" cy="1650" r="80.17953"/><circle cx="1186.80251" cy="1650" r="88.19749"/><circle cx="1177.98277" cy="1650" r="97.01723"/><circle cx="1168.28104" cy="1650" r="106.71896"/><circle cx="1157.60915" cy="1650" r="117.39085"/><circle cx="1145.87006" cy="1650" r="129.12994"/><circle cx="1132.95707" cy="1650" r="142.04293"/><circle cx="1118.75277" cy="1650" r="156.24723"/><circle cx="1103.12805" cy="1650" r="171.87195"/><circle cx="1085.94086" cy="1650" r="189.05914"/><circle cx="1067.03494" cy="1650" r="207.96506"/><circle cx="1046.23844" cy="1650" r="228.76156"/><circle cx="1023.36228" cy="1650" r="251.63772"/><circle cx="998.19851" cy="1650" r="276.80149"/><circle cx="970.51836" cy="1650" r="304.48164"/><circle cx="940.0702" cy="1650" r="334.9298"/><circle cx="906.57722" cy="1650" r="368.42278"/><circle cx="869.73494" cy="1650" r="405.26506"/><circle cx="829.20843" cy="1650" r="445.79157"/><circle cx="784.62927" cy="1650" r="490.37073"/><circle cx="735.5922" cy="1650" r="539.4078"/><circle cx="681.65142" cy="1650" r="593.34858"/><circle cx="622.31656" cy="1650" r="652.68344"/><circle cx="557.04822" cy="1650" r="717.95178"/><circle cx="485.25304" cy="1650" r="789.74696"/><circle cx="406.27835" cy="1650" r="868.72165"/><circle cx="319.40618" cy="1650" r="955.59382"/><circle cx="223.8468" cy="1650" r="1051.1532"/><circle cx="118.73148" cy="1650" r="1156.26852"/><circle cx="3.10463" cy="1650" r="1271.89537"/><circle cx="-124.08491" cy="1650" r="1399.08491"/><circle cx="-263.9934" cy="1650" r="1538.9934"/><circle cx="-417.89274" cy="1650" r="1692.89274"/><circle cx="-587.18201" cy="1650" r="1862.18201"/><circle cx="-773.40021" cy="1650" r="2048.40021"/><circle cx="-978.24024" cy="1650" r="2253.24024"/><circle cx="-1203.56426" cy="1650" r="2478.56426"/><circle cx="-1451.42069" cy="1650" r="2726.42069"/><circle cx="-1724.06275" cy="1650" r="2999.06275"/><circle cx="-2023.96903" cy="1650" r="3298.96903"/><circle cx="-2353.86593" cy="1650" r="3628.86593"/><circle cx="-2716.75253" cy="1650" r="3991.75253"/><circle cx="-3115.92778" cy="1650" r="4390.92778"/><circle cx="-3555.02056" cy="1650" r="4830.02056"/><circle cx="-4038.02261" cy="1650" r="5313.02261"/><circle cx="-4569.32487" cy="1650" r="5844.32487"/><circle cx="-5153.75736" cy="1650" r="6428.75736"/><circle cx="-5796.6331" cy="1650" r="7071.6331"/><circle cx="-6503.79641" cy="1650" r="7778.79641"/><circle cx="-7281.67605" cy="1650" r="8556.67605"/><circle cx="-8137.34365" cy="1650" r="9412.34365"/><circle cx="-9078.57802" cy="1650" r="10353.57802"/><circle cx="-10113.93582" cy="1650" r="11388.93582"/><circle cx="-11252.8294" cy="1650" r="12527.8294"/><circle cx="-12505.61234" cy="1650" r="13780.61234"/><circle cx="-13883.67357" cy="1650" r="15158.67357"/><circle cx="-15399.54093" cy="1650" r="16674.54093"/><circle cx="-17066.99502" cy="1650" r="18341.99502"/><circle cx="-18901.19453" cy="1650" r="20176.19453"/><circle cx="-20918.81398" cy="1650" r="22193.81398"/><circle cx="-23138.19538" cy="1650" r="24413.19538"/><circle cx="-25579.51492" cy="1650" r="26854.51492"/><circle cx="-28264.96641" cy="1650" r="29539.96641"/><circle cx="-31218.96305" cy="1650" r="32493.96305"/><circle cx="-34468.35935" cy="1650" r="35743.35935"/><circle cx="-38042.69529" cy="1650" r="39317.69529"/><circle cx="-41974.46482" cy="1650" r="43249.46482"/><circle cx="-46299.4113" cy="1650" r="47574.4113"/><circle cx="-51056.85243" cy="1650" r="52331.85243"/><circle cx="-56290.03767" cy="1650" r="57565.03767"/><circle cx="-62046.54144" cy="1650" r="63321.54144"/><circle cx="-68378.69558" cy="1650" r="69653.69558"/><circle cx="-75344.06514" cy="1650" r="76619.06514"/><circle cx="-83005.97165" cy="1650" r="84280.97165"/><circle cx="-91434.06882" cy="1650" r="92709.06882"/><circle cx="-100704.9757" cy="1650" r="101979.9757"/><circle cx="-110902.97327" cy="1650" r="112177.97327"/><circle cx="-122120.7706" cy="1650" r="123395.7706"/><circle cx="-134460.34766" cy="1650" r="135735.34766"/><circle cx="-148033.88242" cy="1650" r="149308.88242"/><circle cx="-162964.77066" cy="1650" r="164239.77066"/><circle cx="-179388.74773" cy="1650" r="180663.74773"/><circle cx="-197455.1225" cy="1650" r="198730.1225"/><circle cx="-217328.13475" cy="1650" r="218603.13475"/><circle cx="-239188.44823" cy="1650" r="240463.44823"/><circle cx="-263234.79305" cy="1650" r="264509.79305"/><circle cx="-289685.77236" cy="1650" r="290960.77236"/><circle cx="-318781.84959" cy="1650" r="320056.84959"/><circle cx="-350787.53455" cy="1650" r="352062.53455"/><circle cx="-385993.78801" cy="1650" r="387268.78801"/><circle cx="-424720.66681" cy="1650" r="425995.66681"/><circle cx="-467320.23349" cy="1650" r="468595.23349"/><circle cx="-514179.75684" cy="1650" r="515454.75684"/><circle cx="-565725.23252" cy="1650" r="567000.23252"/><circle cx="-622425.25577" cy="1650" r="623700.25577"/><circle cx="-684795.28135" cy="1650" r="686070.28135"/><circle cx="-753402.30949" cy="1650" r="754677.30949"/><circle cx="-828870.04044" cy="1650" r="830145.04044"/><circle cx="-911884.54448" cy="1650" r="913159.54448"/><circle cx="-1003200.49893" cy="1650" r="1004475.49893"/><circle cx="-1103648.04882" cy="1650" r="1104923.04882"/><circle cx="-1214140.3537" cy="1650" r="1215415.3537"/><circle cx="-1335681.88907" cy="1650" r="1336956.88907"/><circle cx="-1469377.57798" cy="1650" r="1470652.57798"/><circle cx="-1616442.83578" cy="1650" r="1617717.83578"/><circle cx="-1778214.61935" cy="1650" r="1779489.61935"/><circle cx="-1956163.58129" cy="1650" r="1957438.58129"/><circle cx="-2151907.43942" cy="1650" r="2153182.43942"/><circle cx="-2367225.68336" cy="1650" r="2368500.68336"/><circle cx="-2604075.7517" cy="1650" r="2605350.7517"/><circle cx="-2864610.82687" cy="1650" r="2865885.82687"/><circle cx="-3151199.40955" cy="1650" r="3152474.40955"/><circle cx="-3466446.85051" cy="1650" r="3467721.85051"/><circle cx="-3813219.03556" cy="1650" r="3814494.03556"/><circle cx="-4194668.43911" cy="1650" r="4195943.43911"/><circle cx="-4614262.78303" cy="1650" r="4615537.78303"/><circle cx="-5075816.56133" cy="1650" r="5077091.56133"/><circle cx="-5583525.71746" cy="1650" r="5584800.71746"/><circle cx="-6142005.78921" cy="1650" r="6143280.78921"/><circle cx="-6756333.86813" cy="1650" r="6757608.86813"/><circle cx="-7432094.75494" cy="1650" r="7433369.75494"/><circle cx="-8175431.73043" cy="1650" r="8176706.73043"/><circle cx="-8993102.40348" cy="1650" r="8994377.40348"/><circle cx="-9892540.14383" cy="1650" r="9893815.14383"/><circle cx="-10881921.65821" cy="1650" r="10883196.65821"/><circle cx="-11970241.32403" cy="1650" r="11971516.32403"/><circle cx="-13167392.95643" cy="1650" r="13168667.95643"/><circle cx="-14484259.75207" cy="1650" r="14485534.75207"/><circle cx="-15932813.22728" cy="1650" r="15934088.22728"/><circle cx="-17526222.05001" cy="1650" r="17527497.05001"/><circle cx="-19278971.75501" cy="1650" r="19280246.75501"/><circle cx="-21206996.43051" cy="1650" r="21208271.43051"/><circle cx="-23327823.57356" cy="1650" r="23329098.57356"/><circle cx="-25660733.43092" cy="1650" r="25662008.43092"/><circle cx="-28226934.27401" cy="1650" r="28228209.27401"/><circle cx="-31049755.20141" cy="1650" r="31051030.20141"/><circle cx="-34154858.22155" cy="1650" r="34156133.22155"/><circle cx="-37570471.54371" cy="1650" r="37571746.54371"/><circle cx="-41327646.19808" cy="1650" r="41328921.19808"/><circle cx="-45460538.31789" cy="1650" r="45461813.31789"/><circle cx="-50006719.64968" cy="1650" r="50007994.64968"/><circle cx="-55007519.11464" cy="1650" r="55008794.11464"/><circle cx="-60508398.52611" cy="1650" r="60509673.52611"/><circle cx="-66559365.87872" cy="1650" r="66560640.87872"/><circle cx="-73215429.96659" cy="1650" r="73216704.96659"/><circle cx="-80537100.46325" cy="1650" r="80538375.46325"/><circle cx="-88590938.00958" cy="1650" r="88592213.00958"/><circle cx="-97450159.31053" cy="1650" r="97451434.31053"/><circle cx="-107195302.74159" cy="1650" r="107196577.74159"/><circle cx="-117914960.51575" cy="1650" r="117916235.51575"/><circle cx="-129706584.06732" cy="1650" r="129707859.06732"/><circle cx="-142677369.97405" cy="1650" r="142678644.97405"/><circle cx="-156945234.47146" cy="1650" r="156946509.47146"/><circle cx="-172639885.4186" cy="1650" r="172641160.4186"/><circle cx="-189904001.46046" cy="1650" r="189905276.46046"/></g></svg>