<svg x="0" y="0" width="2550" height="3300" version="1.1" xmlns="http://www.w3.org/2000/svg" xmlns:xlink="http://www.w3.org/1999/xlink"><g fill="none" stroke="#000000" stroke-width="2" stroke-linecap="butt" stroke-linejoin="miter" stroke-miterlimit="10" stroke-dasharray="" stroke-dashoffset="0" font-family="sans-serif" font-weight="normal" font-size="12" text-anchor="start" mix-blend-mode="normal"><circle cx="1276.61803" cy="1650" r="1.61803"/><circle cx="1277.61803" cy="1650" r="2.61803"/><circle cx="1279.23607" cy="1650" r="4.23607"/><circle cx="1281.8541" cy="1650" r="6.8541"/><circle cx="1286.09017" cy="1650" r="11.09017"/><circle cx="1292.94427" cy="1650" r="17.94427"/><circle cx="1304.03443" cy="1650" r="29.03443"/><circle cx="1321.97869" cy="1650" r="46.97869"/><circle cx="1351.01312" cy="1650" r="76.01312"/><circle cx="1397.9918" cy="1650" r="122.9918"/><circle cx="1474.0049" cy="1650" r="199.0049"/><circle cx="1596.99668" cy="1650" r="321.99668"/><circle cx="1796.00155" cy="1650" r="521.00155"/><circle cx="2117.99817" cy="1650" r="842.99817"/><circle cx="2638.99961" cy="1650" r="1363.99961"/><circle cx="3481.99761" cy="1650" r="2206.99761"/><circle cx="4845.99695" cy="1650" r="3570.99695"/><circle cx="7052.99412" cy="1650" r="5777.99412"/><circle cx="10623.99036" cy="1650" r="9348.99036"/><circle cx="16401.98334" cy="1650" r="15126.98334"/><circle cx="25750.97185" cy="1650" r="24475.97185"/><circle cx="40877.95219" cy="1650" r="39602.95219"/><ellipse cx="65353.91918" cy="1650" rx="64078.91918" ry="64078.91918"/><circle cx="104956.8635" cy="1650" r="103681.8635"/><circle cx="169035.76996" cy="1650" r="167760.76996"/><circle cx="272717.61289" cy="1650" r="271442.61289"/><circle cx="440478.34956" cy="1650" r="439203.34956"/><circle cx="711920.90858" cy="1650" r="710645.90858"/><circle cx="1151124.17098" cy="1650" r="1149849.17098"/><circle cx="1861769.93853" cy="1650" r="1860494.93853"/><circle cx="3011618.88132" cy="1650" r="3010343.88132"/><circle cx="4872113.45063" cy="1650" r="4870838.45063"/><circle cx="7882456.73454" cy="1650" r="7881181.73454"/><circle cx="12753294.21854" cy="1650" r="12752019.21854"/><circle cx="20634474.38905" cy="1650" r="20633199.38905"/><circle cx="33386491.07694" cy="1650" r="33385216.07694"/><circle cx="54019686.37132" cy="1650" r="54018411.37132"/><circle cx="87404895.82294" cy="1650" r="87403620.82294"/><circle cx="141423296.47426" cy="1650" r="141422021.47426"/><circle cx="228826899.95188" cy="1650" r="228825624.95188"/><circle cx="1273.38197" cy="1650" r="1.61803"/><circle cx="1272.38197" cy="1650" r="2.61803"/><circle cx="1270.76393" cy="1650" r="4.23607"/><circle cx="1268.1459" cy="1650" r="6.8541"/><circle cx="1263.90983" cy="1650" r="11.09017"/><circle cx="1257.05573" cy="1650" r="17.94427"/><circle cx="1245.96557" cy="1650" r="29.03443"/><circle cx="1228.02131" cy="1650" r="46.97869"/><circle cx="1198.98688" cy="1650" r="76.01312"/><circle cx="1152.0082" cy="1650" r="122.9918"/><circle cx="1075.9951" cy="1650" r="199.0049"/><circle cx="953.00332" cy="1650" r="321.99668"/><circle cx="753.99845" cy="1650" r="521.00155"/><circle cx="432.00183" cy="1650" r="842.99817"/><circle cx="-88.99961" cy="1650" r="1363.99961"/><circle cx="-931.99761" cy="1650" r="2206.99761"/><circle cx="-2295.99695" cy="1650" r="3570.99695"/><circle cx="-4502.99412" cy="1650" r="5777.99412"/><circle cx="-8073.99036" cy="1650" r="9348.99036"/><circle cx="-13851.98334" cy="1650" r="15126.98334"/><circle cx="-23200.97185" cy="1650" r="24475.97185"/><circle cx="-38327.95219" cy="1650" r="39602.95219"/><circle cx="-62803.91918" cy="1650" r="64078.91918"/><circle cx="-102406.8635" cy="1650" r="103681.8635"/><circle cx="-166485.76996" cy="1650" r="167760.76996"/><circle cx="-270167.61289" cy="1650" r="271442.61289"/><circle cx="-437928.34956" cy="1650" r="439203.34956"/><circle cx="-709370.90858" cy="1650" r="710645.90858"/><circle cx="-1148574.17098" cy="1650" r="1149849.17098"/><circle cx="-1859219.93853" cy="1650" r="1860494.93853"/><circle cx="-3009068.88132" cy="1650" r="3010343.88132"/><circle cx="-4869563.45063" cy="1650" r="4870838.45063"/><circle cx="-7879906.73454" cy="1650" r="7881181.73454"/><circle cx="-12750744.21854" cy="1650" r="12752019.21854"/><circle cx="-20631924.38905" cy="1650" r="20633199.38905"/><circle cx="-33383941.07694" cy="1650" r="33385216.07694"/><circle cx="-54017136.37132" cy="1650" r="54018411.37132"/><circle cx="-87402345.82294" cy="1650" r="87403620.82294"/><circle cx="-141420746.47426" cy="1650" r="141422021.47426"/><circle cx="-228824349.95188" cy="1650" r="228825624.95188"/></g></svg>