<svg x="0" y="0" width="2550" height="3300" version="1.1" xmlns="http://www.w3.org/2000/svg" xmlns:xlink="http://www.w3.org/1999/xlink"><g fill="none" stroke="#000000" stroke-width="2" stroke-linecap="butt" stroke-linejoin="miter" stroke-miterlimit="10" stroke-dasharray="" stroke-dashoffset="0" font-family="sans-serif" font-weight="normal" font-size="12" text-anchor="start" mix-blend-mode="normal"><circle cx="1275" cy="1.1" r="1.1"/><circle cx="1275" cy="1.21" r="1.21"/><circle cx="1275" cy="1.331" r="1.331"/><circle cx="1275" cy="1.4641" r="1.4641"/><circle cx="1275" cy="1.61051" r="1.61051"/><circle cx="1275" cy="1.77156" r="1.77156"/><circle cx="1275" cy="1.94872" r="1.94872"/><circle cx="1275" cy="2.14359" r="2.14359"/><circle cx="1275" cy="2.35795" r="2.35795"/><circle cx="1275" cy="2.59374" r="2.59374"/><circle cx="1275" cy="2.85312" r="2.85312"/><circle cx="1275" cy="3.13843" r="3.13843"/><circle cx="1275" cy="3.45227" r="3.45227"/><circle cx="1275" cy="3.7975" r="3.7975"/><circle cx="1275" cy="4.17725" r="4.17725"/><circle cx="1275" cy="4.59497" r="4.59497"/><circle cx="1275" cy="5.05447" r="5.05447"/><circle cx="1275" cy="5.55992" r="5.55992"/><circle cx="1275" cy="6.11591" r="6.11591"/><circle cx="1275" cy="6.7275" r="6.7275"/><circle cx="1275" cy="7.40025" r="7.40025"/><circle cx="1275" cy="8.14027" r="8.14027"/><circle cx="1275" cy="8.9543" r="8.9543"/><circle cx="1275" cy="9.84973" r="9.84973"/><circle cx="1275" cy="10.83471" r="10.83471"/><circle cx="1275" cy="11.91818" r="11.91818"/><circle cx="1275" cy="13.10999" r="13.10999"/><circle cx="1275" cy="14.42099" r="14.42099"/><circle cx="1275" cy="15.86309" r="15.86309"/><circle cx="1275" cy="17.4494" r="17.4494"/><circle cx="1275" cy="19.19434" r="19.19434"/><circle cx="1275" cy="21.11378" r="21.11378"/><circle cx="1275" cy="23.22515" r="23.22515"/><circle cx="1275" cy="25.54767" r="25.54767"/><circle cx="1275" cy="28.10244" r="28.10244"/><circle cx="1275" cy="30.91268" r="30.91268"/><circle cx="1275" cy="34.00395" r="34.00395"/><circle cx="1275" cy="37.40434" r="37.40434"/><circle cx="1275" cy="41.14478" r="41.14478"/><circle cx="1275" cy="45.25926" r="45.25926"/><circle cx="1275" cy="49.78518" r="49.78518"/><circle cx="1275" cy="54.7637" r="54.7637"/><circle cx="1275" cy="60.24007" r="60.24007"/><circle cx="1275" cy="66.26408" r="66.26408"/><circle cx="1275" cy="72.89048" r="72.89048"/><circle cx="1275" cy="80.17953" r="80.17953"/><circle cx="1275" cy="88.19749" r="88.19749"/><circle cx="1275" cy="97.01723" r="97.01723"/><circle cx="1275" cy="106.71896" r="106.71896"/><circle cx="1275" cy="117.39085" r="117.39085"/><circle cx="1275" cy="129.12994" r="129.12994"/><circle cx="1275" cy="142.04293" r="142.04293"/><circle cx="1275" cy="156.24723" r="156.24723"/><circle cx="1275" cy="171.87195" r="171.87195"/><circle cx="1275" cy="189.05914" r="189.05914"/><circle cx="1275" cy="207.96506" r="207.96506"/><circle cx="1275" cy="228.76156" r="228.76156"/><circle cx="1275" cy="251.63772" r="251.63772"/><circle cx="1275" cy="276.80149" r="276.80149"/><circle cx="1275" cy="304.48164" r="304.48164"/><circle cx="1275" cy="334.9298" r="334.9298"/><circle cx="1275" cy="368.42278" r="368.42278"/><circle cx="1275" cy="405.26506" r="405.26506"/><circle cx="1275" cy="445.79157" r="445.79157"/><circle cx="1275" cy="490.37073" r="490.37073"/><circle cx="1275" cy="539.4078" r="539.4078"/><circle cx="1275" cy="593.34858" r="593.34858"/><circle cx="1275" cy="652.68344" r="652.68344"/><circle cx="1275" cy="717.95178" r="717.95178"/><circle cx="1275" cy="789.74696" r="789.74696"/><circle cx="1275" cy="868.72165" r="868.72165"/><circle cx="1275" cy="955.59382" r="955.59382"/><circle cx="1275" cy="1051.1532" r="1051.1532"/><circle cx="1275" cy="1156.26852" transform="rotate(0)" r="1156.26852"/><circle cx="1275" cy="1271.89537" r="1271.89537"/><circle cx="1275" cy="1399.08491" transform="rotate(0)" r="1399.08491"/><circle cx="1275" cy="1538.9934" r="1538.9934"/><circle cx="1275" cy="1692.89274" transform="rotate(0)" r="1692.89274"/><circle cx="1275" cy="1862.18201" r="1862.18201"/><circle cx="1275" cy="2048.40021" r="2048.40021"/><circle cx="1275" cy="2253.24024" r="2253.24024"/><circle cx="1275" cy="2478.56426" r="2478.56426"/><circle cx="1275" cy="2726.42069" r="2726.42069"/><circle cx="1275" cy="2999.06275" r="2999.06275"/><circle cx="1275" cy="3298.96903" r="3298.96903"/><circle cx="1275" cy="3628.86593" r="3628.86593"/><circle cx="1275" cy="3991.75253" r="3991.75253"/><circle cx="1275" cy="4390.92778" r="4390.92778"/><circle cx="1275" cy="4830.02056" r="4830.02056"/><circle cx="1275" cy="5313.02261" r="5313.02261"/><circle cx="1275" cy="5844.32487" r="5844.32487"/><circle cx="1275" cy="6428.75736" r="6428.75736"/><circle cx="1275" cy="7071.6331" r="7071.6331"/><circle cx="1275" cy="7778.79641" r="7778.79641"/><circle cx="1275" cy="8556.67605" r="8556.67605"/><circle cx="1275" cy="9412.34365" r="9412.34365"/><circle cx="1275" cy="10353.57802" r="10353.57802"/><circle cx="1275" cy="11388.93582" r="11388.93582"/><circle cx="1275" cy="12527.8294" r="12527.8294"/><circle cx="1275" cy="13780.61234" r="13780.61234"/><circle cx="1275" cy="15158.67357" r="15158.67357"/><circle cx="1275" cy="16674.54093" r="16674.54093"/><circle cx="1275" cy="18341.99502" r="18341.99502"/><circle cx="1275" cy="20176.19453" r="20176.19453"/><circle cx="1275" cy="22193.81398" r="22193.81398"/><circle cx="1275" cy="24413.19538" r="24413.19538"/><circle cx="1275" cy="26854.51492" r="26854.51492"/><circle cx="1275" cy="29539.96641" r="29539.96641"/><circle cx="1275" cy="32493.96305" r="32493.96305"/><circle cx="1275" cy="35743.35935" r="35743.35935"/><circle cx="1275" cy="39317.69529" r="39317.69529"/><circle cx="1275" cy="43249.46482" r="43249.46482"/><circle cx="1275" cy="47574.4113" r="47574.4113"/><circle cx="1275" cy="52331.85243" r="52331.85243"/><circle cx="1275" cy="57565.03767" r="57565.03767"/><circle cx="1275" cy="63321.54144" r="63321.54144"/><circle cx="1275" cy="69653.69558" r="69653.69558"/><circle cx="1275" cy="76619.06514" r="76619.06514"/><circle cx="1275" cy="84280.97165" r="84280.97165"/><circle cx="1275" cy="92709.06882" r="92709.06882"/><circle cx="1275" cy="101979.9757" r="101979.9757"/><circle cx="1275" cy="112177.97327" r="112177.97327"/><circle cx="1275" cy="123395.7706" r="123395.7706"/><circle cx="1275" cy="135735.34766" r="135735.34766"/><circle cx="1275" cy="149308.88242" r="149308.88242"/><circle cx="1275" cy="164239.77066" r="164239.77066"/><circle cx="1275" cy="180663.74773" r="180663.74773"/><circle cx="1275" cy="198730.1225" r="198730.1225"/><circle cx="1275" cy="218603.13475" r="218603.13475"/><circle cx="1275" cy="240463.44823" r="240463.44823"/><circle cx="1275" cy="264509.79305" r="264509.79305"/><circle cx="1275" cy="290960.77236" r="290960.77236"/><circle cx="1275" cy="320056.84959" r="320056.84959"/><circle cx="1275" cy="352062.53455" r="352062.53455"/><circle cx="1275" cy="387268.78801" r="387268.78801"/><circle cx="1275" cy="425995.66681" r="425995.66681"/><circle cx="1275" cy="468595.23349" r="468595.23349"/><circle cx="1275" cy="515454.75684" r="515454.75684"/><circle cx="1275" cy="567000.23252" r="567000.23252"/><circle cx="1275" cy="623700.25577" r="623700.25577"/><circle cx="1275" cy="686070.28135" r="686070.28135"/><circle cx="1275" cy="754677.30949" r="754677.30949"/><circle cx="1275" cy="830145.04044" r="830145.04044"/><circle cx="1275" cy="913159.54448" r="913159.54448"/><circle cx="1275" cy="1004475.49893" r="1004475.49893"/><circle cx="1275" cy="1104923.04882" r="1104923.04882"/><circle cx="1275" cy="1215415.3537" r="1215415.3537"/><circle cx="1275" cy="1336956.88907" r="1336956.88907"/><circle cx="1275" cy="1470652.57798" r="1470652.57798"/><circle cx="1275" cy="1617717.83578" r="1617717.83578"/><circle cx="1275" cy="1779489.61935" r="1779489.61935"/><circle cx="1275" cy="1957438.58129" r="1957438.58129"/><circle cx="1275" cy="2153182.43942" r="2153182.43942"/><circle cx="1275" cy="2368500.68336" r="2368500.68336"/><circle cx="1275" cy="2605350.7517" r="2605350.7517"/><circle cx="1275" cy="2865885.82687" r="2865885.82687"/><circle cx="1275" cy="3152474.40955" r="3152474.40955"/><circle cx="1275" cy="3467721.85051" r="3467721.85051"/><circle cx="1275" cy="3814494.03556" r="3814494.03556"/><circle cx="1275" cy="4195943.43911" r="4195943.43911"/><circle cx="1275" cy="4615537.78303" r="4615537.78303"/><circle cx="1275" cy="5077091.56133" r="5077091.56133"/><circle cx="1275" cy="5584800.71746" r="5584800.71746"/><circle cx="1275" cy="6143280.78921" r="6143280.78921"/><circle cx="1275" cy="6757608.86813" r="6757608.86813"/><circle cx="1275" cy="7433369.75494" r="7433369.75494"/><circle cx="1275" cy="8176706.73043" r="8176706.73043"/><circle cx="1275" cy="8994377.40348" r="8994377.40348"/><circle cx="1275" cy="9893815.14383" r="9893815.14383"/><circle cx="1275" cy="10883196.65821" r="10883196.65821"/><circle cx="1275" cy="11971516.32403" r="11971516.32403"/><circle cx="1275" cy="13168667.95643" r="13168667.95643"/><circle cx="1275" cy="14485534.75207" r="14485534.75207"/><circle cx="1275" cy="15934088.22728" r="15934088.22728"/><circle cx="1275" cy="17527497.05001" r="17527497.05001"/><circle cx="1275" cy="19280246.75501" r="19280246.75501"/><circle cx="1275" cy="21208271.43051" r="21208271.43051"/><circle cx="1275" cy="23329098.57356" r="23329098.57356"/><circle cx="1275" cy="25662008.43092" r="25662008.43092"/><circle cx="1275" cy="28228209.27401" r="28228209.27401"/><circle cx="1275" cy="31051030.20141" r="31051030.20141"/><circle cx="1275" cy="34156133.22155" r="34156133.22155"/><circle cx="1275" cy="37571746.54371" r="37571746.54371"/><circle cx="1275" cy="41328921.19808" r="41328921.19808"/><circle cx="1275" cy="45461813.31789" r="45461813.31789"/><circle cx="1275" cy="50007994.64968" r="50007994.64968"/><circle cx="1275" cy="55008794.11464" r="55008794.11464"/><circle cx="1275" cy="60509673.52611" r="60509673.52611"/><circle cx="1275" cy="66560640.87872" r="66560640.87872"/><circle cx="1275" cy="73216704.96659" r="73216704.96659"/><circle cx="1275" cy="80538375.46325" r="80538375.46325"/><circle cx="1275" cy="88592213.00958" r="88592213.00958"/><circle cx="1275" cy="97451434.31053" r="97451434.31053"/><circle cx="1275" cy="107196577.74159" r="107196577.74159"/><circle cx="1275" cy="117916235.51575" r="117916235.51575"/><circle cx="1275" cy="129707859.06732" r="129707859.06732"/><circle cx="1275" cy="142678644.97405" r="142678644.97405"/><circle cx="1275" cy="156946509.47146" r="156946509.47146"/><circle cx="1275" cy="172641160.4186" r="172641160.4186"/><circle cx="1275" cy="189905276.46046" r="189905276.46046"/><circle cx="1275" cy="208895804.10651" r="208895804.10651"/><circle cx="1275" cy="229785384.51716" r="229785384.51716"/><circle cx="1275" cy="252763922.96888" r="252763922.96888"/><circle cx="1275" cy="278040315.26577" r="278040315.26577"/><circle cx="1275" cy="305844346.79234" r="305844346.79234"/><circle cx="1275" cy="336428781.47158" r="336428781.47158"/><circle cx="1275" cy="370071659.61874" r="370071659.61874"/><circle cx="1275" cy="407078825.58061" r="407078825.58061"/><circle cx="1275" cy="447786708.13867" r="447786708.13867"/><circle cx="1275" cy="492565378.95254" r="492565378.95254"/><circle cx="1275" cy="541821916.84779" r="541821916.84779"/><circle cx="1275" cy="596004108.53257" r="596004108.53257"/><circle cx="1275" cy="655604519.38583" r="655604519.38583"/><circle cx="1275" cy="721164971.32441" r="721164971.32441"/><circle cx="1275" cy="793281468.45685" r="793281468.45685"/><circle cx="1275" cy="872609615.30254" r="872609615.30254"/><circle cx="1275" cy="959870576.83279" r="959870576.83279"/><circle cx="1275" cy="1055857634.51607" r="1055857634.51607"/><circle cx="1275" cy="1161443397.96768" r="1161443397.96768"/><circle cx="1275" cy="1277587737.76444" r="1277587737.76444"/><circle cx="1275" cy="1405346511.54089" r="1405346511.54089"/><circle cx="1275" cy="1545881162.69498" r="1545881162.69498"/><circle cx="1275" cy="1700469278.96447" r="1700469278.96447"/><circle cx="1275" cy="1870516206.86092" r="1870516206.86092"/><circle cx="1275" cy="2057567827.54701" r="2057567827.54701"/><circle cx="1275" cy="2263324610.30172" r="2263324610.30172"/><circle cx="1275" cy="2489657071.33189" r="2489657071.33189"/><circle cx="1275" cy="2738622778.46508" r="2738622778.46508"/><circle cx="1275" cy="3012485056.31159" r="3012485056.31159"/><circle cx="1275" cy="3313733561.94274" r="3313733561.94274"/><circle cx="1275" cy="3645106918.13702" r="3645106918.13702"/><circle cx="1275" cy="4009617609.95072" r="4009617609.95072"/><circle cx="1275" cy="4410579370.94579" r="4410579370.94579"/><circle cx="1275" cy="4851637308.04037" r="4851637308.04037"/><circle cx="1275" cy="5336801038.84441" r="5336801038.84441"/><circle cx="1275" cy="5870481142.72885" r="5870481142.72885"/><circle cx="1275" cy="6457529257.00174" r="6457529257.00174"/><circle cx="1275" cy="7103282182.70191" r="7103282182.70191"/><circle cx="1275" cy="7813610400.97211" r="7813610400.97211"/><circle cx="1275" cy="8594971441.06932" r="8594971441.06932"/><circle cx="1275" cy="9454468585.17625" r="9454468585.17625"/><circle cx="1275" cy="10399915443.69387" r="10399915443.69387"/><circle cx="1275" cy="11439906988.06326" r="11439906988.06326"/><circle cx="1275" cy="12583897686.86959" r="12583897686.86959"/><circle cx="1275" cy="13842287455.55655" r="13842287455.55655"/><circle cx="1275" cy="15226516201.11221" r="15226516201.11221"/><circle cx="1275" cy="16749167821.22343" r="16749167821.22343"/><circle cx="1275" cy="18424084603.34577" r="18424084603.34577"/><circle cx="1275" cy="20266493063.68035" r="20266493063.68035"/><circle cx="1275" cy="22293142370.04839" r="22293142370.04839"/><circle cx="1275" cy="24522456607.05323" r="24522456607.05323"/><circle cx="1275" cy="26974702267.75856" r="26974702267.75856"/><circle cx="1275" cy="29672172494.53442" r="29672172494.53442"/><circle cx="1275" cy="32639389743.98786" r="32639389743.98786"/><circle cx="1275" cy="35903328718.38665" r="35903328718.38665"/><circle cx="1275" cy="39493661590.22532" r="39493661590.22532"/><circle cx="1275" cy="43443027749.24786" r="43443027749.24786"/><circle cx="1275" cy="47787330524.17265" r="47787330524.17265"/><circle cx="1275" cy="52566063576.58991" r="52566063576.58991"/><circle cx="1275" cy="57822669934.24891" r="57822669934.24891"/><circle cx="1275.00001" cy="63604936927.67381" r="63604936927.67381"/><circle cx="1275" cy="69965430620.4412" r="69965430620.4412"/><circle cx="1275" cy="76961973682.48532" r="76961973682.48532"/><circle cx="1275" cy="84658171050.73386" r="84658171050.73386"/><circle cx="1275" cy="93123988155.80727" r="93123988155.80727"/><circle cx="1275" cy="102436386971.38799" r="102436386971.38799"/><circle cx="1275" cy="112680025668.5268" r="112680025668.5268"/><circle cx="1275" cy="123948028235.37949" r="123948028235.37949"/><circle cx="1275.00002" cy="136342831058.91743" r="136342831058.91743"/><circle cx="1275" cy="149977114164.8092" r="149977114164.8092"/><circle cx="1275" cy="164974825581.29013" r="164974825581.29013"/><circle cx="1275" cy="181472308139.41916" r="181472308139.41916"/><circle cx="1275" cy="199619538953.36108" r="199619538953.36108"/><circle cx="1275" cy="219581492848.6972" r="219581492848.6972"/><circle cx="1275" cy="241539642133.56696" r="241539642133.56696"/><circle cx="1275.00003" cy="265693606346.92368" r="265693606346.92368"/><circle cx="1275" cy="292262966981.6161" r="292262966981.6161"/><circle cx="1275" cy="321489263679.7777" r="321489263679.7777"/><circle cx="1275" cy="353638190047.7555" r="353638190047.7555"/><circle cx="1275" cy="389002009052.53107" r="389002009052.53107"/><circle cx="1275" cy="427902209957.7842" r="427902209957.7842"/><circle cx="1275" cy="470692430953.5626" r="470692430953.5626"/><circle cx="1275.00006" cy="517761674048.91895" r="517761674048.91895"/><circle cx="1275" cy="569537841453.8109" r="569537841453.8109"/><circle cx="1275" cy="626491625599.192" r="626491625599.192"/><circle cx="1275" cy="689140788159.1113" r="689140788159.1113"/><circle cx="1275" cy="758054866975.0226" r="758054866975.0226"/><circle cx="1275" cy="833860353672.5249" r="833860353672.5249"/><circle cx="1275" cy="917246389039.7775" r="917246389039.7775"/><circle cx="1275.00012" cy="1008971027943.7552" r="1008971027943.7552"/><circle cx="1275" cy="1109868130738.1309" r="1109868130738.1309"/><circle cx="1275" cy="1220854943811.944" r="1220854943811.944"/><circle cx="1275" cy="1342940438193.1387" r="1342940438193.1387"/><circle cx="1275" cy="1477234482012.4524" r="1477234482012.4524"/><circle cx="1275" cy="1624957930213.698" r="1624957930213.698"/><circle cx="1275" cy="1787453723235.0679" r="1787453723235.0679"/><circle cx="1275" cy="1966199095558.5747" r="1966199095558.5747"/><circle cx="1275.00024" cy="2162819005114.4324" r="2162819005114.4324"/><circle cx="1275" cy="2379100905625.876" r="2379100905625.876"/><circle cx="1275" cy="2617010996188.464" r="2617010996188.464"/><circle cx="1275" cy="2878712095807.3105" r="2878712095807.3105"/><circle cx="1275" cy="3166583305388.0425" r="3166583305388.0425"/><circle cx="1275" cy="3483241635926.8467" r="3483241635926.8467"/><circle cx="1275" cy="3831565799519.5317" r="3831565799519.5317"/><circle cx="1275.00049" cy="4214722379471.4854" r="4214722379471.4854"/><circle cx="1275" cy="4636194617418.634" r="4636194617418.634"/><circle cx="1275" cy="5099814079160.498" r="5099814079160.498"/><circle cx="1275" cy="5609795487076.548" r="5609795487076.548"/><circle cx="1275" cy="6170775035784.203" r="6170775035784.203"/><circle cx="1275" cy="6787852539362.624" r="6787852539362.624"/><circle cx="1275" cy="7466637793298.887" r="7466637793298.887"/><circle cx="1275.00098" cy="8213301572628.777" r="8213301572628.777"/><circle cx="1275" cy="9034631729891.654" r="9034631729891.654"/><circle cx="1275" cy="9938094902880.82" r="9938094902880.82"/><circle cx="1275" cy="10931904393168.902" r="10931904393168.902"/><circle cx="1275" cy="12025094832485.793" r="12025094832485.793"/><circle cx="1275" cy="13227604315734.371" r="13227604315734.371"/><circle cx="1275" cy="14550364747307.812" r="14550364747307.812"/><circle cx="1275.00195" cy="16005401222038.594" r="16005401222038.594"/><circle cx="1275" cy="17605941344242.457" r="17605941344242.457"/><circle cx="1275" cy="19366535478666.703" r="19366535478666.703"/><circle cx="1275" cy="21303189026533.375" r="21303189026533.375"/><circle cx="1275" cy="23433507929186.715" r="23433507929186.715"/><circle cx="1275" cy="25776858722105.387" r="25776858722105.387"/><circle cx="1275" cy="28354544594315.926" r="28354544594315.926"/><circle cx="1275" cy="31189999053747.516" r="31189999053747.516"/><circle cx="1275.00391" cy="34308998959122.273" r="34308998959122.273"/><circle cx="1275" cy="37739898855034.5" r="37739898855034.5"/><circle cx="1275" cy="41513888740537.95" r="41513888740537.95"/><circle cx="1275" cy="45665277614591.75" r="45665277614591.75"/><circle cx="1275" cy="50231805376050.94" r="50231805376050.94"/><circle cx="1275" cy="55254985913656.02" r="55254985913656.02"/><circle cx="1275" cy="60780484505021.63" r="60780484505021.63"/><circle cx="1275.00781" cy="66858532955523.81" r="66858532955523.81"/><circle cx="1275" cy="73544386251076.19" r="73544386251076.19"/><circle cx="1275" cy="80898824876183.81" r="80898824876183.81"/><circle cx="1275" cy="88988707363802.2" r="88988707363802.2"/><circle cx="1275" cy="97887578100182.45" r="97887578100182.45"/><circle cx="1275" cy="107676335910200.69" r="107676335910200.69"/><circle cx="1275" cy="118443969501220.77" r="118443969501220.77"/><circle cx="1275.01563" cy="130288366451342.88" r="130288366451342.88"/><circle cx="1275" cy="143317203096477.16" r="143317203096477.16"/><circle cx="1275" cy="157648923406124.88" r="157648923406124.88"/><circle cx="1275" cy="173413815746737.38" r="173413815746737.38"/><circle cx="1275" cy="190755197321411.12" r="190755197321411.12"/><circle cx="1275" cy="209830717053552.22" r="209830717053552.22"/><circle cx="1275" cy="230813788758907.5" r="230813788758907.5"/><circle cx="1275" cy="253895167634798.25" r="253895167634798.25"/><circle cx="1275.03125" cy="279284684398278.12" r="279284684398278.12"/><circle cx="1275" cy="307213152838105.94" r="307213152838105.94"/><circle cx="1275" cy="337934468121916.56" r="337934468121916.56"/><circle cx="1275" cy="371727914934108.25" r="371727914934108.25"/><circle cx="1275" cy="408900706427519.1" r="408900706427519.1"/><circle cx="1275" cy="449790777070271.06" r="449790777070271.06"/><circle cx="1275" cy="494769854777298.2" r="494769854777298.2"/><circle cx="1275.0625" cy="544246840255028.1" r="544246840255028.1"/><circle cx="1275" cy="598671524280530.9" r="598671524280530.9"/><circle cx="1275" cy="658538676708584" r="658538676708584"/><circle cx="1275" cy="724392544379442.5" r="724392544379442.5"/><circle cx="1275" cy="796831798817386.9" r="796831798817386.9"/><circle cx="1275" cy="876514978699125.5" r="876514978699125.5"/><circle cx="1275" cy="964166476569038.2" r="964166476569038.2"/><circle cx="1275.125" cy="1060583124225942.1" r="1060583124225942.1"/><circle cx="1275" cy="1166641436648536.5" r="1166641436648536.5"/><circle cx="1275" cy="1283305580313390.2" r="1283305580313390.2"/><circle cx="1275" cy="1411636138344729.5" r="1411636138344729.5"/><circle cx="1275" cy="1552799752179202.5" r="1552799752179202.5"/><circle cx="1275" cy="1708079727397122.8" r="1708079727397122.8"/><circle cx="1275" cy="1878887700136835.5" r="1878887700136835.5"/><circle cx="1275.25" cy="2066776470150519.2" r="2066776470150519.2"/><circle cx="1275" cy="2273454117165571.5" r="2273454117165571.5"/><circle cx="1275" cy="2500799528882129" r="2500799528882129"/><circle cx="1275" cy="2750879481770342" r="2750879481770342"/><circle cx="1275" cy="3025967429947376.5" r="3025967429947376.5"/><circle cx="1275" cy="3328564172942115" r="3328564172942115"/><circle cx="1275" cy="3661420590236326.5" r="3661420590236326.5"/><circle cx="1275" cy="4027562649259959.5" r="4027562649259959.5"/><circle cx="1275.5" cy="4430318914185955" r="4430318914185955"/><circle cx="1275" cy="4873350805604551" r="4873350805604551"/><circle cx="1275" cy="5360685886165007" r="5360685886165007"/><circle cx="1275" cy="5896754474781508" r="5896754474781508"/><circle cx="1275" cy="6486429922259660" r="6486429922259660"/><circle cx="1275" cy="7135072914485625" r="7135072914485625"/><circle cx="1275" cy="7848580205934188" r="7848580205934188"/><circle cx="1276" cy="8633438226527607" r="8633438226527607"/><circle cx="1276" cy="9496782049180368" r="9496782049180368"/><circle cx="1276" cy="10446460254098406" r="10446460254098406"/><circle cx="1276" cy="11491106279508248" r="11491106279508248"/><circle cx="1276" cy="12640216907459074" r="12640216907459074"/><circle cx="1276" cy="13904238598204982" r="13904238598204982"/><circle cx="1276" cy="15294662458025482" r="15294662458025482"/><circle cx="1276" cy="16824128703828032" r="16824128703828032"/><circle cx="1276" cy="18506541574210836" r="18506541574210836"/><circle cx="1276" cy="20357195731631920" r="20357195731631920"/><circle cx="1276" cy="22392915304795110" r="22392915304795110"/><circle cx="1276" cy="24632206835274624" r="24632206835274624"/><circle cx="1276" cy="27095427518802090" r="27095427518802090"/><circle cx="1276" cy="29804970270682300" r="29804970270682300"/><circle cx="1276" cy="32785467297750536" r="32785467297750536"/><circle cx="1280" cy="36064014027525590" r="36064014027525590"/><circle cx="1280" cy="39670415430278150" r="39670415430278150"/><circle cx="1280" cy="43637456973305970" r="43637456973305970"/><circle cx="1280" cy="48001202670636570" r="48001202670636570"/><circle cx="1280" cy="52801322937700230" r="52801322937700230"/><circle cx="1280" cy="58081455231470260" r="58081455231470260"/><circle cx="1280" cy="63889600754617290" r="63889600754617290"/><circle cx="1280" cy="70278560830079020" r="70278560830079020"/><circle cx="1280" cy="77306416913086930" r="77306416913086930"/><circle cx="1280" cy="85037058604395630" r="85037058604395630"/><circle cx="1280" cy="93540764464835200" r="93540764464835200"/><circle cx="1280" cy="102894840911318740" r="102894840911318740"/><circle cx="1280" cy="113184325002450610" r="113184325002450610"/><circle cx="1280" cy="124502757502695710" r="124502757502695710"/><circle cx="1280" cy="136953033252965260" r="136953033252965260"/><circle cx="1280" cy="150648336578261820" r="150648336578261820"/><circle cx="1280" cy="165713170236088030" r="165713170236088030"/><circle cx="1280" cy="182284487259696860" r="182284487259696860"/><circle cx="1280" cy="200512935985666560" r="200512935985666560"/><circle cx="1280" cy="220564229584233250" r="220564229584233250"/><circle cx="1280" cy="242620652542656640" r="242620652542656640"/><circle cx="1280" cy="266882717796922300" r="266882717796922300"/><circle cx="1280" cy="293570989576614500" r="293570989576614500"/><circle cx="1280" cy="322928088534276030" r="322928088534276030"/><circle cx="1280" cy="355220897387703700" r="355220897387703700"/><circle cx="1280" cy="390742987126474100" r="390742987126474100"/><circle cx="1280" cy="429817285839121500" r="429817285839121500"/><circle cx="1280" cy="472799014423033660" r="472799014423033660"/><circle cx="1280" cy="520078915865337100" r="520078915865337100"/><circle cx="1280" cy="572086807451870850" r="572086807451870850"/><circle cx="1280" cy="629295488197057900" r="629295488197057900"/><circle cx="1280" cy="692225037016763800" r="692225037016763800"/><circle cx="1280" cy="761447540718440200" r="761447540718440200"/><circle cx="1280" cy="837592294790284300" r="837592294790284300"/><circle cx="1280" cy="921351524269312800" r="921351524269312800"/><circle cx="1280" cy="1013486676696244100" r="1013486676696244100"/><circle cx="1280" cy="1114835344365868400" r="1114835344365868400"/><circle cx="1280" cy="1226318878802455600" r="1226318878802455600"/><circle cx="1280" cy="1348950766682701300" r="1348950766682701300"/><circle cx="1280" cy="1483845843350971600" r="1483845843350971600"/><circle cx="1280" cy="1632230427686069000" r="1632230427686069000"/><circle cx="1280" cy="1795453470454675700" r="1795453470454675700"/><circle cx="1280" cy="1974998817500143600" r="1974998817500143600"/><circle cx="1536" cy="2172498699250158000" r="2172498699250158000"/><circle cx="1536" cy="2389748569175174000" r="2389748569175174000"/><circle cx="1536" cy="2628723426092692000" r="2628723426092692000"/><circle cx="1536" cy="2891595768701961000" r="2891595768701961000"/><circle cx="1536" cy="3180755345572157000" r="3180755345572157000"/><circle cx="1536" cy="3498830880129373000" r="3498830880129373000"/><circle cx="1536" cy="3848713968142312000" r="3848713968142312000"/><circle cx="1536" cy="4233585364956543500" r="4233585364956543500"/><circle cx="2048" cy="4656943901452198000" r="4656943901452198000"/><circle cx="2048" cy="5122638291597418000" r="5122638291597418000"/><circle cx="2048" cy="5634902120757161000" r="5634902120757161000"/><circle cx="2048" cy="6198392332832878000" r="6198392332832878000"/><circle cx="2048" cy="6818231566116166000" r="6818231566116166000"/><circle cx="2048" cy="7500054722727782000" r="7500054722727782000"/><circle cx="2048" cy="8250060195000562000" r="8250060195000562000"/><circle cx="2048" cy="9075066214500618000" r="9075066214500618000"/><circle cx="2048" cy="9982572835950680000" r="9982572835950680000"/><circle cx="2048" cy="10980830119545750000" r="10980830119545750000"/><circle cx="2048" cy="12078913131500325000" r="12078913131500325000"/><circle cx="2048" cy="13286804444650359000" r="13286804444650359000"/><circle cx="2048" cy="14615484889115396000" r="14615484889115396000"/><circle cx="2048" cy="16077033378026936000" r="16077033378026936000"/><circle cx="2048" cy="17684736715829633000" r="17684736715829633000"/><circle cx="4096" cy="19453210387412595000" r="19453210387412595000"/><circle cx="4096" cy="21398531426153857000" r="21398531426153857000"/><circle cx="4096" cy="23538384568769245000" r="23538384568769245000"/><circle cx="4096" cy="25892223025646170000" r="25892223025646170000"/><circle cx="4096" cy="28481445328210790000" r="28481445328210790000"/><circle cx="4096" cy="31329589861031870000" r="31329589861031870000"/><circle cx="4096" cy="34462548847135060000" r="34462548847135060000"/><circle cx="0" cy="37908803731848570000" r="37908803731848570000"/><circle cx="0" cy="41699684105033430000" r="41699684105033430000"/><circle cx="0" cy="45869652515536780000" r="45869652515536780000"/><circle cx="8192" cy="50456617767090460000" r="50456617767090460000"/><circle cx="8192" cy="55502279543799510000" r="55502279543799510000"/><circle cx="8192" cy="61052507498179470000" r="61052507498179470000"/><circle cx="8192" cy="67157758247997420000" r="67157758247997420000"/><circle cx="0" cy="73873534072797170000" r="73873534072797170000"/><circle cx="0" cy="81260887480076900000" r="81260887480076900000"/><circle cx="0" cy="89386976228084600000" r="89386976228084600000"/><circle cx="0" cy="98325673850893060000" r="98325673850893060000"/><circle cx="0" cy="108158241235982370000" r="108158241235982370000"/><circle cx="16384" cy="118974065359580630000" r="118974065359580630000"/><circle cx="16384" cy="130871471895538680000" r="130871471895538680000"/><circle cx="16384" cy="143958619085092550000" r="143958619085092550000"/><circle cx="0" cy="158354480993601800000" r="158354480993601800000"/><circle cx="0" cy="174189929092962030000" r="174189929092962030000"/><circle cx="0" cy="191608922002258230000" r="191608922002258230000"/><circle cx="0" cy="210769814202484060000" r="210769814202484060000"/><circle cx="0" cy="231846795622732500000" r="231846795622732500000"/><circle cx="32768" cy="255031475185005760000" r="255031475185005760000"/><circle cx="32768" cy="280534622703506360000" r="280534622703506360000"/><circle cx="0" cy="308588084973857000000" r="308588084973857000000"/><circle cx="0" cy="339446893471242700000" r="339446893471242700000"/><circle cx="0" cy="373391582818367050000" r="373391582818367050000"/><circle cx="0" cy="410730741100203800000" r="410730741100203800000"/><circle cx="0" cy="451803815210224250000" r="451803815210224250000"/><circle cx="0" cy="496984196731246700000" r="496984196731246700000"/><circle cx="65536" cy="546682616404371400000" r="546682616404371400000"/><circle cx="0" cy="601350878044808500000" r="601350878044808500000"/><circle cx="0" cy="661485965849289400000" r="661485965849289400000"/><circle cx="0" cy="727634562434218500000" r="727634562434218500000"/><circle cx="0" cy="800398018677640300000" r="800398018677640300000"/><circle cx="0" cy="880437820545404500000" r="880437820545404500000"/><circle cx="0" cy="968481602599945000000" r="968481602599945000000"/><circle cx="131072" cy="1.0653297628599394e+21" r="1.0653297628599394e+21"/><circle cx="131072" cy="1.1718627391459336e+21" r="1.1718627391459336e+21"/><circle cx="0" cy="1.289049013060527e+21" r="1.289049013060527e+21"/><circle cx="0" cy="1.4179539143665797e+21" r="1.4179539143665797e+21"/><circle cx="0" cy="1.5597493058032378e+21" r="1.5597493058032378e+21"/><circle cx="0" cy="1.7157242363835617e+21" r="1.7157242363835617e+21"/><circle cx="0" cy="1.887296660021918e+21" r="1.887296660021918e+21"/><circle cx="0" cy="2.0760263260241097e+21" r="2.0760263260241097e+21"/><circle cx="262144" cy="2.283628958626521e+21" r="2.283628958626521e+21"/><circle cx="0" cy="2.511991854489173e+21" r="2.511991854489173e+21"/><circle cx="0" cy="2.763191039938091e+21" r="2.763191039938091e+21"/><circle cx="0" cy="3.0395101439319e+21" r="3.0395101439319e+21"/><circle cx="0" cy="3.3434611583250905e+21" r="3.3434611583250905e+21"/><circle cx="0" cy="3.6778072741576e+21" r="3.6778072741576e+21"/><circle cx="0" cy="4.0455880015733593e+21" r="4.0455880015733593e+21"/><circle cx="524288" cy="4.450146801730696e+21" r="4.450146801730696e+21"/><circle cx="0" cy="4.895161481903766e+21" r="4.895161481903766e+21"/><circle cx="0" cy="5.384677630094143e+21" r="5.384677630094143e+21"/><circle cx="0" cy="5.923145393103557e+21" r="5.923145393103557e+21"/><circle cx="0" cy="6.515459932413915e+21" r="6.515459932413915e+21"/><circle cx="0" cy="7.167005925655306e+21" r="7.167005925655306e+21"/><circle cx="0" cy="7.883706518220836e+21" r="7.883706518220836e+21"/><circle cx="1048576" cy="8.672077170042921e+21" r="8.672077170042921e+21"/><circle cx="0" cy="9.539284887047214e+21" r="9.539284887047214e+21"/><circle cx="0" cy="1.0493213375751938e+22" r="1.0493213375751938e+22"/><circle cx="0" cy="1.1542534713327133e+22" r="1.1542534713327133e+22"/><circle cx="0" cy="1.2696788184659848e+22" r="1.2696788184659848e+22"/><circle cx="0" cy="1.3966467003125833e+22" r="1.3966467003125833e+22"/><circle cx="0" cy="1.5363113703438417e+22" r="1.5363113703438417e+22"/><circle cx="0" cy="1.689942507378226e+22" r="1.689942507378226e+22"/><circle cx="2097152" cy="1.858936758116049e+22" r="1.858936758116049e+22"/><circle cx="0" cy="2.044830433927654e+22" r="2.044830433927654e+22"/><circle cx="0" cy="2.2493134773204193e+22" r="2.2493134773204193e+22"/><circle cx="0" cy="2.4742448250524612e+22" r="2.4742448250524612e+22"/><circle cx="0" cy="2.721669307557707e+22" r="2.721669307557707e+22"/><circle cx="0" cy="2.9938362383134785e+22" r="2.9938362383134785e+22"/><circle cx="0" cy="3.2932198621448266e+22" r="3.2932198621448266e+22"/><circle cx="4194304" cy="3.6225418483593097e+22" r="3.6225418483593097e+22"/><circle cx="0" cy="3.984796033195241e+22" r="3.984796033195241e+22"/><circle cx="0" cy="4.383275636514765e+22" r="4.383275636514765e+22"/><circle cx="0" cy="4.821603200166242e+22" r="4.821603200166242e+22"/><circle cx="0" cy="5.303763520182866e+22" r="5.303763520182866e+22"/><circle cx="0" cy="5.834139872201154e+22" r="5.834139872201154e+22"/><circle cx="0" cy="6.41755385942127e+22" r="6.41755385942127e+22"/><circle cx="8388608" cy="7.059309245363398e+22" r="7.059309245363398e+22"/><circle cx="0" cy="7.76524016989974e+22" r="7.76524016989974e+22"/><circle cx="0" cy="8.541764186889713e+22" r="8.541764186889713e+22"/><circle cx="0" cy="9.395940605578685e+22" r="9.395940605578685e+22"/><circle cx="0" cy="1.0335534666136555e+23" r="1.0335534666136555e+23"/><circle cx="0" cy="1.136908813275021e+23" r="1.136908813275021e+23"/><circle cx="0" cy="1.2505996946025233e+23" r="1.2505996946025233e+23"/><circle cx="16777216" cy="1.3756596640627756e+23" r="1.3756596640627756e+23"/><circle cx="0" cy="1.5132256304690536e+23" r="1.5132256304690536e+23"/><circle cx="0" cy="1.6645481935159592e+23" r="1.6645481935159592e+23"/><circle cx="0" cy="1.8310030128675552e+23" r="1.8310030128675552e+23"/><circle cx="0" cy="2.014103314154311e+23" r="2.014103314154311e+23"/><circle cx="0" cy="2.2155136455697427e+23" r="2.2155136455697427e+23"/><circle cx="0" cy="2.4370650101267166e+23" r="2.4370650101267166e+23"/><circle cx="0" cy="2.6807715111393884e+23" r="2.6807715111393884e+23"/><circle cx="33554432" cy="2.948848662253328e+23" r="2.948848662253328e+23"/><circle cx="0" cy="3.243733528478661e+23" r="3.243733528478661e+23"/><circle cx="0" cy="3.568106881326527e+23" r="3.568106881326527e+23"/><circle cx="0" cy="3.92491756945918e+23" r="3.92491756945918e+23"/><circle cx="0" cy="4.3174093264050996e+23" r="4.3174093264050996e+23"/><circle cx="0" cy="4.7491502590456095e+23" r="4.7491502590456095e+23"/><circle cx="0" cy="5.22406528495017e+23" r="5.22406528495017e+23"/><circle cx="67108864" cy="5.746471813445187e+23" r="5.746471813445187e+23"/><circle cx="0" cy="6.321118994789707e+23" r="6.321118994789707e+23"/><circle cx="0" cy="6.953230894268678e+23" r="6.953230894268678e+23"/><circle cx="0" cy="7.648553983695547e+23" r="7.648553983695547e+23"/><circle cx="0" cy="8.413409382065102e+23" r="8.413409382065102e+23"/><circle cx="0" cy="9.254750320271612e+23" r="9.254750320271612e+23"/><circle cx="0" cy="1.0180225352298774e+24" r="1.0180225352298774e+24"/><circle cx="134217728" cy="1.1198247887528655e+24" r="1.1198247887528655e+24"/><circle cx="0" cy="1.231807267628152e+24" r="1.231807267628152e+24"/><circle cx="0" cy="1.3549879943909673e+24" r="1.3549879943909673e+24"/><circle cx="0" cy="1.4904867938300641e+24" r="1.4904867938300641e+24"/><circle cx="0" cy="1.6395354732130708e+24" r="1.6395354732130708e+24"/><circle cx="0" cy="1.803489020534378e+24" r="1.803489020534378e+24"/><circle cx="0" cy="1.9838379225878158e+24" r="1.9838379225878158e+24"/><circle cx="0" cy="2.1822217148465972e+24" r="2.1822217148465972e+24"/><circle cx="268435456" cy="2.4004438863312577e+24" r="2.4004438863312577e+24"/><circle cx="0" cy="2.6404882749643833e+24" r="2.6404882749643833e+24"/><circle cx="0" cy="2.904537102460822e+24" r="2.904537102460822e+24"/><circle cx="0" cy="3.194990812706904e+24" r="3.194990812706904e+24"/><circle cx="0" cy="3.5144898939775946e+24" r="3.5144898939775946e+24"/><circle cx="0" cy="3.865938883375354e+24" r="3.865938883375354e+24"/><circle cx="0" cy="4.25253277171289e+24" r="4.25253277171289e+24"/><circle cx="536870912" cy="4.6777860488841793e+24" r="4.6777860488841793e+24"/><circle cx="0" cy="5.145564653772598e+24" r="5.145564653772598e+24"/><circle cx="0" cy="5.660121119149858e+24" r="5.660121119149858e+24"/><circle cx="0" cy="6.226133231064843e+24" r="6.226133231064843e+24"/><circle cx="0" cy="6.848746554171329e+24" r="6.848746554171329e+24"/><circle cx="0" cy="7.533621209588461e+24" r="7.533621209588461e+24"/><circle cx="0" cy="8.286983330547308e+24" r="8.286983330547308e+24"/><circle cx="1073741824" cy="9.115681663602041e+24" r="9.115681663602041e+24"/><circle cx="0" cy="1.0027249829962244e+25" r="1.0027249829962244e+25"/><circle cx="0" cy="1.1029974812958469e+25" r="1.1029974812958469e+25"/><circle cx="0" cy="1.2132972294254317e+25" r="1.2132972294254317e+25"/><circle cx="0" cy="1.3346269523679751e+25" r="1.3346269523679751e+25"/><circle cx="0" cy="1.4680896476047726e+25" r="1.4680896476047726e+25"/><circle cx="0" cy="1.6148986123652502e+25" r="1.6148986123652502e+25"/><circle cx="2147483648" cy="1.7763884736017753e+25" r="1.7763884736017753e+25"/><circle cx="0" cy="1.954027320961953e+25" r="1.954027320961953e+25"/><circle cx="0" cy="2.1494300530581482e+25" r="2.1494300530581482e+25"/><circle cx="0" cy="2.364373058363963e+25" r="2.364373058363963e+25"/><circle cx="0" cy="2.6008103642003595e+25" r="2.6008103642003595e+25"/><circle cx="0" cy="2.8608914006203956e+25" r="2.8608914006203956e+25"/><circle cx="0" cy="3.1469805406824354e+25" r="3.1469805406824354e+25"/><circle cx="0" cy="3.4616785947506794e+25" r="3.4616785947506794e+25"/><circle cx="4294967296" cy="3.8078464542257475e+25" r="3.8078464542257475e+25"/><circle cx="0" cy="4.188631099648322e+25" r="4.188631099648322e+25"/><circle cx="0" cy="4.607494209613155e+25" r="4.607494209613155e+25"/><circle cx="0" cy="5.068243630574471e+25" r="5.068243630574471e+25"/><circle cx="0" cy="5.575067993631918e+25" r="5.575067993631918e+25"/><circle cx="0" cy="6.132574792995111e+25" r="6.132574792995111e+25"/><circle cx="0" cy="6.745832272294623e+25" r="6.745832272294623e+25"/><circle cx="8589934592" cy="7.420415499524086e+25" r="7.420415499524086e+25"/><circle cx="0" cy="8.162457049476495e+25" r="8.162457049476495e+25"/><circle cx="0" cy="8.978702754424146e+25" r="8.978702754424146e+25"/><circle cx="0" cy="9.876573029866561e+25" r="9.876573029866561e+25"/><circle cx="0" cy="1.0864230332853219e+26" r="1.0864230332853219e+26"/><circle cx="0" cy="1.1950653366138542e+26" r="1.1950653366138542e+26"/><circle cx="0" cy="1.3145718702752398e+26" r="1.3145718702752398e+26"/><circle cx="17179869184" cy="1.4460290573027639e+26" r="1.4460290573027639e+26"/><circle cx="0" cy="1.5906319630330404e+26" r="1.5906319630330404e+26"/><circle cx="0" cy="1.7496951593363447e+26" r="1.7496951593363447e+26"/><circle cx="0" cy="1.9246646752699794e+26" r="1.9246646752699794e+26"/><circle cx="0" cy="2.1171311427969773e+26" r="2.1171311427969773e+26"/><circle cx="0" cy="2.3288442570766757e+26" r="2.3288442570766757e+26"/><circle cx="0" cy="2.5617286827843435e+26" r="2.5617286827843435e+26"/><circle cx="34359738368" cy="2.817901551062778e+26" r="2.817901551062778e+26"/><circle cx="0" cy="3.099691706169056e+26" r="3.099691706169056e+26"/><circle cx="0" cy="3.4096608767859625e+26" r="3.4096608767859625e+26"/><circle cx="0" cy="3.750626964464559e+26" r="3.750626964464559e+26"/><circle cx="0" cy="4.1256896609110155e+26" r="4.1256896609110155e+26"/><circle cx="0" cy="4.538258627002117e+26" r="4.538258627002117e+26"/><circle cx="0" cy="4.992084489702329e+26" r="4.992084489702329e+26"/><circle cx="0" cy="5.491292938672563e+26" r="5.491292938672563e+26"/><circle cx="68719476736" cy="6.04042223253982e+26" r="6.04042223253982e+26"/><circle cx="0" cy="6.644464455793802e+26" r="6.644464455793802e+26"/><circle cx="0" cy="7.308910901373183e+26" r="7.308910901373183e+26"/><circle cx="0" cy="8.039801991510502e+26" r="8.039801991510502e+26"/><circle cx="0" cy="8.843782190661552e+26" r="8.843782190661552e+26"/><circle cx="0" cy="9.72816040972771e+26" r="9.72816040972771e+26"/><circle cx="0" cy="1.0700976450700483e+27" r="1.0700976450700483e+27"/><circle cx="137438953472" cy="1.1771074095770532e+27" r="1.1771074095770532e+27"/><circle cx="0" cy="1.2948181505347586e+27" r="1.2948181505347586e+27"/><circle cx="0" cy="1.4242999655882345e+27" r="1.4242999655882345e+27"/><circle cx="0" cy="1.566729962147058e+27" r="1.566729962147058e+27"/><circle cx="0" cy="1.723402958361764e+27" r="1.723402958361764e+27"/><circle cx="0" cy="1.8957432541979404e+27" r="1.8957432541979404e+27"/><circle cx="0" cy="2.0853175796177345e+27" r="2.0853175796177345e+27"/><circle cx="274877906944" cy="2.2938493375795081e+27" r="2.2938493375795081e+27"/><circle cx="0" cy="2.5232342713374594e+27" r="2.5232342713374594e+27"/><circle cx="0" cy="2.7755576984712054e+27" r="2.7755576984712054e+27"/><circle cx="0" cy="3.053113468318326e+27" r="3.053113468318326e+27"/><circle cx="0" cy="3.358424815150159e+27" r="3.358424815150159e+27"/><circle cx="0" cy="3.6942672966651754e+27" r="3.6942672966651754e+27"/><circle cx="0" cy="4.063694026331693e+27" r="4.063694026331693e+27"/><circle cx="0" cy="4.470063428964863e+27" r="4.470063428964863e+27"/><circle cx="549755813888" cy="4.9170697718613497e+27" r="4.9170697718613497e+27"/><circle cx="0" cy="5.408776749047485e+27" r="5.408776749047485e+27"/><circle cx="0" cy="5.949654423952235e+27" r="5.949654423952235e+27"/><circle cx="0" cy="6.54461986634746e+27" r="6.54461986634746e+27"/><circle cx="0" cy="7.199081852982206e+27" r="7.199081852982206e+27"/><circle cx="0" cy="7.918990038280428e+27" r="7.918990038280428e+27"/><circle cx="0" cy="8.710889042108471e+27" r="8.710889042108471e+27"/><circle cx="1099511627776" cy="9.581977946319319e+27" r="9.581977946319319e+27"/><circle cx="0" cy="1.0540175740951252e+28" r="1.0540175740951252e+28"/><circle cx="0" cy="1.1594193315046378e+28" r="1.1594193315046378e+28"/><circle cx="0" cy="1.2753612646551018e+28" r="1.2753612646551018e+28"/><circle cx="0" cy="1.4028973911206121e+28" r="1.4028973911206121e+28"/><circle cx="0" cy="1.5431871302326735e+28" r="1.5431871302326735e+28"/><circle cx="0" cy="1.697505843255941e+28" r="1.697505843255941e+28"/><circle cx="2199023255552" cy="1.8672564275815353e+28" r="1.8672564275815353e+28"/><circle cx="0" cy="2.053982070339689e+28" r="2.053982070339689e+28"/><circle cx="0" cy="2.2593802773736583e+28" r="2.2593802773736583e+28"/><circle cx="0" cy="2.485318305111024e+28" r="2.485318305111024e+28"/><circle cx="0" cy="2.7338501356221268e+28" r="2.7338501356221268e+28"/><circle cx="0" cy="3.0072351491843397e+28" r="3.0072351491843397e+28"/><circle cx="0" cy="3.307958664102774e+28" r="3.307958664102774e+28"/><circle cx="4398046511104" cy="3.6387545305130514e+28" r="3.6387545305130514e+28"/><circle cx="0" cy="4.002629983564357e+28" r="4.002629983564357e+28"/><circle cx="0" cy="4.402892981920793e+28" r="4.402892981920793e+28"/><circle cx="0" cy="4.843182280112873e+28" r="4.843182280112873e+28"/><circle cx="0" cy="5.327500508124161e+28" r="5.327500508124161e+28"/><circle cx="0" cy="5.860250558936577e+28" r="5.860250558936577e+28"/><circle cx="0" cy="6.446275614830236e+28" r="6.446275614830236e+28"/><circle cx="0" cy="7.09090317631326e+28" r="7.09090317631326e+28"/><circle cx="8796093022208" cy="7.799993493944587e+28" r="7.799993493944587e+28"/><circle cx="0" cy="8.579992843339046e+28" r="8.579992843339046e+28"/><circle cx="0" cy="9.437992127672951e+28" r="9.437992127672951e+28"/></g></svg>