<svg x="0" y="0" width="2550" height="3300" version="1.1" xmlns="http://www.w3.org/2000/svg" xmlns:xlink="http://www.w3.org/1999/xlink"><g fill="none" stroke="#000000" stroke-width="2" stroke-linecap="butt" stroke-linejoin="miter" stroke-miterlimit="10" stroke-dasharray="" stroke-dashoffset="0" font-family="sans-serif" font-weight="normal" font-size="12" text-anchor="start" mix-blend-mode="normal"><circle cx="1275" cy="1.02" r="1.02"/><circle cx="1275" cy="1.0404" r="1.0404"/><circle cx="1275" cy="1.06121" r="1.06121"/><circle cx="1275" cy="1.08243" r="1.08243"/><circle cx="1275" cy="1.10408" r="1.10408"/><circle cx="1275" cy="1.12616" r="1.12616"/><circle cx="1275" cy="1.14869" r="1.14869"/><circle cx="1275" cy="1.17166" r="1.17166"/><circle cx="1275" cy="1.19509" r="1.19509"/><circle cx="1275" cy="1.21899" r="1.21899"/><circle cx="1275" cy="1.24337" r="1.24337"/><circle cx="1275" cy="1.26824" r="1.26824"/><circle cx="1275" cy="1.29361" r="1.29361"/><circle cx="1275" cy="1.31948" r="1.31948"/><circle cx="1275" cy="1.34587" r="1.34587"/><circle cx="1275" cy="1.37279" r="1.37279"/><circle cx="1275" cy="1.40024" r="1.40024"/><circle cx="1275" cy="1.42825" r="1.42825"/><circle cx="1275" cy="1.45681" r="1.45681"/><circle cx="1275" cy="1.48595" r="1.48595"/><circle cx="1275" cy="1.51567" r="1.51567"/><circle cx="1275" cy="1.54598" r="1.54598"/><circle cx="1275" cy="1.5769" r="1.5769"/><circle cx="1275" cy="1.60844" r="1.60844"/><circle cx="1275" cy="1.64061" r="1.64061"/><circle cx="1275" cy="1.67342" r="1.67342"/><circle cx="1275" cy="1.70689" r="1.70689"/><circle cx="1275" cy="1.74102" r="1.74102"/><circle cx="1275" cy="1.77584" r="1.77584"/><circle cx="1275" cy="1.81136" r="1.81136"/><circle cx="1275" cy="1.84759" r="1.84759"/><circle cx="1275" cy="1.88454" r="1.88454"/><circle cx="1275" cy="1.92223" r="1.92223"/><circle cx="1275" cy="1.96068" r="1.96068"/><circle cx="1275" cy="1.99989" r="1.99989"/><circle cx="1275" cy="2.03989" r="2.03989"/><circle cx="1275" cy="2.08069" r="2.08069"/><circle cx="1275" cy="2.1223" r="2.1223"/><circle cx="1275" cy="2.16474" r="2.16474"/><circle cx="1275" cy="2.20804" r="2.20804"/><circle cx="1275" cy="2.2522" r="2.2522"/><circle cx="1275" cy="2.29724" r="2.29724"/><circle cx="1275" cy="2.34319" r="2.34319"/><circle cx="1275" cy="2.39005" r="2.39005"/><circle cx="1275" cy="2.43785" r="2.43785"/><circle cx="1275" cy="2.48661" r="2.48661"/><circle cx="1275" cy="2.53634" r="2.53634"/><circle cx="1275" cy="2.58707" r="2.58707"/><circle cx="1275" cy="2.63881" r="2.63881"/><circle cx="1275" cy="2.69159" r="2.69159"/><circle cx="1275" cy="2.74542" r="2.74542"/><circle cx="1275" cy="2.80033" r="2.80033"/><circle cx="1275" cy="2.85633" r="2.85633"/><circle cx="1275" cy="2.91346" r="2.91346"/><circle cx="1275" cy="2.97173" r="2.97173"/><circle cx="1275" cy="3.03117" r="3.03117"/><circle cx="1275" cy="3.09179" r="3.09179"/><circle cx="1275" cy="3.15362" r="3.15362"/><circle cx="1275" cy="3.2167" r="3.2167"/><circle cx="1275" cy="3.28103" r="3.28103"/><circle cx="1275" cy="3.34665" r="3.34665"/><circle cx="1275" cy="3.41358" r="3.41358"/><circle cx="1275" cy="3.48186" r="3.48186"/><circle cx="1275" cy="3.55149" r="3.55149"/><circle cx="1275" cy="3.62252" r="3.62252"/><circle cx="1275" cy="3.69497" r="3.69497"/><circle cx="1275" cy="3.76887" r="3.76887"/><circle cx="1275" cy="3.84425" r="3.84425"/><circle cx="1275" cy="3.92114" r="3.92114"/><circle cx="1275" cy="3.99956" r="3.99956"/><circle cx="1275" cy="4.07955" r="4.07955"/><circle cx="1275" cy="4.16114" r="4.16114"/><circle cx="1275" cy="4.24436" r="4.24436"/><circle cx="1275" cy="4.32925" r="4.32925"/><circle cx="1275" cy="4.41584" r="4.41584"/><circle cx="1275" cy="4.50415" r="4.50415"/><circle cx="1275" cy="4.59424" r="4.59424"/><circle cx="1275" cy="4.68612" r="4.68612"/><circle cx="1275" cy="4.77984" r="4.77984"/><circle cx="1275" cy="4.87544" r="4.87544"/><circle cx="1275" cy="4.97295" r="4.97295"/><circle cx="1275" cy="5.07241" r="5.07241"/><circle cx="1275" cy="5.17386" r="5.17386"/><circle cx="1275" cy="5.27733" r="5.27733"/><circle cx="1275" cy="5.38288" r="5.38288"/><circle cx="1275" cy="5.49054" r="5.49054"/><circle cx="1275" cy="5.60035" r="5.60035"/><circle cx="1275" cy="5.71235" r="5.71235"/><circle cx="1275" cy="5.8266" r="5.8266"/><circle cx="1275" cy="5.94313" r="5.94313"/><circle cx="1275" cy="6.062" r="6.062"/><circle cx="1275" cy="6.18324" r="6.18324"/><circle cx="1275" cy="6.3069" r="6.3069"/><circle cx="1275" cy="6.43304" r="6.43304"/><circle cx="1275" cy="6.5617" r="6.5617"/><circle cx="1275" cy="6.69293" r="6.69293"/><circle cx="1275" cy="6.82679" r="6.82679"/><circle cx="1275" cy="6.96333" r="6.96333"/><circle cx="1275" cy="7.10259" r="7.10259"/><circle cx="1275" cy="7.24465" r="7.24465"/><circle cx="1275" cy="7.38954" r="7.38954"/><circle cx="1275" cy="7.53733" r="7.53733"/><circle cx="1275" cy="7.68808" r="7.68808"/><circle cx="1275" cy="7.84184" r="7.84184"/><circle cx="1275" cy="7.99867" r="7.99867"/><circle cx="1275" cy="8.15865" r="8.15865"/><circle cx="1275" cy="8.32182" r="8.32182"/><circle cx="1275" cy="8.48826" r="8.48826"/><circle cx="1275" cy="8.65802" r="8.65802"/><circle cx="1275" cy="8.83118" r="8.83118"/><circle cx="1275" cy="9.00781" r="9.00781"/><circle cx="1275" cy="9.18796" r="9.18796"/><circle cx="1275" cy="9.37172" r="9.37172"/><circle cx="1275" cy="9.55916" r="9.55916"/><circle cx="1275" cy="9.75034" r="9.75034"/><circle cx="1275" cy="9.94535" r="9.94535"/><circle cx="1275" cy="10.14425" r="10.14425"/><circle cx="1275" cy="10.34714" r="10.34714"/><circle cx="1275" cy="10.55408" r="10.55408"/><circle cx="1275" cy="10.76516" r="10.76516"/><circle cx="1275" cy="10.98047" r="10.98047"/><circle cx="1275" cy="11.20008" r="11.20008"/><circle cx="1275" cy="11.42408" r="11.42408"/><circle cx="1275" cy="11.65256" r="11.65256"/><circle cx="1275" cy="11.88561" r="11.88561"/><circle cx="1275" cy="12.12332" r="12.12332"/><circle cx="1275" cy="12.36579" r="12.36579"/><circle cx="1275" cy="12.6131" r="12.6131"/><circle cx="1275" cy="12.86537" r="12.86537"/><circle cx="1275" cy="13.12267" r="13.12267"/><circle cx="1275" cy="13.38513" r="13.38513"/><circle cx="1275" cy="13.65283" r="13.65283"/><circle cx="1275" cy="13.92589" r="13.92589"/><circle cx="1275" cy="14.2044" r="14.2044"/><circle cx="1275" cy="14.48849" r="14.48849"/><circle cx="1275" cy="14.77826" r="14.77826"/><circle cx="1275" cy="15.07383" r="15.07383"/><circle cx="1275" cy="15.3753" r="15.3753"/><circle cx="1275" cy="15.68281" r="15.68281"/><circle cx="1275" cy="15.99647" r="15.99647"/><circle cx="1275" cy="16.3164" r="16.3164"/><circle cx="1275" cy="16.64272" r="16.64272"/><circle cx="1275" cy="16.97558" r="16.97558"/><circle cx="1275" cy="17.31509" r="17.31509"/><circle cx="1275" cy="17.66139" r="17.66139"/><circle cx="1275" cy="18.01462" r="18.01462"/><circle cx="1275" cy="18.37491" r="18.37491"/><circle cx="1275" cy="18.74241" r="18.74241"/><circle cx="1275" cy="19.11726" r="19.11726"/><circle cx="1275" cy="19.4996" r="19.4996"/><circle cx="1275" cy="19.88959" r="19.88959"/><circle cx="1275" cy="20.28739" r="20.28739"/><circle cx="1275" cy="20.69313" r="20.69313"/><circle cx="1275" cy="21.107" r="21.107"/><circle cx="1275" cy="21.52914" r="21.52914"/><circle cx="1275" cy="21.95972" r="21.95972"/><circle cx="1275" cy="22.39891" r="22.39891"/><circle cx="1275" cy="22.84689" r="22.84689"/><circle cx="1275" cy="23.30383" r="23.30383"/><circle cx="1275" cy="23.76991" r="23.76991"/><circle cx="1275" cy="24.24531" r="24.24531"/><circle cx="1275" cy="24.73021" r="24.73021"/><circle cx="1275" cy="25.22482" r="25.22482"/><circle cx="1275" cy="25.72931" r="25.72931"/><circle cx="1275" cy="26.2439" r="26.2439"/><circle cx="1275" cy="26.76878" r="26.76878"/><circle cx="1275" cy="27.30415" r="27.30415"/><circle cx="1275" cy="27.85023" r="27.85023"/><circle cx="1275" cy="28.40724" r="28.40724"/><circle cx="1275" cy="28.97538" r="28.97538"/><circle cx="1275" cy="29.55489" r="29.55489"/><circle cx="1275" cy="30.14599" r="30.14599"/><circle cx="1275" cy="30.74891" r="30.74891"/><circle cx="1275" cy="31.36389" r="31.36389"/><circle cx="1275" cy="31.99117" r="31.99117"/><circle cx="1275" cy="32.63099" r="32.63099"/><circle cx="1275" cy="33.28361" r="33.28361"/><circle cx="1275" cy="33.94928" r="33.94928"/><circle cx="1275" cy="34.62827" r="34.62827"/><circle cx="1275" cy="35.32083" r="35.32083"/><circle cx="1275" cy="36.02725" r="36.02725"/><circle cx="1275" cy="36.74779" r="36.74779"/><circle cx="1275" cy="37.48275" r="37.48275"/><circle cx="1275" cy="38.2324" r="38.2324"/><circle cx="1275" cy="38.99705" r="38.99705"/><circle cx="1275" cy="39.77699" r="39.77699"/><circle cx="1275" cy="40.57253" r="40.57253"/><circle cx="1275" cy="41.38398" r="41.38398"/><circle cx="1275" cy="42.21166" r="42.21166"/><circle cx="1275" cy="43.0559" r="43.0559"/><circle cx="1275" cy="43.91701" r="43.91701"/><circle cx="1275" cy="44.79535" r="44.79535"/><circle cx="1275" cy="45.69126" r="45.69126"/><circle cx="1275" cy="46.60509" r="46.60509"/><circle cx="1275" cy="47.53719" r="47.53719"/><circle cx="1275" cy="48.48793" r="48.48793"/><circle cx="1275" cy="49.45769" r="49.45769"/><circle cx="1275" cy="50.44684" r="50.44684"/><circle cx="1275" cy="51.45578" r="51.45578"/><circle cx="1275" cy="52.4849" r="52.4849"/><circle cx="1275" cy="53.5346" r="53.5346"/><circle cx="1275" cy="54.60529" r="54.60529"/><circle cx="1275" cy="55.69739" r="55.69739"/><circle cx="1275" cy="56.81134" r="56.81134"/><circle cx="1275" cy="57.94757" r="57.94757"/><circle cx="1275" cy="59.10652" r="59.10652"/><circle cx="1275" cy="60.28865" r="60.28865"/><circle cx="1275" cy="61.49442" r="61.49442"/><circle cx="1275" cy="62.72431" r="62.72431"/><circle cx="1275" cy="63.9788" r="63.9788"/><circle cx="1275" cy="65.25837" r="65.25837"/><circle cx="1275" cy="66.56354" r="66.56354"/><circle cx="1275" cy="67.89481" r="67.89481"/><circle cx="1275" cy="69.25271" r="69.25271"/><circle cx="1275" cy="70.63776" r="70.63776"/><circle cx="1275" cy="72.05052" r="72.05052"/><circle cx="1275" cy="73.49153" r="73.49153"/><circle cx="1275" cy="74.96136" r="74.96136"/><circle cx="1275" cy="76.46058" r="76.46058"/><circle cx="1275" cy="77.9898" r="77.9898"/><circle cx="1275" cy="79.54959" r="79.54959"/><circle cx="1275" cy="81.14058" r="81.14058"/><circle cx="1275" cy="82.7634" r="82.7634"/><circle cx="1275" cy="84.41866" r="84.41866"/><circle cx="1275" cy="86.10704" r="86.10704"/><circle cx="1275" cy="87.82918" r="87.82918"/><circle cx="1275" cy="89.58576" r="89.58576"/><circle cx="1275" cy="91.37748" r="91.37748"/><circle cx="1275" cy="93.20503" r="93.20503"/><circle cx="1275" cy="95.06913" r="95.06913"/><circle cx="1275" cy="96.97051" r="96.97051"/><circle cx="1275" cy="98.90992" r="98.90992"/><circle cx="1275" cy="100.88812" r="100.88812"/><circle cx="1275" cy="102.90588" r="102.90588"/><circle cx="1275" cy="104.964" r="104.964"/><circle cx="1275" cy="107.06328" r="107.06328"/><circle cx="1275" cy="109.20454" r="109.20454"/><circle cx="1275" cy="111.38863" r="111.38863"/><circle cx="1275" cy="113.61641" r="113.61641"/><circle cx="1275" cy="115.88874" r="115.88874"/><circle cx="1275" cy="118.20651" r="118.20651"/><circle cx="1275" cy="120.57064" r="120.57064"/><circle cx="1275" cy="122.98205" r="122.98205"/><circle cx="1275" cy="125.44169" r="125.44169"/><circle cx="1275" cy="127.95053" r="127.95053"/><circle cx="1275" cy="130.50954" r="130.50954"/><circle cx="1275" cy="133.11973" r="133.11973"/><circle cx="1275" cy="135.78212" r="135.78212"/><circle cx="1275" cy="138.49777" r="138.49777"/><circle cx="1275" cy="141.26772" r="141.26772"/><circle cx="1275" cy="144.09308" r="144.09308"/><circle cx="1275" cy="146.97494" r="146.97494"/><circle cx="1275" cy="149.91444" r="149.91444"/><circle cx="1275" cy="152.91272" r="152.91272"/><circle cx="1275" cy="155.97098" r="155.97098"/><circle cx="1275" cy="159.0904" r="159.0904"/><circle cx="1275" cy="162.27221" r="162.27221"/><circle cx="1275" cy="165.51765" r="165.51765"/><circle cx="1275" cy="168.828" r="168.828"/><circle cx="1275" cy="172.20456" r="172.20456"/><circle cx="1275" cy="175.64866" r="175.64866"/><circle cx="1275" cy="179.16163" r="179.16163"/><circle cx="1275" cy="182.74486" r="182.74486"/><circle cx="1275" cy="186.39976" r="186.39976"/><circle cx="1275" cy="190.12775" r="190.12775"/><circle cx="1275" cy="193.93031" r="193.93031"/><circle cx="1275" cy="197.80891" r="197.80891"/><circle cx="1275" cy="201.76509" r="201.76509"/><circle cx="1275" cy="205.80039" r="205.80039"/><circle cx="1275" cy="209.9164" r="209.9164"/><circle cx="1275" cy="214.11473" r="214.11473"/><circle cx="1275" cy="218.39703" r="218.39703"/><circle cx="1275" cy="222.76497" r="222.76497"/><circle cx="1275" cy="227.22027" r="227.22027"/><circle cx="1275" cy="231.76467" r="231.76467"/><circle cx="1275" cy="236.39996" r="236.39996"/><circle cx="1275" cy="241.12796" r="241.12796"/><circle cx="1275" cy="245.95052" r="245.95052"/><circle cx="1275" cy="250.86953" r="250.86953"/><circle cx="1275" cy="255.88692" r="255.88692"/><circle cx="1275" cy="261.00466" r="261.00466"/><circle cx="1275" cy="266.22476" r="266.22476"/><circle cx="1275" cy="271.54925" r="271.54925"/><circle cx="1275" cy="276.98024" r="276.98024"/><circle cx="1275" cy="282.51984" r="282.51984"/><circle cx="1275" cy="288.17024" r="288.17024"/><circle cx="1275" cy="293.93364" r="293.93364"/><circle cx="1275" cy="299.81231" r="299.81231"/><circle cx="1275" cy="305.80856" r="305.80856"/><circle cx="1275" cy="311.92473" r="311.92473"/><circle cx="1275" cy="318.16323" r="318.16323"/><circle cx="1275" cy="324.52649" r="324.52649"/><circle cx="1275" cy="331.01702" r="331.01702"/><circle cx="1275" cy="337.63736" r="337.63736"/><circle cx="1275" cy="344.39011" r="344.39011"/><circle cx="1275" cy="351.27791" r="351.27791"/><circle cx="1275" cy="358.30347" r="358.30347"/><circle cx="1275" cy="365.46954" r="365.46954"/><circle cx="1275" cy="372.77893" r="372.77893"/><circle cx="1275" cy="380.23451" r="380.23451"/><circle cx="1275" cy="387.8392" r="387.8392"/><circle cx="1275" cy="395.59598" r="395.59598"/><circle cx="1275" cy="403.5079" r="403.5079"/><circle cx="1275" cy="411.57806" r="411.57806"/><circle cx="1275" cy="419.80962" r="419.80962"/><circle cx="1275" cy="428.20581" r="428.20581"/><circle cx="1275" cy="436.76993" r="436.76993"/><circle cx="1275" cy="445.50533" r="445.50533"/><circle cx="1275" cy="454.41543" r="454.41543"/><circle cx="1275" cy="463.50374" r="463.50374"/><circle cx="1275" cy="472.77382" r="472.77382"/><circle cx="1275" cy="482.22929" r="482.22929"/><circle cx="1275" cy="491.87388" r="491.87388"/><circle cx="1275" cy="501.71136" r="501.71136"/><circle cx="1275" cy="511.74559" r="511.74559"/><circle cx="1275" cy="521.9805" r="521.9805"/><circle cx="1275" cy="532.42011" r="532.42011"/><circle cx="1275" cy="543.06851" r="543.06851"/><circle cx="1275" cy="553.92988" r="553.92988"/><circle cx="1275" cy="565.00848" r="565.00848"/><circle cx="1275" cy="576.30865" r="576.30865"/><circle cx="1275" cy="587.83482" r="587.83482"/><circle cx="1275" cy="599.59152" r="599.59152"/><circle cx="1275" cy="611.58335" r="611.58335"/><circle cx="1275" cy="623.81501" r="623.81501"/><circle cx="1275" cy="636.29131" r="636.29131"/><circle cx="1275" cy="649.01714" r="649.01714"/><circle cx="1275" cy="661.99748" r="661.99748"/><circle cx="1275" cy="675.23743" r="675.23743"/><circle cx="1275" cy="688.74218" r="688.74218"/><circle cx="1275" cy="702.51702" r="702.51702"/><circle cx="1275" cy="716.56736" r="716.56736"/><circle cx="1275" cy="730.89871" r="730.89871"/><circle cx="1275" cy="745.51669" r="745.51669"/><circle cx="1275" cy="760.42702" r="760.42702"/><circle cx="1275" cy="775.63556" r="775.63556"/><circle cx="1275" cy="791.14827" r="791.14827"/><circle cx="1275" cy="806.97124" r="806.97124"/><circle cx="1275" cy="823.11066" r="823.11066"/><circle cx="1275" cy="839.57288" r="839.57288"/><circle cx="1275" cy="856.36433" r="856.36433"/><circle cx="1275" cy="873.49162" r="873.49162"/><circle cx="1275" cy="890.96145" r="890.96145"/><circle cx="1275" cy="908.78068" r="908.78068"/><circle cx="1275" cy="926.95629" r="926.95629"/><circle cx="1275" cy="945.49542" r="945.49542"/><circle cx="1275" cy="964.40533" r="964.40533"/><circle cx="1275" cy="983.69344" r="983.69344"/><circle cx="1275" cy="1003.3673" r="1003.3673"/><circle cx="1275" cy="1023.43465" r="1023.43465"/><circle cx="1275" cy="1043.90334" r="1043.90334"/><circle cx="1275" cy="1064.78141" transform="rotate(0)" r="1064.78141"/><circle cx="1275" cy="1086.07704" r="1086.07704"/><circle cx="1275" cy="1107.79858" transform="rotate(0)" r="1107.79858"/><circle cx="1275" cy="1129.95455" transform="rotate(0)" r="1129.95455"/><circle cx="1275" cy="1152.55364" transform="rotate(0)" r="1152.55364"/><circle cx="1275" cy="1175.60471" transform="rotate(0)" r="1175.60471"/><circle cx="1275" cy="1199.11681" transform="rotate(0)" r="1199.11681"/><circle cx="1275" cy="1223.09914" r="1223.09914"/><circle cx="1275" cy="1247.56113" r="1247.56113"/><circle cx="1275" cy="1272.51235" r="1272.51235"/><circle cx="1275" cy="1297.9626" r="1297.9626"/><circle cx="1275" cy="1323.92185" transform="rotate(0)" r="1323.92185"/><circle cx="1275" cy="1350.40029" transform="rotate(0)" r="1350.40029"/><circle cx="1275" cy="1377.40829" transform="rotate(0)" r="1377.40829"/><circle cx="1275" cy="1404.95646" r="1404.95646"/><circle cx="1275" cy="1433.05559" transform="rotate(0)" r="1433.05559"/><circle cx="1275" cy="1461.7167" r="1461.7167"/><circle cx="1275" cy="1490.95103" transform="rotate(0)" r="1490.95103"/><circle cx="1275" cy="1520.77005" transform="rotate(0)" r="1520.77005"/><circle cx="1275" cy="1551.18545" r="1551.18545"/><circle cx="1275" cy="1582.20916" r="1582.20916"/><circle cx="1275" cy="1613.85335" r="1613.85335"/><circle cx="1275" cy="1646.13041" transform="rotate(0)" r="1646.13041"/><circle cx="1275" cy="1679.05302" transform="rotate(0)" r="1679.05302"/><circle cx="1275" cy="1712.63408" transform="rotate(0)" r="1712.63408"/><circle cx="1275" cy="1746.88676" transform="rotate(0)" r="1746.88676"/><circle cx="1275" cy="1781.8245" transform="rotate(0)" r="1781.8245"/><circle cx="1275" cy="1817.46099" transform="rotate(0)" r="1817.46099"/><circle cx="1275" cy="1853.81021" transform="rotate(0)" r="1853.81021"/><circle cx="1275" cy="1890.88641" r="1890.88641"/><circle cx="1275" cy="1928.70414" r="1928.70414"/><circle cx="1275" cy="1967.27822" r="1967.27822"/><circle cx="1275" cy="2006.62379" r="2006.62379"/><circle cx="1275" cy="2046.75626" r="2046.75626"/><circle cx="1275" cy="2087.69139" r="2087.69139"/><circle cx="1275" cy="2129.44522" r="2129.44522"/><circle cx="1275" cy="2172.03412" r="2172.03412"/><circle cx="1275" cy="2215.4748" r="2215.4748"/><circle cx="1275" cy="2259.7843" r="2259.7843"/><circle cx="1275" cy="2304.97999" r="2304.97999"/><circle cx="1275" cy="2351.07959" r="2351.07959"/><circle cx="1275" cy="2398.10118" r="2398.10118"/><circle cx="1275" cy="2446.0632" r="2446.0632"/><circle cx="1275" cy="2494.98447" r="2494.98447"/><circle cx="1275" cy="2544.88416" r="2544.88416"/><circle cx="1275" cy="2595.78184" r="2595.78184"/><circle cx="1275" cy="2647.69747" r="2647.69747"/><circle cx="1275" cy="2700.65142" r="2700.65142"/><circle cx="1275" cy="2754.66445" r="2754.66445"/><circle cx="1275" cy="2809.75774" r="2809.75774"/><circle cx="1275" cy="2865.9529" r="2865.9529"/><circle cx="1275" cy="2923.27195" r="2923.27195"/><circle cx="1275" cy="2981.73739" r="2981.73739"/><circle cx="1275" cy="3041.37214" r="3041.37214"/><circle cx="1275" cy="3102.19958" r="3102.19958"/><circle cx="1275" cy="3164.24358" r="3164.24358"/><circle cx="1275" cy="3227.52845" r="3227.52845"/><circle cx="1275" cy="3292.07902" r="3292.07902"/><circle cx="1275" cy="3357.9206" r="3357.9206"/><circle cx="1275" cy="3425.07901" r="3425.07901"/><circle cx="1275" cy="3493.58059" r="3493.58059"/><circle cx="1275" cy="3563.4522" r="3563.4522"/><circle cx="1275" cy="3634.72124" r="3634.72124"/><circle cx="1275" cy="3707.41567" r="3707.41567"/><circle cx="1275" cy="3781.56398" r="3781.56398"/><circle cx="1275" cy="3857.19526" r="3857.19526"/><circle cx="1275" cy="3934.33917" r="3934.33917"/><circle cx="1275" cy="4013.02595" r="4013.02595"/><circle cx="1275" cy="4093.28647" r="4093.28647"/><circle cx="1275" cy="4175.1522" r="4175.1522"/><circle cx="1275" cy="4258.65524" r="4258.65524"/><circle cx="1275" cy="4343.82835" r="4343.82835"/><circle cx="1275" cy="4430.70492" r="4430.70492"/><circle cx="1275" cy="4519.31901" r="4519.31901"/><circle cx="1275" cy="4609.70539" r="4609.70539"/><circle cx="1275" cy="4701.8995" r="4701.8995"/><circle cx="1275" cy="4795.93749" r="4795.93749"/><circle cx="1275" cy="4891.85624" r="4891.85624"/><circle cx="1275" cy="4989.69337" r="4989.69337"/><circle cx="1275" cy="5089.48723" r="5089.48723"/><circle cx="1275" cy="5191.27698" r="5191.27698"/><circle cx="1275" cy="5295.10252" r="5295.10252"/><circle cx="1275" cy="5401.00457" r="5401.00457"/><circle cx="1275" cy="5509.02466" r="5509.02466"/><circle cx="1275" cy="5619.20515" r="5619.20515"/><circle cx="1275" cy="5731.58926" r="5731.58926"/><circle cx="1275" cy="5846.22104" r="5846.22104"/><circle cx="1275" cy="5963.14546" r="5963.14546"/><circle cx="1275" cy="6082.40837" r="6082.40837"/><circle cx="1275" cy="6204.05654" r="6204.05654"/><circle cx="1275" cy="6328.13767" r="6328.13767"/><circle cx="1275" cy="6454.70042" r="6454.70042"/><circle cx="1275" cy="6583.79443" r="6583.79443"/><circle cx="1275" cy="6715.47032" r="6715.47032"/><circle cx="1275" cy="6849.77973" r="6849.77973"/><circle cx="1275" cy="6986.77532" r="6986.77532"/><circle cx="1275" cy="7126.51083" r="7126.51083"/><circle cx="1275" cy="7269.04104" r="7269.04104"/><circle cx="1275" cy="7414.42187" r="7414.42187"/><circle cx="1275" cy="7562.7103" r="7562.7103"/><circle cx="1275" cy="7713.96451" r="7713.96451"/><circle cx="1275" cy="7868.2438" r="7868.2438"/><circle cx="1275" cy="8025.60867" r="8025.60867"/><circle cx="1275" cy="8186.12085" r="8186.12085"/><circle cx="1275" cy="8349.84327" r="8349.84327"/><circle cx="1275" cy="8516.84013" r="8516.84013"/><circle cx="1275" cy="8687.17693" r="8687.17693"/><circle cx="1275" cy="8860.92047" r="8860.92047"/><circle cx="1275" cy="9038.13888" r="9038.13888"/><circle cx="1275" cy="9218.90166" r="9218.90166"/><circle cx="1275" cy="9403.27969" r="9403.27969"/><circle cx="1275" cy="9591.34529" r="9591.34529"/><circle cx="1275" cy="9783.17219" r="9783.17219"/><circle cx="1275" cy="9978.83564" r="9978.83564"/><circle cx="1275" cy="10178.41235" r="10178.41235"/><circle cx="1275" cy="10381.9806" r="10381.9806"/><circle cx="1275" cy="10589.62021" r="10589.62021"/><circle cx="1275" cy="10801.41261" r="10801.41261"/><circle cx="1275" cy="11017.44086" r="11017.44086"/><circle cx="1275" cy="11237.78968" r="11237.78968"/><circle cx="1275" cy="11462.54547" r="11462.54547"/><circle cx="1275" cy="11691.79638" r="11691.79638"/><circle cx="1275" cy="11925.63231" r="11925.63231"/><circle cx="1275" cy="12164.14496" r="12164.14496"/><circle cx="1275" cy="12407.42786" r="12407.42786"/><circle cx="1275" cy="12655.57641" r="12655.57641"/><circle cx="1275" cy="12908.68794" r="12908.68794"/><circle cx="1275" cy="13166.8617" r="13166.8617"/><circle cx="1275" cy="13430.19894" r="13430.19894"/><circle cx="1275" cy="13698.80291" r="13698.80291"/><circle cx="1275" cy="13972.77897" r="13972.77897"/><circle cx="1275" cy="14252.23455" r="14252.23455"/><circle cx="1275" cy="14537.27924" r="14537.27924"/><circle cx="1275" cy="14828.02483" r="14828.02483"/><circle cx="1275" cy="15124.58532" r="15124.58532"/><circle cx="1275" cy="15427.07703" r="15427.07703"/><circle cx="1275" cy="15735.61857" r="15735.61857"/><circle cx="1275" cy="16050.33094" r="16050.33094"/><circle cx="1275" cy="16371.33756" r="16371.33756"/><circle cx="1275" cy="16698.76431" r="16698.76431"/><circle cx="1275" cy="17032.7396" r="17032.7396"/><circle cx="1275" cy="17373.39439" r="17373.39439"/><circle cx="1275" cy="17720.86228" r="17720.86228"/><circle cx="1275" cy="18075.27952" r="18075.27952"/><circle cx="1275" cy="18436.78511" r="18436.78511"/><circle cx="1275" cy="18805.52082" r="18805.52082"/><circle cx="1275" cy="19181.63123" r="19181.63123"/><circle cx="1275" cy="19565.26386" r="19565.26386"/><circle cx="1275" cy="19956.56914" r="19956.56914"/><circle cx="1275" cy="20355.70052" r="20355.70052"/><circle cx="1275" cy="20762.81453" r="20762.81453"/><circle cx="1275" cy="21178.07082" r="21178.07082"/><circle cx="1275" cy="21601.63224" r="21601.63224"/><circle cx="1275" cy="22033.66488" r="22033.66488"/><circle cx="1275" cy="22474.33818" r="22474.33818"/><circle cx="1275" cy="22923.82494" r="22923.82494"/><circle cx="1275" cy="23382.30144" r="23382.30144"/><circle cx="1275" cy="23849.94747" r="23849.94747"/><circle cx="1275" cy="24326.94642" r="24326.94642"/><circle cx="1275" cy="24813.48535" r="24813.48535"/><circle cx="1275" cy="25309.75505" r="25309.75505"/><circle cx="1275" cy="25815.95015" r="25815.95015"/><circle cx="1275" cy="26332.26916" r="26332.26916"/><circle cx="1275" cy="26858.91454" r="26858.91454"/><circle cx="1275" cy="27396.09283" r="27396.09283"/><circle cx="1275" cy="27944.01469" r="27944.01469"/><circle cx="1275" cy="28502.89498" r="28502.89498"/><circle cx="1275" cy="29072.95288" r="29072.95288"/><circle cx="1275" cy="29654.41194" r="29654.41194"/><circle cx="1275" cy="30247.50018" r="30247.50018"/><circle cx="1275" cy="30852.45018" r="30852.45018"/><circle cx="1275" cy="31469.49919" r="31469.49919"/><circle cx="1275" cy="32098.88917" r="32098.88917"/><circle cx="1275" cy="32740.86695" r="32740.86695"/><circle cx="1275" cy="33395.68429" r="33395.68429"/><circle cx="1275" cy="34063.59798" r="34063.59798"/><circle cx="1275" cy="34744.86994" r="34744.86994"/><circle cx="1275" cy="35439.76734" r="35439.76734"/><circle cx="1275" cy="36148.56268" r="36148.56268"/><circle cx="1275" cy="36871.53394" r="36871.53394"/><circle cx="1275" cy="37608.96461" r="37608.96461"/><circle cx="1275" cy="38361.14391" r="38361.14391"/><circle cx="1275" cy="39128.36679" r="39128.36679"/><circle cx="1275" cy="39910.93412" r="39910.93412"/><circle cx="1275" cy="40709.1528" r="40709.1528"/><circle cx="1275" cy="41523.33586" r="41523.33586"/><circle cx="1275" cy="42353.80258" r="42353.80258"/><circle cx="1275" cy="43200.87863" r="43200.87863"/><circle cx="1275" cy="44064.8962" r="44064.8962"/><circle cx="1275" cy="44946.19412" r="44946.19412"/><circle cx="1275" cy="45845.11801" r="45845.11801"/><circle cx="1275" cy="46762.02037" r="46762.02037"/><circle cx="1275" cy="47697.26077" r="47697.26077"/><circle cx="1275" cy="48651.20599" r="48651.20599"/><circle cx="1275" cy="49624.23011" r="49624.23011"/><circle cx="1275" cy="50616.71471" r="50616.71471"/><circle cx="1275" cy="51629.04901" r="51629.04901"/><circle cx="1275" cy="52661.62999" r="52661.62999"/><circle cx="1275" cy="53714.86259" r="53714.86259"/><circle cx="1275" cy="54789.15984" r="54789.15984"/><circle cx="1275" cy="55884.94303" r="55884.94303"/><circle cx="1275" cy="57002.6419" r="57002.6419"/><circle cx="1275" cy="58142.69473" r="58142.69473"/><circle cx="1275" cy="59305.54863" r="59305.54863"/><circle cx="1275" cy="60491.6596" r="60491.6596"/><circle cx="1275" cy="61701.49279" r="61701.49279"/><circle cx="1275" cy="62935.52265" r="62935.52265"/><circle cx="1275" cy="64194.2331" r="64194.2331"/><circle cx="1275" cy="65478.11776" r="65478.11776"/><circle cx="1275" cy="66787.68012" r="66787.68012"/><circle cx="1275" cy="68123.43372" r="68123.43372"/><circle cx="1275" cy="69485.9024" r="69485.9024"/><circle cx="1275" cy="70875.62044" r="70875.62044"/><circle cx="1275" cy="72293.13285" r="72293.13285"/><circle cx="1275" cy="73738.99551" r="73738.99551"/><circle cx="1275" cy="75213.77542" r="75213.77542"/><circle cx="1275" cy="76718.05093" r="76718.05093"/><circle cx="1275" cy="78252.41195" r="78252.41195"/><circle cx="1275" cy="79817.46019" r="79817.46019"/><circle cx="1275" cy="81413.80939" r="81413.80939"/><circle cx="1275" cy="83042.08558" r="83042.08558"/><circle cx="1275" cy="84702.92729" r="84702.92729"/><circle cx="1275" cy="86396.98583" r="86396.98583"/><circle cx="1275" cy="88124.92555" r="88124.92555"/><circle cx="1275" cy="89887.42406" r="89887.42406"/><circle cx="1275" cy="91685.17254" r="91685.17254"/><circle cx="1275" cy="93518.87599" r="93518.87599"/><circle cx="1275" cy="95389.25351" r="95389.25351"/><circle cx="1275" cy="97297.03858" r="97297.03858"/><circle cx="1275" cy="99242.97936" r="99242.97936"/><circle cx="1275" cy="101227.83894" r="101227.83894"/><circle cx="1275" cy="103252.39572" r="103252.39572"/><circle cx="1275" cy="105317.44364" r="105317.44364"/><circle cx="1275" cy="107423.79251" r="107423.79251"/><circle cx="1275" cy="109572.26836" r="109572.26836"/><circle cx="1275" cy="111763.71373" r="111763.71373"/><circle cx="1275" cy="113998.988" r="113998.988"/><circle cx="1275" cy="116278.96776" r="116278.96776"/><circle cx="1275" cy="118604.54712" r="118604.54712"/><circle cx="1275" cy="120976.63806" r="120976.63806"/><circle cx="1275" cy="123396.17082" r="123396.17082"/><circle cx="1275" cy="125864.09424" r="125864.09424"/><circle cx="1275" cy="128381.37612" r="128381.37612"/><circle cx="1275" cy="130949.00364" r="130949.00364"/><circle cx="1275" cy="133567.98372" r="133567.98372"/><circle cx="1275" cy="136239.34339" r="136239.34339"/><circle cx="1275" cy="138964.13026" r="138964.13026"/><circle cx="1275" cy="141743.41286" r="141743.41286"/><circle cx="1275" cy="144578.28112" r="144578.28112"/><circle cx="1275" cy="147469.84674" r="147469.84674"/><circle cx="1275" cy="150419.24368" r="150419.24368"/><circle cx="1275" cy="153427.62855" r="153427.62855"/><circle cx="1275" cy="156496.18112" r="156496.18112"/><circle cx="1275" cy="159626.10475" r="159626.10475"/><circle cx="1275" cy="162818.62684" r="162818.62684"/><circle cx="1275" cy="166074.99938" r="166074.99938"/><circle cx="1275" cy="169396.49936" r="169396.49936"/><circle cx="1275" cy="172784.42935" r="172784.42935"/><circle cx="1275" cy="176240.11794" r="176240.11794"/><circle cx="1275" cy="179764.9203" r="179764.9203"/><circle cx="1275" cy="183360.2187" r="183360.2187"/><circle cx="1275" cy="187027.42308" r="187027.42308"/><circle cx="1275" cy="190767.97154" r="190767.97154"/><circle cx="1275" cy="194583.33097" r="194583.33097"/><circle cx="1275" cy="198474.99759" r="198474.99759"/><circle cx="1275" cy="202444.49754" r="202444.49754"/><circle cx="1275" cy="206493.38749" r="206493.38749"/><circle cx="1275" cy="210623.25524" r="210623.25524"/><circle cx="1275" cy="214835.72035" r="214835.72035"/><circle cx="1275" cy="219132.43475" r="219132.43475"/><circle cx="1275" cy="223515.08345" r="223515.08345"/><circle cx="1275" cy="227985.38512" r="227985.38512"/><circle cx="1275" cy="232545.09282" r="232545.09282"/><circle cx="1275" cy="237195.99468" r="237195.99468"/><circle cx="1275" cy="241939.91457" r="241939.91457"/><circle cx="1275" cy="246778.71286" r="246778.71286"/><circle cx="1275" cy="251714.28712" r="251714.28712"/><circle cx="1275" cy="256748.57286" r="256748.57286"/><circle cx="1275" cy="261883.54432" r="261883.54432"/><circle cx="1275" cy="267121.2152" r="267121.2152"/><circle cx="1275" cy="272463.63951" r="272463.63951"/><circle cx="1275" cy="277912.9123" r="277912.9123"/><circle cx="1275" cy="283471.17054" r="283471.17054"/><circle cx="1275" cy="289140.59396" r="289140.59396"/><circle cx="1275" cy="294923.40583" r="294923.40583"/><circle cx="1275" cy="300821.87395" r="300821.87395"/><circle cx="1275" cy="306838.31143" r="306838.31143"/><circle cx="1275" cy="312975.07766" r="312975.07766"/><circle cx="1275" cy="319234.57921" r="319234.57921"/><circle cx="1275" cy="325619.2708" r="325619.2708"/><circle cx="1275" cy="332131.65621" r="332131.65621"/><circle cx="1275" cy="338774.28934" r="338774.28934"/><circle cx="1275" cy="345549.77512" r="345549.77512"/><circle cx="1275" cy="352460.77063" r="352460.77063"/><circle cx="1275" cy="359509.98604" r="359509.98604"/><circle cx="1275" cy="366700.18576" r="366700.18576"/><circle cx="1275" cy="374034.18947" r="374034.18947"/><circle cx="1275" cy="381514.87326" r="381514.87326"/><circle cx="1275" cy="389145.17073" r="389145.17073"/><circle cx="1275" cy="396928.07414" r="396928.07414"/><circle cx="1275" cy="404866.63563" r="404866.63563"/><circle cx="1275" cy="412963.96834" r="412963.96834"/><circle cx="1275" cy="421223.24771" r="421223.24771"/><circle cx="1275" cy="429647.71266" r="429647.71266"/><circle cx="1275" cy="438240.66691" r="438240.66691"/><circle cx="1275" cy="447005.48025" r="447005.48025"/><circle cx="1275" cy="455945.58986" r="455945.58986"/><circle cx="1275" cy="465064.50165" r="465064.50165"/><circle cx="1275" cy="474365.79169" r="474365.79169"/><circle cx="1275" cy="483853.10752" r="483853.10752"/><circle cx="1275" cy="493530.16967" r="493530.16967"/><circle cx="1275" cy="503400.77306" r="503400.77306"/><circle cx="1275" cy="513468.78853" r="513468.78853"/><circle cx="1275" cy="523738.1643" r="523738.1643"/><circle cx="1275" cy="534212.92758" r="534212.92758"/><circle cx="1275" cy="544897.18613" r="544897.18613"/><circle cx="1275" cy="555795.12986" r="555795.12986"/><circle cx="1275" cy="566911.03245" r="566911.03245"/><circle cx="1275" cy="578249.2531" r="578249.2531"/><circle cx="1275" cy="589814.23816" r="589814.23816"/><circle cx="1275" cy="601610.52293" r="601610.52293"/><circle cx="1275" cy="613642.73339" r="613642.73339"/><circle cx="1275" cy="625915.58805" r="625915.58805"/><circle cx="1275" cy="638433.89981" r="638433.89981"/><circle cx="1275" cy="651202.57781" r="651202.57781"/><circle cx="1275" cy="664226.62937" r="664226.62937"/><circle cx="1275" cy="677511.16195" r="677511.16195"/><circle cx="1275" cy="691061.38519" r="691061.38519"/><circle cx="1275" cy="704882.6129" r="704882.6129"/><circle cx="1275" cy="718980.26516" r="718980.26516"/><circle cx="1275" cy="733359.87046" r="733359.87046"/><circle cx="1275" cy="748027.06787" r="748027.06787"/><circle cx="1275" cy="762987.60923" r="762987.60923"/><circle cx="1275" cy="778247.36141" r="778247.36141"/><circle cx="1275" cy="793812.30864" r="793812.30864"/><circle cx="1275" cy="809688.55481" r="809688.55481"/><circle cx="1275" cy="825882.32591" r="825882.32591"/><circle cx="1275" cy="842399.97242" r="842399.97242"/><circle cx="1275" cy="859247.97187" r="859247.97187"/><circle cx="1275" cy="876432.93131" r="876432.93131"/><circle cx="1275" cy="893961.58994" r="893961.58994"/><circle cx="1275" cy="911840.82174" r="911840.82174"/><circle cx="1275" cy="930077.63817" r="930077.63817"/><circle cx="1275" cy="948679.19093" r="948679.19093"/><circle cx="1275" cy="967652.77475" r="967652.77475"/><circle cx="1275" cy="987005.83025" r="987005.83025"/><circle cx="1275" cy="1006745.94685" r="1006745.94685"/><circle cx="1275" cy="1026880.86579" r="1026880.86579"/><circle cx="1275" cy="1047418.48311" r="1047418.48311"/></g></svg>