<svg x="0" y="0" width="2550" height="3300" version="1.1" xmlns="http://www.w3.org/2000/svg" xmlns:xlink="http://www.w3.org/1999/xlink"><g fill="none" stroke="#000000" stroke-width="2" stroke-linecap="butt" stroke-linejoin="miter" stroke-miterlimit="10" stroke-dasharray="" stroke-dashoffset="0" font-family="sans-serif" font-weight="normal" font-size="12" text-anchor="start" mix-blend-mode="normal"><circle cx="1275" cy="1.61803" r="1.61803"/><circle cx="1275" cy="2.61803" r="2.61803"/><circle cx="1275" cy="4.23607" r="4.23607"/><circle cx="1275" cy="6.8541" r="6.8541"/><circle cx="1275" cy="11.09017" r="11.09017"/><circle cx="1275" cy="17.94427" r="17.94427"/><circle cx="1275" cy="29.03443" r="29.03443"/><circle cx="1275" cy="46.97869" r="46.97869"/><circle cx="1275" cy="76.01312" r="76.01312"/><circle cx="1275" cy="122.9918" r="122.9918"/><circle cx="1275" cy="199.0049" r="199.0049"/><circle cx="1275" cy="321.99668" r="321.99668"/><circle cx="1275" cy="521.00155" r="521.00155"/><circle cx="1275" cy="842.99817" r="842.99817"/><circle cx="1275" cy="1363.99961" r="1363.99961"/><circle cx="1275" cy="2206.99761" r="2206.99761"/><circle cx="1275" cy="3570.99695" r="3570.99695"/><circle cx="1275" cy="5777.99412" r="5777.99412"/><circle cx="1275" cy="9348.99036" r="9348.99036"/><circle cx="1275" cy="15126.98334" r="15126.98334"/><circle cx="1275" cy="24475.97185" r="24475.97185"/><circle cx="1275" cy="39602.95219" r="39602.95219"/><circle cx="1275" cy="64078.91918" r="64078.91918"/><circle cx="1275" cy="103681.8635" r="103681.8635"/><circle cx="1275" cy="167760.76996" r="167760.76996"/><circle cx="1275" cy="271442.61289" r="271442.61289"/><circle cx="1275" cy="439203.34956" r="439203.34956"/><circle cx="1275" cy="710645.90858" r="710645.90858"/><circle cx="1275" cy="1149849.17098" r="1149849.17098"/><circle cx="1275" cy="1860494.93853" r="1860494.93853"/><circle cx="1275" cy="3010343.88132" r="3010343.88132"/><circle cx="1275" cy="4870838.45063" r="4870838.45063"/><circle cx="1275" cy="7881181.73454" r="7881181.73454"/><circle cx="1275" cy="12752019.21854" r="12752019.21854"/><circle cx="1275" cy="20633199.38905" r="20633199.38905"/><circle cx="1275" cy="33385216.07694" r="33385216.07694"/><circle cx="1275" cy="54018411.37132" r="54018411.37132"/><circle cx="1275" cy="87403620.82294" r="87403620.82294"/><circle cx="1275" cy="141422021.47426" r="141422021.47426"/><circle cx="1275" cy="228825624.95188" r="228825624.95188"/><circle cx="1275" cy="370247618.36083" r="370247618.36083"/><circle cx="1275" cy="599073197.90208" r="599073197.90208"/><circle cx="1275" cy="969320742.78698" r="969320742.78698"/><circle cx="1275" cy="1568393821.80252" r="1568393821.80252"/><circle cx="1275" cy="2537714372.22703" r="2537714372.22703"/><circle cx="1275" cy="4106107882.78055" r="4106107882.78055"/><circle cx="1275" cy="6643821751.39616" r="6643821751.39616"/><circle cx="1275" cy="10749928819.31636" r="10749928819.31636"/><circle cx="1275" cy="17393749252.24085" r="17393749252.24085"/><circle cx="1275" cy="28143675938.22534" r="28143675938.22534"/><circle cx="1275" cy="45537421738.6629" r="45537421738.6629"/><circle cx="1275" cy="73681092091.75351" r="73681092091.75351"/><circle cx="1275" cy="119218504793.47908" r="119218504793.47908"/><circle cx="1275" cy="192899582263.16165" r="192899582263.16165"/><circle cx="1275" cy="312118063397.6343" r="312118063397.6343"/><circle cx="1275.00006" cy="505017607379.72144" r="505017607379.72144"/><circle cx="1275" cy="817135608837.2794" r="817135608837.2794"/><circle cx="1275" cy="1322153115995.8577" r="1322153115995.8577"/><circle cx="1275.00024" cy="2139288562671.93" r="2139288562671.93"/><circle cx="1275" cy="3461441416285.4575" r="3461441416285.4575"/><circle cx="1275" cy="5600729554413.881" r="5600729554413.881"/><circle cx="1275" cy="9062170283773.553" r="9062170283773.553"/><circle cx="1275" cy="14662898726718.227" r="14662898726718.227"/><circle cx="1275" cy="23725067212096.926" r="23725067212096.926"/><circle cx="1275" cy="38387963028951.31" r="38387963028951.31"/><circle cx="1275" cy="62113025532789.91" r="62113025532789.91"/><circle cx="1275" cy="100500980943619.61" r="100500980943619.61"/><circle cx="1275" cy="162613994150030.5" r="162613994150030.5"/><circle cx="1275.03125" cy="263114955149151.03" r="263114955149151.03"/><circle cx="1275" cy="425728917028305.9" r="425728917028305.9"/><circle cx="1275" cy="688843819962086.1" r="688843819962086.1"/><circle cx="1275.125" cy="1114572652504152" r="1114572652504152"/><circle cx="1275" cy="1803416335764637.5" r="1803416335764637.5"/><circle cx="1275" cy="2917988767080966" r="2917988767080966"/><circle cx="1275" cy="4721404744956207" r="4721404744956207"/><circle cx="1275" cy="7639392932959997" r="7639392932959997"/><circle cx="1276" cy="12360796740949702" r="12360796740949702"/><circle cx="1276" cy="20000188157866136" r="20000188157866136"/><circle cx="1276" cy="32360982445805956" r="32360982445805956"/><circle cx="1280" cy="52361166634618940" r="52361166634618940"/><circle cx="1280" cy="84722142658362370" r="84722142658362370"/><circle cx="1280" cy="137083298901866420" r="137083298901866420"/><circle cx="1280" cy="221805424747052600" r="221805424747052600"/><circle cx="1280" cy="358888696444630000" r="358888696444630000"/><circle cx="1280" cy="580694077174220800" r="580694077174220800"/><circle cx="1280" cy="939582702397105400" r="939582702397105400"/><circle cx="1280" cy="1520276664332127700" r="1520276664332127700"/><circle cx="1536" cy="2459859180268303400" r="2459859180268303400"/><circle cx="1536" cy="3980135542900326000" r="3980135542900326000"/><circle cx="2048" cy="6439994235007631000" r="6439994235007631000"/><circle cx="2048" cy="10420128988046914000" r="10420128988046914000"/><circle cx="2048" cy="16860121945032600000" r="16860121945032600000"/><circle cx="4096" cy="27280248865196683000" r="27280248865196683000"/><circle cx="0" cy="44140367464324760000" r="44140367464324760000"/><circle cx="8192" cy="71420610915734495000" r="71420610915734495000"/><circle cx="16384" cy="115560969620368440000" r="115560969620368440000"/><circle cx="0" cy="186981566362626300000" r="186981566362626300000"/><circle cx="0" cy="302542513049829050000" r="302542513049829050000"/><circle cx="0" cy="489524042305815800000" r="489524042305815800000"/><circle cx="0" cy="792066495315844000000" r="792066495315844000000"/><circle cx="0" cy="1.2815904404752268e+21" r="1.2815904404752268e+21"/><circle cx="0" cy="2.073656778604849e+21" r="2.073656778604849e+21"/><circle cx="0" cy="3.35524696474744e+21" r="3.35524696474744e+21"/><circle cx="0" cy="5.428903331833462e+21" r="5.428903331833462e+21"/><circle cx="1048576" cy="8.78414963072949e+21" r="8.78414963072949e+21"/><circle cx="0" cy="1.4213051885192795e+22" r="1.4213051885192795e+22"/><circle cx="0" cy="2.299719977270085e+22" r="2.299719977270085e+22"/><circle cx="4194304" cy="3.721024883730227e+22" r="3.721024883730227e+22"/><circle cx="0" cy="6.020744404619065e+22" r="6.020744404619065e+22"/><circle cx="0" cy="9.741768549908963e+22" r="9.741768549908963e+22"/><circle cx="0" cy="1.5762511759706545e+23" r="1.5762511759706545e+23"/><circle cx="0" cy="2.5504278376353843e+23" r="2.5504278376353843e+23"/><circle cx="0" cy="4.1266787007977476e+23" r="4.1266787007977476e+23"/><circle cx="0" cy="6.677106032298712e+23" r="6.677106032298712e+23"/><circle cx="0" cy="1.0803783914153812e+24" r="1.0803783914153812e+24"/><circle cx="0" cy="1.7480888621375555e+24" r="1.7480888621375555e+24"/><circle cx="0" cy="2.828467039150991e+24" r="2.828467039150991e+24"/><circle cx="536870912" cy="4.5765555543789303e+24" r="4.5765555543789303e+24"/><circle cx="0" cy="7.405022032218402e+24" r="7.405022032218402e+24"/><circle cx="0" cy="1.1981576678376267e+25" r="1.1981576678376267e+25"/><circle cx="0" cy="1.9386597241062195e+25" r="1.9386597241062195e+25"/><circle cx="0" cy="3.13681715416851e+25" r="3.13681715416851e+25"/><circle cx="0" cy="5.075476493546176e+25" r="5.075476493546176e+25"/><circle cx="0" cy="8.212293025210841e+25" r="8.212293025210841e+25"/><circle cx="0" cy="1.3287768511524697e+26" r="1.3287768511524697e+26"/><circle cx="0" cy="2.15000599069995e+26" r="2.15000599069995e+26"/><circle cx="0" cy="3.478782578155603e+26" r="3.478782578155603e+26"/><circle cx="68719476736" cy="5.6287881421851655e+26" r="5.6287881421851655e+26"/><circle cx="0" cy="9.107570029973617e+26" r="9.107570029973617e+26"/><circle cx="0" cy="1.4736357055121326e+27" r="1.4736357055121326e+27"/><circle cx="274877906944" cy="2.3843925277690474e+27" r="2.3843925277690474e+27"/><circle cx="0" cy="3.8580279408370096e+27" r="3.8580279408370096e+27"/><circle cx="0" cy="6.242419995421476e+27" r="6.242419995421476e+27"/><circle cx="0" cy="1.0100447170629793e+28" r="1.0100447170629793e+28"/><circle cx="0" cy="1.6342865927238087e+28" r="1.6342865927238087e+28"/><circle cx="0" cy="2.6443311093426166e+28" r="2.6443311093426166e+28"/><circle cx="0" cy="4.27861737774096e+28" r="4.27861737774096e+28"/><circle cx="0" cy="6.922947962313978e+28" r="6.922947962313978e+28"/><circle cx="0" cy="1.120156449095994e+29" r="1.120156449095994e+29"/><circle cx="0" cy="1.8124511079409423e+29" r="1.8124511079409423e+29"/><circle cx="35184372088832" cy="2.9326073347410035e+29" r="2.9326073347410035e+29"/><circle cx="0" cy="4.745058082999591e+29" r="4.745058082999591e+29"/><circle cx="0" cy="7.677664835762352e+29" r="7.677664835762352e+29"/><circle cx="140737488355328" cy="1.2422721977101418e+30" r="1.2422721977101418e+30"/><circle cx="0" cy="2.0100385289225115e+30" r="2.0100385289225115e+30"/><circle cx="0" cy="3.252310480102754e+30" r="3.252310480102754e+30"/><circle cx="0" cy="5.262348610131531e+30" r="5.262348610131531e+30"/><circle cx="0" cy="8.5146584448107e+30" r="8.5146584448107e+30"/><circle cx="0" cy="1.3777006010624992e+31" r="1.3777006010624992e+31"/><circle cx="0" cy="2.2291662765694995e+31" r="2.2291662765694995e+31"/><circle cx="0" cy="3.6068666042262255e+31" r="3.6068666042262255e+31"/><circle cx="0" cy="5.836032438415915e+31" r="5.836032438415915e+31"/><circle cx="0" cy="9.442898326856614e+31" r="9.442898326856614e+31"/><circle cx="18014398509481984" cy="1.5278929607107283e+32" r="1.5278929607107283e+32"/><circle cx="0" cy="2.472182606001326e+32" r="2.472182606001326e+32"/><circle cx="0" cy="4.000075263500489e+32" r="4.000075263500489e+32"/><circle cx="72057594037927940" cy="6.472257378895224e+32" r="6.472257378895224e+32"/><circle cx="0" cy="1.0472331848577617e+33" r="1.0472331848577617e+33"/><circle cx="0" cy="1.694458794304825e+33" r="1.694458794304825e+33"/><circle cx="0" cy="2.7416917713383333e+33" r="2.7416917713383333e+33"/><circle cx="0" cy="4.436150229376471e+33" r="4.436150229376471e+33"/><circle cx="0" cy="7.177841456623907e+33" r="7.177841456623907e+33"/><circle cx="0" cy="1.161399080564286e+34" r="1.161399080564286e+34"/><circle cx="0" cy="1.8791830837818454e+34" r="1.8791830837818454e+34"/><circle cx="0" cy="3.040581933865566e+34" r="3.040581933865566e+34"/><circle cx="0" cy="4.919764644722044e+34" r="4.919764644722044e+34"/><circle cx="9223372036854776000" cy="7.960345975181723e+34" r="7.960345975181723e+34"/><circle cx="0" cy="1.2880109643572586e+35" r="1.2880109643572586e+35"/><circle cx="0" cy="2.0840454039017357e+35" r="2.0840454039017357e+35"/><circle cx="0" cy="3.372056112652201e+35" r="3.372056112652201e+35"/><circle cx="0" cy="5.456101102973479e+35" r="5.456101102973479e+35"/><circle cx="0" cy="8.82815654643848e+35" r="8.82815654643848e+35"/><circle cx="0" cy="1.4284256566644383e+36" r="1.4284256566644383e+36"/><circle cx="0" cy="2.3112411361128218e+36" r="2.3112411361128218e+36"/><circle cx="0" cy="3.73966650930506e+36" r="3.73966650930506e+36"/><circle cx="0" cy="6.050907186750252e+36" r="6.050907186750252e+36"/><circle cx="1.1805916207174113e+21" cy="9.790572953915538e+36" r="9.790572953915538e+36"/><circle cx="0" cy="1.5841478939858476e+37" r="1.5841478939858476e+37"/><circle cx="0" cy="2.5632049950827073e+37" r="2.5632049950827073e+37"/><circle cx="4.722366482869645e+21" cy="4.1473525746931537e+37" r="4.1473525746931537e+37"/><circle cx="0" cy="6.7105570611058045e+37" r="6.7105570611058045e+37"/><circle cx="0" cy="1.0857908812753563e+38" r="1.0857908812753563e+38"/><circle cx="0" cy="1.7568464542144016e+38" r="1.7568464542144016e+38"/><circle cx="0" cy="2.8426371200136997e+38" r="2.8426371200136997e+38"/><circle cx="0" cy="4.599483225580534e+38" r="4.599483225580534e+38"/><circle cx="0" cy="7.442119781470651e+38" r="7.442119781470651e+38"/><circle cx="0" cy="1.2041602094280104e+39" r="1.2041602094280104e+39"/><circle cx="0" cy="1.9483720398856203e+39" r="1.9483720398856203e+39"/><circle cx="0" cy="3.1525320103470855e+39" r="3.1525320103470855e+39"/><circle cx="6.044629098073146e+23" cy="5.1009036635767354e+39" r="5.1009036635767354e+39"/><circle cx="0" cy="8.253435048301352e+39" r="8.253435048301352e+39"/><circle cx="0" cy="1.3354337699599724e+40" r="1.3354337699599724e+40"/><circle cx="2.4178516392292583e+24" cy="2.160777111000037e+40" r="2.160777111000037e+40"/><circle cx="0" cy="3.4962106159421227e+40" r="3.4962106159421227e+40"/><circle cx="0" cy="5.656987298134234e+40" r="5.656987298134234e+40"/><circle cx="0" cy="9.153197220250596e+40" r="9.153197220250596e+40"/><circle cx="0" cy="1.481018339575123e+41" r="1.481018339575123e+41"/><circle cx="0" cy="2.3963378799542608e+41" r="2.3963378799542608e+41"/><circle cx="0" cy="3.877355925620124e+41" r="3.877355925620124e+41"/><circle cx="0" cy="6.273693330019239e+41" r="6.273693330019239e+41"/><circle cx="0" cy="1.0151048486175015e+42" r="1.0151048486175015e+42"/><circle cx="0" cy="1.6424740571174856e+42" r="1.6424740571174856e+42"/><circle cx="3.094850098213451e+26" cy="2.657578704286628e+42" r="2.657578704286628e+42"/><circle cx="0" cy="4.300052435453839e+42" r="4.300052435453839e+42"/><circle cx="0" cy="6.957630612341873e+42" r="6.957630612341873e+42"/><circle cx="0" cy="1.125768219444691e+43" r="1.125768219444691e+43"/><circle cx="0" cy="1.821531142604149e+43" r="1.821531142604149e+43"/><circle cx="0" cy="2.947299138639247e+43" r="2.947299138639247e+43"/><circle cx="0" cy="4.768829919759102e+43" r="4.768829919759102e+43"/><circle cx="0" cy="7.716128473504508e+43" r="7.716128473504508e+43"/><circle cx="0" cy="1.2484957446885543e+44" r="1.2484957446885543e+44"/><circle cx="0" cy="2.0201084389118257e+44" r="2.0201084389118257e+44"/><circle cx="3.961408125713217e+28" cy="3.268603935835413e+44" r="3.268603935835413e+44"/><circle cx="0" cy="5.288711973855122e+44" r="5.288711973855122e+44"/><circle cx="0" cy="8.5573152610335e+44" r="8.5573152610335e+44"/><circle cx="1.5845632502852868e+29" cy="1.3846026185339553e+45" r="1.3846026185339553e+45"/><circle cx="0" cy="2.2403339748167077e+45" r="2.2403339748167077e+45"/><circle cx="0" cy="3.6249363185751793e+45" r="3.6249363185751793e+45"/><circle cx="0" cy="5.86526984879584e+45" r="5.86526984879584e+45"/><circle cx="0" cy="9.490205447999544e+45" r="9.490205447999544e+45"/><circle cx="0" cy="1.5355474132827943e+46" r="1.5355474132827943e+46"/><circle cx="0" cy="2.4845677697488715e+46" r="2.4845677697488715e+46"/><circle cx="0" cy="4.020114878301068e+46" r="4.020114878301068e+46"/><circle cx="0" cy="6.504682154985503e+46" r="6.504682154985503e+46"/><circle cx="0" cy="1.0524796235491597e+47" r="1.0524796235491597e+47"/><circle cx="2.028240960365167e+31" cy="1.7029477099617786e+47" r="1.7029477099617786e+47"/><circle cx="0" cy="2.7554271246455256e+47" r="2.7554271246455256e+47"/><circle cx="0" cy="4.4583744966559855e+47" r="4.4583744966559855e+47"/><circle cx="8.112963841460668e+31" cy="7.21380107448482e+47" r="7.21380107448482e+47"/><circle cx="0" cy="1.1672174686372865e+48" r="1.1672174686372865e+48"/><circle cx="0" cy="1.8885974329273162e+48" r="1.8885974329273162e+48"/><circle cx="0" cy="3.055814669929374e+48" r="3.055814669929374e+48"/><circle cx="0" cy="4.9444117280630375e+48" r="4.9444117280630375e+48"/><circle cx="0" cy="8.000225791563575e+48" r="8.000225791563575e+48"/><circle cx="0" cy="1.29446365384042e+49" r="1.29446365384042e+49"/><circle cx="0" cy="2.0944860742316645e+49" r="2.0944860742316645e+49"/><circle cx="0" cy="3.38894947118475e+49" r="3.38894947118475e+49"/><circle cx="0" cy="5.483435129763998e+49" r="5.483435129763998e+49"/><circle cx="1.0384593717069655e+34" cy="8.872383928409046e+49" r="8.872383928409046e+49"/><circle cx="0" cy="1.435581796998101e+50" r="1.435581796998101e+50"/><circle cx="0" cy="2.3228200137658457e+50" r="2.3228200137658457e+50"/><circle cx="0" cy="3.7584015258716045e+50" r="3.7584015258716045e+50"/><circle cx="0" cy="6.0812210786719825e+50" r="6.0812210786719825e+50"/><circle cx="0" cy="9.839621858685836e+50" r="9.839621858685836e+50"/><circle cx="0" cy="1.5920841730534688e+51" r="1.5920841730534688e+51"/><circle cx="0" cy="2.5760461636539786e+51" r="2.5760461636539786e+51"/><circle cx="0" cy="4.168130020757086e+51" r="4.168130020757086e+51"/><circle cx="0" cy="6.744175673192668e+51" r="6.744175673192668e+51"/><circle cx="1.329227995784916e+36" cy="1.0912304866781057e+52" r="1.0912304866781057e+52"/><circle cx="0" cy="1.7656479201586736e+52" r="1.7656479201586736e+52"/><circle cx="0" cy="2.856878190281227e+52" r="2.856878190281227e+52"/><circle cx="5.316911983139664e+36" cy="4.6225257600456755e+52" r="4.6225257600456755e+52"/><circle cx="0" cy="7.479403383377169e+52" r="7.479403383377169e+52"/><circle cx="0" cy="1.2101928226078954e+53" r="1.2101928226078954e+53"/><circle cx="0" cy="1.958133012516261e+53" r="1.958133012516261e+53"/><circle cx="0" cy="3.1683255949604347e+53" r="3.1683255949604347e+53"/><circle cx="0" cy="5.126458218883652e+53" r="5.126458218883652e+53"/><circle cx="0" cy="8.29478318508737e+53" r="8.29478318508737e+53"/><circle cx="0" cy="1.3421240386621337e+54" r="1.3421240386621337e+54"/><circle cx="0" cy="2.1716021925602428e+54" r="2.1716021925602428e+54"/><circle cx="0" cy="3.5137259648768005e+54" r="3.5137259648768005e+54"/><circle cx="6.80564733841877e+38" cy="5.6853277264808724e+54" r="5.6853277264808724e+54"/><circle cx="0" cy="9.199052994055979e+54" r="9.199052994055979e+54"/><circle cx="0" cy="1.4884379592279072e+55" r="1.4884379592279072e+55"/><circle cx="2.722258935367508e+39" cy="2.4083430760775715e+55" r="2.4083430760775715e+55"/><circle cx="0" cy="3.896780739923789e+55" r="3.896780739923789e+55"/><circle cx="0" cy="6.305123338063775e+55" r="6.305123338063775e+55"/><circle cx="0" cy="1.0201903304668347e+56" r="1.0201903304668347e+56"/><circle cx="0" cy="1.650702539147541e+56" r="1.650702539147541e+56"/><circle cx="0" cy="2.6708926671567986e+56" r="2.6708926671567986e+56"/><circle cx="0" cy="4.321594878721117e+56" r="4.321594878721117e+56"/><circle cx="0" cy="6.992487015837156e+56" r="6.992487015837156e+56"/><circle cx="0" cy="1.1314081036934354e+57" r="1.1314081036934354e+57"/><circle cx="0" cy="1.8306566665106937e+57" r="1.8306566665106937e+57"/><circle cx="3.48449143727041e+41" cy="2.9620645456752967e+57" r="2.9620645456752967e+57"/><circle cx="0" cy="4.792720848890729e+57" r="4.792720848890729e+57"/><circle cx="0" cy="7.754784806741977e+57" r="7.754784806741977e+57"/><circle cx="1.393796574908164e+42" cy="1.2547504704513465e+58" r="1.2547504704513465e+58"/><circle cx="0" cy="2.030228797231227e+58" r="2.030228797231227e+58"/><circle cx="0" cy="3.2849790186763513e+58" r="3.2849790186763513e+58"/><circle cx="0" cy="5.315207413007069e+58" r="5.315207413007069e+58"/><circle cx="0" cy="8.600185779776738e+58" r="8.600185779776738e+58"/><circle cx="0" cy="1.3915392137976695e+59" r="1.3915392137976695e+59"/><circle cx="0" cy="2.251557621103977e+59" r="2.251557621103977e+59"/><circle cx="4.460149039706125e+43" cy="3.64309655874959e+59" r="3.64309655874959e+59"/><circle cx="0" cy="5.894653733030177e+59" r="5.894653733030177e+59"/><circle cx="0" cy="9.537749568804377e+59" r="9.537749568804377e+59"/><circle cx="1.78405961588245e+44" cy="1.5432402132035865e+60" r="1.5432402132035865e+60"/><circle cx="0" cy="2.4970149808066302e+60" r="2.4970149808066302e+60"/><circle cx="0" cy="4.040254887752977e+60" r="4.040254887752977e+60"/><circle cx="0" cy="6.537269373025011e+60" r="6.537269373025011e+60"/><circle cx="0" cy="1.0577523458986213e+61" r="1.0577523458986213e+61"/><circle cx="0" cy="1.7114791534684953e+61" r="1.7114791534684953e+61"/><circle cx="0" cy="2.769231289455328e+61" r="2.769231289455328e+61"/><circle cx="0" cy="4.4807101032794333e+61" r="4.4807101032794333e+61"/><circle cx="0" cy="7.249940843178622e+61" r="7.249940843178622e+61"/><circle cx="0" cy="1.1730650057257595e+62" r="1.1730650057257595e+62"/><circle cx="2.283596308329536e+46" cy="1.898058946167973e+62" r="1.898058946167973e+62"/><circle cx="0" cy="3.071123719098055e+62" r="3.071123719098055e+62"/><circle cx="0" cy="4.96918228859473e+62" r="4.96918228859473e+62"/><circle cx="9.134385233318143e+46" cy="8.040305398225856e+62" r="8.040305398225856e+62"/><circle cx="0" cy="1.3009486700682433e+63" r="1.3009486700682433e+63"/><circle cx="0" cy="2.104979050330333e+63" r="2.104979050330333e+63"/><circle cx="0" cy="3.4059274622242845e+63" r="3.4059274622242845e+63"/><circle cx="0" cy="5.5109060948198616e+63" r="5.5109060948198616e+63"/><circle cx="0" cy="8.91683288113515e+63" r="8.91683288113515e+63"/><circle cx="0" cy="1.4427737882311342e+64" r="1.4427737882311342e+64"/><circle cx="0" cy="2.334456899389396e+64" r="2.334456899389396e+64"/><circle cx="0" cy="3.7772304013009317e+64" r="3.7772304013009317e+64"/><circle cx="0" cy="6.111686837415511e+64" r="6.111686837415511e+64"/><circle cx="1.1692013098647223e+49" cy="9.888916489122085e+64" r="9.888916489122085e+64"/><circle cx="0" cy="1.6000602113668514e+65" r="1.6000602113668514e+65"/><circle cx="0" cy="2.5889516640327306e+65" r="2.5889516640327306e+65"/><circle cx="4.6768052394588893e+49" cy="4.189011557866369e+65" r="4.189011557866369e+65"/><circle cx="0" cy="6.777962708119596e+65" r="6.777962708119596e+65"/><circle cx="0" cy="1.0966973434673312e+66" r="1.0966973434673312e+66"/><circle cx="0" cy="1.774493479770085e+66" r="1.774493479770085e+66"/><circle cx="0" cy="2.8711906055969617e+66" r="2.8711906055969617e+66"/><circle cx="0" cy="4.645683733217414e+66" r="4.645683733217414e+66"/><circle cx="0" cy="7.516873769024332e+66" r="7.516873769024332e+66"/><circle cx="0" cy="1.216255658030214e+67" r="1.216255658030214e+67"/><circle cx="0" cy="1.967942885759693e+67" r="1.967942885759693e+67"/><circle cx="0" cy="3.1841983024230105e+67" r="3.1841983024230105e+67"/><circle cx="5.986310706507379e+51" cy="5.152140797642883e+67" r="5.152140797642883e+67"/><circle cx="0" cy="8.336338468159224e+67" r="8.336338468159224e+67"/><circle cx="0" cy="1.3488478243355694e+68" r="1.3488478243355694e+68"/><circle cx="0" cy="2.182481505716196e+68" r="2.182481505716196e+68"/><circle cx="0" cy="3.5313290623718484e+68" r="3.5313290623718484e+68"/><circle cx="0" cy="5.713810134972865e+68" r="5.713810134972865e+68"/><circle cx="0" cy="9.24513849654967e+68" r="9.24513849654967e+68"/><circle cx="0" cy="1.49589474976124e+69" r="1.49589474976124e+69"/><circle cx="0" cy="2.4204084159457027e+69" r="2.4204084159457027e+69"/><circle cx="0" cy="3.916302868845448e+69" r="3.916302868845448e+69"/><circle cx="7.662477704329444e+53" cy="6.336710804459188e+69" r="6.336710804459188e+69"/><circle cx="0" cy="1.0253012896111238e+70" r="1.0253012896111238e+70"/><circle cx="0" cy="1.658972244304516e+70" r="1.658972244304516e+70"/><circle cx="3.064991081731778e+54" cy="2.6842733304437887e+70" r="2.6842733304437887e+70"/><circle cx="0" cy="4.343245245523952e+70" r="4.343245245523952e+70"/><circle cx="0" cy="7.027518043271577e+70" r="7.027518043271577e+70"/><circle cx="0" cy="1.1370762426875079e+71" r="1.1370762426875079e+71"/><circle cx="0" cy="1.8398279075530148e+71" r="1.8398279075530148e+71"/><circle cx="0" cy="2.9769039245868437e+71" r="2.9769039245868437e+71"/><circle cx="0" cy="4.816731467024556e+71" r="4.816731467024556e+71"/><circle cx="0" cy="7.793634800842464e+71" r="7.793634800842464e+71"/><circle cx="0" cy="1.2610365311982852e+72" r="1.2610365311982852e+72"/><circle cx="0" cy="2.040399856617233e+72" r="2.040399856617233e+72"/><circle cx="3.9231885846166755e+56" cy="3.3014361375618226e+72" r="3.3014361375618226e+72"/><circle cx="0" cy="5.341835589260092e+72" r="5.341835589260092e+72"/><circle cx="0" cy="8.643271071649303e+72" r="8.643271071649303e+72"/><circle cx="1.5692754338466702e+57" cy="1.3985105600817901e+73" r="1.3985105600817901e+73"/><circle cx="0" cy="2.2628374957203232e+73" r="2.2628374957203232e+73"/><circle cx="0" cy="3.6613477782665875e+73" r="3.6613477782665875e+73"/><circle cx="0" cy="5.924184824925021e+73" r="5.924184824925021e+73"/><circle cx="0" cy="9.585531876594249e+73" r="9.585531876594249e+73"/><circle cx="0" cy="1.5509715525860111e+74" r="1.5509715525860111e+74"/><circle cx="0" cy="2.5095245500197984e+74" r="2.5095245500197984e+74"/><circle cx="0" cy="4.0604957948142795e+74" r="4.0604957948142795e+74"/><circle cx="0" cy="6.570019846816948e+74" r="6.570019846816948e+74"/><circle cx="0" cy="1.063051483582263e+75" r="1.063051483582263e+75"/><circle cx="2.008672555323738e+59" cy="1.7200533378813946e+75" r="1.7200533378813946e+75"/><circle cx="0" cy="2.7831046105002508e+75" r="2.7831046105002508e+75"/><circle cx="0" cy="4.5031576070357015e+75" r="4.5031576070357015e+75"/><circle cx="0" cy="7.286261665226643e+75" r="7.286261665226643e+75"/><circle cx="0" cy="1.1789418378607159e+76" r="1.1789418378607159e+76"/><circle cx="0" cy="1.9075678597869416e+76" r="1.9075678597869416e+76"/><circle cx="0" cy="3.0865094636857183e+76" r="3.0865094636857183e+76"/><circle cx="0" cy="4.994076944914311e+76" r="4.994076944914311e+76"/><circle cx="0" cy="8.080585796079787e+76" r="8.080585796079787e+76"/><circle cx="0" cy="1.307466174991558e+77" r="1.307466174991558e+77"/><circle cx="2.5711008708143844e+61" cy="2.1155245942396728e+77" r="2.1155245942396728e+77"/><circle cx="0" cy="3.4229905097635345e+77" r="3.4229905097635345e+77"/><circle cx="0" cy="5.53851468417568e+77" r="5.53851468417568e+77"/><circle cx="1.0284403483257538e+62" cy="8.961504514644043e+77" r="8.961504514644043e+77"/><circle cx="0" cy="1.4500018099697108e+78" r="1.4500018099697108e+78"/><circle cx="0" cy="2.34615208359235e+78" r="2.34615208359235e+78"/><circle cx="0" cy="3.796153605808055e+78" r="3.796153605808055e+78"/><circle cx="0" cy="6.14230522380467e+78" r="6.14230522380467e+78"/><circle cx="0" cy="9.938458076263045e+78" r="9.938458076263045e+78"/><circle cx="0" cy="1.608076208112239e+79" r="1.608076208112239e+79"/><circle cx="0" cy="2.6019218185090572e+79" r="2.6019218185090572e+79"/><circle cx="0" cy="4.209997707497302e+79" r="4.209997707497302e+79"/><circle cx="0" cy="6.811919009652918e+79" r="6.811919009652918e+79"/><circle cx="1.3164036458569648e+64" cy="1.1021915881672849e+80" r="1.1021915881672849e+80"/><circle cx="0" cy="1.7833833539495055e+80" r="1.7833833539495055e+80"/><circle cx="0" cy="2.8855747233859984e+80" r="2.8855747233859984e+80"/><circle cx="5.2656145834278593e+64" cy="4.668957723421668e+80" r="4.668957723421668e+80"/><circle cx="0" cy="7.554531874163082e+80" r="7.554531874163082e+80"/><circle cx="0" cy="1.22234886710264e+81" r="1.22234886710264e+81"/><circle cx="0" cy="1.9778019045986665e+81" r="1.9778019045986665e+81"/><circle cx="0" cy="3.200150529125208e+81" r="3.200150529125208e+81"/><circle cx="0" cy="5.177952041227524e+81" r="5.177952041227524e+81"/><circle cx="0" cy="8.37810193528033e+81" r="8.37810193528033e+81"/><circle cx="0" cy="1.3556052948939178e+82" r="1.3556052948939178e+82"/><circle cx="0" cy="2.1934153221578556e+82" r="2.1934153221578556e+82"/><circle cx="0" cy="3.549020348030832e+82" r="3.549020348030832e+82"/><circle cx="6.73998666678766e+66" cy="5.742435234903684e+82" r="5.742435234903684e+82"/><circle cx="0" cy="9.291454878628624e+82" r="9.291454878628624e+82"/><circle cx="0" cy="1.5033888973941498e+83" r="1.5033888973941498e+83"/><circle cx="0" cy="2.432534200867356e+83" r="2.432534200867356e+83"/><circle cx="0" cy="3.935922799912791e+83" r="3.935922799912791e+83"/><circle cx="0" cy="6.368456518041813e+83" r="6.368456518041813e+83"/><circle cx="0" cy="1.0304378536867615e+84" r="1.0304378536867615e+84"/><circle cx="0" cy="1.66728337910842e+84" r="1.66728337910842e+84"/><circle cx="0" cy="2.697721028303975e+84" r="2.697721028303975e+84"/><circle cx="0" cy="4.365004076538691e+84" r="4.365004076538691e+84"/><circle cx="8.627182933488205e+68" cy="7.062724569477796e+84" r="7.062724569477796e+84"/><circle cx="0" cy="1.142772777977798e+85" r="1.142772777977798e+85"/><circle cx="0" cy="1.8490450947652505e+85" r="1.8490450947652505e+85"/><circle cx="3.450873173395282e+69" cy="2.9918176459588875e+85" r="2.9918176459588875e+85"/><circle cx="0" cy="4.840862373779677e+85" r="4.840862373779677e+85"/><circle cx="0" cy="7.832679426009989e+85" r="7.832679426009989e+85"/><circle cx="0" cy="1.2673540839116701e+86" r="1.2673540839116701e+86"/><circle cx="0" cy="2.0506218710725264e+86" r="2.0506218710725264e+86"/><circle cx="0" cy="3.317975703476777e+86" r="3.317975703476777e+86"/><circle cx="0" cy="5.368597167601773e+86" r="5.368597167601773e+86"/><circle cx="0" cy="8.68657221262365e+86" r="8.68657221262365e+86"/><circle cx="0" cy="1.4055168314823073e+87" r="1.4055168314823073e+87"/><circle cx="0" cy="2.2741738803589603e+87" r="2.2741738803589603e+87"/><circle cx="4.417117661945961e+71" cy="3.679690432915342e+87" r="3.679690432915342e+87"/><circle cx="0" cy="5.953863861962699e+87" r="5.953863861962699e+87"/><circle cx="0" cy="9.633553564640567e+87" r="9.633553564640567e+87"/><circle cx="1.7668470647783843e+72" cy="1.5587416245054275e+88" r="1.5587416245054275e+88"/><circle cx="0" cy="2.5220967897908526e+88" r="2.5220967897908526e+88"/><circle cx="0" cy="4.080838104962773e+88" r="4.080838104962773e+88"/><circle cx="0" cy="6.602934394241525e+88" r="6.602934394241525e+88"/><circle cx="0" cy="1.0683771689358752e+89" r="1.0683771689358752e+89"/><circle cx="0" cy="1.7286704773242727e+89" r="1.7286704773242727e+89"/><circle cx="0" cy="2.7970474342398546e+89" r="2.7970474342398546e+89"/><circle cx="0" cy="4.525717568508105e+89" r="4.525717568508105e+89"/><circle cx="0" cy="7.322764447671687e+89" r="7.322764447671687e+89"/><circle cx="0" cy="1.1848481118047566e+90" r="1.1848481118047566e+90"/><circle cx="2.261564242916332e+74" cy="1.9171244112510866e+90" r="1.9171244112510866e+90"/><circle cx="0" cy="3.1019722879217988e+90" r="3.1019722879217988e+90"/><circle cx="0" cy="5.01909631871803e+90" r="5.01909631871803e+90"/><circle cx="9.046256971665328e+74" cy="8.121067991050977e+90" r="8.121067991050977e+90"/><circle cx="0" cy="1.3140163313725377e+91" r="1.3140163313725377e+91"/><circle cx="0" cy="2.1261229693143994e+91" r="2.1261229693143994e+91"/><circle cx="0" cy="3.440139039919358e+91" r="3.440139039919358e+91"/><circle cx="0" cy="5.566261587302974e+91" r="5.566261587302974e+91"/><circle cx="0" cy="9.006399944524022e+91" r="9.006399944524022e+91"/><circle cx="0" cy="1.4572660427197983e+92" r="1.4572660427197983e+92"/><circle cx="0" cy="2.3579058584394817e+92" r="2.3579058584394817e+92"/><circle cx="0" cy="3.8151716119636826e+92" r="3.8151716119636826e+92"/><circle cx="0" cy="6.173077002474883e+92" r="6.173077002474883e+92"/><circle cx="1.157920892373162e+77" cy="9.988247857314745e+92" r="9.988247857314745e+92"/><circle cx="0" cy="1.616132363473762e+93" r="1.616132363473762e+93"/><circle cx="0" cy="2.6149569509876686e+93" r="2.6149569509876686e+93"/><circle cx="0" cy="4.231088993738686e+93" r="4.231088993738686e+93"/><circle cx="0" cy="6.846045425786081e+93" r="6.846045425786081e+93"/><circle cx="0" cy="1.107713357986181e+94" r="1.107713357986181e+94"/><circle cx="0" cy="1.792317764704477e+94" r="1.792317764704477e+94"/><circle cx="0" cy="2.9000309028640673e+94" r="2.9000309028640673e+94"/><circle cx="0" cy="4.6923483118816675e+94" r="4.6923483118816675e+94"/><circle cx="0" cy="7.59237863923231e+94" r="7.59237863923231e+94"/><circle cx="1.4821387422376473e+79" cy="1.2284726019913746e+95" r="1.2284726019913746e+95"/><circle cx="0" cy="1.9877103152432517e+95" r="1.9877103152432517e+95"/><circle cx="0" cy="3.216182673443268e+95" r="3.216182673443268e+95"/><circle cx="5.928554968950589e+79" cy="5.2038925942238365e+95" r="5.2038925942238365e+95"/><circle cx="0" cy="8.420074629413111e+95" r="8.420074629413111e+95"/><circle cx="0" cy="1.362396619092035e+96" r="1.362396619092035e+96"/><circle cx="0" cy="2.2044039149362995e+96" r="2.2044039149362995e+96"/><circle cx="0" cy="3.566800263659649e+96" r="3.566800263659649e+96"/><circle cx="0" cy="5.771203741130249e+96" r="5.771203741130249e+96"/><circle cx="0" cy="9.338003296955567e+96" r="9.338003296955567e+96"/><circle cx="0" cy="1.5109205892785874e+97" r="1.5109205892785874e+97"/><circle cx="0" cy="2.4447207336607308e+97" r="2.4447207336607308e+97"/><circle cx="0" cy="3.9556410230959334e+97" r="3.9556410230959334e+97"/><circle cx="7.588550360256754e+81" cy="6.400361271599903e+97" r="6.400361271599903e+97"/><circle cx="0" cy="1.0356001509695749e+98" r="1.0356001509695749e+98"/><circle cx="0" cy="1.67563615111389e+98" r="1.67563615111389e+98"/><circle cx="3.035420144102702e+82" cy="2.7112360965677968e+98" r="2.7112360965677968e+98"/><circle cx="0" cy="4.386871915150368e+98" r="4.386871915150368e+98"/><circle cx="0" cy="7.09810747367122e+98" r="7.09810747367122e+98"/><circle cx="0" cy="1.148497851824339e+99" r="1.148497851824339e+99"/><circle cx="0" cy="1.8583084583289573e+99" r="1.8583084583289573e+99"/><circle cx="0" cy="3.0068060822329894e+99" r="3.0068060822329894e+99"/><circle cx="0" cy="4.865114171779165e+99" r="4.865114171779165e+99"/><circle cx="0" cy="7.871919657309112e+99" r="7.871919657309112e+99"/><circle cx="0" cy="1.2737032863602525e+100" r="1.2737032863602525e+100"/><circle cx="0" cy="2.060895095872296e+100" r="2.060895095872296e+100"/><circle cx="3.885337784451458e+84" cy="3.334598129465125e+100" r="3.334598129465125e+100"/><circle cx="0" cy="5.395492816351161e+100" r="5.395492816351161e+100"/><circle cx="0" cy="8.730090284062653e+100" r="8.730090284062653e+100"/><circle cx="0" cy="1.4125582029674e+101" r="1.4125582029674e+101"/><circle cx="0" cy="2.285567058124334e+101" r="2.285567058124334e+101"/><circle cx="0" cy="3.6981249807684424e+101" r="3.6981249807684424e+101"/><circle cx="0" cy="5.983691585320186e+101" r="5.983691585320186e+101"/><circle cx="0" cy="9.681815832192803e+101" r="9.681815832192803e+101"/><circle cx="0" cy="1.5665506230044665e+102" r="1.5665506230044665e+102"/><circle cx="0" cy="2.5347320140873467e+102" r="2.5347320140873467e+102"/><circle cx="4.9732323640978664e+86" cy="4.1012823262086044e+102" r="4.1012823262086044e+102"/><circle cx="0" cy="6.63601383727638e+102" r="6.63601383727638e+102"/><circle cx="0" cy="1.0737295349582267e+103" r="1.0737295349582267e+103"/><circle cx="1.9892929456391466e+87" cy="1.7373307869936459e+103" r="1.7373307869936459e+103"/><circle cx="0" cy="2.811060108869398e+103" r="2.811060108869398e+103"/><circle cx="0" cy="4.548390551088376e+103" r="4.548390551088376e+103"/><circle cx="0" cy="7.359450102100673e+103" r="7.359450102100673e+103"/><circle cx="0" cy="1.1907839750557348e+104" r="1.1907839750557348e+104"/><circle cx="0" cy="1.9267288392169334e+104" r="1.9267288392169334e+104"/><circle cx="0" cy="3.1175125779606476e+104" r="3.1175125779606476e+104"/><circle cx="0" cy="5.0442410348167196e+104" r="5.0442410348167196e+104"/><circle cx="0" cy="8.161752994104533e+104" r="8.161752994104533e+104"/><circle cx="0" cy="1.3205993027887635e+105" r="1.3205993027887635e+105"/><circle cx="2.5462949704181076e+89" cy="2.136774440228584e+105" r="2.136774440228584e+105"/><circle cx="0" cy="3.4573734809433717e+105" r="3.4573734809433717e+105"/><circle cx="0" cy="5.594147497127379e+105" r="5.594147497127379e+105"/><circle cx="1.018517988167243e+90" cy="9.051520291952252e+105" r="9.051520291952252e+105"/><circle cx="0" cy="1.464566667891664e+106" r="1.464566667891664e+106"/><circle cx="0" cy="2.3697185174587536e+106" r="2.3697185174587536e+106"/><circle cx="0" cy="3.834284894706005e+106" r="3.834284894706005e+106"/><circle cx="0" cy="6.204002941892247e+106" r="6.204002941892247e+106"/><circle cx="0" cy="1.0038287075681383e+107" r="1.0038287075681383e+107"/><circle cx="0" cy="1.6242288786384346e+107" r="1.6242288786384346e+107"/><circle cx="0" cy="2.628057386995973e+107" r="2.628057386995973e+107"/><circle cx="0" cy="4.252285943304904e+107" r="4.252285943304904e+107"/><circle cx="0" cy="6.880342808760811e+107" r="6.880342808760811e+107"/><circle cx="1.3037030248540711e+92" cy="1.1132627908196207e+108" r="1.1132627908196207e+108"/><circle cx="0" cy="1.8012969351547552e+108" r="1.8012969351547552e+108"/><circle cx="0" cy="2.9145595050464956e+108" r="2.9145595050464956e+108"/><circle cx="0" cy="4.71585608273245e+108" r="4.71585608273245e+108"/><circle cx="0" cy="7.63041500938231e+108" r="7.63041500938231e+108"/><circle cx="0" cy="1.2346270156249393e+109" r="1.2346270156249393e+109"/><circle cx="0" cy="1.9976683651369812e+109" r="1.9976683651369812e+109"/><circle cx="0" cy="3.2322951357492137e+109" r="3.2322951357492137e+109"/><circle cx="0" cy="5.229963104447329e+109" r="5.229963104447329e+109"/><circle cx="0" cy="8.46225759874502e+109" r="8.46225759874502e+109"/><circle cx="1.668739871813211e+94" cy="1.3692219665302038e+110" r="1.3692219665302038e+110"/><circle cx="0" cy="2.2154475584705354e+110" r="2.2154475584705354e+110"/><circle cx="0" cy="3.584669253277558e+110" r="3.584669253277558e+110"/><circle cx="6.674959487252844e+94" cy="5.8001163720907744e+110" r="5.8001163720907744e+110"/><circle cx="0" cy="9.384784913987886e+110" r="9.384784913987886e+110"/><circle cx="0" cy="1.5184900135040983e+111" r="1.5184900135040983e+111"/><circle cx="0" cy="2.4569683186610886e+111" r="2.4569683186610886e+111"/><circle cx="0" cy="3.975458030819644e+111" r="3.975458030819644e+111"/><circle cx="0" cy="6.432425861893428e+111" r="6.432425861893428e+111"/><circle cx="0" cy="1.0407883103780283e+112" r="1.0407883103780283e+112"/><circle cx="0" cy="1.6840307689153717e+112" r="1.6840307689153717e+112"/><circle cx="0" cy="2.724818872748137e+112" r="2.724818872748137e+112"/><circle cx="0" cy="4.408849307466273e+112" r="4.408849307466273e+112"/><circle cx="8.54394814368364e+96" cy="7.133667639471952e+112" r="7.133667639471952e+112"/><circle cx="0" cy="1.1542516071998595e+113" r="1.1542516071998595e+113"/><circle cx="0" cy="1.8676182295788566e+113" r="1.8676182295788566e+113"/><circle cx="3.417579257473456e+97" cy="3.021869607716573e+113" r="3.021869607716573e+113"/><circle cx="0" cy="4.889487466665116e+113" r="4.889487466665116e+113"/><circle cx="0" cy="7.911356474689277e+113" r="7.911356474689277e+113"/><circle cx="0" cy="1.2800842971031743e+114" r="1.2800842971031743e+114"/><circle cx="0" cy="2.0712197875706076e+114" r="2.0712197875706076e+114"/><circle cx="0" cy="3.351303830640042e+114" r="3.351303830640042e+114"/><circle cx="0" cy="5.422523207175447e+114" r="5.422523207175447e+114"/><circle cx="0" cy="8.773826372746595e+114" r="8.773826372746595e+114"/><circle cx="0" cy="1.4196348503818028e+115" r="1.4196348503818028e+115"/><circle cx="0" cy="2.2970173135391845e+115" r="2.2970173135391845e+115"/><circle cx="4.374501449566024e+99" cy="3.716651882193329e+115" r="3.716651882193329e+115"/><circle cx="0" cy="6.013668739887612e+115" r="6.013668739887612e+115"/><circle cx="0" cy="9.730319884508439e+115" r="9.730319884508439e+115"/><circle cx="1.7498005798264095e+100" cy="1.5743987430978738e+116" r="1.5743987430978738e+116"/><circle cx="0" cy="2.5474305384497507e+116" r="2.5474305384497507e+116"/><circle cx="0" cy="4.12182896910695e+116" r="4.12182896910695e+116"/><circle cx="0" cy="6.669259002017097e+116" r="6.669259002017097e+116"/><circle cx="0" cy="1.0791087153143831e+117" r="1.0791087153143831e+117"/><circle cx="0" cy="1.7460344831641208e+117" r="1.7460344831641208e+117"/><circle cx="0" cy="2.8251429843285265e+117" r="2.8251429843285265e+117"/><circle cx="0" cy="4.5711771209907244e+117" r="4.5711771209907244e+117"/><circle cx="0" cy="7.396319544667393e+117" r="7.396319544667393e+117"/><circle cx="0" cy="1.1967495758504406e+118" r="1.1967495758504406e+118"/><circle cx="2.2397447421778042e+102" cy="1.9363813835366341e+118" r="1.9363813835366341e+118"/><circle cx="0" cy="3.1331307218911758e+118" r="3.1331307218911758e+118"/><circle cx="0" cy="5.069511721151394e+118" r="5.069511721151394e+118"/><circle cx="0" cy="8.202641821270302e+118" r="8.202641821270302e+118"/><circle cx="0" cy="1.3272152536373089e+119" r="1.3272152536373089e+119"/><circle cx="0" cy="2.147479272982264e+119" r="2.147479272982264e+119"/><circle cx="0" cy="3.474694263232657e+119" r="3.474694263232657e+119"/><circle cx="0" cy="5.622173110045963e+119" r="5.622173110045963e+119"/><circle cx="0" cy="9.0968666837228e+119" r="9.0968666837228e+119"/><circle cx="0" cy="1.4719038678044066e+120" r="1.4719038678044066e+120"/><circle cx="2.8668732699875894e+104" cy="2.3815903556486483e+120" r="2.3815903556486483e+120"/><circle cx="0" cy="3.853493931352569e+120" r="3.853493931352569e+120"/><circle cx="0" cy="6.235083814372729e+120" r="6.235083814372729e+120"/><circle cx="1.1467493079950358e+105" cy="1.0088576980996382e+121" r="1.0088576980996382e+121"/><circle cx="0" cy="1.63236595580118e+121" r="1.63236595580118e+121"/><circle cx="0" cy="2.6412234536922107e+121" r="2.6412234536922107e+121"/><circle cx="0" cy="4.2735890855490765e+121" r="4.2735890855490765e+121"/><circle cx="0" cy="6.914812015088406e+121" r="6.914812015088406e+121"/><circle cx="0" cy="1.1188400252540351e+122" r="1.1188400252540351e+122"/><circle cx="0" cy="1.8103210895378847e+122" r="1.8103210895378847e+122"/><circle cx="0" cy="2.9291608927572324e+122" r="2.9291608927572324e+122"/><circle cx="0" cy="4.739481623035467e+122" r="4.739481623035467e+122"/><circle cx="0" cy="7.668641934498405e+122" r="7.668641934498405e+122"/><circle cx="1.4678391142336458e+107" cy="1.2408122616979998e+123" r="1.2408122616979998e+123"/><circle cx="0" cy="2.007676302963035e+123" r="2.007676302963035e+123"/><circle cx="0" cy="3.248488318420861e+123" r="3.248488318420861e+123"/><circle cx="5.871356456934583e+107" cy="5.2561642229589467e+123" r="5.2561642229589467e+123"/><circle cx="0" cy="8.504651896714734e+123" r="8.504651896714734e+123"/><circle cx="0" cy="1.3760815076583738e+124" r="1.3760815076583738e+124"/><circle cx="0" cy="2.226546528554358e+124" r="2.226546528554358e+124"/><circle cx="0" cy="3.6026277631282694e+124" r="3.6026277631282694e+124"/><circle cx="0" cy="5.829173849822709e+124" r="5.829173849822709e+124"/><circle cx="0" cy="9.431800898006652e+124" r="9.431800898006652e+124"/><circle cx="0" cy="1.5260973591025205e+125" r="1.5260973591025205e+125"/><circle cx="0" cy="2.4692772617283515e+125" r="2.4692772617283515e+125"/><circle cx="0" cy="3.995374317975645e+125" r="3.995374317975645e+125"/><circle cx="7.515336264876266e+109" cy="6.464651089673973e+125" r="6.464651089673973e+125"/><circle cx="0" cy="1.0460024614764429e+126" r="1.0460024614764429e+126"/><circle cx="0" cy="1.6924674421523282e+126" r="1.6924674421523282e+126"/><circle cx="0" cy="2.738469696048756e+126" r="2.738469696048756e+126"/><circle cx="0" cy="4.430936802329583e+126" r="4.430936802329583e+126"/><circle cx="0" cy="7.169405954926864e+126" r="7.169405954926864e+126"/><circle cx="0" cy="1.1600341877933537e+127" r="1.1600341877933537e+127"/><circle cx="0" cy="1.8769746410086123e+127" r="1.8769746410086123e+127"/><circle cx="0" cy="3.0370085985922654e+127" r="3.0370085985922654e+127"/><circle cx="0" cy="4.913982867113776e+127" r="4.913982867113776e+127"/><circle cx="9.619630419041621e+111" cy="7.950990863009284e+127" r="7.950990863009284e+127"/><circle cx="0" cy="1.2864972754939277e+128" r="1.2864972754939277e+128"/><circle cx="0" cy="2.081596204006814e+128" r="2.081596204006814e+128"/><circle cx="3.8478521676166484e+112" cy="3.368093224194341e+128" r="3.368093224194341e+128"/><circle cx="0" cy="5.449689015106744e+128" r="5.449689015106744e+128"/><circle cx="0" cy="8.817781570900322e+128" r="8.817781570900322e+128"/><circle cx="0" cy="1.4267469504511975e+129" r="1.4267469504511975e+129"/><circle cx="0" cy="2.3085249325516576e+129" r="2.3085249325516576e+129"/><circle cx="0" cy="3.735271599863795e+129" r="3.735271599863795e+129"/><circle cx="0" cy="6.043796074286856e+129" r="6.043796074286856e+129"/><circle cx="0" cy="9.77906693288305e+129" r="9.77906693288305e+129"/><circle cx="0" cy="1.5822861807773801e+130" r="1.5822861807773801e+130"/><circle cx="0" cy="2.560192679999329e+130" r="2.560192679999329e+130"/><circle cx="4.92525077454931e+114" cy="4.1424785467707656e+130" r="4.1424785467707656e+130"/><circle cx="0" cy="6.702670718697835e+130" r="6.702670718697835e+130"/><circle cx="0" cy="1.084514844339046e+131" r="1.084514844339046e+131"/><circle cx="1.970100309819724e+115" cy="1.7547817831937992e+131" r="1.7547817831937992e+131"/><circle cx="0" cy="2.839296412310017e+131" r="2.839296412310017e+131"/><circle cx="0" cy="4.594077847265985e+131" r="4.594077847265985e+131"/><circle cx="0" cy="7.433373696115386e+131" r="7.433373696115386e+131"/><circle cx="0" cy="1.2027450631682993e+132" r="1.2027450631682993e+132"/><circle cx="0" cy="1.9460822852639493e+132" r="1.9460822852639493e+132"/><circle cx="0" cy="3.14882710974654e+132" r="3.14882710974654e+132"/><circle cx="0" cy="5.094909008808922e+132" r="5.094909008808922e+132"/><circle cx="0" cy="8.243735493668234e+132" r="8.243735493668234e+132"/><circle cx="0" cy="1.3338643491388436e+133" r="1.3338643491388436e+133"/><circle cx="2.5217283965692467e+117" cy="2.158237734908085e+133" r="2.158237734908085e+133"/><circle cx="0" cy="3.492101819340494e+133" r="3.492101819340494e+133"/><circle cx="0" cy="5.650339125944595e+133" r="5.650339125944595e+133"/><circle cx="0" cy="9.142440252274723e+133" r="9.142440252274723e+133"/><circle cx="0" cy="1.4792778256905054e+134" r="1.4792778256905054e+134"/><circle cx="0" cy="2.393521669485529e+134" r="2.393521669485529e+134"/><circle cx="0" cy="3.8727992016121805e+134" r="3.8727992016121805e+134"/><circle cx="0" cy="6.266320396101442e+134" r="6.266320396101442e+134"/><circle cx="0" cy="1.0139118829153558e+135" r="1.0139118829153558e+135"/><circle cx="0" cy="1.6405437981698767e+135" r="1.6405437981698767e+135"/><circle cx="3.227812347608636e+119" cy="2.6544554798736182e+135" r="2.6544554798736182e+135"/><circle cx="0" cy="4.294998952476282e+135" r="4.294998952476282e+135"/><circle cx="0" cy="6.949453905571113e+135" r="6.949453905571113e+135"/><circle cx="1.2911249390434543e+120" cy="1.1244452005701459e+136" r="1.1244452005701459e+136"/><circle cx="0" cy="1.8193904532147953e+136" r="1.8193904532147953e+136"/><circle cx="0" cy="2.9438354306379024e+136" r="2.9438354306379024e+136"/><circle cx="0" cy="4.763225522793225e+136" r="4.763225522793225e+136"/><circle cx="0" cy="7.70706036922466e+136" r="7.70706036922466e+136"/><circle cx="0" cy="1.2470284946752017e+137" r="1.2470284946752017e+137"/><circle cx="0" cy="2.0177343786504457e+137" r="2.0177343786504457e+137"/><circle cx="0" cy="3.2647626258518574e+137" r="3.2647626258518574e+137"/><circle cx="0" cy="5.282496604081321e+137" r="5.282496604081321e+137"/><circle cx="0" cy="8.547258582038455e+137" r="8.547258582038455e+137"/><circle cx="1.6526399219756215e+122" cy="1.382975413780415e+138" r="1.382975413780415e+138"/><circle cx="0" cy="2.2377011023632388e+138" r="2.2377011023632388e+138"/><circle cx="0" cy="3.62067624169109e+138" r="3.62067624169109e+138"/><circle cx="6.610559687902486e+122" cy="5.858376899980777e+138" r="5.858376899980777e+138"/><circle cx="0" cy="9.479052423145806e+138" r="9.479052423145806e+138"/><circle cx="0" cy="1.533742816052706e+139" r="1.533742816052706e+139"/><circle cx="0" cy="2.481647870254742e+139" r="2.481647870254742e+139"/><circle cx="0" cy="4.0153903819349736e+139" r="4.0153903819349736e+139"/><circle cx="0" cy="6.497037759704734e+139" r="6.497037759704734e+139"/><circle cx="0" cy="1.0512427344782313e+140" r="1.0512427344782313e+140"/><circle cx="0" cy="1.700946381514477e+140" r="1.700946381514477e+140"/><circle cx="0" cy="2.7521889073727567e+140" r="2.7521889073727567e+140"/><circle cx="0" cy="4.45313495133308e+140" r="4.45313495133308e+140"/><circle cx="8.461516400515182e+124" cy="7.205323312531773e+140" r="7.205323312531773e+140"/><circle cx="0" cy="1.1658457380136703e+141" r="1.1658457380136703e+141"/><circle cx="0" cy="1.886377926276637e+141" r="1.886377926276637e+141"/><circle cx="0" cy="3.0522234329272995e+141" r="3.0522234329272995e+141"/><circle cx="0" cy="4.9386009848507465e+141" r="4.9386009848507465e+141"/><circle cx="0" cy="7.990823812061893e+141" r="7.990823812061893e+141"/><circle cx="0" cy="1.292942381684337e+142" r="1.292942381684337e+142"/><circle cx="0" cy="2.0920246043119964e+142" r="2.0920246043119964e+142"/><circle cx="0" cy="3.3849667294108963e+142" r="3.3849667294108963e+142"/><circle cx="0" cy="5.476990918558957e+142" r="5.476990918558957e+142"/><circle cx="1.0830740992659433e+127" cy="8.861956976220531e+142" r="8.861956976220531e+142"/><circle cx="0" cy="1.433894680786631e+143" r="1.433894680786631e+143"/><circle cx="0" cy="2.320090202542448e+143" r="2.320090202542448e+143"/><circle cx="4.332296397063773e+127" cy="3.753984598771547e+143" r="3.753984598771547e+143"/><circle cx="0" cy="6.07407434089026e+143" r="6.07407434089026e+143"/><circle cx="0" cy="9.828058194680596e+143" r="9.828058194680596e+143"/><circle cx="0" cy="1.5902131330166004e+144" r="1.5902131330166004e+144"/><circle cx="0" cy="2.5730187574460687e+144" r="2.5730187574460687e+144"/><circle cx="0" cy="4.163231574883616e+144" r="4.163231574883616e+144"/><circle cx="0" cy="6.736249821712079e+144" r="6.736249821712079e+144"/><circle cx="0" cy="1.08994805703991e+145" r="1.08994805703991e+145"/><circle cx="0" cy="1.7635729055297077e+145" r="1.7635729055297077e+145"/><circle cx="0" cy="2.8535207462685644e+145" r="2.8535207462685644e+145"/><circle cx="5.54533938824163e+129" cy="4.6170933018158357e+145" r="4.6170933018158357e+145"/><circle cx="0" cy="7.470613481800953e+145" r="7.470613481800953e+145"/><circle cx="0" cy="1.2087705867350973e+146" r="1.2087705867350973e+146"/><circle cx="2.218135755296652e+130" cy="1.9558317866602778e+146" r="1.9558317866602778e+146"/></g></svg>