<svg x="0" y="0" width="1100" height="801" version="1.1" xmlns="http://www.w3.org/2000/svg" xmlns:xlink="http://www.w3.org/1999/xlink"><g fill="none" stroke="none" stroke-width="none" stroke-linecap="none" stroke-linejoin="miter" stroke-miterlimit="10" stroke-dasharray="" stroke-dashoffset="0" font-family="sans-serif" font-size="12" text-anchor="start" mix-blend-mode="normal"><rect x="15" y="20" width="520" height="761" fill="#111111" stroke-width="1" stroke-linecap="butt"/><g stroke-width="1" stroke-linecap="butt"/><rect x="-120" y="-150" transform="rotate(180)" width="12.5" height="57" stroke="#ffffff" stroke-width="0.5" stroke-linecap="butt" opacity="0"/><g stroke="#ffffff" stroke-width="0.5" stroke-linecap="round"><circle cx="113.75" cy="121.5" r="16" data-paper-data="{&quot;index&quot;:0}"/></g><rect x="-227.5" y="-150" transform="rotate(180)" width="12.5" height="57" stroke="#ffffff" stroke-width="0.5" stroke-linecap="butt" opacity="0"/><g stroke="#ffffff" stroke-width="0.5" stroke-linecap="round"><circle cx="221.25" cy="121.5" r="16" data-paper-data="{&quot;index&quot;:0}" opacity="0"/></g><rect x="-335" y="-150" transform="rotate(180)" width="12.5" height="57" stroke="#ffffff" stroke-width="0.5" stroke-linecap="butt" opacity="0"/><g stroke="#ffffff" stroke-width="0.5" stroke-linecap="round"><circle cx="328.75" cy="121.5" r="16" data-paper-data="{&quot;index&quot;:0}" opacity="0"/></g><rect x="-442.5" y="-150" transform="rotate(180)" width="12.5" height="57" stroke="#ffffff" stroke-width="0.5" stroke-linecap="butt" opacity="0"/><g stroke="#ffffff" stroke-width="0.5" stroke-linecap="round"><circle cx="436.25" cy="121.5" r="16" data-paper-data="{&quot;index&quot;:0}" opacity="0"/></g><rect x="-120" y="-243" transform="rotate(180)" width="12.5" height="57" stroke="#ffffff" stroke-width="0.5" stroke-linecap="butt" opacity="0"/><g stroke="#ffffff" stroke-width="0.5" stroke-linecap="round"><circle cx="214.5" cy="-113.75" transform="rotate(90)" r="16" data-paper-data="{&quot;index&quot;:0}"/><circle cx="230.5" cy="-113.75" transform="rotate(90)" r="16" data-paper-data="{&quot;index&quot;:1}"/></g><rect x="-227.5" y="-243" transform="rotate(180)" width="12.5" height="57" stroke="#ffffff" stroke-width="0.5" stroke-linecap="butt" opacity="0"/><g stroke="#ffffff"><circle cx="214.5" cy="-221.25" transform="rotate(90)" r="16" data-paper-data="{&quot;index&quot;:0}" stroke-width="0.5" stroke-linecap="round" opacity="0"/><circle cx="230.5" cy="-221.25" transform="rotate(90)" r="16" data-paper-data="{&quot;index&quot;:1}" stroke-width="0.5" stroke-linecap="round" opacity="0"/><path d="M221.25,230.5c-5.92226,0 -11.09301,-3.21759 -13.85948,-8c2.76648,-4.78241 7.93723,-8 13.85948,-8c5.92226,0 11.09301,3.21759 13.85948,8c-2.76648,4.78241 -7.93723,8 -13.85948,8z" stroke-width="1" stroke-linecap="butt" opacity="0.45"/></g><rect x="-335" y="-243" transform="rotate(180)" width="12.5" height="57" stroke="#ffffff" stroke-width="0.5" stroke-linecap="butt" opacity="0"/><g stroke="#ffffff" stroke-width="0.5" stroke-linecap="round"><circle cx="214.5" cy="-328.75" transform="rotate(90)" r="16" data-paper-data="{&quot;index&quot;:0}" opacity="0"/><circle cx="230.5" cy="-328.75" transform="rotate(90)" r="16" data-paper-data="{&quot;index&quot;:1}" opacity="0"/></g><rect x="-442.5" y="-243" transform="rotate(180)" width="12.5" height="57" stroke="#ffffff" stroke-width="0.5" stroke-linecap="butt" opacity="0"/><g stroke="#ffffff" stroke-width="0.5" stroke-linecap="round"><circle cx="214.5" cy="-436.25" transform="rotate(90)" r="16" data-paper-data="{&quot;index&quot;:0}" opacity="0"/><circle cx="230.5" cy="-436.25" transform="rotate(90)" r="16" data-paper-data="{&quot;index&quot;:1}" opacity="0"/></g><rect x="-120" y="-336" transform="rotate(180)" width="12.5" height="57" stroke="#ffffff" stroke-width="0.5" stroke-linecap="butt" opacity="0"/><g stroke="#ffffff" stroke-width="0.5" stroke-linecap="round"><circle cx="209.42781" cy="-252.26039" transform="rotate(120)" r="16" data-paper-data="{&quot;index&quot;:0}"/><circle cx="225.42781" cy="-252.26039" transform="rotate(120)" r="16" data-paper-data="{&quot;index&quot;:1}"/><circle cx="217.42781" cy="-266.11753" transform="rotate(120)" r="16" data-paper-data="{&quot;index&quot;:2}"/></g><rect x="-227.5" y="-336" transform="rotate(180)" width="12.5" height="57" stroke="#ffffff" stroke-width="0.5" stroke-linecap="butt" opacity="0"/><g stroke="#ffffff"><circle cx="155.67781" cy="-345.35812" transform="rotate(120)" r="16" data-paper-data="{&quot;index&quot;:0}" stroke-width="0.5" stroke-linecap="round" opacity="0"/><circle cx="171.67781" cy="-345.35812" transform="rotate(120)" r="16" data-paper-data="{&quot;index&quot;:1}" stroke-width="0.5" stroke-linecap="round" opacity="0"/><circle cx="163.67781" cy="-359.21526" transform="rotate(120)" r="16" data-paper-data="{&quot;index&quot;:2}" stroke-width="0.5" stroke-linecap="round" opacity="0"/><path d="M213.25,321.35641c-5.12883,-2.96113 -7.99803,-8.33302 -8.00267,-13.85795c4.78704,-2.75845 10.87384,-2.95959 16.00267,0.00154c5.12883,2.96113 7.99803,8.33302 8.00267,13.85795c-4.78704,2.75845 -10.87384,2.95959 -16.00267,-0.00154z" stroke-width="1" stroke-linecap="butt" opacity="0.45"/><path d="M213.25,321.35641c-0.00068,-0.00039 -0.00135,-0.00078 -0.00203,-0.00117c-0.00229,-2.71878 0.68911,-5.4746 2.14626,-7.99846c4.41828,-7.65268 14.20372,-10.27468 21.85641,-5.85641c0.00068,0.00039 0.00136,0.00078 0.00204,0.00118c0.00228,2.71878 -0.68912,5.4746 -2.14627,7.99845c-4.41828,7.65268 -14.20372,10.27468 -21.85641,5.85641z" stroke-width="1" stroke-linecap="butt" opacity="0.45"/><path d="M221.24797,307.49883c0.00068,0.00039 0.00135,0.00078 0.00203,0.00117c7.65268,4.41828 10.27468,14.20372 5.85641,21.85641c-1.45715,2.52386 -3.49807,4.50053 -5.85374,5.85795c-0.00068,-0.00039 -0.00135,-0.00078 -0.00203,-0.00117c-7.65268,-4.41828 -10.27468,-14.20372 -5.85641,-21.85641c1.45716,-2.52387 3.49805,-4.50053 5.85374,-5.85795z" stroke-width="1" stroke-linecap="butt" opacity="0.45"/></g><rect x="-335" y="-336" transform="rotate(180)" width="12.5" height="57" stroke="#ffffff" stroke-width="0.5" stroke-linecap="butt" opacity="0"/><g stroke="#ffffff"><circle cx="101.92781" cy="-438.45585" transform="rotate(120)" r="16" data-paper-data="{&quot;index&quot;:0}" stroke-width="0.5" stroke-linecap="round" opacity="0"/><circle cx="117.92781" cy="-438.45585" transform="rotate(120)" r="16" data-paper-data="{&quot;index&quot;:1}" stroke-width="0.5" stroke-linecap="round" opacity="0"/><circle cx="109.92781" cy="-452.31299" transform="rotate(120)" r="16" data-paper-data="{&quot;index&quot;:2}" stroke-width="0.5" stroke-linecap="round" opacity="0"/><path d="M320.74796,321.35523c-0.00228,-2.71878 0.68912,-5.4746 2.14627,-7.99845c1.45715,-2.52386 3.49807,-4.50053 5.85374,-5.85795c0.00068,0.00039 0.00135,0.00078 0.00203,0.00117c5.12883,2.96113 7.99803,8.33302 8.00267,13.85795c-4.78704,2.75845 -10.87384,2.95959 -16.00267,-0.00154c-0.00068,-0.00039 -0.00136,-0.00078 -0.00204,-0.00118z" stroke-width="1" stroke-linecap="butt" opacity="0.45"/></g><path d="M336.75,309.64286c-8.83656,0 -16,-7.16344 -16,-16c0,-0.00078 0,-0.00156 0,-0.00234c2.35339,-1.36136 5.0857,-2.14052 8,-2.14052c8.83656,0 16,7.16344 16,16c0,0.00078 0,0.00157 0,0.00235c-2.35339,1.36136 -5.0857,2.1405 -8,2.1405z" stroke-width="1" stroke-linecap="butt"/><rect x="-442.5" y="-336" transform="rotate(180)" width="12.5" height="57" stroke="#ffffff" stroke-width="0.5" stroke-linecap="butt" opacity="0"/><g stroke="#ffffff" stroke-width="0.5" stroke-linecap="round"><circle cx="48.17781" cy="-531.55358" transform="rotate(120)" r="16" data-paper-data="{&quot;index&quot;:0}" opacity="0"/><circle cx="64.17781" cy="-531.55358" transform="rotate(120)" r="16" data-paper-data="{&quot;index&quot;:1}" opacity="0"/><circle cx="56.17781" cy="-545.41073" transform="rotate(120)" r="16" data-paper-data="{&quot;index&quot;:2}" opacity="0"/></g><rect x="-120" y="-429" transform="rotate(180)" width="12.5" height="57" stroke="#ffffff" stroke-width="0.5" stroke-linecap="butt" opacity="0"/><g stroke="#ffffff" stroke-width="0.5" stroke-linecap="round"><circle cx="101.73961" cy="-403.71817" transform="rotate(150)" r="16" data-paper-data="{&quot;index&quot;:0}"/><circle cx="117.73961" cy="-403.71817" transform="rotate(150)" r="16" data-paper-data="{&quot;index&quot;:1}"/><circle cx="109.73961" cy="-417.57532" transform="rotate(150)" r="16" data-paper-data="{&quot;index&quot;:2}"/><circle cx="93.73961" cy="-417.57532" transform="rotate(150)" r="16" data-paper-data="{&quot;index&quot;:3}"/></g><rect x="-227.5" y="-429" transform="rotate(180)" width="12.5" height="57" stroke="#ffffff" stroke-width="0.5" stroke-linecap="butt" opacity="0"/><g stroke="#ffffff"><circle cx="8.64188" cy="-457.46817" transform="rotate(150)" r="16" data-paper-data="{&quot;index&quot;:0}" stroke-width="0.5" stroke-linecap="round" opacity="0"/><circle cx="24.64188" cy="-457.46817" transform="rotate(150)" r="16" data-paper-data="{&quot;index&quot;:1}" stroke-width="0.5" stroke-linecap="round" opacity="0"/><circle cx="16.64188" cy="-471.32532" transform="rotate(150)" r="16" data-paper-data="{&quot;index&quot;:2}" stroke-width="0.5" stroke-linecap="round" opacity="0"/><circle cx="0.64188" cy="-471.32532" transform="rotate(150)" r="16" data-paper-data="{&quot;index&quot;:3}" stroke-width="0.5" stroke-linecap="round" opacity="0"/><path d="M207.39359,408.5c-2.96113,-5.12883 -2.75999,-11.21562 -0.00154,-16.00267c5.52493,0.00463 10.89682,2.87384 13.85795,8.00267c2.96113,5.12883 2.75999,11.21562 0.00154,16.00267c-5.52493,-0.00463 -10.89682,-2.87384 -13.85795,-8.00267z" stroke-width="1" stroke-linecap="butt" opacity="0.45"/><path d="M207.39359,408.5c-0.00039,-0.00068 -0.00078,-0.00135 -0.00117,-0.00203c1.35741,-2.35568 3.33408,-4.39659 5.85795,-5.85374c7.65268,-4.41828 17.43813,-1.79628 21.85641,5.85641c0.00039,0.00068 0.00078,0.00136 0.00118,0.00204c-1.35741,2.35567 -3.33409,4.39658 -5.85795,5.85373c-7.65268,4.41828 -17.43813,1.79628 -21.85641,-5.85641z" stroke-width="1" stroke-linecap="butt" opacity="0.45"/><path d="M235.10524,392.49797c0.00039,0.00068 0.00078,0.00135 0.00117,0.00203c4.41828,7.65268 1.79628,17.43813 -5.85641,21.85641c-2.52386,1.45715 -5.27969,2.14854 -7.99846,2.14626c-0.00039,-0.00068 -0.00078,-0.00135 -0.00117,-0.00203c-4.41828,-7.65268 -1.79628,-17.43813 5.85641,-21.85641c2.52387,-1.45716 5.27967,-2.14855 7.99846,-2.14626z" stroke-width="1" stroke-linecap="butt" opacity="0.45"/><path d="M221.24883,400.49797c0.00039,0.00068 0.00078,0.00135 0.00117,0.00203c4.41828,7.65268 1.79628,17.43813 -5.85641,21.85641c-2.52386,1.45715 -5.27969,2.14854 -7.99846,2.14626c-0.00039,-0.00068 -0.00078,-0.00135 -0.00117,-0.00203c-4.41828,-7.65268 -1.79628,-17.43813 5.85641,-21.85641c2.52387,-1.45716 5.27967,-2.14855 7.99846,-2.14626z" stroke-width="1" stroke-linecap="butt" opacity="0.45"/><path d="M221.24883,400.49797c5.52493,0.00463 10.89682,2.87384 13.85795,8.00267c2.96113,5.12883 2.75999,11.21562 0.00154,16.00267c-5.52493,-0.00463 -10.89682,-2.87384 -13.85795,-8.00267c-2.96113,-5.12883 -2.75999,-11.21562 -0.00154,-16.00267z" stroke-width="1" stroke-linecap="butt" opacity="0.45"/></g><rect x="-335" y="-429" transform="rotate(180)" width="12.5" height="57" stroke="#ffffff" stroke-width="0.5" stroke-linecap="butt" opacity="0"/><g stroke="#ffffff"><circle cx="-84.45585" cy="-511.21817" transform="rotate(150)" r="16" data-paper-data="{&quot;index&quot;:0}" stroke-width="0.5" stroke-linecap="round" opacity="0"/><circle cx="-68.45585" cy="-511.21817" transform="rotate(150)" r="16" data-paper-data="{&quot;index&quot;:1}" stroke-width="0.5" stroke-linecap="round" opacity="0"/><circle cx="-76.45585" cy="-525.07532" transform="rotate(150)" r="16" data-paper-data="{&quot;index&quot;:2}" stroke-width="0.5" stroke-linecap="round" opacity="0"/><circle cx="-92.45585" cy="-525.07532" transform="rotate(150)" r="16" data-paper-data="{&quot;index&quot;:3}" stroke-width="0.5" stroke-linecap="round" opacity="0"/><path d="M314.89242,408.49796c1.35741,-2.35567 3.33409,-4.39658 5.85795,-5.85373c2.52386,-1.45715 5.27969,-2.14854 7.99846,-2.14626c0.00039,0.00068 0.00078,0.00135 0.00117,0.00203c2.96113,5.12883 2.75999,11.21562 0.00154,16.00267c-5.52493,-0.00463 -10.89682,-2.87384 -13.85795,-8.00267c-0.00039,-0.00068 -0.00078,-0.00136 -0.00118,-0.00204z" stroke-width="1" stroke-linecap="butt" opacity="0.45"/><path d="M328.75037,416.50064c-2.96113,-5.12883 -2.75999,-11.21562 -0.00154,-16.00267c5.52493,0.00463 10.89682,2.87384 13.85795,8.00267c0.00039,0.00068 0.00078,0.00136 0.00118,0.00204c-1.35741,2.35567 -3.33409,4.39658 -5.85795,5.85373c-2.52386,1.45715 -5.27969,2.14854 -7.99846,2.14626c-0.00039,-0.00068 -0.00078,-0.00135 -0.00117,-0.00203z" stroke-width="1" stroke-linecap="butt" opacity="0.45"/></g><path d="M336.75,402.64286c-8.83656,0 -16,-7.16344 -16,-16c0,-0.00078 0,-0.00156 0,-0.00234c2.35339,-1.36136 5.0857,-2.14052 8,-2.14052c8.83656,0 16,7.16344 16,16c0,0.00078 0,0.00157 0,0.00235c-2.35339,1.36136 -5.0857,2.1405 -8,2.1405z" stroke-width="1" stroke-linecap="butt"/><path d="M320.75,402.64286c-2.9143,0 -5.64661,-0.77915 -8,-2.14052c0,-0.00078 0,-0.00156 0,-0.00234c0,-8.83656 7.16344,-16 16,-16c2.9143,0 5.64661,0.77915 8,2.14052c0,0.00078 0,0.00156 0,0.00234c0,8.83656 -7.16344,16 -16,16z" stroke-width="1" stroke-linecap="butt"/><rect x="-442.5" y="-429" transform="rotate(180)" width="12.5" height="57" stroke="#ffffff" stroke-width="0.5" stroke-linecap="butt" opacity="0"/><g stroke="#ffffff"><circle cx="-177.55358" cy="-564.96817" transform="rotate(150)" r="16" data-paper-data="{&quot;index&quot;:0}" stroke-width="0.5" stroke-linecap="round" opacity="0"/><circle cx="-161.55358" cy="-564.96817" transform="rotate(150)" r="16" data-paper-data="{&quot;index&quot;:1}" stroke-width="0.5" stroke-linecap="round" opacity="0"/><circle cx="-169.55358" cy="-578.82532" transform="rotate(150)" r="16" data-paper-data="{&quot;index&quot;:2}" stroke-width="0.5" stroke-linecap="round" opacity="0"/><circle cx="-185.55358" cy="-578.82532" transform="rotate(150)" r="16" data-paper-data="{&quot;index&quot;:3}" stroke-width="0.5" stroke-linecap="round" opacity="0"/><path d="M436.24883,400.49797c0.00039,0.00068 0.00078,0.00135 0.00117,0.00203c2.96113,5.12883 2.75999,11.21562 0.00154,16.00267c-0.00039,-0.00068 -0.00078,-0.00135 -0.00117,-0.00203c-2.96113,-5.12883 -2.75999,-11.21562 -0.00154,-16.00267z" stroke-width="1" stroke-linecap="butt" opacity="0.45"/></g><rect x="-120" y="-522" transform="rotate(180)" width="12.5" height="57" stroke="#ffffff" stroke-width="0.5" stroke-linecap="butt" opacity="0"/><g stroke="#ffffff" stroke-width="0.5" stroke-linecap="round"><circle cx="-113.75" cy="-493.5" transform="rotate(180)" r="16" data-paper-data="{&quot;index&quot;:0}"/><circle cx="-97.75" cy="-493.5" transform="rotate(180)" r="16" data-paper-data="{&quot;index&quot;:1}"/><circle cx="-105.75" cy="-507.35714" transform="rotate(180)" r="16" data-paper-data="{&quot;index&quot;:2}"/><circle cx="-121.75" cy="-507.35714" transform="rotate(180)" r="16" data-paper-data="{&quot;index&quot;:3}"/><circle cx="-129.75" cy="-493.5" transform="rotate(180)" r="16" data-paper-data="{&quot;index&quot;:4}"/></g><rect x="-227.5" y="-522" transform="rotate(180)" width="12.5" height="57" stroke="#ffffff" stroke-width="0.5" stroke-linecap="butt" opacity="0"/><g stroke="#ffffff"><circle cx="-221.25" cy="-493.5" transform="rotate(180)" r="16" data-paper-data="{&quot;index&quot;:0}" stroke-width="0.5" stroke-linecap="round" opacity="0"/><circle cx="-205.25" cy="-493.5" transform="rotate(180)" r="16" data-paper-data="{&quot;index&quot;:1}" stroke-width="0.5" stroke-linecap="round" opacity="0"/><circle cx="-213.25" cy="-507.35714" transform="rotate(180)" r="16" data-paper-data="{&quot;index&quot;:2}" stroke-width="0.5" stroke-linecap="round" opacity="0"/><circle cx="-229.25" cy="-507.35714" transform="rotate(180)" r="16" data-paper-data="{&quot;index&quot;:3}" stroke-width="0.5" stroke-linecap="round" opacity="0"/><circle cx="-237.25" cy="-493.5" transform="rotate(180)" r="16" data-paper-data="{&quot;index&quot;:4}" stroke-width="0.5" stroke-linecap="round" opacity="0"/><path d="M205.25,493.5c0,-5.92226 3.21759,-11.09301 8,-13.85948c4.78241,2.76648 8,7.93723 8,13.85948c0,5.92226 -3.21759,11.09301 -8,13.85948c-4.78241,-2.76648 -8,-7.93723 -8,-13.85948z" stroke-width="1" stroke-linecap="butt" opacity="0.45"/><path d="M205.25,493.5c0,-0.00078 0,-0.00156 0,-0.00234c2.35339,-1.36137 5.08569,-2.14052 8,-2.14052c8.83656,0 16,7.16344 16,16c0,0.00078 0,0.00157 0,0.00235c-2.35339,1.36136 -5.0857,2.1405 -8,2.1405c-8.83656,0 -16,-7.16344 -16,-16z" stroke-width="1" stroke-linecap="butt" opacity="0.45"/><path d="M237.25,493.49766c0,0.00078 0,0.00156 0,0.00234c0,8.83656 -7.16344,16 -16,16c-2.9143,0 -5.64661,-0.77915 -8,-2.14052c0,-0.00078 0,-0.00156 0,-0.00234c0,-8.83656 7.16344,-16 16,-16c2.91432,0 5.6466,0.77914 8,2.14052z" stroke-width="1" stroke-linecap="butt" opacity="0.45"/><path d="M229.25,479.64052c4.78241,2.76648 8,7.93723 8,13.85948c0,5.92226 -3.21759,11.09301 -8,13.85948c-4.78241,-2.76648 -8,-7.93723 -8,-13.85948c0,-5.92226 3.21759,-11.09301 8,-13.85948z" stroke-width="1" stroke-linecap="butt" opacity="0.45"/><path d="M221.25,493.49766c0,0.00078 0,0.00156 0,0.00234c0,8.83656 -7.16344,16 -16,16c-2.9143,0 -5.64661,-0.77915 -8,-2.14052c0,-0.00078 0,-0.00156 0,-0.00234c0,-8.83656 7.16344,-16 16,-16c2.91432,0 5.6466,0.77914 8,2.14052z" stroke-width="1" stroke-linecap="butt" opacity="0.45"/><path d="M221.25,493.49766c4.78241,2.76648 8,7.93723 8,13.85948c0,5.92226 -3.21759,11.09301 -8,13.85948c-4.78241,-2.76648 -8,-7.93723 -8,-13.85948c0,-5.92226 3.21759,-11.09301 8,-13.85948z" stroke-width="1" stroke-linecap="butt" opacity="0.45"/><path d="M229.25,491.35714c8.83656,0 16,7.16344 16,16c0,0.00078 0,0.00156 0,0.00234c-2.35339,1.36136 -5.0857,2.14052 -8,2.14052c-8.83656,0 -16,-7.16344 -16,-16c0,-0.00078 0,-0.00157 0,-0.00235c2.35339,-1.36136 5.0857,-2.1405 8,-2.1405z" stroke-width="1" stroke-linecap="butt" opacity="0.45"/></g><rect x="-335" y="-522" transform="rotate(180)" width="12.5" height="57" stroke="#ffffff" stroke-width="0.5" stroke-linecap="butt" opacity="0"/><g stroke="#ffffff"><circle cx="-328.75" cy="-493.5" transform="rotate(180)" r="16" data-paper-data="{&quot;index&quot;:0}" stroke-width="0.5" stroke-linecap="round" opacity="0"/><circle cx="-312.75" cy="-493.5" transform="rotate(180)" r="16" data-paper-data="{&quot;index&quot;:1}" stroke-width="0.5" stroke-linecap="round" opacity="0"/><circle cx="-320.75" cy="-507.35714" transform="rotate(180)" r="16" data-paper-data="{&quot;index&quot;:2}" stroke-width="0.5" stroke-linecap="round" opacity="0"/><circle cx="-336.75" cy="-507.35714" transform="rotate(180)" r="16" data-paper-data="{&quot;index&quot;:3}" stroke-width="0.5" stroke-linecap="round" opacity="0"/><circle cx="-344.75" cy="-493.5" transform="rotate(180)" r="16" data-paper-data="{&quot;index&quot;:4}" stroke-width="0.5" stroke-linecap="round" opacity="0"/><path d="M312.75,493.49765c2.35339,-1.36136 5.0857,-2.1405 8,-2.1405c2.9143,0 5.64661,0.77915 8,2.14052c0,0.00078 0,0.00156 0,0.00234c0,5.92226 -3.21759,11.09301 -8,13.85948c-4.78241,-2.76648 -8,-7.93723 -8,-13.85948c0,-0.00078 0,-0.00157 0,-0.00235z" stroke-width="1" stroke-linecap="butt" opacity="0.45"/><path d="M320.75,507.35714c0,-5.92226 3.21759,-11.09301 8,-13.85948c4.78241,2.76648 8,7.93723 8,13.85948c0,0.00078 0,0.00157 0,0.00235c-2.35339,1.36136 -5.0857,2.1405 -8,2.1405c-2.9143,0 -5.64661,-0.77915 -8,-2.14052c0,-0.00078 0,-0.00156 0,-0.00234z" stroke-width="1" stroke-linecap="butt" opacity="0.45"/><path d="M336.75,507.35948c-4.78241,-2.76648 -8,-7.93723 -8,-13.85948c0,-0.00078 0,-0.00156 0,-0.00234c2.35339,-1.36136 5.0857,-2.14052 8,-2.14052c2.9143,0 5.64661,0.77915 8,2.14052c0,0.00078 0,0.00156 0,0.00234c0,5.92226 -3.21759,11.09301 -8,13.85948z" stroke-width="1" stroke-linecap="butt" opacity="0.45"/></g><path d="M336.75,495.64286c-8.83656,0 -16,-7.16344 -16,-16c0,-0.00078 0,-0.00156 0,-0.00234c2.35339,-1.36136 5.0857,-2.14052 8,-2.14052c8.83656,0 16,7.16344 16,16c0,0.00078 0,0.00157 0,0.00235c-2.35339,1.36136 -5.0857,2.1405 -8,2.1405z" stroke-width="1" stroke-linecap="butt"/><path d="M320.75,495.64286c-2.9143,0 -5.64661,-0.77915 -8,-2.14052c0,-0.00078 0,-0.00156 0,-0.00234c0,-8.83656 7.16344,-16 16,-16c2.9143,0 5.64661,0.77915 8,2.14052c0,0.00078 0,0.00156 0,0.00234c0,8.83656 -7.16344,16 -16,16z" stroke-width="1" stroke-linecap="butt"/><path d="M328.75,493.5c0,5.92226 -3.21759,11.09301 -8,13.85948c-4.78241,-2.76648 -8,-7.93723 -8,-13.85948c0,-5.92226 3.21759,-11.09301 8,-13.85948c4.78241,2.76648 8,7.93723 8,13.85948z" stroke-width="1" stroke-linecap="butt"/><rect x="-442.5" y="-522" transform="rotate(180)" width="12.5" height="57" stroke="#ffffff" stroke-width="0.5" stroke-linecap="butt" opacity="0"/><g stroke="#ffffff"><circle cx="-436.25" cy="-493.5" transform="rotate(180)" r="16" data-paper-data="{&quot;index&quot;:0}" stroke-width="0.5" stroke-linecap="round" opacity="0"/><circle cx="-420.25" cy="-493.5" transform="rotate(180)" r="16" data-paper-data="{&quot;index&quot;:1}" stroke-width="0.5" stroke-linecap="round" opacity="0"/><circle cx="-428.25" cy="-507.35714" transform="rotate(180)" r="16" data-paper-data="{&quot;index&quot;:2}" stroke-width="0.5" stroke-linecap="round" opacity="0"/><circle cx="-444.25" cy="-507.35714" transform="rotate(180)" r="16" data-paper-data="{&quot;index&quot;:3}" stroke-width="0.5" stroke-linecap="round" opacity="0"/><circle cx="-452.25" cy="-493.5" transform="rotate(180)" r="16" data-paper-data="{&quot;index&quot;:4}" stroke-width="0.5" stroke-linecap="round" opacity="0"/><path d="M436.25,493.49766c0,0.00078 0,0.00156 0,0.00234c0,5.92226 -3.21759,11.09301 -8,13.85948c0,-0.00078 0,-0.00156 0,-0.00234c0,-5.92226 3.21759,-11.09301 8,-13.85948z" stroke-width="1" stroke-linecap="butt" opacity="0.45"/><path d="M436.25,493.49766c4.78241,2.76648 8,7.93723 8,13.85948c0,0.00078 0,0.00156 0,0.00234c-4.7824,-2.76648 -8,-7.93723 -8,-13.85948c0,-0.00078 0,-0.00156 0,-0.00234z" stroke-width="1" stroke-linecap="butt" opacity="0.45"/></g><rect x="-120" y="-615" transform="rotate(180)" width="12.5" height="57" stroke="#ffffff" stroke-width="0.5" stroke-linecap="butt" opacity="0"/><g stroke="#ffffff" stroke-width="0.5" stroke-linecap="round"><circle cx="-391.76039" cy="-451.0489" transform="rotate(-150)" r="16" data-paper-data="{&quot;index&quot;:0}"/><circle cx="-375.76039" cy="-451.0489" transform="rotate(-150)" r="16" data-paper-data="{&quot;index&quot;:1}"/><circle cx="-383.76039" cy="-464.90604" transform="rotate(-150)" r="16" data-paper-data="{&quot;index&quot;:2}"/><circle cx="-399.76039" cy="-464.90604" transform="rotate(-150)" r="16" data-paper-data="{&quot;index&quot;:3}"/><circle cx="-407.76039" cy="-451.0489" transform="rotate(-150)" r="16" data-paper-data="{&quot;index&quot;:4}"/><circle cx="-399.76039" cy="-437.19176" transform="rotate(-150)" r="16" data-paper-data="{&quot;index&quot;:5}"/></g><rect x="-227.5" y="-615" transform="rotate(180)" width="12.5" height="57" stroke="#ffffff" stroke-width="0.5" stroke-linecap="butt" opacity="0"/><g stroke="#ffffff"><circle cx="-484.85812" cy="-397.2989" transform="rotate(-150)" r="16" data-paper-data="{&quot;index&quot;:0}" stroke-width="0.5" stroke-linecap="round" opacity="0"/><circle cx="-468.85812" cy="-397.2989" transform="rotate(-150)" r="16" data-paper-data="{&quot;index&quot;:1}" stroke-width="0.5" stroke-linecap="round" opacity="0"/><circle cx="-476.85812" cy="-411.15604" transform="rotate(-150)" r="16" data-paper-data="{&quot;index&quot;:2}" stroke-width="0.5" stroke-linecap="round" opacity="0"/><circle cx="-492.85812" cy="-411.15604" transform="rotate(-150)" r="16" data-paper-data="{&quot;index&quot;:3}" stroke-width="0.5" stroke-linecap="round" opacity="0"/><circle cx="-500.85812" cy="-397.2989" transform="rotate(-150)" r="16" data-paper-data="{&quot;index&quot;:4}" stroke-width="0.5" stroke-linecap="round" opacity="0"/><circle cx="-492.85812" cy="-383.44176" transform="rotate(-150)" r="16" data-paper-data="{&quot;index&quot;:5}" stroke-width="0.5" stroke-linecap="round" opacity="0"/><path d="M207.39359,578.5c2.96113,-5.12883 8.33302,-7.99803 13.85795,-8.00267c2.75845,4.78704 2.95959,10.87384 -0.00154,16.00267c-2.96113,5.12883 -8.33302,7.99803 -13.85795,8.00267c-2.75845,-4.78704 -2.95959,-10.87384 0.00154,-16.00267z" stroke-width="1" stroke-linecap="butt" opacity="0.45"/><path d="M207.39359,578.5c0.00039,-0.00068 0.00078,-0.00135 0.00117,-0.00203c2.71878,-0.00229 5.4746,0.68911 7.99846,2.14626c7.65268,4.41828 10.27468,14.20372 5.85641,21.85641c-0.00039,0.00068 -0.00078,0.00136 -0.00118,0.00204c-2.71878,0.00228 -5.4746,-0.68912 -7.99845,-2.14627c-7.65268,-4.41828 -10.27468,-14.20372 -5.85641,-21.85641z" stroke-width="1" stroke-linecap="butt" opacity="0.45"/><path d="M235.10758,594.49797c-0.00039,0.00068 -0.00078,0.00135 -0.00117,0.00203c-4.41828,7.65268 -14.20372,10.27468 -21.85641,5.85641c-2.52386,-1.45715 -4.50053,-3.49807 -5.85795,-5.85374c0.00039,-0.00068 0.00078,-0.00135 0.00117,-0.00203c4.41828,-7.65268 14.20372,-10.27468 21.85641,-5.85641c2.52387,1.45716 4.50053,3.49805 5.85795,5.85374z" stroke-width="1" stroke-linecap="butt" opacity="0.45"/><path d="M235.10795,578.49733c2.75845,4.78704 2.95959,10.87384 -0.00154,16.00267c-2.96113,5.12883 -8.33302,7.99803 -13.85795,8.00267c-2.75845,-4.78704 -2.95959,-10.87384 0.00154,-16.00267c2.96113,-5.12883 8.33302,-7.99803 13.85795,-8.00267z" stroke-width="1" stroke-linecap="butt" opacity="0.45"/><path d="M229.25,572.64359c7.65268,4.41828 10.27468,14.20372 5.85641,21.85641c-0.00039,0.00068 -0.00078,0.00135 -0.00117,0.00203c-2.71877,0.00228 -5.4746,-0.68911 -7.99846,-2.14626c-7.65268,-4.41828 -10.27468,-14.20372 -5.85641,-21.85641c0.00039,-0.00068 0.00078,-0.00136 0.00118,-0.00204c2.71878,-0.00228 5.4746,0.68912 7.99845,2.14627z" stroke-width="1" stroke-linecap="butt" opacity="0.45"/><path d="M221.25117,586.49797c-0.00039,0.00068 -0.00078,0.00135 -0.00117,0.00203c-4.41828,7.65268 -14.20372,10.27468 -21.85641,5.85641c-2.52386,-1.45715 -4.50053,-3.49807 -5.85795,-5.85374c0.00039,-0.00068 0.00078,-0.00135 0.00117,-0.00203c4.41828,-7.65268 14.20372,-10.27468 21.85641,-5.85641c2.52387,1.45716 4.50053,3.49805 5.85795,5.85374z" stroke-width="1" stroke-linecap="butt" opacity="0.45"/><path d="M221.25117,586.49797c2.75845,4.78704 2.95959,10.87384 -0.00154,16.00267c-2.96113,5.12883 -8.33302,7.99803 -13.85795,8.00267c-2.75845,-4.78704 -2.95959,-10.87384 0.00154,-16.00267c2.96113,-5.12883 8.33302,-7.99803 13.85795,-8.00267z" stroke-width="1" stroke-linecap="butt" opacity="0.45"/><path d="M229.24963,588.64423c7.65268,4.41828 10.27468,14.20372 5.85641,21.85641c-0.00039,0.00068 -0.00078,0.00135 -0.00117,0.00203c-2.71877,0.00228 -5.4746,-0.68911 -7.99846,-2.14626c-7.65268,-4.41828 -10.27468,-14.20372 -5.85641,-21.85641c0.00039,-0.00068 0.00078,-0.00136 0.00118,-0.00204c2.71878,-0.00228 5.4746,0.68912 7.99845,2.14627z" stroke-width="1" stroke-linecap="butt" opacity="0.45"/><path d="M243.10641,580.64359c2.52386,1.45715 4.50053,3.49807 5.85795,5.85374c-0.00039,0.00068 -0.00078,0.00135 -0.00117,0.00203c-4.41828,7.65268 -14.20372,10.27468 -21.85641,5.85641c-2.52386,-1.45715 -4.50053,-3.49807 -5.85795,-5.85374c0.00039,-0.00068 0.00078,-0.00135 0.00117,-0.00203c4.41828,-7.65268 14.20372,-10.27468 21.85641,-5.85641z" stroke-width="1" stroke-linecap="butt" opacity="0.45"/></g><rect x="-335" y="-615" transform="rotate(180)" width="12.5" height="57" stroke="#ffffff" stroke-width="0.5" stroke-linecap="butt" opacity="0"/><g stroke="#ffffff"><circle cx="-577.95585" cy="-343.5489" transform="rotate(-150)" r="16" data-paper-data="{&quot;index&quot;:0}" stroke-width="0.5" stroke-linecap="round" opacity="0"/><circle cx="-561.95585" cy="-343.5489" transform="rotate(-150)" r="16" data-paper-data="{&quot;index&quot;:1}" stroke-width="0.5" stroke-linecap="round" opacity="0"/><circle cx="-569.95585" cy="-357.40604" transform="rotate(-150)" r="16" data-paper-data="{&quot;index&quot;:2}" stroke-width="0.5" stroke-linecap="round" opacity="0"/><circle cx="-585.95585" cy="-357.40604" transform="rotate(-150)" r="16" data-paper-data="{&quot;index&quot;:3}" stroke-width="0.5" stroke-linecap="round" opacity="0"/><circle cx="-593.95585" cy="-343.5489" transform="rotate(-150)" r="16" data-paper-data="{&quot;index&quot;:4}" stroke-width="0.5" stroke-linecap="round" opacity="0"/><circle cx="-585.95585" cy="-329.69176" transform="rotate(-150)" r="16" data-paper-data="{&quot;index&quot;:5}" stroke-width="0.5" stroke-linecap="round" opacity="0"/><path d="M314.89477,578.49796c2.71878,-0.00228 5.4746,0.68912 7.99845,2.14627c2.52386,1.45715 4.50053,3.49807 5.85795,5.85374c-0.00039,0.00068 -0.00078,0.00135 -0.00117,0.00203c-2.96113,5.12883 -8.33302,7.99803 -13.85795,8.00267c-2.75845,-4.78704 -2.95959,-10.87384 0.00154,-16.00267c0.00039,-0.00068 0.00078,-0.00136 0.00118,-0.00204z" stroke-width="1" stroke-linecap="butt" opacity="0.45"/><path d="M314.89323,594.50064c2.96113,-5.12883 8.33302,-7.99803 13.85795,-8.00267c2.75845,4.78704 2.95959,10.87384 -0.00154,16.00267c-0.00039,0.00068 -0.00078,0.00136 -0.00118,0.00204c-2.71878,0.00228 -5.4746,-0.68912 -7.99845,-2.14627c-2.52386,-1.45715 -4.50053,-3.49807 -5.85795,-5.85374c0.00039,-0.00068 0.00078,-0.00135 0.00117,-0.00203z" stroke-width="1" stroke-linecap="butt" opacity="0.45"/><path d="M328.74846,602.50267c-2.75845,-4.78704 -2.95959,-10.87384 0.00154,-16.00267c0.00039,-0.00068 0.00078,-0.00135 0.00117,-0.00203c2.71877,-0.00228 5.47461,0.68911 7.99846,2.14626c2.52386,1.45715 4.50053,3.49807 5.85795,5.85374c-0.00039,0.00068 -0.00078,0.00135 -0.00117,0.00203c-2.96113,5.12883 -8.33302,7.99803 -13.85795,8.00267z" stroke-width="1" stroke-linecap="butt" opacity="0.45"/><path d="M334.60677,592.35577c-2.52386,-1.45715 -4.50053,-3.49807 -5.85795,-5.85374c0.00039,-0.00068 0.00078,-0.00135 0.00117,-0.00203c2.96113,-5.12883 8.33302,-7.99803 13.85795,-8.00267c2.75845,4.78704 2.95959,10.87384 -0.00154,16.00267c-0.00039,0.00068 -0.00078,0.00136 -0.00118,0.00204c-2.71878,0.00228 -5.4746,-0.68912 -7.99845,-2.14627z" stroke-width="1" stroke-linecap="butt" opacity="0.45"/></g><path d="M336.75,588.64286c-8.83656,0 -16,-7.16344 -16,-16c0,-0.00078 0,-0.00156 0,-0.00234c2.35339,-1.36136 5.0857,-2.14052 8,-2.14052c8.83656,0 16,7.16344 16,16c0,0.00078 0,0.00157 0,0.00235c-2.35339,1.36136 -5.0857,2.1405 -8,2.1405z" stroke-width="1" stroke-linecap="butt"/><path d="M320.75,588.64286c-2.9143,0 -5.64661,-0.77915 -8,-2.14052c0,-0.00078 0,-0.00156 0,-0.00234c0,-8.83656 7.16344,-16 16,-16c2.9143,0 5.64661,0.77915 8,2.14052c0,0.00078 0,0.00156 0,0.00234c0,8.83656 -7.16344,16 -16,16z" stroke-width="1" stroke-linecap="butt"/><path d="M328.75,586.5c0,5.92226 -3.21759,11.09301 -8,13.85948c-4.78241,-2.76648 -8,-7.93723 -8,-13.85948c0,-5.92226 3.21759,-11.09301 8,-13.85948c4.78241,2.76648 8,7.93723 8,13.85948z" stroke-width="1" stroke-linecap="butt"/><path d="M336.75,600.35714c0,0.00078 0,0.00156 0,0.00234c-2.35339,1.36137 -5.08569,2.14052 -8,2.14052c-8.83656,0 -16,-7.16344 -16,-16c0,-0.00078 0,-0.00157 0,-0.00235c2.35339,-1.36136 5.0857,-2.1405 8,-2.1405c8.83656,0 16,7.16344 16,16z" stroke-width="1" stroke-linecap="butt"/><rect x="-442.5" y="-615" transform="rotate(180)" width="12.5" height="57" stroke="#ffffff" stroke-width="0.5" stroke-linecap="butt" opacity="0"/><g stroke="#ffffff"><circle cx="-671.05358" cy="-289.7989" transform="rotate(-150)" r="16" data-paper-data="{&quot;index&quot;:0}" stroke-width="0.5" stroke-linecap="round" opacity="0"/><circle cx="-655.05358" cy="-289.7989" transform="rotate(-150)" r="16" data-paper-data="{&quot;index&quot;:1}" stroke-width="0.5" stroke-linecap="round" opacity="0"/><circle cx="-663.05358" cy="-303.65604" transform="rotate(-150)" r="16" data-paper-data="{&quot;index&quot;:2}" stroke-width="0.5" stroke-linecap="round" opacity="0"/><circle cx="-679.05358" cy="-303.65604" transform="rotate(-150)" r="16" data-paper-data="{&quot;index&quot;:3}" stroke-width="0.5" stroke-linecap="round" opacity="0"/><circle cx="-687.05358" cy="-289.7989" transform="rotate(-150)" r="16" data-paper-data="{&quot;index&quot;:4}" stroke-width="0.5" stroke-linecap="round" opacity="0"/><circle cx="-679.05358" cy="-275.94176" transform="rotate(-150)" r="16" data-paper-data="{&quot;index&quot;:5}" stroke-width="0.5" stroke-linecap="round" opacity="0"/><path d="M436.25117,586.49797c-0.00039,0.00068 -0.00078,0.00135 -0.00117,0.00203c-2.96113,5.12883 -8.33302,7.99803 -13.85795,8.00267c0.00039,-0.00068 0.00078,-0.00135 0.00117,-0.00203c2.96113,-5.12883 8.33302,-7.99803 13.85795,-8.00267z" stroke-width="1" stroke-linecap="butt" opacity="0.45"/><path d="M436.25154,570.49734c2.75845,4.78704 2.95959,10.87384 -0.00154,16.00266c-0.00039,0.00068 -0.00078,0.00135 -0.00117,0.00203c-2.75844,-4.78704 -2.95959,-10.87384 0.00154,-16.00267c0.00039,-0.00068 0.00078,-0.00135 0.00117,-0.00202z" stroke-width="1" stroke-linecap="butt" opacity="0.45"/><path d="M436.25117,586.49798c2.75845,4.78704 2.95959,10.87384 -0.00154,16.00266c-0.00039,0.00068 -0.00078,0.00135 -0.00117,0.00203c-2.75844,-4.78704 -2.95959,-10.87384 0.00154,-16.00267c0.00039,-0.00068 0.00078,-0.00135 0.00117,-0.00202z" stroke-width="1" stroke-linecap="butt" opacity="0.45"/><path d="M444.24963,588.64423c2.5253,1.45798 4.5028,3.50041 5.86028,5.85779c-2.72029,0.00308 -5.47783,-0.68827 -8.00314,-2.14625c-2.5253,-1.45798 -4.5028,-3.50041 -5.86028,-5.85779c2.72029,-0.00308 5.47783,0.68827 8.00314,2.14625z" stroke-width="1" stroke-linecap="butt" opacity="0.45"/></g><rect x="-120" y="-708" transform="rotate(180)" width="12.5" height="57" stroke="#ffffff" stroke-width="0.5" stroke-linecap="butt" opacity="0"/><g stroke="#ffffff" stroke-width="0.5" stroke-linecap="round"><circle cx="-645.33926" cy="-241.23961" transform="rotate(-120)" r="16" data-paper-data="{&quot;index&quot;:0}"/><circle cx="-629.33926" cy="-241.23961" transform="rotate(-120)" r="16" data-paper-data="{&quot;index&quot;:1}"/><circle cx="-637.33926" cy="-255.09675" transform="rotate(-120)" r="16" data-paper-data="{&quot;index&quot;:2}"/><circle cx="-653.33926" cy="-255.09675" transform="rotate(-120)" r="16" data-paper-data="{&quot;index&quot;:3}"/><circle cx="-661.33926" cy="-241.23961" transform="rotate(-120)" r="16" data-paper-data="{&quot;index&quot;:4}"/><circle cx="-653.33926" cy="-227.38247" transform="rotate(-120)" r="16" data-paper-data="{&quot;index&quot;:5}"/><circle cx="-637.33926" cy="-227.38247" transform="matrix(-0.5000000000000019,-0.8660254037844375,0.8660254037844375,-0.5000000000000019,0,0)" r="16" data-paper-data="{&quot;index&quot;:6}"/></g><rect x="-227.5" y="-708" transform="rotate(180)" width="12.5" height="57" stroke="#ffffff" stroke-width="0.5" stroke-linecap="butt" opacity="0"/><g stroke="#ffffff"><circle cx="-699.08926" cy="-148.14188" transform="rotate(-120)" r="16" data-paper-data="{&quot;index&quot;:0}" stroke-width="0.5" stroke-linecap="round" opacity="0"/><circle cx="-683.08926" cy="-148.14188" transform="rotate(-120)" r="16" data-paper-data="{&quot;index&quot;:1}" stroke-width="0.5" stroke-linecap="round" opacity="0"/><circle cx="-691.08926" cy="-161.99902" transform="matrix(-0.5000000000000019,-0.8660254037844375,0.8660254037844375,-0.5000000000000019,0,0)" r="16" data-paper-data="{&quot;index&quot;:2}" stroke-width="0.5" stroke-linecap="round" opacity="0"/><circle cx="-707.08926" cy="-161.99902" transform="matrix(-0.5000000000000019,-0.8660254037844375,0.8660254037844375,-0.5000000000000019,0,0)" r="16" data-paper-data="{&quot;index&quot;:3}" stroke-width="0.5" stroke-linecap="round" opacity="0"/><circle cx="-715.08926" cy="-148.14188" transform="rotate(-120)" r="16" data-paper-data="{&quot;index&quot;:4}" stroke-width="0.5" stroke-linecap="round" opacity="0"/><circle cx="-707.08926" cy="-134.28474" transform="rotate(-120)" r="16" data-paper-data="{&quot;index&quot;:5}" stroke-width="0.5" stroke-linecap="round" opacity="0"/><circle cx="-691.08926" cy="-134.28474" transform="rotate(-120)" r="16" data-paper-data="{&quot;index&quot;:6}" stroke-width="0.5" stroke-linecap="round" opacity="0"/><path d="M213.25,665.64359c5.12883,-2.96113 11.21562,-2.75999 16.00267,-0.00154c-0.00463,5.52493 -2.87384,10.89682 -8.00267,13.85795c-5.12883,2.96113 -11.21562,2.75999 -16.00267,0.00154c0.00463,-5.52493 2.87384,-10.89682 8.00267,-13.85795z" stroke-width="1" stroke-linecap="butt" opacity="0.45"/><path d="M213.25,665.64359c0.00068,-0.00039 0.00135,-0.00078 0.00203,-0.00117c2.35568,1.35741 4.39659,3.33408 5.85374,5.85795c4.41828,7.65268 1.79628,17.43813 -5.85641,21.85641c-0.00068,0.00039 -0.00136,0.00078 -0.00204,0.00118c-2.35567,-1.35741 -4.39658,-3.33409 -5.85373,-5.85795c-4.41828,-7.65268 -1.79628,-17.43813 5.85641,-21.85641z" stroke-width="1" stroke-linecap="butt" opacity="0.45"/><path d="M229.25203,693.35524c-0.00068,0.00039 -0.00135,0.00078 -0.00203,0.00117c-7.65268,4.41828 -17.43813,1.79628 -21.85641,-5.85641c-1.45715,-2.52386 -2.14854,-5.27969 -2.14626,-7.99846c0.00068,-0.00039 0.00135,-0.00078 0.00203,-0.00117c7.65268,-4.41828 17.43813,-1.79628 21.85641,5.85641c1.45716,2.52387 2.14855,5.27967 2.14626,7.99846z" stroke-width="1" stroke-linecap="butt" opacity="0.45"/><path d="M237.25267,679.49846c-0.00463,5.52493 -2.87384,10.89682 -8.00267,13.85795c-5.12883,2.96113 -11.21562,2.75999 -16.00267,0.00154c0.00463,-5.52493 2.87384,-10.89682 8.00267,-13.85795c5.12883,-2.96113 11.21562,-2.75999 16.00267,-0.00154z" stroke-width="1" stroke-linecap="butt" opacity="0.45"/><path d="M235.10641,671.5c4.41828,7.65268 1.79628,17.43813 -5.85641,21.85641c-0.00068,0.00039 -0.00135,0.00078 -0.00203,0.00117c-2.35567,-1.35741 -4.39659,-3.33409 -5.85374,-5.85795c-4.41828,-7.65268 -1.79628,-17.43813 5.85641,-21.85641c0.00068,-0.00039 0.00136,-0.00078 0.00204,-0.00118c2.35567,1.35741 4.39658,3.33409 5.85373,5.85795z" stroke-width="1" stroke-linecap="butt" opacity="0.45"/><path d="M235.10641,671.5c1.45715,2.52386 2.14854,5.27969 2.14626,7.99846c-0.00068,0.00039 -0.00135,0.00078 -0.00203,0.00117c-7.65268,4.41828 -17.43813,1.79628 -21.85641,-5.85641c-1.45715,-2.52386 -2.14854,-5.27969 -2.14626,-7.99846c0.00068,-0.00039 0.00135,-0.00078 0.00203,-0.00117c7.65268,-4.41828 17.43813,-1.79628 21.85641,5.85641z" stroke-width="1" stroke-linecap="butt" opacity="0.45"/><path d="M221.25203,679.49883c-0.00068,0.00039 -0.00135,0.00078 -0.00203,0.00117c-7.65268,4.41828 -17.43813,1.79628 -21.85641,-5.85641c-1.45715,-2.52386 -2.14854,-5.27969 -2.14626,-7.99846c0.00068,-0.00039 0.00135,-0.00078 0.00203,-0.00117c7.65268,-4.41828 17.43813,-1.79628 21.85641,5.85641c1.45716,2.52387 2.14855,5.27967 2.14626,7.99846z" stroke-width="1" stroke-linecap="butt" opacity="0.45"/><path d="M227.10641,657.64359c4.41828,7.65268 1.79628,17.43813 -5.85641,21.85641c-0.00068,0.00039 -0.00135,0.00078 -0.00203,0.00117c-2.35567,-1.35741 -4.39659,-3.33409 -5.85374,-5.85795c-4.41828,-7.65268 -1.79628,-17.43813 5.85641,-21.85641c0.00068,-0.00039 0.00136,-0.00078 0.00204,-0.00118c2.35567,1.35741 4.39658,3.33409 5.85373,5.85795z" stroke-width="1" stroke-linecap="butt" opacity="0.45"/><path d="M221.25203,679.49883c-0.00463,5.52493 -2.87384,10.89682 -8.00267,13.85795c-5.12883,2.96113 -11.21562,2.75999 -16.00267,0.00154c0.00463,-5.52493 2.87384,-10.89682 8.00267,-13.85795c5.12883,-2.96113 11.21562,-2.75999 16.00267,-0.00154z" stroke-width="1" stroke-linecap="butt" opacity="0.45"/><path d="M227.10577,685.35677c4.41828,7.65268 1.79628,17.43813 -5.85641,21.85641c-0.00068,0.00039 -0.00135,0.00078 -0.00203,0.00117c-2.35567,-1.35741 -4.39659,-3.33409 -5.85374,-5.85795c-4.41828,-7.65268 -1.79628,-17.43813 5.85641,-21.85641c0.00068,-0.00039 0.00136,-0.00078 0.00204,-0.00118c2.35567,1.35741 4.39658,3.33409 5.85373,5.85795z" stroke-width="1" stroke-linecap="butt" opacity="0.45"/><path d="M243.10641,685.35641c1.45715,2.52386 2.14854,5.27969 2.14626,7.99846c-0.00068,0.00039 -0.00135,0.00078 -0.00203,0.00117c-7.65268,4.41828 -17.43813,1.79628 -21.85641,-5.85641c-1.45715,-2.52386 -2.14854,-5.27969 -2.14626,-7.99846c0.00068,-0.00039 0.00135,-0.00078 0.00203,-0.00117c7.65268,-4.41828 17.43813,-1.79628 21.85641,5.85641z" stroke-width="1" stroke-linecap="butt" opacity="0.45"/><path d="M229.25064,665.64323c5.12883,-2.96113 11.21562,-2.75999 16.00267,-0.00154c-0.00463,5.52493 -2.87384,10.89682 -8.00267,13.85795c-5.12883,2.96113 -11.21562,2.75999 -16.00267,0.00154c0.00463,-5.52493 2.87384,-10.89682 8.00267,-13.85795z" stroke-width="1" stroke-linecap="butt" opacity="0.45"/></g><rect x="-335" y="-708" transform="rotate(180)" width="12.5" height="57" stroke="#ffffff" stroke-width="0.5" stroke-linecap="butt" opacity="0"/><g stroke="#ffffff"><circle cx="-752.83926" cy="-55.04415" transform="rotate(-120)" r="16" data-paper-data="{&quot;index&quot;:0}" stroke-width="0.5" stroke-linecap="round" opacity="0"/><circle cx="-736.83926" cy="-55.04415" transform="rotate(-120)" r="16" data-paper-data="{&quot;index&quot;:1}" stroke-width="0.5" stroke-linecap="round" opacity="0"/><circle cx="-744.83926" cy="-68.90129" transform="matrix(-0.5000000000000019,-0.8660254037844375,0.8660254037844375,-0.5000000000000019,0,0)" r="16" data-paper-data="{&quot;index&quot;:2}" stroke-width="0.5" stroke-linecap="round" opacity="0"/><circle cx="-760.83926" cy="-68.90129" transform="matrix(-0.5000000000000019,-0.8660254037844375,0.8660254037844375,-0.5000000000000019,0,0)" r="16" data-paper-data="{&quot;index&quot;:3}" stroke-width="0.5" stroke-linecap="round" opacity="0"/><circle cx="-768.83926" cy="-55.04415" transform="rotate(-120)" r="16" data-paper-data="{&quot;index&quot;:4}" stroke-width="0.5" stroke-linecap="round" opacity="0"/><circle cx="-760.83926" cy="-41.18701" transform="rotate(-120)" r="16" data-paper-data="{&quot;index&quot;:5}" stroke-width="0.5" stroke-linecap="round" opacity="0"/><circle cx="-744.83926" cy="-41.18701" transform="rotate(-120)" r="16" data-paper-data="{&quot;index&quot;:6}" stroke-width="0.5" stroke-linecap="round" opacity="0"/><path d="M320.75204,665.64242c2.35567,1.35741 4.39658,3.33409 5.85373,5.85795c1.45715,2.52386 2.14854,5.27969 2.14626,7.99846c-0.00068,0.00039 -0.00135,0.00078 -0.00203,0.00117c-5.12883,2.96113 -11.21562,2.75999 -16.00267,0.00154c0.00463,-5.52493 2.87384,-10.89682 8.00267,-13.85795c0.00068,-0.00039 0.00136,-0.00078 0.00204,-0.00118z" stroke-width="1" stroke-linecap="butt" opacity="0.45"/><path d="M320.75,665.64359c5.12883,-2.96113 11.21562,-2.75999 16.00267,-0.00154c-0.00463,5.52493 -2.87384,10.89682 -8.00267,13.85795c-0.00068,0.00039 -0.00136,0.00078 -0.00204,0.00118c-2.35567,-1.35741 -4.39658,-3.33409 -5.85373,-5.85795c-1.45715,-2.52386 -2.14854,-5.27969 -2.14626,-7.99846c0.00068,-0.00039 0.00135,-0.00078 0.00203,-0.00117z" stroke-width="1" stroke-linecap="butt" opacity="0.45"/><path d="M312.74936,679.50037c5.12883,-2.96113 11.21562,-2.75999 16.00267,-0.00154c-0.00463,5.52493 -2.87384,10.89682 -8.00267,13.85795c-0.00068,0.00039 -0.00136,0.00078 -0.00204,0.00118c-2.35567,-1.35741 -4.39658,-3.33409 -5.85373,-5.85795c-1.45715,-2.52386 -2.14854,-5.27969 -2.14626,-7.99846c0.00068,-0.00039 0.00135,-0.00078 0.00203,-0.00117z" stroke-width="1" stroke-linecap="butt" opacity="0.45"/><path d="M320.74733,693.35795c0.00463,-5.52493 2.87384,-10.89682 8.00267,-13.85795c0.00068,-0.00039 0.00135,-0.00078 0.00203,-0.00117c2.35567,1.35741 4.39659,3.33409 5.85374,5.85795c1.45715,2.52386 2.14854,5.27969 2.14626,7.99846c-0.00068,0.00039 -0.00135,0.00078 -0.00203,0.00117c-5.12883,2.96113 -11.21562,2.75999 -16.00267,0.00154z" stroke-width="1" stroke-linecap="butt" opacity="0.45"/><path d="M330.89423,687.49963c-1.45715,-2.52386 -2.14854,-5.27969 -2.14626,-7.99846c0.00068,-0.00039 0.00135,-0.00078 0.00203,-0.00117c5.12883,-2.96113 11.21562,-2.75999 16.00267,-0.00154c-0.00463,5.52493 -2.87384,10.89682 -8.00267,13.85795c-0.00068,0.00039 -0.00136,0.00078 -0.00204,0.00118c-2.35567,-1.35741 -4.39658,-3.33409 -5.85373,-5.85795z" stroke-width="1" stroke-linecap="butt" opacity="0.45"/><path d="M342.60641,671.5c1.45716,2.52387 2.14855,5.27967 2.14626,7.99846c-0.00068,0.00039 -0.00135,0.00078 -0.00203,0.00117c-5.12883,2.96113 -11.21562,2.75999 -16.00267,0.00154c0.00463,-5.52493 2.87384,-10.89682 8.00267,-13.85795c0.00068,-0.00039 0.00136,-0.00078 0.00204,-0.00118c2.35567,1.35741 4.39658,3.33409 5.85373,5.85795z" stroke-width="1" stroke-linecap="butt" opacity="0.45"/></g><path d="M336.75,681.64286c-8.83656,0 -16,-7.16344 -16,-16c0,-0.00078 0,-0.00156 0,-0.00234c2.35339,-1.36136 5.0857,-2.14052 8,-2.14052c8.83656,0 16,7.16344 16,16c0,0.00078 0,0.00157 0,0.00235c-2.35339,1.36136 -5.0857,2.1405 -8,2.1405z" stroke-width="1" stroke-linecap="butt"/><path d="M320.75,693.35948c0,-0.00078 0,-0.00156 0,-0.00234c0,-8.83656 7.16344,-16 16,-16c2.9143,0 5.64661,0.77915 8,2.14052c0,0.00078 0,0.00156 0,0.00234c0,8.83656 -7.16344,16 -16,16c-2.91432,0 -5.6466,-0.77914 -8,-2.14052z" stroke-width="1" stroke-linecap="butt"/><path d="M320.75,681.64286c-2.9143,0 -5.64661,-0.77915 -8,-2.14052c0,-0.00078 0,-0.00156 0,-0.00234c0,-8.83656 7.16344,-16 16,-16c2.9143,0 5.64661,0.77915 8,2.14052c0,0.00078 0,0.00156 0,0.00234c0,8.83656 -7.16344,16 -16,16z" stroke-width="1" stroke-linecap="butt"/><path d="M328.75,679.5c0,5.92226 -3.21759,11.09301 -8,13.85948c-4.78241,-2.76648 -8,-7.93723 -8,-13.85948c0,-5.92226 3.21759,-11.09301 8,-13.85948c4.78241,2.76648 8,7.93723 8,13.85948z" stroke-width="1" stroke-linecap="butt"/><path d="M336.75,693.35714c0,0.00078 0,0.00156 0,0.00234c-2.35339,1.36137 -5.08569,2.14052 -8,2.14052c-8.83656,0 -16,-7.16344 -16,-16c0,-0.00078 0,-0.00157 0,-0.00235c2.35339,-1.36136 5.0857,-2.1405 8,-2.1405c8.83656,0 16,7.16344 16,16z" stroke-width="1" stroke-linecap="butt"/><path d="M320.75,693.35948c0,-0.00078 0,-0.00156 0,-0.00234c0,-8.83656 7.16344,-16 16,-16c2.9143,0 5.64661,0.77915 8,2.14052c0,0.00078 0,0.00156 0,0.00234c0,8.83656 -7.16344,16 -16,16c-2.91432,0 -5.6466,-0.77914 -8,-2.14052z" stroke-width="1" stroke-linecap="butt"/><rect x="-442.5" y="-708" transform="rotate(180)" width="12.5" height="57" stroke="#ffffff" stroke-width="0.5" stroke-linecap="butt" opacity="0"/><g stroke="#ffffff"><circle cx="-806.58926" cy="38.05358" transform="rotate(-120)" r="16" data-paper-data="{&quot;index&quot;:0}" stroke-width="0.5" stroke-linecap="round" opacity="0"/><circle cx="-790.58926" cy="38.05358" transform="rotate(-120)" r="16" data-paper-data="{&quot;index&quot;:1}" stroke-width="0.5" stroke-linecap="round" opacity="0"/><circle cx="-798.58926" cy="24.19644" transform="matrix(-0.5000000000000019,-0.8660254037844375,0.8660254037844375,-0.5000000000000019,0,0)" r="16" data-paper-data="{&quot;index&quot;:2}" stroke-width="0.5" stroke-linecap="round" opacity="0"/><circle cx="-814.58926" cy="24.19644" transform="matrix(-0.5000000000000019,-0.8660254037844375,0.8660254037844375,-0.5000000000000019,0,0)" r="16" data-paper-data="{&quot;index&quot;:3}" stroke-width="0.5" stroke-linecap="round" opacity="0"/><circle cx="-822.58926" cy="38.05358" transform="rotate(-120)" r="16" data-paper-data="{&quot;index&quot;:4}" stroke-width="0.5" stroke-linecap="round" opacity="0"/><circle cx="-814.58926" cy="51.91073" transform="rotate(-120)" r="16" data-paper-data="{&quot;index&quot;:5}" stroke-width="0.5" stroke-linecap="round" opacity="0"/><circle cx="-798.58926" cy="51.91073" transform="rotate(-120)" r="16" data-paper-data="{&quot;index&quot;:6}" stroke-width="0.5" stroke-linecap="round" opacity="0"/><path d="M436.25203,679.49883c-0.00068,0.00039 -0.00135,0.00078 -0.00203,0.00117c-5.12883,2.96113 -11.21562,2.75999 -16.00267,0.00154c0.00068,-0.00039 0.00135,-0.00078 0.00203,-0.00117c5.12883,-2.96113 11.21562,-2.75999 16.00267,-0.00154z" stroke-width="1" stroke-linecap="butt" opacity="0.45"/><path d="M444.25267,665.64206c-0.00463,5.52493 -2.87384,10.89681 -8.00267,13.85794c-0.00068,0.00039 -0.00135,0.00078 -0.00203,0.00117c0.00464,-5.52492 2.87384,-10.89682 8.00267,-13.85795c0.00068,-0.00039 0.00135,-0.00078 0.00203,-0.00117z" stroke-width="1" stroke-linecap="butt" opacity="0.45"/><path d="M436.25203,679.49883c-0.00463,5.52493 -2.87384,10.89681 -8.00267,13.85794c-0.00068,0.00039 -0.00135,0.00078 -0.00203,0.00117c0.00464,-5.52492 2.87384,-10.89682 8.00267,-13.85795c0.00068,-0.00039 0.00135,-0.00078 0.00203,-0.00117z" stroke-width="1" stroke-linecap="butt" opacity="0.45"/><path d="M434.10577,671.50037c1.45798,2.5253 2.14933,5.28285 2.14625,8.00314c-2.35738,-1.35748 -4.39981,-3.33498 -5.85779,-5.86028c-1.45798,-2.5253 -2.14933,-5.28285 -2.14625,-8.00314c2.35738,1.35748 4.39981,3.33498 5.85779,5.86028z" stroke-width="1" stroke-linecap="butt" opacity="0.45"/><path d="M442.10577,685.35677c1.45798,2.5253 2.14933,5.28285 2.14625,8.00314c-2.35738,-1.35748 -4.39981,-3.33498 -5.85779,-5.86028c-1.45798,-2.5253 -2.14933,-5.28285 -2.14625,-8.00314c2.35738,1.35748 4.39981,3.33498 5.85779,5.86028z" stroke-width="1" stroke-linecap="butt" opacity="0.45"/><path d="M436.25,679.5c5.12883,-2.96113 11.21562,-2.75999 16.00267,-0.00154c-0.00068,0.00039 -0.00135,0.00078 -0.00203,0.00117c-5.12883,2.96113 -11.21562,2.75999 -16.00267,0.00154c0.00068,-0.00039 0.00135,-0.00078 0.00203,-0.00117z" stroke-width="1" stroke-linecap="butt" opacity="0.45"/></g><rect x="565" y="20" width="520" height="761" fill="#111111" stroke-width="1" stroke-linecap="butt"/><g stroke-width="1" stroke-linecap="butt"/><rect x="-670" y="-150" transform="rotate(180)" width="12.5" height="57" stroke="#ffffff" stroke-width="0.5" stroke-linecap="butt" opacity="0"/><g stroke="#ffffff" stroke-width="0.5" stroke-linecap="round"><circle cx="663.75" cy="121.5" r="16" data-paper-data="{&quot;index&quot;:0}" opacity="0"/></g><rect x="-777.5" y="-150" transform="rotate(180)" width="12.5" height="57" stroke="#ffffff" stroke-width="0.5" stroke-linecap="butt" opacity="0"/><g stroke="#ffffff" stroke-width="0.5" stroke-linecap="round"><circle cx="771.25" cy="121.5" r="16" data-paper-data="{&quot;index&quot;:0}" opacity="0"/></g><rect x="-885" y="-150" transform="rotate(180)" width="12.5" height="57" stroke="#ffffff" stroke-width="0.5" stroke-linecap="butt" opacity="0"/><g stroke="#ffffff" stroke-width="0.5" stroke-linecap="round"><circle cx="878.75" cy="121.5" r="16" data-paper-data="{&quot;index&quot;:0}" opacity="0"/></g><rect x="-992.5" y="-150" transform="rotate(180)" width="12.5" height="57" stroke="#ffffff" stroke-width="0.5" stroke-linecap="butt" opacity="0"/><g stroke="#ffffff" stroke-width="0.5" stroke-linecap="round"><circle cx="986.25" cy="121.5" r="16" data-paper-data="{&quot;index&quot;:0}"/></g><rect x="-670" y="-243" transform="rotate(180)" width="12.5" height="57" stroke="#ffffff" stroke-width="0.5" stroke-linecap="butt" opacity="0"/><g stroke="#ffffff" stroke-width="0.5" stroke-linecap="round"><circle cx="214.5" cy="-663.75" transform="rotate(90)" r="16" data-paper-data="{&quot;index&quot;:0}" opacity="0"/><circle cx="230.5" cy="-663.75" transform="rotate(90)" r="16" data-paper-data="{&quot;index&quot;:1}" opacity="0"/></g><rect x="-777.5" y="-243" transform="rotate(180)" width="12.5" height="57" stroke="#ffffff" stroke-width="0.5" stroke-linecap="butt" opacity="0"/><g stroke="#ffffff" stroke-width="0.5" stroke-linecap="round"><circle cx="214.5" cy="-771.25" transform="rotate(90)" r="16" data-paper-data="{&quot;index&quot;:0}" opacity="0"/><circle cx="230.5" cy="-771.25" transform="rotate(90)" r="16" data-paper-data="{&quot;index&quot;:1}" opacity="0"/></g><rect x="-885" y="-243" transform="rotate(180)" width="12.5" height="57" stroke="#ffffff" stroke-width="0.5" stroke-linecap="butt" opacity="0"/><g stroke="#ffffff" stroke-width="0.5" stroke-linecap="round"><circle cx="214.5" cy="-878.75" transform="rotate(90)" r="16" data-paper-data="{&quot;index&quot;:0}" opacity="0"/><circle cx="230.5" cy="-878.75" transform="rotate(90)" r="16" data-paper-data="{&quot;index&quot;:1}" opacity="0"/><circle cx="222.5" cy="-878.75" transform="rotate(90)" r="8"/><circle cx="222.5" cy="-878.75" transform="rotate(90)" r="13.85714"/></g><rect x="-992.5" y="-243" transform="rotate(180)" width="12.5" height="57" stroke="#ffffff" stroke-width="0.5" stroke-linecap="butt" opacity="0"/><g stroke="#ffffff" stroke-width="0.5" stroke-linecap="round"><circle cx="214.5" cy="-986.25" transform="rotate(90)" r="16" data-paper-data="{&quot;index&quot;:0}"/><circle cx="230.5" cy="-986.25" transform="rotate(90)" r="16" data-paper-data="{&quot;index&quot;:1}"/></g><rect x="-670" y="-336" transform="rotate(180)" width="12.5" height="57" stroke="#ffffff" stroke-width="0.5" stroke-linecap="butt" opacity="0"/><g stroke="#ffffff" stroke-width="0.5" stroke-linecap="round"><circle cx="-65.57219" cy="-728.57436" transform="rotate(120)" r="16" data-paper-data="{&quot;index&quot;:0}" opacity="0"/><circle cx="-49.57219" cy="-728.57436" transform="rotate(120)" r="16" data-paper-data="{&quot;index&quot;:1}" opacity="0"/><circle cx="-57.57219" cy="-742.4315" transform="rotate(120)" r="16" data-paper-data="{&quot;index&quot;:2}" opacity="0"/></g><rect x="-777.5" y="-336" transform="rotate(180)" width="12.5" height="57" stroke="#ffffff" stroke-width="0.5" stroke-linecap="butt" opacity="0"/><g stroke="#ffffff" stroke-width="0.5" stroke-linecap="round"><circle cx="-119.32219" cy="-821.67209" transform="rotate(120)" r="16" data-paper-data="{&quot;index&quot;:0}" opacity="0"/><circle cx="-103.32219" cy="-821.67209" transform="rotate(120)" r="16" data-paper-data="{&quot;index&quot;:1}" opacity="0"/><circle cx="-111.32219" cy="-835.52924" transform="rotate(120)" r="16" data-paper-data="{&quot;index&quot;:2}" opacity="0"/><circle cx="-111.32219" cy="-826.29114" transform="rotate(120)" r="6.7619"/><circle cx="-111.32219" cy="-826.29114" transform="rotate(120)" r="9.2381"/></g><rect x="-885" y="-336" transform="rotate(180)" width="12.5" height="57" stroke="#ffffff" stroke-width="0.5" stroke-linecap="butt" opacity="0"/><g stroke="#ffffff" stroke-width="0.5" stroke-linecap="round"><circle cx="-173.07219" cy="-914.76982" transform="rotate(120)" r="16" data-paper-data="{&quot;index&quot;:0}" opacity="0"/><circle cx="-157.07219" cy="-914.76982" transform="rotate(120)" r="16" data-paper-data="{&quot;index&quot;:1}" opacity="0"/><circle cx="-165.07219" cy="-928.62697" transform="rotate(120)" r="16" data-paper-data="{&quot;index&quot;:2}" opacity="0"/><circle cx="-165.07219" cy="-914.76982" transform="rotate(120)" r="8"/><circle cx="-169.07219" cy="-921.6984" transform="matrix(-0.5000000000000071,0.8660254037844345,-0.8660254037844345,-0.5000000000000071,0,0)" r="8"/><circle cx="-161.07219" cy="-921.6984" transform="matrix(-0.5000000000000071,0.8660254037844345,-0.8660254037844345,-0.5000000000000071,0,0)" r="8"/><circle cx="-165.07219" cy="-914.76982" transform="rotate(120)" r="13.85714"/><circle cx="-169.07219" cy="-921.6984" transform="matrix(-0.5000000000000048,0.8660254037844358,-0.8660254037844358,-0.5000000000000048,0,0)" r="13.85714"/><circle cx="-161.07219" cy="-921.6984" transform="matrix(-0.5000000000000048,0.8660254037844358,-0.8660254037844358,-0.5000000000000048,0,0)" r="13.85714"/></g><rect x="-992.5" y="-336" transform="rotate(180)" width="12.5" height="57" stroke="#ffffff" stroke-width="0.5" stroke-linecap="butt" opacity="0"/><g stroke="#ffffff" stroke-width="0.5" stroke-linecap="round"><circle cx="-226.82219" cy="-1007.86755" transform="rotate(120)" r="16" data-paper-data="{&quot;index&quot;:0}"/><circle cx="-210.82219" cy="-1007.86755" transform="rotate(120)" r="16" data-paper-data="{&quot;index&quot;:1}"/><circle cx="-218.82219" cy="-1021.7247" transform="rotate(120)" r="16" data-paper-data="{&quot;index&quot;:2}"/></g><rect x="-670" y="-429" transform="rotate(180)" width="12.5" height="57" stroke="#ffffff" stroke-width="0.5" stroke-linecap="butt" opacity="0"/><g stroke="#ffffff" stroke-width="0.5" stroke-linecap="round"><circle cx="-374.57436" cy="-678.71817" transform="rotate(150)" r="16" data-paper-data="{&quot;index&quot;:0}" opacity="0"/><circle cx="-358.57436" cy="-678.71817" transform="rotate(150)" r="16" data-paper-data="{&quot;index&quot;:1}" opacity="0"/><circle cx="-366.57436" cy="-692.57532" transform="rotate(150)" r="16" data-paper-data="{&quot;index&quot;:2}" opacity="0"/><circle cx="-382.57436" cy="-692.57532" transform="rotate(150)" r="16" data-paper-data="{&quot;index&quot;:3}" opacity="0"/><circle cx="-370.57436" cy="-685.64675" transform="rotate(150)" r="2.14286"/><circle cx="-370.57436" cy="-685.64675" transform="rotate(150)" r="8"/></g><rect x="-777.5" y="-429" transform="rotate(180)" width="12.5" height="57" stroke="#ffffff" stroke-width="0.5" stroke-linecap="butt" opacity="0"/><g stroke="#ffffff" stroke-width="0.5" stroke-linecap="round"><circle cx="-467.67209" cy="-732.46817" transform="rotate(150)" r="16" data-paper-data="{&quot;index&quot;:0}" opacity="0"/><circle cx="-451.67209" cy="-732.46817" transform="rotate(150)" r="16" data-paper-data="{&quot;index&quot;:1}" opacity="0"/><circle cx="-459.67209" cy="-746.32532" transform="rotate(150)" r="16" data-paper-data="{&quot;index&quot;:2}" opacity="0"/><circle cx="-475.67209" cy="-746.32532" transform="rotate(150)" r="16" data-paper-data="{&quot;index&quot;:3}" opacity="0"/><circle cx="-459.67209" cy="-737.08722" transform="rotate(150)" r="6.7619"/><circle cx="-467.67209" cy="-741.70627" transform="rotate(150)" r="6.7619"/><circle cx="-459.67209" cy="-737.08722" transform="rotate(150)" r="9.2381"/><circle cx="-467.67209" cy="-741.70627" transform="rotate(150)" r="9.2381"/></g><rect x="-885" y="-429" transform="rotate(180)" width="12.5" height="57" stroke="#ffffff" stroke-width="0.5" stroke-linecap="butt" opacity="0"/><g stroke="#ffffff" stroke-width="0.5" stroke-linecap="round"><circle cx="-560.76982" cy="-786.21817" transform="rotate(150)" r="16" data-paper-data="{&quot;index&quot;:0}" opacity="0"/><circle cx="-544.76982" cy="-786.21817" transform="rotate(150)" r="16" data-paper-data="{&quot;index&quot;:1}" opacity="0"/><circle cx="-552.76982" cy="-800.07532" transform="rotate(150)" r="16" data-paper-data="{&quot;index&quot;:2}" opacity="0"/><circle cx="-568.76982" cy="-800.07532" transform="rotate(150)" r="16" data-paper-data="{&quot;index&quot;:3}" opacity="0"/><circle cx="-552.76982" cy="-786.21817" transform="rotate(150)" r="8"/><circle cx="-556.76982" cy="-793.14675" transform="rotate(150)" r="8"/><circle cx="-564.76982" cy="-793.14675" transform="rotate(150)" r="8"/><circle cx="-548.76982" cy="-793.14675" transform="rotate(150)" r="8"/><circle cx="-560.76982" cy="-800.07532" transform="rotate(150)" r="8"/><circle cx="-552.76982" cy="-786.21817" transform="rotate(150)" r="13.85714"/><circle cx="-556.76982" cy="-793.14675" transform="rotate(150)" r="13.85714"/><circle cx="-564.76982" cy="-793.14675" transform="rotate(150)" r="13.85714"/><circle cx="-548.76982" cy="-793.14675" transform="rotate(150)" r="13.85714"/><circle cx="-560.76982" cy="-800.07532" transform="rotate(150)" r="13.85714"/></g><rect x="-992.5" y="-429" transform="rotate(180)" width="12.5" height="57" stroke="#ffffff" stroke-width="0.5" stroke-linecap="butt" opacity="0"/><g stroke="#ffffff" stroke-width="0.5" stroke-linecap="round"><circle cx="-653.86755" cy="-839.96817" transform="rotate(150)" r="16" data-paper-data="{&quot;index&quot;:0}"/><circle cx="-637.86755" cy="-839.96817" transform="rotate(150)" r="16" data-paper-data="{&quot;index&quot;:1}"/><circle cx="-645.86755" cy="-853.82532" transform="rotate(150)" r="16" data-paper-data="{&quot;index&quot;:2}"/><circle cx="-661.86755" cy="-853.82532" transform="rotate(150)" r="16" data-paper-data="{&quot;index&quot;:3}"/></g><rect x="-670" y="-522" transform="rotate(180)" width="12.5" height="57" stroke="#ffffff" stroke-width="0.5" stroke-linecap="butt" opacity="0"/><g stroke="#ffffff" stroke-width="0.5" stroke-linecap="round"><circle cx="-663.75" cy="-493.5" transform="rotate(180)" r="16" data-paper-data="{&quot;index&quot;:0}" opacity="0"/><circle cx="-647.75" cy="-493.5" transform="rotate(180)" r="16" data-paper-data="{&quot;index&quot;:1}" opacity="0"/><circle cx="-655.75" cy="-507.35714" transform="rotate(180)" r="16" data-paper-data="{&quot;index&quot;:2}" opacity="0"/><circle cx="-671.75" cy="-507.35714" transform="rotate(180)" r="16" data-paper-data="{&quot;index&quot;:3}" opacity="0"/><circle cx="-679.75" cy="-493.5" transform="rotate(180)" r="16" data-paper-data="{&quot;index&quot;:4}" opacity="0"/><circle cx="-659.75" cy="-500.42857" transform="rotate(180)" r="2.14286"/><circle cx="-667.75" cy="-500.42857" transform="rotate(180)" r="2.14286"/><circle cx="-659.75" cy="-500.42857" transform="rotate(180)" r="8"/><circle cx="-667.75" cy="-500.42857" transform="rotate(180)" r="8"/></g><rect x="-777.5" y="-522" transform="rotate(180)" width="12.5" height="57" stroke="#ffffff" stroke-width="0.5" stroke-linecap="butt" opacity="0"/><g stroke="#ffffff" stroke-width="0.5" stroke-linecap="round"><circle cx="-771.25" cy="-493.5" transform="rotate(180)" r="16" data-paper-data="{&quot;index&quot;:0}" opacity="0"/><circle cx="-755.25" cy="-493.5" transform="rotate(180)" r="16" data-paper-data="{&quot;index&quot;:1}" opacity="0"/><circle cx="-763.25" cy="-507.35714" transform="rotate(180)" r="16" data-paper-data="{&quot;index&quot;:2}" opacity="0"/><circle cx="-779.25" cy="-507.35714" transform="rotate(180)" r="16" data-paper-data="{&quot;index&quot;:3}" opacity="0"/><circle cx="-787.25" cy="-493.5" transform="rotate(180)" r="16" data-paper-data="{&quot;index&quot;:4}" opacity="0"/><circle cx="-763.25" cy="-498.11905" transform="rotate(180)" r="6.7619"/><circle cx="-771.25" cy="-502.7381" transform="rotate(180)" r="6.7619"/><circle cx="-779.25" cy="-498.11905" transform="rotate(180)" r="6.7619"/><circle cx="-763.25" cy="-498.11905" transform="rotate(180)" r="9.2381"/><circle cx="-771.25" cy="-502.7381" transform="rotate(180)" r="9.2381"/><circle cx="-779.25" cy="-498.11905" transform="rotate(180)" r="9.2381"/></g><rect x="-885" y="-522" transform="rotate(180)" width="12.5" height="57" stroke="#ffffff" stroke-width="0.5" stroke-linecap="butt" opacity="0"/><g stroke="#ffffff" stroke-width="0.5" stroke-linecap="round"><circle cx="-878.75" cy="-493.5" transform="rotate(180)" r="16" data-paper-data="{&quot;index&quot;:0}" opacity="0"/><circle cx="-862.75" cy="-493.5" transform="rotate(180)" r="16" data-paper-data="{&quot;index&quot;:1}" opacity="0"/><circle cx="-870.75" cy="-507.35714" transform="rotate(180)" r="16" data-paper-data="{&quot;index&quot;:2}" opacity="0"/><circle cx="-886.75" cy="-507.35714" transform="rotate(180)" r="16" data-paper-data="{&quot;index&quot;:3}" opacity="0"/><circle cx="-894.75" cy="-493.5" transform="rotate(180)" r="16" data-paper-data="{&quot;index&quot;:4}" opacity="0"/><circle cx="-870.75" cy="-493.5" transform="rotate(180)" r="8"/><circle cx="-874.75" cy="-500.42857" transform="rotate(180)" r="8"/><circle cx="-882.75" cy="-500.42857" transform="rotate(180)" r="8"/><circle cx="-886.75" cy="-493.5" transform="rotate(180)" r="8"/><circle cx="-866.75" cy="-500.42857" transform="rotate(180)" r="8"/><circle cx="-878.75" cy="-507.35714" transform="rotate(180)" r="8"/><circle cx="-890.75" cy="-500.42857" transform="rotate(180)" r="8"/><circle cx="-870.75" cy="-493.5" transform="rotate(180)" r="13.85714"/><circle cx="-874.75" cy="-500.42857" transform="rotate(180)" r="13.85714"/><circle cx="-882.75" cy="-500.42857" transform="rotate(180)" r="13.85714"/><circle cx="-886.75" cy="-493.5" transform="rotate(180)" r="13.85714"/><circle cx="-866.75" cy="-500.42857" transform="rotate(180)" r="13.85714"/><circle cx="-878.75" cy="-507.35714" transform="rotate(180)" r="13.85714"/><circle cx="-890.75" cy="-500.42857" transform="rotate(180)" r="13.85714"/></g><rect x="-992.5" y="-522" transform="rotate(180)" width="12.5" height="57" stroke="#ffffff" stroke-width="0.5" stroke-linecap="butt" opacity="0"/><g stroke="#ffffff" stroke-width="0.5" stroke-linecap="round"><circle cx="-986.25" cy="-493.5" transform="rotate(180)" r="16" data-paper-data="{&quot;index&quot;:0}"/><circle cx="-970.25" cy="-493.5" transform="rotate(180)" r="16" data-paper-data="{&quot;index&quot;:1}"/><circle cx="-978.25" cy="-507.35714" transform="rotate(180)" r="16" data-paper-data="{&quot;index&quot;:2}"/><circle cx="-994.25" cy="-507.35714" transform="rotate(180)" r="16" data-paper-data="{&quot;index&quot;:3}"/><circle cx="-1002.25" cy="-493.5" transform="rotate(180)" r="16" data-paper-data="{&quot;index&quot;:4}"/></g><rect x="-670" y="-615" transform="rotate(180)" width="12.5" height="57" stroke="#ffffff" stroke-width="0.5" stroke-linecap="butt" opacity="0"/><g stroke="#ffffff" stroke-width="0.5" stroke-linecap="round"><circle cx="-868.07436" cy="-176.0489" transform="rotate(-150)" r="16" data-paper-data="{&quot;index&quot;:0}" opacity="0"/><circle cx="-852.07436" cy="-176.0489" transform="rotate(-150)" r="16" data-paper-data="{&quot;index&quot;:1}" opacity="0"/><circle cx="-860.07436" cy="-189.90604" transform="rotate(-150)" r="16" data-paper-data="{&quot;index&quot;:2}" opacity="0"/><circle cx="-876.07436" cy="-189.90604" transform="rotate(-150)" r="16" data-paper-data="{&quot;index&quot;:3}" opacity="0"/><circle cx="-884.07436" cy="-176.0489" transform="rotate(-150)" r="16" data-paper-data="{&quot;index&quot;:4}" opacity="0"/><circle cx="-876.07436" cy="-162.19176" transform="rotate(-150)" r="16" data-paper-data="{&quot;index&quot;:5}" opacity="0"/><circle cx="-864.07436" cy="-182.97747" transform="rotate(-150)" r="2.14286"/><circle cx="-864.07436" cy="-169.12033" transform="rotate(-150)" r="2.14286"/><circle cx="-872.07436" cy="-182.97747" transform="rotate(-150)" r="2.14286"/><circle cx="-876.07436" cy="-176.0489" transform="rotate(-150)" r="2.14286"/><circle cx="-864.07436" cy="-182.97747" transform="rotate(-150)" r="8"/><circle cx="-864.07436" cy="-169.12033" transform="rotate(-150)" r="8"/><circle cx="-872.07436" cy="-182.97747" transform="rotate(-150)" r="8"/><circle cx="-876.07436" cy="-176.0489" transform="rotate(-150)" r="8"/></g><rect x="-777.5" y="-615" transform="rotate(180)" width="12.5" height="57" stroke="#ffffff" stroke-width="0.5" stroke-linecap="butt" opacity="0"/><g stroke="#ffffff" stroke-width="0.5" stroke-linecap="round"><circle cx="-961.17209" cy="-122.2989" transform="rotate(-150)" r="16" data-paper-data="{&quot;index&quot;:0}" opacity="0"/><circle cx="-945.17209" cy="-122.2989" transform="rotate(-150)" r="16" data-paper-data="{&quot;index&quot;:1}" opacity="0"/><circle cx="-953.17209" cy="-136.15604" transform="rotate(-150)" r="16" data-paper-data="{&quot;index&quot;:2}" opacity="0"/><circle cx="-969.17209" cy="-136.15604" transform="rotate(-150)" r="16" data-paper-data="{&quot;index&quot;:3}" opacity="0"/><circle cx="-977.17209" cy="-122.2989" transform="rotate(-150)" r="16" data-paper-data="{&quot;index&quot;:4}" opacity="0"/><circle cx="-969.17209" cy="-108.44176" transform="rotate(-150)" r="16" data-paper-data="{&quot;index&quot;:5}" opacity="0"/><circle cx="-953.17209" cy="-126.91795" transform="rotate(-150)" r="6.7619"/><circle cx="-961.17209" cy="-131.53699" transform="rotate(-150)" r="6.7619"/><circle cx="-969.17209" cy="-126.91795" transform="rotate(-150)" r="6.7619"/><circle cx="-969.17209" cy="-117.67985" transform="rotate(-150)" r="6.7619"/><circle cx="-953.17209" cy="-126.91795" transform="rotate(-150)" r="9.2381"/><circle cx="-961.17209" cy="-131.53699" transform="rotate(-150)" r="9.2381"/><circle cx="-969.17209" cy="-126.91795" transform="rotate(-150)" r="9.2381"/><circle cx="-969.17209" cy="-117.67985" transform="rotate(-150)" r="9.2381"/></g><rect x="-885" y="-615" transform="rotate(180)" width="12.5" height="57" stroke="#ffffff" stroke-width="0.5" stroke-linecap="butt" opacity="0"/><g stroke="#ffffff" stroke-width="0.5" stroke-linecap="round"><circle cx="-1054.26982" cy="-68.5489" transform="rotate(-150)" r="16" data-paper-data="{&quot;index&quot;:0}" opacity="0"/><circle cx="-1038.26982" cy="-68.5489" transform="rotate(-150)" r="16" data-paper-data="{&quot;index&quot;:1}" opacity="0"/><circle cx="-1046.26982" cy="-82.40604" transform="rotate(-150)" r="16" data-paper-data="{&quot;index&quot;:2}" opacity="0"/><circle cx="-1062.26982" cy="-82.40604" transform="rotate(-150)" r="16" data-paper-data="{&quot;index&quot;:3}" opacity="0"/><circle cx="-1070.26982" cy="-68.5489" transform="rotate(-150)" r="16" data-paper-data="{&quot;index&quot;:4}" opacity="0"/><circle cx="-1062.26982" cy="-54.69176" transform="rotate(-150)" r="16" data-paper-data="{&quot;index&quot;:5}" opacity="0"/><circle cx="-1046.26982" cy="-68.5489" transform="rotate(-150)" r="8"/><circle cx="-1050.26982" cy="-75.47747" transform="rotate(-150)" r="8"/><circle cx="-1058.26982" cy="-75.47747" transform="rotate(-150)" r="8"/><circle cx="-1062.26982" cy="-68.5489" transform="rotate(-150)" r="8"/><circle cx="-1058.26982" cy="-61.62033" transform="rotate(-150)" r="8"/><circle cx="-1042.26982" cy="-75.47747" transform="rotate(-150)" r="8"/><circle cx="-1054.26982" cy="-82.40604" transform="rotate(-150)" r="8"/><circle cx="-1066.26982" cy="-75.47747" transform="rotate(-150)" r="8"/><circle cx="-1066.26982" cy="-61.62033" transform="rotate(-150)" r="8"/><circle cx="-1046.26982" cy="-68.5489" transform="rotate(-150)" r="13.85714"/><circle cx="-1050.26982" cy="-75.47747" transform="rotate(-150)" r="13.85714"/><circle cx="-1058.26982" cy="-75.47747" transform="rotate(-150)" r="13.85714"/><circle cx="-1062.26982" cy="-68.5489" transform="rotate(-150)" r="13.85714"/><circle cx="-1058.26982" cy="-61.62033" transform="rotate(-150)" r="13.85714"/><circle cx="-1042.26982" cy="-75.47747" transform="rotate(-150)" r="13.85714"/><circle cx="-1054.26982" cy="-82.40604" transform="rotate(-150)" r="13.85714"/><circle cx="-1066.26982" cy="-75.47747" transform="rotate(-150)" r="13.85714"/><circle cx="-1066.26982" cy="-61.62033" transform="rotate(-150)" r="13.85714"/></g><rect x="-992.5" y="-615" transform="rotate(180)" width="12.5" height="57" stroke="#ffffff" stroke-width="0.5" stroke-linecap="butt" opacity="0"/><g stroke="#ffffff" stroke-width="0.5" stroke-linecap="round"><circle cx="-1147.36755" cy="-14.7989" transform="rotate(-150)" r="16" data-paper-data="{&quot;index&quot;:0}"/><circle cx="-1131.36755" cy="-14.7989" transform="rotate(-150)" r="16" data-paper-data="{&quot;index&quot;:1}"/><circle cx="-1139.36755" cy="-28.65604" transform="rotate(-150)" r="16" data-paper-data="{&quot;index&quot;:2}"/><circle cx="-1155.36755" cy="-28.65604" transform="rotate(-150)" r="16" data-paper-data="{&quot;index&quot;:3}"/><circle cx="-1163.36755" cy="-14.7989" transform="rotate(-150)" r="16" data-paper-data="{&quot;index&quot;:4}"/><circle cx="-1155.36755" cy="-0.94176" transform="rotate(-150)" r="16" data-paper-data="{&quot;index&quot;:5}"/></g><rect x="-670" y="-708" transform="rotate(180)" width="12.5" height="57" stroke="#ffffff" stroke-width="0.5" stroke-linecap="butt" opacity="0"/><g stroke="#ffffff" stroke-width="0.5" stroke-linecap="round"><circle cx="-920.33926" cy="235.07436" transform="rotate(-120)" r="16" data-paper-data="{&quot;index&quot;:0}" opacity="0"/><circle cx="-904.33926" cy="235.07436" transform="rotate(-120)" r="16" data-paper-data="{&quot;index&quot;:1}" opacity="0"/><circle cx="-912.33926" cy="221.21722" transform="matrix(-0.5000000000000019,-0.8660254037844375,0.8660254037844375,-0.5000000000000019,0,0)" r="16" data-paper-data="{&quot;index&quot;:2}" opacity="0"/><circle cx="-928.33926" cy="221.21722" transform="matrix(-0.5000000000000019,-0.8660254037844375,0.8660254037844375,-0.5000000000000019,0,0)" r="16" data-paper-data="{&quot;index&quot;:3}" opacity="0"/><circle cx="-936.33926" cy="235.07436" transform="rotate(-120)" r="16" data-paper-data="{&quot;index&quot;:4}" opacity="0"/><circle cx="-928.33926" cy="248.9315" transform="rotate(-120)" r="16" data-paper-data="{&quot;index&quot;:5}" opacity="0"/><circle cx="-912.33926" cy="248.9315" transform="rotate(-120)" r="16" data-paper-data="{&quot;index&quot;:6}" opacity="0"/><circle cx="-916.33926" cy="228.14579" transform="matrix(-0.5000000000000058,-0.8660254037844353,0.8660254037844353,-0.5000000000000058,0,0)" r="2.14286"/><circle cx="-916.33926" cy="242.00293" transform="rotate(-120)" r="2.14286"/><circle cx="-924.33926" cy="228.14579" transform="matrix(-0.5000000000000058,-0.8660254037844353,0.8660254037844353,-0.5000000000000058,0,0)" r="2.14286"/><circle cx="-912.33926" cy="235.07436" transform="rotate(-120)" r="2.14286"/><circle cx="-928.33926" cy="235.07436" transform="rotate(-120)" r="2.14286"/><circle cx="-924.33926" cy="242.00293" transform="matrix(-0.5000000000000058,-0.8660254037844353,0.8660254037844353,-0.5000000000000058,0,0)" r="2.14286"/><circle cx="-916.33926" cy="228.14579" transform="rotate(-120)" r="8"/><circle cx="-916.33926" cy="242.00293" transform="matrix(-0.5000000000000127,-0.8660254037844313,0.8660254037844313,-0.5000000000000127,0,0)" r="8"/><circle cx="-924.33926" cy="228.14579" transform="rotate(-120)" r="8"/><circle cx="-912.33926" cy="235.07436" transform="rotate(-120)" r="8"/><circle cx="-928.33926" cy="235.07436" transform="rotate(-120)" r="8"/><circle cx="-924.33926" cy="242.00293" transform="matrix(-0.5000000000000181,-0.8660254037844282,0.8660254037844282,-0.5000000000000181,0,0)" r="8"/></g><rect x="-777.5" y="-708" transform="rotate(180)" width="12.5" height="57" stroke="#ffffff" stroke-width="0.5" stroke-linecap="butt" opacity="0"/><g stroke="#ffffff" stroke-width="0.5" stroke-linecap="round"><circle cx="-974.08926" cy="328.17209" transform="rotate(-120)" r="16" data-paper-data="{&quot;index&quot;:0}" opacity="0"/><circle cx="-958.08926" cy="328.17209" transform="rotate(-120)" r="16" data-paper-data="{&quot;index&quot;:1}" opacity="0"/><circle cx="-966.08926" cy="314.31495" transform="matrix(-0.5000000000000019,-0.8660254037844375,0.8660254037844375,-0.5000000000000019,0,0)" r="16" data-paper-data="{&quot;index&quot;:2}" opacity="0"/><circle cx="-982.08926" cy="314.31495" transform="matrix(-0.5000000000000019,-0.8660254037844375,0.8660254037844375,-0.5000000000000019,0,0)" r="16" data-paper-data="{&quot;index&quot;:3}" opacity="0"/><circle cx="-990.08926" cy="328.17209" transform="rotate(-120)" r="16" data-paper-data="{&quot;index&quot;:4}" opacity="0"/><circle cx="-982.08926" cy="342.02924" transform="rotate(-120)" r="16" data-paper-data="{&quot;index&quot;:5}" opacity="0"/><circle cx="-966.08926" cy="342.02924" transform="rotate(-120)" r="16" data-paper-data="{&quot;index&quot;:6}" opacity="0"/><circle cx="-966.08926" cy="323.55305" transform="matrix(-0.5000000000000073,-0.8660254037844344,0.8660254037844344,-0.5000000000000073,0,0)" r="6.7619"/><circle cx="-966.08926" cy="332.79114" transform="matrix(-0.500000000000015,-0.8660254037844299,0.8660254037844299,-0.500000000000015,0,0)" r="6.7619"/><circle cx="-974.08926" cy="318.934" transform="rotate(-120)" r="6.7619"/><circle cx="-982.08926" cy="323.55305" transform="rotate(-120)" r="6.7619"/><circle cx="-982.08926" cy="332.79114" transform="rotate(-120)" r="6.7619"/><circle cx="-974.08926" cy="337.41019" transform="matrix(-0.500000000000015,-0.8660254037844299,0.8660254037844299,-0.500000000000015,0,0)" r="6.7619"/><circle cx="-966.08926" cy="323.55305" transform="matrix(-0.5000000000000058,-0.8660254037844353,0.8660254037844353,-0.5000000000000058,0,0)" r="9.2381"/><circle cx="-966.08926" cy="332.79114" transform="rotate(-120)" r="9.2381"/><circle cx="-974.08926" cy="318.934" transform="rotate(-120)" r="9.2381"/><circle cx="-982.08926" cy="323.55305" transform="rotate(-120)" r="9.2381"/><circle cx="-982.08926" cy="332.79114" transform="rotate(-120)" r="9.2381"/><circle cx="-974.08926" cy="337.41019" transform="matrix(-0.5000000000000019,-0.8660254037844375,0.8660254037844375,-0.5000000000000019,0,0)" r="9.2381"/></g><rect x="-885" y="-708" transform="rotate(180)" width="12.5" height="57" stroke="#ffffff" stroke-width="0.5" stroke-linecap="butt" opacity="0"/><g stroke="#ffffff" stroke-width="0.5" stroke-linecap="round"><circle cx="-1027.83926" cy="421.26982" transform="matrix(-0.5000000000000019,-0.8660254037844375,0.8660254037844375,-0.5000000000000019,0,0)" r="16" data-paper-data="{&quot;index&quot;:0}" opacity="0"/><circle cx="-1011.83926" cy="421.26982" transform="matrix(-0.5000000000000019,-0.8660254037844375,0.8660254037844375,-0.5000000000000019,0,0)" r="16" data-paper-data="{&quot;index&quot;:1}" opacity="0"/><circle cx="-1019.83926" cy="407.41268" transform="matrix(-0.5000000000000019,-0.8660254037844375,0.8660254037844375,-0.5000000000000019,0,0)" r="16" data-paper-data="{&quot;index&quot;:2}" opacity="0"/><circle cx="-1035.83926" cy="407.41268" transform="matrix(-0.5000000000000019,-0.8660254037844375,0.8660254037844375,-0.5000000000000019,0,0)" r="16" data-paper-data="{&quot;index&quot;:3}" opacity="0"/><circle cx="-1043.83926" cy="421.26982" transform="matrix(-0.5000000000000019,-0.8660254037844375,0.8660254037844375,-0.5000000000000019,0,0)" r="16" data-paper-data="{&quot;index&quot;:4}" opacity="0"/><circle cx="-1035.83926" cy="435.12697" transform="matrix(-0.5000000000000019,-0.8660254037844375,0.8660254037844375,-0.5000000000000019,0,0)" r="16" data-paper-data="{&quot;index&quot;:5}" opacity="0"/><circle cx="-1019.83926" cy="435.12697" transform="matrix(-0.5000000000000019,-0.8660254037844375,0.8660254037844375,-0.5000000000000019,0,0)" r="16" data-paper-data="{&quot;index&quot;:6}" opacity="0"/><circle cx="-1019.83926" cy="421.26982" transform="rotate(-120)" r="8"/><circle cx="-1023.83926" cy="414.34125" transform="rotate(-120)" r="8"/><circle cx="-1031.83926" cy="414.34125" transform="matrix(-0.5000000000000019,-0.8660254037844375,0.8660254037844375,-0.5000000000000019,0,0)" r="8"/><circle cx="-1035.83926" cy="421.26982" transform="rotate(-120)" r="8"/><circle cx="-1031.83926" cy="428.1984" transform="rotate(-120)" r="8"/><circle cx="-1023.83926" cy="428.1984" transform="rotate(-120)" r="8"/><circle cx="-1015.83926" cy="414.34125" transform="matrix(-0.5000000000000019,-0.8660254037844375,0.8660254037844375,-0.5000000000000019,0,0)" r="8"/><circle cx="-1015.83926" cy="428.1984" transform="matrix(-0.5000000000000066,-0.8660254037844348,0.8660254037844348,-0.5000000000000066,0,0)" r="8"/><circle cx="-1027.83926" cy="407.41268" transform="matrix(-0.5000000000000066,-0.8660254037844348,0.8660254037844348,-0.5000000000000066,0,0)" r="8"/><circle cx="-1039.83926" cy="414.34125" transform="matrix(-0.5000000000000081,-0.8660254037844339,0.8660254037844339,-0.5000000000000081,0,0)" r="8"/><circle cx="-1039.83926" cy="428.1984" transform="matrix(-0.5000000000000066,-0.8660254037844348,0.8660254037844348,-0.5000000000000066,0,0)" r="8"/><circle cx="-1027.83926" cy="435.12697" transform="matrix(-0.5000000000000296,-0.8660254037844215,0.8660254037844215,-0.5000000000000296,0,0)" r="8"/><circle cx="-1019.83926" cy="421.26982" transform="matrix(-0.5000000000000081,-0.8660254037844339,0.8660254037844339,-0.5000000000000081,0,0)" r="13.85714"/><circle cx="-1023.83926" cy="414.34125" transform="matrix(-0.5000000000000042,-0.8660254037844362,0.8660254037844362,-0.5000000000000042,0,0)" r="13.85714"/><circle cx="-1031.83926" cy="414.34125" transform="matrix(-0.5000000000000042,-0.8660254037844362,0.8660254037844362,-0.5000000000000042,0,0)" r="13.85714"/><circle cx="-1035.83926" cy="421.26982" transform="rotate(-120)" r="13.85714"/><circle cx="-1031.83926" cy="428.1984" transform="rotate(-120)" r="13.85714"/><circle cx="-1023.83926" cy="428.1984" transform="rotate(-120)" r="13.85714"/><circle cx="-1015.83926" cy="414.34125" transform="rotate(-120)" r="13.85714"/><circle cx="-1015.83926" cy="428.1984" transform="rotate(-120)" r="13.85714"/><circle cx="-1027.83926" cy="407.41268" transform="rotate(-120)" r="13.85714"/><circle cx="-1039.83926" cy="414.34125" transform="rotate(-120)" r="13.85714"/><circle cx="-1039.83926" cy="428.1984" transform="matrix(-0.5000000000000042,-0.8660254037844362,0.8660254037844362,-0.5000000000000042,0,0)" r="13.85714"/><circle cx="-1027.83926" cy="435.12697" transform="rotate(-120)" r="13.85714"/></g><rect x="-992.5" y="-708" transform="rotate(180)" width="12.5" height="57" stroke="#ffffff" stroke-width="0.5" stroke-linecap="butt" opacity="0"/><g stroke="#ffffff" stroke-width="0.5" stroke-linecap="round"><circle cx="-1081.58926" cy="514.36755" transform="rotate(-120)" r="16" data-paper-data="{&quot;index&quot;:0}"/><circle cx="-1065.58926" cy="514.36755" transform="rotate(-120)" r="16" data-paper-data="{&quot;index&quot;:1}"/><circle cx="-1073.58926" cy="500.51041" transform="matrix(-0.5000000000000019,-0.8660254037844375,0.8660254037844375,-0.5000000000000019,0,0)" r="16" data-paper-data="{&quot;index&quot;:2}"/><circle cx="-1089.58926" cy="500.51041" transform="matrix(-0.5000000000000019,-0.8660254037844375,0.8660254037844375,-0.5000000000000019,0,0)" r="16" data-paper-data="{&quot;index&quot;:3}"/><circle cx="-1097.58926" cy="514.36755" transform="rotate(-120)" r="16" data-paper-data="{&quot;index&quot;:4}"/><circle cx="-1089.58926" cy="528.2247" transform="rotate(-120)" r="16" data-paper-data="{&quot;index&quot;:5}"/><circle cx="-1073.58926" cy="528.2247" transform="rotate(-120)" r="16" data-paper-data="{&quot;index&quot;:6}"/></g></g></svg>