<svg x="0" y="0" width="3300" height="2550" version="1.1" xmlns="http://www.w3.org/2000/svg" xmlns:xlink="http://www.w3.org/1999/xlink"><g fill="none" stroke="none" stroke-width="1" stroke-linecap="butt" stroke-linejoin="miter" stroke-miterlimit="10" stroke-dasharray="none" stroke-dashoffset="0" font-family="none" font-weight="none" font-size="none" text-anchor="start" mix-blend-mode="normal"><polygon points="0,850 0,0 825,0 825,850" stroke="#000000" stroke-dasharray="1,4" font-family="sans-serif" font-weight="normal" font-size="12"/><text x="352.5" y="497" fill="#000000" stroke-dasharray="" font-family="Times" font-weight="bold" font-size="240">?</text><g fill="#000000" stroke-dasharray="" font-weight="normal" font-size="54"><text x="-234.30353" y="215.11443" transform="rotate(-72) scale(1.25,1.25)" font-family="Georgia">?</text><text x="53.91866" y="265.23491" transform="rotate(-36) scale(1.25,1.25)" font-family="Futura">?</text><text x="319.497" y="136.2" transform="scale(1.25,1.25)" font-family="Luminari">?</text><text x="454.68005" y="-122.70336" transform="rotate(36) scale(1.25,1.25)" font-family="Chalkboard">?</text><text x="409.13483" y="-412.58287" transform="rotate(72) scale(1.25,1.25)" font-family="American Typewriter">?</text><text x="-237.5836" y="655.11443" transform="rotate(-72) scale(1.25,1.25)" font-family="American Typewriter">?</text><text x="54.98608" y="705.23491" transform="matrix(1.011271242968684,-0.7347315653655917,0.7347315653655917,1.011271242968684,0,0)" font-family="Chalkboard">?</text><text x="319.497" y="576.2" transform="rotate(0) scale(1.25,1.25)" font-family="Luminari">?</text><text x="453.61263" y="317.29664" transform="rotate(36) scale(1.25,1.25)" font-family="Futura">?</text><text x="412.4149" y="27.41713" transform="rotate(72) scale(1.25,1.25)" font-family="Georgia">?</text></g><polygon points="825,850 825,0 1650,0 1650,850" stroke="#000000" stroke-dasharray="1,4" font-family="sans-serif" font-weight="normal" font-size="12"/><text x="1150.83984" y="497" fill="#000000" stroke-dasharray="" font-family="Times" font-weight="bold" font-size="240">A</text><g fill="#000000" stroke-dasharray="" font-weight="normal" font-size="54"><text x="-35.54665" y="842.81173" transform="rotate(-72) scale(1.25,1.25)" font-family="Georgia">A</text><text x="581.08033" y="653.17318" transform="rotate(-36) scale(1.25,1.25)" font-family="Futura">A</text><text x="972.801" y="136.2" transform="scale(1.25,1.25)" font-family="Luminari">A</text><text x="983.35061" y="-510.64162" transform="rotate(36) scale(1.25,1.25)" font-family="Chalkboard">A</text><text x="609.14404" y="-1040.28017" transform="rotate(72) scale(1.25,1.25)" font-family="American Typewriter">A</text><text x="-32.66039" y="1282.81173" transform="rotate(-72) scale(1.25,1.25)" font-family="American Typewriter">a</text><text x="586.61023" y="1093.17318" transform="matrix(1.011271242968684,-0.7347315653655917,0.7347315653655917,1.011271242968684,0,0)" font-family="Chalkboard">a</text><text x="975.15" y="576.2" transform="rotate(0) scale(1.25,1.25)" font-family="Luminari">a</text><text x="984.58436" y="-70.64162" transform="rotate(36) scale(1.25,1.25)" font-family="Futura">a</text><text x="615.68057" y="-600.28017" transform="rotate(72) scale(1.25,1.25)" font-family="Georgia">a</text></g><polygon points="1650,850 1650,0 2475,0 2475,850" stroke="#000000" stroke-dasharray="1,4" font-family="sans-serif" font-weight="normal" font-size="12"/><text x="1982.46094" y="497" fill="#000000" stroke-dasharray="" font-family="Times" font-weight="bold" font-size="240">B</text><g fill="#000000" stroke-dasharray="" font-weight="normal" font-size="54"><text x="168.86599" y="1470.50903" transform="rotate(-72) scale(1.25,1.25)" font-family="Georgia">B</text><text x="1119.06572" y="1041.11144" transform="rotate(-36) scale(1.25,1.25)" font-family="Futura">B</text><text x="1630.15501" y="136.2" transform="scale(1.25,1.25)" font-family="Luminari">B</text><text x="1519.33056" y="-898.57989" transform="rotate(36) scale(1.25,1.25)" font-family="Chalkboard">B</text><text x="814.55326" y="-1667.97747" transform="rotate(72) scale(1.25,1.25)" font-family="American Typewriter">B</text><text x="171.29083" y="1910.50903" transform="rotate(-72) scale(1.25,1.25)" font-family="American Typewriter">b</text><text x="1119.93492" y="1481.11144" transform="matrix(1.011271242968684,-0.7347315653655917,0.7347315653655917,1.011271242968684,0,0)" font-family="Chalkboard">b</text><text x="1633.96201" y="576.2" transform="rotate(0) scale(1.25,1.25)" font-family="Luminari">b</text><text x="1518.53557" y="-458.57989" transform="rotate(36) scale(1.25,1.25)" font-family="Futura">b</text><text x="818.11567" y="-1227.97747" transform="rotate(72) scale(1.25,1.25)" font-family="Georgia">b</text></g><polygon points="2475,850 2475,0 3300,0 3300,850" stroke="#000000" stroke-dasharray="1,4" font-family="sans-serif" font-weight="normal" font-size="12"/><text x="2800.83984" y="497" fill="#000000" stroke-dasharray="" font-family="Times" font-weight="bold" font-size="240">C</text><g fill="#000000" stroke-dasharray="" font-weight="normal" font-size="54"><text x="373.13362" y="2098.20633" transform="rotate(-72) scale(1.25,1.25)" font-family="Georgia">C</text><text x="1650.06381" y="1429.04971" transform="rotate(-36) scale(1.25,1.25)" font-family="Futura">C</text><text x="2292.55801" y="136.2" transform="scale(1.25,1.25)" font-family="Luminari">C</text><text x="2052.83426" y="-1286.51815" transform="rotate(36) scale(1.25,1.25)" font-family="Chalkboard">C</text><text x="1019.98948" y="-2295.67477" transform="rotate(72) scale(1.25,1.25)" font-family="American Typewriter">C</text><text x="376.70004" y="2538.20633" transform="rotate(-72) scale(1.25,1.25)" font-family="American Typewriter">c</text><text x="1655.6762" y="1869.04971" transform="matrix(1.011271242968684,-0.7347315653655917,0.7347315653655917,1.011271242968684,0,0)" font-family="Chalkboard">c</text><text x="2297.931" y="576.2" transform="rotate(0) scale(1.25,1.25)" font-family="Luminari">c</text><text x="2055.80906" y="-846.51815" transform="rotate(36) scale(1.25,1.25)" font-family="Futura">c</text><text x="1024.92773" y="-1855.67477" transform="rotate(72) scale(1.25,1.25)" font-family="Georgia">c</text></g><polygon points="0,1700 0,850 825,850 825,1700" stroke="#000000" stroke-dasharray="1,4" font-family="sans-serif" font-weight="normal" font-size="12"/><text x="325.83984" y="1347" fill="#000000" stroke-dasharray="" font-family="Times" font-weight="bold" font-size="240">D</text><g fill="#000000" stroke-dasharray="" font-weight="normal" font-size="54"><text x="-888.32567" y="425.24598" transform="rotate(-72) scale(1.25,1.25)" font-family="Georgia">D</text><text x="-352.16935" y="815.36647" transform="rotate(-36) scale(1.25,1.25)" font-family="Futura">D</text><text x="308.454" y="816.2" transform="scale(1.25,1.25)" font-family="Luminari">D</text><text x="849.33204" y="427.4282" transform="rotate(36) scale(1.25,1.25)" font-family="Chalkboard">D</text><text x="1052.39726" y="-202.45132" transform="rotate(72) scale(1.25,1.25)" font-family="American Typewriter">D</text><text x="-884.30204" y="865.24598" transform="rotate(-72) scale(1.25,1.25)" font-family="American Typewriter">d</text><text x="-346.43827" y="1255.36647" transform="matrix(1.011271242968684,-0.7347315653655917,0.7347315653655917,1.011271242968684,0,0)" font-family="Chalkboard">d</text><text x="314.01601" y="1256.2" transform="rotate(0) scale(1.25,1.25)" font-family="Luminari">d</text><text x="850.32711" y="867.4282" transform="rotate(36) scale(1.25,1.25)" font-family="Futura">d</text><text x="1056.54935" y="237.54868" transform="rotate(72) scale(1.25,1.25)" font-family="Georgia">d</text></g><polygon points="825,1700 825,850 1650,850 1650,1700" stroke="#000000" stroke-dasharray="1,4" font-family="sans-serif" font-weight="normal" font-size="12"/><text x="1157.46094" y="1347" fill="#000000" stroke-dasharray="" font-family="Times" font-weight="bold" font-size="240">E</text><g fill="#000000" stroke-dasharray="" font-weight="normal" font-size="54"><text x="-681.79047" y="1052.94329" transform="rotate(-72) scale(1.25,1.25)" font-family="Georgia">E</text><text x="186.11927" y="1203.30473" transform="rotate(-36) scale(1.25,1.25)" font-family="Futura">E</text><text x="972.18" y="816.2" transform="scale(1.25,1.25)" font-family="Luminari">E</text><text x="1385.69983" y="39.48993" transform="rotate(36) scale(1.25,1.25)" font-family="Chalkboard">E</text><text x="1257.83347" y="-830.14862" transform="rotate(72) scale(1.25,1.25)" font-family="American Typewriter">E</text><text x="-678.40682" y="1492.94329" transform="rotate(-72) scale(1.25,1.25)" font-family="American Typewriter">e</text><text x="187.18476" y="1643.30473" transform="matrix(1.011271242968684,-0.7347315653655917,0.7347315653655917,1.011271242968684,0,0)" font-family="Chalkboard">e</text><text x="977.472" y="1256.2" transform="rotate(0) scale(1.25,1.25)" font-family="Luminari">e</text><text x="1385.53077" y="479.48993" transform="rotate(36) scale(1.25,1.25)" font-family="Futura">e</text><text x="1262.95271" y="-390.14862" transform="rotate(72) scale(1.25,1.25)" font-family="Georgia">e</text></g><polygon points="1650,1700 1650,850 2475,850 2475,1700" stroke="#000000" stroke-dasharray="1,4" font-family="sans-serif" font-weight="normal" font-size="12"/><text x="1989.19922" y="1347" fill="#000000" stroke-dasharray="" font-family="Times" font-weight="bold" font-size="240">F</text><g fill="#000000" stroke-dasharray="" font-weight="normal" font-size="54"><text x="-476.37588" y="1680.64059" transform="rotate(-72) scale(1.25,1.25)" font-family="Georgia">F</text><text x="721.61296" y="1591.243" transform="rotate(-36) scale(1.25,1.25)" font-family="Futura">F</text><text x="1633.584" y="816.2" transform="scale(1.25,1.25)" font-family="Luminari">F</text><text x="1920.90408" y="-348.44833" transform="rotate(36) scale(1.25,1.25)" font-family="Chalkboard">F</text><text x="1463.24269" y="-1457.84592" transform="rotate(72) scale(1.25,1.25)" font-family="American Typewriter">F</text><text x="-469.5416" y="2120.64059" transform="rotate(-72) scale(1.25,1.25)" font-family="American Typewriter">f</text><text x="723.67189" y="2031.243" transform="matrix(1.011271242968684,-0.7347315653655917,0.7347315653655917,1.011271242968684,0,0)" font-family="Chalkboard">f</text><text x="1641.009" y="1256.2" transform="rotate(0) scale(1.25,1.25)" font-family="Luminari">f</text><text x="1926.40337" y="91.55167" transform="rotate(36) scale(1.25,1.25)" font-family="Futura">f</text><text x="1471.17541" y="-1017.84592" transform="rotate(72) scale(1.25,1.25)" font-family="Georgia">f</text></g><polygon points="2475,1700 2475,850 3300,850 3300,1700" stroke="#000000" stroke-dasharray="1,4" font-family="sans-serif" font-weight="normal" font-size="12"/><text x="2794.16016" y="1347" fill="#000000" stroke-dasharray="" font-family="Times" font-weight="bold" font-size="240">G</text><g fill="#000000" stroke-dasharray="" font-weight="normal" font-size="54"><text x="-275.82603" y="2308.33789" transform="rotate(-72) scale(1.25,1.25)" font-family="Georgia">G</text><text x="1246.5466" y="1979.18127" transform="rotate(-36) scale(1.25,1.25)" font-family="Futura">G</text><text x="2289.318" y="816.2" transform="scale(1.25,1.25)" font-family="Luminari">G</text><text x="2450.43983" y="-736.3866" transform="rotate(36) scale(1.25,1.25)" font-family="Chalkboard">G</text><text x="1664.73691" y="-2085.54322" transform="rotate(72) scale(1.25,1.25)" font-family="American Typewriter">G</text><text x="-270.99039" y="2748.33789" transform="rotate(-72) scale(1.25,1.25)" font-family="American Typewriter">g</text><text x="1255.05737" y="2419.18127" transform="matrix(1.011271242968684,-0.7347315653655917,0.7347315653655917,1.011271242968684,0,0)" font-family="Chalkboard">g</text><text x="2294.799" y="1256.2" transform="rotate(0) scale(1.25,1.25)" font-family="Luminari">g</text><text x="2452.20713" y="-296.3866" transform="rotate(36) scale(1.25,1.25)" font-family="Futura">g</text><text x="1670.15642" y="-1645.54322" transform="rotate(72) scale(1.25,1.25)" font-family="Georgia">g</text></g><polygon points="0,2550 0,1700 825,1700 825,2550" stroke="#000000" stroke-dasharray="1,4" font-family="sans-serif" font-weight="normal" font-size="12"/><text x="319.16016" y="2197" fill="#000000" stroke-dasharray="" font-family="Times" font-weight="bold" font-size="240">H</text><g fill="#000000" stroke-dasharray="" font-weight="normal" font-size="54"><text x="-1536.82389" y="635.37754" transform="rotate(-72) scale(1.25,1.25)" font-family="Georgia">H</text><text x="-752.06108" y="1365.49802" transform="rotate(-36) scale(1.25,1.25)" font-family="Futura">H</text><text x="310.182" y="1496.2" transform="scale(1.25,1.25)" font-family="Luminari">H</text><text x="1249.41385" y="977.55976" transform="rotate(36) scale(1.25,1.25)" font-family="Chalkboard">H</text><text x="1697.63069" y="7.68024" transform="rotate(72) scale(1.25,1.25)" font-family="American Typewriter">H</text><text x="-1532.01947" y="1075.37754" transform="rotate(-72) scale(1.25,1.25)" font-family="American Typewriter">h</text><text x="-746.93777" y="1805.49802" transform="matrix(1.011271242968684,-0.7347315653655917,0.7347315653655917,1.011271242968684,0,0)" font-family="Chalkboard">h</text><text x="313.206" y="1936.2" transform="rotate(0) scale(1.25,1.25)" font-family="Luminari">h</text><text x="1251.40536" y="1417.55976" transform="rotate(36) scale(1.25,1.25)" font-family="Futura">h</text><text x="1703.05684" y="447.68024" transform="rotate(72) scale(1.25,1.25)" font-family="Georgia">h</text></g><polygon points="825,2550 825,1700 1650,1700 1650,2550" stroke="#000000" stroke-dasharray="1,4" font-family="sans-serif" font-weight="normal" font-size="12"/><text x="1190.80078" y="2197" fill="#000000" stroke-dasharray="" font-family="Times" font-weight="bold" font-size="240">I</text><g fill="#000000" stroke-dasharray="" font-weight="normal" font-size="54"><text x="-1321.38976" y="1263.07484" transform="rotate(-72) scale(1.25,1.25)" font-family="Georgia">I</text><text x="-206.271" y="1753.43629" transform="rotate(-36) scale(1.25,1.25)" font-family="Futura">I</text><text x="979.443" y="1496.2" transform="scale(1.25,1.25)" font-family="Luminari">I</text><text x="1788.19822" y="589.62149" transform="rotate(36) scale(1.25,1.25)" font-family="Chalkboard">I</text><text x="1912.40891" y="-620.01706" transform="rotate(72) scale(1.25,1.25)" font-family="American Typewriter">I</text><text x="-1319.23925" y="1703.07484" transform="rotate(-72) scale(1.25,1.25)" font-family="American Typewriter">i</text><text x="-205.05064" y="2193.43629" transform="matrix(1.011271242968684,-0.7347315653655917,0.7347315653655917,1.011271242968684,0,0)" font-family="Chalkboard">i</text><text x="982.62901" y="1936.2" transform="rotate(0) scale(1.25,1.25)" font-family="Luminari">i</text><text x="1793.43812" y="1029.62149" transform="rotate(36) scale(1.25,1.25)" font-family="Futura">i</text><text x="1914.81275" y="-180.01706" transform="rotate(72) scale(1.25,1.25)" font-family="Georgia">i</text></g><polygon points="1650,2550 1650,1700 2475,1700 2475,2550" stroke="#000000" stroke-dasharray="1,4" font-family="sans-serif" font-weight="normal" font-size="12"/><text x="2002.5" y="2197" fill="#000000" stroke-dasharray="" font-family="Times" font-weight="bold" font-size="240">J</text><g fill="#000000" stroke-dasharray="" font-weight="normal" font-size="54"><text x="-1120.89265" y="1890.77214" transform="rotate(-72) scale(1.25,1.25)" font-family="Georgia">J</text><text x="324.56889" y="2141.37456" transform="rotate(-36) scale(1.25,1.25)" font-family="Futura">J</text><text x="1640.19901" y="1496.2" transform="scale(1.25,1.25)" font-family="Luminari">J</text><text x="2319.25552" y="201.68322" transform="rotate(36) scale(1.25,1.25)" font-family="Chalkboard">J</text><text x="2109.96112" y="-1247.71436" transform="rotate(72) scale(1.25,1.25)" font-family="American Typewriter">J</text><text x="-1114.77503" y="2330.77214" transform="rotate(-72) scale(1.25,1.25)" font-family="American Typewriter">j</text><text x="325.17129" y="2581.37456" transform="matrix(1.011271242968684,-0.7347315653655917,0.7347315653655917,1.011271242968684,0,0)" font-family="Chalkboard">j</text><text x="1643.22301" y="1936.2" transform="rotate(0) scale(1.25,1.25)" font-family="Luminari">j</text><text x="2327.38934" y="641.68322" transform="rotate(36) scale(1.25,1.25)" font-family="Futura">j</text><text x="2118.79033" y="-807.71436" transform="rotate(72) scale(1.25,1.25)" font-family="Georgia">j</text></g><polygon points="2475,2550 2475,1700 3300,1700 3300,2550" stroke="#000000" stroke-dasharray="1,4" font-family="sans-serif" font-weight="normal" font-size="12"/><text x="2794.16016" y="2197" fill="#000000" stroke-dasharray="" font-family="Times" font-weight="bold" font-size="240">K</text><g fill="#000000" stroke-dasharray="" font-weight="normal" font-size="54"><text x="-921.71389" y="2518.46944" transform="rotate(-72) scale(1.25,1.25)" font-family="Georgia">K</text><text x="851.70419" y="2529.31282" transform="rotate(-36) scale(1.25,1.25)" font-family="Futura">K</text><text x="2290.07401" y="1496.2" transform="scale(1.25,1.25)" font-family="Luminari">K</text><text x="2852.28187" y="-186.25504" transform="rotate(36) scale(1.25,1.25)" font-family="Chalkboard">K</text><text x="2309.48434" y="-1875.41166" transform="rotate(72) scale(1.25,1.25)" font-family="American Typewriter">K</text><text x="-919.67982" y="2958.46944" transform="rotate(-72) scale(1.25,1.25)" font-family="American Typewriter">k</text><text x="855.33356" y="2969.31282" transform="matrix(1.011271242968684,-0.7347315653655917,0.7347315653655917,1.011271242968684,0,0)" font-family="Chalkboard">k</text><text x="2296.095" y="1936.2" transform="rotate(0) scale(1.25,1.25)" font-family="Luminari">k</text><text x="2854.61692" y="253.74496" transform="rotate(36) scale(1.25,1.25)" font-family="Futura">k</text><text x="2316.16293" y="-1435.41166" transform="rotate(72) scale(1.25,1.25)" font-family="Georgia">k</text></g></g></svg>