<svg x="0" y="0" width="3300" height="2550" version="1.1" xmlns="http://www.w3.org/2000/svg" xmlns:xlink="http://www.w3.org/1999/xlink"><g fill="none" stroke="none" stroke-width="1" stroke-linecap="butt" stroke-linejoin="miter" stroke-miterlimit="10" stroke-dasharray="none" stroke-dashoffset="0" font-family="none" font-weight="none" font-size="none" text-anchor="start" mix-blend-mode="normal"><polygon points="0,850 0,0 825,0 825,850" stroke="#000000" stroke-dasharray="1,4" font-family="sans-serif" font-weight="normal" font-size="12"/><text x="325.83984" y="497" fill="#000000" stroke-dasharray="" font-family="Times" font-weight="bold" font-size="240">X</text><g fill="#000000" stroke-dasharray="" font-family="Times" font-weight="bold" font-size="164"><text x="-199.21777" y="379.2" transform="rotate(-90) scale(1.25,1.25)">X</text><text x="11.33359" y="504.98838" transform="rotate(-60) scale(1.25,1.25)">X</text><text x="256.57061" y="508.64864" transform="rotate(-30) scale(1.25,1.25)">X</text><text x="470.78223" y="389.2" transform="rotate(0) scale(1.25,1.25)">X</text><text x="596.57061" y="178.64864" transform="rotate(30) scale(1.25,1.25)">X</text><text x="600.23086" y="-66.58838" transform="rotate(60) scale(1.25,1.25)">X</text><text x="480.78223" y="-280.8" transform="rotate(90) scale(1.25,1.25)">X</text><text x="270.23086" y="-406.58838" transform="rotate(120) scale(1.25,1.25)">X</text><text x="24.99384" y="-410.24864" transform="rotate(150) scale(1.25,1.25)">X</text><text x="-189.21777" y="-290.8" transform="rotate(-180) scale(1.25,1.25)">X</text><text x="-315.00616" y="-80.24864" transform="rotate(-150) scale(1.25,1.25)">X</text><text x="-318.66641" y="164.98838" transform="rotate(-120) scale(1.25,1.25)">X</text></g><polygon points="825,850 825,0 1650,0 1650,850" stroke="#000000" stroke-dasharray="1,4" font-family="sans-serif" font-weight="normal" font-size="12"/><text x="1150.83984" y="497" fill="#000000" stroke-dasharray="" font-family="Times" font-weight="bold" font-size="240">Y</text><g fill="#000000" stroke-dasharray="" font-family="Times" font-weight="bold" font-size="164"><text x="-199.21777" y="1039.2" transform="rotate(-90) scale(1.25,1.25)">Y</text><text x="341.33359" y="1076.56515" transform="rotate(-60) scale(1.25,1.25)">Y</text><text x="828.14738" y="838.64864" transform="rotate(-30) scale(1.25,1.25)">Y</text><text x="1130.78223" y="389.2" transform="rotate(0) scale(1.25,1.25)">Y</text><text x="1168.14738" y="-151.35136" transform="rotate(30) scale(1.25,1.25)">Y</text><text x="930.23086" y="-638.16515" transform="rotate(60) scale(1.25,1.25)">Y</text><text x="480.78223" y="-940.8" transform="rotate(90) scale(1.25,1.25)">Y</text><text x="-59.76914" y="-978.16515" transform="rotate(120) scale(1.25,1.25)">Y</text><text x="-546.58292" y="-740.24864" transform="rotate(150) scale(1.25,1.25)">Y</text><text x="-849.21777" y="-290.8" transform="rotate(-180) scale(1.25,1.25)">Y</text><text x="-886.58292" y="249.75136" transform="rotate(-150) scale(1.25,1.25)">Y</text><text x="-648.66641" y="736.56515" transform="rotate(-120) scale(1.25,1.25)">Y</text></g><polygon points="1650,850 1650,0 2475,0 2475,850" stroke="#000000" stroke-dasharray="1,4" font-family="sans-serif" font-weight="normal" font-size="12"/><text x="1982.46094" y="497" fill="#000000" stroke-dasharray="" font-family="Times" font-weight="bold" font-size="240">Z</text><g fill="#000000" stroke-dasharray="" font-family="Times" font-weight="bold" font-size="164"><text x="-194.69336" y="1699.2" transform="rotate(-90) scale(1.25,1.25)">Z</text><text x="675.858" y="1648.14192" transform="rotate(-60) scale(1.25,1.25)">Z</text><text x="1404.24856" y="1168.64864" transform="rotate(-30) scale(1.25,1.25)">Z</text><text x="1795.30664" y="389.2" transform="rotate(0) scale(1.25,1.25)">Z</text><text x="1744.24856" y="-481.35136" transform="rotate(30) scale(1.25,1.25)">Z</text><text x="1264.75528" y="-1209.74192" transform="rotate(60) scale(1.25,1.25)">Z</text><text x="485.30664" y="-1600.8" transform="rotate(90) scale(1.25,1.25)">Z</text><text x="-385.24472" y="-1549.74192" transform="rotate(120) scale(1.25,1.25)">Z</text><text x="-1113.63528" y="-1070.24864" transform="rotate(150) scale(1.25,1.25)">Z</text><text x="-1504.69336" y="-290.8" transform="rotate(-180) scale(1.25,1.25)">Z</text><text x="-1453.63528" y="579.75136" transform="rotate(-150) scale(1.25,1.25)">Z</text><text x="-974.142" y="1308.14192" transform="rotate(-120) scale(1.25,1.25)">Z</text></g></g></svg>