<svg x="0" y="0" width="3300" height="2550" version="1.1" xmlns="http://www.w3.org/2000/svg" xmlns:xlink="http://www.w3.org/1999/xlink"><g fill="none" stroke="none" stroke-width="1" stroke-linecap="butt" stroke-linejoin="miter" stroke-miterlimit="10" stroke-dasharray="none" stroke-dashoffset="0" font-family="none" font-weight="none" font-size="none" text-anchor="start" mix-blend-mode="normal"><polygon points="0,850 0,0 825,0 825,850" stroke="#000000" stroke-dasharray="1,4" font-family="sans-serif" font-weight="normal" font-size="12"/><text x="332.46094" y="497" fill="#000000" stroke-dasharray="" font-family="Times" font-weight="bold" font-size="240">L</text><g fill="#000000" stroke-dasharray="" font-family="Times" font-weight="bold" font-size="164"><text x="-194.69336" y="379.2" transform="rotate(-90) scale(1.25,1.25)">L</text><text x="15.858" y="504.98838" transform="rotate(-60) scale(1.25,1.25)">L</text><text x="261.09502" y="508.64864" transform="rotate(-30) scale(1.25,1.25)">L</text><text x="475.30664" y="389.2" transform="rotate(0) scale(1.25,1.25)">L</text><text x="601.09502" y="178.64864" transform="rotate(30) scale(1.25,1.25)">L</text><text x="604.75528" y="-66.58838" transform="rotate(60) scale(1.25,1.25)">L</text><text x="485.30664" y="-280.8" transform="rotate(90) scale(1.25,1.25)">L</text><text x="274.75528" y="-406.58838" transform="rotate(120) scale(1.25,1.25)">L</text><text x="29.51826" y="-410.24864" transform="rotate(150) scale(1.25,1.25)">L</text><text x="-184.69336" y="-290.8" transform="rotate(-180) scale(1.25,1.25)">L</text><text x="-310.48174" y="-80.24864" transform="rotate(-150) scale(1.25,1.25)">L</text><text x="-314.142" y="164.98838" transform="rotate(-120) scale(1.25,1.25)">L</text></g><polygon points="825,850 825,0 1650,0 1650,850" stroke="#000000" stroke-dasharray="1,4" font-family="sans-serif" font-weight="normal" font-size="12"/><text x="1124.23828" y="497" fill="#000000" stroke-dasharray="" font-family="Times" font-weight="bold" font-size="240">M</text><g fill="#000000" stroke-dasharray="" font-family="Times" font-weight="bold" font-size="164"><text x="-217.39551" y="1039.2" transform="rotate(-90) scale(1.25,1.25)">M</text><text x="323.15585" y="1076.56515" transform="rotate(-60) scale(1.25,1.25)">M</text><text x="809.96964" y="838.64864" transform="rotate(-30) scale(1.25,1.25)">M</text><text x="1112.60449" y="389.2" transform="rotate(0) scale(1.25,1.25)">M</text><text x="1149.96964" y="-151.35136" transform="rotate(30) scale(1.25,1.25)">M</text><text x="912.05313" y="-638.16515" transform="rotate(60) scale(1.25,1.25)">M</text><text x="462.60449" y="-940.8" transform="rotate(90) scale(1.25,1.25)">M</text><text x="-77.94687" y="-978.16515" transform="rotate(120) scale(1.25,1.25)">M</text><text x="-564.76066" y="-740.24864" transform="rotate(150) scale(1.25,1.25)">M</text><text x="-867.39551" y="-290.8" transform="rotate(-180) scale(1.25,1.25)">M</text><text x="-904.76066" y="249.75136" transform="rotate(-150) scale(1.25,1.25)">M</text><text x="-666.84415" y="736.56515" transform="rotate(-120) scale(1.25,1.25)">M</text></g><polygon points="1650,850 1650,0 2475,0 2475,850" stroke="#000000" stroke-dasharray="1,4" font-family="sans-serif" font-weight="normal" font-size="12"/><text x="1975.83984" y="497" fill="#000000" stroke-dasharray="" font-family="Times" font-weight="bold" font-size="240">N</text><g fill="#000000" stroke-dasharray="" font-family="Times" font-weight="bold" font-size="164"><text x="-199.21777" y="1699.2" transform="rotate(-90) scale(1.25,1.25)">N</text><text x="671.33359" y="1648.14192" transform="rotate(-60) scale(1.25,1.25)">N</text><text x="1399.72414" y="1168.64864" transform="rotate(-30) scale(1.25,1.25)">N</text><text x="1790.78223" y="389.2" transform="rotate(0) scale(1.25,1.25)">N</text><text x="1739.72414" y="-481.35136" transform="rotate(30) scale(1.25,1.25)">N</text><text x="1260.23086" y="-1209.74192" transform="rotate(60) scale(1.25,1.25)">N</text><text x="480.78223" y="-1600.8" transform="rotate(90) scale(1.25,1.25)">N</text><text x="-389.76914" y="-1549.74192" transform="rotate(120) scale(1.25,1.25)">N</text><text x="-1118.15969" y="-1070.24864" transform="rotate(150) scale(1.25,1.25)">N</text><text x="-1509.21777" y="-290.8" transform="rotate(-180) scale(1.25,1.25)">N</text><text x="-1458.15969" y="579.75136" transform="rotate(-150) scale(1.25,1.25)">N</text><text x="-978.66641" y="1308.14192" transform="rotate(-120) scale(1.25,1.25)">N</text></g><polygon points="2475,850 2475,0 3300,0 3300,850" stroke="#000000" stroke-dasharray="1,4" font-family="sans-serif" font-weight="normal" font-size="12"/><text x="2794.16016" y="497" fill="#000000" stroke-dasharray="" font-family="Times" font-weight="bold" font-size="240">O</text><g fill="#000000" stroke-dasharray="" font-family="Times" font-weight="bold" font-size="164"><text x="-203.78223" y="2359.2" transform="rotate(-90) scale(1.25,1.25)">O</text><text x="996.76914" y="2219.71868" transform="rotate(-60) scale(1.25,1.25)">O</text><text x="1966.73646" y="1498.64864" transform="rotate(-30) scale(1.25,1.25)">O</text><text x="2446.21777" y="389.2" transform="rotate(0) scale(1.25,1.25)">O</text><text x="2306.73646" y="-811.35136" transform="rotate(30) scale(1.25,1.25)">O</text><text x="1585.66641" y="-1781.31868" transform="rotate(60) scale(1.25,1.25)">O</text><text x="476.21777" y="-2260.8" transform="rotate(90) scale(1.25,1.25)">O</text><text x="-724.33359" y="-2121.31868" transform="rotate(120) scale(1.25,1.25)">O</text><text x="-1694.30091" y="-1400.24864" transform="rotate(150) scale(1.25,1.25)">O</text><text x="-2173.78223" y="-290.8" transform="rotate(-180) scale(1.25,1.25)">O</text><text x="-2034.30091" y="909.75136" transform="rotate(-150) scale(1.25,1.25)">O</text><text x="-1313.23086" y="1879.71868" transform="rotate(-120) scale(1.25,1.25)">O</text></g><polygon points="0,1700 0,850 825,850 825,1700" stroke="#000000" stroke-dasharray="1,4" font-family="sans-serif" font-weight="normal" font-size="12"/><text x="339.19922" y="1347" fill="#000000" stroke-dasharray="" font-family="Times" font-weight="bold" font-size="240">P</text><g fill="#000000" stroke-dasharray="" font-family="Times" font-weight="bold" font-size="164"><text x="-870.08887" y="379.2" transform="rotate(-90) scale(1.25,1.25)">P</text><text x="-568.43478" y="844.98838" transform="rotate(-60) scale(1.25,1.25)">P</text><text x="-74.30048" y="1097.54591" transform="rotate(-30) scale(1.25,1.25)">P</text><text x="479.91113" y="1069.2" transform="rotate(0) scale(1.25,1.25)">P</text><text x="945.69952" y="767.54591" transform="rotate(30) scale(1.25,1.25)">P</text><text x="1198.25704" y="273.41162" transform="rotate(60) scale(1.25,1.25)">P</text><text x="1169.91113" y="-280.8" transform="rotate(90) scale(1.25,1.25)">P</text><text x="868.25704" y="-746.58838" transform="rotate(120) scale(1.25,1.25)">P</text><text x="374.12275" y="-999.14591" transform="rotate(150) scale(1.25,1.25)">P</text><text x="-180.08887" y="-970.8" transform="rotate(-180) scale(1.25,1.25)">P</text><text x="-645.87725" y="-669.14591" transform="rotate(-150) scale(1.25,1.25)">P</text><text x="-898.43478" y="-175.01162" transform="rotate(-120) scale(1.25,1.25)">P</text></g><polygon points="825,1700 825,850 1650,850 1650,1700" stroke="#000000" stroke-dasharray="1,4" font-family="sans-serif" font-weight="normal" font-size="12"/><text x="1144.16016" y="1347" fill="#000000" stroke-dasharray="" font-family="Times" font-weight="bold" font-size="240">Q</text><g fill="#000000" stroke-dasharray="" font-family="Times" font-weight="bold" font-size="164"><text x="-883.78223" y="1039.2" transform="rotate(-90) scale(1.25,1.25)">Q</text><text x="-252.12814" y="1416.56515" transform="rotate(-60) scale(1.25,1.25)">Q</text><text x="483.58292" y="1427.54591" transform="rotate(-30) scale(1.25,1.25)">Q</text><text x="1126.21777" y="1069.2" transform="rotate(0) scale(1.25,1.25)">Q</text><text x="1503.58292" y="437.54591" transform="rotate(30) scale(1.25,1.25)">Q</text><text x="1514.56369" y="-298.16515" transform="rotate(60) scale(1.25,1.25)">Q</text><text x="1156.21777" y="-940.8" transform="rotate(90) scale(1.25,1.25)">Q</text><text x="524.56369" y="-1318.16515" transform="rotate(120) scale(1.25,1.25)">Q</text><text x="-211.14738" y="-1329.14591" transform="rotate(150) scale(1.25,1.25)">Q</text><text x="-853.78223" y="-970.8" transform="rotate(-180) scale(1.25,1.25)">Q</text><text x="-1231.14738" y="-339.14591" transform="rotate(-150) scale(1.25,1.25)">Q</text><text x="-1242.12814" y="396.56515" transform="rotate(-120) scale(1.25,1.25)">Q</text></g><polygon points="1650,1700 1650,850 2475,850 2475,1700" stroke="#000000" stroke-dasharray="1,4" font-family="sans-serif" font-weight="normal" font-size="12"/><text x="1975.83984" y="1347" fill="#000000" stroke-dasharray="" font-family="Times" font-weight="bold" font-size="240">R</text><g fill="#000000" stroke-dasharray="" font-family="Times" font-weight="bold" font-size="164"><text x="-879.21777" y="1699.2" transform="rotate(-90) scale(1.25,1.25)">R</text><text x="82.43631" y="1988.14192" transform="rotate(-60) scale(1.25,1.25)">R</text><text x="1059.72414" y="1757.54591" transform="rotate(-30) scale(1.25,1.25)">R</text><text x="1790.78223" y="1069.2" transform="rotate(0) scale(1.25,1.25)">R</text><text x="2079.72414" y="107.54591" transform="rotate(30) scale(1.25,1.25)">R</text><text x="1849.12814" y="-869.74192" transform="rotate(60) scale(1.25,1.25)">R</text><text x="1160.78223" y="-1600.8" transform="rotate(90) scale(1.25,1.25)">R</text><text x="199.12814" y="-1889.74192" transform="rotate(120) scale(1.25,1.25)">R</text><text x="-778.15969" y="-1659.14591" transform="rotate(150) scale(1.25,1.25)">R</text><text x="-1509.21777" y="-970.8" transform="rotate(-180) scale(1.25,1.25)">R</text><text x="-1798.15969" y="-9.14591" transform="rotate(-150) scale(1.25,1.25)">R</text><text x="-1567.56369" y="968.14192" transform="rotate(-120) scale(1.25,1.25)">R</text></g><polygon points="2475,1700 2475,850 3300,850 3300,1700" stroke="#000000" stroke-dasharray="1,4" font-family="sans-serif" font-weight="normal" font-size="12"/><text x="2820.76172" y="1347" fill="#000000" stroke-dasharray="" font-family="Times" font-weight="bold" font-size="240">S</text><g fill="#000000" stroke-dasharray="" font-family="Times" font-weight="bold" font-size="164"><text x="-865.60449" y="2359.2" transform="rotate(-90) scale(1.25,1.25)">S</text><text x="426.0496" y="2559.71868" transform="rotate(-60) scale(1.25,1.25)">S</text><text x="1644.91419" y="2087.54591" transform="rotate(-30) scale(1.25,1.25)">S</text><text x="2464.39551" y="1069.2" transform="rotate(0) scale(1.25,1.25)">S</text><text x="2664.91419" y="-222.45409" transform="rotate(30) scale(1.25,1.25)">S</text><text x="2192.74142" y="-1441.31868" transform="rotate(60) scale(1.25,1.25)">S</text><text x="1174.39551" y="-2260.8" transform="rotate(90) scale(1.25,1.25)">S</text><text x="-117.25858" y="-2461.31868" transform="rotate(120) scale(1.25,1.25)">S</text><text x="-1336.12317" y="-1989.14591" transform="rotate(150) scale(1.25,1.25)">S</text><text x="-2155.60449" y="-970.8" transform="rotate(-180) scale(1.25,1.25)">S</text><text x="-2356.12317" y="320.85409" transform="rotate(-150) scale(1.25,1.25)">S</text><text x="-1883.9504" y="1539.71868" transform="rotate(-120) scale(1.25,1.25)">S</text></g><polygon points="0,2550 0,1700 825,1700 825,2550" stroke="#000000" stroke-dasharray="1,4" font-family="sans-serif" font-weight="normal" font-size="12"/><text x="332.46094" y="2197" fill="#000000" stroke-dasharray="" font-family="Times" font-weight="bold" font-size="240">T</text><g fill="#000000" stroke-dasharray="" font-family="Times" font-weight="bold" font-size="164"><text x="-1554.69336" y="379.2" transform="rotate(-90) scale(1.25,1.25)">T</text><text x="-1161.93655" y="1184.98838" transform="rotate(-60) scale(1.25,1.25)">T</text><text x="-418.90498" y="1686.44319" transform="rotate(-30) scale(1.25,1.25)">T</text><text x="475.30664" y="1749.2" transform="rotate(0) scale(1.25,1.25)">T</text><text x="1281.09502" y="1356.44319" transform="rotate(30) scale(1.25,1.25)">T</text><text x="1782.54983" y="613.41162" transform="rotate(60) scale(1.25,1.25)">T</text><text x="1845.30664" y="-280.8" transform="rotate(90) scale(1.25,1.25)">T</text><text x="1452.54983" y="-1086.58838" transform="rotate(120) scale(1.25,1.25)">T</text><text x="709.51826" y="-1588.04319" transform="rotate(150) scale(1.25,1.25)">T</text><text x="-184.69336" y="-1650.8" transform="rotate(-180) scale(1.25,1.25)">T</text><text x="-990.48174" y="-1258.04319" transform="rotate(-150) scale(1.25,1.25)">T</text><text x="-1491.93655" y="-515.01162" transform="rotate(-120) scale(1.25,1.25)">T</text></g><polygon points="825,2550 825,1700 1650,1700 1650,2550" stroke="#000000" stroke-dasharray="1,4" font-family="sans-serif" font-weight="normal" font-size="12"/><text x="1150.83984" y="2197" fill="#000000" stroke-dasharray="" font-family="Times" font-weight="bold" font-size="240">U</text><g fill="#000000" stroke-dasharray="" font-family="Times" font-weight="bold" font-size="164"><text x="-1559.21777" y="1039.2" transform="rotate(-90) scale(1.25,1.25)">U</text><text x="-836.46096" y="1756.56515" transform="rotate(-60) scale(1.25,1.25)">U</text><text x="148.14738" y="2016.44319" transform="rotate(-30) scale(1.25,1.25)">U</text><text x="1130.78223" y="1749.2" transform="rotate(0) scale(1.25,1.25)">U</text><text x="1848.14738" y="1026.44319" transform="rotate(30) scale(1.25,1.25)">U</text><text x="2108.02541" y="41.83485" transform="rotate(60) scale(1.25,1.25)">U</text><text x="1840.78223" y="-940.8" transform="rotate(90) scale(1.25,1.25)">U</text><text x="1118.02541" y="-1658.16515" transform="rotate(120) scale(1.25,1.25)">U</text><text x="133.41708" y="-1918.04319" transform="rotate(150) scale(1.25,1.25)">U</text><text x="-849.21777" y="-1650.8" transform="rotate(-180) scale(1.25,1.25)">U</text><text x="-1566.58292" y="-928.04319" transform="rotate(-150) scale(1.25,1.25)">U</text><text x="-1826.46096" y="56.56515" transform="rotate(-120) scale(1.25,1.25)">U</text></g><polygon points="1650,2550 1650,1700 2475,1700 2475,2550" stroke="#000000" stroke-dasharray="1,4" font-family="sans-serif" font-weight="normal" font-size="12"/><text x="1975.83984" y="2197" fill="#000000" stroke-dasharray="" font-family="Times" font-weight="bold" font-size="240">V</text><g fill="#000000" stroke-dasharray="" font-family="Times" font-weight="bold" font-size="164"><text x="-1559.21777" y="1699.2" transform="rotate(-90) scale(1.25,1.25)">V</text><text x="-506.46096" y="2328.14192" transform="rotate(-60) scale(1.25,1.25)">V</text><text x="719.72414" y="2346.44319" transform="rotate(-30) scale(1.25,1.25)">V</text><text x="1790.78223" y="1749.2" transform="rotate(0) scale(1.25,1.25)">V</text><text x="2419.72414" y="696.44319" transform="rotate(30) scale(1.25,1.25)">V</text><text x="2438.02541" y="-529.74192" transform="rotate(60) scale(1.25,1.25)">V</text><text x="1840.78223" y="-1600.8" transform="rotate(90) scale(1.25,1.25)">V</text><text x="788.02541" y="-2229.74192" transform="rotate(120) scale(1.25,1.25)">V</text><text x="-438.15969" y="-2248.04319" transform="rotate(150) scale(1.25,1.25)">V</text><text x="-1509.21777" y="-1650.8" transform="rotate(-180) scale(1.25,1.25)">V</text><text x="-2138.15969" y="-598.04319" transform="rotate(-150) scale(1.25,1.25)">V</text><text x="-2156.46096" y="628.14192" transform="rotate(-120) scale(1.25,1.25)">V</text></g><polygon points="2475,2550 2475,1700 3300,1700 3300,2550" stroke="#000000" stroke-dasharray="1,4" font-family="sans-serif" font-weight="normal" font-size="12"/><text x="2767.5" y="2197" fill="#000000" stroke-dasharray="" font-family="Times" font-weight="bold" font-size="240">W</text><g fill="#000000" stroke-dasharray="" font-family="Times" font-weight="bold" font-size="164"><text x="-1582" y="2359.2" transform="rotate(-90) scale(1.25,1.25)">W</text><text x="-199.24319" y="2899.71868" transform="rotate(-60) scale(1.25,1.25)">W</text><text x="1268.51868" y="2676.44319" transform="rotate(-30) scale(1.25,1.25)">W</text><text x="2428" y="1749.2" transform="rotate(0) scale(1.25,1.25)">W</text><text x="2968.51868" y="366.44319" transform="rotate(30) scale(1.25,1.25)">W</text><text x="2745.24319" y="-1101.31868" transform="rotate(60) scale(1.25,1.25)">W</text><text x="1818" y="-2260.8" transform="rotate(90) scale(1.25,1.25)">W</text><text x="435.24319" y="-2801.31868" transform="rotate(120) scale(1.25,1.25)">W</text><text x="-1032.51868" y="-2578.04319" transform="rotate(150) scale(1.25,1.25)">W</text><text x="-2192" y="-1650.8" transform="rotate(-180) scale(1.25,1.25)">W</text><text x="-2732.51868" y="-268.04319" transform="rotate(-150) scale(1.25,1.25)">W</text><text x="-2509.24319" y="1199.71868" transform="rotate(-120) scale(1.25,1.25)">W</text></g></g></svg>