<svg x="0" y="0" width="3300" height="2550" version="1.1" xmlns="http://www.w3.org/2000/svg" xmlns:xlink="http://www.w3.org/1999/xlink"><g fill="none" stroke="none" stroke-width="1" stroke-linecap="butt" stroke-linejoin="miter" stroke-miterlimit="10" stroke-dasharray="none" stroke-dashoffset="0" font-family="none" font-weight="none" font-size="none" text-anchor="start" mix-blend-mode="normal"><polygon points="0,850 0,0 825,0 825,850" stroke="#000000" stroke-dasharray="1,4" font-family="sans-serif" font-weight="normal" font-size="12"/><text x="352.5" y="497" fill="#000000" stroke-dasharray="" font-family="Times" font-weight="bold" font-size="240">?</text><g fill="#000000" stroke-dasharray="" font-family="Times" font-weight="bold" font-size="164"><text x="-181" y="379.2" transform="rotate(-90) scale(1.25,1.25)">?</text><text x="29.55136" y="504.98838" transform="rotate(-60) scale(1.25,1.25)">?</text><text x="274.78838" y="508.64864" transform="rotate(-30) scale(1.25,1.25)">?</text><text x="489" y="389.2" transform="rotate(0) scale(1.25,1.25)">?</text><text x="614.78838" y="178.64864" transform="rotate(30) scale(1.25,1.25)">?</text><text x="618.44864" y="-66.58838" transform="rotate(60) scale(1.25,1.25)">?</text><text x="499" y="-280.8" transform="rotate(90) scale(1.25,1.25)">?</text><text x="288.44864" y="-406.58838" transform="rotate(120) scale(1.25,1.25)">?</text><text x="43.21162" y="-410.24864" transform="rotate(150) scale(1.25,1.25)">?</text><text x="-171" y="-290.8" transform="rotate(-180) scale(1.25,1.25)">?</text><text x="-296.78838" y="-80.24864" transform="rotate(-150) scale(1.25,1.25)">?</text><text x="-300.44864" y="164.98838" transform="rotate(-120) scale(1.25,1.25)">?</text></g><polygon points="825,850 825,0 1650,0 1650,850" stroke="#000000" stroke-dasharray="1,4" font-family="sans-serif" font-weight="normal" font-size="12"/><text x="1150.83984" y="497" fill="#000000" stroke-dasharray="" font-family="Times" font-weight="bold" font-size="240">A</text><g fill="#000000" stroke-dasharray="" font-family="Times" font-weight="bold" font-size="164"><text x="-199.21777" y="1039.2" transform="rotate(-90) scale(1.25,1.25)">A</text><text x="341.33359" y="1076.56515" transform="rotate(-60) scale(1.25,1.25)">A</text><text x="828.14738" y="838.64864" transform="rotate(-30) scale(1.25,1.25)">A</text><text x="1130.78223" y="389.2" transform="rotate(0) scale(1.25,1.25)">A</text><text x="1168.14738" y="-151.35136" transform="rotate(30) scale(1.25,1.25)">A</text><text x="930.23086" y="-638.16515" transform="rotate(60) scale(1.25,1.25)">A</text><text x="480.78223" y="-940.8" transform="rotate(90) scale(1.25,1.25)">A</text><text x="-59.76914" y="-978.16515" transform="rotate(120) scale(1.25,1.25)">A</text><text x="-546.58292" y="-740.24864" transform="rotate(150) scale(1.25,1.25)">A</text><text x="-849.21777" y="-290.8" transform="rotate(-180) scale(1.25,1.25)">A</text><text x="-886.58292" y="249.75136" transform="rotate(-150) scale(1.25,1.25)">A</text><text x="-648.66641" y="736.56515" transform="rotate(-120) scale(1.25,1.25)">A</text></g><polygon points="1650,850 1650,0 2475,0 2475,850" stroke="#000000" stroke-dasharray="1,4" font-family="sans-serif" font-weight="normal" font-size="12"/><text x="1982.46094" y="497" fill="#000000" stroke-dasharray="" font-family="Times" font-weight="bold" font-size="240">B</text><g fill="#000000" stroke-dasharray="" font-family="Times" font-weight="bold" font-size="164"><text x="-194.69336" y="1699.2" transform="rotate(-90) scale(1.25,1.25)">B</text><text x="675.858" y="1648.14192" transform="rotate(-60) scale(1.25,1.25)">B</text><text x="1404.24856" y="1168.64864" transform="rotate(-30) scale(1.25,1.25)">B</text><text x="1795.30664" y="389.2" transform="rotate(0) scale(1.25,1.25)">B</text><text x="1744.24856" y="-481.35136" transform="rotate(30) scale(1.25,1.25)">B</text><text x="1264.75528" y="-1209.74192" transform="rotate(60) scale(1.25,1.25)">B</text><text x="485.30664" y="-1600.8" transform="rotate(90) scale(1.25,1.25)">B</text><text x="-385.24472" y="-1549.74192" transform="rotate(120) scale(1.25,1.25)">B</text><text x="-1113.63528" y="-1070.24864" transform="rotate(150) scale(1.25,1.25)">B</text><text x="-1504.69336" y="-290.8" transform="rotate(-180) scale(1.25,1.25)">B</text><text x="-1453.63528" y="579.75136" transform="rotate(-150) scale(1.25,1.25)">B</text><text x="-974.142" y="1308.14192" transform="rotate(-120) scale(1.25,1.25)">B</text></g><polygon points="2475,850 2475,0 3300,0 3300,850" stroke="#000000" stroke-dasharray="1,4" font-family="sans-serif" font-weight="normal" font-size="12"/><text x="2800.83984" y="497" fill="#000000" stroke-dasharray="" font-family="Times" font-weight="bold" font-size="240">C</text><g fill="#000000" stroke-dasharray="" font-family="Times" font-weight="bold" font-size="164"><text x="-199.21777" y="2359.2" transform="rotate(-90) scale(1.25,1.25)">C</text><text x="1001.33359" y="2219.71868" transform="rotate(-60) scale(1.25,1.25)">C</text><text x="1971.30091" y="1498.64864" transform="rotate(-30) scale(1.25,1.25)">C</text><text x="2450.78223" y="389.2" transform="rotate(0) scale(1.25,1.25)">C</text><text x="2311.30091" y="-811.35136" transform="rotate(30) scale(1.25,1.25)">C</text><text x="1590.23086" y="-1781.31868" transform="rotate(60) scale(1.25,1.25)">C</text><text x="480.78223" y="-2260.8" transform="rotate(90) scale(1.25,1.25)">C</text><text x="-719.76914" y="-2121.31868" transform="rotate(120) scale(1.25,1.25)">C</text><text x="-1689.73646" y="-1400.24864" transform="rotate(150) scale(1.25,1.25)">C</text><text x="-2169.21777" y="-290.8" transform="rotate(-180) scale(1.25,1.25)">C</text><text x="-2029.73646" y="909.75136" transform="rotate(-150) scale(1.25,1.25)">C</text><text x="-1308.66641" y="1879.71868" transform="rotate(-120) scale(1.25,1.25)">C</text></g><polygon points="0,1700 0,850 825,850 825,1700" stroke="#000000" stroke-dasharray="1,4" font-family="sans-serif" font-weight="normal" font-size="12"/><text x="325.83984" y="1347" fill="#000000" stroke-dasharray="" font-family="Times" font-weight="bold" font-size="240">D</text><g fill="#000000" stroke-dasharray="" font-family="Times" font-weight="bold" font-size="164"><text x="-879.21777" y="379.2" transform="rotate(-90) scale(1.25,1.25)">D</text><text x="-577.56369" y="844.98838" transform="rotate(-60) scale(1.25,1.25)">D</text><text x="-83.42939" y="1097.54591" transform="rotate(-30) scale(1.25,1.25)">D</text><text x="470.78223" y="1069.2" transform="rotate(0) scale(1.25,1.25)">D</text><text x="936.57061" y="767.54591" transform="rotate(30) scale(1.25,1.25)">D</text><text x="1189.12814" y="273.41162" transform="rotate(60) scale(1.25,1.25)">D</text><text x="1160.78223" y="-280.8" transform="rotate(90) scale(1.25,1.25)">D</text><text x="859.12814" y="-746.58838" transform="rotate(120) scale(1.25,1.25)">D</text><text x="364.99384" y="-999.14591" transform="rotate(150) scale(1.25,1.25)">D</text><text x="-189.21777" y="-970.8" transform="rotate(-180) scale(1.25,1.25)">D</text><text x="-655.00616" y="-669.14591" transform="rotate(-150) scale(1.25,1.25)">D</text><text x="-907.56369" y="-175.01162" transform="rotate(-120) scale(1.25,1.25)">D</text></g><polygon points="825,1700 825,850 1650,850 1650,1700" stroke="#000000" stroke-dasharray="1,4" font-family="sans-serif" font-weight="normal" font-size="12"/><text x="1157.46094" y="1347" fill="#000000" stroke-dasharray="" font-family="Times" font-weight="bold" font-size="240">E</text><g fill="#000000" stroke-dasharray="" font-family="Times" font-weight="bold" font-size="164"><text x="-874.69336" y="1039.2" transform="rotate(-90) scale(1.25,1.25)">E</text><text x="-243.03927" y="1416.56515" transform="rotate(-60) scale(1.25,1.25)">E</text><text x="492.67179" y="1427.54591" transform="rotate(-30) scale(1.25,1.25)">E</text><text x="1135.30664" y="1069.2" transform="rotate(0) scale(1.25,1.25)">E</text><text x="1512.67179" y="437.54591" transform="rotate(30) scale(1.25,1.25)">E</text><text x="1523.65255" y="-298.16515" transform="rotate(60) scale(1.25,1.25)">E</text><text x="1165.30664" y="-940.8" transform="rotate(90) scale(1.25,1.25)">E</text><text x="533.65255" y="-1318.16515" transform="rotate(120) scale(1.25,1.25)">E</text><text x="-202.05851" y="-1329.14591" transform="rotate(150) scale(1.25,1.25)">E</text><text x="-844.69336" y="-970.8" transform="rotate(-180) scale(1.25,1.25)">E</text><text x="-1222.05851" y="-339.14591" transform="rotate(-150) scale(1.25,1.25)">E</text><text x="-1233.03927" y="396.56515" transform="rotate(-120) scale(1.25,1.25)">E</text></g><polygon points="1650,1700 1650,850 2475,850 2475,1700" stroke="#000000" stroke-dasharray="1,4" font-family="sans-serif" font-weight="normal" font-size="12"/><text x="1989.19922" y="1347" fill="#000000" stroke-dasharray="" font-family="Times" font-weight="bold" font-size="240">F</text><g fill="#000000" stroke-dasharray="" font-family="Times" font-weight="bold" font-size="164"><text x="-870.08887" y="1699.2" transform="rotate(-90) scale(1.25,1.25)">F</text><text x="91.56522" y="1988.14192" transform="rotate(-60) scale(1.25,1.25)">F</text><text x="1068.85305" y="1757.54591" transform="rotate(-30) scale(1.25,1.25)">F</text><text x="1799.91113" y="1069.2" transform="rotate(0) scale(1.25,1.25)">F</text><text x="2088.85305" y="107.54591" transform="rotate(30) scale(1.25,1.25)">F</text><text x="1858.25704" y="-869.74192" transform="rotate(60) scale(1.25,1.25)">F</text><text x="1169.91113" y="-1600.8" transform="rotate(90) scale(1.25,1.25)">F</text><text x="208.25704" y="-1889.74192" transform="rotate(120) scale(1.25,1.25)">F</text><text x="-769.03078" y="-1659.14591" transform="rotate(150) scale(1.25,1.25)">F</text><text x="-1500.08887" y="-970.8" transform="rotate(-180) scale(1.25,1.25)">F</text><text x="-1789.03078" y="-9.14591" transform="rotate(-150) scale(1.25,1.25)">F</text><text x="-1558.43478" y="968.14192" transform="rotate(-120) scale(1.25,1.25)">F</text></g><polygon points="2475,1700 2475,850 3300,850 3300,1700" stroke="#000000" stroke-dasharray="1,4" font-family="sans-serif" font-weight="normal" font-size="12"/><text x="2794.16016" y="1347" fill="#000000" stroke-dasharray="" font-family="Times" font-weight="bold" font-size="240">G</text><g fill="#000000" stroke-dasharray="" font-family="Times" font-weight="bold" font-size="164"><text x="-883.78223" y="2359.2" transform="rotate(-90) scale(1.25,1.25)">G</text><text x="407.87186" y="2559.71868" transform="rotate(-60) scale(1.25,1.25)">G</text><text x="1626.73646" y="2087.54591" transform="rotate(-30) scale(1.25,1.25)">G</text><text x="2446.21777" y="1069.2" transform="rotate(0) scale(1.25,1.25)">G</text><text x="2646.73646" y="-222.45409" transform="rotate(30) scale(1.25,1.25)">G</text><text x="2174.56369" y="-1441.31868" transform="rotate(60) scale(1.25,1.25)">G</text><text x="1156.21777" y="-2260.8" transform="rotate(90) scale(1.25,1.25)">G</text><text x="-135.43631" y="-2461.31868" transform="rotate(120) scale(1.25,1.25)">G</text><text x="-1354.30091" y="-1989.14591" transform="rotate(150) scale(1.25,1.25)">G</text><text x="-2173.78223" y="-970.8" transform="rotate(-180) scale(1.25,1.25)">G</text><text x="-2374.30091" y="320.85409" transform="rotate(-150) scale(1.25,1.25)">G</text><text x="-1902.12814" y="1539.71868" transform="rotate(-120) scale(1.25,1.25)">G</text></g><polygon points="0,2550 0,1700 825,1700 825,2550" stroke="#000000" stroke-dasharray="1,4" font-family="sans-serif" font-weight="normal" font-size="12"/><text x="319.16016" y="2197" fill="#000000" stroke-dasharray="" font-family="Times" font-weight="bold" font-size="240">H</text><g fill="#000000" stroke-dasharray="" font-family="Times" font-weight="bold" font-size="164"><text x="-1563.78223" y="379.2" transform="rotate(-90) scale(1.25,1.25)">H</text><text x="-1171.02541" y="1184.98838" transform="rotate(-60) scale(1.25,1.25)">H</text><text x="-427.99384" y="1686.44319" transform="rotate(-30) scale(1.25,1.25)">H</text><text x="466.21777" y="1749.2" transform="rotate(0) scale(1.25,1.25)">H</text><text x="1272.00616" y="1356.44319" transform="rotate(30) scale(1.25,1.25)">H</text><text x="1773.46096" y="613.41162" transform="rotate(60) scale(1.25,1.25)">H</text><text x="1836.21777" y="-280.8" transform="rotate(90) scale(1.25,1.25)">H</text><text x="1443.46096" y="-1086.58838" transform="rotate(120) scale(1.25,1.25)">H</text><text x="700.42939" y="-1588.04319" transform="rotate(150) scale(1.25,1.25)">H</text><text x="-193.78223" y="-1650.8" transform="rotate(-180) scale(1.25,1.25)">H</text><text x="-999.57061" y="-1258.04319" transform="rotate(-150) scale(1.25,1.25)">H</text><text x="-1501.02541" y="-515.01162" transform="rotate(-120) scale(1.25,1.25)">H</text></g><polygon points="825,2550 825,1700 1650,1700 1650,2550" stroke="#000000" stroke-dasharray="1,4" font-family="sans-serif" font-weight="normal" font-size="12"/><text x="1190.80078" y="2197" fill="#000000" stroke-dasharray="" font-family="Times" font-weight="bold" font-size="240">I</text><g fill="#000000" stroke-dasharray="" font-family="Times" font-weight="bold" font-size="164"><text x="-1531.91113" y="1039.2" transform="rotate(-90) scale(1.25,1.25)">I</text><text x="-809.15432" y="1756.56515" transform="rotate(-60) scale(1.25,1.25)">I</text><text x="175.45402" y="2016.44319" transform="rotate(-30) scale(1.25,1.25)">I</text><text x="1158.08887" y="1749.2" transform="rotate(0) scale(1.25,1.25)">I</text><text x="1875.45402" y="1026.44319" transform="rotate(30) scale(1.25,1.25)">I</text><text x="2135.33205" y="41.83485" transform="rotate(60) scale(1.25,1.25)">I</text><text x="1868.08887" y="-940.8" transform="rotate(90) scale(1.25,1.25)">I</text><text x="1145.33205" y="-1658.16515" transform="rotate(120) scale(1.25,1.25)">I</text><text x="160.72372" y="-1918.04319" transform="rotate(150) scale(1.25,1.25)">I</text><text x="-821.91113" y="-1650.8" transform="rotate(-180) scale(1.25,1.25)">I</text><text x="-1539.27628" y="-928.04319" transform="rotate(-150) scale(1.25,1.25)">I</text><text x="-1799.15432" y="56.56515" transform="rotate(-120) scale(1.25,1.25)">I</text></g><polygon points="1650,2550 1650,1700 2475,1700 2475,2550" stroke="#000000" stroke-dasharray="1,4" font-family="sans-serif" font-weight="normal" font-size="12"/><text x="2002.5" y="2197" fill="#000000" stroke-dasharray="" font-family="Times" font-weight="bold" font-size="240">J</text><g fill="#000000" stroke-dasharray="" font-family="Times" font-weight="bold" font-size="164"><text x="-1541" y="1699.2" transform="rotate(-90) scale(1.25,1.25)">J</text><text x="-488.24319" y="2328.14192" transform="rotate(-60) scale(1.25,1.25)">J</text><text x="737.94192" y="2346.44319" transform="rotate(-30) scale(1.25,1.25)">J</text><text x="1809" y="1749.2" transform="rotate(0) scale(1.25,1.25)">J</text><text x="2437.94192" y="696.44319" transform="rotate(30) scale(1.25,1.25)">J</text><text x="2456.24319" y="-529.74192" transform="rotate(60) scale(1.25,1.25)">J</text><text x="1859" y="-1600.8" transform="rotate(90) scale(1.25,1.25)">J</text><text x="806.24319" y="-2229.74192" transform="rotate(120) scale(1.25,1.25)">J</text><text x="-419.94192" y="-2248.04319" transform="rotate(150) scale(1.25,1.25)">J</text><text x="-1491" y="-1650.8" transform="rotate(-180) scale(1.25,1.25)">J</text><text x="-2119.94192" y="-598.04319" transform="rotate(-150) scale(1.25,1.25)">J</text><text x="-2138.24319" y="628.14192" transform="rotate(-120) scale(1.25,1.25)">J</text></g><polygon points="2475,2550 2475,1700 3300,1700 3300,2550" stroke="#000000" stroke-dasharray="1,4" font-family="sans-serif" font-weight="normal" font-size="12"/><text x="2794.16016" y="2197" fill="#000000" stroke-dasharray="" font-family="Times" font-weight="bold" font-size="240">K</text><g fill="#000000" stroke-dasharray="" font-family="Times" font-weight="bold" font-size="164"><text x="-1563.78223" y="2359.2" transform="rotate(-90) scale(1.25,1.25)">K</text><text x="-181.02541" y="2899.71868" transform="rotate(-60) scale(1.25,1.25)">K</text><text x="1286.73646" y="2676.44319" transform="rotate(-30) scale(1.25,1.25)">K</text><text x="2446.21777" y="1749.2" transform="rotate(0) scale(1.25,1.25)">K</text><text x="2986.73646" y="366.44319" transform="rotate(30) scale(1.25,1.25)">K</text><text x="2763.46096" y="-1101.31868" transform="rotate(60) scale(1.25,1.25)">K</text><text x="1836.21777" y="-2260.8" transform="rotate(90) scale(1.25,1.25)">K</text><text x="453.46096" y="-2801.31868" transform="rotate(120) scale(1.25,1.25)">K</text><text x="-1014.30091" y="-2578.04319" transform="rotate(150) scale(1.25,1.25)">K</text><text x="-2173.78223" y="-1650.8" transform="rotate(-180) scale(1.25,1.25)">K</text><text x="-2714.30091" y="-268.04319" transform="rotate(-150) scale(1.25,1.25)">K</text><text x="-2491.02541" y="1199.71868" transform="rotate(-120) scale(1.25,1.25)">K</text></g></g></svg>