<svg x="0" y="0" width="1100" height="850" version="1.1" xmlns="http://www.w3.org/2000/svg" xmlns:xlink="http://www.w3.org/1999/xlink"><g fill="none" stroke="none" stroke-width="none" stroke-linecap="none" stroke-linejoin="miter" stroke-miterlimit="10" stroke-dasharray="" stroke-dashoffset="0" font-family="sans-serif" font-size="12" text-anchor="start" mix-blend-mode="normal"><rect x="20" y="25" width="510" height="800" fill="#000000" stroke-width="1" stroke-linecap="butt"/><g stroke-width="1" stroke-linecap="butt"/><rect x="-215" y="-120" transform="rotate(180)" width="95" height="19" stroke="#000000" stroke-width="0.5" stroke-linecap="butt" opacity="0"/><g stroke="#ffffff" stroke-width="0.5" stroke-linecap="round"><circle cx="-110.5" cy="167.5" transform="rotate(-90)" r="20" data-paper-data="{&quot;index&quot;:0}"/></g><rect x="-430" y="-120" transform="rotate(180)" width="95" height="19" stroke="#000000" stroke-width="0.5" stroke-linecap="butt" opacity="0"/><g stroke="#ffffff" stroke-width="0.5" stroke-linecap="round"><circle cx="-382.5" cy="-110.5" transform="rotate(180)" r="20" data-paper-data="{&quot;index&quot;:0}"/></g><rect x="-215" y="-221" transform="rotate(180)" width="95" height="19" stroke="#000000" stroke-width="0.5" stroke-linecap="butt" opacity="0"/><g stroke="#ffffff" stroke-width="0.5" stroke-linecap="round"><circle cx="-211.5" cy="167.5" transform="rotate(-90)" r="20" data-paper-data="{&quot;index&quot;:0}"/><circle cx="-191.5" cy="167.5" transform="rotate(-90)" r="20" data-paper-data="{&quot;index&quot;:1}"/></g><rect x="-430" y="-221" transform="rotate(180)" width="95" height="19" stroke="#000000" stroke-width="0.5" stroke-linecap="butt" opacity="0"/><g stroke="#ffffff" stroke-width="0.5" stroke-linecap="round"><circle cx="-211.5" cy="382.5" transform="rotate(-90)" r="20" data-paper-data="{&quot;index&quot;:0}"/><circle cx="-191.5" cy="382.5" transform="rotate(-90)" r="20" data-paper-data="{&quot;index&quot;:1}"/></g><rect x="-215" y="-322" transform="rotate(180)" width="95" height="19" stroke="#000000" stroke-width="0.5" stroke-linecap="butt" opacity="0"/><g stroke="#ffffff" stroke-width="0.5" stroke-linecap="round"><circle cx="-312.5" cy="167.5" transform="rotate(-90)" r="20" data-paper-data="{&quot;index&quot;:0}"/><circle cx="-292.5" cy="167.5" transform="rotate(-90)" r="20" data-paper-data="{&quot;index&quot;:1}"/><circle cx="-302.5" cy="184.82143" transform="rotate(-90)" r="20" data-paper-data="{&quot;index&quot;:2}"/></g><rect x="-430" y="-322" transform="rotate(180)" width="95" height="19" stroke="#000000" stroke-width="0.5" stroke-linecap="butt" opacity="0"/><g stroke="#ffffff" stroke-width="0.5" stroke-linecap="round"><circle cx="-461.88294" cy="175.00472" transform="rotate(-120)" r="20" data-paper-data="{&quot;index&quot;:0}"/><circle cx="-441.88214" cy="175.00518" transform="rotate(-120)" r="20" data-paper-data="{&quot;index&quot;:1}"/><circle cx="-451.88214" cy="192.32569" transform="rotate(-120)" r="20" data-paper-data="{&quot;index&quot;:2}"/></g><rect x="-215" y="-423" transform="rotate(180)" width="95" height="19" stroke="#000000" stroke-width="0.5" stroke-linecap="butt" opacity="0"/><g stroke="#ffffff" stroke-width="0.5" stroke-linecap="round"><circle cx="-413.5" cy="167.5" transform="rotate(-90)" r="20" data-paper-data="{&quot;index&quot;:0}"/><circle cx="-393.5" cy="167.5" transform="rotate(-90)" r="20" data-paper-data="{&quot;index&quot;:1}"/><circle cx="-403.5" cy="184.82143" transform="rotate(-90)" r="20" data-paper-data="{&quot;index&quot;:2}"/><circle cx="-423.5" cy="184.82143" transform="rotate(-90)" r="20" data-paper-data="{&quot;index&quot;:3}"/></g><rect x="-430" y="-423" transform="rotate(180)" width="95" height="19" stroke="#000000" stroke-width="0.5" stroke-linecap="butt" opacity="0"/><g stroke="#ffffff" stroke-width="0.5" stroke-linecap="round"><circle cx="-538.00472" cy="-166.8515" transform="rotate(-150)" r="20" data-paper-data="{&quot;index&quot;:0}"/><circle cx="-518.00392" cy="-166.85196" transform="rotate(-150)" r="20" data-paper-data="{&quot;index&quot;:1}"/><circle cx="-528.00472" cy="-149.531" transform="rotate(-150)" r="20" data-paper-data="{&quot;index&quot;:2}"/><circle cx="-548.00551" cy="-149.53054" transform="rotate(-150)" r="20" data-paper-data="{&quot;index&quot;:3}"/></g><rect x="-215" y="-524" transform="rotate(180)" width="95" height="19" stroke="#000000" stroke-width="0.5" stroke-linecap="butt" opacity="0"/><g stroke="#ffffff" stroke-width="0.5" stroke-linecap="round"><circle cx="-514.5" cy="167.5" transform="rotate(-90)" r="20" data-paper-data="{&quot;index&quot;:0}"/><circle cx="-494.5" cy="167.5" transform="rotate(-90)" r="20" data-paper-data="{&quot;index&quot;:1}"/><circle cx="-504.5" cy="184.82143" transform="rotate(-90)" r="20" data-paper-data="{&quot;index&quot;:2}"/><circle cx="-524.5" cy="184.82143" transform="rotate(-90)" r="20" data-paper-data="{&quot;index&quot;:3}"/><circle cx="-534.5" cy="167.5" transform="rotate(-90)" r="20" data-paper-data="{&quot;index&quot;:4}"/></g><rect x="-430" y="-524" transform="rotate(180)" width="95" height="19" stroke="#000000" stroke-width="0.5" stroke-linecap="butt" opacity="0"/><g stroke="#ffffff" stroke-width="0.5" stroke-linecap="round"><circle cx="-382.5" cy="-514.5" transform="rotate(180)" r="20" data-paper-data="{&quot;index&quot;:0}"/><circle cx="-362.5" cy="-514.5" transform="rotate(180)" r="20" data-paper-data="{&quot;index&quot;:1}"/><circle cx="-372.5" cy="-497.17857" transform="rotate(180)" r="20" data-paper-data="{&quot;index&quot;:2}"/><circle cx="-392.5" cy="-497.17857" transform="rotate(180)" r="20" data-paper-data="{&quot;index&quot;:3}"/><circle cx="-402.5" cy="-514.5" transform="rotate(180)" r="20" data-paper-data="{&quot;index&quot;:4}"/></g><rect x="-215" y="-625" transform="rotate(180)" width="95" height="19" stroke="#000000" stroke-width="0.5" stroke-linecap="butt" opacity="0"/><g stroke="#ffffff" stroke-width="0.5" stroke-linecap="round"><circle cx="-615.5" cy="167.5" transform="rotate(-90)" r="20" data-paper-data="{&quot;index&quot;:0}"/><circle cx="-595.5" cy="167.5" transform="rotate(-90)" r="20" data-paper-data="{&quot;index&quot;:1}"/><circle cx="-605.5" cy="184.82143" transform="rotate(-90)" r="20" data-paper-data="{&quot;index&quot;:2}"/><circle cx="-625.5" cy="184.82143" transform="rotate(-90)" r="20" data-paper-data="{&quot;index&quot;:3}"/><circle cx="-635.5" cy="167.5" transform="rotate(-90)" r="20" data-paper-data="{&quot;index&quot;:4}"/><circle cx="-625.5" cy="150.17857" transform="rotate(-90)" r="20" data-paper-data="{&quot;index&quot;:5}"/></g><rect x="-430" y="-625" transform="rotate(180)" width="95" height="19" stroke="#000000" stroke-width="0.5" stroke-linecap="butt" opacity="0"/><g stroke="#ffffff" stroke-width="0.5" stroke-linecap="round"><circle cx="-23.50472" cy="-724.28864" transform="rotate(150)" r="20" data-paper-data="{&quot;index&quot;:0}"/><circle cx="-3.50392" cy="-724.28818" transform="rotate(150)" r="20" data-paper-data="{&quot;index&quot;:1}"/><circle cx="-13.50392" cy="-706.96767" transform="matrix(-0.8660254037844379,0.5000000000000011,-0.5000000000000011,-0.8660254037844379,0,0)" r="20" data-paper-data="{&quot;index&quot;:2}"/><circle cx="-33.50472" cy="-706.96813" transform="matrix(-0.8660254037844379,0.5000000000000011,-0.5000000000000011,-0.8660254037844379,0,0)" r="20" data-paper-data="{&quot;index&quot;:3}"/><circle cx="-43.50551" cy="-724.2891" transform="rotate(150)" r="20" data-paper-data="{&quot;index&quot;:4}"/><circle cx="-33.50551" cy="-741.6096" transform="matrix(-0.8660254037844379,0.5000000000000011,-0.5000000000000011,-0.8660254037844379,0,0)" r="20" data-paper-data="{&quot;index&quot;:5}"/></g><rect x="-215" y="-726" transform="rotate(180)" width="95" height="19" stroke="#000000" stroke-width="0.5" stroke-linecap="butt" opacity="0"/><g stroke="#ffffff" stroke-width="0.5" stroke-linecap="round"><circle cx="-716.5" cy="167.5" transform="rotate(-90)" r="20" data-paper-data="{&quot;index&quot;:0}"/><circle cx="-696.5" cy="167.5" transform="rotate(-90)" r="20" data-paper-data="{&quot;index&quot;:1}"/><circle cx="-706.5" cy="184.82143" transform="rotate(-90)" r="20" data-paper-data="{&quot;index&quot;:2}"/><circle cx="-726.5" cy="184.82143" transform="rotate(-90)" r="20" data-paper-data="{&quot;index&quot;:3}"/><circle cx="-736.5" cy="167.5" transform="rotate(-90)" r="20" data-paper-data="{&quot;index&quot;:4}"/><circle cx="-726.5" cy="150.17857" transform="rotate(-90)" r="20" data-paper-data="{&quot;index&quot;:5}"/><circle cx="-706.5" cy="150.17857" transform="rotate(-90)" r="20" data-paper-data="{&quot;index&quot;:6}"/></g><rect x="-430" y="-726" transform="rotate(180)" width="95" height="19" stroke="#000000" stroke-width="0.5" stroke-linecap="butt" opacity="0"/><g stroke="#ffffff" stroke-width="0.5" stroke-linecap="round"><circle cx="-689.50472" cy="-429.2572" transform="rotate(-150)" r="20" data-paper-data="{&quot;index&quot;:0}"/><circle cx="-669.50392" cy="-429.25766" transform="rotate(-150)" r="20" data-paper-data="{&quot;index&quot;:1}"/><circle cx="-679.50472" cy="-411.93669" transform="rotate(-150)" r="20" data-paper-data="{&quot;index&quot;:2}"/><circle cx="-699.50551" cy="-411.93623" transform="rotate(-150)" r="20" data-paper-data="{&quot;index&quot;:3}"/><circle cx="-709.50551" cy="-429.25674" transform="rotate(-150)" r="20" data-paper-data="{&quot;index&quot;:4}"/><circle cx="-699.50472" cy="-446.57771" transform="rotate(-150)" r="20" data-paper-data="{&quot;index&quot;:5}"/><circle cx="-679.50392" cy="-446.57817" transform="rotate(-150)" r="20" data-paper-data="{&quot;index&quot;:6}"/></g><rect x="570" y="25" width="510" height="800" fill="#000000" stroke-width="1" stroke-linecap="butt"/><g stroke-width="1" stroke-linecap="butt"/><rect x="-693" y="-120" transform="rotate(180)" width="23" height="19" stroke="#000000" stroke-width="0.5" stroke-linecap="butt" opacity="0"/><g stroke="#ffffff" stroke-width="0.5" stroke-linecap="round"><circle cx="-681.5" cy="-110.5" transform="rotate(180)" r="20" data-paper-data="{&quot;index&quot;:0}"/></g><rect x="-836" y="-120" transform="rotate(180)" width="23" height="19" stroke="#000000" stroke-width="0.5" stroke-linecap="butt" opacity="0"/><g stroke="#ffffff" stroke-width="0.5" stroke-linecap="round"><circle cx="-824.5" cy="-110.5" transform="rotate(180)" r="20" data-paper-data="{&quot;index&quot;:0}"/><circle cx="824.5" cy="110.5" r="1.5" fill="#ffffff"/></g><rect x="-979" y="-120" transform="rotate(180)" width="23" height="19" stroke="#000000" stroke-width="0.5" stroke-linecap="butt" opacity="0"/><g stroke="#ffffff" stroke-width="0.5" stroke-linecap="round"><circle cx="-967.5" cy="-110.5" transform="rotate(180)" r="20" data-paper-data="{&quot;index&quot;:0}" opacity="0"/><circle cx="967.5" cy="110.5" r="1.5" fill="#ffffff"/></g><rect x="-693" y="-221" transform="rotate(180)" width="23" height="19" stroke="#000000" stroke-width="0.5" stroke-linecap="butt" opacity="0"/><g stroke="#ffffff" stroke-width="0.5" stroke-linecap="round"><circle cx="-211.5" cy="681.5" transform="rotate(-90)" r="20" data-paper-data="{&quot;index&quot;:0}"/><circle cx="-191.5" cy="681.5" transform="rotate(-90)" r="20" data-paper-data="{&quot;index&quot;:1}"/></g><rect x="-836" y="-221" transform="rotate(180)" width="23" height="19" stroke="#000000" stroke-width="0.5" stroke-linecap="butt" opacity="0"/><g stroke="#ffffff" stroke-width="0.5" stroke-linecap="round"><circle cx="-211.5" cy="824.5" transform="rotate(-90)" r="20" data-paper-data="{&quot;index&quot;:0}"/><circle cx="-191.5" cy="824.5" transform="rotate(-90)" r="20" data-paper-data="{&quot;index&quot;:1}"/><circle cx="824.5" cy="211.5" r="1.5" fill="#ffffff"/><circle cx="824.5" cy="191.5" r="1.5" fill="#ffffff"/><circle cx="807.17857" cy="201.5" r="1.5" fill="#ffffff"/><circle cx="841.82143" cy="201.5" r="1.5" fill="#ffffff"/></g><rect x="-979" y="-221" transform="rotate(180)" width="23" height="19" stroke="#000000" stroke-width="0.5" stroke-linecap="butt" opacity="0"/><g stroke="#ffffff" stroke-width="0.5" stroke-linecap="round"><circle cx="-211.5" cy="967.5" transform="rotate(-90)" r="20" data-paper-data="{&quot;index&quot;:0}" opacity="0"/><circle cx="-191.5" cy="967.5" transform="rotate(-90)" r="20" data-paper-data="{&quot;index&quot;:1}" opacity="0"/><circle cx="967.5" cy="211.5" r="1.5" fill="#ffffff"/><circle cx="967.5" cy="191.5" r="1.5" fill="#ffffff"/><circle cx="950.17857" cy="201.5" r="1.5" fill="#ffffff"/><circle cx="984.82143" cy="201.5" r="1.5" fill="#ffffff"/></g><rect x="-693" y="-322" transform="rotate(180)" width="23" height="19" stroke="#000000" stroke-width="0.5" stroke-linecap="butt" opacity="0"/><g stroke="#ffffff" stroke-width="0.5" stroke-linecap="round"><circle cx="-611.38294" cy="433.94631" transform="rotate(-120)" r="20" data-paper-data="{&quot;index&quot;:0}"/><circle cx="-591.38214" cy="433.94677" transform="rotate(-120)" r="20" data-paper-data="{&quot;index&quot;:1}"/><circle cx="-601.38214" cy="451.26728" transform="rotate(-120)" r="20" data-paper-data="{&quot;index&quot;:2}"/></g><rect x="-836" y="-322" transform="rotate(180)" width="23" height="19" stroke="#000000" stroke-width="0.5" stroke-linecap="butt" opacity="0"/><g stroke="#ffffff" stroke-width="0.5" stroke-linecap="round"><circle cx="-682.88294" cy="557.78795" transform="rotate(-120)" r="20" data-paper-data="{&quot;index&quot;:0}"/><circle cx="-662.88214" cy="557.78841" transform="rotate(-120)" r="20" data-paper-data="{&quot;index&quot;:1}"/><circle cx="-672.88214" cy="575.10891" transform="rotate(-120)" r="20" data-paper-data="{&quot;index&quot;:2}"/><circle cx="824.5" cy="312.5" r="1.5" fill="#ffffff"/><circle cx="814.5" cy="295.17857" r="1.5" fill="#ffffff"/><circle cx="834.5" cy="295.17857" r="1.5" fill="#ffffff"/><circle cx="804.5" cy="312.5" r="1.5" fill="#ffffff"/><circle cx="844.5" cy="312.5" r="1.5" fill="#ffffff"/><circle cx="824.5" cy="277.85714" r="1.5" fill="#ffffff"/></g><rect x="-979" y="-322" transform="rotate(180)" width="23" height="19" stroke="#000000" stroke-width="0.5" stroke-linecap="butt" opacity="0"/><g stroke="#ffffff" stroke-width="0.5" stroke-linecap="round"><circle cx="-754.38294" cy="681.62958" transform="rotate(-120)" r="20" data-paper-data="{&quot;index&quot;:0}" opacity="0"/><circle cx="-734.38214" cy="681.63004" transform="rotate(-120)" r="20" data-paper-data="{&quot;index&quot;:1}" opacity="0"/><circle cx="-744.38214" cy="698.95055" transform="rotate(-120)" r="20" data-paper-data="{&quot;index&quot;:2}" opacity="0"/><circle cx="967.5" cy="312.5" r="1.5" fill="#ffffff"/><circle cx="957.5" cy="295.17857" r="1.5" fill="#ffffff"/><circle cx="977.5" cy="295.17857" r="1.5" fill="#ffffff"/><circle cx="947.5" cy="312.5" r="1.5" fill="#ffffff"/><circle cx="987.5" cy="312.5" r="1.5" fill="#ffffff"/><circle cx="967.5" cy="277.85714" r="1.5" fill="#ffffff"/></g><rect x="-693" y="-423" transform="rotate(180)" width="23" height="19" stroke="#000000" stroke-width="0.5" stroke-linecap="butt" opacity="0"/><g stroke="#ffffff" stroke-width="0.5" stroke-linecap="round"><circle cx="-796.94631" cy="-17.3515" transform="rotate(-150)" r="20" data-paper-data="{&quot;index&quot;:0}"/><circle cx="-776.94552" cy="-17.35196" transform="rotate(-150)" r="20" data-paper-data="{&quot;index&quot;:1}"/><circle cx="-786.94631" cy="-0.031" transform="rotate(-150)" r="20" data-paper-data="{&quot;index&quot;:2}"/><circle cx="-806.94711" cy="-0.03054" transform="rotate(-150)" r="20" data-paper-data="{&quot;index&quot;:3}"/></g><rect x="-836" y="-423" transform="rotate(180)" width="23" height="19" stroke="#000000" stroke-width="0.5" stroke-linecap="butt" opacity="0"/><g stroke="#ffffff" stroke-width="0.5" stroke-linecap="round"><circle cx="-920.78795" cy="54.1485" transform="rotate(-150)" r="20" data-paper-data="{&quot;index&quot;:0}"/><circle cx="-900.78715" cy="54.14804" transform="rotate(-150)" r="20" data-paper-data="{&quot;index&quot;:1}"/><circle cx="-910.78795" cy="71.469" transform="rotate(-150)" r="20" data-paper-data="{&quot;index&quot;:2}"/><circle cx="-930.78874" cy="71.46946" transform="rotate(-150)" r="20" data-paper-data="{&quot;index&quot;:3}"/><circle cx="824.5" cy="413.5" r="1.5" fill="#ffffff"/><circle cx="807.17857" cy="403.5" r="1.5" fill="#ffffff"/><circle cx="824.5" cy="393.5" r="1.5" fill="#ffffff"/><circle cx="841.82143" cy="403.5" r="1.5" fill="#ffffff"/><circle cx="807.17857" cy="423.5" r="1.5" fill="#ffffff"/><circle cx="841.82143" cy="423.5" r="1.5" fill="#ffffff"/><circle cx="807.17857" cy="383.5" r="1.5" fill="#ffffff"/><circle cx="841.82143" cy="383.5" r="1.5" fill="#ffffff"/></g><rect x="-979" y="-423" transform="rotate(180)" width="23" height="19" stroke="#000000" stroke-width="0.5" stroke-linecap="butt" opacity="0"/><g stroke="#ffffff" stroke-width="0.5" stroke-linecap="round"><circle cx="-1044.62958" cy="125.6485" transform="rotate(-150)" r="20" data-paper-data="{&quot;index&quot;:0}" opacity="0"/><circle cx="-1024.62878" cy="125.64804" transform="rotate(-150)" r="20" data-paper-data="{&quot;index&quot;:1}" opacity="0"/><circle cx="-1034.62958" cy="142.969" transform="rotate(-150)" r="20" data-paper-data="{&quot;index&quot;:2}" opacity="0"/><circle cx="-1054.63038" cy="142.96946" transform="rotate(-150)" r="20" data-paper-data="{&quot;index&quot;:3}" opacity="0"/><circle cx="967.5" cy="413.5" r="1.5" fill="#ffffff"/><circle cx="950.17857" cy="403.5" r="1.5" fill="#ffffff"/><circle cx="967.5" cy="393.5" r="1.5" fill="#ffffff"/><circle cx="984.82143" cy="403.5" r="1.5" fill="#ffffff"/><circle cx="950.17857" cy="423.5" r="1.5" fill="#ffffff"/><circle cx="984.82143" cy="423.5" r="1.5" fill="#ffffff"/><circle cx="950.17857" cy="383.5" r="1.5" fill="#ffffff"/><circle cx="984.82143" cy="383.5" r="1.5" fill="#ffffff"/></g><rect x="-693" y="-524" transform="rotate(180)" width="23" height="19" stroke="#000000" stroke-width="0.5" stroke-linecap="butt" opacity="0"/><g stroke="#ffffff" stroke-width="0.5" stroke-linecap="round"><circle cx="-681.5" cy="-514.5" transform="rotate(180)" r="20" data-paper-data="{&quot;index&quot;:0}"/><circle cx="-661.5" cy="-514.5" transform="rotate(180)" r="20" data-paper-data="{&quot;index&quot;:1}"/><circle cx="-671.5" cy="-497.17857" transform="rotate(180)" r="20" data-paper-data="{&quot;index&quot;:2}"/><circle cx="-691.5" cy="-497.17857" transform="rotate(180)" r="20" data-paper-data="{&quot;index&quot;:3}"/><circle cx="-701.5" cy="-514.5" transform="rotate(180)" r="20" data-paper-data="{&quot;index&quot;:4}"/></g><rect x="-836" y="-524" transform="rotate(180)" width="23" height="19" stroke="#000000" stroke-width="0.5" stroke-linecap="butt" opacity="0"/><g stroke="#ffffff" stroke-width="0.5" stroke-linecap="round"><circle cx="-824.5" cy="-514.5" transform="rotate(180)" r="20" data-paper-data="{&quot;index&quot;:0}"/><circle cx="-804.5" cy="-514.5" transform="rotate(180)" r="20" data-paper-data="{&quot;index&quot;:1}"/><circle cx="-814.5" cy="-497.17857" transform="rotate(180)" r="20" data-paper-data="{&quot;index&quot;:2}"/><circle cx="-834.5" cy="-497.17857" transform="rotate(180)" r="20" data-paper-data="{&quot;index&quot;:3}"/><circle cx="-844.5" cy="-514.5" transform="rotate(180)" r="20" data-paper-data="{&quot;index&quot;:4}"/><circle cx="824.5" cy="514.5" r="1.5" fill="#ffffff"/><circle cx="804.5" cy="514.5" r="1.5" fill="#ffffff"/><circle cx="814.5" cy="497.17857" r="1.5" fill="#ffffff"/><circle cx="834.5" cy="497.17857" r="1.5" fill="#ffffff"/><circle cx="844.5" cy="514.5" r="1.5" fill="#ffffff"/><circle cx="814.5" cy="531.82143" r="1.5" fill="#ffffff"/><circle cx="834.5" cy="531.82143" r="1.5" fill="#ffffff"/><circle cx="794.5" cy="497.17857" r="1.5" fill="#ffffff"/><circle cx="824.5" cy="479.85714" r="1.5" fill="#ffffff"/><circle cx="854.5" cy="497.17857" r="1.5" fill="#ffffff"/></g><rect x="-979" y="-524" transform="rotate(180)" width="23" height="19" stroke="#000000" stroke-width="0.5" stroke-linecap="butt" opacity="0"/><g stroke="#ffffff" stroke-width="0.5" stroke-linecap="round"><circle cx="-967.5" cy="-514.5" transform="rotate(180)" r="20" data-paper-data="{&quot;index&quot;:0}" opacity="0"/><circle cx="-947.5" cy="-514.5" transform="rotate(180)" r="20" data-paper-data="{&quot;index&quot;:1}" opacity="0"/><circle cx="-957.5" cy="-497.17857" transform="rotate(180)" r="20" data-paper-data="{&quot;index&quot;:2}" opacity="0"/><circle cx="-977.5" cy="-497.17857" transform="rotate(180)" r="20" data-paper-data="{&quot;index&quot;:3}" opacity="0"/><circle cx="-987.5" cy="-514.5" transform="rotate(180)" r="20" data-paper-data="{&quot;index&quot;:4}" opacity="0"/><circle cx="967.5" cy="514.5" r="1.5" fill="#ffffff"/><circle cx="947.5" cy="514.5" r="1.5" fill="#ffffff"/><circle cx="957.5" cy="497.17857" r="1.5" fill="#ffffff"/><circle cx="977.5" cy="497.17857" r="1.5" fill="#ffffff"/><circle cx="987.5" cy="514.5" r="1.5" fill="#ffffff"/><circle cx="957.5" cy="531.82143" r="1.5" fill="#ffffff"/><circle cx="977.5" cy="531.82143" r="1.5" fill="#ffffff"/><circle cx="937.5" cy="497.17857" r="1.5" fill="#ffffff"/><circle cx="967.5" cy="479.85714" r="1.5" fill="#ffffff"/><circle cx="997.5" cy="497.17857" r="1.5" fill="#ffffff"/></g><rect x="-693" y="-625" transform="rotate(180)" width="23" height="19" stroke="#000000" stroke-width="0.5" stroke-linecap="butt" opacity="0"/><g stroke="#ffffff" stroke-width="0.5" stroke-linecap="round"><circle cx="-282.44631" cy="-873.78864" transform="matrix(-0.8660254037844379,0.5000000000000011,-0.5000000000000011,-0.8660254037844379,0,0)" r="20" data-paper-data="{&quot;index&quot;:0}"/><circle cx="-262.44552" cy="-873.78818" transform="matrix(-0.8660254037844379,0.5000000000000011,-0.5000000000000011,-0.8660254037844379,0,0)" r="20" data-paper-data="{&quot;index&quot;:1}"/><circle cx="-272.44552" cy="-856.46767" transform="matrix(-0.8660254037844379,0.5000000000000011,-0.5000000000000011,-0.8660254037844379,0,0)" r="20" data-paper-data="{&quot;index&quot;:2}"/><circle cx="-292.44631" cy="-856.46813" transform="matrix(-0.8660254037844379,0.5000000000000011,-0.5000000000000011,-0.8660254037844379,0,0)" r="20" data-paper-data="{&quot;index&quot;:3}"/><circle cx="-302.44711" cy="-873.7891" transform="matrix(-0.8660254037844379,0.5000000000000011,-0.5000000000000011,-0.8660254037844379,0,0)" r="20" data-paper-data="{&quot;index&quot;:4}"/><circle cx="-292.44711" cy="-891.1096" transform="matrix(-0.8660254037844379,0.5000000000000011,-0.5000000000000011,-0.8660254037844379,0,0)" r="20" data-paper-data="{&quot;index&quot;:5}"/></g><rect x="-836" y="-625" transform="rotate(180)" width="23" height="19" stroke="#000000" stroke-width="0.5" stroke-linecap="butt" opacity="0"/><g stroke="#ffffff" stroke-width="0.5" stroke-linecap="round"><circle cx="-406.28795" cy="-945.28864" transform="matrix(-0.8660254037844379,0.5000000000000011,-0.5000000000000011,-0.8660254037844379,0,0)" r="20" data-paper-data="{&quot;index&quot;:0}"/><circle cx="-386.28715" cy="-945.28818" transform="matrix(-0.8660254037844379,0.5000000000000011,-0.5000000000000011,-0.8660254037844379,0,0)" r="20" data-paper-data="{&quot;index&quot;:1}"/><circle cx="-396.28715" cy="-927.96767" transform="matrix(-0.8660254037844379,0.5000000000000011,-0.5000000000000011,-0.8660254037844379,0,0)" r="20" data-paper-data="{&quot;index&quot;:2}"/><circle cx="-416.28795" cy="-927.96813" transform="matrix(-0.8660254037844379,0.5000000000000011,-0.5000000000000011,-0.8660254037844379,0,0)" r="20" data-paper-data="{&quot;index&quot;:3}"/><circle cx="-426.28874" cy="-945.2891" transform="matrix(-0.8660254037844379,0.5000000000000011,-0.5000000000000011,-0.8660254037844379,0,0)" r="20" data-paper-data="{&quot;index&quot;:4}"/><circle cx="-416.28874" cy="-962.6096" transform="matrix(-0.8660254037844379,0.5000000000000011,-0.5000000000000011,-0.8660254037844379,0,0)" r="20" data-paper-data="{&quot;index&quot;:5}"/><circle cx="824.5" cy="615.5" r="1.5" fill="#ffffff"/><circle cx="807.17857" cy="625.5" r="1.5" fill="#ffffff"/><circle cx="807.17857" cy="605.5" r="1.5" fill="#ffffff"/><circle cx="824.5" cy="595.5" r="1.5" fill="#ffffff"/><circle cx="841.82143" cy="605.5" r="1.5" fill="#ffffff"/><circle cx="841.82143" cy="625.5" r="1.5" fill="#ffffff"/><circle cx="824.5" cy="635.5" r="1.5" fill="#ffffff"/><circle cx="789.85714" cy="615.5" r="1.5" fill="#ffffff"/><circle cx="807.17857" cy="585.5" r="1.5" fill="#ffffff"/><circle cx="841.82143" cy="585.5" r="1.5" fill="#ffffff"/><circle cx="859.14286" cy="615.5" r="1.5" fill="#ffffff"/></g><rect x="-979" y="-625" transform="rotate(180)" width="23" height="19" stroke="#000000" stroke-width="0.5" stroke-linecap="butt" opacity="0"/><g stroke="#ffffff" stroke-width="0.5" stroke-linecap="round"><circle cx="-530.12958" cy="-1016.78864" transform="matrix(-0.8660254037844379,0.5000000000000011,-0.5000000000000011,-0.8660254037844379,0,0)" r="20" data-paper-data="{&quot;index&quot;:0}" opacity="0"/><circle cx="-510.12878" cy="-1016.78818" transform="matrix(-0.8660254037844379,0.5000000000000011,-0.5000000000000011,-0.8660254037844379,0,0)" r="20" data-paper-data="{&quot;index&quot;:1}" opacity="0"/><circle cx="-520.12878" cy="-999.46767" transform="matrix(-0.8660254037844379,0.5000000000000011,-0.5000000000000011,-0.8660254037844379,0,0)" r="20" data-paper-data="{&quot;index&quot;:2}" opacity="0"/><circle cx="-540.12958" cy="-999.46813" transform="matrix(-0.8660254037844379,0.5000000000000011,-0.5000000000000011,-0.8660254037844379,0,0)" r="20" data-paper-data="{&quot;index&quot;:3}" opacity="0"/><circle cx="-550.13038" cy="-1016.7891" transform="matrix(-0.8660254037844379,0.5000000000000011,-0.5000000000000011,-0.8660254037844379,0,0)" r="20" data-paper-data="{&quot;index&quot;:4}" opacity="0"/><circle cx="-540.13038" cy="-1034.1096" transform="matrix(-0.8660254037844379,0.5000000000000011,-0.5000000000000011,-0.8660254037844379,0,0)" r="20" data-paper-data="{&quot;index&quot;:5}" opacity="0"/><circle cx="967.5" cy="615.5" r="1.5" fill="#ffffff"/><circle cx="950.17857" cy="625.5" r="1.5" fill="#ffffff"/><circle cx="950.17857" cy="605.5" r="1.5" fill="#ffffff"/><circle cx="967.5" cy="595.5" r="1.5" fill="#ffffff"/><circle cx="984.82143" cy="605.5" r="1.5" fill="#ffffff"/><circle cx="984.82143" cy="625.5" r="1.5" fill="#ffffff"/><circle cx="967.5" cy="635.5" r="1.5" fill="#ffffff"/><circle cx="932.85714" cy="615.5" r="1.5" fill="#ffffff"/><circle cx="950.17857" cy="585.5" r="1.5" fill="#ffffff"/><circle cx="984.82143" cy="585.5" r="1.5" fill="#ffffff"/><circle cx="1002.14286" cy="615.5" r="1.5" fill="#ffffff"/></g><rect x="-693" y="-726" transform="rotate(180)" width="23" height="19" stroke="#000000" stroke-width="0.5" stroke-linecap="butt" opacity="0"/><g stroke="#ffffff" stroke-width="0.5" stroke-linecap="round"><circle cx="-948.44631" cy="-279.7572" transform="rotate(-150)" r="20" data-paper-data="{&quot;index&quot;:0}"/><circle cx="-928.44552" cy="-279.75766" transform="rotate(-150)" r="20" data-paper-data="{&quot;index&quot;:1}"/><circle cx="-938.44631" cy="-262.43669" transform="rotate(-150)" r="20" data-paper-data="{&quot;index&quot;:2}"/><circle cx="-958.44711" cy="-262.43623" transform="rotate(-150)" r="20" data-paper-data="{&quot;index&quot;:3}"/><circle cx="-968.44711" cy="-279.75674" transform="rotate(-150)" r="20" data-paper-data="{&quot;index&quot;:4}"/><circle cx="-958.44631" cy="-297.07771" transform="rotate(-150)" r="20" data-paper-data="{&quot;index&quot;:5}"/><circle cx="-938.44552" cy="-297.07817" transform="rotate(-150)" r="20" data-paper-data="{&quot;index&quot;:6}"/></g><rect x="-836" y="-726" transform="rotate(180)" width="23" height="19" stroke="#000000" stroke-width="0.5" stroke-linecap="butt" opacity="0"/><g stroke="#ffffff" stroke-width="0.5" stroke-linecap="round"><circle cx="-1072.28795" cy="-208.2572" transform="rotate(-150)" r="20" data-paper-data="{&quot;index&quot;:0}"/><circle cx="-1052.28715" cy="-208.25766" transform="rotate(-150)" r="20" data-paper-data="{&quot;index&quot;:1}"/><circle cx="-1062.28795" cy="-190.93669" transform="rotate(-150)" r="20" data-paper-data="{&quot;index&quot;:2}"/><circle cx="-1082.28874" cy="-190.93623" transform="rotate(-150)" r="20" data-paper-data="{&quot;index&quot;:3}"/><circle cx="-1092.28874" cy="-208.25674" transform="rotate(-150)" r="20" data-paper-data="{&quot;index&quot;:4}"/><circle cx="-1082.28795" cy="-225.57771" transform="rotate(-150)" r="20" data-paper-data="{&quot;index&quot;:5}"/><circle cx="-1062.28715" cy="-225.57817" transform="rotate(-150)" r="20" data-paper-data="{&quot;index&quot;:6}"/><circle cx="824.5" cy="716.5" r="1.5" fill="#ffffff"/><circle cx="807.17857" cy="706.5" r="1.5" fill="#ffffff"/><circle cx="824.5" cy="696.5" r="1.5" fill="#ffffff"/><circle cx="841.82143" cy="706.5" r="1.5" fill="#ffffff"/><circle cx="841.82143" cy="726.5" r="1.5" fill="#ffffff"/><circle cx="824.5" cy="736.5" r="1.5" fill="#ffffff"/><circle cx="807.17857" cy="726.5" r="1.5" fill="#ffffff"/><circle cx="807.17857" cy="686.5" r="1.5" fill="#ffffff"/><circle cx="789.85714" cy="716.5" r="1.5" fill="#ffffff"/><circle cx="841.82143" cy="686.5" r="1.5" fill="#ffffff"/><circle cx="859.14286" cy="716.5" r="1.5" fill="#ffffff"/><circle cx="841.82143" cy="746.5" r="1.5" fill="#ffffff"/><circle cx="807.17857" cy="746.5" r="1.5" fill="#ffffff"/></g><rect x="-979" y="-726" transform="rotate(180)" width="23" height="19" stroke="#000000" stroke-width="0.5" stroke-linecap="butt" opacity="0"/><g stroke="#ffffff" stroke-width="0.5" stroke-linecap="round"><circle cx="-1196.12958" cy="-136.7572" transform="rotate(-150)" r="20" data-paper-data="{&quot;index&quot;:0}" opacity="0"/><circle cx="-1176.12878" cy="-136.75766" transform="rotate(-150)" r="20" data-paper-data="{&quot;index&quot;:1}" opacity="0"/><circle cx="-1186.12958" cy="-119.43669" transform="rotate(-150)" r="20" data-paper-data="{&quot;index&quot;:2}" opacity="0"/><circle cx="-1206.13038" cy="-119.43623" transform="rotate(-150)" r="20" data-paper-data="{&quot;index&quot;:3}" opacity="0"/><circle cx="-1216.13038" cy="-136.75674" transform="rotate(-150)" r="20" data-paper-data="{&quot;index&quot;:4}" opacity="0"/><circle cx="-1206.12958" cy="-154.07771" transform="rotate(-150)" r="20" data-paper-data="{&quot;index&quot;:5}" opacity="0"/><circle cx="-1186.12878" cy="-154.07817" transform="rotate(-150)" r="20" data-paper-data="{&quot;index&quot;:6}" opacity="0"/><circle cx="967.5" cy="716.5" r="1.5" fill="#ffffff"/><circle cx="950.17857" cy="706.5" r="1.5" fill="#ffffff"/><circle cx="967.5" cy="696.5" r="1.5" fill="#ffffff"/><circle cx="984.82143" cy="706.5" r="1.5" fill="#ffffff"/><circle cx="984.82143" cy="726.5" r="1.5" fill="#ffffff"/><circle cx="967.5" cy="736.5" r="1.5" fill="#ffffff"/><circle cx="950.17857" cy="726.5" r="1.5" fill="#ffffff"/><circle cx="950.17857" cy="686.5" r="1.5" fill="#ffffff"/><circle cx="932.85714" cy="716.5" r="1.5" fill="#ffffff"/><circle cx="984.82143" cy="686.5" r="1.5" fill="#ffffff"/><circle cx="1002.14286" cy="716.5" r="1.5" fill="#ffffff"/><circle cx="984.82143" cy="746.5" r="1.5" fill="#ffffff"/><circle cx="950.17857" cy="746.5" r="1.5" fill="#ffffff"/></g></g></svg>