<svg x="0" y="0" width="1100" height="850" version="1.1" xmlns="http://www.w3.org/2000/svg" xmlns:xlink="http://www.w3.org/1999/xlink"><g fill="none" stroke="none" stroke-width="none" stroke-linecap="none" stroke-linejoin="miter" stroke-miterlimit="10" stroke-dasharray="" stroke-dashoffset="0" font-family="sans-serif" font-size="12" text-anchor="start" mix-blend-mode="normal"><rect x="570" y="25" width="510" height="800" fill="#000000" stroke-width="1" stroke-linecap="butt"/><g stroke-width="1" stroke-linecap="butt"/><rect x="657.5" y="120" width="12.5" height="1.66667" stroke="#000000" stroke-width="0.5" stroke-linecap="butt" opacity="0"/><g stroke="#ffffff" stroke-width="0.5" stroke-linecap="round"><circle cx="-663.75" cy="-120.84524" transform="rotate(180)" r="24" data-paper-data="{&quot;index&quot;:0}" opacity="0"/><rect x="120.83333" y="-663.75" transform="rotate(90)" width="0" height="0"/></g><rect x="765" y="120" width="12.5" height="1.66667" stroke="#000000" stroke-width="0.5" stroke-linecap="butt" opacity="0"/><g stroke="#ffffff" stroke-width="0.5" stroke-linecap="round"><circle cx="-771.25" cy="-120.84524" transform="rotate(180)" r="24" data-paper-data="{&quot;index&quot;:0}" opacity="0"/></g><rect x="872.5" y="120" width="12.5" height="1.66667" stroke="#000000" stroke-width="0.5" stroke-linecap="butt" opacity="0"/><g stroke="#ffffff" stroke-width="0.5" stroke-linecap="round"><circle cx="-878.75" cy="-120.84524" transform="rotate(180)" r="24" data-paper-data="{&quot;index&quot;:0}" opacity="0"/><circle cx="878.75" cy="120.83333" r="1.5" fill="#ffffff"/></g><rect x="980" y="120" width="12.5" height="1.66667" stroke="#000000" stroke-width="0.5" stroke-linecap="butt" opacity="0"/><g stroke="#ffffff" stroke-width="0.5" stroke-linecap="round"><circle cx="-986.25" cy="-120.84524" transform="rotate(180)" r="24" data-paper-data="{&quot;index&quot;:0}" opacity="0"/><circle cx="986.25" cy="120.83333" r="1.5" fill="#ffffff"/><rect x="120.83333" y="-986.25" transform="rotate(90)" width="0" height="0"/></g><rect x="657.5" y="241.66667" width="12.5" height="1.66667" stroke="#000000" stroke-width="0.5" stroke-linecap="butt" opacity="0"/><g stroke="#ffffff" stroke-width="0.5" stroke-linecap="round"><circle cx="-663.75" cy="-242.5" transform="rotate(180)" r="24" data-paper-data="{&quot;index&quot;:0}" opacity="0"/></g><rect x="765" y="241.66667" width="12.5" height="1.66667" stroke="#000000" stroke-width="0.5" stroke-linecap="butt" opacity="0"/><g stroke="#ffffff" stroke-width="0.5" stroke-linecap="round"><circle cx="-771.25" cy="-242.5" transform="rotate(180)" r="24" data-paper-data="{&quot;index&quot;:0}" opacity="0"/></g><rect x="872.5" y="241.66667" width="12.5" height="1.66667" stroke="#000000" stroke-width="0.5" stroke-linecap="butt" opacity="0"/><g stroke="#ffffff" stroke-width="0.5" stroke-linecap="round"><circle cx="-878.75" cy="-242.5" transform="rotate(180)" r="24" data-paper-data="{&quot;index&quot;:0}" opacity="0"/></g><rect x="980" y="241.66667" width="12.5" height="1.66667" stroke="#000000" stroke-width="0.5" stroke-linecap="butt" opacity="0"/><g stroke="#ffffff" stroke-width="0.5" stroke-linecap="round"><circle cx="-986.25" cy="-242.5" transform="rotate(180)" r="24" data-paper-data="{&quot;index&quot;:0}" opacity="0"/></g><rect x="657.5" y="363.33333" width="12.5" height="1.66667" stroke="#000000" stroke-width="0.5" stroke-linecap="butt" opacity="0"/><g stroke="#ffffff" stroke-width="0.5" stroke-linecap="round"><circle cx="-663.75" cy="-364.15476" transform="rotate(180)" r="24" data-paper-data="{&quot;index&quot;:0}" opacity="0"/></g><rect x="765" y="363.33333" width="12.5" height="1.66667" stroke="#000000" stroke-width="0.5" stroke-linecap="butt" opacity="0"/><g stroke="#ffffff" stroke-width="0.5" stroke-linecap="round"><circle cx="-771.25" cy="-364.15476" transform="rotate(180)" r="24" data-paper-data="{&quot;index&quot;:0}" opacity="0"/></g><rect x="872.5" y="363.33333" width="12.5" height="1.66667" stroke="#000000" stroke-width="0.5" stroke-linecap="butt" opacity="0"/><g stroke="#ffffff" stroke-width="0.5" stroke-linecap="round"><circle cx="-878.75" cy="-364.15476" transform="rotate(180)" r="24" data-paper-data="{&quot;index&quot;:0}" opacity="0"/></g><rect x="980" y="363.33333" width="12.5" height="1.66667" stroke="#000000" stroke-width="0.5" stroke-linecap="butt" opacity="0"/><g stroke="#ffffff" stroke-width="0.5" stroke-linecap="round"><circle cx="-986.25" cy="-364.15476" transform="rotate(180)" r="24" data-paper-data="{&quot;index&quot;:0}" opacity="0"/></g><rect x="980" y="485" width="12.5" height="1.66667" stroke="#000000" stroke-width="0.5" stroke-linecap="butt" opacity="0"/><g stroke="#ffffff" stroke-width="0.5" stroke-linecap="round"><circle cx="-986.25" cy="-485.84524" transform="rotate(180)" r="24" data-paper-data="{&quot;index&quot;:0}" opacity="0"/><circle cx="986.25" cy="485.83333" r="1.5" fill="#ffffff"/></g><rect x="980" y="606.66667" width="12.5" height="1.66667" stroke="#000000" stroke-width="0.5" stroke-linecap="butt" opacity="0"/><g stroke="#ffffff" stroke-width="0.5" stroke-linecap="round"><circle cx="-986.25" cy="-607.5" transform="rotate(180)" r="24" data-paper-data="{&quot;index&quot;:0}"/></g></g></svg>