<svg x="0" y="0" width="1100" height="850" version="1.1" xmlns="http://www.w3.org/2000/svg" xmlns:xlink="http://www.w3.org/1999/xlink"><g fill="none" stroke="none" stroke-width="none" stroke-linecap="none" stroke-linejoin="miter" stroke-miterlimit="10" stroke-dasharray="" stroke-dashoffset="0" font-family="sans-serif" font-size="12" text-anchor="start" mix-blend-mode="normal"><rect x="570" y="25" width="510" height="800" fill="#000000" stroke-width="1" stroke-linecap="butt"/><g stroke-width="1" stroke-linecap="butt"/><rect x="657.5" y="120" width="12.5" height="1.66667" stroke="#000000" stroke-width="0.5" stroke-linecap="butt" opacity="0"/><g stroke="#ffffff" stroke-width="0.5" stroke-linecap="round"><circle cx="-120.82143" cy="663.75" transform="rotate(-90)" r="24" data-paper-data="{&quot;index&quot;:0}" opacity="0"/><circle cx="-96.82143" cy="663.75" transform="rotate(-90)" r="24" data-paper-data="{&quot;index&quot;:1}" opacity="0"/><circle cx="663.75" cy="108.82143" r="12"/><circle cx="663.75" cy="108.82143" r="12"/><circle cx="663.75" cy="108.82143" r="20.78571"/><circle cx="663.75" cy="108.82143" r="20.78571"/></g><rect x="765" y="120" width="12.5" height="1.66667" stroke="#000000" stroke-width="0.5" stroke-linecap="butt" opacity="0"/><g stroke="#ffffff" stroke-width="0.5" stroke-linecap="round"><circle cx="-120.82143" cy="771.25" transform="rotate(-90)" r="24" data-paper-data="{&quot;index&quot;:0}" opacity="0"/><circle cx="-96.82143" cy="771.25" transform="rotate(-90)" r="24" data-paper-data="{&quot;index&quot;:1}" opacity="0"/><line x1="771.25" y1="120.82143" x2="771.25" y2="96.82143" data-paper-data="{&quot;endpoints&quot;:[[&quot;Point&quot;,771.25,120.82143],[&quot;Point&quot;,771.25,96.82143]]}"/><line x1="771.25" y1="120.82143" x2="750.46429" y2="108.82143" data-paper-data="{&quot;endpoints&quot;:[[&quot;Point&quot;,771.25,120.82143],[&quot;Point&quot;,750.46429,108.82143]]}" opacity="0"/><line x1="771.25" y1="120.82143" x2="792.03571" y2="108.82143" data-paper-data="{&quot;endpoints&quot;:[[&quot;Point&quot;,771.25,120.82143],[&quot;Point&quot;,792.03571,108.82143]]}" opacity="0"/><line x1="771.25" y1="96.82143" x2="750.46429" y2="108.82143" data-paper-data="{&quot;endpoints&quot;:[[&quot;Point&quot;,771.25,96.82143],[&quot;Point&quot;,750.46429,108.82143]]}" opacity="0"/><line x1="771.25" y1="96.82143" x2="792.03571" y2="108.82143" data-paper-data="{&quot;endpoints&quot;:[[&quot;Point&quot;,771.25,96.82143],[&quot;Point&quot;,792.03571,108.82143]]}" opacity="0"/><line x1="750.46429" y1="108.82143" x2="792.03571" y2="108.82143" data-paper-data="{&quot;endpoints&quot;:[[&quot;Point&quot;,750.46429,108.82143],[&quot;Point&quot;,792.03571,108.82143]]}"/></g><rect x="872.5" y="120" width="12.5" height="1.66667" stroke="#000000" stroke-width="0.5" stroke-linecap="butt" opacity="0"/><g stroke="#ffffff" stroke-width="0.5" stroke-linecap="round"><circle cx="-120.82143" cy="878.75" transform="rotate(-90)" r="24" data-paper-data="{&quot;index&quot;:0}" opacity="0"/><circle cx="-96.82143" cy="878.75" transform="rotate(-90)" r="24" data-paper-data="{&quot;index&quot;:1}" opacity="0"/><circle cx="878.75" cy="108.82143" r="1.5" fill="#ffffff"/></g><rect x="980" y="120" width="12.5" height="1.66667" stroke="#000000" stroke-width="0.5" stroke-linecap="butt" opacity="0"/><g stroke="#ffffff" stroke-width="0.5" stroke-linecap="round"><circle cx="-120.82143" cy="986.25" transform="rotate(-90)" r="24" data-paper-data="{&quot;index&quot;:0}" opacity="0"/><circle cx="-96.82143" cy="986.25" transform="rotate(-90)" r="24" data-paper-data="{&quot;index&quot;:1}" opacity="0"/><circle cx="986.25" cy="108.82143" r="1.5" fill="#ffffff"/><line x1="986.25" y1="120.82143" x2="986.25" y2="96.82143" data-paper-data="{&quot;endpoints&quot;:[[&quot;Point&quot;,986.25,120.82143],[&quot;Point&quot;,986.25,96.82143]]}"/><line x1="986.25" y1="120.82143" x2="965.46429" y2="108.82143" data-paper-data="{&quot;endpoints&quot;:[[&quot;Point&quot;,986.25,120.82143],[&quot;Point&quot;,965.46429,108.82143]]}" opacity="0"/><line x1="986.25" y1="120.82143" x2="1007.03571" y2="108.82143" data-paper-data="{&quot;endpoints&quot;:[[&quot;Point&quot;,986.25,120.82143],[&quot;Point&quot;,1007.03571,108.82143]]}" opacity="0"/><line x1="986.25" y1="96.82143" x2="965.46429" y2="108.82143" data-paper-data="{&quot;endpoints&quot;:[[&quot;Point&quot;,986.25,96.82143],[&quot;Point&quot;,965.46429,108.82143]]}" opacity="0"/><line x1="986.25" y1="96.82143" x2="1007.03571" y2="108.82143" data-paper-data="{&quot;endpoints&quot;:[[&quot;Point&quot;,986.25,96.82143],[&quot;Point&quot;,1007.03571,108.82143]]}" opacity="0"/><line x1="965.46429" y1="108.82143" x2="1007.03571" y2="108.82143" data-paper-data="{&quot;endpoints&quot;:[[&quot;Point&quot;,965.46429,108.82143],[&quot;Point&quot;,1007.03571,108.82143]]}"/><circle cx="986.25" cy="108.82143" r="12"/><circle cx="986.25" cy="108.82143" r="12"/><circle cx="986.25" cy="108.82143" r="20.78571"/><circle cx="986.25" cy="108.82143" r="20.78571"/></g><rect x="657.5" y="241.66667" width="12.5" height="1.66667" stroke="#000000" stroke-width="0.5" stroke-linecap="butt" opacity="0"/><g stroke="#ffffff" stroke-width="0.5" stroke-linecap="round"><circle cx="-242.5" cy="663.75" transform="rotate(-90)" r="24" data-paper-data="{&quot;index&quot;:0}" opacity="0"/><circle cx="-218.5" cy="663.75" transform="rotate(-90)" r="24" data-paper-data="{&quot;index&quot;:1}" opacity="0"/></g><rect x="765" y="241.66667" width="12.5" height="1.66667" stroke="#000000" stroke-width="0.5" stroke-linecap="butt" opacity="0"/><g stroke="#ffffff" stroke-width="0.5" stroke-linecap="round"><circle cx="-242.5" cy="771.25" transform="rotate(-90)" r="24" data-paper-data="{&quot;index&quot;:0}" opacity="0"/><circle cx="-218.5" cy="771.25" transform="rotate(-90)" r="24" data-paper-data="{&quot;index&quot;:1}" opacity="0"/></g><rect x="872.5" y="241.66667" width="12.5" height="1.66667" stroke="#000000" stroke-width="0.5" stroke-linecap="butt" opacity="0"/><g stroke="#ffffff" stroke-width="0.5" stroke-linecap="round"><circle cx="-242.5" cy="878.75" transform="rotate(-90)" r="24" data-paper-data="{&quot;index&quot;:0}" opacity="0"/><circle cx="-218.5" cy="878.75" transform="rotate(-90)" r="24" data-paper-data="{&quot;index&quot;:1}" opacity="0"/><circle cx="878.75" cy="230.5" r="20.78571"/><circle cx="878.75" cy="230.5" r="12"/></g><rect x="980" y="241.66667" width="12.5" height="1.66667" stroke="#000000" stroke-width="0.5" stroke-linecap="butt" opacity="0"/><g stroke="#ffffff" stroke-width="0.5" stroke-linecap="round"><circle cx="-242.5" cy="986.25" transform="rotate(-90)" r="24" data-paper-data="{&quot;index&quot;:0}" opacity="0"/><circle cx="-218.5" cy="986.25" transform="rotate(-90)" r="24" data-paper-data="{&quot;index&quot;:1}" opacity="0"/><circle cx="986.25" cy="230.5" r="20.78571"/><circle cx="986.25" cy="230.5" r="12"/></g><rect x="657.5" y="363.33333" width="12.5" height="1.66667" stroke="#000000" stroke-width="0.5" stroke-linecap="butt" opacity="0"/><g stroke="#ffffff" stroke-width="0.5" stroke-linecap="round"><circle cx="-364.17857" cy="663.75" transform="rotate(-90)" r="24" data-paper-data="{&quot;index&quot;:0}" opacity="0"/><circle cx="-340.17857" cy="663.75" transform="rotate(-90)" r="24" data-paper-data="{&quot;index&quot;:1}" opacity="0"/><line x1="663.75" y1="364.17857" x2="663.75" y2="340.17857" data-paper-data="{&quot;endpoints&quot;:[[&quot;Point&quot;,663.75,364.17857],[&quot;Point&quot;,663.75,340.17857]]}" opacity="0"/><line x1="663.75" y1="364.17857" x2="642.96429" y2="352.17857" data-paper-data="{&quot;endpoints&quot;:[[&quot;Point&quot;,663.75,364.17857],[&quot;Point&quot;,642.96429,352.17857]]}" opacity="0"/><line x1="663.75" y1="364.17857" x2="684.53571" y2="352.17857" data-paper-data="{&quot;endpoints&quot;:[[&quot;Point&quot;,663.75,364.17857],[&quot;Point&quot;,684.53571,352.17857]]}" opacity="0"/><line x1="663.75" y1="340.17857" x2="642.96429" y2="352.17857" data-paper-data="{&quot;endpoints&quot;:[[&quot;Point&quot;,663.75,340.17857],[&quot;Point&quot;,642.96429,352.17857]]}" opacity="0"/><line x1="663.75" y1="340.17857" x2="684.53571" y2="352.17857" data-paper-data="{&quot;endpoints&quot;:[[&quot;Point&quot;,663.75,340.17857],[&quot;Point&quot;,684.53571,352.17857]]}" opacity="0"/><line x1="642.96429" y1="352.17857" x2="684.53571" y2="352.17857" data-paper-data="{&quot;endpoints&quot;:[[&quot;Point&quot;,642.96429,352.17857],[&quot;Point&quot;,684.53571,352.17857]]}" opacity="0"/></g><rect x="765" y="363.33333" width="12.5" height="1.66667" stroke="#000000" stroke-width="0.5" stroke-linecap="butt" opacity="0"/><g stroke="#ffffff" stroke-width="0.5" stroke-linecap="round"><circle cx="-364.17857" cy="771.25" transform="rotate(-90)" r="24" data-paper-data="{&quot;index&quot;:0}" opacity="0"/><circle cx="-340.17857" cy="771.25" transform="rotate(-90)" r="24" data-paper-data="{&quot;index&quot;:1}" opacity="0"/><line x1="771.25" y1="364.17857" x2="771.25" y2="340.17857" data-paper-data="{&quot;endpoints&quot;:[[&quot;Point&quot;,771.25,364.17857],[&quot;Point&quot;,771.25,340.17857]]}" opacity="0"/><line x1="771.25" y1="364.17857" x2="750.46429" y2="352.17857" data-paper-data="{&quot;endpoints&quot;:[[&quot;Point&quot;,771.25,364.17857],[&quot;Point&quot;,750.46429,352.17857]]}" opacity="0"/><line x1="771.25" y1="364.17857" x2="792.03571" y2="352.17857" data-paper-data="{&quot;endpoints&quot;:[[&quot;Point&quot;,771.25,364.17857],[&quot;Point&quot;,792.03571,352.17857]]}" opacity="0"/><line x1="771.25" y1="340.17857" x2="750.46429" y2="352.17857" data-paper-data="{&quot;endpoints&quot;:[[&quot;Point&quot;,771.25,340.17857],[&quot;Point&quot;,750.46429,352.17857]]}" opacity="0"/><line x1="771.25" y1="340.17857" x2="792.03571" y2="352.17857" data-paper-data="{&quot;endpoints&quot;:[[&quot;Point&quot;,771.25,340.17857],[&quot;Point&quot;,792.03571,352.17857]]}" opacity="0"/><line x1="750.46429" y1="352.17857" x2="792.03571" y2="352.17857" data-paper-data="{&quot;endpoints&quot;:[[&quot;Point&quot;,750.46429,352.17857],[&quot;Point&quot;,792.03571,352.17857]]}"/></g><rect x="872.5" y="363.33333" width="12.5" height="1.66667" stroke="#000000" stroke-width="0.5" stroke-linecap="butt" opacity="0"/><g stroke="#ffffff" stroke-width="0.5" stroke-linecap="round"><circle cx="-364.17857" cy="878.75" transform="rotate(-90)" r="24" data-paper-data="{&quot;index&quot;:0}" opacity="0"/><circle cx="-340.17857" cy="878.75" transform="rotate(-90)" r="24" data-paper-data="{&quot;index&quot;:1}" opacity="0"/><line x1="878.75" y1="364.17857" x2="878.75" y2="340.17857" data-paper-data="{&quot;endpoints&quot;:[[&quot;Point&quot;,878.75,364.17857],[&quot;Point&quot;,878.75,340.17857]]}"/><line x1="878.75" y1="364.17857" x2="857.96429" y2="352.17857" data-paper-data="{&quot;endpoints&quot;:[[&quot;Point&quot;,878.75,364.17857],[&quot;Point&quot;,857.96429,352.17857]]}"/><line x1="878.75" y1="364.17857" x2="899.53571" y2="352.17857" data-paper-data="{&quot;endpoints&quot;:[[&quot;Point&quot;,878.75,364.17857],[&quot;Point&quot;,899.53571,352.17857]]}"/><line x1="878.75" y1="340.17857" x2="857.96429" y2="352.17857" data-paper-data="{&quot;endpoints&quot;:[[&quot;Point&quot;,878.75,340.17857],[&quot;Point&quot;,857.96429,352.17857]]}"/><line x1="878.75" y1="340.17857" x2="899.53571" y2="352.17857" data-paper-data="{&quot;endpoints&quot;:[[&quot;Point&quot;,878.75,340.17857],[&quot;Point&quot;,899.53571,352.17857]]}"/><line x1="857.96429" y1="352.17857" x2="899.53571" y2="352.17857" data-paper-data="{&quot;endpoints&quot;:[[&quot;Point&quot;,857.96429,352.17857],[&quot;Point&quot;,899.53571,352.17857]]}" opacity="0"/></g><rect x="980" y="363.33333" width="12.5" height="1.66667" stroke="#000000" stroke-width="0.5" stroke-linecap="butt" opacity="0"/><g stroke="#ffffff" stroke-width="0.5" stroke-linecap="round"><circle cx="-364.17857" cy="986.25" transform="rotate(-90)" r="24" data-paper-data="{&quot;index&quot;:0}" opacity="0"/><circle cx="-340.17857" cy="986.25" transform="rotate(-90)" r="24" data-paper-data="{&quot;index&quot;:1}" opacity="0"/><line x1="986.25" y1="364.17857" x2="986.25" y2="340.17857" data-paper-data="{&quot;endpoints&quot;:[[&quot;Point&quot;,986.25,364.17857],[&quot;Point&quot;,986.25,340.17857]]}"/><line x1="986.25" y1="364.17857" x2="965.46429" y2="352.17857" data-paper-data="{&quot;endpoints&quot;:[[&quot;Point&quot;,986.25,364.17857],[&quot;Point&quot;,965.46429,352.17857]]}"/><line x1="986.25" y1="364.17857" x2="1007.03571" y2="352.17857" data-paper-data="{&quot;endpoints&quot;:[[&quot;Point&quot;,986.25,364.17857],[&quot;Point&quot;,1007.03571,352.17857]]}"/><line x1="986.25" y1="340.17857" x2="965.46429" y2="352.17857" data-paper-data="{&quot;endpoints&quot;:[[&quot;Point&quot;,986.25,340.17857],[&quot;Point&quot;,965.46429,352.17857]]}"/><line x1="986.25" y1="340.17857" x2="1007.03571" y2="352.17857" data-paper-data="{&quot;endpoints&quot;:[[&quot;Point&quot;,986.25,340.17857],[&quot;Point&quot;,1007.03571,352.17857]]}"/><line x1="965.46429" y1="352.17857" x2="1007.03571" y2="352.17857" data-paper-data="{&quot;endpoints&quot;:[[&quot;Point&quot;,965.46429,352.17857],[&quot;Point&quot;,1007.03571,352.17857]]}"/></g><rect x="980" y="485" width="12.5" height="1.66667" stroke="#000000" stroke-width="0.5" stroke-linecap="butt" opacity="0"/><g stroke="#ffffff" stroke-width="0.5" stroke-linecap="round"><circle cx="-485.82143" cy="986.25" transform="rotate(-90)" r="24" data-paper-data="{&quot;index&quot;:0}" opacity="0"/><circle cx="-461.82143" cy="986.25" transform="rotate(-90)" r="24" data-paper-data="{&quot;index&quot;:1}" opacity="0"/><circle cx="986.25" cy="485.82143" r="1.5" fill="#ffffff"/><circle cx="986.25" cy="461.82143" r="1.5" fill="#ffffff"/><circle cx="965.46429" cy="473.82143" r="1.5" fill="#ffffff"/><circle cx="1007.03571" cy="473.82143" r="1.5" fill="#ffffff"/></g><rect x="980" y="606.66667" width="12.5" height="1.66667" stroke="#000000" stroke-width="0.5" stroke-linecap="butt" opacity="0"/><g stroke="#ffffff" stroke-width="0.5" stroke-linecap="round"><circle cx="-607.5" cy="986.25" transform="rotate(-90)" r="24" data-paper-data="{&quot;index&quot;:0}"/><circle cx="-583.5" cy="986.25" transform="rotate(-90)" r="24" data-paper-data="{&quot;index&quot;:1}"/></g></g></svg>