<svg x="0" y="0" width="1100" height="850" version="1.1" xmlns="http://www.w3.org/2000/svg" xmlns:xlink="http://www.w3.org/1999/xlink"><g fill="none" stroke="none" stroke-width="none" stroke-linecap="none" stroke-linejoin="miter" stroke-miterlimit="10" stroke-dasharray="" stroke-dashoffset="0" font-family="sans-serif" font-size="12" text-anchor="start" mix-blend-mode="normal"><rect x="570" y="25" width="510" height="800" fill="#000000" stroke-width="1" stroke-linecap="butt"/><g stroke-width="1" stroke-linecap="butt"/><rect x="657.5" y="120" width="12.5" height="1.66667" stroke="#000000" stroke-width="0.5" stroke-linecap="butt" opacity="0"/><g stroke="#ffffff" stroke-width="0.5" stroke-linecap="round"><circle cx="-436.50943" cy="514.41365" transform="rotate(-120)" r="24" data-paper-data="{&quot;index&quot;:0}" opacity="0"/><circle cx="-412.5394" cy="514.39634" transform="rotate(-120)" r="24" data-paper-data="{&quot;index&quot;:1}" opacity="0"/><circle cx="-424.5394" cy="535.18095" transform="rotate(-120)" r="24" data-paper-data="{&quot;index&quot;:2}" opacity="0"/><circle cx="663.75" cy="106.9881" r="13.83333"/><circle cx="663.75" cy="106.9881" r="13.85064"/><circle cx="663.75" cy="106.9881" r="13.85064"/><circle cx="663.75" cy="106.9881" r="27.71914"/><circle cx="663.75" cy="106.9881" r="13.86851"/><circle cx="663.75" cy="106.9881" r="13.86851"/><circle cx="663.75" cy="106.9881" r="27.71914"/><circle cx="663.75" cy="106.9881" r="13.86905"/><circle cx="663.75" cy="106.9881" r="27.70238"/></g><rect x="765" y="120" width="12.5" height="1.66667" stroke="#000000" stroke-width="0.5" stroke-linecap="butt" opacity="0"/><g stroke="#ffffff" stroke-width="0.5" stroke-linecap="round"><circle cx="-490.29036" cy="607.49352" transform="rotate(-120)" r="24" data-paper-data="{&quot;index&quot;:0}" opacity="0"/><circle cx="-466.2894" cy="607.49407" transform="rotate(-120)" r="24" data-paper-data="{&quot;index&quot;:1}" opacity="0"/><circle cx="-478.2894" cy="628.27868" transform="rotate(-120)" r="24" data-paper-data="{&quot;index&quot;:2}" opacity="0"/><line x1="771.25" y1="120.85714" x2="759.25" y2="100.07143" data-paper-data="{&quot;endpoints&quot;:[[&quot;Point&quot;,771.25,120.85714],[&quot;Point&quot;,759.25,100.07143]]}" opacity="0"/><line x1="771.25" y1="120.85714" x2="783.25" y2="100.07143" data-paper-data="{&quot;endpoints&quot;:[[&quot;Point&quot;,771.25,120.85714],[&quot;Point&quot;,783.25,100.07143]]}" opacity="0"/><line x1="771.25" y1="120.85714" x2="747.25" y2="120.85714" data-paper-data="{&quot;endpoints&quot;:[[&quot;Point&quot;,771.25,120.85714],[&quot;Point&quot;,747.25,120.85714]]}" opacity="0"/><line x1="771.25" y1="120.85714" x2="795.25" y2="120.85714" data-paper-data="{&quot;endpoints&quot;:[[&quot;Point&quot;,771.25,120.85714],[&quot;Point&quot;,795.25,120.85714]]}" opacity="0"/><line x1="771.25" y1="120.85714" x2="771.25" y2="79.28571" data-paper-data="{&quot;endpoints&quot;:[[&quot;Point&quot;,771.25,120.85714],[&quot;Point&quot;,771.25,79.28571]]}"/><line x1="759.25" y1="100.07143" x2="783.25" y2="100.07143" data-paper-data="{&quot;endpoints&quot;:[[&quot;Point&quot;,759.25,100.07143],[&quot;Point&quot;,783.25,100.07143]]}" opacity="0"/><line x1="759.25" y1="100.07143" x2="747.25" y2="120.85714" data-paper-data="{&quot;endpoints&quot;:[[&quot;Point&quot;,759.25,100.07143],[&quot;Point&quot;,747.25,120.85714]]}" opacity="0"/><line x1="759.25" y1="100.07143" x2="795.25" y2="120.85714" data-paper-data="{&quot;endpoints&quot;:[[&quot;Point&quot;,759.25,100.07143],[&quot;Point&quot;,795.25,120.85714]]}"/><line x1="759.25" y1="100.07143" x2="771.25" y2="79.28571" data-paper-data="{&quot;endpoints&quot;:[[&quot;Point&quot;,759.25,100.07143],[&quot;Point&quot;,771.25,79.28571]]}" opacity="0"/><line x1="783.25" y1="100.07143" x2="747.25" y2="120.85714" data-paper-data="{&quot;endpoints&quot;:[[&quot;Point&quot;,783.25,100.07143],[&quot;Point&quot;,747.25,120.85714]]}"/><line x1="783.25" y1="100.07143" x2="795.25" y2="120.85714" data-paper-data="{&quot;endpoints&quot;:[[&quot;Point&quot;,783.25,100.07143],[&quot;Point&quot;,795.25,120.85714]]}" opacity="0"/><line x1="783.25" y1="100.07143" x2="771.25" y2="79.28571" data-paper-data="{&quot;endpoints&quot;:[[&quot;Point&quot;,783.25,100.07143],[&quot;Point&quot;,771.25,79.28571]]}" opacity="0"/><line x1="747.25" y1="120.85714" x2="795.25" y2="120.85714" data-paper-data="{&quot;endpoints&quot;:[[&quot;Point&quot;,747.25,120.85714],[&quot;Point&quot;,795.25,120.85714]]}" opacity="0"/><line x1="747.25" y1="120.85714" x2="771.25" y2="79.28571" data-paper-data="{&quot;endpoints&quot;:[[&quot;Point&quot;,747.25,120.85714],[&quot;Point&quot;,771.25,79.28571]]}" opacity="0"/><line x1="795.25" y1="120.85714" x2="771.25" y2="79.28571" data-paper-data="{&quot;endpoints&quot;:[[&quot;Point&quot;,795.25,120.85714],[&quot;Point&quot;,771.25,79.28571]]}" opacity="0"/></g><rect x="872.5" y="120" width="12.5" height="1.66667" stroke="#000000" stroke-width="0.5" stroke-linecap="butt" opacity="0"/><g stroke="#ffffff" stroke-width="0.5" stroke-linecap="round"><circle cx="-544.04036" cy="700.59125" transform="rotate(-120)" r="24" data-paper-data="{&quot;index&quot;:0}" opacity="0"/><circle cx="-520.0394" cy="700.5918" transform="rotate(-120)" r="24" data-paper-data="{&quot;index&quot;:1}" opacity="0"/><circle cx="-532.0394" cy="721.37641" transform="rotate(-120)" r="24" data-paper-data="{&quot;index&quot;:2}" opacity="0"/><circle cx="878.75" cy="107" r="1.5" fill="#ffffff"/></g><rect x="980" y="120" width="12.5" height="1.66667" stroke="#000000" stroke-width="0.5" stroke-linecap="butt" opacity="0"/><g stroke="#ffffff" stroke-width="0.5" stroke-linecap="round"><circle cx="-597.79036" cy="793.68898" transform="rotate(-120)" r="24" data-paper-data="{&quot;index&quot;:0}" opacity="0"/><circle cx="-573.7894" cy="793.68954" transform="rotate(-120)" r="24" data-paper-data="{&quot;index&quot;:1}" opacity="0"/><circle cx="-585.7894" cy="814.47415" transform="rotate(-120)" r="24" data-paper-data="{&quot;index&quot;:2}" opacity="0"/><circle cx="986.25" cy="107" r="1.5" fill="#ffffff"/><line x1="986.25" y1="120.85714" x2="974.25" y2="100.07143" data-paper-data="{&quot;endpoints&quot;:[[&quot;Point&quot;,986.25,120.85714],[&quot;Point&quot;,974.25,100.07143]]}" opacity="0"/><line x1="986.25" y1="120.85714" x2="998.25" y2="100.07143" data-paper-data="{&quot;endpoints&quot;:[[&quot;Point&quot;,986.25,120.85714],[&quot;Point&quot;,998.25,100.07143]]}" opacity="0"/><line x1="986.25" y1="120.85714" x2="962.25" y2="120.85714" data-paper-data="{&quot;endpoints&quot;:[[&quot;Point&quot;,986.25,120.85714],[&quot;Point&quot;,962.25,120.85714]]}" opacity="0"/><line x1="986.25" y1="120.85714" x2="1010.25" y2="120.85714" data-paper-data="{&quot;endpoints&quot;:[[&quot;Point&quot;,986.25,120.85714],[&quot;Point&quot;,1010.25,120.85714]]}" opacity="0"/><line x1="986.25" y1="120.85714" x2="986.25" y2="79.28571" data-paper-data="{&quot;endpoints&quot;:[[&quot;Point&quot;,986.25,120.85714],[&quot;Point&quot;,986.25,79.28571]]}"/><line x1="974.25" y1="100.07143" x2="998.25" y2="100.07143" data-paper-data="{&quot;endpoints&quot;:[[&quot;Point&quot;,974.25,100.07143],[&quot;Point&quot;,998.25,100.07143]]}" opacity="0"/><line x1="974.25" y1="100.07143" x2="962.25" y2="120.85714" data-paper-data="{&quot;endpoints&quot;:[[&quot;Point&quot;,974.25,100.07143],[&quot;Point&quot;,962.25,120.85714]]}" opacity="0"/><line x1="974.25" y1="100.07143" x2="1010.25" y2="120.85714" data-paper-data="{&quot;endpoints&quot;:[[&quot;Point&quot;,974.25,100.07143],[&quot;Point&quot;,1010.25,120.85714]]}"/><line x1="974.25" y1="100.07143" x2="986.25" y2="79.28571" data-paper-data="{&quot;endpoints&quot;:[[&quot;Point&quot;,974.25,100.07143],[&quot;Point&quot;,986.25,79.28571]]}" opacity="0"/><line x1="998.25" y1="100.07143" x2="962.25" y2="120.85714" data-paper-data="{&quot;endpoints&quot;:[[&quot;Point&quot;,998.25,100.07143],[&quot;Point&quot;,962.25,120.85714]]}"/><line x1="998.25" y1="100.07143" x2="1010.25" y2="120.85714" data-paper-data="{&quot;endpoints&quot;:[[&quot;Point&quot;,998.25,100.07143],[&quot;Point&quot;,1010.25,120.85714]]}" opacity="0"/><line x1="998.25" y1="100.07143" x2="986.25" y2="79.28571" data-paper-data="{&quot;endpoints&quot;:[[&quot;Point&quot;,998.25,100.07143],[&quot;Point&quot;,986.25,79.28571]]}" opacity="0"/><line x1="962.25" y1="120.85714" x2="1010.25" y2="120.85714" data-paper-data="{&quot;endpoints&quot;:[[&quot;Point&quot;,962.25,120.85714],[&quot;Point&quot;,1010.25,120.85714]]}" opacity="0"/><line x1="962.25" y1="120.85714" x2="986.25" y2="79.28571" data-paper-data="{&quot;endpoints&quot;:[[&quot;Point&quot;,962.25,120.85714],[&quot;Point&quot;,986.25,79.28571]]}" opacity="0"/><line x1="1010.25" y1="120.85714" x2="986.25" y2="79.28571" data-paper-data="{&quot;endpoints&quot;:[[&quot;Point&quot;,1010.25,120.85714],[&quot;Point&quot;,986.25,79.28571]]}" opacity="0"/><circle cx="986.25" cy="107" r="13.85714"/><circle cx="986.25" cy="107" r="13.85659"/><circle cx="986.25" cy="107" r="13.85659"/><circle cx="986.25" cy="107" r="27.71318"/><circle cx="986.25" cy="107" r="27.71318"/><circle cx="986.25" cy="107" r="27.71429"/></g><rect x="657.5" y="241.66667" width="12.5" height="1.66667" stroke="#000000" stroke-width="0.5" stroke-linecap="butt" opacity="0"/><g stroke="#ffffff" stroke-width="0.5" stroke-linecap="round"><circle cx="-541.88616" cy="453.57436" transform="rotate(-120)" r="24" data-paper-data="{&quot;index&quot;:0}" opacity="0"/><circle cx="-517.8852" cy="453.57491" transform="rotate(-120)" r="24" data-paper-data="{&quot;index&quot;:1}" opacity="0"/><circle cx="-529.8852" cy="474.35952" transform="rotate(-120)" r="24" data-paper-data="{&quot;index&quot;:2}" opacity="0"/></g><rect x="765" y="241.66667" width="12.5" height="1.66667" stroke="#000000" stroke-width="0.5" stroke-linecap="butt" opacity="0"/><g stroke="#ffffff" stroke-width="0.5" stroke-linecap="round"><circle cx="-595.63616" cy="546.67209" transform="rotate(-120)" r="24" data-paper-data="{&quot;index&quot;:0}" opacity="0"/><circle cx="-571.6352" cy="546.67264" transform="rotate(-120)" r="24" data-paper-data="{&quot;index&quot;:1}" opacity="0"/><circle cx="-583.6352" cy="567.45725" transform="rotate(-120)" r="24" data-paper-data="{&quot;index&quot;:2}" opacity="0"/><circle cx="771.25" cy="228.64286" r="13.85714"/><circle cx="771.25" cy="228.64286" r="10.14286"/></g><rect x="872.5" y="241.66667" width="12.5" height="1.66667" stroke="#000000" stroke-width="0.5" stroke-linecap="butt" opacity="0"/><g stroke="#ffffff" stroke-width="0.5" stroke-linecap="round"><circle cx="-649.38616" cy="639.76982" transform="rotate(-120)" r="24" data-paper-data="{&quot;index&quot;:0}" opacity="0"/><circle cx="-625.3852" cy="639.77038" transform="rotate(-120)" r="24" data-paper-data="{&quot;index&quot;:1}" opacity="0"/><circle cx="-637.3852" cy="660.55499" transform="rotate(-120)" r="24" data-paper-data="{&quot;index&quot;:2}" opacity="0"/><circle cx="872.75" cy="232.10714" r="20.78571"/><circle cx="884.75" cy="232.10714" r="20.78571"/><circle cx="878.75" cy="221.71429" r="20.78571"/><circle cx="872.75" cy="232.10714" r="12"/><circle cx="884.75" cy="232.10714" r="12"/><circle cx="878.75" cy="221.71429" r="12"/></g><rect x="980" y="241.66667" width="12.5" height="1.66667" stroke="#000000" stroke-width="0.5" stroke-linecap="butt" opacity="0"/><g stroke="#ffffff" stroke-width="0.5" stroke-linecap="round"><circle cx="-703.13616" cy="732.86755" transform="rotate(-120)" r="24" data-paper-data="{&quot;index&quot;:0}" opacity="0"/><circle cx="-679.1352" cy="732.86811" transform="rotate(-120)" r="24" data-paper-data="{&quot;index&quot;:1}" opacity="0"/><circle cx="-691.1352" cy="753.65272" transform="rotate(-120)" r="24" data-paper-data="{&quot;index&quot;:2}" opacity="0"/><circle cx="980.25" cy="232.10714" r="20.78571"/><circle cx="992.25" cy="232.10714" r="20.78571"/><circle cx="986.25" cy="221.71429" r="20.78571"/><circle cx="980.25" cy="232.10714" r="12"/><circle cx="992.25" cy="232.10714" r="12"/><circle cx="986.25" cy="221.71429" r="12"/><circle cx="986.25" cy="228.64286" r="13.85714"/><circle cx="986.25" cy="228.64286" r="10.14286"/></g><rect x="657.5" y="363.33333" width="12.5" height="1.66667" stroke="#000000" stroke-width="0.5" stroke-linecap="butt" opacity="0"/><g stroke="#ffffff" stroke-width="0.5" stroke-linecap="round"><circle cx="-647.26289" cy="392.73508" transform="rotate(-120)" r="24" data-paper-data="{&quot;index&quot;:0}" opacity="0"/><circle cx="-623.26194" cy="392.73563" transform="rotate(-120)" r="24" data-paper-data="{&quot;index&quot;:1}" opacity="0"/><circle cx="-635.26194" cy="413.52024" transform="rotate(-120)" r="24" data-paper-data="{&quot;index&quot;:2}" opacity="0"/><line x1="663.75" y1="364.17857" x2="651.75" y2="343.39286" data-paper-data="{&quot;endpoints&quot;:[[&quot;Point&quot;,663.75,364.17857],[&quot;Point&quot;,651.75,343.39286]]}" opacity="0"/><line x1="663.75" y1="364.17857" x2="675.75" y2="343.39286" data-paper-data="{&quot;endpoints&quot;:[[&quot;Point&quot;,663.75,364.17857],[&quot;Point&quot;,675.75,343.39286]]}" opacity="0"/><line x1="663.75" y1="364.17857" x2="639.75" y2="364.17857" data-paper-data="{&quot;endpoints&quot;:[[&quot;Point&quot;,663.75,364.17857],[&quot;Point&quot;,639.75,364.17857]]}" opacity="0"/><line x1="663.75" y1="364.17857" x2="687.75" y2="364.17857" data-paper-data="{&quot;endpoints&quot;:[[&quot;Point&quot;,663.75,364.17857],[&quot;Point&quot;,687.75,364.17857]]}" opacity="0"/><line x1="663.75" y1="364.17857" x2="663.75" y2="322.60714" data-paper-data="{&quot;endpoints&quot;:[[&quot;Point&quot;,663.75,364.17857],[&quot;Point&quot;,663.75,322.60714]]}" opacity="0"/><line x1="651.75" y1="343.39286" x2="675.75" y2="343.39286" data-paper-data="{&quot;endpoints&quot;:[[&quot;Point&quot;,651.75,343.39286],[&quot;Point&quot;,675.75,343.39286]]}" opacity="0"/><line x1="651.75" y1="343.39286" x2="639.75" y2="364.17857" data-paper-data="{&quot;endpoints&quot;:[[&quot;Point&quot;,651.75,343.39286],[&quot;Point&quot;,639.75,364.17857]]}" opacity="0"/><line x1="651.75" y1="343.39286" x2="687.75" y2="364.17857" data-paper-data="{&quot;endpoints&quot;:[[&quot;Point&quot;,651.75,343.39286],[&quot;Point&quot;,687.75,364.17857]]}" opacity="0"/><line x1="651.75" y1="343.39286" x2="663.75" y2="322.60714" data-paper-data="{&quot;endpoints&quot;:[[&quot;Point&quot;,651.75,343.39286],[&quot;Point&quot;,663.75,322.60714]]}" opacity="0"/><line x1="675.75" y1="343.39286" x2="639.75" y2="364.17857" data-paper-data="{&quot;endpoints&quot;:[[&quot;Point&quot;,675.75,343.39286],[&quot;Point&quot;,639.75,364.17857]]}" opacity="0"/><line x1="675.75" y1="343.39286" x2="687.75" y2="364.17857" data-paper-data="{&quot;endpoints&quot;:[[&quot;Point&quot;,675.75,343.39286],[&quot;Point&quot;,687.75,364.17857]]}" opacity="0"/><line x1="675.75" y1="343.39286" x2="663.75" y2="322.60714" data-paper-data="{&quot;endpoints&quot;:[[&quot;Point&quot;,675.75,343.39286],[&quot;Point&quot;,663.75,322.60714]]}" opacity="0"/><line x1="639.75" y1="364.17857" x2="687.75" y2="364.17857" data-paper-data="{&quot;endpoints&quot;:[[&quot;Point&quot;,639.75,364.17857],[&quot;Point&quot;,687.75,364.17857]]}" opacity="0"/><line x1="639.75" y1="364.17857" x2="663.75" y2="322.60714" data-paper-data="{&quot;endpoints&quot;:[[&quot;Point&quot;,639.75,364.17857],[&quot;Point&quot;,663.75,322.60714]]}" opacity="0"/><line x1="687.75" y1="364.17857" x2="663.75" y2="322.60714" data-paper-data="{&quot;endpoints&quot;:[[&quot;Point&quot;,687.75,364.17857],[&quot;Point&quot;,663.75,322.60714]]}" opacity="0"/></g><rect x="765" y="363.33333" width="12.5" height="1.66667" stroke="#000000" stroke-width="0.5" stroke-linecap="butt" opacity="0"/><g stroke="#ffffff" stroke-width="0.5" stroke-linecap="round"><circle cx="-701.01289" cy="485.83281" transform="rotate(-120)" r="24" data-paper-data="{&quot;index&quot;:0}" opacity="0"/><circle cx="-677.01194" cy="485.83336" transform="rotate(-120)" r="24" data-paper-data="{&quot;index&quot;:1}" opacity="0"/><circle cx="-689.01194" cy="506.61797" transform="rotate(-120)" r="24" data-paper-data="{&quot;index&quot;:2}" opacity="0"/><line x1="771.25" y1="364.17857" x2="759.25" y2="343.39286" data-paper-data="{&quot;endpoints&quot;:[[&quot;Point&quot;,771.25,364.17857],[&quot;Point&quot;,759.25,343.39286]]}" opacity="0"/><line x1="771.25" y1="364.17857" x2="783.25" y2="343.39286" data-paper-data="{&quot;endpoints&quot;:[[&quot;Point&quot;,771.25,364.17857],[&quot;Point&quot;,783.25,343.39286]]}" opacity="0"/><line x1="771.25" y1="364.17857" x2="747.25" y2="364.17857" data-paper-data="{&quot;endpoints&quot;:[[&quot;Point&quot;,771.25,364.17857],[&quot;Point&quot;,747.25,364.17857]]}" opacity="0"/><line x1="771.25" y1="364.17857" x2="795.25" y2="364.17857" data-paper-data="{&quot;endpoints&quot;:[[&quot;Point&quot;,771.25,364.17857],[&quot;Point&quot;,795.25,364.17857]]}" opacity="0"/><line x1="771.25" y1="364.17857" x2="771.25" y2="322.60714" data-paper-data="{&quot;endpoints&quot;:[[&quot;Point&quot;,771.25,364.17857],[&quot;Point&quot;,771.25,322.60714]]}"/><line x1="759.25" y1="343.39286" x2="783.25" y2="343.39286" data-paper-data="{&quot;endpoints&quot;:[[&quot;Point&quot;,759.25,343.39286],[&quot;Point&quot;,783.25,343.39286]]}" opacity="0"/><line x1="759.25" y1="343.39286" x2="747.25" y2="364.17857" data-paper-data="{&quot;endpoints&quot;:[[&quot;Point&quot;,759.25,343.39286],[&quot;Point&quot;,747.25,364.17857]]}" opacity="0"/><line x1="759.25" y1="343.39286" x2="795.25" y2="364.17857" data-paper-data="{&quot;endpoints&quot;:[[&quot;Point&quot;,759.25,343.39286],[&quot;Point&quot;,795.25,364.17857]]}"/><line x1="759.25" y1="343.39286" x2="771.25" y2="322.60714" data-paper-data="{&quot;endpoints&quot;:[[&quot;Point&quot;,759.25,343.39286],[&quot;Point&quot;,771.25,322.60714]]}" opacity="0"/><line x1="783.25" y1="343.39286" x2="747.25" y2="364.17857" data-paper-data="{&quot;endpoints&quot;:[[&quot;Point&quot;,783.25,343.39286],[&quot;Point&quot;,747.25,364.17857]]}"/><line x1="783.25" y1="343.39286" x2="795.25" y2="364.17857" data-paper-data="{&quot;endpoints&quot;:[[&quot;Point&quot;,783.25,343.39286],[&quot;Point&quot;,795.25,364.17857]]}" opacity="0"/><line x1="783.25" y1="343.39286" x2="771.25" y2="322.60714" data-paper-data="{&quot;endpoints&quot;:[[&quot;Point&quot;,783.25,343.39286],[&quot;Point&quot;,771.25,322.60714]]}" opacity="0"/><line x1="747.25" y1="364.17857" x2="795.25" y2="364.17857" data-paper-data="{&quot;endpoints&quot;:[[&quot;Point&quot;,747.25,364.17857],[&quot;Point&quot;,795.25,364.17857]]}" opacity="0"/><line x1="747.25" y1="364.17857" x2="771.25" y2="322.60714" data-paper-data="{&quot;endpoints&quot;:[[&quot;Point&quot;,747.25,364.17857],[&quot;Point&quot;,771.25,322.60714]]}" opacity="0"/><line x1="795.25" y1="364.17857" x2="771.25" y2="322.60714" data-paper-data="{&quot;endpoints&quot;:[[&quot;Point&quot;,795.25,364.17857],[&quot;Point&quot;,771.25,322.60714]]}" opacity="0"/></g><rect x="872.5" y="363.33333" width="12.5" height="1.66667" stroke="#000000" stroke-width="0.5" stroke-linecap="butt" opacity="0"/><g stroke="#ffffff" stroke-width="0.5" stroke-linecap="round"><circle cx="-754.76289" cy="578.93054" transform="rotate(-120)" r="24" data-paper-data="{&quot;index&quot;:0}" opacity="0"/><circle cx="-730.76194" cy="578.93109" transform="rotate(-120)" r="24" data-paper-data="{&quot;index&quot;:1}" opacity="0"/><circle cx="-742.76194" cy="599.7157" transform="rotate(-120)" r="24" data-paper-data="{&quot;index&quot;:2}" opacity="0"/><line x1="878.75" y1="364.17857" x2="866.75" y2="343.39286" data-paper-data="{&quot;endpoints&quot;:[[&quot;Point&quot;,878.75,364.17857],[&quot;Point&quot;,866.75,343.39286]]}"/><line x1="878.75" y1="364.17857" x2="890.75" y2="343.39286" data-paper-data="{&quot;endpoints&quot;:[[&quot;Point&quot;,878.75,364.17857],[&quot;Point&quot;,890.75,343.39286]]}"/><line x1="878.75" y1="364.17857" x2="854.75" y2="364.17857" data-paper-data="{&quot;endpoints&quot;:[[&quot;Point&quot;,878.75,364.17857],[&quot;Point&quot;,854.75,364.17857]]}"/><line x1="878.75" y1="364.17857" x2="902.75" y2="364.17857" data-paper-data="{&quot;endpoints&quot;:[[&quot;Point&quot;,878.75,364.17857],[&quot;Point&quot;,902.75,364.17857]]}"/><line x1="878.75" y1="364.17857" x2="878.75" y2="322.60714" data-paper-data="{&quot;endpoints&quot;:[[&quot;Point&quot;,878.75,364.17857],[&quot;Point&quot;,878.75,322.60714]]}" opacity="0"/><line x1="866.75" y1="343.39286" x2="890.75" y2="343.39286" data-paper-data="{&quot;endpoints&quot;:[[&quot;Point&quot;,866.75,343.39286],[&quot;Point&quot;,890.75,343.39286]]}"/><line x1="866.75" y1="343.39286" x2="854.75" y2="364.17857" data-paper-data="{&quot;endpoints&quot;:[[&quot;Point&quot;,866.75,343.39286],[&quot;Point&quot;,854.75,364.17857]]}"/><line x1="866.75" y1="343.39286" x2="902.75" y2="364.17857" data-paper-data="{&quot;endpoints&quot;:[[&quot;Point&quot;,866.75,343.39286],[&quot;Point&quot;,902.75,364.17857]]}" opacity="0"/><line x1="866.75" y1="343.39286" x2="878.75" y2="322.60714" data-paper-data="{&quot;endpoints&quot;:[[&quot;Point&quot;,866.75,343.39286],[&quot;Point&quot;,878.75,322.60714]]}"/><line x1="890.75" y1="343.39286" x2="854.75" y2="364.17857" data-paper-data="{&quot;endpoints&quot;:[[&quot;Point&quot;,890.75,343.39286],[&quot;Point&quot;,854.75,364.17857]]}" opacity="0"/><line x1="890.75" y1="343.39286" x2="902.75" y2="364.17857" data-paper-data="{&quot;endpoints&quot;:[[&quot;Point&quot;,890.75,343.39286],[&quot;Point&quot;,902.75,364.17857]]}"/><line x1="890.75" y1="343.39286" x2="878.75" y2="322.60714" data-paper-data="{&quot;endpoints&quot;:[[&quot;Point&quot;,890.75,343.39286],[&quot;Point&quot;,878.75,322.60714]]}"/><line x1="854.75" y1="364.17857" x2="902.75" y2="364.17857" data-paper-data="{&quot;endpoints&quot;:[[&quot;Point&quot;,854.75,364.17857],[&quot;Point&quot;,902.75,364.17857]]}" opacity="0"/><line x1="854.75" y1="364.17857" x2="878.75" y2="322.60714" data-paper-data="{&quot;endpoints&quot;:[[&quot;Point&quot;,854.75,364.17857],[&quot;Point&quot;,878.75,322.60714]]}" opacity="0"/><line x1="902.75" y1="364.17857" x2="878.75" y2="322.60714" data-paper-data="{&quot;endpoints&quot;:[[&quot;Point&quot;,902.75,364.17857],[&quot;Point&quot;,878.75,322.60714]]}" opacity="0"/></g><rect x="980" y="363.33333" width="12.5" height="1.66667" stroke="#000000" stroke-width="0.5" stroke-linecap="butt" opacity="0"/><g stroke="#ffffff" stroke-width="0.5" stroke-linecap="round"><circle cx="-808.51289" cy="672.02827" transform="rotate(-120)" r="24" data-paper-data="{&quot;index&quot;:0}" opacity="0"/><circle cx="-784.51194" cy="672.02882" transform="rotate(-120)" r="24" data-paper-data="{&quot;index&quot;:1}" opacity="0"/><circle cx="-796.51194" cy="692.81343" transform="rotate(-120)" r="24" data-paper-data="{&quot;index&quot;:2}" opacity="0"/><line x1="986.25" y1="364.17857" x2="974.25" y2="343.39286" data-paper-data="{&quot;endpoints&quot;:[[&quot;Point&quot;,986.25,364.17857],[&quot;Point&quot;,974.25,343.39286]]}"/><line x1="986.25" y1="364.17857" x2="998.25" y2="343.39286" data-paper-data="{&quot;endpoints&quot;:[[&quot;Point&quot;,986.25,364.17857],[&quot;Point&quot;,998.25,343.39286]]}"/><line x1="986.25" y1="364.17857" x2="962.25" y2="364.17857" data-paper-data="{&quot;endpoints&quot;:[[&quot;Point&quot;,986.25,364.17857],[&quot;Point&quot;,962.25,364.17857]]}"/><line x1="986.25" y1="364.17857" x2="1010.25" y2="364.17857" data-paper-data="{&quot;endpoints&quot;:[[&quot;Point&quot;,986.25,364.17857],[&quot;Point&quot;,1010.25,364.17857]]}"/><line x1="986.25" y1="364.17857" x2="986.25" y2="322.60714" data-paper-data="{&quot;endpoints&quot;:[[&quot;Point&quot;,986.25,364.17857],[&quot;Point&quot;,986.25,322.60714]]}"/><line x1="974.25" y1="343.39286" x2="998.25" y2="343.39286" data-paper-data="{&quot;endpoints&quot;:[[&quot;Point&quot;,974.25,343.39286],[&quot;Point&quot;,998.25,343.39286]]}"/><line x1="974.25" y1="343.39286" x2="962.25" y2="364.17857" data-paper-data="{&quot;endpoints&quot;:[[&quot;Point&quot;,974.25,343.39286],[&quot;Point&quot;,962.25,364.17857]]}"/><line x1="974.25" y1="343.39286" x2="1010.25" y2="364.17857" data-paper-data="{&quot;endpoints&quot;:[[&quot;Point&quot;,974.25,343.39286],[&quot;Point&quot;,1010.25,364.17857]]}"/><line x1="974.25" y1="343.39286" x2="986.25" y2="322.60714" data-paper-data="{&quot;endpoints&quot;:[[&quot;Point&quot;,974.25,343.39286],[&quot;Point&quot;,986.25,322.60714]]}"/><line x1="998.25" y1="343.39286" x2="962.25" y2="364.17857" data-paper-data="{&quot;endpoints&quot;:[[&quot;Point&quot;,998.25,343.39286],[&quot;Point&quot;,962.25,364.17857]]}"/><line x1="998.25" y1="343.39286" x2="1010.25" y2="364.17857" data-paper-data="{&quot;endpoints&quot;:[[&quot;Point&quot;,998.25,343.39286],[&quot;Point&quot;,1010.25,364.17857]]}"/><line x1="998.25" y1="343.39286" x2="986.25" y2="322.60714" data-paper-data="{&quot;endpoints&quot;:[[&quot;Point&quot;,998.25,343.39286],[&quot;Point&quot;,986.25,322.60714]]}"/><line x1="962.25" y1="364.17857" x2="1010.25" y2="364.17857" data-paper-data="{&quot;endpoints&quot;:[[&quot;Point&quot;,962.25,364.17857],[&quot;Point&quot;,1010.25,364.17857]]}" opacity="0"/><line x1="962.25" y1="364.17857" x2="986.25" y2="322.60714" data-paper-data="{&quot;endpoints&quot;:[[&quot;Point&quot;,962.25,364.17857],[&quot;Point&quot;,986.25,322.60714]]}" opacity="0"/><line x1="1010.25" y1="364.17857" x2="986.25" y2="322.60714" data-paper-data="{&quot;endpoints&quot;:[[&quot;Point&quot;,1010.25,364.17857],[&quot;Point&quot;,986.25,322.60714]]}" opacity="0"/></g><rect x="980" y="485" width="12.5" height="1.66667" stroke="#000000" stroke-width="0.5" stroke-linecap="butt" opacity="0"/><g stroke="#ffffff" stroke-width="0.5" stroke-linecap="round"><circle cx="-913.8587" cy="611.20684" transform="rotate(-120)" r="24" data-paper-data="{&quot;index&quot;:0}" opacity="0"/><circle cx="-889.88867" cy="611.18954" transform="rotate(-120)" r="24" data-paper-data="{&quot;index&quot;:1}" opacity="0"/><circle cx="-901.88867" cy="631.97415" transform="rotate(-120)" r="24" data-paper-data="{&quot;index&quot;:2}" opacity="0"/><circle cx="986.25" cy="485.82143" r="1.5" fill="#ffffff"/><circle cx="974.25" cy="465.07143" r="1.5" fill="#ffffff"/><circle cx="998.25" cy="465.07143" r="1.5" fill="#ffffff"/><circle cx="962.25" cy="485.85714" r="1.5" fill="#ffffff"/><circle cx="998.25" cy="465.03571" r="1.5" fill="#ffffff"/><circle cx="974.25" cy="465.03571" r="1.5" fill="#ffffff"/><circle cx="1010.25" cy="485.85714" r="1.5" fill="#ffffff"/><circle cx="986.25" cy="485.85714" r="1.5" fill="#ffffff"/><circle cx="986.25" cy="444.28571" r="1.5" fill="#ffffff"/></g><rect x="980" y="606.66667" width="12.5" height="1.66667" stroke="#000000" stroke-width="0.5" stroke-linecap="butt" opacity="0"/><g stroke="#ffffff" stroke-width="0.5" stroke-linecap="round"><circle cx="-1019.23543" cy="550.36755" transform="rotate(-120)" r="24" data-paper-data="{&quot;index&quot;:0}"/><circle cx="-995.23448" cy="550.36811" transform="rotate(-120)" r="24" data-paper-data="{&quot;index&quot;:1}"/><circle cx="-1007.23448" cy="571.15272" transform="rotate(-120)" r="24" data-paper-data="{&quot;index&quot;:2}"/></g></g></svg>