<svg x="0" y="0" width="1100" height="850" version="1.1" xmlns="http://www.w3.org/2000/svg" xmlns:xlink="http://www.w3.org/1999/xlink"><g fill="none" stroke="none" stroke-width="none" stroke-linecap="none" stroke-linejoin="miter" stroke-miterlimit="10" stroke-dasharray="none" stroke-dashoffset="0" font-family="sans-serif" font-size="12" text-anchor="start" mix-blend-mode="normal"><line x1="20" y1="25" x2="530" y2="25" stroke="#000000" stroke-width="0.5" stroke-linecap="round" stroke-dasharray="0.5,1"/><rect x="20" y="50" width="510" height="775" fill="#000000" stroke-width="1" stroke-linecap="butt" stroke-dasharray=""/><g stroke-width="1" stroke-linecap="butt" stroke-dasharray=""/><rect x="-120" y="-262.5" transform="rotate(180)" width="12.5" height="2.5" stroke="#000000" stroke-width="0.5" stroke-linecap="butt" stroke-dasharray="" opacity="0"/><g stroke="#ffffff" stroke-width="0.5" stroke-linecap="round" stroke-dasharray=""><circle cx="-261.25" cy="113.75" transform="rotate(-90)" r="24" data-paper-data="{&quot;index&quot;:0}" opacity="0"/><rect x="261.25" y="-113.75" transform="rotate(90)" width="0" height="0"/></g><rect x="-227.5" y="-262.5" transform="rotate(180)" width="12.5" height="2.5" stroke="#000000" stroke-width="0.5" stroke-linecap="butt" stroke-dasharray="" opacity="0"/><g stroke="#ffffff" stroke-width="0.5" stroke-linecap="round" stroke-dasharray=""><circle cx="-261.25" cy="221.25" transform="rotate(-90)" r="24" data-paper-data="{&quot;index&quot;:0}" opacity="0"/></g><rect x="-335" y="-262.5" transform="rotate(180)" width="12.5" height="2.5" stroke="#000000" stroke-width="0.5" stroke-linecap="butt" stroke-dasharray="" opacity="0"/><g stroke="#ffffff" stroke-width="0.5" stroke-linecap="round" stroke-dasharray=""><circle cx="-261.25" cy="328.75" transform="rotate(-90)" r="24" data-paper-data="{&quot;index&quot;:0}" opacity="0"/><circle cx="328.75" cy="261.25" r="1.5" fill="#ffffff"/></g><rect x="-442.5" y="-262.5" transform="rotate(180)" width="12.5" height="2.5" stroke="#000000" stroke-width="0.5" stroke-linecap="butt" stroke-dasharray="" opacity="0"/><g stroke="#ffffff" stroke-width="0.5" stroke-linecap="round" stroke-dasharray=""><circle cx="-261.25" cy="436.25" transform="rotate(-90)" r="24" data-paper-data="{&quot;index&quot;:0}" opacity="0"/><circle cx="436.25" cy="261.25" r="1.5" fill="#ffffff"/><rect x="261.25" y="-436.25" transform="rotate(90)" width="0" height="0"/></g><rect x="-120" y="-380" transform="rotate(180)" width="12.5" height="2.5" stroke="#000000" stroke-width="0.5" stroke-linecap="butt" stroke-dasharray="" opacity="0"/><g stroke="#ffffff" stroke-width="0.5" stroke-linecap="round" stroke-dasharray=""><circle cx="-378.75" cy="113.75" transform="rotate(-90)" r="24" data-paper-data="{&quot;index&quot;:0}" opacity="0"/></g><rect x="-227.5" y="-380" transform="rotate(180)" width="12.5" height="2.5" stroke="#000000" stroke-width="0.5" stroke-linecap="butt" stroke-dasharray="" opacity="0"/><g stroke="#ffffff" stroke-width="0.5" stroke-linecap="round" stroke-dasharray=""><circle cx="-378.75" cy="221.25" transform="rotate(-90)" r="24" data-paper-data="{&quot;index&quot;:0}" opacity="0"/></g><rect x="-335" y="-380" transform="rotate(180)" width="12.5" height="2.5" stroke="#000000" stroke-width="0.5" stroke-linecap="butt" stroke-dasharray="" opacity="0"/><g stroke="#ffffff" stroke-width="0.5" stroke-linecap="round" stroke-dasharray=""><circle cx="-378.75" cy="328.75" transform="rotate(-90)" r="24" data-paper-data="{&quot;index&quot;:0}" opacity="0"/></g><rect x="-442.5" y="-380" transform="rotate(180)" width="12.5" height="2.5" stroke="#000000" stroke-width="0.5" stroke-linecap="butt" stroke-dasharray="" opacity="0"/><g stroke="#ffffff" stroke-width="0.5" stroke-linecap="round" stroke-dasharray=""><circle cx="-378.75" cy="436.25" transform="rotate(-90)" r="24" data-paper-data="{&quot;index&quot;:0}" opacity="0"/></g><rect x="-120" y="-497.5" transform="rotate(180)" width="12.5" height="2.5" stroke="#000000" stroke-width="0.5" stroke-linecap="butt" stroke-dasharray="" opacity="0"/><g stroke="#ffffff" stroke-width="0.5" stroke-linecap="round" stroke-dasharray=""><circle cx="-496.25" cy="113.75" transform="rotate(-90)" r="24" data-paper-data="{&quot;index&quot;:0}" opacity="0"/></g><rect x="-227.5" y="-497.5" transform="rotate(180)" width="12.5" height="2.5" stroke="#000000" stroke-width="0.5" stroke-linecap="butt" stroke-dasharray="" opacity="0"/><g stroke="#ffffff" stroke-width="0.5" stroke-linecap="round" stroke-dasharray=""><circle cx="-496.25" cy="221.25" transform="rotate(-90)" r="24" data-paper-data="{&quot;index&quot;:0}" opacity="0"/></g><rect x="-335" y="-497.5" transform="rotate(180)" width="12.5" height="2.5" stroke="#000000" stroke-width="0.5" stroke-linecap="butt" stroke-dasharray="" opacity="0"/><g stroke="#ffffff" stroke-width="0.5" stroke-linecap="round" stroke-dasharray=""><circle cx="-496.25" cy="328.75" transform="rotate(-90)" r="24" data-paper-data="{&quot;index&quot;:0}" opacity="0"/></g><rect x="-442.5" y="-497.5" transform="rotate(180)" width="12.5" height="2.5" stroke="#000000" stroke-width="0.5" stroke-linecap="butt" stroke-dasharray="" opacity="0"/><g stroke="#ffffff" stroke-width="0.5" stroke-linecap="round" stroke-dasharray=""><circle cx="-496.25" cy="436.25" transform="rotate(-90)" r="24" data-paper-data="{&quot;index&quot;:0}" opacity="0"/></g><rect x="-442.5" y="-615" transform="rotate(180)" width="12.5" height="2.5" stroke="#000000" stroke-width="0.5" stroke-linecap="butt" stroke-dasharray="" opacity="0"/><g stroke="#ffffff" stroke-width="0.5" stroke-linecap="round" stroke-dasharray=""><circle cx="-613.75" cy="436.25" transform="rotate(-90)" r="24" data-paper-data="{&quot;index&quot;:0}" opacity="0"/><circle cx="436.25" cy="613.75" r="1.5" fill="#ffffff"/></g><rect x="-442.5" y="-732.5" transform="rotate(180)" width="12.5" height="2.5" stroke="#000000" stroke-width="0.5" stroke-linecap="butt" stroke-dasharray="" opacity="0"/><g stroke="#ffffff" stroke-width="0.5" stroke-linecap="round" stroke-dasharray=""><circle cx="-731.25" cy="436.25" transform="rotate(-90)" r="24" data-paper-data="{&quot;index&quot;:0}"/></g><line x1="570" y1="25" x2="1080" y2="25" stroke="#000000" stroke-width="0.5" stroke-linecap="round" stroke-dasharray="0.5,1"/><rect x="570" y="50" width="510" height="775" fill="#000000" stroke-width="1" stroke-linecap="butt" stroke-dasharray=""/><g stroke-width="1" stroke-linecap="butt" stroke-dasharray=""/><rect x="-670" y="-262.5" transform="rotate(180)" width="12.5" height="2.5" stroke="#000000" stroke-width="0.5" stroke-linecap="butt" stroke-dasharray="" opacity="0"/><g stroke="#ffffff" stroke-width="0.5" stroke-linecap="round" stroke-dasharray=""><circle cx="-261.25" cy="663.75" transform="rotate(-90)" r="24" data-paper-data="{&quot;index&quot;:0}" opacity="0"/><circle cx="-237.25" cy="663.75" transform="rotate(-90)" r="24" data-paper-data="{&quot;index&quot;:1}" opacity="0"/><circle cx="663.75" cy="249.25" r="12"/><circle cx="663.75" cy="249.25" r="12"/><circle cx="663.75" cy="249.25" r="20.78571"/><circle cx="663.75" cy="249.25" r="20.78571"/></g><rect x="-777.5" y="-262.5" transform="rotate(180)" width="12.5" height="2.5" stroke="#000000" stroke-width="0.5" stroke-linecap="butt" stroke-dasharray="" opacity="0"/><g stroke="#ffffff" stroke-width="0.5" stroke-linecap="round" stroke-dasharray=""><circle cx="-261.25" cy="771.25" transform="rotate(-90)" r="24" data-paper-data="{&quot;index&quot;:0}" opacity="0"/><circle cx="-237.25" cy="771.25" transform="rotate(-90)" r="24" data-paper-data="{&quot;index&quot;:1}" opacity="0"/><line x1="771.25" y1="261.25" x2="771.25" y2="237.25" data-paper-data="{&quot;endpoints&quot;:[[&quot;Point&quot;,771.25,261.25],[&quot;Point&quot;,771.25,237.25]]}"/><line x1="771.25" y1="261.25" x2="750.46429" y2="249.25" data-paper-data="{&quot;endpoints&quot;:[[&quot;Point&quot;,771.25,261.25],[&quot;Point&quot;,750.46429,249.25]]}" opacity="0"/><line x1="771.25" y1="261.25" x2="792.03571" y2="249.25" data-paper-data="{&quot;endpoints&quot;:[[&quot;Point&quot;,771.25,261.25],[&quot;Point&quot;,792.03571,249.25]]}" opacity="0"/><line x1="771.25" y1="237.25" x2="750.46429" y2="249.25" data-paper-data="{&quot;endpoints&quot;:[[&quot;Point&quot;,771.25,237.25],[&quot;Point&quot;,750.46429,249.25]]}" opacity="0"/><line x1="771.25" y1="237.25" x2="792.03571" y2="249.25" data-paper-data="{&quot;endpoints&quot;:[[&quot;Point&quot;,771.25,237.25],[&quot;Point&quot;,792.03571,249.25]]}" opacity="0"/><line x1="750.46429" y1="249.25" x2="792.03571" y2="249.25" data-paper-data="{&quot;endpoints&quot;:[[&quot;Point&quot;,750.46429,249.25],[&quot;Point&quot;,792.03571,249.25]]}"/></g><rect x="-885" y="-262.5" transform="rotate(180)" width="12.5" height="2.5" stroke="#000000" stroke-width="0.5" stroke-linecap="butt" stroke-dasharray="" opacity="0"/><g stroke="#ffffff" stroke-width="0.5" stroke-linecap="round" stroke-dasharray=""><circle cx="-261.25" cy="878.75" transform="rotate(-90)" r="24" data-paper-data="{&quot;index&quot;:0}" opacity="0"/><circle cx="-237.25" cy="878.75" transform="rotate(-90)" r="24" data-paper-data="{&quot;index&quot;:1}" opacity="0"/><circle cx="878.75" cy="249.25" r="1.5" fill="#ffffff"/></g><rect x="-992.5" y="-262.5" transform="rotate(180)" width="12.5" height="2.5" stroke="#000000" stroke-width="0.5" stroke-linecap="butt" stroke-dasharray="" opacity="0"/><g stroke="#ffffff" stroke-width="0.5" stroke-linecap="round" stroke-dasharray=""><circle cx="-261.25" cy="986.25" transform="rotate(-90)" r="24" data-paper-data="{&quot;index&quot;:0}" opacity="0"/><circle cx="-237.25" cy="986.25" transform="rotate(-90)" r="24" data-paper-data="{&quot;index&quot;:1}" opacity="0"/><circle cx="986.25" cy="249.25" r="1.5" fill="#ffffff"/><line x1="986.25" y1="261.25" x2="986.25" y2="237.25" data-paper-data="{&quot;endpoints&quot;:[[&quot;Point&quot;,986.25,261.25],[&quot;Point&quot;,986.25,237.25]]}"/><line x1="986.25" y1="261.25" x2="965.46429" y2="249.25" data-paper-data="{&quot;endpoints&quot;:[[&quot;Point&quot;,986.25,261.25],[&quot;Point&quot;,965.46429,249.25]]}" opacity="0"/><line x1="986.25" y1="261.25" x2="1007.03571" y2="249.25" data-paper-data="{&quot;endpoints&quot;:[[&quot;Point&quot;,986.25,261.25],[&quot;Point&quot;,1007.03571,249.25]]}" opacity="0"/><line x1="986.25" y1="237.25" x2="965.46429" y2="249.25" data-paper-data="{&quot;endpoints&quot;:[[&quot;Point&quot;,986.25,237.25],[&quot;Point&quot;,965.46429,249.25]]}" opacity="0"/><line x1="986.25" y1="237.25" x2="1007.03571" y2="249.25" data-paper-data="{&quot;endpoints&quot;:[[&quot;Point&quot;,986.25,237.25],[&quot;Point&quot;,1007.03571,249.25]]}" opacity="0"/><line x1="965.46429" y1="249.25" x2="1007.03571" y2="249.25" data-paper-data="{&quot;endpoints&quot;:[[&quot;Point&quot;,965.46429,249.25],[&quot;Point&quot;,1007.03571,249.25]]}"/><circle cx="986.25" cy="249.25" r="12"/><circle cx="986.25" cy="249.25" r="12"/><circle cx="986.25" cy="249.25" r="20.78571"/><circle cx="986.25" cy="249.25" r="20.78571"/></g><rect x="-670" y="-380" transform="rotate(180)" width="12.5" height="2.5" stroke="#000000" stroke-width="0.5" stroke-linecap="butt" stroke-dasharray="" opacity="0"/><g stroke="#ffffff" stroke-width="0.5" stroke-linecap="round" stroke-dasharray=""><circle cx="-378.75" cy="663.75" transform="rotate(-90)" r="24" data-paper-data="{&quot;index&quot;:0}" opacity="0"/><circle cx="-354.75" cy="663.75" transform="rotate(-90)" r="24" data-paper-data="{&quot;index&quot;:1}" opacity="0"/></g><rect x="-777.5" y="-380" transform="rotate(180)" width="12.5" height="2.5" stroke="#000000" stroke-width="0.5" stroke-linecap="butt" stroke-dasharray="" opacity="0"/><g stroke="#ffffff" stroke-width="0.5" stroke-linecap="round" stroke-dasharray=""><circle cx="-378.75" cy="771.25" transform="rotate(-90)" r="24" data-paper-data="{&quot;index&quot;:0}" opacity="0"/><circle cx="-354.75" cy="771.25" transform="rotate(-90)" r="24" data-paper-data="{&quot;index&quot;:1}" opacity="0"/></g><rect x="-885" y="-380" transform="rotate(180)" width="12.5" height="2.5" stroke="#000000" stroke-width="0.5" stroke-linecap="butt" stroke-dasharray="" opacity="0"/><g stroke="#ffffff" stroke-width="0.5" stroke-linecap="round" stroke-dasharray=""><circle cx="-378.75" cy="878.75" transform="rotate(-90)" r="24" data-paper-data="{&quot;index&quot;:0}" opacity="0"/><circle cx="-354.75" cy="878.75" transform="rotate(-90)" r="24" data-paper-data="{&quot;index&quot;:1}" opacity="0"/><circle cx="878.75" cy="366.75" r="20.78571"/><circle cx="878.75" cy="366.75" r="12"/></g><rect x="-992.5" y="-380" transform="rotate(180)" width="12.5" height="2.5" stroke="#000000" stroke-width="0.5" stroke-linecap="butt" stroke-dasharray="" opacity="0"/><g stroke="#ffffff" stroke-width="0.5" stroke-linecap="round" stroke-dasharray=""><circle cx="-378.75" cy="986.25" transform="rotate(-90)" r="24" data-paper-data="{&quot;index&quot;:0}" opacity="0"/><circle cx="-354.75" cy="986.25" transform="rotate(-90)" r="24" data-paper-data="{&quot;index&quot;:1}" opacity="0"/><circle cx="986.25" cy="366.75" r="20.78571"/><circle cx="986.25" cy="366.75" r="12"/></g><rect x="-670" y="-497.5" transform="rotate(180)" width="12.5" height="2.5" stroke="#000000" stroke-width="0.5" stroke-linecap="butt" stroke-dasharray="" opacity="0"/><g stroke="#ffffff" stroke-width="0.5" stroke-linecap="round" stroke-dasharray=""><circle cx="-496.25" cy="663.75" transform="rotate(-90)" r="24" data-paper-data="{&quot;index&quot;:0}" opacity="0"/><circle cx="-472.25" cy="663.75" transform="rotate(-90)" r="24" data-paper-data="{&quot;index&quot;:1}" opacity="0"/><line x1="663.75" y1="496.25" x2="663.75" y2="472.25" data-paper-data="{&quot;endpoints&quot;:[[&quot;Point&quot;,663.75,496.25],[&quot;Point&quot;,663.75,472.25]]}" opacity="0"/><line x1="663.75" y1="496.25" x2="642.96429" y2="484.25" data-paper-data="{&quot;endpoints&quot;:[[&quot;Point&quot;,663.75,496.25],[&quot;Point&quot;,642.96429,484.25]]}" opacity="0"/><line x1="663.75" y1="496.25" x2="684.53571" y2="484.25" data-paper-data="{&quot;endpoints&quot;:[[&quot;Point&quot;,663.75,496.25],[&quot;Point&quot;,684.53571,484.25]]}" opacity="0"/><line x1="663.75" y1="472.25" x2="642.96429" y2="484.25" data-paper-data="{&quot;endpoints&quot;:[[&quot;Point&quot;,663.75,472.25],[&quot;Point&quot;,642.96429,484.25]]}" opacity="0"/><line x1="663.75" y1="472.25" x2="684.53571" y2="484.25" data-paper-data="{&quot;endpoints&quot;:[[&quot;Point&quot;,663.75,472.25],[&quot;Point&quot;,684.53571,484.25]]}" opacity="0"/><line x1="642.96429" y1="484.25" x2="684.53571" y2="484.25" data-paper-data="{&quot;endpoints&quot;:[[&quot;Point&quot;,642.96429,484.25],[&quot;Point&quot;,684.53571,484.25]]}" opacity="0"/></g><rect x="-777.5" y="-497.5" transform="rotate(180)" width="12.5" height="2.5" stroke="#000000" stroke-width="0.5" stroke-linecap="butt" stroke-dasharray="" opacity="0"/><g stroke="#ffffff" stroke-width="0.5" stroke-linecap="round" stroke-dasharray=""><circle cx="-496.25" cy="771.25" transform="rotate(-90)" r="24" data-paper-data="{&quot;index&quot;:0}" opacity="0"/><circle cx="-472.25" cy="771.25" transform="rotate(-90)" r="24" data-paper-data="{&quot;index&quot;:1}" opacity="0"/><line x1="771.25" y1="496.25" x2="771.25" y2="472.25" data-paper-data="{&quot;endpoints&quot;:[[&quot;Point&quot;,771.25,496.25],[&quot;Point&quot;,771.25,472.25]]}" opacity="0"/><line x1="771.25" y1="496.25" x2="750.46429" y2="484.25" data-paper-data="{&quot;endpoints&quot;:[[&quot;Point&quot;,771.25,496.25],[&quot;Point&quot;,750.46429,484.25]]}" opacity="0"/><line x1="771.25" y1="496.25" x2="792.03571" y2="484.25" data-paper-data="{&quot;endpoints&quot;:[[&quot;Point&quot;,771.25,496.25],[&quot;Point&quot;,792.03571,484.25]]}" opacity="0"/><line x1="771.25" y1="472.25" x2="750.46429" y2="484.25" data-paper-data="{&quot;endpoints&quot;:[[&quot;Point&quot;,771.25,472.25],[&quot;Point&quot;,750.46429,484.25]]}" opacity="0"/><line x1="771.25" y1="472.25" x2="792.03571" y2="484.25" data-paper-data="{&quot;endpoints&quot;:[[&quot;Point&quot;,771.25,472.25],[&quot;Point&quot;,792.03571,484.25]]}" opacity="0"/><line x1="750.46429" y1="484.25" x2="792.03571" y2="484.25" data-paper-data="{&quot;endpoints&quot;:[[&quot;Point&quot;,750.46429,484.25],[&quot;Point&quot;,792.03571,484.25]]}"/></g><rect x="-885" y="-497.5" transform="rotate(180)" width="12.5" height="2.5" stroke="#000000" stroke-width="0.5" stroke-linecap="butt" stroke-dasharray="" opacity="0"/><g stroke="#ffffff" stroke-width="0.5" stroke-linecap="round" stroke-dasharray=""><circle cx="-496.25" cy="878.75" transform="rotate(-90)" r="24" data-paper-data="{&quot;index&quot;:0}" opacity="0"/><circle cx="-472.25" cy="878.75" transform="rotate(-90)" r="24" data-paper-data="{&quot;index&quot;:1}" opacity="0"/><line x1="878.75" y1="496.25" x2="878.75" y2="472.25" data-paper-data="{&quot;endpoints&quot;:[[&quot;Point&quot;,878.75,496.25],[&quot;Point&quot;,878.75,472.25]]}"/><line x1="878.75" y1="496.25" x2="857.96429" y2="484.25" data-paper-data="{&quot;endpoints&quot;:[[&quot;Point&quot;,878.75,496.25],[&quot;Point&quot;,857.96429,484.25]]}"/><line x1="878.75" y1="496.25" x2="899.53571" y2="484.25" data-paper-data="{&quot;endpoints&quot;:[[&quot;Point&quot;,878.75,496.25],[&quot;Point&quot;,899.53571,484.25]]}"/><line x1="878.75" y1="472.25" x2="857.96429" y2="484.25" data-paper-data="{&quot;endpoints&quot;:[[&quot;Point&quot;,878.75,472.25],[&quot;Point&quot;,857.96429,484.25]]}"/><line x1="878.75" y1="472.25" x2="899.53571" y2="484.25" data-paper-data="{&quot;endpoints&quot;:[[&quot;Point&quot;,878.75,472.25],[&quot;Point&quot;,899.53571,484.25]]}"/><line x1="857.96429" y1="484.25" x2="899.53571" y2="484.25" data-paper-data="{&quot;endpoints&quot;:[[&quot;Point&quot;,857.96429,484.25],[&quot;Point&quot;,899.53571,484.25]]}" opacity="0"/></g><rect x="-992.5" y="-497.5" transform="rotate(180)" width="12.5" height="2.5" stroke="#000000" stroke-width="0.5" stroke-linecap="butt" stroke-dasharray="" opacity="0"/><g stroke="#ffffff" stroke-width="0.5" stroke-linecap="round" stroke-dasharray=""><circle cx="-496.25" cy="986.25" transform="rotate(-90)" r="24" data-paper-data="{&quot;index&quot;:0}" opacity="0"/><circle cx="-472.25" cy="986.25" transform="rotate(-90)" r="24" data-paper-data="{&quot;index&quot;:1}" opacity="0"/><line x1="986.25" y1="496.25" x2="986.25" y2="472.25" data-paper-data="{&quot;endpoints&quot;:[[&quot;Point&quot;,986.25,496.25],[&quot;Point&quot;,986.25,472.25]]}"/><line x1="986.25" y1="496.25" x2="965.46429" y2="484.25" data-paper-data="{&quot;endpoints&quot;:[[&quot;Point&quot;,986.25,496.25],[&quot;Point&quot;,965.46429,484.25]]}"/><line x1="986.25" y1="496.25" x2="1007.03571" y2="484.25" data-paper-data="{&quot;endpoints&quot;:[[&quot;Point&quot;,986.25,496.25],[&quot;Point&quot;,1007.03571,484.25]]}"/><line x1="986.25" y1="472.25" x2="965.46429" y2="484.25" data-paper-data="{&quot;endpoints&quot;:[[&quot;Point&quot;,986.25,472.25],[&quot;Point&quot;,965.46429,484.25]]}"/><line x1="986.25" y1="472.25" x2="1007.03571" y2="484.25" data-paper-data="{&quot;endpoints&quot;:[[&quot;Point&quot;,986.25,472.25],[&quot;Point&quot;,1007.03571,484.25]]}"/><line x1="965.46429" y1="484.25" x2="1007.03571" y2="484.25" data-paper-data="{&quot;endpoints&quot;:[[&quot;Point&quot;,965.46429,484.25],[&quot;Point&quot;,1007.03571,484.25]]}"/></g><rect x="-992.5" y="-615" transform="rotate(180)" width="12.5" height="2.5" stroke="#000000" stroke-width="0.5" stroke-linecap="butt" stroke-dasharray="" opacity="0"/><g stroke="#ffffff" stroke-width="0.5" stroke-linecap="round" stroke-dasharray=""><circle cx="-613.75" cy="986.25" transform="rotate(-90)" r="24" data-paper-data="{&quot;index&quot;:0}" opacity="0"/><circle cx="-589.75" cy="986.25" transform="rotate(-90)" r="24" data-paper-data="{&quot;index&quot;:1}" opacity="0"/><circle cx="986.25" cy="613.75" r="1.5" fill="#ffffff"/><circle cx="986.25" cy="589.75" r="1.5" fill="#ffffff"/><circle cx="965.46429" cy="601.75" r="1.5" fill="#ffffff"/><circle cx="1007.03571" cy="601.75" r="1.5" fill="#ffffff"/></g><rect x="-992.5" y="-732.5" transform="rotate(180)" width="12.5" height="2.5" stroke="#000000" stroke-width="0.5" stroke-linecap="butt" stroke-dasharray="" opacity="0"/><g stroke="#ffffff" stroke-width="0.5" stroke-linecap="round" stroke-dasharray=""><circle cx="-731.25" cy="986.25" transform="rotate(-90)" r="24" data-paper-data="{&quot;index&quot;:0}"/><circle cx="-707.25" cy="986.25" transform="rotate(-90)" r="24" data-paper-data="{&quot;index&quot;:1}"/></g></g></svg>