<svg x="0" y="0" width="1100" height="850" version="1.1" xmlns="http://www.w3.org/2000/svg" xmlns:xlink="http://www.w3.org/1999/xlink"><g fill="none" stroke="none" stroke-width="none" stroke-linecap="none" stroke-linejoin="miter" stroke-miterlimit="10" stroke-dasharray="" stroke-dashoffset="0" font-family="sans-serif" font-size="12" text-anchor="start" mix-blend-mode="normal"><rect x="20" y="25" width="510" height="800" fill="#000000" stroke-width="1" stroke-linecap="butt"/><g stroke-width="1" stroke-linecap="butt"/><rect x="-143" y="-120" transform="rotate(180)" width="23" height="19" stroke="#000000" stroke-width="0.5" stroke-linecap="butt" opacity="0"/><g stroke="#ffffff" stroke-width="0.5" stroke-linecap="round"><circle cx="131.5" cy="110.5" r="20" data-paper-data="{&quot;index&quot;:0}" opacity="0"/><circle cx="131.5" cy="110.5" r="2.67857"/><circle cx="131.5" cy="110.5" r="10"/></g><rect x="-286" y="-120" transform="rotate(180)" width="23" height="19" stroke="#000000" stroke-width="0.5" stroke-linecap="butt" opacity="0"/><g stroke="#ffffff" stroke-width="0.5" stroke-linecap="round"><circle cx="274.5" cy="110.5" r="20" data-paper-data="{&quot;index&quot;:0}" opacity="0"/><circle cx="274.5" cy="110.5" r="2.67857"/><circle cx="274.5" cy="110.5" r="10"/><circle cx="274.5" cy="110.5" r="8.45238"/><circle cx="274.5" cy="110.5" r="11.54762"/></g><rect x="-429" y="-120" transform="rotate(180)" width="23" height="19" stroke="#000000" stroke-width="0.5" stroke-linecap="butt" opacity="0"/><g stroke="#ffffff" stroke-width="0.5" stroke-linecap="round"><circle cx="417.5" cy="110.5" r="20" data-paper-data="{&quot;index&quot;:0}" opacity="0"/><circle cx="417.5" cy="110.5" r="8.45238"/><circle cx="417.5" cy="110.5" r="11.54762"/></g><rect x="-143" y="-221" transform="rotate(180)" width="23" height="19" stroke="#000000" stroke-width="0.5" stroke-linecap="butt" opacity="0"/><g stroke="#ffffff" stroke-width="0.5" stroke-linecap="round"><circle cx="211.5" cy="-131.5" transform="rotate(90)" r="20" data-paper-data="{&quot;index&quot;:0}" opacity="0"/><circle cx="231.5" cy="-131.5" transform="rotate(90)" r="20" data-paper-data="{&quot;index&quot;:1}" opacity="0"/><circle cx="131.5" cy="211.5" r="2.67857"/><circle cx="131.5" cy="231.5" r="2.67857"/><circle cx="131.5" cy="211.5" r="10"/><circle cx="131.5" cy="231.5" r="10"/></g><rect x="-286" y="-221" transform="rotate(180)" width="23" height="19" stroke="#000000" stroke-width="0.5" stroke-linecap="butt" opacity="0"/><g stroke="#ffffff" stroke-width="0.5" stroke-linecap="round"><circle cx="211.5" cy="-274.5" transform="rotate(90)" r="20" data-paper-data="{&quot;index&quot;:0}" opacity="0"/><circle cx="231.5" cy="-274.5" transform="rotate(90)" r="20" data-paper-data="{&quot;index&quot;:1}" opacity="0"/><circle cx="274.5" cy="211.5" r="2.67857"/><circle cx="274.5" cy="231.5" r="2.67857"/><circle cx="274.5" cy="211.5" r="10"/><circle cx="274.5" cy="231.5" r="10"/><circle cx="274.5" cy="211.5" r="8.45238"/><circle cx="274.5" cy="231.5" r="8.45238"/><circle cx="274.5" cy="211.5" r="11.54762"/><circle cx="274.5" cy="231.5" r="11.54762"/></g><rect x="-429" y="-221" transform="rotate(180)" width="23" height="19" stroke="#000000" stroke-width="0.5" stroke-linecap="butt" opacity="0"/><g stroke="#ffffff" stroke-width="0.5" stroke-linecap="round"><circle cx="211.5" cy="-417.5" transform="rotate(90)" r="20" data-paper-data="{&quot;index&quot;:0}" opacity="0"/><circle cx="231.5" cy="-417.5" transform="rotate(90)" r="20" data-paper-data="{&quot;index&quot;:1}" opacity="0"/><circle cx="417.5" cy="211.5" r="8.45238"/><circle cx="417.5" cy="231.5" r="8.45238"/><circle cx="417.5" cy="211.5" r="11.54762"/><circle cx="417.5" cy="231.5" r="11.54762"/></g><rect x="-143" y="-322" transform="rotate(180)" width="23" height="19" stroke="#000000" stroke-width="0.5" stroke-linecap="butt" opacity="0"/><g stroke="#ffffff" stroke-width="0.5" stroke-linecap="round"><circle cx="336.38294" cy="42.36766" transform="rotate(60)" r="20" data-paper-data="{&quot;index&quot;:0}" opacity="0"/><circle cx="356.38374" cy="42.36812" transform="rotate(60)" r="20" data-paper-data="{&quot;index&quot;:1}" opacity="0"/><circle cx="346.38374" cy="59.68863" transform="rotate(60)" r="20" data-paper-data="{&quot;index&quot;:2}" opacity="0"/><circle cx="131.5" cy="312.5" r="2.67857"/><circle cx="141.5" cy="329.82143" r="2.67857"/><circle cx="121.5" cy="329.82143" r="2.67857"/><circle cx="131.5" cy="312.5" r="10"/><circle cx="141.5" cy="329.82143" r="10"/><circle cx="121.5" cy="329.82143" r="10"/></g><rect x="-286" y="-322" transform="rotate(180)" width="23" height="19" stroke="#000000" stroke-width="0.5" stroke-linecap="butt" opacity="0"/><g stroke="#ffffff" stroke-width="0.5" stroke-linecap="round"><circle cx="407.88294" cy="-81.47397" transform="rotate(60)" r="20" data-paper-data="{&quot;index&quot;:0}" opacity="0"/><circle cx="427.88374" cy="-81.47351" transform="rotate(60)" r="20" data-paper-data="{&quot;index&quot;:1}" opacity="0"/><circle cx="417.88374" cy="-64.15301" transform="rotate(60)" r="20" data-paper-data="{&quot;index&quot;:2}" opacity="0"/><circle cx="274.5" cy="312.5" r="2.67857"/><circle cx="284.5" cy="329.82143" r="2.67857"/><circle cx="264.5" cy="329.82143" r="2.67857"/><circle cx="274.5" cy="312.5" r="10"/><circle cx="284.5" cy="329.82143" r="10"/><circle cx="264.5" cy="329.82143" r="10"/><circle cx="274.5" cy="312.5" r="8.45238"/><circle cx="284.5" cy="329.82143" r="8.45238"/><circle cx="264.5" cy="329.82143" r="8.45238"/><circle cx="274.5" cy="312.5" r="11.54762"/><circle cx="284.5" cy="329.82143" r="11.54762"/><circle cx="264.5" cy="329.82143" r="11.54762"/></g><rect x="-429" y="-322" transform="rotate(180)" width="23" height="19" stroke="#000000" stroke-width="0.5" stroke-linecap="butt" opacity="0"/><g stroke="#ffffff" stroke-width="0.5" stroke-linecap="round"><circle cx="479.38294" cy="-205.31561" transform="rotate(60)" r="20" data-paper-data="{&quot;index&quot;:0}" opacity="0"/><circle cx="499.38374" cy="-205.31515" transform="rotate(60)" r="20" data-paper-data="{&quot;index&quot;:1}" opacity="0"/><circle cx="489.38374" cy="-187.99464" transform="rotate(60)" r="20" data-paper-data="{&quot;index&quot;:2}" opacity="0"/><circle cx="417.5" cy="312.5" r="8.45238"/><circle cx="427.5" cy="329.82143" r="8.45238"/><circle cx="407.5" cy="329.82143" r="8.45238"/><circle cx="417.5" cy="312.5" r="11.54762"/><circle cx="427.5" cy="329.82143" r="11.54762"/><circle cx="407.5" cy="329.82143" r="11.54762"/></g><rect x="-143" y="-423" transform="rotate(180)" width="23" height="19" stroke="#000000" stroke-width="0.5" stroke-linecap="butt" opacity="0"/><g stroke="#ffffff" stroke-width="0.5" stroke-linecap="round"><circle cx="320.63234" cy="292.3515" transform="rotate(30)" r="20" data-paper-data="{&quot;index&quot;:0}" opacity="0"/><circle cx="340.63314" cy="292.35104" transform="rotate(30)" r="20" data-paper-data="{&quot;index&quot;:1}" opacity="0"/><circle cx="330.63234" cy="309.67201" transform="matrix(0.8660254037844382,0.5000000000000008,-0.5000000000000008,0.8660254037844382,0,0)" r="20" data-paper-data="{&quot;index&quot;:2}" opacity="0"/><circle cx="310.63154" cy="309.67247" transform="matrix(0.8660254037844382,0.5000000000000008,-0.5000000000000008,0.8660254037844382,0,0)" r="20" data-paper-data="{&quot;index&quot;:3}" opacity="0"/><circle cx="131.5" cy="413.5" r="2.67857"/><circle cx="148.82143" cy="423.5" r="2.67857"/><circle cx="131.5" cy="433.5" r="2.67857"/><circle cx="114.17857" cy="423.5" r="2.67857"/><circle cx="131.5" cy="413.5" r="10"/><circle cx="148.82143" cy="423.5" r="10"/><circle cx="131.5" cy="433.5" r="10"/><circle cx="114.17857" cy="423.5" r="10"/></g><rect x="-286" y="-423" transform="rotate(180)" width="23" height="19" stroke="#000000" stroke-width="0.5" stroke-linecap="butt" opacity="0"/><g stroke="#ffffff" stroke-width="0.5" stroke-linecap="round"><circle cx="444.47397" cy="220.8515" transform="matrix(0.8660254037844382,0.5000000000000008,-0.5000000000000008,0.8660254037844382,0,0)" r="20" data-paper-data="{&quot;index&quot;:0}" opacity="0"/><circle cx="464.47477" cy="220.85104" transform="matrix(0.8660254037844382,0.5000000000000008,-0.5000000000000008,0.8660254037844382,0,0)" r="20" data-paper-data="{&quot;index&quot;:1}" opacity="0"/><circle cx="454.47397" cy="238.17201" transform="matrix(0.8660254037844382,0.5000000000000008,-0.5000000000000008,0.8660254037844382,0,0)" r="20" data-paper-data="{&quot;index&quot;:2}" opacity="0"/><circle cx="434.47318" cy="238.17247" transform="matrix(0.8660254037844382,0.5000000000000008,-0.5000000000000008,0.8660254037844382,0,0)" r="20" data-paper-data="{&quot;index&quot;:3}" opacity="0"/><circle cx="274.5" cy="413.5" r="2.67857"/><circle cx="291.82143" cy="423.5" r="2.67857"/><circle cx="274.5" cy="433.5" r="2.67857"/><circle cx="257.17857" cy="423.5" r="2.67857"/><circle cx="274.5" cy="413.5" r="10"/><circle cx="291.82143" cy="423.5" r="10"/><circle cx="274.5" cy="433.5" r="10"/><circle cx="257.17857" cy="423.5" r="10"/><circle cx="274.5" cy="413.5" r="8.45238"/><circle cx="291.82143" cy="423.5" r="8.45238"/><circle cx="274.5" cy="433.5" r="8.45238"/><circle cx="257.17857" cy="423.5" r="8.45238"/><circle cx="274.5" cy="413.5" r="11.54762"/><circle cx="291.82143" cy="423.5" r="11.54762"/><circle cx="274.5" cy="433.5" r="11.54762"/><circle cx="257.17857" cy="423.5" r="11.54762"/></g><rect x="-429" y="-423" transform="rotate(180)" width="23" height="19" stroke="#000000" stroke-width="0.5" stroke-linecap="butt" opacity="0"/><g stroke="#ffffff" stroke-width="0.5" stroke-linecap="round"><circle cx="568.31561" cy="149.3515" transform="matrix(0.8660254037844382,0.5000000000000008,-0.5000000000000008,0.8660254037844382,0,0)" r="20" data-paper-data="{&quot;index&quot;:0}" opacity="0"/><circle cx="588.3164" cy="149.35104" transform="matrix(0.8660254037844382,0.5000000000000008,-0.5000000000000008,0.8660254037844382,0,0)" r="20" data-paper-data="{&quot;index&quot;:1}" opacity="0"/><circle cx="578.31561" cy="166.67201" transform="matrix(0.8660254037844382,0.5000000000000008,-0.5000000000000008,0.8660254037844382,0,0)" r="20" data-paper-data="{&quot;index&quot;:2}" opacity="0"/><circle cx="558.31481" cy="166.67247" transform="matrix(0.8660254037844382,0.5000000000000008,-0.5000000000000008,0.8660254037844382,0,0)" r="20" data-paper-data="{&quot;index&quot;:3}" opacity="0"/><circle cx="417.5" cy="413.5" r="8.45238"/><circle cx="434.82143" cy="423.5" r="8.45238"/><circle cx="417.5" cy="433.5" r="8.45238"/><circle cx="400.17857" cy="423.5" r="8.45238"/><circle cx="417.5" cy="413.5" r="11.54762"/><circle cx="434.82143" cy="423.5" r="11.54762"/><circle cx="417.5" cy="433.5" r="11.54762"/><circle cx="400.17857" cy="423.5" r="11.54762"/></g><rect x="-143" y="-524" transform="rotate(180)" width="23" height="19" stroke="#000000" stroke-width="0.5" stroke-linecap="butt" opacity="0"/><g stroke="#ffffff" stroke-width="0.5" stroke-linecap="round"><circle cx="131.5" cy="514.5" r="20" data-paper-data="{&quot;index&quot;:0}" opacity="0"/><circle cx="151.5" cy="514.5" r="20" data-paper-data="{&quot;index&quot;:1}" opacity="0"/><circle cx="141.5" cy="531.82143" r="20" data-paper-data="{&quot;index&quot;:2}" opacity="0"/><circle cx="121.5" cy="531.82143" r="20" data-paper-data="{&quot;index&quot;:3}" opacity="0"/><circle cx="111.5" cy="514.5" r="20" data-paper-data="{&quot;index&quot;:4}" opacity="0"/><circle cx="131.5" cy="514.5" r="2.67857"/><circle cx="151.5" cy="514.5" r="2.67857"/><circle cx="141.5" cy="531.82143" r="2.67857"/><circle cx="121.5" cy="531.82143" r="2.67857"/><circle cx="111.5" cy="514.5" r="2.67857"/><circle cx="131.5" cy="514.5" r="10"/><circle cx="151.5" cy="514.5" r="10"/><circle cx="141.5" cy="531.82143" r="10"/><circle cx="121.5" cy="531.82143" r="10"/><circle cx="111.5" cy="514.5" r="10"/></g><rect x="-286" y="-524" transform="rotate(180)" width="23" height="19" stroke="#000000" stroke-width="0.5" stroke-linecap="butt" opacity="0"/><g stroke="#ffffff" stroke-width="0.5" stroke-linecap="round"><circle cx="274.5" cy="514.5" r="20" data-paper-data="{&quot;index&quot;:0}" opacity="0"/><circle cx="294.5" cy="514.5" r="20" data-paper-data="{&quot;index&quot;:1}" opacity="0"/><circle cx="284.5" cy="531.82143" r="20" data-paper-data="{&quot;index&quot;:2}" opacity="0"/><circle cx="264.5" cy="531.82143" r="20" data-paper-data="{&quot;index&quot;:3}" opacity="0"/><circle cx="254.5" cy="514.5" r="20" data-paper-data="{&quot;index&quot;:4}" opacity="0"/><circle cx="274.5" cy="514.5" r="2.67857"/><circle cx="294.5" cy="514.5" r="2.67857"/><circle cx="284.5" cy="531.82143" r="2.67857"/><circle cx="264.5" cy="531.82143" r="2.67857"/><circle cx="254.5" cy="514.5" r="2.67857"/><circle cx="274.5" cy="514.5" r="10"/><circle cx="294.5" cy="514.5" r="10"/><circle cx="284.5" cy="531.82143" r="10"/><circle cx="264.5" cy="531.82143" r="10"/><circle cx="254.5" cy="514.5" r="10"/><circle cx="274.5" cy="514.5" r="8.45238"/><circle cx="294.5" cy="514.5" r="8.45238"/><circle cx="284.5" cy="531.82143" r="8.45238"/><circle cx="264.5" cy="531.82143" r="8.45238"/><circle cx="254.5" cy="514.5" r="8.45238"/><circle cx="274.5" cy="514.5" r="11.54762"/><circle cx="294.5" cy="514.5" r="11.54762"/><circle cx="284.5" cy="531.82143" r="11.54762"/><circle cx="264.5" cy="531.82143" r="11.54762"/><circle cx="254.5" cy="514.5" r="11.54762"/></g><rect x="-429" y="-524" transform="rotate(180)" width="23" height="19" stroke="#000000" stroke-width="0.5" stroke-linecap="butt" opacity="0"/><g stroke="#ffffff" stroke-width="0.5" stroke-linecap="round"><circle cx="417.5" cy="514.5" r="20" data-paper-data="{&quot;index&quot;:0}" opacity="0"/><circle cx="437.5" cy="514.5" r="20" data-paper-data="{&quot;index&quot;:1}" opacity="0"/><circle cx="427.5" cy="531.82143" r="20" data-paper-data="{&quot;index&quot;:2}" opacity="0"/><circle cx="407.5" cy="531.82143" r="20" data-paper-data="{&quot;index&quot;:3}" opacity="0"/><circle cx="397.5" cy="514.5" r="20" data-paper-data="{&quot;index&quot;:4}" opacity="0"/><circle cx="417.5" cy="514.5" r="8.45238"/><circle cx="437.5" cy="514.5" r="8.45238"/><circle cx="427.5" cy="531.82143" r="8.45238"/><circle cx="407.5" cy="531.82143" r="8.45238"/><circle cx="397.5" cy="514.5" r="8.45238"/><circle cx="417.5" cy="514.5" r="11.54762"/><circle cx="437.5" cy="514.5" r="11.54762"/><circle cx="427.5" cy="531.82143" r="11.54762"/><circle cx="407.5" cy="531.82143" r="11.54762"/><circle cx="397.5" cy="514.5" r="11.54762"/></g><rect x="-143" y="-625" transform="rotate(180)" width="23" height="19" stroke="#000000" stroke-width="0.5" stroke-linecap="butt" opacity="0"/><g stroke="#ffffff" stroke-width="0.5" stroke-linecap="round"><circle cx="-193.86766" cy="598.78864" transform="matrix(0.8660254037844382,-0.5000000000000008,0.5000000000000008,0.8660254037844382,0,0)" r="20" data-paper-data="{&quot;index&quot;:0}" opacity="0"/><circle cx="-173.86686" cy="598.7891" transform="matrix(0.8660254037844382,-0.5000000000000008,0.5000000000000008,0.8660254037844382,0,0)" r="20" data-paper-data="{&quot;index&quot;:1}" opacity="0"/><circle cx="-183.86686" cy="616.1096" transform="matrix(0.8660254037844382,-0.5000000000000008,0.5000000000000008,0.8660254037844382,0,0)" r="20" data-paper-data="{&quot;index&quot;:2}" opacity="0"/><circle cx="-203.86766" cy="616.10914" transform="matrix(0.8660254037844382,-0.5000000000000008,0.5000000000000008,0.8660254037844382,0,0)" r="20" data-paper-data="{&quot;index&quot;:3}" opacity="0"/><circle cx="-213.86846" cy="598.78818" transform="matrix(0.8660254037844382,-0.5000000000000008,0.5000000000000008,0.8660254037844382,0,0)" r="20" data-paper-data="{&quot;index&quot;:4}" opacity="0"/><circle cx="-203.86846" cy="581.46767" transform="rotate(-30)" r="20" data-paper-data="{&quot;index&quot;:5}" opacity="0"/><circle cx="131.5" cy="615.5" r="2.67857"/><circle cx="148.82143" cy="605.5" r="2.67857"/><circle cx="148.82143" cy="625.5" r="2.67857"/><circle cx="131.5" cy="635.5" r="2.67857"/><circle cx="114.17857" cy="625.5" r="2.67857"/><circle cx="114.17857" cy="605.5" r="2.67857"/><circle cx="131.5" cy="615.5" r="10"/><circle cx="148.82143" cy="605.5" r="10"/><circle cx="148.82143" cy="625.5" r="10"/><circle cx="131.5" cy="635.5" r="10"/><circle cx="114.17857" cy="625.5" r="10"/><circle cx="114.17857" cy="605.5" r="10"/></g><rect x="-286" y="-625" transform="rotate(180)" width="23" height="19" stroke="#000000" stroke-width="0.5" stroke-linecap="butt" opacity="0"/><g stroke="#ffffff" stroke-width="0.5" stroke-linecap="round"><circle cx="-70.02603" cy="670.28864" transform="matrix(0.8660254037844382,-0.5000000000000008,0.5000000000000008,0.8660254037844382,0,0)" r="20" data-paper-data="{&quot;index&quot;:0}" opacity="0"/><circle cx="-50.02523" cy="670.2891" transform="matrix(0.8660254037844382,-0.5000000000000008,0.5000000000000008,0.8660254037844382,0,0)" r="20" data-paper-data="{&quot;index&quot;:1}" opacity="0"/><circle cx="-60.02523" cy="687.6096" transform="matrix(0.8660254037844382,-0.5000000000000008,0.5000000000000008,0.8660254037844382,0,0)" r="20" data-paper-data="{&quot;index&quot;:2}" opacity="0"/><circle cx="-80.02603" cy="687.60914" transform="matrix(0.8660254037844382,-0.5000000000000008,0.5000000000000008,0.8660254037844382,0,0)" r="20" data-paper-data="{&quot;index&quot;:3}" opacity="0"/><circle cx="-90.02682" cy="670.28818" transform="matrix(0.8660254037844382,-0.5000000000000008,0.5000000000000008,0.8660254037844382,0,0)" r="20" data-paper-data="{&quot;index&quot;:4}" opacity="0"/><circle cx="-80.02682" cy="652.96767" transform="matrix(0.8660254037844382,-0.5000000000000008,0.5000000000000008,0.8660254037844382,0,0)" r="20" data-paper-data="{&quot;index&quot;:5}" opacity="0"/><circle cx="274.5" cy="615.5" r="2.67857"/><circle cx="291.82143" cy="605.5" r="2.67857"/><circle cx="291.82143" cy="625.5" r="2.67857"/><circle cx="274.5" cy="635.5" r="2.67857"/><circle cx="257.17857" cy="625.5" r="2.67857"/><circle cx="257.17857" cy="605.5" r="2.67857"/><circle cx="274.5" cy="615.5" r="10"/><circle cx="291.82143" cy="605.5" r="10"/><circle cx="291.82143" cy="625.5" r="10"/><circle cx="274.5" cy="635.5" r="10"/><circle cx="257.17857" cy="625.5" r="10"/><circle cx="257.17857" cy="605.5" r="10"/><circle cx="274.5" cy="615.5" r="8.45238"/><circle cx="291.82143" cy="605.5" r="8.45238"/><circle cx="291.82143" cy="625.5" r="8.45238"/><circle cx="274.5" cy="635.5" r="8.45238"/><circle cx="257.17857" cy="625.5" r="8.45238"/><circle cx="257.17857" cy="605.5" r="8.45238"/><circle cx="274.5" cy="615.5" r="11.54762"/><circle cx="291.82143" cy="605.5" r="11.54762"/><circle cx="291.82143" cy="625.5" r="11.54762"/><circle cx="274.5" cy="635.5" r="11.54762"/><circle cx="257.17857" cy="625.5" r="11.54762"/><circle cx="257.17857" cy="605.5" r="11.54762"/></g><rect x="-429" y="-625" transform="rotate(180)" width="23" height="19" stroke="#000000" stroke-width="0.5" stroke-linecap="butt" opacity="0"/><g stroke="#ffffff" stroke-width="0.5" stroke-linecap="round"><circle cx="53.81561" cy="741.78864" transform="matrix(0.8660254037844382,-0.5000000000000008,0.5000000000000008,0.8660254037844382,0,0)" r="20" data-paper-data="{&quot;index&quot;:0}" opacity="0"/><circle cx="73.8164" cy="741.7891" transform="matrix(0.8660254037844382,-0.5000000000000008,0.5000000000000008,0.8660254037844382,0,0)" r="20" data-paper-data="{&quot;index&quot;:1}" opacity="0"/><circle cx="63.8164" cy="759.1096" transform="matrix(0.8660254037844382,-0.5000000000000008,0.5000000000000008,0.8660254037844382,0,0)" r="20" data-paper-data="{&quot;index&quot;:2}" opacity="0"/><circle cx="43.81561" cy="759.10914" transform="matrix(0.8660254037844382,-0.5000000000000008,0.5000000000000008,0.8660254037844382,0,0)" r="20" data-paper-data="{&quot;index&quot;:3}" opacity="0"/><circle cx="33.81481" cy="741.78818" transform="matrix(0.8660254037844382,-0.5000000000000008,0.5000000000000008,0.8660254037844382,0,0)" r="20" data-paper-data="{&quot;index&quot;:4}" opacity="0"/><circle cx="43.81481" cy="724.46767" transform="matrix(0.8660254037844382,-0.5000000000000008,0.5000000000000008,0.8660254037844382,0,0)" r="20" data-paper-data="{&quot;index&quot;:5}" opacity="0"/><circle cx="417.5" cy="615.5" r="8.45238"/><circle cx="434.82143" cy="605.5" r="8.45238"/><circle cx="434.82143" cy="625.5" r="8.45238"/><circle cx="417.5" cy="635.5" r="8.45238"/><circle cx="400.17857" cy="625.5" r="8.45238"/><circle cx="400.17857" cy="605.5" r="8.45238"/><circle cx="417.5" cy="615.5" r="11.54762"/><circle cx="434.82143" cy="605.5" r="11.54762"/><circle cx="434.82143" cy="625.5" r="11.54762"/><circle cx="417.5" cy="635.5" r="11.54762"/><circle cx="400.17857" cy="625.5" r="11.54762"/><circle cx="400.17857" cy="605.5" r="11.54762"/></g><rect x="-143" y="-726" transform="rotate(180)" width="23" height="19" stroke="#000000" stroke-width="0.5" stroke-linecap="butt" opacity="0"/><g stroke="#ffffff" stroke-width="0.5" stroke-linecap="round"><circle cx="472.13234" cy="554.7572" transform="matrix(0.8660254037844382,0.5000000000000008,-0.5000000000000008,0.8660254037844382,0,0)" r="20" data-paper-data="{&quot;index&quot;:0}" opacity="0"/><circle cx="492.13314" cy="554.75674" transform="matrix(0.8660254037844382,0.5000000000000008,-0.5000000000000008,0.8660254037844382,0,0)" r="20" data-paper-data="{&quot;index&quot;:1}" opacity="0"/><circle cx="482.13234" cy="572.07771" transform="rotate(30)" r="20" data-paper-data="{&quot;index&quot;:2}" opacity="0"/><circle cx="462.13154" cy="572.07817" transform="rotate(30)" r="20" data-paper-data="{&quot;index&quot;:3}" opacity="0"/><circle cx="452.13154" cy="554.75766" transform="matrix(0.8660254037844382,0.5000000000000008,-0.5000000000000008,0.8660254037844382,0,0)" r="20" data-paper-data="{&quot;index&quot;:4}" opacity="0"/><circle cx="462.13234" cy="537.43669" transform="rotate(30)" r="20" data-paper-data="{&quot;index&quot;:5}" opacity="0"/><circle cx="482.13314" cy="537.43623" transform="rotate(30)" r="20" data-paper-data="{&quot;index&quot;:6}" opacity="0"/><circle cx="131.5" cy="716.5" r="2.67857"/><circle cx="148.82143" cy="726.5" r="2.67857"/><circle cx="131.5" cy="736.5" r="2.67857"/><circle cx="114.17857" cy="726.5" r="2.67857"/><circle cx="114.17857" cy="706.5" r="2.67857"/><circle cx="131.5" cy="696.5" r="2.67857"/><circle cx="148.82143" cy="706.5" r="2.67857"/><circle cx="131.5" cy="716.5" r="10"/><circle cx="148.82143" cy="726.5" r="10"/><circle cx="131.5" cy="736.5" r="10"/><circle cx="114.17857" cy="726.5" r="10"/><circle cx="114.17857" cy="706.5" r="10"/><circle cx="131.5" cy="696.5" r="10"/><circle cx="148.82143" cy="706.5" r="10"/></g><rect x="-286" y="-726" transform="rotate(180)" width="23" height="19" stroke="#000000" stroke-width="0.5" stroke-linecap="butt" opacity="0"/><g stroke="#ffffff" stroke-width="0.5" stroke-linecap="round"><circle cx="595.97397" cy="483.2572" transform="matrix(0.8660254037844382,0.5000000000000008,-0.5000000000000008,0.8660254037844382,0,0)" r="20" data-paper-data="{&quot;index&quot;:0}" opacity="0"/><circle cx="615.97477" cy="483.25674" transform="matrix(0.8660254037844382,0.5000000000000008,-0.5000000000000008,0.8660254037844382,0,0)" r="20" data-paper-data="{&quot;index&quot;:1}" opacity="0"/><circle cx="605.97397" cy="500.57771" transform="rotate(30)" r="20" data-paper-data="{&quot;index&quot;:2}" opacity="0"/><circle cx="585.97318" cy="500.57817" transform="rotate(30)" r="20" data-paper-data="{&quot;index&quot;:3}" opacity="0"/><circle cx="575.97318" cy="483.25766" transform="matrix(0.8660254037844382,0.5000000000000008,-0.5000000000000008,0.8660254037844382,0,0)" r="20" data-paper-data="{&quot;index&quot;:4}" opacity="0"/><circle cx="585.97397" cy="465.93669" transform="rotate(30)" r="20" data-paper-data="{&quot;index&quot;:5}" opacity="0"/><circle cx="605.97477" cy="465.93623" transform="rotate(30)" r="20" data-paper-data="{&quot;index&quot;:6}" opacity="0"/><circle cx="274.5" cy="716.5" r="2.67857"/><circle cx="291.82143" cy="726.5" r="2.67857"/><circle cx="274.5" cy="736.5" r="2.67857"/><circle cx="257.17857" cy="726.5" r="2.67857"/><circle cx="257.17857" cy="706.5" r="2.67857"/><circle cx="274.5" cy="696.5" r="2.67857"/><circle cx="291.82143" cy="706.5" r="2.67857"/><circle cx="274.5" cy="716.5" r="10"/><circle cx="291.82143" cy="726.5" r="10"/><circle cx="274.5" cy="736.5" r="10"/><circle cx="257.17857" cy="726.5" r="10"/><circle cx="257.17857" cy="706.5" r="10"/><circle cx="274.5" cy="696.5" r="10"/><circle cx="291.82143" cy="706.5" r="10"/><circle cx="274.5" cy="716.5" r="8.45238"/><circle cx="291.82143" cy="726.5" r="8.45238"/><circle cx="274.5" cy="736.5" r="8.45238"/><circle cx="257.17857" cy="726.5" r="8.45238"/><circle cx="257.17857" cy="706.5" r="8.45238"/><circle cx="274.5" cy="696.5" r="8.45238"/><circle cx="291.82143" cy="706.5" r="8.45238"/><circle cx="274.5" cy="716.5" r="11.54762"/><circle cx="291.82143" cy="726.5" r="11.54762"/><circle cx="274.5" cy="736.5" r="11.54762"/><circle cx="257.17857" cy="726.5" r="11.54762"/><circle cx="257.17857" cy="706.5" r="11.54762"/><circle cx="274.5" cy="696.5" r="11.54762"/><circle cx="291.82143" cy="706.5" r="11.54762"/></g><rect x="-429" y="-726" transform="rotate(180)" width="23" height="19" stroke="#000000" stroke-width="0.5" stroke-linecap="butt" opacity="0"/><g stroke="#ffffff" stroke-width="0.5" stroke-linecap="round"><circle cx="719.81561" cy="411.7572" transform="matrix(0.8660254037844382,0.5000000000000008,-0.5000000000000008,0.8660254037844382,0,0)" r="20" data-paper-data="{&quot;index&quot;:0}" opacity="0"/><circle cx="739.8164" cy="411.75674" transform="matrix(0.8660254037844382,0.5000000000000008,-0.5000000000000008,0.8660254037844382,0,0)" r="20" data-paper-data="{&quot;index&quot;:1}" opacity="0"/><circle cx="729.81561" cy="429.07771" transform="rotate(30)" r="20" data-paper-data="{&quot;index&quot;:2}" opacity="0"/><circle cx="709.81481" cy="429.07817" transform="rotate(30)" r="20" data-paper-data="{&quot;index&quot;:3}" opacity="0"/><circle cx="699.81481" cy="411.75766" transform="matrix(0.8660254037844382,0.5000000000000008,-0.5000000000000008,0.8660254037844382,0,0)" r="20" data-paper-data="{&quot;index&quot;:4}" opacity="0"/><circle cx="709.81561" cy="394.43669" transform="rotate(30)" r="20" data-paper-data="{&quot;index&quot;:5}" opacity="0"/><circle cx="729.8164" cy="394.43623" transform="rotate(30)" r="20" data-paper-data="{&quot;index&quot;:6}" opacity="0"/><circle cx="417.5" cy="716.5" r="8.45238"/><circle cx="434.82143" cy="726.5" r="8.45238"/><circle cx="417.5" cy="736.5" r="8.45238"/><circle cx="400.17857" cy="726.5" r="8.45238"/><circle cx="400.17857" cy="706.5" r="8.45238"/><circle cx="417.5" cy="696.5" r="8.45238"/><circle cx="434.82143" cy="706.5" r="8.45238"/><circle cx="417.5" cy="716.5" r="11.54762"/><circle cx="434.82143" cy="726.5" r="11.54762"/><circle cx="417.5" cy="736.5" r="11.54762"/><circle cx="400.17857" cy="726.5" r="11.54762"/><circle cx="400.17857" cy="706.5" r="11.54762"/><circle cx="417.5" cy="696.5" r="11.54762"/><circle cx="434.82143" cy="706.5" r="11.54762"/></g><rect x="570" y="25" width="510" height="800" fill="#000000" stroke-width="1" stroke-linecap="butt"/><g stroke-width="1" stroke-linecap="butt"/><rect x="-693" y="-120" transform="rotate(180)" width="23" height="19" stroke="#000000" stroke-width="0.5" stroke-linecap="butt" opacity="0"/><g stroke="#ffffff" stroke-width="0.5" stroke-linecap="round"><circle cx="681.5" cy="110.5" r="20" data-paper-data="{&quot;index&quot;:0}" opacity="0"/></g><rect x="-836" y="-120" transform="rotate(180)" width="23" height="19" stroke="#000000" stroke-width="0.5" stroke-linecap="butt" opacity="0"/><g stroke="#ffffff" stroke-width="0.5" stroke-linecap="round"><circle cx="824.5" cy="110.5" r="20" data-paper-data="{&quot;index&quot;:0}" opacity="0"/></g><rect x="-979" y="-120" transform="rotate(180)" width="23" height="19" stroke="#000000" stroke-width="0.5" stroke-linecap="butt" opacity="0"/><g stroke="#ffffff" stroke-width="0.5" stroke-linecap="round"><circle cx="967.5" cy="110.5" r="20" data-paper-data="{&quot;index&quot;:0}" opacity="0"/></g><rect x="-693" y="-221" transform="rotate(180)" width="23" height="19" stroke="#000000" stroke-width="0.5" stroke-linecap="butt" opacity="0"/><g stroke="#ffffff" stroke-width="0.5" stroke-linecap="round"><circle cx="211.5" cy="-681.5" transform="rotate(90)" r="20" data-paper-data="{&quot;index&quot;:0}" opacity="0"/><circle cx="231.5" cy="-681.5" transform="rotate(90)" r="20" data-paper-data="{&quot;index&quot;:1}" opacity="0"/></g><rect x="-836" y="-221" transform="rotate(180)" width="23" height="19" stroke="#000000" stroke-width="0.5" stroke-linecap="butt" opacity="0"/><g stroke="#ffffff" stroke-width="0.5" stroke-linecap="round"><circle cx="211.5" cy="-824.5" transform="rotate(90)" r="20" data-paper-data="{&quot;index&quot;:0}" opacity="0"/><circle cx="231.5" cy="-824.5" transform="rotate(90)" r="20" data-paper-data="{&quot;index&quot;:1}" opacity="0"/></g><rect x="-979" y="-221" transform="rotate(180)" width="23" height="19" stroke="#000000" stroke-width="0.5" stroke-linecap="butt" opacity="0"/><g stroke="#ffffff" stroke-width="0.5" stroke-linecap="round"><circle cx="211.5" cy="-967.5" transform="rotate(90)" r="20" data-paper-data="{&quot;index&quot;:0}" opacity="0"/><circle cx="231.5" cy="-967.5" transform="rotate(90)" r="20" data-paper-data="{&quot;index&quot;:1}" opacity="0"/></g><rect x="-693" y="-322" transform="rotate(180)" width="23" height="19" stroke="#000000" stroke-width="0.5" stroke-linecap="butt" opacity="0"/><g stroke="#ffffff" stroke-width="0.5" stroke-linecap="round"><circle cx="611.38294" cy="-433.94631" transform="rotate(60)" r="20" data-paper-data="{&quot;index&quot;:0}" opacity="0"/><circle cx="631.38374" cy="-433.94585" transform="rotate(60)" r="20" data-paper-data="{&quot;index&quot;:1}" opacity="0"/><circle cx="621.38374" cy="-416.62534" transform="rotate(60)" r="20" data-paper-data="{&quot;index&quot;:2}" opacity="0"/></g><rect x="-836" y="-322" transform="rotate(180)" width="23" height="19" stroke="#000000" stroke-width="0.5" stroke-linecap="butt" opacity="0"/><g stroke="#ffffff" stroke-width="0.5" stroke-linecap="round"><circle cx="682.88294" cy="-557.78795" transform="rotate(60)" r="20" data-paper-data="{&quot;index&quot;:0}" opacity="0"/><circle cx="702.88374" cy="-557.78749" transform="rotate(60)" r="20" data-paper-data="{&quot;index&quot;:1}" opacity="0"/><circle cx="692.88374" cy="-540.46698" transform="rotate(60)" r="20" data-paper-data="{&quot;index&quot;:2}" opacity="0"/><circle cx="824.5" cy="324.04762" r="8.45238"/><circle cx="824.5" cy="324.04762" r="11.54762"/></g><rect x="-979" y="-322" transform="rotate(180)" width="23" height="19" stroke="#000000" stroke-width="0.5" stroke-linecap="butt" opacity="0"/><g stroke="#ffffff" stroke-width="0.5" stroke-linecap="round"><circle cx="754.38294" cy="-681.62958" transform="rotate(60)" r="20" data-paper-data="{&quot;index&quot;:0}" opacity="0"/><circle cx="774.38374" cy="-681.62912" transform="rotate(60)" r="20" data-paper-data="{&quot;index&quot;:1}" opacity="0"/><circle cx="764.38374" cy="-664.30861" transform="rotate(60)" r="20" data-paper-data="{&quot;index&quot;:2}" opacity="0"/><circle cx="967.5" cy="324.04762" r="8.45238"/><circle cx="967.5" cy="324.04762" r="11.54762"/></g><rect x="-693" y="-423" transform="rotate(180)" width="23" height="19" stroke="#000000" stroke-width="0.5" stroke-linecap="butt" opacity="0"/><g stroke="#ffffff" stroke-width="0.5" stroke-linecap="round"><circle cx="796.94631" cy="17.3515" transform="matrix(0.8660254037844382,0.5000000000000008,-0.5000000000000008,0.8660254037844382,0,0)" r="20" data-paper-data="{&quot;index&quot;:0}" opacity="0"/><circle cx="816.94711" cy="17.35104" transform="matrix(0.8660254037844382,0.5000000000000008,-0.5000000000000008,0.8660254037844382,0,0)" r="20" data-paper-data="{&quot;index&quot;:1}" opacity="0"/><circle cx="806.94631" cy="34.67201" transform="rotate(30)" r="20" data-paper-data="{&quot;index&quot;:2}" opacity="0"/><circle cx="786.94552" cy="34.67247" transform="rotate(30)" r="20" data-paper-data="{&quot;index&quot;:3}" opacity="0"/><circle cx="681.5" cy="423.5" r="2.67857"/><circle cx="681.5" cy="423.5" r="10"/></g><rect x="-836" y="-423" transform="rotate(180)" width="23" height="19" stroke="#000000" stroke-width="0.5" stroke-linecap="butt" opacity="0"/><g stroke="#ffffff" stroke-width="0.5" stroke-linecap="round"><circle cx="920.78795" cy="-54.1485" transform="matrix(0.8660254037844382,0.5000000000000008,-0.5000000000000008,0.8660254037844382,0,0)" r="20" data-paper-data="{&quot;index&quot;:0}" opacity="0"/><circle cx="940.78874" cy="-54.14896" transform="matrix(0.8660254037844382,0.5000000000000008,-0.5000000000000008,0.8660254037844382,0,0)" r="20" data-paper-data="{&quot;index&quot;:1}" opacity="0"/><circle cx="930.78795" cy="-36.82799" transform="rotate(30)" r="20" data-paper-data="{&quot;index&quot;:2}" opacity="0"/><circle cx="910.78715" cy="-36.82753" transform="rotate(30)" r="20" data-paper-data="{&quot;index&quot;:3}" opacity="0"/><circle cx="824.5" cy="423.5" r="2.67857"/><circle cx="824.5" cy="423.5" r="10"/><circle cx="830.27381" cy="423.5" r="8.45238"/><circle cx="818.72619" cy="423.5" r="8.45238"/><circle cx="830.27381" cy="423.5" r="11.54762"/><circle cx="818.72619" cy="423.5" r="11.54762"/></g><rect x="-979" y="-423" transform="rotate(180)" width="23" height="19" stroke="#000000" stroke-width="0.5" stroke-linecap="butt" opacity="0"/><g stroke="#ffffff" stroke-width="0.5" stroke-linecap="round"><circle cx="1044.62958" cy="-125.6485" transform="matrix(0.8660254037844382,0.5000000000000008,-0.5000000000000008,0.8660254037844382,0,0)" r="20" data-paper-data="{&quot;index&quot;:0}" opacity="0"/><circle cx="1064.63038" cy="-125.64896" transform="matrix(0.8660254037844382,0.5000000000000008,-0.5000000000000008,0.8660254037844382,0,0)" r="20" data-paper-data="{&quot;index&quot;:1}" opacity="0"/><circle cx="1054.62958" cy="-108.32799" transform="rotate(30)" r="20" data-paper-data="{&quot;index&quot;:2}" opacity="0"/><circle cx="1034.62878" cy="-108.32753" transform="rotate(30)" r="20" data-paper-data="{&quot;index&quot;:3}" opacity="0"/><circle cx="973.27381" cy="423.5" r="8.45238"/><circle cx="961.72619" cy="423.5" r="8.45238"/><circle cx="973.27381" cy="423.5" r="11.54762"/><circle cx="961.72619" cy="423.5" r="11.54762"/></g><rect x="-693" y="-524" transform="rotate(180)" width="23" height="19" stroke="#000000" stroke-width="0.5" stroke-linecap="butt" opacity="0"/><g stroke="#ffffff" stroke-width="0.5" stroke-linecap="round"><circle cx="681.5" cy="514.5" r="20" data-paper-data="{&quot;index&quot;:0}" opacity="0"/><circle cx="701.5" cy="514.5" r="20" data-paper-data="{&quot;index&quot;:1}" opacity="0"/><circle cx="691.5" cy="531.82143" r="20" data-paper-data="{&quot;index&quot;:2}" opacity="0"/><circle cx="671.5" cy="531.82143" r="20" data-paper-data="{&quot;index&quot;:3}" opacity="0"/><circle cx="661.5" cy="514.5" r="20" data-paper-data="{&quot;index&quot;:4}" opacity="0"/><circle cx="686.5" cy="523.16071" r="2.67857"/><circle cx="676.5" cy="523.16071" r="2.67857"/><circle cx="686.5" cy="523.16071" r="10"/><circle cx="676.5" cy="523.16071" r="10"/></g><rect x="-836" y="-524" transform="rotate(180)" width="23" height="19" stroke="#000000" stroke-width="0.5" stroke-linecap="butt" opacity="0"/><g stroke="#ffffff" stroke-width="0.5" stroke-linecap="round"><circle cx="824.5" cy="514.5" r="20" data-paper-data="{&quot;index&quot;:0}" opacity="0"/><circle cx="844.5" cy="514.5" r="20" data-paper-data="{&quot;index&quot;:1}" opacity="0"/><circle cx="834.5" cy="531.82143" r="20" data-paper-data="{&quot;index&quot;:2}" opacity="0"/><circle cx="814.5" cy="531.82143" r="20" data-paper-data="{&quot;index&quot;:3}" opacity="0"/><circle cx="804.5" cy="514.5" r="20" data-paper-data="{&quot;index&quot;:4}" opacity="0"/><circle cx="829.5" cy="523.16071" r="2.67857"/><circle cx="819.5" cy="523.16071" r="2.67857"/><circle cx="829.5" cy="523.16071" r="10"/><circle cx="819.5" cy="523.16071" r="10"/><circle cx="834.5" cy="520.27381" r="8.45238"/><circle cx="824.5" cy="526.04762" r="8.45238"/><circle cx="814.5" cy="520.27381" r="8.45238"/><circle cx="834.5" cy="520.27381" r="11.54762"/><circle cx="824.5" cy="526.04762" r="11.54762"/><circle cx="814.5" cy="520.27381" r="11.54762"/></g><rect x="-979" y="-524" transform="rotate(180)" width="23" height="19" stroke="#000000" stroke-width="0.5" stroke-linecap="butt" opacity="0"/><g stroke="#ffffff" stroke-width="0.5" stroke-linecap="round"><circle cx="967.5" cy="514.5" r="20" data-paper-data="{&quot;index&quot;:0}" opacity="0"/><circle cx="987.5" cy="514.5" r="20" data-paper-data="{&quot;index&quot;:1}" opacity="0"/><circle cx="977.5" cy="531.82143" r="20" data-paper-data="{&quot;index&quot;:2}" opacity="0"/><circle cx="957.5" cy="531.82143" r="20" data-paper-data="{&quot;index&quot;:3}" opacity="0"/><circle cx="947.5" cy="514.5" r="20" data-paper-data="{&quot;index&quot;:4}" opacity="0"/><circle cx="977.5" cy="520.27381" r="8.45238"/><circle cx="967.5" cy="526.04762" r="8.45238"/><circle cx="957.5" cy="520.27381" r="8.45238"/><circle cx="977.5" cy="520.27381" r="11.54762"/><circle cx="967.5" cy="526.04762" r="11.54762"/><circle cx="957.5" cy="520.27381" r="11.54762"/></g><rect x="-693" y="-625" transform="rotate(180)" width="23" height="19" stroke="#000000" stroke-width="0.5" stroke-linecap="butt" opacity="0"/><g stroke="#ffffff" stroke-width="0.5" stroke-linecap="round"><circle cx="282.44631" cy="873.78864" transform="rotate(-30)" r="20" data-paper-data="{&quot;index&quot;:0}" opacity="0"/><circle cx="302.44711" cy="873.7891" transform="rotate(-30)" r="20" data-paper-data="{&quot;index&quot;:1}" opacity="0"/><circle cx="292.44711" cy="891.1096" transform="rotate(-30)" r="20" data-paper-data="{&quot;index&quot;:2}" opacity="0"/><circle cx="272.44631" cy="891.10914" transform="rotate(-30)" r="20" data-paper-data="{&quot;index&quot;:3}" opacity="0"/><circle cx="262.44552" cy="873.78818" transform="rotate(-30)" r="20" data-paper-data="{&quot;index&quot;:4}" opacity="0"/><circle cx="272.44552" cy="856.46767" transform="rotate(-30)" r="20" data-paper-data="{&quot;index&quot;:5}" opacity="0"/><circle cx="690.16071" cy="620.5" r="2.67857"/><circle cx="681.5" cy="605.5" r="2.67857"/><circle cx="681.5" cy="625.5" r="2.67857"/><circle cx="672.83929" cy="620.5" r="2.67857"/><circle cx="690.16071" cy="620.5" r="10"/><circle cx="681.5" cy="605.5" r="10"/><circle cx="681.5" cy="625.5" r="10"/><circle cx="672.83929" cy="620.5" r="10"/></g><rect x="-836" y="-625" transform="rotate(180)" width="23" height="19" stroke="#000000" stroke-width="0.5" stroke-linecap="butt" opacity="0"/><g stroke="#ffffff" stroke-width="0.5" stroke-linecap="round"><circle cx="406.28795" cy="945.28864" transform="rotate(-30)" r="20" data-paper-data="{&quot;index&quot;:0}" opacity="0"/><circle cx="426.28874" cy="945.2891" transform="rotate(-30)" r="20" data-paper-data="{&quot;index&quot;:1}" opacity="0"/><circle cx="416.28874" cy="962.6096" transform="rotate(-30)" r="20" data-paper-data="{&quot;index&quot;:2}" opacity="0"/><circle cx="396.28795" cy="962.60914" transform="rotate(-30)" r="20" data-paper-data="{&quot;index&quot;:3}" opacity="0"/><circle cx="386.28715" cy="945.28818" transform="rotate(-30)" r="20" data-paper-data="{&quot;index&quot;:4}" opacity="0"/><circle cx="396.28715" cy="927.96767" transform="rotate(-30)" r="20" data-paper-data="{&quot;index&quot;:5}" opacity="0"/><circle cx="833.16071" cy="620.5" r="2.67857"/><circle cx="824.5" cy="605.5" r="2.67857"/><circle cx="824.5" cy="625.5" r="2.67857"/><circle cx="815.83929" cy="620.5" r="2.67857"/><circle cx="833.16071" cy="620.5" r="10"/><circle cx="824.5" cy="605.5" r="10"/><circle cx="824.5" cy="625.5" r="10"/><circle cx="815.83929" cy="620.5" r="10"/><circle cx="836.04762" cy="615.5" r="8.45238"/><circle cx="830.27381" cy="625.5" r="8.45238"/><circle cx="818.72619" cy="625.5" r="8.45238"/><circle cx="812.95238" cy="615.5" r="8.45238"/><circle cx="836.04762" cy="615.5" r="11.54762"/><circle cx="830.27381" cy="625.5" r="11.54762"/><circle cx="818.72619" cy="625.5" r="11.54762"/><circle cx="812.95238" cy="615.5" r="11.54762"/></g><rect x="-979" y="-625" transform="rotate(180)" width="23" height="19" stroke="#000000" stroke-width="0.5" stroke-linecap="butt" opacity="0"/><g stroke="#ffffff" stroke-width="0.5" stroke-linecap="round"><circle cx="530.12958" cy="1016.78864" transform="rotate(-30)" r="20" data-paper-data="{&quot;index&quot;:0}" opacity="0"/><circle cx="550.13038" cy="1016.7891" transform="rotate(-30)" r="20" data-paper-data="{&quot;index&quot;:1}" opacity="0"/><circle cx="540.13038" cy="1034.1096" transform="rotate(-30)" r="20" data-paper-data="{&quot;index&quot;:2}" opacity="0"/><circle cx="520.12958" cy="1034.10914" transform="rotate(-30)" r="20" data-paper-data="{&quot;index&quot;:3}" opacity="0"/><circle cx="510.12878" cy="1016.78818" transform="rotate(-30)" r="20" data-paper-data="{&quot;index&quot;:4}" opacity="0"/><circle cx="520.12878" cy="999.46767" transform="rotate(-30)" r="20" data-paper-data="{&quot;index&quot;:5}" opacity="0"/><circle cx="979.04762" cy="615.5" r="8.45238"/><circle cx="973.27381" cy="625.5" r="8.45238"/><circle cx="961.72619" cy="625.5" r="8.45238"/><circle cx="955.95238" cy="615.5" r="8.45238"/><circle cx="979.04762" cy="615.5" r="11.54762"/><circle cx="973.27381" cy="625.5" r="11.54762"/><circle cx="961.72619" cy="625.5" r="11.54762"/><circle cx="955.95238" cy="615.5" r="11.54762"/></g><rect x="-693" y="-726" transform="rotate(180)" width="23" height="19" stroke="#000000" stroke-width="0.5" stroke-linecap="butt" opacity="0"/><g stroke="#ffffff" stroke-width="0.5" stroke-linecap="round"><circle cx="948.44631" cy="279.7572" transform="rotate(30)" r="20" data-paper-data="{&quot;index&quot;:0}" opacity="0"/><circle cx="968.44711" cy="279.75674" transform="rotate(30)" r="20" data-paper-data="{&quot;index&quot;:1}" opacity="0"/><circle cx="958.44631" cy="297.07771" transform="rotate(30)" r="20" data-paper-data="{&quot;index&quot;:2}" opacity="0"/><circle cx="938.44552" cy="297.07817" transform="rotate(30)" r="20" data-paper-data="{&quot;index&quot;:3}" opacity="0"/><circle cx="928.44552" cy="279.75766" transform="rotate(30)" r="20" data-paper-data="{&quot;index&quot;:4}" opacity="0"/><circle cx="938.44631" cy="262.43669" transform="rotate(30)" r="20" data-paper-data="{&quot;index&quot;:5}" opacity="0"/><circle cx="958.44711" cy="262.43623" transform="rotate(30)" r="20" data-paper-data="{&quot;index&quot;:6}" opacity="0"/><circle cx="681.5" cy="726.5" r="2.67857"/><circle cx="690.16071" cy="711.5" r="2.67857"/><circle cx="672.83929" cy="721.5" r="2.67857"/><circle cx="690.16071" cy="721.5" r="2.67857"/><circle cx="672.83929" cy="711.5" r="2.67857"/><circle cx="681.5" cy="706.5" r="2.67857"/><circle cx="681.5" cy="726.5" r="10"/><circle cx="690.16071" cy="711.5" r="10"/><circle cx="672.83929" cy="721.5" r="10"/><circle cx="690.16071" cy="721.5" r="10"/><circle cx="672.83929" cy="711.5" r="10"/><circle cx="681.5" cy="706.5" r="10"/></g><rect x="-836" y="-726" transform="rotate(180)" width="23" height="19" stroke="#000000" stroke-width="0.5" stroke-linecap="butt" opacity="0"/><g stroke="#ffffff" stroke-width="0.5" stroke-linecap="round"><circle cx="1072.28795" cy="208.2572" transform="rotate(30)" r="20" data-paper-data="{&quot;index&quot;:0}" opacity="0"/><circle cx="1092.28874" cy="208.25674" transform="rotate(30)" r="20" data-paper-data="{&quot;index&quot;:1}" opacity="0"/><circle cx="1082.28795" cy="225.57771" transform="rotate(30)" r="20" data-paper-data="{&quot;index&quot;:2}" opacity="0"/><circle cx="1062.28715" cy="225.57817" transform="rotate(30)" r="20" data-paper-data="{&quot;index&quot;:3}" opacity="0"/><circle cx="1052.28715" cy="208.25766" transform="rotate(30)" r="20" data-paper-data="{&quot;index&quot;:4}" opacity="0"/><circle cx="1062.28795" cy="190.93669" transform="rotate(30)" r="20" data-paper-data="{&quot;index&quot;:5}" opacity="0"/><circle cx="1082.28874" cy="190.93623" transform="rotate(30)" r="20" data-paper-data="{&quot;index&quot;:6}" opacity="0"/><circle cx="824.5" cy="726.5" r="2.67857"/><circle cx="833.16071" cy="711.5" r="2.67857"/><circle cx="815.83929" cy="721.5" r="2.67857"/><circle cx="833.16071" cy="721.5" r="2.67857"/><circle cx="815.83929" cy="711.5" r="2.67857"/><circle cx="824.5" cy="706.5" r="2.67857"/><circle cx="824.5" cy="726.5" r="10"/><circle cx="833.16071" cy="711.5" r="10"/><circle cx="815.83929" cy="721.5" r="10"/><circle cx="833.16071" cy="721.5" r="10"/><circle cx="815.83929" cy="711.5" r="10"/><circle cx="824.5" cy="706.5" r="10"/><circle cx="830.27381" cy="726.5" r="8.45238"/><circle cx="836.04762" cy="716.5" r="8.45238"/><circle cx="818.72619" cy="726.5" r="8.45238"/><circle cx="812.95238" cy="716.5" r="8.45238"/><circle cx="818.72619" cy="706.5" r="8.45238"/><circle cx="830.27381" cy="706.5" r="8.45238"/><circle cx="830.27381" cy="726.5" r="11.54762"/><circle cx="836.04762" cy="716.5" r="11.54762"/><circle cx="818.72619" cy="726.5" r="11.54762"/><circle cx="812.95238" cy="716.5" r="11.54762"/><circle cx="818.72619" cy="706.5" r="11.54762"/><circle cx="830.27381" cy="706.5" r="11.54762"/></g><rect x="-979" y="-726" transform="rotate(180)" width="23" height="19" stroke="#000000" stroke-width="0.5" stroke-linecap="butt" opacity="0"/><g stroke="#ffffff" stroke-width="0.5" stroke-linecap="round"><circle cx="1196.12958" cy="136.7572" transform="rotate(30)" r="20" data-paper-data="{&quot;index&quot;:0}" opacity="0"/><circle cx="1216.13038" cy="136.75674" transform="rotate(30)" r="20" data-paper-data="{&quot;index&quot;:1}" opacity="0"/><circle cx="1206.12958" cy="154.07771" transform="rotate(30)" r="20" data-paper-data="{&quot;index&quot;:2}" opacity="0"/><circle cx="1186.12878" cy="154.07817" transform="rotate(30)" r="20" data-paper-data="{&quot;index&quot;:3}" opacity="0"/><circle cx="1176.12878" cy="136.75766" transform="rotate(30)" r="20" data-paper-data="{&quot;index&quot;:4}" opacity="0"/><circle cx="1186.12958" cy="119.43669" transform="rotate(30)" r="20" data-paper-data="{&quot;index&quot;:5}" opacity="0"/><circle cx="1206.13038" cy="119.43623" transform="rotate(30)" r="20" data-paper-data="{&quot;index&quot;:6}" opacity="0"/><circle cx="973.27381" cy="726.5" r="8.45238"/><circle cx="979.04762" cy="716.5" r="8.45238"/><circle cx="961.72619" cy="726.5" r="8.45238"/><circle cx="955.95238" cy="716.5" r="8.45238"/><circle cx="961.72619" cy="706.5" r="8.45238"/><circle cx="973.27381" cy="706.5" r="8.45238"/><circle cx="973.27381" cy="726.5" r="11.54762"/><circle cx="979.04762" cy="716.5" r="11.54762"/><circle cx="961.72619" cy="726.5" r="11.54762"/><circle cx="955.95238" cy="716.5" r="11.54762"/><circle cx="961.72619" cy="706.5" r="11.54762"/><circle cx="973.27381" cy="706.5" r="11.54762"/></g></g></svg>