<svg x="0" y="0" width="1100" height="850" version="1.1" xmlns="http://www.w3.org/2000/svg" xmlns:xlink="http://www.w3.org/1999/xlink"><g fill="none" stroke="none" stroke-width="none" stroke-linecap="none" stroke-linejoin="miter" stroke-miterlimit="10" stroke-dasharray="" stroke-dashoffset="0" font-family="sans-serif" font-size="12" text-anchor="start" mix-blend-mode="normal"><rect x="20" y="25" width="510" height="800" fill="#000000" stroke-width="1" stroke-linecap="butt"/><g stroke-width="1" stroke-linecap="butt"/><rect x="-286" y="-120" transform="rotate(180)" width="23" height="19" stroke="#000000" stroke-width="0.5" stroke-linecap="butt" opacity="0"/><g stroke="#ffffff" stroke-width="0.5" stroke-linecap="round"><circle cx="274.5" cy="110.5" r="20" data-paper-data="{&quot;index&quot;:0}"/><circle cx="274.5" cy="110.5" r="1.5" fill="#ffffff"/></g><rect x="-286" y="-221" transform="rotate(180)" width="23" height="19" stroke="#000000" stroke-width="0.5" stroke-linecap="butt" opacity="0"/><g stroke="#ffffff" stroke-width="0.5" stroke-linecap="round"><circle cx="211.5" cy="-274.5" transform="rotate(90)" r="20" data-paper-data="{&quot;index&quot;:0}"/><circle cx="231.5" cy="-274.5" transform="rotate(90)" r="20" data-paper-data="{&quot;index&quot;:1}"/><circle cx="274.5" cy="221.5" r="1.5" fill="#ffffff"/></g><rect x="-286" y="-322" transform="rotate(180)" width="23" height="19" stroke="#000000" stroke-width="0.5" stroke-linecap="butt" opacity="0"/><g stroke="#ffffff" stroke-width="0.5" stroke-linecap="round"><circle cx="407.88294" cy="-81.47397" transform="rotate(60)" r="20" data-paper-data="{&quot;index&quot;:0}"/><circle cx="427.88374" cy="-81.47351" transform="rotate(60)" r="20" data-paper-data="{&quot;index&quot;:1}"/><circle cx="417.88374" cy="-64.15301" transform="rotate(60)" r="20" data-paper-data="{&quot;index&quot;:2}"/><circle cx="274.5" cy="324.04762" r="1.5" fill="#ffffff"/></g><rect x="-286" y="-423" transform="rotate(180)" width="23" height="19" stroke="#000000" stroke-width="0.5" stroke-linecap="butt" opacity="0"/><g stroke="#ffffff" stroke-width="0.5" stroke-linecap="round"><circle cx="444.47397" cy="220.8515" transform="matrix(0.8660254037844382,0.5000000000000008,-0.5000000000000008,0.8660254037844382,0,0)" r="20" data-paper-data="{&quot;index&quot;:0}"/><circle cx="464.47477" cy="220.85104" transform="matrix(0.8660254037844382,0.5000000000000008,-0.5000000000000008,0.8660254037844382,0,0)" r="20" data-paper-data="{&quot;index&quot;:1}"/><circle cx="454.47397" cy="238.17201" transform="matrix(0.8660254037844382,0.5000000000000008,-0.5000000000000008,0.8660254037844382,0,0)" r="20" data-paper-data="{&quot;index&quot;:2}"/><circle cx="434.47318" cy="238.17247" transform="matrix(0.8660254037844382,0.5000000000000008,-0.5000000000000008,0.8660254037844382,0,0)" r="20" data-paper-data="{&quot;index&quot;:3}"/><circle cx="274.5" cy="423.5" r="1.5" fill="#ffffff"/></g><rect x="-286" y="-524" transform="rotate(180)" width="23" height="19" stroke="#000000" stroke-width="0.5" stroke-linecap="butt" opacity="0"/><g stroke="#ffffff" stroke-width="0.5" stroke-linecap="round"><circle cx="274.5" cy="514.5" r="20" data-paper-data="{&quot;index&quot;:0}"/><circle cx="294.5" cy="514.5" r="20" data-paper-data="{&quot;index&quot;:1}"/><circle cx="284.5" cy="531.82143" r="20" data-paper-data="{&quot;index&quot;:2}"/><circle cx="264.5" cy="531.82143" r="20" data-paper-data="{&quot;index&quot;:3}"/><circle cx="254.5" cy="514.5" r="20" data-paper-data="{&quot;index&quot;:4}"/><circle cx="274.5" cy="521.42857" r="1.5" fill="#ffffff"/></g><rect x="-286" y="-625" transform="rotate(180)" width="23" height="19" stroke="#000000" stroke-width="0.5" stroke-linecap="butt" opacity="0"/><g stroke="#ffffff" stroke-width="0.5" stroke-linecap="round"><circle cx="-70.02603" cy="670.28864" transform="matrix(0.8660254037844382,-0.5000000000000008,0.5000000000000008,0.8660254037844382,0,0)" r="20" data-paper-data="{&quot;index&quot;:0}"/><circle cx="-50.02523" cy="670.2891" transform="matrix(0.8660254037844382,-0.5000000000000008,0.5000000000000008,0.8660254037844382,0,0)" r="20" data-paper-data="{&quot;index&quot;:1}"/><circle cx="-60.02523" cy="687.6096" transform="matrix(0.8660254037844382,-0.5000000000000008,0.5000000000000008,0.8660254037844382,0,0)" r="20" data-paper-data="{&quot;index&quot;:2}"/><circle cx="-80.02603" cy="687.60914" transform="matrix(0.8660254037844382,-0.5000000000000008,0.5000000000000008,0.8660254037844382,0,0)" r="20" data-paper-data="{&quot;index&quot;:3}"/><circle cx="-90.02682" cy="670.28818" transform="matrix(0.8660254037844382,-0.5000000000000008,0.5000000000000008,0.8660254037844382,0,0)" r="20" data-paper-data="{&quot;index&quot;:4}"/><circle cx="-80.02682" cy="652.96767" transform="matrix(0.8660254037844382,-0.5000000000000008,0.5000000000000008,0.8660254037844382,0,0)" r="20" data-paper-data="{&quot;index&quot;:5}"/><circle cx="274.5" cy="620.95455" r="1.5" fill="#ffffff"/></g><rect x="-286" y="-726" transform="rotate(180)" width="23" height="19" stroke="#000000" stroke-width="0.5" stroke-linecap="butt" opacity="0"/><g stroke="#ffffff" stroke-width="0.5" stroke-linecap="round"><circle cx="595.97397" cy="483.2572" transform="matrix(0.8660254037844382,0.5000000000000008,-0.5000000000000008,0.8660254037844382,0,0)" r="20" data-paper-data="{&quot;index&quot;:0}"/><circle cx="615.97477" cy="483.25674" transform="matrix(0.8660254037844382,0.5000000000000008,-0.5000000000000008,0.8660254037844382,0,0)" r="20" data-paper-data="{&quot;index&quot;:1}"/><circle cx="605.97397" cy="500.57771" transform="rotate(30)" r="20" data-paper-data="{&quot;index&quot;:2}"/><circle cx="585.97318" cy="500.57817" transform="rotate(30)" r="20" data-paper-data="{&quot;index&quot;:3}"/><circle cx="575.97318" cy="483.25766" transform="matrix(0.8660254037844382,0.5000000000000008,-0.5000000000000008,0.8660254037844382,0,0)" r="20" data-paper-data="{&quot;index&quot;:4}"/><circle cx="585.97397" cy="465.93669" transform="rotate(30)" r="20" data-paper-data="{&quot;index&quot;:5}"/><circle cx="605.97477" cy="465.93623" transform="rotate(30)" r="20" data-paper-data="{&quot;index&quot;:6}"/><circle cx="274.5" cy="716.5" r="1.5" fill="#ffffff"/></g><rect x="570" y="25" width="510" height="800" fill="#000000" stroke-width="1" stroke-linecap="butt"/><g stroke-width="1" stroke-linecap="butt"/><rect x="-693" y="-120" transform="rotate(180)" width="23" height="19" stroke="#000000" stroke-width="0.5" stroke-linecap="butt" opacity="0"/><g stroke="#ffffff" stroke-width="0.5" stroke-linecap="round"><circle cx="681.5" cy="110.5" r="20" data-paper-data="{&quot;index&quot;:0}" opacity="0"/><circle cx="681.5" cy="110.5" r="1.5" fill="#ffffff"/></g><rect x="-836" y="-120" transform="rotate(180)" width="23" height="19" stroke="#000000" stroke-width="0.5" stroke-linecap="butt" opacity="0"/><g stroke="#ffffff" stroke-width="0.5" stroke-linecap="round"><circle cx="824.5" cy="110.5" r="20" data-paper-data="{&quot;index&quot;:0}" opacity="0"/><circle cx="824.5" cy="110.5" r="1.5" fill="#ffffff"/><line x1="824.5" y1="110.5" x2="824.5" y2="110.5"/></g><rect x="-979" y="-120" transform="rotate(180)" width="23" height="19" stroke="#000000" stroke-width="0.5" stroke-linecap="butt" opacity="0"/><g stroke="#ffffff" stroke-width="0.5" stroke-linecap="round"><circle cx="967.5" cy="110.5" r="20" data-paper-data="{&quot;index&quot;:0}" opacity="0"/><circle cx="967.5" cy="110.5" r="1.5" fill="#ffffff"/><circle cx="967.5" cy="110.5" r="1.5" fill="#ffffff"/></g><rect x="-693" y="-221" transform="rotate(180)" width="23" height="19" stroke="#000000" stroke-width="0.5" stroke-linecap="butt" opacity="0"/><g stroke="#ffffff" stroke-width="0.5" stroke-linecap="round"><circle cx="211.5" cy="-681.5" transform="rotate(90)" r="20" data-paper-data="{&quot;index&quot;:0}" opacity="0"/><circle cx="231.5" cy="-681.5" transform="rotate(90)" r="20" data-paper-data="{&quot;index&quot;:1}" opacity="0"/><circle cx="681.5" cy="211.5" r="1.5" fill="#ffffff"/><circle cx="681.5" cy="231.5" r="1.5" fill="#ffffff"/><circle cx="698.82143" cy="221.5" r="1.5" fill="#ffffff"/><circle cx="664.17857" cy="221.5" r="1.5" fill="#ffffff"/></g><rect x="-836" y="-221" transform="rotate(180)" width="23" height="19" stroke="#000000" stroke-width="0.5" stroke-linecap="butt" opacity="0"/><g stroke="#ffffff" stroke-width="0.5" stroke-linecap="round"><circle cx="211.5" cy="-824.5" transform="rotate(90)" r="20" data-paper-data="{&quot;index&quot;:0}" opacity="0"/><circle cx="231.5" cy="-824.5" transform="rotate(90)" r="20" data-paper-data="{&quot;index&quot;:1}" opacity="0"/><circle cx="824.5" cy="211.5" r="1.5" fill="#ffffff"/><circle cx="824.5" cy="231.5" r="1.5" fill="#ffffff"/><circle cx="841.82143" cy="221.5" r="1.5" fill="#ffffff"/><circle cx="807.17857" cy="221.5" r="1.5" fill="#ffffff"/><line x1="824.5" y1="211.5" x2="824.5" y2="221.5"/><line x1="824.5" y1="231.5" x2="824.5" y2="221.5"/><line x1="841.82143" y1="221.5" x2="824.5" y2="221.5"/><line x1="807.17857" y1="221.5" x2="824.5" y2="221.5"/></g><rect x="-979" y="-221" transform="rotate(180)" width="23" height="19" stroke="#000000" stroke-width="0.5" stroke-linecap="butt" opacity="0"/><g stroke="#ffffff" stroke-width="0.5" stroke-linecap="round"><circle cx="211.5" cy="-967.5" transform="rotate(90)" r="20" data-paper-data="{&quot;index&quot;:0}" opacity="0"/><circle cx="231.5" cy="-967.5" transform="rotate(90)" r="20" data-paper-data="{&quot;index&quot;:1}" opacity="0"/><circle cx="967.5" cy="211.5" r="1.5" fill="#ffffff"/><circle cx="967.5" cy="231.5" r="1.5" fill="#ffffff"/><circle cx="984.82143" cy="221.5" r="1.5" fill="#ffffff"/><circle cx="950.17857" cy="221.5" r="1.5" fill="#ffffff"/><circle cx="967.5" cy="221.5" r="1.5" fill="#ffffff"/></g><rect x="-693" y="-322" transform="rotate(180)" width="23" height="19" stroke="#000000" stroke-width="0.5" stroke-linecap="butt" opacity="0"/><g stroke="#ffffff" stroke-width="0.5" stroke-linecap="round"><circle cx="611.38294" cy="-433.94631" transform="rotate(60)" r="20" data-paper-data="{&quot;index&quot;:0}" opacity="0"/><circle cx="631.38374" cy="-433.94585" transform="rotate(60)" r="20" data-paper-data="{&quot;index&quot;:1}" opacity="0"/><circle cx="621.38374" cy="-416.62534" transform="rotate(60)" r="20" data-paper-data="{&quot;index&quot;:2}" opacity="0"/><circle cx="681.5" cy="312.5" r="1.5" fill="#ffffff"/><circle cx="691.5" cy="329.82143" r="1.5" fill="#ffffff"/><circle cx="671.5" cy="329.82143" r="1.5" fill="#ffffff"/><circle cx="701.5" cy="312.5" r="1.5" fill="#ffffff"/><circle cx="661.5" cy="312.5" r="1.5" fill="#ffffff"/><circle cx="681.5" cy="347.14286" r="1.5" fill="#ffffff"/></g><rect x="-836" y="-322" transform="rotate(180)" width="23" height="19" stroke="#000000" stroke-width="0.5" stroke-linecap="butt" opacity="0"/><g stroke="#ffffff" stroke-width="0.5" stroke-linecap="round"><circle cx="682.88294" cy="-557.78795" transform="rotate(60)" r="20" data-paper-data="{&quot;index&quot;:0}" opacity="0"/><circle cx="702.88374" cy="-557.78749" transform="rotate(60)" r="20" data-paper-data="{&quot;index&quot;:1}" opacity="0"/><circle cx="692.88374" cy="-540.46698" transform="rotate(60)" r="20" data-paper-data="{&quot;index&quot;:2}" opacity="0"/><circle cx="824.5" cy="312.5" r="1.5" fill="#ffffff"/><circle cx="834.5" cy="329.82143" r="1.5" fill="#ffffff"/><circle cx="814.5" cy="329.82143" r="1.5" fill="#ffffff"/><circle cx="844.5" cy="312.5" r="1.5" fill="#ffffff"/><circle cx="804.5" cy="312.5" r="1.5" fill="#ffffff"/><circle cx="824.5" cy="347.14286" r="1.5" fill="#ffffff"/><line x1="824.5" y1="312.5" x2="824.5" y2="324.04762"/><line x1="834.5" y1="329.82143" x2="824.5" y2="324.04762"/><line x1="814.5" y1="329.82143" x2="824.5" y2="324.04762"/><line x1="844.5" y1="312.5" x2="824.5" y2="324.04762"/><line x1="804.5" y1="312.5" x2="824.5" y2="324.04762"/><line x1="824.5" y1="347.14286" x2="824.5" y2="324.04762"/></g><rect x="-979" y="-322" transform="rotate(180)" width="23" height="19" stroke="#000000" stroke-width="0.5" stroke-linecap="butt" opacity="0"/><g stroke="#ffffff" stroke-width="0.5" stroke-linecap="round"><circle cx="754.38294" cy="-681.62958" transform="rotate(60)" r="20" data-paper-data="{&quot;index&quot;:0}" opacity="0"/><circle cx="774.38374" cy="-681.62912" transform="rotate(60)" r="20" data-paper-data="{&quot;index&quot;:1}" opacity="0"/><circle cx="764.38374" cy="-664.30861" transform="rotate(60)" r="20" data-paper-data="{&quot;index&quot;:2}" opacity="0"/><circle cx="967.5" cy="312.5" r="1.5" fill="#ffffff"/><circle cx="977.5" cy="329.82143" r="1.5" fill="#ffffff"/><circle cx="957.5" cy="329.82143" r="1.5" fill="#ffffff"/><circle cx="987.5" cy="312.5" r="1.5" fill="#ffffff"/><circle cx="947.5" cy="312.5" r="1.5" fill="#ffffff"/><circle cx="967.5" cy="347.14286" r="1.5" fill="#ffffff"/><circle cx="967.5" cy="324.04762" r="1.5" fill="#ffffff"/></g><rect x="-693" y="-423" transform="rotate(180)" width="23" height="19" stroke="#000000" stroke-width="0.5" stroke-linecap="butt" opacity="0"/><g stroke="#ffffff" stroke-width="0.5" stroke-linecap="round"><circle cx="796.94631" cy="17.3515" transform="matrix(0.8660254037844382,0.5000000000000008,-0.5000000000000008,0.8660254037844382,0,0)" r="20" data-paper-data="{&quot;index&quot;:0}" opacity="0"/><circle cx="816.94711" cy="17.35104" transform="matrix(0.8660254037844382,0.5000000000000008,-0.5000000000000008,0.8660254037844382,0,0)" r="20" data-paper-data="{&quot;index&quot;:1}" opacity="0"/><circle cx="806.94631" cy="34.67201" transform="rotate(30)" r="20" data-paper-data="{&quot;index&quot;:2}" opacity="0"/><circle cx="786.94552" cy="34.67247" transform="rotate(30)" r="20" data-paper-data="{&quot;index&quot;:3}" opacity="0"/><circle cx="681.5" cy="413.5" r="1.5" fill="#ffffff"/><circle cx="698.82143" cy="423.5" r="1.5" fill="#ffffff"/><circle cx="681.5" cy="433.5" r="1.5" fill="#ffffff"/><circle cx="664.17857" cy="423.5" r="1.5" fill="#ffffff"/><circle cx="698.82143" cy="403.5" r="1.5" fill="#ffffff"/><circle cx="664.17857" cy="403.5" r="1.5" fill="#ffffff"/><circle cx="698.82143" cy="443.5" r="1.5" fill="#ffffff"/><circle cx="664.17857" cy="443.5" r="1.5" fill="#ffffff"/></g><rect x="-836" y="-423" transform="rotate(180)" width="23" height="19" stroke="#000000" stroke-width="0.5" stroke-linecap="butt" opacity="0"/><g stroke="#ffffff" stroke-width="0.5" stroke-linecap="round"><circle cx="920.78795" cy="-54.1485" transform="matrix(0.8660254037844382,0.5000000000000008,-0.5000000000000008,0.8660254037844382,0,0)" r="20" data-paper-data="{&quot;index&quot;:0}" opacity="0"/><circle cx="940.78874" cy="-54.14896" transform="matrix(0.8660254037844382,0.5000000000000008,-0.5000000000000008,0.8660254037844382,0,0)" r="20" data-paper-data="{&quot;index&quot;:1}" opacity="0"/><circle cx="930.78795" cy="-36.82799" transform="rotate(30)" r="20" data-paper-data="{&quot;index&quot;:2}" opacity="0"/><circle cx="910.78715" cy="-36.82753" transform="rotate(30)" r="20" data-paper-data="{&quot;index&quot;:3}" opacity="0"/><circle cx="824.5" cy="413.5" r="1.5" fill="#ffffff"/><circle cx="841.82143" cy="423.5" r="1.5" fill="#ffffff"/><circle cx="824.5" cy="433.5" r="1.5" fill="#ffffff"/><circle cx="807.17857" cy="423.5" r="1.5" fill="#ffffff"/><circle cx="841.82143" cy="403.5" r="1.5" fill="#ffffff"/><circle cx="807.17857" cy="403.5" r="1.5" fill="#ffffff"/><circle cx="841.82143" cy="443.5" r="1.5" fill="#ffffff"/><circle cx="807.17857" cy="443.5" r="1.5" fill="#ffffff"/><line x1="824.5" y1="413.5" x2="824.5" y2="423.5"/><line x1="841.82143" y1="423.5" x2="824.5" y2="423.5"/><line x1="824.5" y1="433.5" x2="824.5" y2="423.5"/><line x1="807.17857" y1="423.5" x2="824.5" y2="423.5"/><line x1="841.82143" y1="403.5" x2="824.5" y2="423.5"/><line x1="807.17857" y1="403.5" x2="824.5" y2="423.5"/><line x1="841.82143" y1="443.5" x2="824.5" y2="423.5"/><line x1="807.17857" y1="443.5" x2="824.5" y2="423.5"/></g><rect x="-979" y="-423" transform="rotate(180)" width="23" height="19" stroke="#000000" stroke-width="0.5" stroke-linecap="butt" opacity="0"/><g stroke="#ffffff" stroke-width="0.5" stroke-linecap="round"><circle cx="1044.62958" cy="-125.6485" transform="matrix(0.8660254037844382,0.5000000000000008,-0.5000000000000008,0.8660254037844382,0,0)" r="20" data-paper-data="{&quot;index&quot;:0}" opacity="0"/><circle cx="1064.63038" cy="-125.64896" transform="matrix(0.8660254037844382,0.5000000000000008,-0.5000000000000008,0.8660254037844382,0,0)" r="20" data-paper-data="{&quot;index&quot;:1}" opacity="0"/><circle cx="1054.62958" cy="-108.32799" transform="rotate(30)" r="20" data-paper-data="{&quot;index&quot;:2}" opacity="0"/><circle cx="1034.62878" cy="-108.32753" transform="rotate(30)" r="20" data-paper-data="{&quot;index&quot;:3}" opacity="0"/><circle cx="967.5" cy="413.5" r="1.5" fill="#ffffff"/><circle cx="984.82143" cy="423.5" r="1.5" fill="#ffffff"/><circle cx="967.5" cy="433.5" r="1.5" fill="#ffffff"/><circle cx="950.17857" cy="423.5" r="1.5" fill="#ffffff"/><circle cx="984.82143" cy="403.5" r="1.5" fill="#ffffff"/><circle cx="950.17857" cy="403.5" r="1.5" fill="#ffffff"/><circle cx="984.82143" cy="443.5" r="1.5" fill="#ffffff"/><circle cx="950.17857" cy="443.5" r="1.5" fill="#ffffff"/><circle cx="967.5" cy="423.5" r="1.5" fill="#ffffff"/></g><rect x="-693" y="-524" transform="rotate(180)" width="23" height="19" stroke="#000000" stroke-width="0.5" stroke-linecap="butt" opacity="0"/><g stroke="#ffffff" stroke-width="0.5" stroke-linecap="round"><circle cx="681.5" cy="514.5" r="20" data-paper-data="{&quot;index&quot;:0}" opacity="0"/><circle cx="701.5" cy="514.5" r="20" data-paper-data="{&quot;index&quot;:1}" opacity="0"/><circle cx="691.5" cy="531.82143" r="20" data-paper-data="{&quot;index&quot;:2}" opacity="0"/><circle cx="671.5" cy="531.82143" r="20" data-paper-data="{&quot;index&quot;:3}" opacity="0"/><circle cx="661.5" cy="514.5" r="20" data-paper-data="{&quot;index&quot;:4}" opacity="0"/><circle cx="681.5" cy="514.5" r="1.5" fill="#ffffff"/><circle cx="701.5" cy="514.5" r="1.5" fill="#ffffff"/><circle cx="691.5" cy="531.82143" r="1.5" fill="#ffffff"/><circle cx="671.5" cy="531.82143" r="1.5" fill="#ffffff"/><circle cx="661.5" cy="514.5" r="1.5" fill="#ffffff"/><circle cx="691.5" cy="497.17857" r="1.5" fill="#ffffff"/><circle cx="671.5" cy="497.17857" r="1.5" fill="#ffffff"/><circle cx="711.5" cy="531.82143" r="1.5" fill="#ffffff"/><circle cx="681.5" cy="549.14286" r="1.5" fill="#ffffff"/><circle cx="651.5" cy="531.82143" r="1.5" fill="#ffffff"/></g><rect x="-836" y="-524" transform="rotate(180)" width="23" height="19" stroke="#000000" stroke-width="0.5" stroke-linecap="butt" opacity="0"/><g stroke="#ffffff" stroke-width="0.5" stroke-linecap="round"><circle cx="824.5" cy="514.5" r="20" data-paper-data="{&quot;index&quot;:0}" opacity="0"/><circle cx="844.5" cy="514.5" r="20" data-paper-data="{&quot;index&quot;:1}" opacity="0"/><circle cx="834.5" cy="531.82143" r="20" data-paper-data="{&quot;index&quot;:2}" opacity="0"/><circle cx="814.5" cy="531.82143" r="20" data-paper-data="{&quot;index&quot;:3}" opacity="0"/><circle cx="804.5" cy="514.5" r="20" data-paper-data="{&quot;index&quot;:4}" opacity="0"/><circle cx="824.5" cy="514.5" r="1.5" fill="#ffffff"/><circle cx="844.5" cy="514.5" r="1.5" fill="#ffffff"/><circle cx="834.5" cy="531.82143" r="1.5" fill="#ffffff"/><circle cx="814.5" cy="531.82143" r="1.5" fill="#ffffff"/><circle cx="804.5" cy="514.5" r="1.5" fill="#ffffff"/><circle cx="834.5" cy="497.17857" r="1.5" fill="#ffffff"/><circle cx="814.5" cy="497.17857" r="1.5" fill="#ffffff"/><circle cx="854.5" cy="531.82143" r="1.5" fill="#ffffff"/><circle cx="824.5" cy="549.14286" r="1.5" fill="#ffffff"/><circle cx="794.5" cy="531.82143" r="1.5" fill="#ffffff"/><line x1="824.5" y1="514.5" x2="824.5" y2="521.42857"/><line x1="844.5" y1="514.5" x2="824.5" y2="521.42857"/><line x1="834.5" y1="531.82143" x2="824.5" y2="521.42857"/><line x1="814.5" y1="531.82143" x2="824.5" y2="521.42857"/><line x1="804.5" y1="514.5" x2="824.5" y2="521.42857"/><line x1="834.5" y1="497.17857" x2="824.5" y2="521.42857"/><line x1="814.5" y1="497.17857" x2="824.5" y2="521.42857"/><line x1="854.5" y1="531.82143" x2="824.5" y2="521.42857"/><line x1="824.5" y1="549.14286" x2="824.5" y2="521.42857"/><line x1="794.5" y1="531.82143" x2="824.5" y2="521.42857"/></g><rect x="-979" y="-524" transform="rotate(180)" width="23" height="19" stroke="#000000" stroke-width="0.5" stroke-linecap="butt" opacity="0"/><g stroke="#ffffff" stroke-width="0.5" stroke-linecap="round"><circle cx="967.5" cy="514.5" r="20" data-paper-data="{&quot;index&quot;:0}" opacity="0"/><circle cx="987.5" cy="514.5" r="20" data-paper-data="{&quot;index&quot;:1}" opacity="0"/><circle cx="977.5" cy="531.82143" r="20" data-paper-data="{&quot;index&quot;:2}" opacity="0"/><circle cx="957.5" cy="531.82143" r="20" data-paper-data="{&quot;index&quot;:3}" opacity="0"/><circle cx="947.5" cy="514.5" r="20" data-paper-data="{&quot;index&quot;:4}" opacity="0"/><circle cx="967.5" cy="514.5" r="1.5" fill="#ffffff"/><circle cx="987.5" cy="514.5" r="1.5" fill="#ffffff"/><circle cx="977.5" cy="531.82143" r="1.5" fill="#ffffff"/><circle cx="957.5" cy="531.82143" r="1.5" fill="#ffffff"/><circle cx="947.5" cy="514.5" r="1.5" fill="#ffffff"/><circle cx="977.5" cy="497.17857" r="1.5" fill="#ffffff"/><circle cx="957.5" cy="497.17857" r="1.5" fill="#ffffff"/><circle cx="997.5" cy="531.82143" r="1.5" fill="#ffffff"/><circle cx="967.5" cy="549.14286" r="1.5" fill="#ffffff"/><circle cx="937.5" cy="531.82143" r="1.5" fill="#ffffff"/><circle cx="967.5" cy="521.42857" r="1.5" fill="#ffffff"/></g><rect x="-693" y="-625" transform="rotate(180)" width="23" height="19" stroke="#000000" stroke-width="0.5" stroke-linecap="butt" opacity="0"/><g stroke="#ffffff" stroke-width="0.5" stroke-linecap="round"><circle cx="282.44631" cy="873.78864" transform="rotate(-30)" r="20" data-paper-data="{&quot;index&quot;:0}" opacity="0"/><circle cx="302.44711" cy="873.7891" transform="rotate(-30)" r="20" data-paper-data="{&quot;index&quot;:1}" opacity="0"/><circle cx="292.44711" cy="891.1096" transform="rotate(-30)" r="20" data-paper-data="{&quot;index&quot;:2}" opacity="0"/><circle cx="272.44631" cy="891.10914" transform="rotate(-30)" r="20" data-paper-data="{&quot;index&quot;:3}" opacity="0"/><circle cx="262.44552" cy="873.78818" transform="rotate(-30)" r="20" data-paper-data="{&quot;index&quot;:4}" opacity="0"/><circle cx="272.44552" cy="856.46767" transform="rotate(-30)" r="20" data-paper-data="{&quot;index&quot;:5}" opacity="0"/><circle cx="681.5" cy="615.5" r="1.5" fill="#ffffff"/><circle cx="698.82143" cy="605.5" r="1.5" fill="#ffffff"/><circle cx="698.82143" cy="625.5" r="1.5" fill="#ffffff"/><circle cx="681.5" cy="635.5" r="1.5" fill="#ffffff"/><circle cx="664.17857" cy="625.5" r="1.5" fill="#ffffff"/><circle cx="664.17857" cy="605.5" r="1.5" fill="#ffffff"/><circle cx="681.5" cy="595.5" r="1.5" fill="#ffffff"/><circle cx="716.14286" cy="615.5" r="1.5" fill="#ffffff"/><circle cx="698.82143" cy="645.5" r="1.5" fill="#ffffff"/><circle cx="664.17857" cy="645.5" r="1.5" fill="#ffffff"/><circle cx="646.85714" cy="615.5" r="1.5" fill="#ffffff"/></g><rect x="-836" y="-625" transform="rotate(180)" width="23" height="19" stroke="#000000" stroke-width="0.5" stroke-linecap="butt" opacity="0"/><g stroke="#ffffff" stroke-width="0.5" stroke-linecap="round"><circle cx="406.28795" cy="945.28864" transform="rotate(-30)" r="20" data-paper-data="{&quot;index&quot;:0}" opacity="0"/><circle cx="426.28874" cy="945.2891" transform="rotate(-30)" r="20" data-paper-data="{&quot;index&quot;:1}" opacity="0"/><circle cx="416.28874" cy="962.6096" transform="rotate(-30)" r="20" data-paper-data="{&quot;index&quot;:2}" opacity="0"/><circle cx="396.28795" cy="962.60914" transform="rotate(-30)" r="20" data-paper-data="{&quot;index&quot;:3}" opacity="0"/><circle cx="386.28715" cy="945.28818" transform="rotate(-30)" r="20" data-paper-data="{&quot;index&quot;:4}" opacity="0"/><circle cx="396.28715" cy="927.96767" transform="rotate(-30)" r="20" data-paper-data="{&quot;index&quot;:5}" opacity="0"/><circle cx="824.5" cy="615.5" r="1.5" fill="#ffffff"/><circle cx="841.82143" cy="605.5" r="1.5" fill="#ffffff"/><circle cx="841.82143" cy="625.5" r="1.5" fill="#ffffff"/><circle cx="824.5" cy="635.5" r="1.5" fill="#ffffff"/><circle cx="807.17857" cy="625.5" r="1.5" fill="#ffffff"/><circle cx="807.17857" cy="605.5" r="1.5" fill="#ffffff"/><circle cx="824.5" cy="595.5" r="1.5" fill="#ffffff"/><circle cx="859.14286" cy="615.5" r="1.5" fill="#ffffff"/><circle cx="841.82143" cy="645.5" r="1.5" fill="#ffffff"/><circle cx="807.17857" cy="645.5" r="1.5" fill="#ffffff"/><circle cx="789.85714" cy="615.5" r="1.5" fill="#ffffff"/><line x1="824.5" y1="615.5" x2="824.5" y2="620.95455"/><line x1="841.82143" y1="605.5" x2="824.5" y2="620.95455"/><line x1="841.82143" y1="625.5" x2="824.5" y2="620.95455"/><line x1="824.5" y1="635.5" x2="824.5" y2="620.95455"/><line x1="807.17857" y1="625.5" x2="824.5" y2="620.95455"/><line x1="807.17857" y1="605.5" x2="824.5" y2="620.95455"/><line x1="824.5" y1="595.5" x2="824.5" y2="620.95455"/><line x1="859.14286" y1="615.5" x2="824.5" y2="620.95455"/><line x1="841.82143" y1="645.5" x2="824.5" y2="620.95455"/><line x1="807.17857" y1="645.5" x2="824.5" y2="620.95455"/><line x1="789.85714" y1="615.5" x2="824.5" y2="620.95455"/></g><rect x="-979" y="-625" transform="rotate(180)" width="23" height="19" stroke="#000000" stroke-width="0.5" stroke-linecap="butt" opacity="0"/><g stroke="#ffffff" stroke-width="0.5" stroke-linecap="round"><circle cx="530.12958" cy="1016.78864" transform="rotate(-30)" r="20" data-paper-data="{&quot;index&quot;:0}" opacity="0"/><circle cx="550.13038" cy="1016.7891" transform="rotate(-30)" r="20" data-paper-data="{&quot;index&quot;:1}" opacity="0"/><circle cx="540.13038" cy="1034.1096" transform="rotate(-30)" r="20" data-paper-data="{&quot;index&quot;:2}" opacity="0"/><circle cx="520.12958" cy="1034.10914" transform="rotate(-30)" r="20" data-paper-data="{&quot;index&quot;:3}" opacity="0"/><circle cx="510.12878" cy="1016.78818" transform="rotate(-30)" r="20" data-paper-data="{&quot;index&quot;:4}" opacity="0"/><circle cx="520.12878" cy="999.46767" transform="rotate(-30)" r="20" data-paper-data="{&quot;index&quot;:5}" opacity="0"/><circle cx="967.5" cy="615.5" r="1.5" fill="#ffffff"/><circle cx="984.82143" cy="605.5" r="1.5" fill="#ffffff"/><circle cx="984.82143" cy="625.5" r="1.5" fill="#ffffff"/><circle cx="967.5" cy="635.5" r="1.5" fill="#ffffff"/><circle cx="950.17857" cy="625.5" r="1.5" fill="#ffffff"/><circle cx="950.17857" cy="605.5" r="1.5" fill="#ffffff"/><circle cx="967.5" cy="595.5" r="1.5" fill="#ffffff"/><circle cx="1002.14286" cy="615.5" r="1.5" fill="#ffffff"/><circle cx="984.82143" cy="645.5" r="1.5" fill="#ffffff"/><circle cx="950.17857" cy="645.5" r="1.5" fill="#ffffff"/><circle cx="932.85714" cy="615.5" r="1.5" fill="#ffffff"/><circle cx="967.5" cy="620.95455" r="1.5" fill="#ffffff"/></g><rect x="-693" y="-726" transform="rotate(180)" width="23" height="19" stroke="#000000" stroke-width="0.5" stroke-linecap="butt" opacity="0"/><g stroke="#ffffff" stroke-width="0.5" stroke-linecap="round"><circle cx="948.44631" cy="279.7572" transform="rotate(30)" r="20" data-paper-data="{&quot;index&quot;:0}" opacity="0"/><circle cx="968.44711" cy="279.75674" transform="rotate(30)" r="20" data-paper-data="{&quot;index&quot;:1}" opacity="0"/><circle cx="958.44631" cy="297.07771" transform="rotate(30)" r="20" data-paper-data="{&quot;index&quot;:2}" opacity="0"/><circle cx="938.44552" cy="297.07817" transform="rotate(30)" r="20" data-paper-data="{&quot;index&quot;:3}" opacity="0"/><circle cx="928.44552" cy="279.75766" transform="rotate(30)" r="20" data-paper-data="{&quot;index&quot;:4}" opacity="0"/><circle cx="938.44631" cy="262.43669" transform="rotate(30)" r="20" data-paper-data="{&quot;index&quot;:5}" opacity="0"/><circle cx="958.44711" cy="262.43623" transform="rotate(30)" r="20" data-paper-data="{&quot;index&quot;:6}" opacity="0"/><circle cx="681.5" cy="716.5" r="1.5" fill="#ffffff"/><circle cx="698.82143" cy="726.5" r="1.5" fill="#ffffff"/><circle cx="681.5" cy="736.5" r="1.5" fill="#ffffff"/><circle cx="664.17857" cy="726.5" r="1.5" fill="#ffffff"/><circle cx="664.17857" cy="706.5" r="1.5" fill="#ffffff"/><circle cx="681.5" cy="696.5" r="1.5" fill="#ffffff"/><circle cx="698.82143" cy="706.5" r="1.5" fill="#ffffff"/><circle cx="698.82143" cy="746.5" r="1.5" fill="#ffffff"/><circle cx="716.14286" cy="716.5" r="1.5" fill="#ffffff"/><circle cx="664.17857" cy="746.5" r="1.5" fill="#ffffff"/><circle cx="646.85714" cy="716.5" r="1.5" fill="#ffffff"/><circle cx="664.17857" cy="686.5" r="1.5" fill="#ffffff"/><circle cx="698.82143" cy="686.5" r="1.5" fill="#ffffff"/></g><rect x="-836" y="-726" transform="rotate(180)" width="23" height="19" stroke="#000000" stroke-width="0.5" stroke-linecap="butt" opacity="0"/><g stroke="#ffffff" stroke-width="0.5" stroke-linecap="round"><circle cx="1072.28795" cy="208.2572" transform="rotate(30)" r="20" data-paper-data="{&quot;index&quot;:0}" opacity="0"/><circle cx="1092.28874" cy="208.25674" transform="rotate(30)" r="20" data-paper-data="{&quot;index&quot;:1}" opacity="0"/><circle cx="1082.28795" cy="225.57771" transform="rotate(30)" r="20" data-paper-data="{&quot;index&quot;:2}" opacity="0"/><circle cx="1062.28715" cy="225.57817" transform="rotate(30)" r="20" data-paper-data="{&quot;index&quot;:3}" opacity="0"/><circle cx="1052.28715" cy="208.25766" transform="rotate(30)" r="20" data-paper-data="{&quot;index&quot;:4}" opacity="0"/><circle cx="1062.28795" cy="190.93669" transform="rotate(30)" r="20" data-paper-data="{&quot;index&quot;:5}" opacity="0"/><circle cx="1082.28874" cy="190.93623" transform="rotate(30)" r="20" data-paper-data="{&quot;index&quot;:6}" opacity="0"/><circle cx="824.5" cy="716.5" r="1.5" fill="#ffffff"/><circle cx="841.82143" cy="726.5" r="1.5" fill="#ffffff"/><circle cx="824.5" cy="736.5" r="1.5" fill="#ffffff"/><circle cx="807.17857" cy="726.5" r="1.5" fill="#ffffff"/><circle cx="807.17857" cy="706.5" r="1.5" fill="#ffffff"/><circle cx="824.5" cy="696.5" r="1.5" fill="#ffffff"/><circle cx="841.82143" cy="706.5" r="1.5" fill="#ffffff"/><circle cx="841.82143" cy="746.5" r="1.5" fill="#ffffff"/><circle cx="859.14286" cy="716.5" r="1.5" fill="#ffffff"/><circle cx="807.17857" cy="746.5" r="1.5" fill="#ffffff"/><circle cx="789.85714" cy="716.5" r="1.5" fill="#ffffff"/><circle cx="807.17857" cy="686.5" r="1.5" fill="#ffffff"/><circle cx="841.82143" cy="686.5" r="1.5" fill="#ffffff"/><line x1="824.5" y1="716.5" x2="824.5" y2="716.5"/><line x1="841.82143" y1="726.5" x2="824.5" y2="716.5"/><line x1="824.5" y1="736.5" x2="824.5" y2="716.5"/><line x1="807.17857" y1="726.5" x2="824.5" y2="716.5"/><line x1="807.17857" y1="706.5" x2="824.5" y2="716.5"/><line x1="824.5" y1="696.5" x2="824.5" y2="716.5"/><line x1="841.82143" y1="706.5" x2="824.5" y2="716.5"/><line x1="841.82143" y1="746.5" x2="824.5" y2="716.5"/><line x1="859.14286" y1="716.5" x2="824.5" y2="716.5"/><line x1="807.17857" y1="746.5" x2="824.5" y2="716.5"/><line x1="789.85714" y1="716.5" x2="824.5" y2="716.5"/><line x1="807.17857" y1="686.5" x2="824.5" y2="716.5"/><line x1="841.82143" y1="686.5" x2="824.5" y2="716.5"/></g><rect x="-979" y="-726" transform="rotate(180)" width="23" height="19" stroke="#000000" stroke-width="0.5" stroke-linecap="butt" opacity="0"/><g stroke="#ffffff" stroke-width="0.5" stroke-linecap="round"><circle cx="1196.12958" cy="136.7572" transform="rotate(30)" r="20" data-paper-data="{&quot;index&quot;:0}" opacity="0"/><circle cx="1216.13038" cy="136.75674" transform="rotate(30)" r="20" data-paper-data="{&quot;index&quot;:1}" opacity="0"/><circle cx="1206.12958" cy="154.07771" transform="rotate(30)" r="20" data-paper-data="{&quot;index&quot;:2}" opacity="0"/><circle cx="1186.12878" cy="154.07817" transform="rotate(30)" r="20" data-paper-data="{&quot;index&quot;:3}" opacity="0"/><circle cx="1176.12878" cy="136.75766" transform="rotate(30)" r="20" data-paper-data="{&quot;index&quot;:4}" opacity="0"/><circle cx="1186.12958" cy="119.43669" transform="rotate(30)" r="20" data-paper-data="{&quot;index&quot;:5}" opacity="0"/><circle cx="1206.13038" cy="119.43623" transform="rotate(30)" r="20" data-paper-data="{&quot;index&quot;:6}" opacity="0"/><circle cx="967.5" cy="716.5" r="1.5" fill="#ffffff"/><circle cx="984.82143" cy="726.5" r="1.5" fill="#ffffff"/><circle cx="967.5" cy="736.5" r="1.5" fill="#ffffff"/><circle cx="950.17857" cy="726.5" r="1.5" fill="#ffffff"/><circle cx="950.17857" cy="706.5" r="1.5" fill="#ffffff"/><circle cx="967.5" cy="696.5" r="1.5" fill="#ffffff"/><circle cx="984.82143" cy="706.5" r="1.5" fill="#ffffff"/><circle cx="984.82143" cy="746.5" r="1.5" fill="#ffffff"/><circle cx="1002.14286" cy="716.5" r="1.5" fill="#ffffff"/><circle cx="950.17857" cy="746.5" r="1.5" fill="#ffffff"/><circle cx="932.85714" cy="716.5" r="1.5" fill="#ffffff"/><circle cx="950.17857" cy="686.5" r="1.5" fill="#ffffff"/><circle cx="984.82143" cy="686.5" r="1.5" fill="#ffffff"/><circle cx="967.5" cy="716.5" r="1.5" fill="#ffffff"/></g></g></svg>