<svg x="0" y="0" width="3300" height="2550" version="1.1" xmlns="http://www.w3.org/2000/svg" xmlns:xlink="http://www.w3.org/1999/xlink"><g fill="none" stroke="none" stroke-width="none" stroke-linecap="none" stroke-linejoin="miter" stroke-miterlimit="10" stroke-dasharray="none" stroke-dashoffset="0" font-family="none" font-weight="none" font-size="none" text-anchor="start" mix-blend-mode="normal"><polygon points="0,850 0,0 825,0 825,850" stroke="#000000" stroke-width="1" stroke-linecap="butt" stroke-dasharray="1,4" font-family="sans-serif" font-weight="normal" font-size="12"/><text x="382.5" y="169.42857" fill="#000000" stroke-width="1" stroke-linecap="butt" stroke-dasharray="" font-family="Times" font-weight="bold" font-size="120">0</text><path d="M232.5,425c0,-99.41125 80.58875,-180 180,-180c99.41125,0 180,80.58875 180,180c0,99.41125 -80.58875,180 -180,180c-99.41125,0 -180,-80.58875 -180,-180z" stroke="#000000" stroke-width="1" stroke-linecap="butt" stroke-dasharray="2,3" font-family="sans-serif" font-weight="normal" font-size="12"/><polygon points="825,850 825,0 1650,0 1650,850" stroke="#000000" stroke-width="1" stroke-linecap="butt" stroke-dasharray="1,4" font-family="sans-serif" font-weight="normal" font-size="12"/><text x="1207.5" y="169.42857" fill="#000000" stroke-width="1" stroke-linecap="butt" stroke-dasharray="" font-family="Times" font-weight="bold" font-size="120">1</text><path d="M1057.5,425c0,-99.41125 80.58875,-180 180,-180c99.41125,0 180,80.58875 180,180c0,99.41125 -80.58875,180 -180,180c-99.41125,0 -180,-80.58875 -180,-180z" stroke="#000000" stroke-width="1" stroke-linecap="butt" stroke-dasharray="2,3" font-family="sans-serif" font-weight="normal" font-size="12"/><path d="M1219.5,245c0,-9.94113 8.05887,-18 18,-18c9.94113,0 18,8.05887 18,18c0,9.94113 -8.05887,18 -18,18c-9.94113,0 -18,-8.05887 -18,-18z" fill="#000000" stroke-width="1" stroke-linecap="butt" stroke-dasharray="" font-family="sans-serif" font-weight="normal" font-size="12"/><polygon points="1650,850 1650,0 2475,0 2475,850" stroke="#000000" stroke-width="1" stroke-linecap="butt" stroke-dasharray="1,4" font-family="sans-serif" font-weight="normal" font-size="12"/><text x="2032.5" y="169.42857" fill="#000000" stroke-width="1" stroke-linecap="butt" stroke-dasharray="" font-family="Times" font-weight="bold" font-size="120">2</text><path d="M1882.5,425c0,-99.41125 80.58875,-180 180,-180c99.41125,0 180,80.58875 180,180c0,99.41125 -80.58875,180 -180,180c-99.41125,0 -180,-80.58875 -180,-180z" stroke="#000000" stroke-width="1" stroke-linecap="butt" stroke-dasharray="2,3" font-family="sans-serif" font-weight="normal" font-size="12"/><g stroke="#000000" stroke-width="2" stroke-linecap="round" stroke-dasharray="" font-family="sans-serif" font-weight="normal" font-size="12"><line x1="2062.5" y1="245" x2="2062.5" y2="605"/></g><g stroke="#000000" stroke-width="2" stroke-linecap="round" stroke-dasharray="" font-family="sans-serif" font-weight="normal" font-size="12"><line x1="2062.5" y1="674.57143" x2="2062.5" y2="782.57143"/></g><polygon points="2475,850 2475,0 3300,0 3300,850" stroke="#000000" stroke-width="1" stroke-linecap="butt" stroke-dasharray="1,4" font-family="sans-serif" font-weight="normal" font-size="12"/><text x="2857.5" y="169.42857" fill="#000000" stroke-width="1" stroke-linecap="butt" stroke-dasharray="" font-family="Times" font-weight="bold" font-size="120">3</text><path d="M2707.5,425c0,-99.41125 80.58875,-180 180,-180c99.41125,0 180,80.58875 180,180c0,99.41125 -80.58875,180 -180,180c-99.41125,0 -180,-80.58875 -180,-180z" stroke="#000000" stroke-width="1" stroke-linecap="butt" stroke-dasharray="2,3" font-family="sans-serif" font-weight="normal" font-size="12"/><g stroke="#000000" stroke-width="2" stroke-linecap="round" stroke-dasharray="" font-family="sans-serif" font-weight="normal" font-size="12"><line x1="2887.5" y1="245" x2="3043.38457" y2="515"/><line x1="2887.5" y1="245" x2="2731.61543" y2="515"/><line x1="3043.38457" y1="515" x2="2731.61543" y2="515"/></g><g stroke="#000000" stroke-width="2" stroke-linecap="round" stroke-dasharray="" font-family="sans-serif" font-weight="normal" font-size="12"><line x1="2887.5" y1="688.07143" x2="2934.26537" y2="769.07143"/><line x1="2887.5" y1="688.07143" x2="2840.73463" y2="769.07143"/><line x1="2934.26537" y1="769.07143" x2="2840.73463" y2="769.07143"/></g><polygon points="0,1700 0,850 825,850 825,1700" stroke="#000000" stroke-width="1" stroke-linecap="butt" stroke-dasharray="1,4" font-family="sans-serif" font-weight="normal" font-size="12"/><text x="382.5" y="1019.42857" fill="#000000" stroke-width="1" stroke-linecap="butt" stroke-dasharray="" font-family="Times" font-weight="bold" font-size="120">4</text><path d="M232.5,1275c0,-99.41125 80.58875,-180 180,-180c99.41125,0 180,80.58875 180,180c0,99.41125 -80.58875,180 -180,180c-99.41125,0 -180,-80.58875 -180,-180z" stroke="#000000" stroke-width="1" stroke-linecap="butt" stroke-dasharray="2,3" font-family="sans-serif" font-weight="normal" font-size="12"/><g stroke="#000000" stroke-width="2" stroke-linecap="round" stroke-dasharray="" font-family="sans-serif" font-weight="normal" font-size="12"><line x1="412.5" y1="1095" x2="592.5" y2="1275"/><line x1="412.5" y1="1095" x2="232.5" y2="1275"/><line x1="592.5" y1="1275" x2="412.5" y2="1455"/><line x1="412.5" y1="1455" x2="232.5" y2="1275"/></g><g stroke="#000000" stroke-width="2" stroke-linecap="round" stroke-dasharray="" font-family="sans-serif" font-weight="normal" font-size="12"><line x1="117.85714" y1="1524.57143" x2="171.85714" y2="1578.57143"/><line x1="117.85714" y1="1524.57143" x2="63.85714" y2="1578.57143"/><line x1="171.85714" y1="1578.57143" x2="117.85714" y2="1632.57143"/><line x1="117.85714" y1="1632.57143" x2="63.85714" y2="1578.57143"/></g><g stroke="#000000" stroke-width="2" stroke-linecap="round" stroke-dasharray="" font-family="sans-serif" font-weight="normal" font-size="12"><line x1="412.5" y1="1095" x2="412.5" y2="1455"/><line x1="592.5" y1="1275" x2="232.5" y2="1275"/></g><g stroke="#000000" stroke-width="2" stroke-linecap="round" stroke-dasharray="" font-family="sans-serif" font-weight="normal" font-size="12"><line x1="707.14286" y1="1524.57143" x2="707.14286" y2="1632.57143"/><line x1="761.14286" y1="1578.57143" x2="653.14286" y2="1578.57143"/></g><polygon points="825,1700 825,850 1650,850 1650,1700" stroke="#000000" stroke-width="1" stroke-linecap="butt" stroke-dasharray="1,4" font-family="sans-serif" font-weight="normal" font-size="12"/><text x="1207.5" y="1019.42857" fill="#000000" stroke-width="1" stroke-linecap="butt" stroke-dasharray="" font-family="Times" font-weight="bold" font-size="120">5</text><path d="M1057.5,1275c0,-99.41125 80.58875,-180 180,-180c99.41125,0 180,80.58875 180,180c0,99.41125 -80.58875,180 -180,180c-99.41125,0 -180,-80.58875 -180,-180z" stroke="#000000" stroke-width="1" stroke-linecap="butt" stroke-dasharray="2,3" font-family="sans-serif" font-weight="normal" font-size="12"/><g stroke="#000000" stroke-width="2" stroke-linecap="round" stroke-dasharray="" font-family="sans-serif" font-weight="normal" font-size="12"><line x1="1237.5" y1="1095" x2="1408.69017" y2="1219.37694"/><line x1="1237.5" y1="1095" x2="1066.30983" y2="1219.37694"/><line x1="1408.69017" y1="1219.37694" x2="1343.30135" y2="1420.62306"/><line x1="1343.30135" y1="1420.62306" x2="1131.69865" y2="1420.62306"/><line x1="1131.69865" y1="1420.62306" x2="1066.30983" y2="1219.37694"/></g><g stroke="#000000" stroke-width="2" stroke-linecap="round" stroke-dasharray="" font-family="sans-serif" font-weight="normal" font-size="12"><line x1="942.85714" y1="1529.72797" x2="994.21419" y2="1567.04105"/><line x1="942.85714" y1="1529.72797" x2="891.50009" y2="1567.04105"/><line x1="994.21419" y1="1567.04105" x2="974.59755" y2="1627.41489"/><line x1="974.59755" y1="1627.41489" x2="911.11674" y2="1627.41489"/><line x1="911.11674" y1="1627.41489" x2="891.50009" y2="1567.04105"/></g><g stroke="#000000" stroke-width="2" stroke-linecap="round" stroke-dasharray="" font-family="sans-serif" font-weight="normal" font-size="12"><line x1="1237.5" y1="1095" x2="1343.30135" y2="1420.62306"/><line x1="1237.5" y1="1095" x2="1131.69865" y2="1420.62306"/><line x1="1408.69017" y1="1219.37694" x2="1131.69865" y2="1420.62306"/><line x1="1408.69017" y1="1219.37694" x2="1066.30983" y2="1219.37694"/><line x1="1343.30135" y1="1420.62306" x2="1066.30983" y2="1219.37694"/></g><g stroke="#000000" stroke-width="2" stroke-linecap="round" stroke-dasharray="" font-family="sans-serif" font-weight="normal" font-size="12"><line x1="1532.14286" y1="1529.72797" x2="1563.88326" y2="1627.41489"/><line x1="1532.14286" y1="1529.72797" x2="1500.40245" y2="1627.41489"/><line x1="1583.49991" y1="1567.04105" x2="1500.40245" y2="1627.41489"/><line x1="1583.49991" y1="1567.04105" x2="1480.78581" y2="1567.04105"/><line x1="1563.88326" y1="1627.41489" x2="1480.78581" y2="1567.04105"/></g><polygon points="1650,1700 1650,850 2475,850 2475,1700" stroke="#000000" stroke-width="1" stroke-linecap="butt" stroke-dasharray="1,4" font-family="sans-serif" font-weight="normal" font-size="12"/><text x="2032.5" y="1019.42857" fill="#000000" stroke-width="1" stroke-linecap="butt" stroke-dasharray="" font-family="Times" font-weight="bold" font-size="120">6</text><path d="M1882.5,1275c0,-99.41125 80.58875,-180 180,-180c99.41125,0 180,80.58875 180,180c0,99.41125 -80.58875,180 -180,180c-99.41125,0 -180,-80.58875 -180,-180z" stroke="#000000" stroke-width="1" stroke-linecap="butt" stroke-dasharray="2,3" font-family="sans-serif" font-weight="normal" font-size="12"/><g stroke="#000000" stroke-width="2" stroke-linecap="round" stroke-dasharray="" font-family="sans-serif" font-weight="normal" font-size="12"><line x1="2062.5" y1="1095" x2="2218.38457" y2="1185"/><line x1="2062.5" y1="1095" x2="1906.61543" y2="1185"/><line x1="2218.38457" y1="1185" x2="2218.38457" y2="1365"/><line x1="2218.38457" y1="1365" x2="2062.5" y2="1455"/><line x1="2062.5" y1="1455" x2="1906.61543" y2="1365"/><line x1="1906.61543" y1="1365" x2="1906.61543" y2="1185"/></g><g stroke="#000000" stroke-width="2" stroke-linecap="round" stroke-dasharray="" font-family="sans-serif" font-weight="normal" font-size="12"><line x1="1767.85714" y1="1524.57143" x2="1814.62251" y2="1551.57143"/><line x1="1767.85714" y1="1524.57143" x2="1721.09177" y2="1551.57143"/><line x1="1814.62251" y1="1551.57143" x2="1814.62251" y2="1605.57143"/><line x1="1814.62251" y1="1605.57143" x2="1767.85714" y2="1632.57143"/><line x1="1767.85714" y1="1632.57143" x2="1721.09177" y2="1605.57143"/><line x1="1721.09177" y1="1605.57143" x2="1721.09177" y2="1551.57143"/></g><g stroke="#000000" stroke-width="2" stroke-linecap="round" stroke-dasharray="" font-family="sans-serif" font-weight="normal" font-size="12"><line x1="2062.5" y1="1095" x2="2218.38457" y2="1365"/><line x1="2062.5" y1="1095" x2="1906.61543" y2="1365"/><line x1="2218.38457" y1="1185" x2="2062.5" y2="1455"/><line x1="2218.38457" y1="1185" x2="1906.61543" y2="1185"/><line x1="2218.38457" y1="1365" x2="1906.61543" y2="1365"/><line x1="2062.5" y1="1455" x2="1906.61543" y2="1185"/></g><g stroke="#000000" stroke-width="2" stroke-linecap="round" stroke-dasharray="" font-family="sans-serif" font-weight="normal" font-size="12"><line x1="2062.5" y1="1524.57143" x2="2109.26537" y2="1605.57143"/><line x1="2062.5" y1="1524.57143" x2="2015.73463" y2="1605.57143"/><line x1="2109.26537" y1="1551.57143" x2="2062.5" y2="1632.57143"/><line x1="2109.26537" y1="1551.57143" x2="2015.73463" y2="1551.57143"/><line x1="2109.26537" y1="1605.57143" x2="2015.73463" y2="1605.57143"/><line x1="2062.5" y1="1632.57143" x2="2015.73463" y2="1551.57143"/></g><g stroke="#000000" stroke-width="2" stroke-linecap="round" stroke-dasharray="" font-family="sans-serif" font-weight="normal" font-size="12"><line x1="2062.5" y1="1095" x2="2062.5" y2="1455"/><line x1="2218.38457" y1="1185" x2="1906.61543" y2="1365"/><line x1="2218.38457" y1="1365" x2="1906.61543" y2="1185"/></g><g stroke="#000000" stroke-width="2" stroke-linecap="round" stroke-dasharray="" font-family="sans-serif" font-weight="normal" font-size="12"><line x1="2357.14286" y1="1524.57143" x2="2357.14286" y2="1632.57143"/><line x1="2403.90823" y1="1551.57143" x2="2310.37749" y2="1605.57143"/><line x1="2403.90823" y1="1605.57143" x2="2310.37749" y2="1551.57143"/></g><polygon points="2475,1700 2475,850 3300,850 3300,1700" stroke="#000000" stroke-width="1" stroke-linecap="butt" stroke-dasharray="1,4" font-family="sans-serif" font-weight="normal" font-size="12"/><text x="2857.5" y="1019.42857" fill="#000000" stroke-width="1" stroke-linecap="butt" stroke-dasharray="" font-family="Times" font-weight="bold" font-size="120">7</text><path d="M2707.5,1275c0,-99.41125 80.58875,-180 180,-180c99.41125,0 180,80.58875 180,180c0,99.41125 -80.58875,180 -180,180c-99.41125,0 -180,-80.58875 -180,-180z" stroke="#000000" stroke-width="1" stroke-linecap="butt" stroke-dasharray="2,3" font-family="sans-serif" font-weight="normal" font-size="12"/><g stroke="#000000" stroke-width="2" stroke-linecap="round" stroke-dasharray="" font-family="sans-serif" font-weight="normal" font-size="12"><line x1="2887.5" y1="1095" x2="3028.22967" y2="1162.77184"/><line x1="2887.5" y1="1095" x2="2746.77033" y2="1162.77184"/><line x1="3028.22967" y1="1162.77184" x2="3062.98702" y2="1315.05377"/><line x1="3062.98702" y1="1315.05377" x2="2965.59907" y2="1437.1744"/><line x1="2965.59907" y1="1437.1744" x2="2809.40093" y2="1437.1744"/><line x1="2809.40093" y1="1437.1744" x2="2712.01298" y2="1315.05377"/><line x1="2712.01298" y1="1315.05377" x2="2746.77033" y2="1162.77184"/></g><g stroke="#000000" stroke-width="2" stroke-linecap="round" stroke-dasharray="" font-family="sans-serif" font-weight="normal" font-size="12"><line x1="2592.85714" y1="1527.24527" x2="2635.07604" y2="1547.57682"/><line x1="2592.85714" y1="1527.24527" x2="2550.63824" y2="1547.57682"/><line x1="2635.07604" y1="1547.57682" x2="2645.50325" y2="1593.2614"/><line x1="2645.50325" y1="1593.2614" x2="2616.28686" y2="1629.89759"/><line x1="2616.28686" y1="1629.89759" x2="2569.42742" y2="1629.89759"/><line x1="2569.42742" y1="1629.89759" x2="2540.21104" y2="1593.2614"/><line x1="2540.21104" y1="1593.2614" x2="2550.63824" y2="1547.57682"/></g><g stroke="#000000" stroke-width="2" stroke-linecap="round" stroke-dasharray="" font-family="sans-serif" font-weight="normal" font-size="12"><line x1="2887.5" y1="1095" x2="3062.98702" y2="1315.05377"/><line x1="2887.5" y1="1095" x2="2712.01298" y2="1315.05377"/><line x1="3028.22967" y1="1162.77184" x2="2965.59907" y2="1437.1744"/><line x1="3028.22967" y1="1162.77184" x2="2746.77033" y2="1162.77184"/><line x1="3062.98702" y1="1315.05377" x2="2809.40093" y2="1437.1744"/><line x1="2965.59907" y1="1437.1744" x2="2712.01298" y2="1315.05377"/><line x1="2809.40093" y1="1437.1744" x2="2746.77033" y2="1162.77184"/></g><g stroke="#000000" stroke-width="2" stroke-linecap="round" stroke-dasharray="" font-family="sans-serif" font-weight="normal" font-size="12"><line x1="2887.5" y1="1527.24527" x2="2940.14611" y2="1593.2614"/><line x1="2887.5" y1="1527.24527" x2="2834.85389" y2="1593.2614"/><line x1="2929.7189" y1="1547.57682" x2="2910.92972" y2="1629.89759"/><line x1="2929.7189" y1="1547.57682" x2="2845.2811" y2="1547.57682"/><line x1="2940.14611" y1="1593.2614" x2="2864.07028" y2="1629.89759"/><line x1="2910.92972" y1="1629.89759" x2="2834.85389" y2="1593.2614"/><line x1="2864.07028" y1="1629.89759" x2="2845.2811" y2="1547.57682"/></g><g stroke="#000000" stroke-width="2" stroke-linecap="round" stroke-dasharray="" font-family="sans-serif" font-weight="normal" font-size="12"><line x1="2887.5" y1="1095" x2="2965.59907" y2="1437.1744"/><line x1="2887.5" y1="1095" x2="2809.40093" y2="1437.1744"/><line x1="3028.22967" y1="1162.77184" x2="2809.40093" y2="1437.1744"/><line x1="3028.22967" y1="1162.77184" x2="2712.01298" y2="1315.05377"/><line x1="3062.98702" y1="1315.05377" x2="2712.01298" y2="1315.05377"/><line x1="3062.98702" y1="1315.05377" x2="2746.77033" y2="1162.77184"/><line x1="2965.59907" y1="1437.1744" x2="2746.77033" y2="1162.77184"/></g><g stroke="#000000" stroke-width="2" stroke-linecap="round" stroke-dasharray="" font-family="sans-serif" font-weight="normal" font-size="12"><line x1="3182.14286" y1="1527.24527" x2="3205.57258" y2="1629.89759"/><line x1="3182.14286" y1="1527.24527" x2="3158.71314" y2="1629.89759"/><line x1="3224.36176" y1="1547.57682" x2="3158.71314" y2="1629.89759"/><line x1="3224.36176" y1="1547.57682" x2="3129.49675" y2="1593.2614"/><line x1="3234.78896" y1="1593.2614" x2="3129.49675" y2="1593.2614"/><line x1="3234.78896" y1="1593.2614" x2="3139.92396" y2="1547.57682"/><line x1="3205.57258" y1="1629.89759" x2="3139.92396" y2="1547.57682"/></g><polygon points="0,2550 0,1700 825,1700 825,2550" stroke="#000000" stroke-width="1" stroke-linecap="butt" stroke-dasharray="1,4" font-family="sans-serif" font-weight="normal" font-size="12"/><text x="382.5" y="1869.42857" fill="#000000" stroke-width="1" stroke-linecap="butt" stroke-dasharray="" font-family="Times" font-weight="bold" font-size="120">8</text><path d="M232.5,2125c0,-99.41125 80.58875,-180 180,-180c99.41125,0 180,80.58875 180,180c0,99.41125 -80.58875,180 -180,180c-99.41125,0 -180,-80.58875 -180,-180z" stroke="#000000" stroke-width="1" stroke-linecap="butt" stroke-dasharray="2,3" font-family="sans-serif" font-weight="normal" font-size="12"/><g stroke="#000000" stroke-width="2" stroke-linecap="round" stroke-dasharray="" font-family="sans-serif" font-weight="normal" font-size="12"><line x1="412.5" y1="1945" x2="539.77922" y2="1997.72078"/><line x1="412.5" y1="1945" x2="285.22078" y2="1997.72078"/><line x1="539.77922" y1="1997.72078" x2="592.5" y2="2125"/><line x1="592.5" y1="2125" x2="539.77922" y2="2252.27922"/><line x1="539.77922" y1="2252.27922" x2="412.5" y2="2305"/><line x1="412.5" y1="2305" x2="285.22078" y2="2252.27922"/><line x1="285.22078" y1="2252.27922" x2="232.5" y2="2125"/><line x1="232.5" y1="2125" x2="285.22078" y2="1997.72078"/></g><g stroke="#000000" stroke-width="2" stroke-linecap="round" stroke-dasharray="" font-family="sans-serif" font-weight="normal" font-size="12"><line x1="117.85714" y1="2374.57143" x2="156.04091" y2="2390.38766"/><line x1="117.85714" y1="2374.57143" x2="79.67338" y2="2390.38766"/><line x1="156.04091" y1="2390.38766" x2="171.85714" y2="2428.57143"/><line x1="171.85714" y1="2428.57143" x2="156.04091" y2="2466.75519"/><line x1="156.04091" y1="2466.75519" x2="117.85714" y2="2482.57143"/><line x1="117.85714" y1="2482.57143" x2="79.67338" y2="2466.75519"/><line x1="79.67338" y1="2466.75519" x2="63.85714" y2="2428.57143"/><line x1="63.85714" y1="2428.57143" x2="79.67338" y2="2390.38766"/></g><g stroke="#000000" stroke-width="2" stroke-linecap="round" stroke-dasharray="" font-family="sans-serif" font-weight="normal" font-size="12"><line x1="412.5" y1="1945" x2="592.5" y2="2125"/><line x1="412.5" y1="1945" x2="232.5" y2="2125"/><line x1="539.77922" y1="1997.72078" x2="539.77922" y2="2252.27922"/><line x1="539.77922" y1="1997.72078" x2="285.22078" y2="1997.72078"/><line x1="592.5" y1="2125" x2="412.5" y2="2305"/><line x1="539.77922" y1="2252.27922" x2="285.22078" y2="2252.27922"/><line x1="412.5" y1="2305" x2="232.5" y2="2125"/><line x1="285.22078" y1="2252.27922" x2="285.22078" y2="1997.72078"/></g><g stroke="#000000" stroke-width="2" stroke-linecap="round" stroke-dasharray="" font-family="sans-serif" font-weight="normal" font-size="12"><line x1="314.28571" y1="2374.57143" x2="368.28571" y2="2428.57143"/><line x1="314.28571" y1="2374.57143" x2="260.28571" y2="2428.57143"/><line x1="352.46948" y1="2390.38766" x2="352.46948" y2="2466.75519"/><line x1="352.46948" y1="2390.38766" x2="276.10195" y2="2390.38766"/><line x1="368.28571" y1="2428.57143" x2="314.28571" y2="2482.57143"/><line x1="352.46948" y1="2466.75519" x2="276.10195" y2="2466.75519"/><line x1="314.28571" y1="2482.57143" x2="260.28571" y2="2428.57143"/><line x1="276.10195" y1="2466.75519" x2="276.10195" y2="2390.38766"/></g><g stroke="#000000" stroke-width="2" stroke-linecap="round" stroke-dasharray="" font-family="sans-serif" font-weight="normal" font-size="12"><line x1="412.5" y1="1945" x2="539.77922" y2="2252.27922"/><line x1="412.5" y1="1945" x2="285.22078" y2="2252.27922"/><line x1="539.77922" y1="1997.72078" x2="412.5" y2="2305"/><line x1="539.77922" y1="1997.72078" x2="232.5" y2="2125"/><line x1="592.5" y1="2125" x2="285.22078" y2="2252.27922"/><line x1="592.5" y1="2125" x2="285.22078" y2="1997.72078"/><line x1="539.77922" y1="2252.27922" x2="232.5" y2="2125"/><line x1="412.5" y1="2305" x2="285.22078" y2="1997.72078"/></g><g stroke="#000000" stroke-width="2" stroke-linecap="round" stroke-dasharray="" font-family="sans-serif" font-weight="normal" font-size="12"><line x1="510.71429" y1="2374.57143" x2="548.89805" y2="2466.75519"/><line x1="510.71429" y1="2374.57143" x2="472.53052" y2="2466.75519"/><line x1="548.89805" y1="2390.38766" x2="510.71429" y2="2482.57143"/><line x1="548.89805" y1="2390.38766" x2="456.71429" y2="2428.57143"/><line x1="564.71429" y1="2428.57143" x2="472.53052" y2="2466.75519"/><line x1="564.71429" y1="2428.57143" x2="472.53052" y2="2390.38766"/><line x1="548.89805" y1="2466.75519" x2="456.71429" y2="2428.57143"/><line x1="510.71429" y1="2482.57143" x2="472.53052" y2="2390.38766"/></g><g stroke="#000000" stroke-width="2" stroke-linecap="round" stroke-dasharray="" font-family="sans-serif" font-weight="normal" font-size="12"><line x1="412.5" y1="1945" x2="412.5" y2="2305"/><line x1="539.77922" y1="1997.72078" x2="285.22078" y2="2252.27922"/><line x1="592.5" y1="2125" x2="232.5" y2="2125"/><line x1="539.77922" y1="2252.27922" x2="285.22078" y2="1997.72078"/></g><g stroke="#000000" stroke-width="2" stroke-linecap="round" stroke-dasharray="" font-family="sans-serif" font-weight="normal" font-size="12"><line x1="707.14286" y1="2374.57143" x2="707.14286" y2="2482.57143"/><line x1="745.32662" y1="2390.38766" x2="668.95909" y2="2466.75519"/><line x1="761.14286" y1="2428.57143" x2="653.14286" y2="2428.57143"/><line x1="745.32662" y1="2466.75519" x2="668.95909" y2="2390.38766"/></g><polygon points="825,2550 825,1700 1650,1700 1650,2550" stroke="#000000" stroke-width="1" stroke-linecap="butt" stroke-dasharray="1,4" font-family="sans-serif" font-weight="normal" font-size="12"/><text x="1207.5" y="1869.42857" fill="#000000" stroke-width="1" stroke-linecap="butt" stroke-dasharray="" font-family="Times" font-weight="bold" font-size="120">9</text><path d="M1057.5,2125c0,-99.41125 80.58875,-180 180,-180c99.41125,0 180,80.58875 180,180c0,99.41125 -80.58875,180 -180,180c-99.41125,0 -180,-80.58875 -180,-180z" stroke="#000000" stroke-width="1" stroke-linecap="butt" stroke-dasharray="2,3" font-family="sans-serif" font-weight="normal" font-size="12"/><g stroke="#000000" stroke-width="2" stroke-linecap="round" stroke-dasharray="" font-family="sans-serif" font-weight="normal" font-size="12"><line x1="1237.5" y1="1945" x2="1353.20177" y2="1987.112"/><line x1="1237.5" y1="1945" x2="1121.79823" y2="1987.112"/><line x1="1353.20177" y1="1987.112" x2="1414.7654" y2="2093.74333"/><line x1="1414.7654" y1="2093.74333" x2="1393.38457" y2="2215"/><line x1="1393.38457" y1="2215" x2="1299.06363" y2="2294.14467"/><line x1="1299.06363" y1="2294.14467" x2="1175.93637" y2="2294.14467"/><line x1="1175.93637" y1="2294.14467" x2="1081.61543" y2="2215"/><line x1="1081.61543" y1="2215" x2="1060.2346" y2="2093.74333"/><line x1="1060.2346" y1="2093.74333" x2="1121.79823" y2="1987.112"/></g><g stroke="#000000" stroke-width="2" stroke-linecap="round" stroke-dasharray="" font-family="sans-serif" font-weight="normal" font-size="12"><line x1="942.85714" y1="2376.19973" x2="977.56767" y2="2388.83333"/><line x1="942.85714" y1="2376.19973" x2="908.14661" y2="2388.83333"/><line x1="977.56767" y1="2388.83333" x2="996.03676" y2="2420.82273"/><line x1="996.03676" y1="2420.82273" x2="989.62251" y2="2457.19973"/><line x1="989.62251" y1="2457.19973" x2="961.32623" y2="2480.94313"/><line x1="961.32623" y1="2480.94313" x2="924.38806" y2="2480.94313"/><line x1="924.38806" y1="2480.94313" x2="896.09177" y2="2457.19973"/><line x1="896.09177" y1="2457.19973" x2="889.67752" y2="2420.82273"/><line x1="889.67752" y1="2420.82273" x2="908.14661" y2="2388.83333"/></g><g stroke="#000000" stroke-width="2" stroke-linecap="round" stroke-dasharray="" font-family="sans-serif" font-weight="normal" font-size="12"><line x1="1237.5" y1="1945" x2="1414.7654" y2="2093.74333"/><line x1="1237.5" y1="1945" x2="1060.2346" y2="2093.74333"/><line x1="1353.20177" y1="1987.112" x2="1393.38457" y2="2215"/><line x1="1353.20177" y1="1987.112" x2="1121.79823" y2="1987.112"/><line x1="1414.7654" y1="2093.74333" x2="1299.06363" y2="2294.14467"/><line x1="1393.38457" y1="2215" x2="1175.93637" y2="2294.14467"/><line x1="1299.06363" y1="2294.14467" x2="1081.61543" y2="2215"/><line x1="1175.93637" y1="2294.14467" x2="1060.2346" y2="2093.74333"/><line x1="1081.61543" y1="2215" x2="1121.79823" y2="1987.112"/></g><g stroke="#000000" stroke-width="2" stroke-linecap="round" stroke-dasharray="" font-family="sans-serif" font-weight="normal" font-size="12"><line x1="1139.28571" y1="2376.19973" x2="1192.46533" y2="2420.82273"/><line x1="1139.28571" y1="2376.19973" x2="1086.1061" y2="2420.82273"/><line x1="1173.99625" y1="2388.83333" x2="1186.05109" y2="2457.19973"/><line x1="1173.99625" y1="2388.83333" x2="1104.57518" y2="2388.83333"/><line x1="1192.46533" y1="2420.82273" x2="1157.7548" y2="2480.94313"/><line x1="1186.05109" y1="2457.19973" x2="1120.81663" y2="2480.94313"/><line x1="1157.7548" y1="2480.94313" x2="1092.52034" y2="2457.19973"/><line x1="1120.81663" y1="2480.94313" x2="1086.1061" y2="2420.82273"/><line x1="1092.52034" y1="2457.19973" x2="1104.57518" y2="2388.83333"/></g><g stroke="#000000" stroke-width="2" stroke-linecap="round" stroke-dasharray="" font-family="sans-serif" font-weight="normal" font-size="12"><line x1="1237.5" y1="1945" x2="1393.38457" y2="2215"/><line x1="1237.5" y1="1945" x2="1081.61543" y2="2215"/><line x1="1353.20177" y1="1987.112" x2="1299.06363" y2="2294.14467"/><line x1="1353.20177" y1="1987.112" x2="1060.2346" y2="2093.74333"/><line x1="1414.7654" y1="2093.74333" x2="1175.93637" y2="2294.14467"/><line x1="1414.7654" y1="2093.74333" x2="1121.79823" y2="1987.112"/><line x1="1393.38457" y1="2215" x2="1081.61543" y2="2215"/><line x1="1299.06363" y1="2294.14467" x2="1060.2346" y2="2093.74333"/><line x1="1175.93637" y1="2294.14467" x2="1121.79823" y2="1987.112"/></g><g stroke="#000000" stroke-width="2" stroke-linecap="round" stroke-dasharray="" font-family="sans-serif" font-weight="normal" font-size="12"><line x1="1335.71429" y1="2376.19973" x2="1382.47966" y2="2457.19973"/><line x1="1335.71429" y1="2376.19973" x2="1288.94891" y2="2457.19973"/><line x1="1370.42482" y1="2388.83333" x2="1354.18337" y2="2480.94313"/><line x1="1370.42482" y1="2388.83333" x2="1282.53467" y2="2420.82273"/><line x1="1388.8939" y1="2420.82273" x2="1317.2452" y2="2480.94313"/><line x1="1388.8939" y1="2420.82273" x2="1301.00375" y2="2388.83333"/><line x1="1382.47966" y1="2457.19973" x2="1288.94891" y2="2457.19973"/><line x1="1354.18337" y1="2480.94313" x2="1282.53467" y2="2420.82273"/><line x1="1317.2452" y1="2480.94313" x2="1301.00375" y2="2388.83333"/></g><g stroke="#000000" stroke-width="2" stroke-linecap="round" stroke-dasharray="" font-family="sans-serif" font-weight="normal" font-size="12"><line x1="1237.5" y1="1945" x2="1299.06363" y2="2294.14467"/><line x1="1237.5" y1="1945" x2="1175.93637" y2="2294.14467"/><line x1="1353.20177" y1="1987.112" x2="1175.93637" y2="2294.14467"/><line x1="1353.20177" y1="1987.112" x2="1081.61543" y2="2215"/><line x1="1414.7654" y1="2093.74333" x2="1081.61543" y2="2215"/><line x1="1414.7654" y1="2093.74333" x2="1060.2346" y2="2093.74333"/><line x1="1393.38457" y1="2215" x2="1060.2346" y2="2093.74333"/><line x1="1393.38457" y1="2215" x2="1121.79823" y2="1987.112"/><line x1="1299.06363" y1="2294.14467" x2="1121.79823" y2="1987.112"/></g><g stroke="#000000" stroke-width="2" stroke-linecap="round" stroke-dasharray="" font-family="sans-serif" font-weight="normal" font-size="12"><line x1="1532.14286" y1="2376.19973" x2="1550.61194" y2="2480.94313"/><line x1="1532.14286" y1="2376.19973" x2="1513.67377" y2="2480.94313"/><line x1="1566.85339" y1="2388.83333" x2="1513.67377" y2="2480.94313"/><line x1="1566.85339" y1="2388.83333" x2="1485.37749" y2="2457.19973"/><line x1="1585.32248" y1="2420.82273" x2="1485.37749" y2="2457.19973"/><line x1="1585.32248" y1="2420.82273" x2="1478.96324" y2="2420.82273"/><line x1="1578.90823" y1="2457.19973" x2="1478.96324" y2="2420.82273"/><line x1="1578.90823" y1="2457.19973" x2="1497.43233" y2="2388.83333"/><line x1="1550.61194" y1="2480.94313" x2="1497.43233" y2="2388.83333"/></g><polygon points="1650,2550 1650,1700 2475,1700 2475,2550" stroke="#000000" stroke-width="1" stroke-linecap="butt" stroke-dasharray="1,4" font-family="sans-serif" font-weight="normal" font-size="12"/><text x="2002.5" y="1869.42857" fill="#000000" stroke-width="1" stroke-linecap="butt" stroke-dasharray="" font-family="Times" font-weight="bold" font-size="120">10</text><path d="M1882.5,2125c0,-99.41125 80.58875,-180 180,-180c99.41125,0 180,80.58875 180,180c0,99.41125 -80.58875,180 -180,180c-99.41125,0 -180,-80.58875 -180,-180z" stroke="#000000" stroke-width="1" stroke-linecap="butt" stroke-dasharray="2,3" font-family="sans-serif" font-weight="normal" font-size="12"/><g stroke="#000000" stroke-width="2" stroke-linecap="round" stroke-dasharray="" font-family="sans-serif" font-weight="normal" font-size="12"><line x1="2062.5" y1="1945" x2="2168.30135" y2="1979.37694"/><line x1="2062.5" y1="1945" x2="1956.69865" y2="1979.37694"/><line x1="2168.30135" y1="1979.37694" x2="2233.69017" y2="2069.37694"/><line x1="2233.69017" y1="2069.37694" x2="2233.69017" y2="2180.62306"/><line x1="2233.69017" y1="2180.62306" x2="2168.30135" y2="2270.62306"/><line x1="2168.30135" y1="2270.62306" x2="2062.5" y2="2305"/><line x1="2062.5" y1="2305" x2="1956.69865" y2="2270.62306"/><line x1="1956.69865" y1="2270.62306" x2="1891.30983" y2="2180.62306"/><line x1="1891.30983" y1="2180.62306" x2="1891.30983" y2="2069.37694"/><line x1="1891.30983" y1="2069.37694" x2="1956.69865" y2="1979.37694"/></g><g stroke="#000000" stroke-width="2" stroke-linecap="round" stroke-dasharray="" font-family="sans-serif" font-weight="normal" font-size="12"><line x1="1767.85714" y1="2374.57143" x2="1799.59755" y2="2384.88451"/><line x1="1767.85714" y1="2374.57143" x2="1736.11674" y2="2384.88451"/><line x1="1799.59755" y1="2384.88451" x2="1819.21419" y2="2411.88451"/><line x1="1819.21419" y1="2411.88451" x2="1819.21419" y2="2445.25835"/><line x1="1819.21419" y1="2445.25835" x2="1799.59755" y2="2472.25835"/><line x1="1799.59755" y1="2472.25835" x2="1767.85714" y2="2482.57143"/><line x1="1767.85714" y1="2482.57143" x2="1736.11674" y2="2472.25835"/><line x1="1736.11674" y1="2472.25835" x2="1716.50009" y2="2445.25835"/><line x1="1716.50009" y1="2445.25835" x2="1716.50009" y2="2411.88451"/><line x1="1716.50009" y1="2411.88451" x2="1736.11674" y2="2384.88451"/></g><g stroke="#000000" stroke-width="2" stroke-linecap="round" stroke-dasharray="" font-family="sans-serif" font-weight="normal" font-size="12"><line x1="2062.5" y1="1945" x2="2233.69017" y2="2069.37694"/><line x1="2062.5" y1="1945" x2="1891.30983" y2="2069.37694"/><line x1="2168.30135" y1="1979.37694" x2="2233.69017" y2="2180.62306"/><line x1="2168.30135" y1="1979.37694" x2="1956.69865" y2="1979.37694"/><line x1="2233.69017" y1="2069.37694" x2="2168.30135" y2="2270.62306"/><line x1="2233.69017" y1="2180.62306" x2="2062.5" y2="2305"/><line x1="2168.30135" y1="2270.62306" x2="1956.69865" y2="2270.62306"/><line x1="2062.5" y1="2305" x2="1891.30983" y2="2180.62306"/><line x1="1956.69865" y1="2270.62306" x2="1891.30983" y2="2069.37694"/><line x1="1891.30983" y1="2180.62306" x2="1956.69865" y2="1979.37694"/></g><g stroke="#000000" stroke-width="2" stroke-linecap="round" stroke-dasharray="" font-family="sans-serif" font-weight="normal" font-size="12"><line x1="1915.17857" y1="2374.57143" x2="1966.53562" y2="2411.88451"/><line x1="1915.17857" y1="2374.57143" x2="1863.82152" y2="2411.88451"/><line x1="1946.91898" y1="2384.88451" x2="1966.53562" y2="2445.25835"/><line x1="1946.91898" y1="2384.88451" x2="1883.43817" y2="2384.88451"/><line x1="1966.53562" y1="2411.88451" x2="1946.91898" y2="2472.25835"/><line x1="1966.53562" y1="2445.25835" x2="1915.17857" y2="2482.57143"/><line x1="1946.91898" y1="2472.25835" x2="1883.43817" y2="2472.25835"/><line x1="1915.17857" y1="2482.57143" x2="1863.82152" y2="2445.25835"/><line x1="1883.43817" y1="2472.25835" x2="1863.82152" y2="2411.88451"/><line x1="1863.82152" y1="2445.25835" x2="1883.43817" y2="2384.88451"/></g><g stroke="#000000" stroke-width="2" stroke-linecap="round" stroke-dasharray="" font-family="sans-serif" font-weight="normal" font-size="12"><line x1="2062.5" y1="1945" x2="2233.69017" y2="2180.62306"/><line x1="2062.5" y1="1945" x2="1891.30983" y2="2180.62306"/><line x1="2168.30135" y1="1979.37694" x2="2168.30135" y2="2270.62306"/><line x1="2168.30135" y1="1979.37694" x2="1891.30983" y2="2069.37694"/><line x1="2233.69017" y1="2069.37694" x2="2062.5" y2="2305"/><line x1="2233.69017" y1="2069.37694" x2="1956.69865" y2="1979.37694"/><line x1="2233.69017" y1="2180.62306" x2="1956.69865" y2="2270.62306"/><line x1="2168.30135" y1="2270.62306" x2="1891.30983" y2="2180.62306"/><line x1="2062.5" y1="2305" x2="1891.30983" y2="2069.37694"/><line x1="1956.69865" y1="2270.62306" x2="1956.69865" y2="1979.37694"/></g><g stroke="#000000" stroke-width="2" stroke-linecap="round" stroke-dasharray="" font-family="sans-serif" font-weight="normal" font-size="12"><line x1="2062.5" y1="2374.57143" x2="2113.85705" y2="2445.25835"/><line x1="2062.5" y1="2374.57143" x2="2011.14295" y2="2445.25835"/><line x1="2094.2404" y1="2384.88451" x2="2094.2404" y2="2472.25835"/><line x1="2094.2404" y1="2384.88451" x2="2011.14295" y2="2411.88451"/><line x1="2113.85705" y1="2411.88451" x2="2062.5" y2="2482.57143"/><line x1="2113.85705" y1="2411.88451" x2="2030.7596" y2="2384.88451"/><line x1="2113.85705" y1="2445.25835" x2="2030.7596" y2="2472.25835"/><line x1="2094.2404" y1="2472.25835" x2="2011.14295" y2="2445.25835"/><line x1="2062.5" y1="2482.57143" x2="2011.14295" y2="2411.88451"/><line x1="2030.7596" y1="2472.25835" x2="2030.7596" y2="2384.88451"/></g><g stroke="#000000" stroke-width="2" stroke-linecap="round" stroke-dasharray="" font-family="sans-serif" font-weight="normal" font-size="12"><line x1="2062.5" y1="1945" x2="2168.30135" y2="2270.62306"/><line x1="2062.5" y1="1945" x2="1956.69865" y2="2270.62306"/><line x1="2168.30135" y1="1979.37694" x2="2062.5" y2="2305"/><line x1="2168.30135" y1="1979.37694" x2="1891.30983" y2="2180.62306"/><line x1="2233.69017" y1="2069.37694" x2="1956.69865" y2="2270.62306"/><line x1="2233.69017" y1="2069.37694" x2="1891.30983" y2="2069.37694"/><line x1="2233.69017" y1="2180.62306" x2="1891.30983" y2="2180.62306"/><line x1="2233.69017" y1="2180.62306" x2="1956.69865" y2="1979.37694"/><line x1="2168.30135" y1="2270.62306" x2="1891.30983" y2="2069.37694"/><line x1="2062.5" y1="2305" x2="1956.69865" y2="1979.37694"/></g><g stroke="#000000" stroke-width="2" stroke-linecap="round" stroke-dasharray="" font-family="sans-serif" font-weight="normal" font-size="12"><line x1="2209.82143" y1="2374.57143" x2="2241.56183" y2="2472.25835"/><line x1="2209.82143" y1="2374.57143" x2="2178.08102" y2="2472.25835"/><line x1="2241.56183" y1="2384.88451" x2="2209.82143" y2="2482.57143"/><line x1="2241.56183" y1="2384.88451" x2="2158.46438" y2="2445.25835"/><line x1="2261.17848" y1="2411.88451" x2="2178.08102" y2="2472.25835"/><line x1="2261.17848" y1="2411.88451" x2="2158.46438" y2="2411.88451"/><line x1="2261.17848" y1="2445.25835" x2="2158.46438" y2="2445.25835"/><line x1="2261.17848" y1="2445.25835" x2="2178.08102" y2="2384.88451"/><line x1="2241.56183" y1="2472.25835" x2="2158.46438" y2="2411.88451"/><line x1="2209.82143" y1="2482.57143" x2="2178.08102" y2="2384.88451"/></g><g stroke="#000000" stroke-width="2" stroke-linecap="round" stroke-dasharray="" font-family="sans-serif" font-weight="normal" font-size="12"><line x1="2062.5" y1="1945" x2="2062.5" y2="2305"/><line x1="2168.30135" y1="1979.37694" x2="1956.69865" y2="2270.62306"/><line x1="2233.69017" y1="2069.37694" x2="1891.30983" y2="2180.62306"/><line x1="2233.69017" y1="2180.62306" x2="1891.30983" y2="2069.37694"/><line x1="2168.30135" y1="2270.62306" x2="1956.69865" y2="1979.37694"/></g><g stroke="#000000" stroke-width="2" stroke-linecap="round" stroke-dasharray="" font-family="sans-serif" font-weight="normal" font-size="12"><line x1="2357.14286" y1="2374.57143" x2="2357.14286" y2="2482.57143"/><line x1="2388.88326" y1="2384.88451" x2="2325.40245" y2="2472.25835"/><line x1="2408.49991" y1="2411.88451" x2="2305.78581" y2="2445.25835"/><line x1="2408.49991" y1="2445.25835" x2="2305.78581" y2="2411.88451"/><line x1="2388.88326" y1="2472.25835" x2="2325.40245" y2="2384.88451"/></g><polygon points="2475,2550 2475,1700 3300,1700 3300,2550" stroke="#000000" stroke-width="1" stroke-linecap="butt" stroke-dasharray="1,4" font-family="sans-serif" font-weight="normal" font-size="12"/></g></svg>