<svg x="0" y="0" width="3300" height="2550" version="1.1" xmlns="http://www.w3.org/2000/svg" xmlns:xlink="http://www.w3.org/1999/xlink"><defs><clipPath id="clip-1"><polygon points="876.5625,796.875 876.5625,53.125 1598.4375,53.125 1598.4375,796.875" stroke="none" stroke-dasharray="1,4"/></clipPath><clipPath id="clip-2"><polygon points="1701.5625,796.875 1701.5625,53.125 2423.4375,53.125 2423.4375,796.875" stroke="none" stroke-dasharray="1,4"/></clipPath><clipPath id="clip-3"><polygon points="2526.5625,796.875 2526.5625,53.125 3248.4375,53.125 3248.4375,796.875" stroke="none" stroke-linecap="butt" stroke-dasharray="1,4"/></clipPath><clipPath id="clip-4"><polygon points="51.5625,1646.875 51.5625,903.125 773.4375,903.125 773.4375,1646.875" stroke="none" stroke-linecap="butt" stroke-dasharray="1,4"/></clipPath><clipPath id="clip-5"><polygon points="876.5625,1646.875 876.5625,903.125 1598.4375,903.125 1598.4375,1646.875" stroke="none" stroke-linecap="butt" stroke-dasharray="1,4"/></clipPath><clipPath id="clip-6"><polygon points="1701.5625,1646.875 1701.5625,903.125 2423.4375,903.125 2423.4375,1646.875" stroke="none" stroke-linecap="butt" stroke-dasharray="1,4"/></clipPath><clipPath id="clip-7"><polygon points="2526.5625,1646.875 2526.5625,903.125 3248.4375,903.125 3248.4375,1646.875" stroke="none" stroke-linecap="butt" stroke-dasharray="1,4"/></clipPath><clipPath id="clip-8"><polygon points="51.5625,2496.875 51.5625,1753.125 773.4375,1753.125 773.4375,2496.875" stroke="none" stroke-linecap="butt" stroke-dasharray="1,4"/></clipPath><clipPath id="clip-9"><polygon points="876.5625,2496.875 876.5625,1753.125 1598.4375,1753.125 1598.4375,2496.875" stroke="none" stroke-linecap="butt" stroke-dasharray="1,4"/></clipPath><clipPath id="clip-10"><polygon points="1701.5625,2496.875 1701.5625,1753.125 2423.4375,1753.125 2423.4375,2496.875" stroke="none" stroke-linecap="butt" stroke-dasharray="1,4"/></clipPath></defs><g fill="none" stroke="none" stroke-width="none" stroke-linecap="none" stroke-linejoin="miter" stroke-miterlimit="10" stroke-dasharray="none" stroke-dashoffset="0" font-family="sans-serif" font-weight="normal" font-size="12" text-anchor="start" mix-blend-mode="normal"><polygon points="0,850 0,0 825,0 825,850" stroke="#000000" stroke-width="1" stroke-linecap="butt" stroke-dasharray="1,4"/><polygon points="825,850 825,0 1650,0 1650,850" stroke="#000000" stroke-width="1" stroke-linecap="butt" stroke-dasharray="1,4"/><path d="M1219.5,425c0,-9.94113 8.05887,-18 18,-18c9.94113,0 18,8.05887 18,18c0,9.94113 -8.05887,18 -18,18c-9.94113,0 -18,-8.05887 -18,-18z" fill="#000000" stroke-width="1" stroke-linecap="butt" stroke-dasharray=""/><g clip-path="url(#clip-1)" stroke-width="1" stroke-linecap="butt"><path d="M1183.5,425c0,-29.82338 24.17662,-54 54,-54c29.82338,0 54,24.17662 54,54c0,29.82338 -24.17662,54 -54,54c-29.82338,0 -54,-24.17662 -54,-54z" stroke="#000000" stroke-dasharray="2,3"/><path d="M1147.5,425c0,-49.70563 40.29437,-90 90,-90c49.70563,0 90,40.29437 90,90c0,49.70563 -40.29437,90 -90,90c-49.70563,0 -90,-40.29437 -90,-90z" stroke="#000000" stroke-dasharray="2,3"/><path d="M1111.5,425c0,-69.58788 56.41212,-126 126,-126c69.58788,0 126,56.41212 126,126c0,69.58788 -56.41212,126 -126,126c-69.58788,0 -126,-56.41212 -126,-126z" stroke="#000000" stroke-dasharray="2,3"/><path d="M1075.5,425c0,-89.47013 72.52987,-162 162,-162c89.47013,0 162,72.52987 162,162c0,89.47013 -72.52987,162 -162,162c-89.47013,0 -162,-72.52987 -162,-162z" stroke="#000000" stroke-dasharray="2,3"/><path d="M1039.5,425c0,-109.35238 88.64762,-198 198,-198c109.35238,0 198,88.64762 198,198c0,109.35238 -88.64762,198 -198,198c-109.35238,0 -198,-88.64762 -198,-198z" stroke="#000000" stroke-dasharray="2,3"/><path d="M1003.5,425c0,-129.23463 104.76537,-234 234,-234c129.23463,0 234,104.76537 234,234c0,129.23463 -104.76537,234 -234,234c-129.23463,0 -234,-104.76537 -234,-234z" stroke="#000000" stroke-dasharray="2,3"/><path d="M967.5,425c0,-149.11688 120.88312,-270 270,-270c149.11688,0 270,120.88312 270,270c0,149.11688 -120.88312,270 -270,270c-149.11688,0 -270,-120.88312 -270,-270z" stroke="#000000" stroke-dasharray="2,3"/><path d="M931.5,425c0,-168.99913 137.00087,-306 306,-306c168.99913,0 306,137.00087 306,306c0,168.99913 -137.00087,306 -306,306c-168.99913,0 -306,-137.00087 -306,-306z" stroke="#000000" stroke-dasharray="2,3"/><path d="M895.5,425c0,-188.88138 153.11862,-342 342,-342c188.88138,0 342,153.11862 342,342c0,188.88138 -153.11862,342 -342,342c-188.88138,0 -342,-153.11862 -342,-342z" stroke="#000000" stroke-dasharray="2,3"/><path d="M859.5,425c0,-208.76364 169.23636,-378 378,-378c208.76364,0 378,169.23636 378,378c0,208.76364 -169.23636,378 -378,378c-208.76364,0 -378,-169.23636 -378,-378z" stroke="#000000" stroke-dasharray="2,3"/><path d="M823.5,425c0,-228.64589 185.35411,-414 414,-414c228.64589,0 414,185.35411 414,414c0,228.64589 -185.35411,414 -414,414c-228.64589,0 -414,-185.35411 -414,-414z" stroke="#000000" stroke-dasharray="2,3"/><path d="M787.5,425c0,-248.52814 201.47186,-450 450,-450c248.52814,0 450,201.47186 450,450c0,248.52814 -201.47186,450 -450,450c-248.52814,0 -450,-201.47186 -450,-450z" stroke="#000000" stroke-dasharray="2,3"/><path d="M751.5,425c0,-268.41039 217.58961,-486 486,-486c268.41039,0 486,217.58961 486,486c0,268.41039 -217.58961,486 -486,486c-268.41039,0 -486,-217.58961 -486,-486z" stroke="#000000" stroke-dasharray="2,3"/><path d="M715.5,425c0,-288.29264 233.70736,-522 522,-522c288.29264,0 522,233.70736 522,522c0,288.29264 -233.70736,522 -522,522c-288.29264,0 -522,-233.70736 -522,-522z" stroke="#000000" stroke-dasharray="2,3"/><path d="M679.5,425c0,-308.17489 249.82511,-558 558,-558c308.17489,0 558,249.82511 558,558c0,308.17489 -249.82511,558 -558,558c-308.17489,0 -558,-249.82511 -558,-558z" stroke="#000000" stroke-dasharray="2,3"/><path d="M643.5,425c0,-328.05714 265.94286,-594 594,-594c328.05714,0 594,265.94286 594,594c0,328.05714 -265.94286,594 -594,594c-328.05714,0 -594,-265.94286 -594,-594z" stroke="#000000" stroke-dasharray="2,3"/></g><polygon points="1650,850 1650,0 2475,0 2475,850" stroke="#000000" stroke-width="1" stroke-linecap="butt" stroke-dasharray="1,4"/><line x1="2062.5" y1="365" x2="2062.5" y2="485" stroke="#000000" stroke-width="2" stroke-linecap="round" stroke-dasharray=""/><g clip-path="url(#clip-2)" stroke-width="1" stroke-linecap="butt"><line x1="2062.5" y1="0" x2="2062.5" y2="850" stroke="#000000" stroke-dasharray="2,3"/><line x1="2026.5" y1="0" x2="2026.5" y2="850" stroke="#000000" stroke-dasharray="2,3"/><line x1="2098.5" y1="0" x2="2098.5" y2="850" stroke="#000000" stroke-dasharray="2,3"/><line x1="1990.5" y1="0" x2="1990.5" y2="850" stroke="#000000" stroke-dasharray="2,3"/><line x1="2134.5" y1="0" x2="2134.5" y2="850" stroke="#000000" stroke-dasharray="2,3"/><line x1="1954.5" y1="0" x2="1954.5" y2="850" stroke="#000000" stroke-dasharray="2,3"/><line x1="2170.5" y1="0" x2="2170.5" y2="850" stroke="#000000" stroke-dasharray="2,3"/><line x1="1918.5" y1="0" x2="1918.5" y2="850" stroke="#000000" stroke-dasharray="2,3"/><line x1="2206.5" y1="0" x2="2206.5" y2="850" stroke="#000000" stroke-dasharray="2,3"/><line x1="1882.5" y1="0" x2="1882.5" y2="850" stroke="#000000" stroke-dasharray="2,3"/><line x1="2242.5" y1="0" x2="2242.5" y2="850" stroke="#000000" stroke-dasharray="2,3"/><line x1="1846.5" y1="0" x2="1846.5" y2="850" stroke="#000000" stroke-dasharray="2,3"/><line x1="2278.5" y1="0" x2="2278.5" y2="850" stroke="#000000" stroke-dasharray="2,3"/><line x1="1810.5" y1="0" x2="1810.5" y2="850" stroke="#000000" stroke-dasharray="2,3"/><line x1="2314.5" y1="0" x2="2314.5" y2="850" stroke="#000000" stroke-dasharray="2,3"/><line x1="1774.5" y1="0" x2="1774.5" y2="850" stroke="#000000" stroke-dasharray="2,3"/><line x1="2350.5" y1="0" x2="2350.5" y2="850" stroke="#000000" stroke-dasharray="2,3"/><line x1="1738.5" y1="0" x2="1738.5" y2="850" stroke="#000000" stroke-dasharray="2,3"/><line x1="2386.5" y1="0" x2="2386.5" y2="850" stroke="#000000" stroke-dasharray="2,3"/><line x1="1702.5" y1="0" x2="1702.5" y2="850" stroke="#000000" stroke-dasharray="2,3"/><line x1="2422.5" y1="0" x2="2422.5" y2="850" stroke="#000000" stroke-dasharray="2,3"/><line x1="1666.5" y1="0" x2="1666.5" y2="850" stroke="#000000" stroke-dasharray="2,3"/><line x1="2458.5" y1="0" x2="2458.5" y2="850" stroke="#000000" stroke-dasharray="2,3"/><line x1="1630.5" y1="0" x2="1630.5" y2="850" stroke="#000000" stroke-dasharray="2,3"/><line x1="2494.5" y1="0" x2="2494.5" y2="850" stroke="#000000" stroke-dasharray="2,3"/><line x1="1594.5" y1="0" x2="1594.5" y2="850" stroke="#000000" stroke-dasharray="2,3"/><line x1="2530.5" y1="0" x2="2530.5" y2="850" stroke="#000000" stroke-dasharray="2,3"/><line x1="1558.5" y1="0" x2="1558.5" y2="850" stroke="#000000" stroke-dasharray="2,3"/><line x1="2566.5" y1="0" x2="2566.5" y2="850" stroke="#000000" stroke-dasharray="2,3"/><line x1="1522.5" y1="0" x2="1522.5" y2="850" stroke="#000000" stroke-dasharray="2,3"/><line x1="2602.5" y1="0" x2="2602.5" y2="850" stroke="#000000" stroke-dasharray="2,3"/><line x1="1486.5" y1="0" x2="1486.5" y2="850" stroke="#000000" stroke-dasharray="2,3"/><line x1="2638.5" y1="0" x2="2638.5" y2="850" stroke="#000000" stroke-dasharray="2,3"/></g><polygon points="2475,850 2475,0 3300,0 3300,850" stroke="#000000" stroke-width="1" stroke-linecap="butt" stroke-dasharray="1,4"/><g stroke="#000000" stroke-width="2" stroke-linecap="round" stroke-dasharray=""><line x1="2887.5" y1="355.71797" x2="2947.5" y2="459.64102"/><line x1="2887.5" y1="355.71797" x2="2827.5" y2="459.64102"/><line x1="2947.5" y1="459.64102" x2="2827.5" y2="459.64102"/></g><g clip-path="url(#clip-3)" stroke-width="1"><g stroke="#000000" stroke-linecap="round" stroke-dasharray="2,3"><line x1="2887.5" y1="283.71797" x2="3009.85383" y2="495.64102"/><line x1="2887.5" y1="283.71797" x2="2765.14617" y2="495.64102"/><line x1="3009.85383" y1="495.64102" x2="2765.14617" y2="495.64102"/></g><g stroke="#000000" stroke-linecap="round" stroke-dasharray="2,3"><line x1="2887.5" y1="211.71797" x2="3072.20766" y2="531.64102"/><line x1="2887.5" y1="211.71797" x2="2702.79234" y2="531.64102"/><line x1="3072.20766" y1="531.64102" x2="2702.79234" y2="531.64102"/></g><g stroke="#000000" stroke-linecap="round" stroke-dasharray="2,3"><line x1="2887.5" y1="139.71797" x2="3134.56149" y2="567.64102"/><line x1="2887.5" y1="139.71797" x2="2640.43851" y2="567.64102"/><line x1="3134.56149" y1="567.64102" x2="2640.43851" y2="567.64102"/></g><g stroke="#000000" stroke-linecap="round" stroke-dasharray="2,3"><line x1="2887.5" y1="67.71797" x2="3196.91532" y2="603.64102"/><line x1="2887.5" y1="67.71797" x2="2578.08468" y2="603.64102"/><line x1="3196.91532" y1="603.64102" x2="2578.08468" y2="603.64102"/></g><g stroke="#000000" stroke-linecap="round" stroke-dasharray="2,3"><line x1="2887.5" y1="-4.28203" x2="3259.26915" y2="639.64102"/><line x1="2887.5" y1="-4.28203" x2="2515.73085" y2="639.64102"/><line x1="3259.26915" y1="639.64102" x2="2515.73085" y2="639.64102"/></g><g stroke="#000000" stroke-linecap="round" stroke-dasharray="2,3"><line x1="2887.5" y1="-76.28203" x2="3321.62297" y2="675.64102"/><line x1="2887.5" y1="-76.28203" x2="2453.37703" y2="675.64102"/><line x1="3321.62297" y1="675.64102" x2="2453.37703" y2="675.64102"/></g><g stroke="#000000" stroke-linecap="round" stroke-dasharray="2,3"><line x1="2887.5" y1="-148.28203" x2="3383.9768" y2="711.64102"/><line x1="2887.5" y1="-148.28203" x2="2391.0232" y2="711.64102"/><line x1="3383.9768" y1="711.64102" x2="2391.0232" y2="711.64102"/></g><g stroke="#000000" stroke-linecap="round" stroke-dasharray="2,3"><line x1="2887.5" y1="-220.28203" x2="3446.33063" y2="747.64102"/><line x1="2887.5" y1="-220.28203" x2="2328.66937" y2="747.64102"/><line x1="3446.33063" y1="747.64102" x2="2328.66937" y2="747.64102"/></g><g stroke="#000000" stroke-linecap="round" stroke-dasharray="2,3"><line x1="2887.5" y1="-292.28203" x2="3508.68446" y2="783.64102"/><line x1="2887.5" y1="-292.28203" x2="2266.31554" y2="783.64102"/><line x1="3508.68446" y1="783.64102" x2="2266.31554" y2="783.64102"/></g><g stroke="#000000" stroke-linecap="round" stroke-dasharray="2,3"><line x1="2887.5" y1="-364.28203" x2="3571.03829" y2="819.64102"/><line x1="2887.5" y1="-364.28203" x2="2203.96171" y2="819.64102"/><line x1="3571.03829" y1="819.64102" x2="2203.96171" y2="819.64102"/></g><g stroke="#000000" stroke-linecap="round" stroke-dasharray="2,3"><line x1="2887.5" y1="-436.28203" x2="3633.39212" y2="855.64102"/><line x1="2887.5" y1="-436.28203" x2="2141.60788" y2="855.64102"/><line x1="3633.39212" y1="855.64102" x2="2141.60788" y2="855.64102"/></g><g stroke="#000000" stroke-linecap="round" stroke-dasharray="2,3"><line x1="2887.5" y1="-508.28203" x2="3695.74595" y2="891.64102"/><line x1="2887.5" y1="-508.28203" x2="2079.25405" y2="891.64102"/><line x1="3695.74595" y1="891.64102" x2="2079.25405" y2="891.64102"/></g><g stroke="#000000" stroke-linecap="round" stroke-dasharray="2,3"><line x1="2887.5" y1="-580.28203" x2="3758.09978" y2="927.64102"/><line x1="2887.5" y1="-580.28203" x2="2016.90022" y2="927.64102"/><line x1="3758.09978" y1="927.64102" x2="2016.90022" y2="927.64102"/></g><g stroke="#000000" stroke-linecap="round" stroke-dasharray="2,3"><line x1="2887.5" y1="-652.28203" x2="3820.45361" y2="963.64102"/><line x1="2887.5" y1="-652.28203" x2="1954.54639" y2="963.64102"/><line x1="3820.45361" y1="963.64102" x2="1954.54639" y2="963.64102"/></g><g stroke="#000000" stroke-linecap="round" stroke-dasharray="2,3"><line x1="2887.5" y1="-724.28203" x2="3882.80744" y2="999.64102"/><line x1="2887.5" y1="-724.28203" x2="1892.19256" y2="999.64102"/><line x1="3882.80744" y1="999.64102" x2="1892.19256" y2="999.64102"/></g><g stroke="#000000" stroke-linecap="round" stroke-dasharray="2,3"><line x1="2887.5" y1="-796.28203" x2="3945.16127" y2="1035.64102"/><line x1="2887.5" y1="-796.28203" x2="1829.83873" y2="1035.64102"/><line x1="3945.16127" y1="1035.64102" x2="1829.83873" y2="1035.64102"/></g></g><polygon points="0,1700 0,850 825,850 825,1700" stroke="#000000" stroke-width="1" stroke-linecap="butt" stroke-dasharray="1,4"/><line x1="412.5" y1="1190.14719" x2="412.5" y2="1359.85281" stroke="#000000" stroke-width="2" stroke-linecap="round" stroke-dasharray=""/><line x1="497.35281" y1="1275" x2="327.64719" y2="1275" stroke="#000000" stroke-width="2" stroke-linecap="round" stroke-dasharray=""/><g stroke="#000000" stroke-width="2" stroke-linecap="round" stroke-dasharray=""><line x1="412.5" y1="1190.14719" x2="497.35281" y2="1275"/><line x1="412.5" y1="1190.14719" x2="327.64719" y2="1275"/><line x1="497.35281" y1="1275" x2="412.5" y2="1359.85281"/><line x1="412.5" y1="1359.85281" x2="327.64719" y2="1275"/></g><g clip-path="url(#clip-4)" stroke-width="1"><g stroke="#000000" stroke-linecap="round" stroke-dasharray="2,3"><line x1="412.5" y1="1139.2355" x2="548.2645" y2="1275"/><line x1="412.5" y1="1139.2355" x2="276.7355" y2="1275"/><line x1="548.2645" y1="1275" x2="412.5" y2="1410.7645"/><line x1="412.5" y1="1410.7645" x2="276.7355" y2="1275"/></g><g stroke="#000000" stroke-linecap="round" stroke-dasharray="2,3"><line x1="412.5" y1="1088.32381" x2="599.17619" y2="1275"/><line x1="412.5" y1="1088.32381" x2="225.82381" y2="1275"/><line x1="599.17619" y1="1275" x2="412.5" y2="1461.67619"/><line x1="412.5" y1="1461.67619" x2="225.82381" y2="1275"/></g><g stroke="#000000" stroke-linecap="round" stroke-dasharray="2,3"><line x1="412.5" y1="1037.41212" x2="650.08788" y2="1275"/><line x1="412.5" y1="1037.41212" x2="174.91212" y2="1275"/><line x1="650.08788" y1="1275" x2="412.5" y2="1512.58788"/><line x1="412.5" y1="1512.58788" x2="174.91212" y2="1275"/></g><g stroke="#000000" stroke-linecap="round" stroke-dasharray="2,3"><line x1="412.5" y1="986.50043" x2="700.99957" y2="1275"/><line x1="412.5" y1="986.50043" x2="124.00043" y2="1275"/><line x1="700.99957" y1="1275" x2="412.5" y2="1563.49957"/><line x1="412.5" y1="1563.49957" x2="124.00043" y2="1275"/></g><g stroke="#000000" stroke-linecap="round" stroke-dasharray="2,3"><line x1="412.5" y1="935.58875" x2="751.91125" y2="1275"/><line x1="412.5" y1="935.58875" x2="73.08875" y2="1275"/><line x1="751.91125" y1="1275" x2="412.5" y2="1614.41125"/><line x1="412.5" y1="1614.41125" x2="73.08875" y2="1275"/></g><g stroke="#000000" stroke-linecap="round" stroke-dasharray="2,3"><line x1="412.5" y1="884.67706" x2="802.82294" y2="1275"/><line x1="412.5" y1="884.67706" x2="22.17706" y2="1275"/><line x1="802.82294" y1="1275" x2="412.5" y2="1665.32294"/><line x1="412.5" y1="1665.32294" x2="22.17706" y2="1275"/></g><g stroke="#000000" stroke-linecap="round" stroke-dasharray="2,3"><line x1="412.5" y1="833.76537" x2="853.73463" y2="1275"/><line x1="412.5" y1="833.76537" x2="-28.73463" y2="1275"/><line x1="853.73463" y1="1275" x2="412.5" y2="1716.23463"/><line x1="412.5" y1="1716.23463" x2="-28.73463" y2="1275"/></g><g stroke="#000000" stroke-linecap="round" stroke-dasharray="2,3"><line x1="412.5" y1="782.85368" x2="904.64632" y2="1275"/><line x1="412.5" y1="782.85368" x2="-79.64632" y2="1275"/><line x1="904.64632" y1="1275" x2="412.5" y2="1767.14632"/><line x1="412.5" y1="1767.14632" x2="-79.64632" y2="1275"/></g><g stroke="#000000" stroke-linecap="round" stroke-dasharray="2,3"><line x1="412.5" y1="731.94199" x2="955.55801" y2="1275"/><line x1="412.5" y1="731.94199" x2="-130.55801" y2="1275"/><line x1="955.55801" y1="1275" x2="412.5" y2="1818.05801"/><line x1="412.5" y1="1818.05801" x2="-130.55801" y2="1275"/></g><g stroke="#000000" stroke-linecap="round" stroke-dasharray="2,3"><line x1="412.5" y1="681.0303" x2="1006.4697" y2="1275"/><line x1="412.5" y1="681.0303" x2="-181.4697" y2="1275"/><line x1="1006.4697" y1="1275" x2="412.5" y2="1868.9697"/><line x1="412.5" y1="1868.9697" x2="-181.4697" y2="1275"/></g><g stroke="#000000" stroke-linecap="round" stroke-dasharray="2,3"><line x1="412.5" y1="630.11862" x2="1057.38138" y2="1275"/><line x1="412.5" y1="630.11862" x2="-232.38138" y2="1275"/><line x1="1057.38138" y1="1275" x2="412.5" y2="1919.88138"/><line x1="412.5" y1="1919.88138" x2="-232.38138" y2="1275"/></g><g stroke="#000000" stroke-linecap="round" stroke-dasharray="2,3"><line x1="412.5" y1="579.20693" x2="1108.29307" y2="1275"/><line x1="412.5" y1="579.20693" x2="-283.29307" y2="1275"/><line x1="1108.29307" y1="1275" x2="412.5" y2="1970.79307"/><line x1="412.5" y1="1970.79307" x2="-283.29307" y2="1275"/></g><g stroke="#000000" stroke-linecap="round" stroke-dasharray="2,3"><line x1="412.5" y1="528.29524" x2="1159.20476" y2="1275"/><line x1="412.5" y1="528.29524" x2="-334.20476" y2="1275"/><line x1="1159.20476" y1="1275" x2="412.5" y2="2021.70476"/><line x1="412.5" y1="2021.70476" x2="-334.20476" y2="1275"/></g><g stroke="#000000" stroke-linecap="round" stroke-dasharray="2,3"><line x1="412.5" y1="477.38355" x2="1210.11645" y2="1275"/><line x1="412.5" y1="477.38355" x2="-385.11645" y2="1275"/><line x1="1210.11645" y1="1275" x2="412.5" y2="2072.61645"/><line x1="412.5" y1="2072.61645" x2="-385.11645" y2="1275"/></g><g stroke="#000000" stroke-linecap="round" stroke-dasharray="2,3"><line x1="412.5" y1="426.47186" x2="1261.02814" y2="1275"/><line x1="412.5" y1="426.47186" x2="-436.02814" y2="1275"/><line x1="1261.02814" y1="1275" x2="412.5" y2="2123.52814"/><line x1="412.5" y1="2123.52814" x2="-436.02814" y2="1275"/></g><g stroke="#000000" stroke-linecap="round" stroke-dasharray="2,3"><line x1="412.5" y1="375.56017" x2="1311.93983" y2="1275"/><line x1="412.5" y1="375.56017" x2="-486.93983" y2="1275"/><line x1="1311.93983" y1="1275" x2="412.5" y2="2174.43983"/><line x1="412.5" y1="2174.43983" x2="-486.93983" y2="1275"/></g></g><polygon points="825,1700 825,850 1650,850 1650,1700" stroke="#000000" stroke-width="1" stroke-linecap="butt" stroke-dasharray="1,4"/><line x1="1237.5" y1="1172.9219" x2="1297.5" y2="1357.58292" stroke="#000000" stroke-width="2" stroke-linecap="round" stroke-dasharray=""/><line x1="1237.5" y1="1172.9219" x2="1177.5" y2="1357.58292" stroke="#000000" stroke-width="2" stroke-linecap="round" stroke-dasharray=""/><line x1="1334.58204" y1="1243.45613" x2="1177.5" y2="1357.58292" stroke="#000000" stroke-width="2" stroke-linecap="round" stroke-dasharray=""/><line x1="1334.58204" y1="1243.45613" x2="1140.41796" y2="1243.45613" stroke="#000000" stroke-width="2" stroke-linecap="round" stroke-dasharray=""/><line x1="1297.5" y1="1357.58292" x2="1140.41796" y2="1243.45613" stroke="#000000" stroke-width="2" stroke-linecap="round" stroke-dasharray=""/><g stroke="#000000" stroke-width="2" stroke-linecap="round" stroke-dasharray=""><line x1="1237.5" y1="1172.9219" x2="1334.58204" y2="1243.45613"/><line x1="1237.5" y1="1172.9219" x2="1140.41796" y2="1243.45613"/><line x1="1334.58204" y1="1243.45613" x2="1297.5" y2="1357.58292"/><line x1="1297.5" y1="1357.58292" x2="1177.5" y2="1357.58292"/><line x1="1177.5" y1="1357.58292" x2="1140.41796" y2="1243.45613"/></g><g clip-path="url(#clip-5)" stroke-width="1"><g stroke="#000000" stroke-linecap="round" stroke-dasharray="2,3"><line x1="1237.5" y1="1128.42346" x2="1376.90258" y2="1229.70536"/><line x1="1237.5" y1="1128.42346" x2="1098.09742" y2="1229.70536"/><line x1="1376.90258" y1="1229.70536" x2="1323.65553" y2="1393.58292"/><line x1="1323.65553" y1="1393.58292" x2="1151.34447" y2="1393.58292"/><line x1="1151.34447" y1="1393.58292" x2="1098.09742" y2="1229.70536"/></g><g stroke="#000000" stroke-linecap="round" stroke-dasharray="2,3"><line x1="1237.5" y1="1083.92501" x2="1419.22312" y2="1215.95458"/><line x1="1237.5" y1="1083.92501" x2="1055.77688" y2="1215.95458"/><line x1="1419.22312" y1="1215.95458" x2="1349.81106" y2="1429.58292"/><line x1="1349.81106" y1="1429.58292" x2="1125.18894" y2="1429.58292"/><line x1="1125.18894" y1="1429.58292" x2="1055.77688" y2="1215.95458"/></g><g stroke="#000000" stroke-linecap="round" stroke-dasharray="2,3"><line x1="1237.5" y1="1039.42656" x2="1461.54365" y2="1202.2038"/><line x1="1237.5" y1="1039.42656" x2="1013.45635" y2="1202.2038"/><line x1="1461.54365" y1="1202.2038" x2="1375.96659" y2="1465.58292"/><line x1="1375.96659" y1="1465.58292" x2="1099.03341" y2="1465.58292"/><line x1="1099.03341" y1="1465.58292" x2="1013.45635" y2="1202.2038"/></g><g stroke="#000000" stroke-linecap="round" stroke-dasharray="2,3"><line x1="1237.5" y1="994.92811" x2="1503.86419" y2="1188.45303"/><line x1="1237.5" y1="994.92811" x2="971.13581" y2="1188.45303"/><line x1="1503.86419" y1="1188.45303" x2="1402.12212" y2="1501.58292"/><line x1="1402.12212" y1="1501.58292" x2="1072.87788" y2="1501.58292"/><line x1="1072.87788" y1="1501.58292" x2="971.13581" y2="1188.45303"/></g><g stroke="#000000" stroke-linecap="round" stroke-dasharray="2,3"><line x1="1237.5" y1="950.42967" x2="1546.18473" y2="1174.70225"/><line x1="1237.5" y1="950.42967" x2="928.81527" y2="1174.70225"/><line x1="1546.18473" y1="1174.70225" x2="1428.27766" y2="1537.58292"/><line x1="1428.27766" y1="1537.58292" x2="1046.72234" y2="1537.58292"/><line x1="1046.72234" y1="1537.58292" x2="928.81527" y2="1174.70225"/></g><g stroke="#000000" stroke-linecap="round" stroke-dasharray="2,3"><line x1="1237.5" y1="905.93122" x2="1588.50527" y2="1160.95147"/><line x1="1237.5" y1="905.93122" x2="886.49473" y2="1160.95147"/><line x1="1588.50527" y1="1160.95147" x2="1454.43319" y2="1573.58292"/><line x1="1454.43319" y1="1573.58292" x2="1020.56681" y2="1573.58292"/><line x1="1020.56681" y1="1573.58292" x2="886.49473" y2="1160.95147"/></g><g stroke="#000000" stroke-linecap="round" stroke-dasharray="2,3"><line x1="1237.5" y1="861.43277" x2="1630.82581" y2="1147.2007"/><line x1="1237.5" y1="861.43277" x2="844.17419" y2="1147.2007"/><line x1="1630.82581" y1="1147.2007" x2="1480.58872" y2="1609.58292"/><line x1="1480.58872" y1="1609.58292" x2="994.41128" y2="1609.58292"/><line x1="994.41128" y1="1609.58292" x2="844.17419" y2="1147.2007"/></g><g stroke="#000000" stroke-linecap="round" stroke-dasharray="2,3"><line x1="1237.5" y1="816.93433" x2="1673.14634" y2="1133.44992"/><line x1="1237.5" y1="816.93433" x2="801.85366" y2="1133.44992"/><line x1="1673.14634" y1="1133.44992" x2="1506.74425" y2="1645.58292"/><line x1="1506.74425" y1="1645.58292" x2="968.25575" y2="1645.58292"/><line x1="968.25575" y1="1645.58292" x2="801.85366" y2="1133.44992"/></g><g stroke="#000000" stroke-linecap="round" stroke-dasharray="2,3"><line x1="1237.5" y1="772.43588" x2="1715.46688" y2="1119.69915"/><line x1="1237.5" y1="772.43588" x2="759.53312" y2="1119.69915"/><line x1="1715.46688" y1="1119.69915" x2="1532.89978" y2="1681.58292"/><line x1="1532.89978" y1="1681.58292" x2="942.10022" y2="1681.58292"/><line x1="942.10022" y1="1681.58292" x2="759.53312" y2="1119.69915"/></g><g stroke="#000000" stroke-linecap="round" stroke-dasharray="2,3"><line x1="1237.5" y1="727.93743" x2="1757.78742" y2="1105.94837"/><line x1="1237.5" y1="727.93743" x2="717.21258" y2="1105.94837"/><line x1="1757.78742" y1="1105.94837" x2="1559.05531" y2="1717.58292"/><line x1="1559.05531" y1="1717.58292" x2="915.94469" y2="1717.58292"/><line x1="915.94469" y1="1717.58292" x2="717.21258" y2="1105.94837"/></g><g stroke="#000000" stroke-linecap="round" stroke-dasharray="2,3"><line x1="1237.5" y1="683.43898" x2="1800.10796" y2="1092.19759"/><line x1="1237.5" y1="683.43898" x2="674.89204" y2="1092.19759"/><line x1="1800.10796" y1="1092.19759" x2="1585.21084" y2="1753.58292"/><line x1="1585.21084" y1="1753.58292" x2="889.78916" y2="1753.58292"/><line x1="889.78916" y1="1753.58292" x2="674.89204" y2="1092.19759"/></g><g stroke="#000000" stroke-linecap="round" stroke-dasharray="2,3"><line x1="1237.5" y1="638.94054" x2="1842.4285" y2="1078.44682"/><line x1="1237.5" y1="638.94054" x2="632.5715" y2="1078.44682"/><line x1="1842.4285" y1="1078.44682" x2="1611.36637" y2="1789.58292"/><line x1="1611.36637" y1="1789.58292" x2="863.63363" y2="1789.58292"/><line x1="863.63363" y1="1789.58292" x2="632.5715" y2="1078.44682"/></g><g stroke="#000000" stroke-linecap="round" stroke-dasharray="2,3"><line x1="1237.5" y1="594.44209" x2="1884.74904" y2="1064.69604"/><line x1="1237.5" y1="594.44209" x2="590.25096" y2="1064.69604"/><line x1="1884.74904" y1="1064.69604" x2="1637.5219" y2="1825.58292"/><line x1="1637.5219" y1="1825.58292" x2="837.4781" y2="1825.58292"/><line x1="837.4781" y1="1825.58292" x2="590.25096" y2="1064.69604"/></g><g stroke="#000000" stroke-linecap="round" stroke-dasharray="2,3"><line x1="1237.5" y1="549.94364" x2="1927.06957" y2="1050.94526"/><line x1="1237.5" y1="549.94364" x2="547.93043" y2="1050.94526"/><line x1="1927.06957" y1="1050.94526" x2="1663.67743" y2="1861.58292"/><line x1="1663.67743" y1="1861.58292" x2="811.32257" y2="1861.58292"/><line x1="811.32257" y1="1861.58292" x2="547.93043" y2="1050.94526"/></g><g stroke="#000000" stroke-linecap="round" stroke-dasharray="2,3"><line x1="1237.5" y1="505.4452" x2="1969.39011" y2="1037.19449"/><line x1="1237.5" y1="505.4452" x2="505.60989" y2="1037.19449"/><line x1="1969.39011" y1="1037.19449" x2="1689.83297" y2="1897.58292"/><line x1="1689.83297" y1="1897.58292" x2="785.16703" y2="1897.58292"/><line x1="785.16703" y1="1897.58292" x2="505.60989" y2="1037.19449"/></g><g stroke="#000000" stroke-linecap="round" stroke-dasharray="2,3"><line x1="1237.5" y1="460.94675" x2="2011.71065" y2="1023.44371"/><line x1="1237.5" y1="460.94675" x2="463.28935" y2="1023.44371"/><line x1="2011.71065" y1="1023.44371" x2="1715.9885" y2="1933.58292"/><line x1="1715.9885" y1="1933.58292" x2="759.0115" y2="1933.58292"/><line x1="759.0115" y1="1933.58292" x2="463.28935" y2="1023.44371"/></g></g><polygon points="1650,1700 1650,850 2475,850 2475,1700" stroke="#000000" stroke-width="1" stroke-linecap="butt" stroke-dasharray="1,4"/><line x1="2062.5" y1="1155" x2="2166.42305" y2="1335" stroke="#000000" stroke-width="2" stroke-linecap="round" stroke-dasharray=""/><line x1="2062.5" y1="1155" x2="2062.5" y2="1395" stroke="#000000" stroke-width="2" stroke-linecap="round" stroke-dasharray=""/><line x1="2062.5" y1="1155" x2="1958.57695" y2="1335" stroke="#000000" stroke-width="2" stroke-linecap="round" stroke-dasharray=""/><line x1="2166.42305" y1="1215" x2="2062.5" y2="1395" stroke="#000000" stroke-width="2" stroke-linecap="round" stroke-dasharray=""/><line x1="2166.42305" y1="1215" x2="1958.57695" y2="1335" stroke="#000000" stroke-width="2" stroke-linecap="round" stroke-dasharray=""/><line x1="2166.42305" y1="1215" x2="1958.57695" y2="1215" stroke="#000000" stroke-width="2" stroke-linecap="round" stroke-dasharray=""/><line x1="2166.42305" y1="1335" x2="1958.57695" y2="1335" stroke="#000000" stroke-width="2" stroke-linecap="round" stroke-dasharray=""/><line x1="2166.42305" y1="1335" x2="1958.57695" y2="1215" stroke="#000000" stroke-width="2" stroke-linecap="round" stroke-dasharray=""/><line x1="2062.5" y1="1395" x2="1958.57695" y2="1215" stroke="#000000" stroke-width="2" stroke-linecap="round" stroke-dasharray=""/><g stroke="#000000" stroke-width="2" stroke-linecap="round" stroke-dasharray=""><line x1="2062.5" y1="1155" x2="2166.42305" y2="1215"/><line x1="2062.5" y1="1155" x2="1958.57695" y2="1215"/><line x1="2166.42305" y1="1215" x2="2166.42305" y2="1335"/><line x1="2166.42305" y1="1335" x2="2062.5" y2="1395"/><line x1="2062.5" y1="1395" x2="1958.57695" y2="1335"/><line x1="1958.57695" y1="1335" x2="1958.57695" y2="1215"/></g><g clip-path="url(#clip-6)" stroke-width="1"><g stroke="#000000" stroke-linecap="round" stroke-dasharray="2,3"><line x1="2062.5" y1="1113.43078" x2="2202.42305" y2="1194.21539"/><line x1="2062.5" y1="1113.43078" x2="1922.57695" y2="1194.21539"/><line x1="2202.42305" y1="1194.21539" x2="2202.42305" y2="1355.78461"/><line x1="2202.42305" y1="1355.78461" x2="2062.5" y2="1436.56922"/><line x1="2062.5" y1="1436.56922" x2="1922.57695" y2="1355.78461"/><line x1="1922.57695" y1="1355.78461" x2="1922.57695" y2="1194.21539"/></g><g stroke="#000000" stroke-linecap="round" stroke-dasharray="2,3"><line x1="2062.5" y1="1071.86156" x2="2238.42305" y2="1173.43078"/><line x1="2062.5" y1="1071.86156" x2="1886.57695" y2="1173.43078"/><line x1="2238.42305" y1="1173.43078" x2="2238.42305" y2="1376.56922"/><line x1="2238.42305" y1="1376.56922" x2="2062.5" y2="1478.13844"/><line x1="2062.5" y1="1478.13844" x2="1886.57695" y2="1376.56922"/><line x1="1886.57695" y1="1376.56922" x2="1886.57695" y2="1173.43078"/></g><g stroke="#000000" stroke-linecap="round" stroke-dasharray="2,3"><line x1="2062.5" y1="1030.29234" x2="2274.42305" y2="1152.64617"/><line x1="2062.5" y1="1030.29234" x2="1850.57695" y2="1152.64617"/><line x1="2274.42305" y1="1152.64617" x2="2274.42305" y2="1397.35383"/><line x1="2274.42305" y1="1397.35383" x2="2062.5" y2="1519.70766"/><line x1="2062.5" y1="1519.70766" x2="1850.57695" y2="1397.35383"/><line x1="1850.57695" y1="1397.35383" x2="1850.57695" y2="1152.64617"/></g><g stroke="#000000" stroke-linecap="round" stroke-dasharray="2,3"><line x1="2062.5" y1="988.72312" x2="2310.42305" y2="1131.86156"/><line x1="2062.5" y1="988.72312" x2="1814.57695" y2="1131.86156"/><line x1="2310.42305" y1="1131.86156" x2="2310.42305" y2="1418.13844"/><line x1="2310.42305" y1="1418.13844" x2="2062.5" y2="1561.27688"/><line x1="2062.5" y1="1561.27688" x2="1814.57695" y2="1418.13844"/><line x1="1814.57695" y1="1418.13844" x2="1814.57695" y2="1131.86156"/></g><g stroke="#000000" stroke-linecap="round" stroke-dasharray="2,3"><line x1="2062.5" y1="947.1539" x2="2346.42305" y2="1111.07695"/><line x1="2062.5" y1="947.1539" x2="1778.57695" y2="1111.07695"/><line x1="2346.42305" y1="1111.07695" x2="2346.42305" y2="1438.92305"/><line x1="2346.42305" y1="1438.92305" x2="2062.5" y2="1602.8461"/><line x1="2062.5" y1="1602.8461" x2="1778.57695" y2="1438.92305"/><line x1="1778.57695" y1="1438.92305" x2="1778.57695" y2="1111.07695"/></g><g stroke="#000000" stroke-linecap="round" stroke-dasharray="2,3"><line x1="2062.5" y1="905.58468" x2="2382.42305" y2="1090.29234"/><line x1="2062.5" y1="905.58468" x2="1742.57695" y2="1090.29234"/><line x1="2382.42305" y1="1090.29234" x2="2382.42305" y2="1459.70766"/><line x1="2382.42305" y1="1459.70766" x2="2062.5" y2="1644.41532"/><line x1="2062.5" y1="1644.41532" x2="1742.57695" y2="1459.70766"/><line x1="1742.57695" y1="1459.70766" x2="1742.57695" y2="1090.29234"/></g><g stroke="#000000" stroke-linecap="round" stroke-dasharray="2,3"><line x1="2062.5" y1="864.01546" x2="2418.42305" y2="1069.50773"/><line x1="2062.5" y1="864.01546" x2="1706.57695" y2="1069.50773"/><line x1="2418.42305" y1="1069.50773" x2="2418.42305" y2="1480.49227"/><line x1="2418.42305" y1="1480.49227" x2="2062.5" y2="1685.98454"/><line x1="2062.5" y1="1685.98454" x2="1706.57695" y2="1480.49227"/><line x1="1706.57695" y1="1480.49227" x2="1706.57695" y2="1069.50773"/></g><g stroke="#000000" stroke-linecap="round" stroke-dasharray="2,3"><line x1="2062.5" y1="822.44624" x2="2454.42305" y2="1048.72312"/><line x1="2062.5" y1="822.44624" x2="1670.57695" y2="1048.72312"/><line x1="2454.42305" y1="1048.72312" x2="2454.42305" y2="1501.27688"/><line x1="2454.42305" y1="1501.27688" x2="2062.5" y2="1727.55376"/><line x1="2062.5" y1="1727.55376" x2="1670.57695" y2="1501.27688"/><line x1="1670.57695" y1="1501.27688" x2="1670.57695" y2="1048.72312"/></g><g stroke="#000000" stroke-linecap="round" stroke-dasharray="2,3"><line x1="2062.5" y1="780.87703" x2="2490.42305" y2="1027.93851"/><line x1="2062.5" y1="780.87703" x2="1634.57695" y2="1027.93851"/><line x1="2490.42305" y1="1027.93851" x2="2490.42305" y2="1522.06149"/><line x1="2490.42305" y1="1522.06149" x2="2062.5" y2="1769.12297"/><line x1="2062.5" y1="1769.12297" x2="1634.57695" y2="1522.06149"/><line x1="1634.57695" y1="1522.06149" x2="1634.57695" y2="1027.93851"/></g><g stroke="#000000" stroke-linecap="round" stroke-dasharray="2,3"><line x1="2062.5" y1="739.30781" x2="2526.42305" y2="1007.1539"/><line x1="2062.5" y1="739.30781" x2="1598.57695" y2="1007.1539"/><line x1="2526.42305" y1="1007.1539" x2="2526.42305" y2="1542.8461"/><line x1="2526.42305" y1="1542.8461" x2="2062.5" y2="1810.69219"/><line x1="2062.5" y1="1810.69219" x2="1598.57695" y2="1542.8461"/><line x1="1598.57695" y1="1542.8461" x2="1598.57695" y2="1007.1539"/></g><g stroke="#000000" stroke-linecap="round" stroke-dasharray="2,3"><line x1="2062.5" y1="697.73859" x2="2562.42305" y2="986.36929"/><line x1="2062.5" y1="697.73859" x2="1562.57695" y2="986.36929"/><line x1="2562.42305" y1="986.36929" x2="2562.42305" y2="1563.63071"/><line x1="2562.42305" y1="1563.63071" x2="2062.5" y2="1852.26141"/><line x1="2062.5" y1="1852.26141" x2="1562.57695" y2="1563.63071"/><line x1="1562.57695" y1="1563.63071" x2="1562.57695" y2="986.36929"/></g><g stroke="#000000" stroke-linecap="round" stroke-dasharray="2,3"><line x1="2062.5" y1="656.16937" x2="2598.42305" y2="965.58468"/><line x1="2062.5" y1="656.16937" x2="1526.57695" y2="965.58468"/><line x1="2598.42305" y1="965.58468" x2="2598.42305" y2="1584.41532"/><line x1="2598.42305" y1="1584.41532" x2="2062.5" y2="1893.83063"/><line x1="2062.5" y1="1893.83063" x2="1526.57695" y2="1584.41532"/><line x1="1526.57695" y1="1584.41532" x2="1526.57695" y2="965.58468"/></g><g stroke="#000000" stroke-linecap="round" stroke-dasharray="2,3"><line x1="2062.5" y1="614.60015" x2="2634.42305" y2="944.80007"/><line x1="2062.5" y1="614.60015" x2="1490.57695" y2="944.80007"/><line x1="2634.42305" y1="944.80007" x2="2634.42305" y2="1605.19993"/><line x1="2634.42305" y1="1605.19993" x2="2062.5" y2="1935.39985"/><line x1="2062.5" y1="1935.39985" x2="1490.57695" y2="1605.19993"/><line x1="1490.57695" y1="1605.19993" x2="1490.57695" y2="944.80007"/></g><g stroke="#000000" stroke-linecap="round" stroke-dasharray="2,3"><line x1="2062.5" y1="573.03093" x2="2670.42305" y2="924.01546"/><line x1="2062.5" y1="573.03093" x2="1454.57695" y2="924.01546"/><line x1="2670.42305" y1="924.01546" x2="2670.42305" y2="1625.98454"/><line x1="2670.42305" y1="1625.98454" x2="2062.5" y2="1976.96907"/><line x1="2062.5" y1="1976.96907" x2="1454.57695" y2="1625.98454"/><line x1="1454.57695" y1="1625.98454" x2="1454.57695" y2="924.01546"/></g><g stroke="#000000" stroke-linecap="round" stroke-dasharray="2,3"><line x1="2062.5" y1="531.46171" x2="2706.42305" y2="903.23085"/><line x1="2062.5" y1="531.46171" x2="1418.57695" y2="903.23085"/><line x1="2706.42305" y1="903.23085" x2="2706.42305" y2="1646.76915"/><line x1="2706.42305" y1="1646.76915" x2="2062.5" y2="2018.53829"/><line x1="2062.5" y1="2018.53829" x2="1418.57695" y2="1646.76915"/><line x1="1418.57695" y1="1646.76915" x2="1418.57695" y2="903.23085"/></g><g stroke="#000000" stroke-linecap="round" stroke-dasharray="2,3"><line x1="2062.5" y1="489.89249" x2="2742.42305" y2="882.44624"/><line x1="2062.5" y1="489.89249" x2="1382.57695" y2="882.44624"/><line x1="2742.42305" y1="882.44624" x2="2742.42305" y2="1667.55376"/><line x1="2742.42305" y1="1667.55376" x2="2062.5" y2="2060.10751"/><line x1="2062.5" y1="2060.10751" x2="1382.57695" y2="1667.55376"/><line x1="1382.57695" y1="1667.55376" x2="1382.57695" y2="882.44624"/></g></g><polygon points="2475,1700 2475,850 3300,850 3300,1700" stroke="#000000" stroke-width="1" stroke-linecap="butt" stroke-dasharray="1,4"/><line x1="2887.5" y1="1136.71411" x2="3022.31878" y2="1305.77151" stroke="#000000" stroke-width="2" stroke-linecap="round" stroke-dasharray=""/><line x1="2887.5" y1="1136.71411" x2="2947.5" y2="1399.59128" stroke="#000000" stroke-width="2" stroke-linecap="round" stroke-dasharray=""/><line x1="2887.5" y1="1136.71411" x2="2827.5" y2="1399.59128" stroke="#000000" stroke-width="2" stroke-linecap="round" stroke-dasharray=""/><line x1="2887.5" y1="1136.71411" x2="2752.68122" y2="1305.77151" stroke="#000000" stroke-width="2" stroke-linecap="round" stroke-dasharray=""/><line x1="2995.61626" y1="1188.78016" x2="2947.5" y2="1399.59128" stroke="#000000" stroke-width="2" stroke-linecap="round" stroke-dasharray=""/><line x1="2995.61626" y1="1188.78016" x2="2827.5" y2="1399.59128" stroke="#000000" stroke-width="2" stroke-linecap="round" stroke-dasharray=""/><line x1="2995.61626" y1="1188.78016" x2="2752.68122" y2="1305.77151" stroke="#000000" stroke-width="2" stroke-linecap="round" stroke-dasharray=""/><line x1="2995.61626" y1="1188.78016" x2="2779.38374" y2="1188.78016" stroke="#000000" stroke-width="2" stroke-linecap="round" stroke-dasharray=""/><line x1="3022.31878" y1="1305.77151" x2="2827.5" y2="1399.59128" stroke="#000000" stroke-width="2" stroke-linecap="round" stroke-dasharray=""/><line x1="3022.31878" y1="1305.77151" x2="2752.68122" y2="1305.77151" stroke="#000000" stroke-width="2" stroke-linecap="round" stroke-dasharray=""/><line x1="3022.31878" y1="1305.77151" x2="2779.38374" y2="1188.78016" stroke="#000000" stroke-width="2" stroke-linecap="round" stroke-dasharray=""/><line x1="2947.5" y1="1399.59128" x2="2752.68122" y2="1305.77151" stroke="#000000" stroke-width="2" stroke-linecap="round" stroke-dasharray=""/><line x1="2947.5" y1="1399.59128" x2="2779.38374" y2="1188.78016" stroke="#000000" stroke-width="2" stroke-linecap="round" stroke-dasharray=""/><line x1="2827.5" y1="1399.59128" x2="2779.38374" y2="1188.78016" stroke="#000000" stroke-width="2" stroke-linecap="round" stroke-dasharray=""/><g stroke="#000000" stroke-width="2" stroke-linecap="round" stroke-dasharray=""><line x1="2887.5" y1="1136.71411" x2="2995.61626" y2="1188.78016"/><line x1="2887.5" y1="1136.71411" x2="2779.38374" y2="1188.78016"/><line x1="2995.61626" y1="1188.78016" x2="3022.31878" y2="1305.77151"/><line x1="3022.31878" y1="1305.77151" x2="2947.5" y2="1399.59128"/><line x1="2947.5" y1="1399.59128" x2="2827.5" y2="1399.59128"/><line x1="2827.5" y1="1399.59128" x2="2752.68122" y2="1305.77151"/><line x1="2752.68122" y1="1305.77151" x2="2779.38374" y2="1188.78016"/></g><g clip-path="url(#clip-7)" stroke-width="1"><g stroke="#000000" stroke-linecap="round" stroke-dasharray="2,3"><line x1="2887.5" y1="1096.75712" x2="3026.85589" y2="1163.86738"/><line x1="2887.5" y1="1096.75712" x2="2748.14411" y2="1163.86738"/><line x1="3026.85589" y1="1163.86738" x2="3061.27396" y2="1314.66277"/><line x1="3061.27396" y1="1314.66277" x2="2964.83669" y2="1435.59128"/><line x1="2964.83669" y1="1435.59128" x2="2810.16331" y2="1435.59128"/><line x1="2810.16331" y1="1435.59128" x2="2713.72604" y2="1314.66277"/><line x1="2713.72604" y1="1314.66277" x2="2748.14411" y2="1163.86738"/></g><g stroke="#000000" stroke-linecap="round" stroke-dasharray="2,3"><line x1="2887.5" y1="1056.80014" x2="3058.09552" y2="1138.95461"/><line x1="2887.5" y1="1056.80014" x2="2716.90448" y2="1138.95461"/><line x1="3058.09552" y1="1138.95461" x2="3100.22914" y2="1323.55404"/><line x1="3100.22914" y1="1323.55404" x2="2982.17337" y2="1471.59128"/><line x1="2982.17337" y1="1471.59128" x2="2792.82663" y2="1471.59128"/><line x1="2792.82663" y1="1471.59128" x2="2674.77086" y2="1323.55404"/><line x1="2674.77086" y1="1323.55404" x2="2716.90448" y2="1138.95461"/></g><g stroke="#000000" stroke-linecap="round" stroke-dasharray="2,3"><line x1="2887.5" y1="1016.84315" x2="3089.33515" y2="1114.04184"/><line x1="2887.5" y1="1016.84315" x2="2685.66485" y2="1114.04184"/><line x1="3089.33515" y1="1114.04184" x2="3139.18432" y2="1332.4453"/><line x1="3139.18432" y1="1332.4453" x2="2999.51006" y2="1507.59128"/><line x1="2999.51006" y1="1507.59128" x2="2775.48994" y2="1507.59128"/><line x1="2775.48994" y1="1507.59128" x2="2635.81568" y2="1332.4453"/><line x1="2635.81568" y1="1332.4453" x2="2685.66485" y2="1114.04184"/></g><g stroke="#000000" stroke-linecap="round" stroke-dasharray="2,3"><line x1="2887.5" y1="976.88617" x2="3120.57478" y2="1089.12906"/><line x1="2887.5" y1="976.88617" x2="2654.42522" y2="1089.12906"/><line x1="3120.57478" y1="1089.12906" x2="3178.1395" y2="1341.33657"/><line x1="3178.1395" y1="1341.33657" x2="3016.84675" y2="1543.59128"/><line x1="3016.84675" y1="1543.59128" x2="2758.15325" y2="1543.59128"/><line x1="2758.15325" y1="1543.59128" x2="2596.8605" y2="1341.33657"/><line x1="2596.8605" y1="1341.33657" x2="2654.42522" y2="1089.12906"/></g><g stroke="#000000" stroke-linecap="round" stroke-dasharray="2,3"><line x1="2887.5" y1="936.92918" x2="3151.81441" y2="1064.21629"/><line x1="2887.5" y1="936.92918" x2="2623.18559" y2="1064.21629"/><line x1="3151.81441" y1="1064.21629" x2="3217.09468" y2="1350.22783"/><line x1="3217.09468" y1="1350.22783" x2="3034.18343" y2="1579.59128"/><line x1="3034.18343" y1="1579.59128" x2="2740.81657" y2="1579.59128"/><line x1="2740.81657" y1="1579.59128" x2="2557.90532" y2="1350.22783"/><line x1="2557.90532" y1="1350.22783" x2="2623.18559" y2="1064.21629"/></g><g stroke="#000000" stroke-linecap="round" stroke-dasharray="2,3"><line x1="2887.5" y1="896.97219" x2="3183.05404" y2="1039.30352"/><line x1="2887.5" y1="896.97219" x2="2591.94596" y2="1039.30352"/><line x1="3183.05404" y1="1039.30352" x2="3256.04986" y2="1359.1191"/><line x1="3256.04986" y1="1359.1191" x2="3051.52012" y2="1615.59128"/><line x1="3051.52012" y1="1615.59128" x2="2723.47988" y2="1615.59128"/><line x1="2723.47988" y1="1615.59128" x2="2518.95014" y2="1359.1191"/><line x1="2518.95014" y1="1359.1191" x2="2591.94596" y2="1039.30352"/></g><g stroke="#000000" stroke-linecap="round" stroke-dasharray="2,3"><line x1="2887.5" y1="857.01521" x2="3214.29367" y2="1014.39075"/><line x1="2887.5" y1="857.01521" x2="2560.70633" y2="1014.39075"/><line x1="3214.29367" y1="1014.39075" x2="3295.00504" y2="1368.01037"/><line x1="3295.00504" y1="1368.01037" x2="3068.8568" y2="1651.59128"/><line x1="3068.8568" y1="1651.59128" x2="2706.1432" y2="1651.59128"/><line x1="2706.1432" y1="1651.59128" x2="2479.99496" y2="1368.01037"/><line x1="2479.99496" y1="1368.01037" x2="2560.70633" y2="1014.39075"/></g><g stroke="#000000" stroke-linecap="round" stroke-dasharray="2,3"><line x1="2887.5" y1="817.05822" x2="3245.5333" y2="989.47797"/><line x1="2887.5" y1="817.05822" x2="2529.4667" y2="989.47797"/><line x1="3245.5333" y1="989.47797" x2="3333.96022" y2="1376.90163"/><line x1="3333.96022" y1="1376.90163" x2="3086.19349" y2="1687.59128"/><line x1="3086.19349" y1="1687.59128" x2="2688.80651" y2="1687.59128"/><line x1="2688.80651" y1="1687.59128" x2="2441.03978" y2="1376.90163"/><line x1="2441.03978" y1="1376.90163" x2="2529.4667" y2="989.47797"/></g><g stroke="#000000" stroke-linecap="round" stroke-dasharray="2,3"><line x1="2887.5" y1="777.10124" x2="3276.77293" y2="964.5652"/><line x1="2887.5" y1="777.10124" x2="2498.22707" y2="964.5652"/><line x1="3276.77293" y1="964.5652" x2="3372.9154" y2="1385.7929"/><line x1="3372.9154" y1="1385.7929" x2="3103.53018" y2="1723.59128"/><line x1="3103.53018" y1="1723.59128" x2="2671.46982" y2="1723.59128"/><line x1="2671.46982" y1="1723.59128" x2="2402.0846" y2="1385.7929"/><line x1="2402.0846" y1="1385.7929" x2="2498.22707" y2="964.5652"/></g><g stroke="#000000" stroke-linecap="round" stroke-dasharray="2,3"><line x1="2887.5" y1="737.14425" x2="3308.01256" y2="939.65243"/><line x1="2887.5" y1="737.14425" x2="2466.98744" y2="939.65243"/><line x1="3308.01256" y1="939.65243" x2="3411.87058" y2="1394.68416"/><line x1="3411.87058" y1="1394.68416" x2="3120.86686" y2="1759.59128"/><line x1="3120.86686" y1="1759.59128" x2="2654.13314" y2="1759.59128"/><line x1="2654.13314" y1="1759.59128" x2="2363.12942" y2="1394.68416"/><line x1="2363.12942" y1="1394.68416" x2="2466.98744" y2="939.65243"/></g><g stroke="#000000" stroke-linecap="round" stroke-dasharray="2,3"><line x1="2887.5" y1="697.18727" x2="3339.25219" y2="914.73965"/><line x1="2887.5" y1="697.18727" x2="2435.74781" y2="914.73965"/><line x1="3339.25219" y1="914.73965" x2="3450.82576" y2="1403.57543"/><line x1="3450.82576" y1="1403.57543" x2="3138.20355" y2="1795.59128"/><line x1="3138.20355" y1="1795.59128" x2="2636.79645" y2="1795.59128"/><line x1="2636.79645" y1="1795.59128" x2="2324.17424" y2="1403.57543"/><line x1="2324.17424" y1="1403.57543" x2="2435.74781" y2="914.73965"/></g><g stroke="#000000" stroke-linecap="round" stroke-dasharray="2,3"><line x1="2887.5" y1="657.23028" x2="3370.49181" y2="889.82688"/><line x1="2887.5" y1="657.23028" x2="2404.50819" y2="889.82688"/><line x1="3370.49181" y1="889.82688" x2="3489.78094" y2="1412.46669"/><line x1="3489.78094" y1="1412.46669" x2="3155.54024" y2="1831.59128"/><line x1="3155.54024" y1="1831.59128" x2="2619.45976" y2="1831.59128"/><line x1="2619.45976" y1="1831.59128" x2="2285.21906" y2="1412.46669"/><line x1="2285.21906" y1="1412.46669" x2="2404.50819" y2="889.82688"/></g><g stroke="#000000" stroke-linecap="round" stroke-dasharray="2,3"><line x1="2887.5" y1="617.2733" x2="3401.73144" y2="864.91411"/><line x1="2887.5" y1="617.2733" x2="2373.26856" y2="864.91411"/><line x1="3401.73144" y1="864.91411" x2="3528.73612" y2="1421.35796"/><line x1="3528.73612" y1="1421.35796" x2="3172.87692" y2="1867.59128"/><line x1="3172.87692" y1="1867.59128" x2="2602.12308" y2="1867.59128"/><line x1="2602.12308" y1="1867.59128" x2="2246.26388" y2="1421.35796"/><line x1="2246.26388" y1="1421.35796" x2="2373.26856" y2="864.91411"/></g><g stroke="#000000" stroke-linecap="round" stroke-dasharray="2,3"><line x1="2887.5" y1="577.31631" x2="3432.97107" y2="840.00133"/><line x1="2887.5" y1="577.31631" x2="2342.02893" y2="840.00133"/><line x1="3432.97107" y1="840.00133" x2="3567.6913" y2="1430.24923"/><line x1="3567.6913" y1="1430.24923" x2="3190.21361" y2="1903.59128"/><line x1="3190.21361" y1="1903.59128" x2="2584.78639" y2="1903.59128"/><line x1="2584.78639" y1="1903.59128" x2="2207.3087" y2="1430.24923"/><line x1="2207.3087" y1="1430.24923" x2="2342.02893" y2="840.00133"/></g><g stroke="#000000" stroke-linecap="round" stroke-dasharray="2,3"><line x1="2887.5" y1="537.35933" x2="3464.2107" y2="815.08856"/><line x1="2887.5" y1="537.35933" x2="2310.7893" y2="815.08856"/><line x1="3464.2107" y1="815.08856" x2="3606.64648" y2="1439.14049"/><line x1="3606.64648" y1="1439.14049" x2="3207.55029" y2="1939.59128"/><line x1="3207.55029" y1="1939.59128" x2="2567.44971" y2="1939.59128"/><line x1="2567.44971" y1="1939.59128" x2="2168.35352" y2="1439.14049"/><line x1="2168.35352" y1="1439.14049" x2="2310.7893" y2="815.08856"/></g><g stroke="#000000" stroke-linecap="round" stroke-dasharray="2,3"><line x1="2887.5" y1="497.40234" x2="3495.45033" y2="790.17579"/><line x1="2887.5" y1="497.40234" x2="2279.54967" y2="790.17579"/><line x1="3495.45033" y1="790.17579" x2="3645.60166" y2="1448.03176"/><line x1="3645.60166" y1="1448.03176" x2="3224.88698" y2="1975.59128"/><line x1="3224.88698" y1="1975.59128" x2="2550.11302" y2="1975.59128"/><line x1="2550.11302" y1="1975.59128" x2="2129.39834" y2="1448.03176"/><line x1="2129.39834" y1="1448.03176" x2="2279.54967" y2="790.17579"/></g></g><polygon points="0,2550 0,1700 825,1700 825,2550" stroke="#000000" stroke-width="1" stroke-linecap="butt" stroke-dasharray="1,4"/><line x1="412.5" y1="1968.21244" x2="569.28756" y2="2125" stroke="#000000" stroke-width="2" stroke-linecap="round" stroke-dasharray=""/><line x1="412.5" y1="1968.21244" x2="523.36554" y2="2235.86554" stroke="#000000" stroke-width="2" stroke-linecap="round" stroke-dasharray=""/><line x1="412.5" y1="1968.21244" x2="412.5" y2="2281.78756" stroke="#000000" stroke-width="2" stroke-linecap="round" stroke-dasharray=""/><line x1="412.5" y1="1968.21244" x2="301.63446" y2="2235.86554" stroke="#000000" stroke-width="2" stroke-linecap="round" stroke-dasharray=""/><line x1="412.5" y1="1968.21244" x2="255.71244" y2="2125" stroke="#000000" stroke-width="2" stroke-linecap="round" stroke-dasharray=""/><line x1="523.36554" y1="2014.13446" x2="523.36554" y2="2235.86554" stroke="#000000" stroke-width="2" stroke-linecap="round" stroke-dasharray=""/><line x1="523.36554" y1="2014.13446" x2="412.5" y2="2281.78756" stroke="#000000" stroke-width="2" stroke-linecap="round" stroke-dasharray=""/><line x1="523.36554" y1="2014.13446" x2="301.63446" y2="2235.86554" stroke="#000000" stroke-width="2" stroke-linecap="round" stroke-dasharray=""/><line x1="523.36554" y1="2014.13446" x2="255.71244" y2="2125" stroke="#000000" stroke-width="2" stroke-linecap="round" stroke-dasharray=""/><line x1="523.36554" y1="2014.13446" x2="301.63446" y2="2014.13446" stroke="#000000" stroke-width="2" stroke-linecap="round" stroke-dasharray=""/><line x1="569.28756" y1="2125" x2="412.5" y2="2281.78756" stroke="#000000" stroke-width="2" stroke-linecap="round" stroke-dasharray=""/><line x1="569.28756" y1="2125" x2="301.63446" y2="2235.86554" stroke="#000000" stroke-width="2" stroke-linecap="round" stroke-dasharray=""/><line x1="569.28756" y1="2125" x2="255.71244" y2="2125" stroke="#000000" stroke-width="2" stroke-linecap="round" stroke-dasharray=""/><line x1="569.28756" y1="2125" x2="301.63446" y2="2014.13446" stroke="#000000" stroke-width="2" stroke-linecap="round" stroke-dasharray=""/><line x1="523.36554" y1="2235.86554" x2="301.63446" y2="2235.86554" stroke="#000000" stroke-width="2" stroke-linecap="round" stroke-dasharray=""/><line x1="523.36554" y1="2235.86554" x2="255.71244" y2="2125" stroke="#000000" stroke-width="2" stroke-linecap="round" stroke-dasharray=""/><line x1="523.36554" y1="2235.86554" x2="301.63446" y2="2014.13446" stroke="#000000" stroke-width="2" stroke-linecap="round" stroke-dasharray=""/><line x1="412.5" y1="2281.78756" x2="255.71244" y2="2125" stroke="#000000" stroke-width="2" stroke-linecap="round" stroke-dasharray=""/><line x1="412.5" y1="2281.78756" x2="301.63446" y2="2014.13446" stroke="#000000" stroke-width="2" stroke-linecap="round" stroke-dasharray=""/><line x1="301.63446" y1="2235.86554" x2="301.63446" y2="2014.13446" stroke="#000000" stroke-width="2" stroke-linecap="round" stroke-dasharray=""/><g stroke="#000000" stroke-width="2" stroke-linecap="round" stroke-dasharray=""><line x1="412.5" y1="1968.21244" x2="523.36554" y2="2014.13446"/><line x1="412.5" y1="1968.21244" x2="301.63446" y2="2014.13446"/><line x1="523.36554" y1="2014.13446" x2="569.28756" y2="2125"/><line x1="569.28756" y1="2125" x2="523.36554" y2="2235.86554"/><line x1="523.36554" y1="2235.86554" x2="412.5" y2="2281.78756"/><line x1="412.5" y1="2281.78756" x2="301.63446" y2="2235.86554"/><line x1="301.63446" y1="2235.86554" x2="255.71244" y2="2125"/><line x1="255.71244" y1="2125" x2="301.63446" y2="2014.13446"/></g><g clip-path="url(#clip-8)" stroke-width="1"><g stroke="#000000" stroke-linecap="round" stroke-dasharray="2,3"><line x1="412.5" y1="1929.24633" x2="550.91875" y2="1986.58125"/><line x1="412.5" y1="1929.24633" x2="274.08125" y2="1986.58125"/><line x1="550.91875" y1="1986.58125" x2="608.25367" y2="2125"/><line x1="608.25367" y1="2125" x2="550.91875" y2="2263.41875"/><line x1="550.91875" y1="2263.41875" x2="412.5" y2="2320.75367"/><line x1="412.5" y1="2320.75367" x2="274.08125" y2="2263.41875"/><line x1="274.08125" y1="2263.41875" x2="216.74633" y2="2125"/><line x1="216.74633" y1="2125" x2="274.08125" y2="1986.58125"/></g><g stroke="#000000" stroke-linecap="round" stroke-dasharray="2,3"><line x1="412.5" y1="1890.28021" x2="578.47196" y2="1959.02804"/><line x1="412.5" y1="1890.28021" x2="246.52804" y2="1959.02804"/><line x1="578.47196" y1="1959.02804" x2="647.21979" y2="2125"/><line x1="647.21979" y1="2125" x2="578.47196" y2="2290.97196"/><line x1="578.47196" y1="2290.97196" x2="412.5" y2="2359.71979"/><line x1="412.5" y1="2359.71979" x2="246.52804" y2="2290.97196"/><line x1="246.52804" y1="2290.97196" x2="177.78021" y2="2125"/><line x1="177.78021" y1="2125" x2="246.52804" y2="1959.02804"/></g><g stroke="#000000" stroke-linecap="round" stroke-dasharray="2,3"><line x1="412.5" y1="1851.31409" x2="606.02517" y2="1931.47483"/><line x1="412.5" y1="1851.31409" x2="218.97483" y2="1931.47483"/><line x1="606.02517" y1="1931.47483" x2="686.18591" y2="2125"/><line x1="686.18591" y1="2125" x2="606.02517" y2="2318.52517"/><line x1="606.02517" y1="2318.52517" x2="412.5" y2="2398.68591"/><line x1="412.5" y1="2398.68591" x2="218.97483" y2="2318.52517"/><line x1="218.97483" y1="2318.52517" x2="138.81409" y2="2125"/><line x1="138.81409" y1="2125" x2="218.97483" y2="1931.47483"/></g><g stroke="#000000" stroke-linecap="round" stroke-dasharray="2,3"><line x1="412.5" y1="1812.34797" x2="633.57837" y2="1903.92163"/><line x1="412.5" y1="1812.34797" x2="191.42163" y2="1903.92163"/><line x1="633.57837" y1="1903.92163" x2="725.15203" y2="2125"/><line x1="725.15203" y1="2125" x2="633.57837" y2="2346.07837"/><line x1="633.57837" y1="2346.07837" x2="412.5" y2="2437.65203"/><line x1="412.5" y1="2437.65203" x2="191.42163" y2="2346.07837"/><line x1="191.42163" y1="2346.07837" x2="99.84797" y2="2125"/><line x1="99.84797" y1="2125" x2="191.42163" y2="1903.92163"/></g><g stroke="#000000" stroke-linecap="round" stroke-dasharray="2,3"><line x1="412.5" y1="1773.38185" x2="661.13158" y2="1876.36842"/><line x1="412.5" y1="1773.38185" x2="163.86842" y2="1876.36842"/><line x1="661.13158" y1="1876.36842" x2="764.11815" y2="2125"/><line x1="764.11815" y1="2125" x2="661.13158" y2="2373.63158"/><line x1="661.13158" y1="2373.63158" x2="412.5" y2="2476.61815"/><line x1="412.5" y1="2476.61815" x2="163.86842" y2="2373.63158"/><line x1="163.86842" y1="2373.63158" x2="60.88185" y2="2125"/><line x1="60.88185" y1="2125" x2="163.86842" y2="1876.36842"/></g><g stroke="#000000" stroke-linecap="round" stroke-dasharray="2,3"><line x1="412.5" y1="1734.41573" x2="688.68479" y2="1848.81521"/><line x1="412.5" y1="1734.41573" x2="136.31521" y2="1848.81521"/><line x1="688.68479" y1="1848.81521" x2="803.08427" y2="2125"/><line x1="803.08427" y1="2125" x2="688.68479" y2="2401.18479"/><line x1="688.68479" y1="2401.18479" x2="412.5" y2="2515.58427"/><line x1="412.5" y1="2515.58427" x2="136.31521" y2="2401.18479"/><line x1="136.31521" y1="2401.18479" x2="21.91573" y2="2125"/><line x1="21.91573" y1="2125" x2="136.31521" y2="1848.81521"/></g><g stroke="#000000" stroke-linecap="round" stroke-dasharray="2,3"><line x1="412.5" y1="1695.44961" x2="716.23799" y2="1821.26201"/><line x1="412.5" y1="1695.44961" x2="108.76201" y2="1821.26201"/><line x1="716.23799" y1="1821.26201" x2="842.05039" y2="2125"/><line x1="842.05039" y1="2125" x2="716.23799" y2="2428.73799"/><line x1="716.23799" y1="2428.73799" x2="412.5" y2="2554.55039"/><line x1="412.5" y1="2554.55039" x2="108.76201" y2="2428.73799"/><line x1="108.76201" y1="2428.73799" x2="-17.05039" y2="2125"/><line x1="-17.05039" y1="2125" x2="108.76201" y2="1821.26201"/></g><g stroke="#000000" stroke-linecap="round" stroke-dasharray="2,3"><line x1="412.5" y1="1656.48349" x2="743.7912" y2="1793.7088"/><line x1="412.5" y1="1656.48349" x2="81.2088" y2="1793.7088"/><line x1="743.7912" y1="1793.7088" x2="881.01651" y2="2125"/><line x1="881.01651" y1="2125" x2="743.7912" y2="2456.2912"/><line x1="743.7912" y1="2456.2912" x2="412.5" y2="2593.51651"/><line x1="412.5" y1="2593.51651" x2="81.2088" y2="2456.2912"/><line x1="81.2088" y1="2456.2912" x2="-56.01651" y2="2125"/><line x1="-56.01651" y1="2125" x2="81.2088" y2="1793.7088"/></g><g stroke="#000000" stroke-linecap="round" stroke-dasharray="2,3"><line x1="412.5" y1="1617.51737" x2="771.34441" y2="1766.15559"/><line x1="412.5" y1="1617.51737" x2="53.65559" y2="1766.15559"/><line x1="771.34441" y1="1766.15559" x2="919.98263" y2="2125"/><line x1="919.98263" y1="2125" x2="771.34441" y2="2483.84441"/><line x1="771.34441" y1="2483.84441" x2="412.5" y2="2632.48263"/><line x1="412.5" y1="2632.48263" x2="53.65559" y2="2483.84441"/><line x1="53.65559" y1="2483.84441" x2="-94.98263" y2="2125"/><line x1="-94.98263" y1="2125" x2="53.65559" y2="1766.15559"/></g><g stroke="#000000" stroke-linecap="round" stroke-dasharray="2,3"><line x1="412.5" y1="1578.55125" x2="798.89762" y2="1738.60238"/><line x1="412.5" y1="1578.55125" x2="26.10238" y2="1738.60238"/><line x1="798.89762" y1="1738.60238" x2="958.94875" y2="2125"/><line x1="958.94875" y1="2125" x2="798.89762" y2="2511.39762"/><line x1="798.89762" y1="2511.39762" x2="412.5" y2="2671.44875"/><line x1="412.5" y1="2671.44875" x2="26.10238" y2="2511.39762"/><line x1="26.10238" y1="2511.39762" x2="-133.94875" y2="2125"/><line x1="-133.94875" y1="2125" x2="26.10238" y2="1738.60238"/></g><g stroke="#000000" stroke-linecap="round" stroke-dasharray="2,3"><line x1="412.5" y1="1539.58513" x2="826.45082" y2="1711.04918"/><line x1="412.5" y1="1539.58513" x2="-1.45082" y2="1711.04918"/><line x1="826.45082" y1="1711.04918" x2="997.91487" y2="2125"/><line x1="997.91487" y1="2125" x2="826.45082" y2="2538.95082"/><line x1="826.45082" y1="2538.95082" x2="412.5" y2="2710.41487"/><line x1="412.5" y1="2710.41487" x2="-1.45082" y2="2538.95082"/><line x1="-1.45082" y1="2538.95082" x2="-172.91487" y2="2125"/><line x1="-172.91487" y1="2125" x2="-1.45082" y2="1711.04918"/></g><g stroke="#000000" stroke-linecap="round" stroke-dasharray="2,3"><line x1="412.5" y1="1500.61901" x2="854.00403" y2="1683.49597"/><line x1="412.5" y1="1500.61901" x2="-29.00403" y2="1683.49597"/><line x1="854.00403" y1="1683.49597" x2="1036.88099" y2="2125"/><line x1="1036.88099" y1="2125" x2="854.00403" y2="2566.50403"/><line x1="854.00403" y1="2566.50403" x2="412.5" y2="2749.38099"/><line x1="412.5" y1="2749.38099" x2="-29.00403" y2="2566.50403"/><line x1="-29.00403" y1="2566.50403" x2="-211.88099" y2="2125"/><line x1="-211.88099" y1="2125" x2="-29.00403" y2="1683.49597"/></g><g stroke="#000000" stroke-linecap="round" stroke-dasharray="2,3"><line x1="412.5" y1="1461.65289" x2="881.55724" y2="1655.94276"/><line x1="412.5" y1="1461.65289" x2="-56.55724" y2="1655.94276"/><line x1="881.55724" y1="1655.94276" x2="1075.84711" y2="2125"/><line x1="1075.84711" y1="2125" x2="881.55724" y2="2594.05724"/><line x1="881.55724" y1="2594.05724" x2="412.5" y2="2788.34711"/><line x1="412.5" y1="2788.34711" x2="-56.55724" y2="2594.05724"/><line x1="-56.55724" y1="2594.05724" x2="-250.84711" y2="2125"/><line x1="-250.84711" y1="2125" x2="-56.55724" y2="1655.94276"/></g><g stroke="#000000" stroke-linecap="round" stroke-dasharray="2,3"><line x1="412.5" y1="1422.68678" x2="909.11044" y2="1628.38956"/><line x1="412.5" y1="1422.68678" x2="-84.11044" y2="1628.38956"/><line x1="909.11044" y1="1628.38956" x2="1114.81322" y2="2125"/><line x1="1114.81322" y1="2125" x2="909.11044" y2="2621.61044"/><line x1="909.11044" y1="2621.61044" x2="412.5" y2="2827.31322"/><line x1="412.5" y1="2827.31322" x2="-84.11044" y2="2621.61044"/><line x1="-84.11044" y1="2621.61044" x2="-289.81322" y2="2125"/><line x1="-289.81322" y1="2125" x2="-84.11044" y2="1628.38956"/></g><g stroke="#000000" stroke-linecap="round" stroke-dasharray="2,3"><line x1="412.5" y1="1383.72066" x2="936.66365" y2="1600.83635"/><line x1="412.5" y1="1383.72066" x2="-111.66365" y2="1600.83635"/><line x1="936.66365" y1="1600.83635" x2="1153.77934" y2="2125"/><line x1="1153.77934" y1="2125" x2="936.66365" y2="2649.16365"/><line x1="936.66365" y1="2649.16365" x2="412.5" y2="2866.27934"/><line x1="412.5" y1="2866.27934" x2="-111.66365" y2="2649.16365"/><line x1="-111.66365" y1="2649.16365" x2="-328.77934" y2="2125"/><line x1="-328.77934" y1="2125" x2="-111.66365" y2="1600.83635"/></g><g stroke="#000000" stroke-linecap="round" stroke-dasharray="2,3"><line x1="412.5" y1="1344.75454" x2="964.21686" y2="1573.28314"/><line x1="412.5" y1="1344.75454" x2="-139.21686" y2="1573.28314"/><line x1="964.21686" y1="1573.28314" x2="1192.74546" y2="2125"/><line x1="1192.74546" y1="2125" x2="964.21686" y2="2676.71686"/><line x1="964.21686" y1="2676.71686" x2="412.5" y2="2905.24546"/><line x1="412.5" y1="2905.24546" x2="-139.21686" y2="2676.71686"/><line x1="-139.21686" y1="2676.71686" x2="-367.74546" y2="2125"/><line x1="-367.74546" y1="2125" x2="-139.21686" y2="1573.28314"/></g></g><polygon points="825,2550 825,1700 1650,1700 1650,2550" stroke="#000000" stroke-width="1" stroke-linecap="butt" stroke-dasharray="1,4"/><line x1="1237.5" y1="1949.57174" x2="1410.26311" y2="2094.5372" stroke="#000000" stroke-width="2" stroke-linecap="round" stroke-dasharray=""/><line x1="1237.5" y1="1949.57174" x2="1389.42533" y2="2212.71413" stroke="#000000" stroke-width="2" stroke-linecap="round" stroke-dasharray=""/><line x1="1237.5" y1="1949.57174" x2="1297.5" y2="2289.84865" stroke="#000000" stroke-width="2" stroke-linecap="round" stroke-dasharray=""/><line x1="1237.5" y1="1949.57174" x2="1177.5" y2="2289.84865" stroke="#000000" stroke-width="2" stroke-linecap="round" stroke-dasharray=""/><line x1="1237.5" y1="1949.57174" x2="1085.57467" y2="2212.71413" stroke="#000000" stroke-width="2" stroke-linecap="round" stroke-dasharray=""/><line x1="1237.5" y1="1949.57174" x2="1064.73689" y2="2094.5372" stroke="#000000" stroke-width="2" stroke-linecap="round" stroke-dasharray=""/><line x1="1350.26311" y1="1990.61415" x2="1389.42533" y2="2212.71413" stroke="#000000" stroke-width="2" stroke-linecap="round" stroke-dasharray=""/><line x1="1350.26311" y1="1990.61415" x2="1297.5" y2="2289.84865" stroke="#000000" stroke-width="2" stroke-linecap="round" stroke-dasharray=""/><line x1="1350.26311" y1="1990.61415" x2="1177.5" y2="2289.84865" stroke="#000000" stroke-width="2" stroke-linecap="round" stroke-dasharray=""/><line x1="1350.26311" y1="1990.61415" x2="1085.57467" y2="2212.71413" stroke="#000000" stroke-width="2" stroke-linecap="round" stroke-dasharray=""/><line x1="1350.26311" y1="1990.61415" x2="1064.73689" y2="2094.5372" stroke="#000000" stroke-width="2" stroke-linecap="round" stroke-dasharray=""/><line x1="1350.26311" y1="1990.61415" x2="1124.73689" y2="1990.61415" stroke="#000000" stroke-width="2" stroke-linecap="round" stroke-dasharray=""/><line x1="1410.26311" y1="2094.5372" x2="1297.5" y2="2289.84865" stroke="#000000" stroke-width="2" stroke-linecap="round" stroke-dasharray=""/><line x1="1410.26311" y1="2094.5372" x2="1177.5" y2="2289.84865" stroke="#000000" stroke-width="2" stroke-linecap="round" stroke-dasharray=""/><line x1="1410.26311" y1="2094.5372" x2="1085.57467" y2="2212.71413" stroke="#000000" stroke-width="2" stroke-linecap="round" stroke-dasharray=""/><line x1="1410.26311" y1="2094.5372" x2="1064.73689" y2="2094.5372" stroke="#000000" stroke-width="2" stroke-linecap="round" stroke-dasharray=""/><line x1="1410.26311" y1="2094.5372" x2="1124.73689" y2="1990.61415" stroke="#000000" stroke-width="2" stroke-linecap="round" stroke-dasharray=""/><line x1="1389.42533" y1="2212.71413" x2="1177.5" y2="2289.84865" stroke="#000000" stroke-width="2" stroke-linecap="round" stroke-dasharray=""/><line x1="1389.42533" y1="2212.71413" x2="1085.57467" y2="2212.71413" stroke="#000000" stroke-width="2" stroke-linecap="round" stroke-dasharray=""/><line x1="1389.42533" y1="2212.71413" x2="1064.73689" y2="2094.5372" stroke="#000000" stroke-width="2" stroke-linecap="round" stroke-dasharray=""/><line x1="1389.42533" y1="2212.71413" x2="1124.73689" y2="1990.61415" stroke="#000000" stroke-width="2" stroke-linecap="round" stroke-dasharray=""/><line x1="1297.5" y1="2289.84865" x2="1085.57467" y2="2212.71413" stroke="#000000" stroke-width="2" stroke-linecap="round" stroke-dasharray=""/><line x1="1297.5" y1="2289.84865" x2="1064.73689" y2="2094.5372" stroke="#000000" stroke-width="2" stroke-linecap="round" stroke-dasharray=""/><line x1="1297.5" y1="2289.84865" x2="1124.73689" y2="1990.61415" stroke="#000000" stroke-width="2" stroke-linecap="round" stroke-dasharray=""/><line x1="1177.5" y1="2289.84865" x2="1064.73689" y2="2094.5372" stroke="#000000" stroke-width="2" stroke-linecap="round" stroke-dasharray=""/><line x1="1177.5" y1="2289.84865" x2="1124.73689" y2="1990.61415" stroke="#000000" stroke-width="2" stroke-linecap="round" stroke-dasharray=""/><line x1="1085.57467" y1="2212.71413" x2="1124.73689" y2="1990.61415" stroke="#000000" stroke-width="2" stroke-linecap="round" stroke-dasharray=""/><g stroke="#000000" stroke-width="2" stroke-linecap="round" stroke-dasharray=""><line x1="1237.5" y1="1949.57174" x2="1350.26311" y2="1990.61415"/><line x1="1237.5" y1="1949.57174" x2="1124.73689" y2="1990.61415"/><line x1="1350.26311" y1="1990.61415" x2="1410.26311" y2="2094.5372"/><line x1="1410.26311" y1="2094.5372" x2="1389.42533" y2="2212.71413"/><line x1="1389.42533" y1="2212.71413" x2="1297.5" y2="2289.84865"/><line x1="1297.5" y1="2289.84865" x2="1177.5" y2="2289.84865"/><line x1="1177.5" y1="2289.84865" x2="1085.57467" y2="2212.71413"/><line x1="1085.57467" y1="2212.71413" x2="1064.73689" y2="2094.5372"/><line x1="1064.73689" y1="2094.5372" x2="1124.73689" y2="1990.61415"/></g><g clip-path="url(#clip-9)" stroke-width="1"><g stroke="#000000" stroke-linecap="round" stroke-dasharray="2,3"><line x1="1237.5" y1="1911.26134" x2="1374.88856" y2="1961.26668"/><line x1="1237.5" y1="1911.26134" x2="1100.11144" y2="1961.26668"/><line x1="1374.88856" y1="1961.26668" x2="1447.99149" y2="2087.88467"/><line x1="1447.99149" y1="2087.88467" x2="1422.60311" y2="2231.86933"/><line x1="1422.60311" y1="2231.86933" x2="1310.60293" y2="2325.84865"/><line x1="1310.60293" y1="2325.84865" x2="1164.39707" y2="2325.84865"/><line x1="1164.39707" y1="2325.84865" x2="1052.39689" y2="2231.86933"/><line x1="1052.39689" y1="2231.86933" x2="1027.00851" y2="2087.88467"/><line x1="1027.00851" y1="2087.88467" x2="1100.11144" y2="1961.26668"/></g><g stroke="#000000" stroke-linecap="round" stroke-dasharray="2,3"><line x1="1237.5" y1="1872.95094" x2="1399.51402" y2="1931.91922"/><line x1="1237.5" y1="1872.95094" x2="1075.48598" y2="1931.91922"/><line x1="1399.51402" y1="1931.91922" x2="1485.71987" y2="2081.23214"/><line x1="1485.71987" y1="2081.23214" x2="1455.78089" y2="2251.02453"/><line x1="1455.78089" y1="2251.02453" x2="1323.70586" y2="2361.84865"/><line x1="1323.70586" y1="2361.84865" x2="1151.29414" y2="2361.84865"/><line x1="1151.29414" y1="2361.84865" x2="1019.21911" y2="2251.02453"/><line x1="1019.21911" y1="2251.02453" x2="989.28013" y2="2081.23214"/><line x1="989.28013" y1="2081.23214" x2="1075.48598" y2="1931.91922"/></g><g stroke="#000000" stroke-linecap="round" stroke-dasharray="2,3"><line x1="1237.5" y1="1834.64054" x2="1424.13947" y2="1902.57175"/><line x1="1237.5" y1="1834.64054" x2="1050.86053" y2="1902.57175"/><line x1="1424.13947" y1="1902.57175" x2="1523.44825" y2="2074.57961"/><line x1="1523.44825" y1="2074.57961" x2="1488.95867" y2="2270.17973"/><line x1="1488.95867" y1="2270.17973" x2="1336.80879" y2="2397.84865"/><line x1="1336.80879" y1="2397.84865" x2="1138.19121" y2="2397.84865"/><line x1="1138.19121" y1="2397.84865" x2="986.04133" y2="2270.17973"/><line x1="986.04133" y1="2270.17973" x2="951.55175" y2="2074.57961"/><line x1="951.55175" y1="2074.57961" x2="1050.86053" y2="1902.57175"/></g><g stroke="#000000" stroke-linecap="round" stroke-dasharray="2,3"><line x1="1237.5" y1="1796.33014" x2="1448.76492" y2="1873.22428"/><line x1="1237.5" y1="1796.33014" x2="1026.23508" y2="1873.22428"/><line x1="1448.76492" y1="1873.22428" x2="1561.17663" y2="2067.92708"/><line x1="1561.17663" y1="2067.92708" x2="1522.13645" y2="2289.33493"/><line x1="1522.13645" y1="2289.33493" x2="1349.91171" y2="2433.84865"/><line x1="1349.91171" y1="2433.84865" x2="1125.08829" y2="2433.84865"/><line x1="1125.08829" y1="2433.84865" x2="952.86355" y2="2289.33493"/><line x1="952.86355" y1="2289.33493" x2="913.82337" y2="2067.92708"/><line x1="913.82337" y1="2067.92708" x2="1026.23508" y2="1873.22428"/></g><g stroke="#000000" stroke-linecap="round" stroke-dasharray="2,3"><line x1="1237.5" y1="1758.01974" x2="1473.39037" y2="1843.87681"/><line x1="1237.5" y1="1758.01974" x2="1001.60963" y2="1843.87681"/><line x1="1473.39037" y1="1843.87681" x2="1598.90501" y2="2061.27455"/><line x1="1598.90501" y1="2061.27455" x2="1555.31423" y2="2308.49013"/><line x1="1555.31423" y1="2308.49013" x2="1363.01464" y2="2469.84865"/><line x1="1363.01464" y1="2469.84865" x2="1111.98536" y2="2469.84865"/><line x1="1111.98536" y1="2469.84865" x2="919.68577" y2="2308.49013"/><line x1="919.68577" y1="2308.49013" x2="876.09499" y2="2061.27455"/><line x1="876.09499" y1="2061.27455" x2="1001.60963" y2="1843.87681"/></g><g stroke="#000000" stroke-linecap="round" stroke-dasharray="2,3"><line x1="1237.5" y1="1719.70934" x2="1498.01582" y2="1814.52934"/><line x1="1237.5" y1="1719.70934" x2="976.98418" y2="1814.52934"/><line x1="1498.01582" y1="1814.52934" x2="1636.63339" y2="2054.62201"/><line x1="1636.63339" y1="2054.62201" x2="1588.49201" y2="2327.64533"/><line x1="1588.49201" y1="2327.64533" x2="1376.11757" y2="2505.84865"/><line x1="1376.11757" y1="2505.84865" x2="1098.88243" y2="2505.84865"/><line x1="1098.88243" y1="2505.84865" x2="886.50799" y2="2327.64533"/><line x1="886.50799" y1="2327.64533" x2="838.36661" y2="2054.62201"/><line x1="838.36661" y1="2054.62201" x2="976.98418" y2="1814.52934"/></g><g stroke="#000000" stroke-linecap="round" stroke-dasharray="2,3"><line x1="1237.5" y1="1681.39894" x2="1522.64127" y2="1785.18187"/><line x1="1237.5" y1="1681.39894" x2="952.35873" y2="1785.18187"/><line x1="1522.64127" y1="1785.18187" x2="1674.36177" y2="2047.96948"/><line x1="1674.36177" y1="2047.96948" x2="1621.66979" y2="2346.80053"/><line x1="1621.66979" y1="2346.80053" x2="1389.2205" y2="2541.84865"/><line x1="1389.2205" y1="2541.84865" x2="1085.7795" y2="2541.84865"/><line x1="1085.7795" y1="2541.84865" x2="853.33021" y2="2346.80053"/><line x1="853.33021" y1="2346.80053" x2="800.63823" y2="2047.96948"/><line x1="800.63823" y1="2047.96948" x2="952.35873" y2="1785.18187"/></g><g stroke="#000000" stroke-linecap="round" stroke-dasharray="2,3"><line x1="1237.5" y1="1643.08854" x2="1547.26672" y2="1755.8344"/><line x1="1237.5" y1="1643.08854" x2="927.73328" y2="1755.8344"/><line x1="1547.26672" y1="1755.8344" x2="1712.09014" y2="2041.31695"/><line x1="1712.09014" y1="2041.31695" x2="1654.84757" y2="2365.95573"/><line x1="1654.84757" y1="2365.95573" x2="1402.32343" y2="2577.84865"/><line x1="1402.32343" y1="2577.84865" x2="1072.67657" y2="2577.84865"/><line x1="1072.67657" y1="2577.84865" x2="820.15243" y2="2365.95573"/><line x1="820.15243" y1="2365.95573" x2="762.90986" y2="2041.31695"/><line x1="762.90986" y1="2041.31695" x2="927.73328" y2="1755.8344"/></g><g stroke="#000000" stroke-linecap="round" stroke-dasharray="2,3"><line x1="1237.5" y1="1604.77814" x2="1571.89217" y2="1726.48693"/><line x1="1237.5" y1="1604.77814" x2="903.10783" y2="1726.48693"/><line x1="1571.89217" y1="1726.48693" x2="1749.81852" y2="2034.66442"/><line x1="1749.81852" y1="2034.66442" x2="1688.02535" y2="2385.11093"/><line x1="1688.02535" y1="2385.11093" x2="1415.42636" y2="2613.84865"/><line x1="1415.42636" y1="2613.84865" x2="1059.57364" y2="2613.84865"/><line x1="1059.57364" y1="2613.84865" x2="786.97465" y2="2385.11093"/><line x1="786.97465" y1="2385.11093" x2="725.18148" y2="2034.66442"/><line x1="725.18148" y1="2034.66442" x2="903.10783" y2="1726.48693"/></g><g stroke="#000000" stroke-linecap="round" stroke-dasharray="2,3"><line x1="1237.5" y1="1566.46774" x2="1596.51762" y2="1697.13946"/><line x1="1237.5" y1="1566.46774" x2="878.48238" y2="1697.13946"/><line x1="1596.51762" y1="1697.13946" x2="1787.5469" y2="2028.01189"/><line x1="1787.5469" y1="2028.01189" x2="1721.20313" y2="2404.26613"/><line x1="1721.20313" y1="2404.26613" x2="1428.52928" y2="2649.84865"/><line x1="1428.52928" y1="2649.84865" x2="1046.47072" y2="2649.84865"/><line x1="1046.47072" y1="2649.84865" x2="753.79687" y2="2404.26613"/><line x1="753.79687" y1="2404.26613" x2="687.4531" y2="2028.01189"/><line x1="687.4531" y1="2028.01189" x2="878.48238" y2="1697.13946"/></g><g stroke="#000000" stroke-linecap="round" stroke-dasharray="2,3"><line x1="1237.5" y1="1528.15734" x2="1621.14307" y2="1667.792"/><line x1="1237.5" y1="1528.15734" x2="853.85693" y2="1667.792"/><line x1="1621.14307" y1="1667.792" x2="1825.27528" y2="2021.35936"/><line x1="1825.27528" y1="2021.35936" x2="1754.38091" y2="2423.42133"/><line x1="1754.38091" y1="2423.42133" x2="1441.63221" y2="2685.84865"/><line x1="1441.63221" y1="2685.84865" x2="1033.36779" y2="2685.84865"/><line x1="1033.36779" y1="2685.84865" x2="720.61909" y2="2423.42133"/><line x1="720.61909" y1="2423.42133" x2="649.72472" y2="2021.35936"/><line x1="649.72472" y1="2021.35936" x2="853.85693" y2="1667.792"/></g><g stroke="#000000" stroke-linecap="round" stroke-dasharray="2,3"><line x1="1237.5" y1="1489.84694" x2="1645.76852" y2="1638.44453"/><line x1="1237.5" y1="1489.84694" x2="829.23148" y2="1638.44453"/><line x1="1645.76852" y1="1638.44453" x2="1863.00366" y2="2014.70683"/><line x1="1863.00366" y1="2014.70683" x2="1787.55869" y2="2442.57653"/><line x1="1787.55869" y1="2442.57653" x2="1454.73514" y2="2721.84865"/><line x1="1454.73514" y1="2721.84865" x2="1020.26486" y2="2721.84865"/><line x1="1020.26486" y1="2721.84865" x2="687.44131" y2="2442.57653"/><line x1="687.44131" y1="2442.57653" x2="611.99634" y2="2014.70683"/><line x1="611.99634" y1="2014.70683" x2="829.23148" y2="1638.44453"/></g><g stroke="#000000" stroke-linecap="round" stroke-dasharray="2,3"><line x1="1237.5" y1="1451.53654" x2="1670.39397" y2="1609.09706"/><line x1="1237.5" y1="1451.53654" x2="804.60603" y2="1609.09706"/><line x1="1670.39397" y1="1609.09706" x2="1900.73204" y2="2008.0543"/><line x1="1900.73204" y1="2008.0543" x2="1820.73647" y2="2461.73173"/><line x1="1820.73647" y1="2461.73173" x2="1467.83807" y2="2757.84865"/><line x1="1467.83807" y1="2757.84865" x2="1007.16193" y2="2757.84865"/><line x1="1007.16193" y1="2757.84865" x2="654.26353" y2="2461.73173"/><line x1="654.26353" y1="2461.73173" x2="574.26796" y2="2008.0543"/><line x1="574.26796" y1="2008.0543" x2="804.60603" y2="1609.09706"/></g><g stroke="#000000" stroke-linecap="round" stroke-dasharray="2,3"><line x1="1237.5" y1="1413.22614" x2="1695.01942" y2="1579.74959"/><line x1="1237.5" y1="1413.22614" x2="779.98058" y2="1579.74959"/><line x1="1695.01942" y1="1579.74959" x2="1938.46042" y2="2001.40177"/><line x1="1938.46042" y1="2001.40177" x2="1853.91425" y2="2480.88693"/><line x1="1853.91425" y1="2480.88693" x2="1480.941" y2="2793.84865"/><line x1="1480.941" y1="2793.84865" x2="994.059" y2="2793.84865"/><line x1="994.059" y1="2793.84865" x2="621.08575" y2="2480.88693"/><line x1="621.08575" y1="2480.88693" x2="536.53958" y2="2001.40177"/><line x1="536.53958" y1="2001.40177" x2="779.98058" y2="1579.74959"/></g><g stroke="#000000" stroke-linecap="round" stroke-dasharray="2,3"><line x1="1237.5" y1="1374.91574" x2="1719.64487" y2="1550.40212"/><line x1="1237.5" y1="1374.91574" x2="755.35513" y2="1550.40212"/><line x1="1719.64487" y1="1550.40212" x2="1976.1888" y2="1994.74923"/><line x1="1976.1888" y1="1994.74923" x2="1887.09203" y2="2500.04213"/><line x1="1887.09203" y1="2500.04213" x2="1494.04393" y2="2829.84865"/><line x1="1494.04393" y1="2829.84865" x2="980.95607" y2="2829.84865"/><line x1="980.95607" y1="2829.84865" x2="587.90797" y2="2500.04213"/><line x1="587.90797" y1="2500.04213" x2="498.8112" y2="1994.74923"/><line x1="498.8112" y1="1994.74923" x2="755.35513" y2="1550.40212"/></g><g stroke="#000000" stroke-linecap="round" stroke-dasharray="2,3"><line x1="1237.5" y1="1336.60534" x2="1744.27032" y2="1521.05465"/><line x1="1237.5" y1="1336.60534" x2="730.72968" y2="1521.05465"/><line x1="1744.27032" y1="1521.05465" x2="2013.91717" y2="1988.0967"/><line x1="2013.91717" y1="1988.0967" x2="1920.2698" y2="2519.19733"/><line x1="1920.2698" y1="2519.19733" x2="1507.14685" y2="2865.84865"/><line x1="1507.14685" y1="2865.84865" x2="967.85315" y2="2865.84865"/><line x1="967.85315" y1="2865.84865" x2="554.7302" y2="2519.19733"/><line x1="554.7302" y1="2519.19733" x2="461.08283" y2="1988.0967"/><line x1="461.08283" y1="1988.0967" x2="730.72968" y2="1521.05465"/></g></g><polygon points="1650,2550 1650,1700 2475,1700 2475,2550" stroke="#000000" stroke-width="1" stroke-linecap="butt" stroke-dasharray="1,4"/><line x1="2062.5" y1="1930.83592" x2="2247.16101" y2="2065" stroke="#000000" stroke-width="2" stroke-linecap="round" stroke-dasharray=""/><line x1="2062.5" y1="1930.83592" x2="2247.16101" y2="2185" stroke="#000000" stroke-width="2" stroke-linecap="round" stroke-dasharray=""/><line x1="2062.5" y1="1930.83592" x2="2176.62678" y2="2282.08204" stroke="#000000" stroke-width="2" stroke-linecap="round" stroke-dasharray=""/><line x1="2062.5" y1="1930.83592" x2="2062.5" y2="2319.16408" stroke="#000000" stroke-width="2" stroke-linecap="round" stroke-dasharray=""/><line x1="2062.5" y1="1930.83592" x2="1948.37322" y2="2282.08204" stroke="#000000" stroke-width="2" stroke-linecap="round" stroke-dasharray=""/><line x1="2062.5" y1="1930.83592" x2="1877.83899" y2="2185" stroke="#000000" stroke-width="2" stroke-linecap="round" stroke-dasharray=""/><line x1="2062.5" y1="1930.83592" x2="1877.83899" y2="2065" stroke="#000000" stroke-width="2" stroke-linecap="round" stroke-dasharray=""/><line x1="2176.62678" y1="1967.91796" x2="2247.16101" y2="2185" stroke="#000000" stroke-width="2" stroke-linecap="round" stroke-dasharray=""/><line x1="2176.62678" y1="1967.91796" x2="2176.62678" y2="2282.08204" stroke="#000000" stroke-width="2" stroke-linecap="round" stroke-dasharray=""/><line x1="2176.62678" y1="1967.91796" x2="2062.5" y2="2319.16408" stroke="#000000" stroke-width="2" stroke-linecap="round" stroke-dasharray=""/><line x1="2176.62678" y1="1967.91796" x2="1948.37322" y2="2282.08204" stroke="#000000" stroke-width="2" stroke-linecap="round" stroke-dasharray=""/><line x1="2176.62678" y1="1967.91796" x2="1877.83899" y2="2185" stroke="#000000" stroke-width="2" stroke-linecap="round" stroke-dasharray=""/><line x1="2176.62678" y1="1967.91796" x2="1877.83899" y2="2065" stroke="#000000" stroke-width="2" stroke-linecap="round" stroke-dasharray=""/><line x1="2176.62678" y1="1967.91796" x2="1948.37322" y2="1967.91796" stroke="#000000" stroke-width="2" stroke-linecap="round" stroke-dasharray=""/><line x1="2247.16101" y1="2065" x2="2176.62678" y2="2282.08204" stroke="#000000" stroke-width="2" stroke-linecap="round" stroke-dasharray=""/><line x1="2247.16101" y1="2065" x2="2062.5" y2="2319.16408" stroke="#000000" stroke-width="2" stroke-linecap="round" stroke-dasharray=""/><line x1="2247.16101" y1="2065" x2="1948.37322" y2="2282.08204" stroke="#000000" stroke-width="2" stroke-linecap="round" stroke-dasharray=""/><line x1="2247.16101" y1="2065" x2="1877.83899" y2="2185" stroke="#000000" stroke-width="2" stroke-linecap="round" stroke-dasharray=""/><line x1="2247.16101" y1="2065" x2="1877.83899" y2="2065" stroke="#000000" stroke-width="2" stroke-linecap="round" stroke-dasharray=""/><line x1="2247.16101" y1="2065" x2="1948.37322" y2="1967.91796" stroke="#000000" stroke-width="2" stroke-linecap="round" stroke-dasharray=""/><line x1="2247.16101" y1="2185" x2="2062.5" y2="2319.16408" stroke="#000000" stroke-width="2" stroke-linecap="round" stroke-dasharray=""/><line x1="2247.16101" y1="2185" x2="1948.37322" y2="2282.08204" stroke="#000000" stroke-width="2" stroke-linecap="round" stroke-dasharray=""/><line x1="2247.16101" y1="2185" x2="1877.83899" y2="2185" stroke="#000000" stroke-width="2" stroke-linecap="round" stroke-dasharray=""/><line x1="2247.16101" y1="2185" x2="1877.83899" y2="2065" stroke="#000000" stroke-width="2" stroke-linecap="round" stroke-dasharray=""/><line x1="2247.16101" y1="2185" x2="1948.37322" y2="1967.91796" stroke="#000000" stroke-width="2" stroke-linecap="round" stroke-dasharray=""/><line x1="2176.62678" y1="2282.08204" x2="1948.37322" y2="2282.08204" stroke="#000000" stroke-width="2" stroke-linecap="round" stroke-dasharray=""/><line x1="2176.62678" y1="2282.08204" x2="1877.83899" y2="2185" stroke="#000000" stroke-width="2" stroke-linecap="round" stroke-dasharray=""/><line x1="2176.62678" y1="2282.08204" x2="1877.83899" y2="2065" stroke="#000000" stroke-width="2" stroke-linecap="round" stroke-dasharray=""/><line x1="2176.62678" y1="2282.08204" x2="1948.37322" y2="1967.91796" stroke="#000000" stroke-width="2" stroke-linecap="round" stroke-dasharray=""/><line x1="2062.5" y1="2319.16408" x2="1877.83899" y2="2185" stroke="#000000" stroke-width="2" stroke-linecap="round" stroke-dasharray=""/><line x1="2062.5" y1="2319.16408" x2="1877.83899" y2="2065" stroke="#000000" stroke-width="2" stroke-linecap="round" stroke-dasharray=""/><line x1="2062.5" y1="2319.16408" x2="1948.37322" y2="1967.91796" stroke="#000000" stroke-width="2" stroke-linecap="round" stroke-dasharray=""/><line x1="1948.37322" y1="2282.08204" x2="1877.83899" y2="2065" stroke="#000000" stroke-width="2" stroke-linecap="round" stroke-dasharray=""/><line x1="1948.37322" y1="2282.08204" x2="1948.37322" y2="1967.91796" stroke="#000000" stroke-width="2" stroke-linecap="round" stroke-dasharray=""/><line x1="1877.83899" y1="2185" x2="1948.37322" y2="1967.91796" stroke="#000000" stroke-width="2" stroke-linecap="round" stroke-dasharray=""/><g stroke="#000000" stroke-width="2" stroke-linecap="round" stroke-dasharray=""><line x1="2062.5" y1="1930.83592" x2="2176.62678" y2="1967.91796"/><line x1="2062.5" y1="1930.83592" x2="1948.37322" y2="1967.91796"/><line x1="2176.62678" y1="1967.91796" x2="2247.16101" y2="2065"/><line x1="2247.16101" y1="2065" x2="2247.16101" y2="2185"/><line x1="2247.16101" y1="2185" x2="2176.62678" y2="2282.08204"/><line x1="2176.62678" y1="2282.08204" x2="2062.5" y2="2319.16408"/><line x1="2062.5" y1="2319.16408" x2="1948.37322" y2="2282.08204"/><line x1="1948.37322" y1="2282.08204" x2="1877.83899" y2="2185"/><line x1="1877.83899" y1="2185" x2="1877.83899" y2="2065"/><line x1="1877.83899" y1="2065" x2="1948.37322" y2="1967.91796"/></g><g clip-path="url(#clip-10)" stroke-width="1"><g stroke="#000000" stroke-linecap="round" stroke-dasharray="2,3"><line x1="2062.5" y1="1892.98328" x2="2198.87601" y2="1937.29453"/><line x1="2062.5" y1="1892.98328" x2="1926.12399" y2="1937.29453"/><line x1="2198.87601" y1="1937.29453" x2="2283.16101" y2="2053.30289"/><line x1="2283.16101" y1="2053.30289" x2="2283.16101" y2="2196.69711"/><line x1="2283.16101" y1="2196.69711" x2="2198.87601" y2="2312.70547"/><line x1="2198.87601" y1="2312.70547" x2="2062.5" y2="2357.01672"/><line x1="2062.5" y1="2357.01672" x2="1926.12399" y2="2312.70547"/><line x1="1926.12399" y1="2312.70547" x2="1841.83899" y2="2196.69711"/><line x1="1841.83899" y1="2196.69711" x2="1841.83899" y2="2053.30289"/><line x1="1841.83899" y1="2053.30289" x2="1926.12399" y2="1937.29453"/></g><g stroke="#000000" stroke-linecap="round" stroke-dasharray="2,3"><line x1="2062.5" y1="1855.13064" x2="2221.12523" y2="1906.6711"/><line x1="2062.5" y1="1855.13064" x2="1903.87477" y2="1906.6711"/><line x1="2221.12523" y1="1906.6711" x2="2319.16101" y2="2041.60578"/><line x1="2319.16101" y1="2041.60578" x2="2319.16101" y2="2208.39422"/><line x1="2319.16101" y1="2208.39422" x2="2221.12523" y2="2343.3289"/><line x1="2221.12523" y1="2343.3289" x2="2062.5" y2="2394.86936"/><line x1="2062.5" y1="2394.86936" x2="1903.87477" y2="2343.3289"/><line x1="1903.87477" y1="2343.3289" x2="1805.83899" y2="2208.39422"/><line x1="1805.83899" y1="2208.39422" x2="1805.83899" y2="2041.60578"/><line x1="1805.83899" y1="2041.60578" x2="1903.87477" y2="1906.6711"/></g><g stroke="#000000" stroke-linecap="round" stroke-dasharray="2,3"><line x1="2062.5" y1="1817.278" x2="2243.37445" y2="1876.04767"/><line x1="2062.5" y1="1817.278" x2="1881.62555" y2="1876.04767"/><line x1="2243.37445" y1="1876.04767" x2="2355.16101" y2="2029.90867"/><line x1="2355.16101" y1="2029.90867" x2="2355.16101" y2="2220.09133"/><line x1="2355.16101" y1="2220.09133" x2="2243.37445" y2="2373.95233"/><line x1="2243.37445" y1="2373.95233" x2="2062.5" y2="2432.722"/><line x1="2062.5" y1="2432.722" x2="1881.62555" y2="2373.95233"/><line x1="1881.62555" y1="2373.95233" x2="1769.83899" y2="2220.09133"/><line x1="1769.83899" y1="2220.09133" x2="1769.83899" y2="2029.90867"/><line x1="1769.83899" y1="2029.90867" x2="1881.62555" y2="1876.04767"/></g><g stroke="#000000" stroke-linecap="round" stroke-dasharray="2,3"><line x1="2062.5" y1="1779.42536" x2="2265.62368" y2="1845.42424"/><line x1="2062.5" y1="1779.42536" x2="1859.37632" y2="1845.42424"/><line x1="2265.62368" y1="1845.42424" x2="2391.16101" y2="2018.21156"/><line x1="2391.16101" y1="2018.21156" x2="2391.16101" y2="2231.78844"/><line x1="2391.16101" y1="2231.78844" x2="2265.62368" y2="2404.57576"/><line x1="2265.62368" y1="2404.57576" x2="2062.5" y2="2470.57464"/><line x1="2062.5" y1="2470.57464" x2="1859.37632" y2="2404.57576"/><line x1="1859.37632" y1="2404.57576" x2="1733.83899" y2="2231.78844"/><line x1="1733.83899" y1="2231.78844" x2="1733.83899" y2="2018.21156"/><line x1="1733.83899" y1="2018.21156" x2="1859.37632" y2="1845.42424"/></g><g stroke="#000000" stroke-linecap="round" stroke-dasharray="2,3"><line x1="2062.5" y1="1741.57272" x2="2287.8729" y2="1814.80082"/><line x1="2062.5" y1="1741.57272" x2="1837.1271" y2="1814.80082"/><line x1="2287.8729" y1="1814.80082" x2="2427.16101" y2="2006.51445"/><line x1="2427.16101" y1="2006.51445" x2="2427.16101" y2="2243.48555"/><line x1="2427.16101" y1="2243.48555" x2="2287.8729" y2="2435.19918"/><line x1="2287.8729" y1="2435.19918" x2="2062.5" y2="2508.42728"/><line x1="2062.5" y1="2508.42728" x2="1837.1271" y2="2435.19918"/><line x1="1837.1271" y1="2435.19918" x2="1697.83899" y2="2243.48555"/><line x1="1697.83899" y1="2243.48555" x2="1697.83899" y2="2006.51445"/><line x1="1697.83899" y1="2006.51445" x2="1837.1271" y2="1814.80082"/></g><g stroke="#000000" stroke-linecap="round" stroke-dasharray="2,3"><line x1="2062.5" y1="1703.72008" x2="2310.12212" y2="1784.17739"/><line x1="2062.5" y1="1703.72008" x2="1814.87788" y2="1784.17739"/><line x1="2310.12212" y1="1784.17739" x2="2463.16101" y2="1994.81735"/><line x1="2463.16101" y1="1994.81735" x2="2463.16101" y2="2255.18265"/><line x1="2463.16101" y1="2255.18265" x2="2310.12212" y2="2465.82261"/><line x1="2310.12212" y1="2465.82261" x2="2062.5" y2="2546.27992"/><line x1="2062.5" y1="2546.27992" x2="1814.87788" y2="2465.82261"/><line x1="1814.87788" y1="2465.82261" x2="1661.83899" y2="2255.18265"/><line x1="1661.83899" y1="2255.18265" x2="1661.83899" y2="1994.81735"/><line x1="1661.83899" y1="1994.81735" x2="1814.87788" y2="1784.17739"/></g><g stroke="#000000" stroke-linecap="round" stroke-dasharray="2,3"><line x1="2062.5" y1="1665.86744" x2="2332.37135" y2="1753.55396"/><line x1="2062.5" y1="1665.86744" x2="1792.62865" y2="1753.55396"/><line x1="2332.37135" y1="1753.55396" x2="2499.16101" y2="1983.12024"/><line x1="2499.16101" y1="1983.12024" x2="2499.16101" y2="2266.87976"/><line x1="2499.16101" y1="2266.87976" x2="2332.37135" y2="2496.44604"/><line x1="2332.37135" y1="2496.44604" x2="2062.5" y2="2584.13256"/><line x1="2062.5" y1="2584.13256" x2="1792.62865" y2="2496.44604"/><line x1="1792.62865" y1="2496.44604" x2="1625.83899" y2="2266.87976"/><line x1="1625.83899" y1="2266.87976" x2="1625.83899" y2="1983.12024"/><line x1="1625.83899" y1="1983.12024" x2="1792.62865" y2="1753.55396"/></g><g stroke="#000000" stroke-linecap="round" stroke-dasharray="2,3"><line x1="2062.5" y1="1628.0148" x2="2354.62057" y2="1722.93053"/><line x1="2062.5" y1="1628.0148" x2="1770.37943" y2="1722.93053"/><line x1="2354.62057" y1="1722.93053" x2="2535.16101" y2="1971.42313"/><line x1="2535.16101" y1="1971.42313" x2="2535.16101" y2="2278.57687"/><line x1="2535.16101" y1="2278.57687" x2="2354.62057" y2="2527.06947"/><line x1="2354.62057" y1="2527.06947" x2="2062.5" y2="2621.9852"/><line x1="2062.5" y1="2621.9852" x2="1770.37943" y2="2527.06947"/><line x1="1770.37943" y1="2527.06947" x2="1589.83899" y2="2278.57687"/><line x1="1589.83899" y1="2278.57687" x2="1589.83899" y2="1971.42313"/><line x1="1589.83899" y1="1971.42313" x2="1770.37943" y2="1722.93053"/></g><g stroke="#000000" stroke-linecap="round" stroke-dasharray="2,3"><line x1="2062.5" y1="1590.16216" x2="2376.86979" y2="1692.3071"/><line x1="2062.5" y1="1590.16216" x2="1748.13021" y2="1692.3071"/><line x1="2376.86979" y1="1692.3071" x2="2571.16101" y2="1959.72602"/><line x1="2571.16101" y1="1959.72602" x2="2571.16101" y2="2290.27398"/><line x1="2571.16101" y1="2290.27398" x2="2376.86979" y2="2557.6929"/><line x1="2376.86979" y1="2557.6929" x2="2062.5" y2="2659.83784"/><line x1="2062.5" y1="2659.83784" x2="1748.13021" y2="2557.6929"/><line x1="1748.13021" y1="2557.6929" x2="1553.83899" y2="2290.27398"/><line x1="1553.83899" y1="2290.27398" x2="1553.83899" y2="1959.72602"/><line x1="1553.83899" y1="1959.72602" x2="1748.13021" y2="1692.3071"/></g><g stroke="#000000" stroke-linecap="round" stroke-dasharray="2,3"><line x1="2062.5" y1="1552.30952" x2="2399.11902" y2="1661.68367"/><line x1="2062.5" y1="1552.30952" x2="1725.88098" y2="1661.68367"/><line x1="2399.11902" y1="1661.68367" x2="2607.16101" y2="1948.02891"/><line x1="2607.16101" y1="1948.02891" x2="2607.16101" y2="2301.97109"/><line x1="2607.16101" y1="2301.97109" x2="2399.11902" y2="2588.31633"/><line x1="2399.11902" y1="2588.31633" x2="2062.5" y2="2697.69048"/><line x1="2062.5" y1="2697.69048" x2="1725.88098" y2="2588.31633"/><line x1="1725.88098" y1="2588.31633" x2="1517.83899" y2="2301.97109"/><line x1="1517.83899" y1="2301.97109" x2="1517.83899" y2="1948.02891"/><line x1="1517.83899" y1="1948.02891" x2="1725.88098" y2="1661.68367"/></g><g stroke="#000000" stroke-linecap="round" stroke-dasharray="2,3"><line x1="2062.5" y1="1514.45688" x2="2421.36824" y2="1631.06024"/><line x1="2062.5" y1="1514.45688" x2="1703.63176" y2="1631.06024"/><line x1="2421.36824" y1="1631.06024" x2="2643.16101" y2="1936.3318"/><line x1="2643.16101" y1="1936.3318" x2="2643.16101" y2="2313.6682"/><line x1="2643.16101" y1="2313.6682" x2="2421.36824" y2="2618.93976"/><line x1="2421.36824" y1="2618.93976" x2="2062.5" y2="2735.54312"/><line x1="2062.5" y1="2735.54312" x2="1703.63176" y2="2618.93976"/><line x1="1703.63176" y1="2618.93976" x2="1481.83899" y2="2313.6682"/><line x1="1481.83899" y1="2313.6682" x2="1481.83899" y2="1936.3318"/><line x1="1481.83899" y1="1936.3318" x2="1703.63176" y2="1631.06024"/></g><g stroke="#000000" stroke-linecap="round" stroke-dasharray="2,3"><line x1="2062.5" y1="1476.60424" x2="2443.61747" y2="1600.43681"/><line x1="2062.5" y1="1476.60424" x2="1681.38253" y2="1600.43681"/><line x1="2443.61747" y1="1600.43681" x2="2679.16101" y2="1924.63469"/><line x1="2679.16101" y1="1924.63469" x2="2679.16101" y2="2325.36531"/><line x1="2679.16101" y1="2325.36531" x2="2443.61747" y2="2649.56319"/><line x1="2443.61747" y1="2649.56319" x2="2062.5" y2="2773.39576"/><line x1="2062.5" y1="2773.39576" x2="1681.38253" y2="2649.56319"/><line x1="1681.38253" y1="2649.56319" x2="1445.83899" y2="2325.36531"/><line x1="1445.83899" y1="2325.36531" x2="1445.83899" y2="1924.63469"/><line x1="1445.83899" y1="1924.63469" x2="1681.38253" y2="1600.43681"/></g><g stroke="#000000" stroke-linecap="round" stroke-dasharray="2,3"><line x1="2062.5" y1="1438.7516" x2="2465.86669" y2="1569.81338"/><line x1="2062.5" y1="1438.7516" x2="1659.13331" y2="1569.81338"/><line x1="2465.86669" y1="1569.81338" x2="2715.16101" y2="1912.93758"/><line x1="2715.16101" y1="1912.93758" x2="2715.16101" y2="2337.06242"/><line x1="2715.16101" y1="2337.06242" x2="2465.86669" y2="2680.18662"/><line x1="2465.86669" y1="2680.18662" x2="2062.5" y2="2811.2484"/><line x1="2062.5" y1="2811.2484" x2="1659.13331" y2="2680.18662"/><line x1="1659.13331" y1="2680.18662" x2="1409.83899" y2="2337.06242"/><line x1="1409.83899" y1="2337.06242" x2="1409.83899" y2="1912.93758"/><line x1="1409.83899" y1="1912.93758" x2="1659.13331" y2="1569.81338"/></g><g stroke="#000000" stroke-linecap="round" stroke-dasharray="2,3"><line x1="2062.5" y1="1400.89896" x2="2488.11591" y2="1539.18995"/><line x1="2062.5" y1="1400.89896" x2="1636.88409" y2="1539.18995"/><line x1="2488.11591" y1="1539.18995" x2="2751.16101" y2="1901.24047"/><line x1="2751.16101" y1="1901.24047" x2="2751.16101" y2="2348.75953"/><line x1="2751.16101" y1="2348.75953" x2="2488.11591" y2="2710.81005"/><line x1="2488.11591" y1="2710.81005" x2="2062.5" y2="2849.10104"/><line x1="2062.5" y1="2849.10104" x2="1636.88409" y2="2710.81005"/><line x1="1636.88409" y1="2710.81005" x2="1373.83899" y2="2348.75953"/><line x1="1373.83899" y1="2348.75953" x2="1373.83899" y2="1901.24047"/><line x1="1373.83899" y1="1901.24047" x2="1636.88409" y2="1539.18995"/></g><g stroke="#000000" stroke-linecap="round" stroke-dasharray="2,3"><line x1="2062.5" y1="1363.04632" x2="2510.36514" y2="1508.56652"/><line x1="2062.5" y1="1363.04632" x2="1614.63486" y2="1508.56652"/><line x1="2510.36514" y1="1508.56652" x2="2787.16101" y2="1889.54336"/><line x1="2787.16101" y1="1889.54336" x2="2787.16101" y2="2360.45664"/><line x1="2787.16101" y1="2360.45664" x2="2510.36514" y2="2741.43348"/><line x1="2510.36514" y1="2741.43348" x2="2062.5" y2="2886.95368"/><line x1="2062.5" y1="2886.95368" x2="1614.63486" y2="2741.43348"/><line x1="1614.63486" y1="2741.43348" x2="1337.83899" y2="2360.45664"/><line x1="1337.83899" y1="2360.45664" x2="1337.83899" y2="1889.54336"/><line x1="1337.83899" y1="1889.54336" x2="1614.63486" y2="1508.56652"/></g><g stroke="#000000" stroke-linecap="round" stroke-dasharray="2,3"><line x1="2062.5" y1="1325.19368" x2="2532.61436" y2="1477.9431"/><line x1="2062.5" y1="1325.19368" x2="1592.38564" y2="1477.9431"/><line x1="2532.61436" y1="1477.9431" x2="2823.16101" y2="1877.84625"/><line x1="2823.16101" y1="1877.84625" x2="2823.16101" y2="2372.15375"/><line x1="2823.16101" y1="2372.15375" x2="2532.61436" y2="2772.0569"/><line x1="2532.61436" y1="2772.0569" x2="2062.5" y2="2924.80632"/><line x1="2062.5" y1="2924.80632" x2="1592.38564" y2="2772.0569"/><line x1="1592.38564" y1="2772.0569" x2="1301.83899" y2="2372.15375"/><line x1="1301.83899" y1="2372.15375" x2="1301.83899" y2="1877.84625"/><line x1="1301.83899" y1="1877.84625" x2="1592.38564" y2="1477.9431"/></g></g><polygon points="2475,2550 2475,1700 3300,1700 3300,2550" stroke="#000000" stroke-width="1" stroke-linecap="butt" stroke-dasharray="1,4"/></g></svg>