<svg x="0" y="0" width="1100" height="850" version="1.1" xmlns="http://www.w3.org/2000/svg" xmlns:xlink="http://www.w3.org/1999/xlink"><g fill="none" stroke="none" stroke-width="none" stroke-linecap="none" stroke-linejoin="miter" stroke-miterlimit="10" stroke-dasharray="" stroke-dashoffset="0" font-family="sans-serif" font-size="12" text-anchor="start" mix-blend-mode="normal"><rect x="20" y="25" width="510" height="800" fill="#ffffff" stroke-width="1" stroke-linecap="butt"/><g stroke-width="1" stroke-linecap="butt"/><rect x="-120" y="-120" transform="rotate(180)" width="34" height="34" stroke="#000000" stroke-width="0.5" stroke-linecap="butt" opacity="0"/><g stroke="#000000" stroke-width="0.5" stroke-linecap="round"><circle cx="-103" cy="-103" transform="rotate(180)" r="16" data-paper-data="{&quot;index&quot;:0}"/></g><rect x="-206" y="-120" transform="rotate(180)" width="34" height="34" stroke="#000000" stroke-width="0.5" stroke-linecap="butt" opacity="0"/><g stroke="#000000" stroke-width="0.5" stroke-linecap="round"><circle cx="-189" cy="-103" transform="rotate(180)" r="16" data-paper-data="{&quot;index&quot;:0}" opacity="0"/></g><rect x="-292" y="-120" transform="rotate(180)" width="34" height="34" stroke="#000000" stroke-width="0.5" stroke-linecap="butt" opacity="0"/><g stroke="#000000" stroke-width="0.5" stroke-linecap="round"><circle cx="-275" cy="-103" transform="rotate(180)" r="16" data-paper-data="{&quot;index&quot;:0}" opacity="0"/></g><rect x="-378" y="-120" transform="rotate(180)" width="34" height="34" stroke="#000000" stroke-width="0.5" stroke-linecap="butt" opacity="0"/><g stroke="#000000" stroke-width="0.5" stroke-linecap="round"><circle cx="-361" cy="-103" transform="rotate(180)" r="16" data-paper-data="{&quot;index&quot;:0}" opacity="0"/></g><rect x="-120" y="-206" transform="rotate(180)" width="34" height="34" stroke="#000000" stroke-width="0.5" stroke-linecap="butt" opacity="0"/><g stroke="#000000" stroke-width="0.5" stroke-linecap="round"><circle cx="-189" cy="103" transform="rotate(-90)" r="16" data-paper-data="{&quot;index&quot;:0}"/><circle cx="-173" cy="103" transform="rotate(-90)" r="16" data-paper-data="{&quot;index&quot;:1}"/></g><rect x="-206" y="-206" transform="rotate(180)" width="34" height="34" stroke="#000000" stroke-width="0.5" stroke-linecap="butt" opacity="0"/><g stroke="#000000" stroke-width="0.5"><circle cx="-189" cy="189" transform="rotate(-90)" r="16" data-paper-data="{&quot;index&quot;:0}" stroke-linecap="round" opacity="0"/><circle cx="-173" cy="189" transform="rotate(-90)" r="16" data-paper-data="{&quot;index&quot;:1}" stroke-linecap="round" opacity="0"/><path d="M189,173c5.92226,0 11.09301,3.21759 13.85948,8c-2.76648,4.78241 -7.93723,8 -13.85948,8c-5.92226,0 -11.09301,-3.21759 -13.85948,-8c2.76648,-4.78241 7.93723,-8 13.85948,-8z" stroke-linecap="butt"/></g><rect x="-292" y="-206" transform="rotate(180)" width="34" height="34" stroke="#000000" stroke-width="0.5" stroke-linecap="butt" opacity="0"/><g stroke="#000000" stroke-width="0.5" stroke-linecap="round"><circle cx="-189" cy="275" transform="rotate(-90)" r="16" data-paper-data="{&quot;index&quot;:0}" opacity="0"/><circle cx="-173" cy="275" transform="rotate(-90)" r="16" data-paper-data="{&quot;index&quot;:1}" opacity="0"/></g><rect x="-378" y="-206" transform="rotate(180)" width="34" height="34" stroke="#000000" stroke-width="0.5" stroke-linecap="butt" opacity="0"/><g stroke="#000000" stroke-width="0.5" stroke-linecap="round"><circle cx="-189" cy="361" transform="rotate(-90)" r="16" data-paper-data="{&quot;index&quot;:0}" opacity="0"/><circle cx="-173" cy="361" transform="rotate(-90)" r="16" data-paper-data="{&quot;index&quot;:1}" opacity="0"/></g><rect x="-120" y="-292" transform="rotate(180)" width="34" height="34" stroke="#000000" stroke-width="0.5" stroke-linecap="butt" opacity="0"/><g stroke="#000000" stroke-width="0.5" stroke-linecap="round"><circle cx="-289.65699" cy="-48.29938" transform="rotate(-120)" r="16" data-paper-data="{&quot;index&quot;:0}"/><circle cx="-273.65635" cy="-48.29902" transform="rotate(-120)" r="16" data-paper-data="{&quot;index&quot;:1}"/><circle cx="-281.65635" cy="-34.44261" transform="rotate(-120)" r="16" data-paper-data="{&quot;index&quot;:2}"/></g><rect x="-206" y="-292" transform="rotate(180)" width="34" height="34" stroke="#000000" stroke-width="0.5" stroke-linecap="butt" opacity="0"/><g stroke="#000000" stroke-width="0.5"><circle cx="-332.65699" cy="26.1788" transform="rotate(-120)" r="16" data-paper-data="{&quot;index&quot;:0}" stroke-linecap="round" opacity="0"/><circle cx="-316.65635" cy="26.17917" transform="rotate(-120)" r="16" data-paper-data="{&quot;index&quot;:1}" stroke-linecap="round" opacity="0"/><circle cx="-324.65635" cy="40.03558" transform="rotate(-120)" r="16" data-paper-data="{&quot;index&quot;:2}" stroke-linecap="round" opacity="0"/><path d="M181,261.14359c5.12883,-2.96113 11.21562,-2.75999 16.00267,-0.00154c-0.00489,5.52467 -2.87407,10.89621 -8.00267,13.85721c-5.12883,2.96113 -11.21562,2.75999 -16.00267,0.00154c0.00489,-5.52467 2.87407,-10.89621 8.00267,-13.85721z" stroke-linecap="butt"/><path d="M202.85641,267c1.45702,2.52363 2.14841,5.27919 2.14626,7.99772c-0.00089,0.00051 -0.00178,0.00103 -0.00267,0.00154c-7.65268,4.41828 -17.43813,1.79628 -21.85641,-5.85641c-1.45702,-2.52363 -2.14841,-5.27919 -2.14626,-7.99772c0.00089,-0.00051 0.00178,-0.00103 0.00267,-0.00154c7.65268,-4.41828 17.43813,-1.79628 21.85641,5.85641z" stroke-linecap="butt"/><path d="M194.85641,253.14286c4.41828,7.65268 1.79628,17.43813 -5.85641,21.85641c-0.00089,0.00051 -0.00178,0.00103 -0.00267,0.00154c-2.35568,-1.35741 -4.39659,-3.33408 -5.85374,-5.85795c-4.41828,-7.65268 -1.79628,-17.43813 5.85641,-21.85641c0.00089,-0.00052 0.00179,-0.00103 0.00268,-0.00155c2.35567,1.35741 4.39658,3.33409 5.85373,5.85795z" stroke-linecap="butt"/></g><rect x="-292" y="-292" transform="rotate(180)" width="34" height="34" stroke="#000000" stroke-width="0.5" stroke-linecap="butt" opacity="0"/><g stroke="#000000" stroke-width="0.5"><circle cx="-375.65699" cy="100.65699" transform="rotate(-120)" r="16" data-paper-data="{&quot;index&quot;:0}" stroke-linecap="round" opacity="0"/><circle cx="-359.65635" cy="100.65735" transform="rotate(-120)" r="16" data-paper-data="{&quot;index&quot;:1}" stroke-linecap="round" opacity="0"/><circle cx="-367.65635" cy="114.51376" transform="rotate(-120)" r="16" data-paper-data="{&quot;index&quot;:2}" stroke-linecap="round" opacity="0"/><path d="M267,261.14359c5.12883,-2.96113 11.21562,-2.75999 16.00267,-0.00154c-0.00489,5.52467 -2.87407,10.89621 -8.00267,13.85721c-0.00089,0.00052 -0.00179,0.00103 -0.00268,0.00155c-2.35567,-1.35741 -4.39658,-3.33409 -5.85373,-5.85795c-1.45702,-2.52363 -2.14841,-5.27919 -2.14626,-7.99772c0.00089,-0.00051 0.00178,-0.00103 0.00267,-0.00154z" stroke-linecap="butt"/></g><path d="M291.00267,274.99772c-0.00089,0.00051 -0.00178,0.00103 -0.00267,0.00154c-7.65268,4.41828 -17.43813,1.79628 -21.85641,-5.85641c-1.45702,-2.52363 -2.14841,-5.27919 -2.14626,-7.99772c0.00089,-0.00051 0.00178,-0.00103 0.00267,-0.00154c7.65268,-4.41828 17.43813,-1.79628 21.85641,5.85641c1.45703,2.52365 2.14842,5.27917 2.14626,7.99772z" stroke-width="1" stroke-linecap="butt"/><rect x="-378" y="-292" transform="rotate(180)" width="34" height="34" stroke="#000000" stroke-width="0.5" stroke-linecap="butt" opacity="0"/><g stroke="#000000" stroke-width="0.5" stroke-linecap="round"><circle cx="-418.65699" cy="175.13517" transform="rotate(-120)" r="16" data-paper-data="{&quot;index&quot;:0}" opacity="0"/><circle cx="-402.65635" cy="175.13554" transform="rotate(-120)" r="16" data-paper-data="{&quot;index&quot;:1}" opacity="0"/><circle cx="-410.65635" cy="188.99195" transform="rotate(-120)" r="16" data-paper-data="{&quot;index&quot;:2}" opacity="0"/></g><rect x="-120" y="-378" transform="rotate(180)" width="34" height="34" stroke="#000000" stroke-width="0.5" stroke-linecap="butt" opacity="0"/><g stroke="#000000" stroke-width="0.5" stroke-linecap="round"><circle cx="-269.70062" cy="-261.13517" transform="rotate(-150)" r="16" data-paper-data="{&quot;index&quot;:0}"/><circle cx="-253.69998" cy="-261.13554" transform="rotate(-150)" r="16" data-paper-data="{&quot;index&quot;:1}"/><circle cx="-261.70062" cy="-247.27876" transform="rotate(-150)" r="16" data-paper-data="{&quot;index&quot;:2}"/><circle cx="-277.70125" cy="-247.2784" transform="rotate(-150)" r="16" data-paper-data="{&quot;index&quot;:3}"/></g><rect x="-206" y="-378" transform="rotate(180)" width="34" height="34" stroke="#000000" stroke-width="0.5" stroke-linecap="butt" opacity="0"/><g stroke="#000000" stroke-width="0.5"><circle cx="-344.1788" cy="-218.13517" transform="rotate(-150)" r="16" data-paper-data="{&quot;index&quot;:0}" stroke-linecap="round" opacity="0"/><circle cx="-328.17816" cy="-218.13554" transform="rotate(-150)" r="16" data-paper-data="{&quot;index&quot;:1}" stroke-linecap="round" opacity="0"/><circle cx="-336.1788" cy="-204.27876" transform="rotate(-150)" r="16" data-paper-data="{&quot;index&quot;:2}" stroke-linecap="round" opacity="0"/><circle cx="-352.17944" cy="-204.2784" transform="rotate(-150)" r="16" data-paper-data="{&quot;index&quot;:3}" stroke-linecap="round" opacity="0"/><path d="M175.14359,353c2.961,-5.1286 8.33254,-7.99778 13.85721,-8.00267c2.75845,4.78704 2.95959,10.87384 -0.00154,16.00267c-2.961,5.1286 -8.33254,7.99778 -13.85721,8.00267c-2.75845,-4.78704 -2.95959,-10.87384 0.00154,-16.00267z" stroke-linecap="butt"/><path d="M197,347.14359c2.52386,1.45715 4.50053,3.49807 5.85795,5.85374c-0.00051,0.00089 -0.00103,0.00178 -0.00154,0.00267c-4.41828,7.65268 -14.20372,10.27468 -21.85641,5.85641c-2.52386,-1.45715 -4.50053,-3.49807 -5.85795,-5.85374c0.00051,-0.00089 0.00103,-0.00178 0.00154,-0.00267c4.41828,-7.65268 14.20372,-10.27468 21.85641,-5.85641z" stroke-linecap="butt"/><path d="M197,347.14359c7.65268,4.41828 10.27468,14.20372 5.85641,21.85641c-0.00051,0.00089 -0.00103,0.00178 -0.00154,0.00267c-2.71854,0.00216 -5.47409,-0.68924 -7.99772,-2.14626c-7.65268,-4.41828 -10.27468,-14.20372 -5.85641,-21.85641c0.00052,-0.00089 0.00103,-0.00179 0.00155,-0.00268c2.71854,-0.00216 5.47409,0.68925 7.99772,2.14627z" stroke-linecap="butt"/><path d="M183.14286,339.14359c7.65268,4.41828 10.27468,14.20372 5.85641,21.85641c-0.00051,0.00089 -0.00103,0.00178 -0.00154,0.00267c-2.71853,0.00215 -5.4741,-0.68924 -7.99772,-2.14626c-7.65268,-4.41828 -10.27468,-14.20372 -5.85641,-21.85641c0.00052,-0.00089 0.00103,-0.00179 0.00155,-0.00268c2.71854,-0.00216 5.47409,0.68925 7.99772,2.14627z" stroke-linecap="butt"/><path d="M202.85795,336.99733c2.75845,4.78704 2.95959,10.87384 -0.00154,16.00267c-2.961,5.1286 -8.33254,7.99778 -13.85721,8.00267c-2.75845,-4.78704 -2.95959,-10.87384 0.00154,-16.00267c2.961,-5.1286 8.33254,-7.99778 13.85721,-8.00267z" stroke-linecap="butt"/></g><rect x="-292" y="-378" transform="rotate(180)" width="34" height="34" stroke="#000000" stroke-width="0.5" stroke-linecap="butt" opacity="0"/><g stroke="#000000" stroke-width="0.5"><circle cx="-418.65699" cy="-175.13517" transform="rotate(-150)" r="16" data-paper-data="{&quot;index&quot;:0}" stroke-linecap="round" opacity="0"/><circle cx="-402.65635" cy="-175.13554" transform="rotate(-150)" r="16" data-paper-data="{&quot;index&quot;:1}" stroke-linecap="round" opacity="0"/><circle cx="-410.65699" cy="-161.27876" transform="rotate(-150)" r="16" data-paper-data="{&quot;index&quot;:2}" stroke-linecap="round" opacity="0"/><circle cx="-426.65762" cy="-161.2784" transform="rotate(-150)" r="16" data-paper-data="{&quot;index&quot;:3}" stroke-linecap="round" opacity="0"/><path d="M261.14359,353c2.961,-5.1286 8.33254,-7.99778 13.85721,-8.00267c2.75845,4.78704 2.95959,10.87384 -0.00154,16.00267c-0.00052,0.00089 -0.00103,0.00179 -0.00155,0.00268c-2.71854,0.00216 -5.47409,-0.68925 -7.99772,-2.14627c-2.52386,-1.45715 -4.50053,-3.49807 -5.85795,-5.85374c0.00051,-0.00089 0.00103,-0.00178 0.00154,-0.00267z" stroke-linecap="butt"/><path d="M274.9992,361.00267c-2.75845,-4.78704 -2.95959,-10.87384 0.00154,-16.00267c0.00051,-0.00089 0.00103,-0.00178 0.00154,-0.00267c2.71853,-0.00215 5.4741,0.68924 7.99772,2.14626c2.52386,1.45715 4.50053,3.49807 5.85795,5.85374c-0.00051,0.00089 -0.00103,0.00178 -0.00154,0.00267c-2.961,5.1286 -8.33254,7.99778 -13.85721,8.00267z" stroke-linecap="butt"/></g><path d="M288.85795,352.99733c-0.00051,0.00089 -0.00103,0.00178 -0.00154,0.00267c-4.41828,7.65268 -14.20372,10.27468 -21.85641,5.85641c-2.52386,-1.45715 -4.50053,-3.49807 -5.85795,-5.85374c0.00051,-0.00089 0.00103,-0.00178 0.00154,-0.00267c4.41828,-7.65268 14.20372,-10.27468 21.85641,-5.85641c2.52387,1.45716 4.50053,3.49805 5.85795,5.85374z" stroke-width="1" stroke-linecap="butt"/><path d="M275.00074,345c0.00051,-0.00089 0.00103,-0.00178 0.00154,-0.00267c2.71853,-0.00215 5.4741,0.68924 7.99772,2.14626c7.65268,4.41828 10.27468,14.20372 5.85641,21.85641c-0.00052,0.00089 -0.00103,0.00179 -0.00155,0.00268c-2.71854,0.00216 -5.47409,-0.68925 -7.99772,-2.14627c-7.65268,-4.41828 -10.27468,-14.20372 -5.85641,-21.85641z" stroke-width="1" stroke-linecap="butt"/><rect x="-378" y="-378" transform="rotate(180)" width="34" height="34" stroke="#000000" stroke-width="0.5" stroke-linecap="butt" opacity="0"/><g stroke="#000000" stroke-width="0.5"><circle cx="-493.13517" cy="-132.13517" transform="rotate(-150)" r="16" data-paper-data="{&quot;index&quot;:0}" stroke-linecap="round" opacity="0"/><circle cx="-477.13453" cy="-132.13554" transform="rotate(-150)" r="16" data-paper-data="{&quot;index&quot;:1}" stroke-linecap="round" opacity="0"/><circle cx="-485.13517" cy="-118.27876" transform="rotate(-150)" r="16" data-paper-data="{&quot;index&quot;:2}" stroke-linecap="round" opacity="0"/><circle cx="-501.13581" cy="-118.2784" transform="rotate(-150)" r="16" data-paper-data="{&quot;index&quot;:3}" stroke-linecap="round" opacity="0"/><path d="M361.00154,344.99861c2.75775,4.78685 2.95859,10.87302 -0.00228,16.00139c-0.00027,0.00046 -0.00053,0.00093 -0.0008,0.00139c-2.75774,-4.78685 -2.95859,-10.87302 0.00227,-16.00139c0.00027,-0.00046 0.00054,-0.00092 0.0008,-0.00139z" stroke-linecap="butt"/></g><rect x="-120" y="-464" transform="rotate(180)" width="34" height="34" stroke="#000000" stroke-width="0.5" stroke-linecap="butt" opacity="0"/><g stroke="#000000" stroke-width="0.5" stroke-linecap="round"><circle cx="-103" cy="-447" transform="rotate(180)" r="16" data-paper-data="{&quot;index&quot;:0}"/><circle cx="-87" cy="-447" transform="rotate(180)" r="16" data-paper-data="{&quot;index&quot;:1}"/><circle cx="-95" cy="-433.14286" transform="rotate(180)" r="16" data-paper-data="{&quot;index&quot;:2}"/><circle cx="-111" cy="-433.14286" transform="rotate(180)" r="16" data-paper-data="{&quot;index&quot;:3}"/><circle cx="-119" cy="-447" transform="rotate(180)" r="16" data-paper-data="{&quot;index&quot;:4}"/></g><rect x="-206" y="-464" transform="rotate(180)" width="34" height="34" stroke="#000000" stroke-width="0.5" stroke-linecap="butt" opacity="0"/><g stroke="#000000" stroke-width="0.5"><circle cx="-189" cy="-447" transform="rotate(180)" r="16" data-paper-data="{&quot;index&quot;:0}" stroke-linecap="round" opacity="0"/><circle cx="-173" cy="-447" transform="rotate(180)" r="16" data-paper-data="{&quot;index&quot;:1}" stroke-linecap="round" opacity="0"/><circle cx="-181" cy="-433.14286" transform="rotate(180)" r="16" data-paper-data="{&quot;index&quot;:2}" stroke-linecap="round" opacity="0"/><circle cx="-197" cy="-433.14286" transform="rotate(180)" r="16" data-paper-data="{&quot;index&quot;:3}" stroke-linecap="round" opacity="0"/><circle cx="-205" cy="-447" transform="rotate(180)" r="16" data-paper-data="{&quot;index&quot;:4}" stroke-linecap="round" opacity="0"/><path d="M173,447c0,-5.92226 3.21759,-11.09301 8,-13.85948c4.78241,2.76648 8,7.93723 8,13.85948c0,5.92226 -3.21759,11.09301 -8,13.85948c-4.78241,-2.76648 -8,-7.93723 -8,-13.85948z" stroke-linecap="butt"/><path d="M189,431c2.9143,0 5.64661,0.77915 8,2.14052c0,0.00078 0,0.00156 0,0.00234c0,8.83656 -7.16344,16 -16,16c-2.91432,0 -5.64665,-0.77917 -8.00005,-2.14055c0,-0.00078 0.00005,-0.00153 0.00005,-0.00231c0,-8.83656 7.16344,-16 16,-16z" stroke-linecap="butt"/><path d="M189,431c8.83656,0 16,7.16344 16,16c0,0.00078 0,0.00156 0,0.00234c-2.35339,1.36137 -5.08569,2.14052 -8,2.14052c-8.83656,0 -16,-7.16344 -16,-16c0,-0.00078 0,-0.00157 0,-0.00235c2.35339,-1.36136 5.0857,-2.1405 8,-2.1405z" stroke-linecap="butt"/><path d="M197,433.14052c4.78241,2.76648 8,7.93723 8,13.85948c0,5.92226 -3.21759,11.09301 -8,13.85948c-4.78241,-2.76648 -8,-7.93723 -8,-13.85948c0,-5.92226 3.21759,-11.09301 8,-13.85948z" stroke-linecap="butt"/><path d="M173,431c8.83656,0 16,7.16344 16,16c0,0.00078 0,0.00156 0,0.00234c-2.35339,1.36137 -5.08569,2.14052 -8,2.14052c-8.83656,0 -16,-7.16344 -16,-16c0,-0.00078 0,-0.00157 0,-0.00235c2.35339,-1.36136 5.0857,-2.1405 8,-2.1405z" stroke-linecap="butt"/><path d="M189,419.28337c4.78241,2.76648 8,7.93723 8,13.85948c0,5.92226 -3.21759,11.09301 -8,13.85948c-4.78241,-2.76648 -8,-7.93723 -8,-13.85948c0,-5.92226 3.21759,-11.09301 8,-13.85948z" stroke-linecap="butt"/><path d="M213,433.14052c0,0.00078 0,0.00156 0,0.00234c0,8.83656 -7.16344,16 -16,16c-2.9143,0 -5.64661,-0.77915 -8,-2.14052c0,-0.00078 0,-0.00156 0,-0.00234c0,-8.83656 7.16344,-16 16,-16c2.9143,0 5.64661,0.77915 8,2.14052z" stroke-linecap="butt"/></g><rect x="-292" y="-464" transform="rotate(180)" width="34" height="34" stroke="#000000" stroke-width="0.5" stroke-linecap="butt" opacity="0"/><g stroke="#000000" stroke-width="0.5"><circle cx="-275" cy="-447" transform="rotate(180)" r="16" data-paper-data="{&quot;index&quot;:0}" stroke-linecap="round" opacity="0"/><circle cx="-259" cy="-447" transform="rotate(180)" r="16" data-paper-data="{&quot;index&quot;:1}" stroke-linecap="round" opacity="0"/><circle cx="-267" cy="-433.14286" transform="rotate(180)" r="16" data-paper-data="{&quot;index&quot;:2}" stroke-linecap="round" opacity="0"/><circle cx="-283" cy="-433.14286" transform="rotate(180)" r="16" data-paper-data="{&quot;index&quot;:3}" stroke-linecap="round" opacity="0"/><circle cx="-291" cy="-447" transform="rotate(180)" r="16" data-paper-data="{&quot;index&quot;:4}" stroke-linecap="round" opacity="0"/><path d="M259,447c0,-5.92226 3.21759,-11.09301 8,-13.85948c4.78241,2.76648 8,7.93723 8,13.85948c0,0.00078 0,0.00157 0,0.00235c-2.35339,1.36136 -5.0857,2.1405 -8,2.1405c-2.9143,0 -5.64661,-0.77915 -8,-2.14052c0,-0.00078 0,-0.00156 0,-0.00234z" stroke-linecap="butt"/><path d="M275,447.00234c-4.78241,-2.76648 -8,-7.93723 -8,-13.85948c0,-0.00078 0,-0.00156 0,-0.00234c2.35339,-1.36136 5.0857,-2.14052 8,-2.14052c2.9143,0 5.64661,0.77915 8,2.14052c0,0.00078 0,0.00156 0,0.00234c0,5.92226 -3.21759,11.09301 -8,13.85948z" stroke-linecap="butt"/><path d="M275,447.00234c0,-0.00078 0,-0.00156 0,-0.00234c0,-5.92226 3.21759,-11.09301 8,-13.85948c4.78241,2.76648 8,7.93723 8,13.85948c0,0.00078 0,0.00156 0,0.00234c-2.35339,1.36136 -5.0857,2.14052 -8,2.14052c-2.9143,0 -5.64661,-0.77915 -8,-2.14052z" stroke-linecap="butt"/></g><path d="M283,433.14052c0,0.00078 0,0.00156 0,0.00234c0,8.83656 -7.16344,16 -16,16c-2.9143,0 -5.64661,-0.77915 -8,-2.14052c0,-0.00078 0,-0.00156 0,-0.00234c0,-8.83656 7.16344,-16 16,-16c2.9143,0 5.64661,0.77915 8,2.14052z" stroke-width="1" stroke-linecap="butt"/><path d="M267,433.14286c0,-0.00078 0,-0.00156 0,-0.00234c2.35339,-1.36136 5.0857,-2.14052 8,-2.14052c8.83656,0 16,7.16344 16,16c0,0.00078 0,0.00157 0,0.00235c-2.35339,1.36136 -5.0857,2.1405 -8,2.1405c-8.83656,0 -16,-7.16344 -16,-16z" stroke-width="1" stroke-linecap="butt"/><path d="M275,447c0,-5.92226 3.21759,-11.09301 8,-13.85948c4.78241,2.76648 8,7.93723 8,13.85948c0,5.92226 -3.21759,11.09301 -8,13.85948c-4.78241,-2.76648 -8,-7.93723 -8,-13.85948z" stroke-width="1" stroke-linecap="butt"/><rect x="-378" y="-464" transform="rotate(180)" width="34" height="34" stroke="#000000" stroke-width="0.5" stroke-linecap="butt" opacity="0"/><g stroke="#000000" stroke-width="0.5"><circle cx="-361" cy="-447" transform="rotate(180)" r="16" data-paper-data="{&quot;index&quot;:0}" stroke-linecap="round" opacity="0"/><circle cx="-345" cy="-447" transform="rotate(180)" r="16" data-paper-data="{&quot;index&quot;:1}" stroke-linecap="round" opacity="0"/><circle cx="-353" cy="-433.14286" transform="rotate(180)" r="16" data-paper-data="{&quot;index&quot;:2}" stroke-linecap="round" opacity="0"/><circle cx="-369" cy="-433.14286" transform="rotate(180)" r="16" data-paper-data="{&quot;index&quot;:3}" stroke-linecap="round" opacity="0"/><circle cx="-377" cy="-447" transform="rotate(180)" r="16" data-paper-data="{&quot;index&quot;:4}" stroke-linecap="round" opacity="0"/><path d="M353,433.14052c4.78241,2.76648 8,7.93723 8,13.85948c0,0.00078 0,0.00156 0,0.00234c-4.7824,-2.76648 -8,-7.93723 -8,-13.85948c0,-0.00078 0,-0.00156 0,-0.00234z" stroke-linecap="butt"/><path d="M369,433.14052c0,0.00078 0,0.00156 0,0.00234c0,5.92226 -3.21759,11.09301 -8,13.85948c0,-0.00078 0,-0.00156 0,-0.00234c0,-5.92226 3.21759,-11.09301 8,-13.85948z" stroke-linecap="butt"/></g><rect x="-120" y="-550" transform="rotate(180)" width="34" height="34" stroke="#000000" stroke-width="0.5" stroke-linecap="butt" opacity="0"/><g stroke="#000000" stroke-width="0.5" stroke-linecap="round"><circle cx="177.29938" cy="-513.09154" transform="rotate(150)" r="16" data-paper-data="{&quot;index&quot;:0}"/><circle cx="193.30002" cy="-513.09117" transform="rotate(150)" r="16" data-paper-data="{&quot;index&quot;:1}"/><circle cx="185.30002" cy="-499.23477" transform="rotate(150)" r="16" data-paper-data="{&quot;index&quot;:2}"/><circle cx="169.29938" cy="-499.23513" transform="rotate(150)" r="16" data-paper-data="{&quot;index&quot;:3}"/><circle cx="161.29875" cy="-513.09191" transform="rotate(150)" r="16" data-paper-data="{&quot;index&quot;:4}"/><circle cx="169.29875" cy="-526.94831" transform="rotate(150)" r="16" data-paper-data="{&quot;index&quot;:5}"/></g><rect x="-206" y="-550" transform="rotate(180)" width="34" height="34" stroke="#000000" stroke-width="0.5" stroke-linecap="butt" opacity="0"/><g stroke="#000000" stroke-width="0.5"><circle cx="102.8212" cy="-556.09154" transform="rotate(150)" r="16" data-paper-data="{&quot;index&quot;:0}" stroke-linecap="round" opacity="0"/><circle cx="118.82184" cy="-556.09117" transform="rotate(150)" r="16" data-paper-data="{&quot;index&quot;:1}" stroke-linecap="round" opacity="0"/><circle cx="110.82184" cy="-542.23477" transform="rotate(150)" r="16" data-paper-data="{&quot;index&quot;:2}" stroke-linecap="round" opacity="0"/><circle cx="94.8212" cy="-542.23513" transform="rotate(150)" r="16" data-paper-data="{&quot;index&quot;:3}" stroke-linecap="round" opacity="0"/><circle cx="86.82056" cy="-556.09191" transform="rotate(150)" r="16" data-paper-data="{&quot;index&quot;:4}" stroke-linecap="round" opacity="0"/><circle cx="94.82056" cy="-569.94831" transform="rotate(150)" r="16" data-paper-data="{&quot;index&quot;:5}" stroke-linecap="round" opacity="0"/><path d="M175.14359,541c-2.96113,-5.12883 -2.75999,-11.21562 -0.00154,-16.00267c5.52467,0.00489 10.89621,2.87407 13.85721,8.00267c2.96113,5.12883 2.75999,11.21562 0.00154,16.00267c-5.52467,-0.00489 -10.89621,-2.87407 -13.85721,-8.00267z" stroke-linecap="butt"/><path d="M181,519.14359c2.52363,-1.45702 5.27919,-2.14841 7.99772,-2.14626c0.00051,0.00089 0.00103,0.00178 0.00154,0.00267c4.41828,7.65268 1.79628,17.43813 -5.85641,21.85641c-2.52365,1.45703 -5.27923,2.14842 -7.99779,2.14626c-0.00051,-0.00089 -0.00097,-0.00178 -0.00148,-0.00267c-4.41828,-7.65268 -1.79628,-17.43813 5.85641,-21.85641z" stroke-linecap="butt"/><path d="M181,519.14359c7.65268,-4.41828 17.43813,-1.79628 21.85641,5.85641c0.00051,0.00089 0.00103,0.00178 0.00154,0.00267c-1.35741,2.35568 -3.33408,4.39659 -5.85795,5.85374c-7.65268,4.41828 -17.43813,1.79628 -21.85641,-5.85641c-0.00052,-0.00089 -0.00103,-0.00179 -0.00155,-0.00268c1.35741,-2.35567 3.33409,-4.39658 5.85795,-5.85373z" stroke-linecap="butt"/><path d="M188.9992,516.99733c5.52467,0.00489 10.89621,2.87407 13.85721,8.00267c2.96113,5.12883 2.75999,11.21562 0.00154,16.00267c-5.52467,-0.00489 -10.89621,-2.87407 -13.85721,-8.00267c-2.96113,-5.12883 -2.75999,-11.21562 -0.00154,-16.00267z" stroke-linecap="butt"/><path d="M202.85487,524.99733c0.00051,0.00089 0.00103,0.00178 0.00154,0.00267c4.41828,7.65268 1.79628,17.43813 -5.85641,21.85641c-2.52363,1.45702 -5.27919,2.14841 -7.99772,2.14626c-0.00051,-0.00089 -0.00103,-0.00178 -0.00154,-0.00267c-4.41828,-7.65268 -1.79628,-17.43813 5.85641,-21.85641c2.52363,-1.45702 5.27919,-2.14841 7.99772,-2.14626z" stroke-linecap="butt"/><path d="M167.14286,527.14359c7.65268,-4.41828 17.43813,-1.79628 21.85641,5.85641c0.00051,0.00089 0.00103,0.00178 0.00154,0.00267c-1.35741,2.35568 -3.33408,4.39659 -5.85795,5.85374c-7.65268,4.41828 -17.43813,1.79628 -21.85641,-5.85641c-0.00052,-0.00089 -0.00103,-0.00179 -0.00155,-0.00268c1.35741,-2.35567 3.33409,-4.39658 5.85795,-5.85373z" stroke-linecap="butt"/><path d="M175.14205,508.99733c5.52467,0.00489 10.89621,2.87407 13.85721,8.00267c2.96113,5.12883 2.75999,11.21562 0.00154,16.00267c-5.52467,-0.00489 -10.89621,-2.87407 -13.85721,-8.00267c-2.96113,-5.12883 -2.75999,-11.21562 -0.00154,-16.00267z" stroke-linecap="butt"/><path d="M202.85487,508.99733c0.00051,0.00089 0.00103,0.00178 0.00154,0.00267c4.41828,7.65268 1.79628,17.43813 -5.85641,21.85641c-2.52363,1.45702 -5.27919,2.14841 -7.99772,2.14626c-0.00051,-0.00089 -0.00103,-0.00178 -0.00154,-0.00267c-4.41828,-7.65268 -1.79628,-17.43813 5.85641,-21.85641c2.52363,-1.45702 5.27919,-2.14841 7.99772,-2.14626z" stroke-linecap="butt"/><path d="M189.00074,533c-0.00051,-0.00089 -0.00103,-0.00178 -0.00154,-0.00267c1.35741,-2.35568 3.33408,-4.39659 5.85795,-5.85374c7.65268,-4.41828 17.43813,-1.79628 21.85641,5.85641c0.00052,0.00089 0.00103,0.00179 0.00155,0.00268c-1.35741,2.35567 -3.33409,4.39658 -5.85795,5.85373c-7.65268,4.41828 -17.43813,1.79628 -21.85641,-5.85641z" stroke-linecap="butt"/></g><rect x="-292" y="-550" transform="rotate(180)" width="34" height="34" stroke="#000000" stroke-width="0.5" stroke-linecap="butt" opacity="0"/><g stroke="#000000" stroke-width="0.5"><circle cx="28.34301" cy="-599.09154" transform="rotate(150)" r="16" data-paper-data="{&quot;index&quot;:0}" stroke-linecap="round" opacity="0"/><circle cx="44.34365" cy="-599.09117" transform="rotate(150)" r="16" data-paper-data="{&quot;index&quot;:1}" stroke-linecap="round" opacity="0"/><circle cx="36.34365" cy="-585.23477" transform="rotate(150)" r="16" data-paper-data="{&quot;index&quot;:2}" stroke-linecap="round" opacity="0"/><circle cx="20.34301" cy="-585.23513" transform="rotate(150)" r="16" data-paper-data="{&quot;index&quot;:3}" stroke-linecap="round" opacity="0"/><circle cx="12.34238" cy="-599.09191" transform="rotate(150)" r="16" data-paper-data="{&quot;index&quot;:4}" stroke-linecap="round" opacity="0"/><circle cx="20.34238" cy="-612.94831" transform="rotate(150)" r="16" data-paper-data="{&quot;index&quot;:5}" stroke-linecap="round" opacity="0"/><path d="M261.14359,541c-2.96113,-5.12883 -2.75999,-11.21562 -0.00154,-16.00267c5.52467,0.00489 10.89621,2.87407 13.85721,8.00267c0.00052,0.00089 0.00103,0.00179 0.00155,0.00268c-1.35741,2.35567 -3.33409,4.39658 -5.85795,5.85373c-2.52363,1.45702 -5.27919,2.14841 -7.99772,2.14626c-0.00051,-0.00089 -0.00103,-0.00178 -0.00154,-0.00267z" stroke-linecap="butt"/><path d="M275.0008,533.00267c-5.52467,-0.00489 -10.89621,-2.87407 -13.85721,-8.00267c-0.00051,-0.00089 -0.00103,-0.00178 -0.00154,-0.00267c1.35741,-2.35567 3.33409,-4.39659 5.85795,-5.85374c2.52363,-1.45702 5.27919,-2.14841 7.99772,-2.14626c0.00051,0.00089 0.00103,0.00178 0.00154,0.00267c2.96113,5.12883 2.75999,11.21562 0.00154,16.00267z" stroke-linecap="butt"/><path d="M275.00228,533.00267c-0.00051,-0.00089 -0.00103,-0.00178 -0.00154,-0.00267c-2.96113,-5.12883 -2.75999,-11.21562 -0.00154,-16.00267c5.52467,0.00489 10.89621,2.87407 13.85721,8.00267c0.00051,0.00089 0.00103,0.00178 0.00154,0.00267c-1.35741,2.35567 -3.33409,4.39659 -5.85795,5.85374c-2.52363,1.45702 -5.27919,2.14841 -7.99772,2.14626z" stroke-linecap="butt"/><path d="M274.99919,532.99734c1.35741,-2.35567 3.33409,-4.3966 5.85795,-5.85375c2.52363,-1.45702 5.27919,-2.14841 7.99772,-2.14626c0.00051,0.00089 0.00103,0.00178 0.00154,0.00267c2.96113,5.12883 2.75999,11.21562 0.00154,16.00267c-5.52467,-0.00489 -10.89621,-2.87407 -13.85721,-8.00267c-0.00052,-0.00089 -0.00103,-0.00177 -0.00154,-0.00266z" stroke-linecap="butt"/></g><path d="M274.99772,516.99733c0.00051,0.00089 0.00103,0.00178 0.00154,0.00267c4.41828,7.65268 1.79628,17.43813 -5.85641,21.85641c-2.52363,1.45702 -5.27919,2.14841 -7.99772,2.14626c-0.00051,-0.00089 -0.00103,-0.00178 -0.00154,-0.00267c-4.41828,-7.65268 -1.79628,-17.43813 5.85641,-21.85641c2.52365,-1.45703 5.27917,-2.14842 7.99772,-2.14626z" stroke-width="1" stroke-linecap="butt"/><path d="M261.14359,525c-0.00051,-0.00089 -0.00103,-0.00178 -0.00154,-0.00267c1.35741,-2.35567 3.33409,-4.39659 5.85795,-5.85374c7.65268,-4.41828 17.43813,-1.79628 21.85641,5.85641c0.00052,0.00089 0.00103,0.00179 0.00155,0.00268c-1.35741,2.35567 -3.33409,4.39658 -5.85795,5.85373c-7.65268,4.41828 -17.43813,1.79628 -21.85641,-5.85641z" stroke-width="1" stroke-linecap="butt"/><path d="M275.00074,533c-2.96113,-5.12883 -2.75999,-11.21562 -0.00154,-16.00267c5.52467,0.00489 10.89621,2.87407 13.85721,8.00267c2.96113,5.12883 2.75999,11.21562 0.00154,16.00267c-5.52467,-0.00489 -10.89621,-2.87407 -13.85721,-8.00267z" stroke-width="1" stroke-linecap="butt"/><path d="M280.85714,527.14359c2.52363,-1.45702 5.27919,-2.14841 7.99772,-2.14626c0.00051,0.00089 0.00103,0.00178 0.00154,0.00267c4.41828,7.65268 1.79628,17.43813 -5.85641,21.85641c-2.52365,1.45703 -5.27923,2.14842 -7.99779,2.14626c-0.00051,-0.00089 -0.00097,-0.00178 -0.00148,-0.00267c-4.41828,-7.65268 -1.79628,-17.43813 5.85641,-21.85641z" stroke-width="1" stroke-linecap="butt"/><rect x="-378" y="-550" transform="rotate(180)" width="34" height="34" stroke="#000000" stroke-width="0.5" stroke-linecap="butt" opacity="0"/><g stroke="#000000" stroke-width="0.5"><circle cx="-46.13517" cy="-642.09154" transform="rotate(150)" r="16" data-paper-data="{&quot;index&quot;:0}" stroke-linecap="round" opacity="0"/><circle cx="-30.13453" cy="-642.09117" transform="rotate(150)" r="16" data-paper-data="{&quot;index&quot;:1}" stroke-linecap="round" opacity="0"/><circle cx="-38.13453" cy="-628.23477" transform="rotate(150)" r="16" data-paper-data="{&quot;index&quot;:2}" stroke-linecap="round" opacity="0"/><circle cx="-54.13517" cy="-628.23513" transform="rotate(150)" r="16" data-paper-data="{&quot;index&quot;:3}" stroke-linecap="round" opacity="0"/><circle cx="-62.13581" cy="-642.09191" transform="rotate(150)" r="16" data-paper-data="{&quot;index&quot;:4}" stroke-linecap="round" opacity="0"/><circle cx="-54.13581" cy="-655.94831" transform="rotate(150)" r="16" data-paper-data="{&quot;index&quot;:5}" stroke-linecap="round" opacity="0"/><path d="M347.14206,524.99733c5.52467,0.00489 10.89621,2.87407 13.8572,8.00267c0.00051,0.00089 0.00103,0.00178 0.00154,0.00267c-5.52466,-0.00489 -10.89621,-2.87407 -13.85721,-8.00267c-0.00051,-0.00089 -0.00102,-0.00178 -0.00153,-0.00267z" stroke-linecap="butt"/><path d="M360.99846,532.99861c0.00027,0.00046 0.00053,0.00093 0.0008,0.00139c2.96087,5.12837 2.76003,11.21454 0.00227,16.00139c-0.00027,-0.00046 -0.00053,-0.00093 -0.0008,-0.00139c-2.96087,-5.12837 -2.76003,-11.21454 -0.00227,-16.00139z" stroke-linecap="butt"/><path d="M360.99846,516.99861c0.00027,0.00046 0.00053,0.00093 0.0008,0.00139c2.96087,5.12837 2.76003,11.21454 0.00227,16.00139c-0.00027,-0.00046 -0.00053,-0.00093 -0.0008,-0.00139c-2.96087,-5.12837 -2.76003,-11.21454 -0.00227,-16.00139z" stroke-linecap="butt"/><path d="M369,530.85641c-2.52553,1.45812 -5.28334,2.14946 -8.00387,2.14625c1.3575,-2.35792 3.33526,-4.40082 5.86101,-5.85907c2.52553,-1.45812 5.28334,-2.14946 8.00387,-2.14625c-1.3575,2.35792 -3.33526,4.40082 -5.86101,5.85907z" stroke-linecap="butt"/></g><rect x="-120" y="-636" transform="rotate(180)" width="34" height="34" stroke="#000000" stroke-width="0.5" stroke-linecap="butt" opacity="0"/><g stroke="#000000" stroke-width="0.5" stroke-linecap="round"><circle cx="-103" cy="-619" transform="rotate(180)" r="16" data-paper-data="{&quot;index&quot;:0}"/><circle cx="-87" cy="-619" transform="rotate(180)" r="16" data-paper-data="{&quot;index&quot;:1}"/><circle cx="-95" cy="-605.14286" transform="rotate(180)" r="16" data-paper-data="{&quot;index&quot;:2}"/><circle cx="-111" cy="-605.14286" transform="rotate(180)" r="16" data-paper-data="{&quot;index&quot;:3}"/><circle cx="-119" cy="-619" transform="rotate(180)" r="16" data-paper-data="{&quot;index&quot;:4}"/><circle cx="-111" cy="-632.85714" transform="rotate(180)" r="16" data-paper-data="{&quot;index&quot;:5}"/><circle cx="-95" cy="-632.85714" transform="rotate(180)" r="16" data-paper-data="{&quot;index&quot;:6}"/></g><rect x="-206" y="-636" transform="rotate(180)" width="34" height="34" stroke="#000000" stroke-width="0.5" stroke-linecap="butt" opacity="0"/><g stroke="#000000" stroke-width="0.5"><circle cx="-189" cy="-619" transform="rotate(180)" r="16" data-paper-data="{&quot;index&quot;:0}" stroke-linecap="round" opacity="0"/><circle cx="-173" cy="-619" transform="rotate(180)" r="16" data-paper-data="{&quot;index&quot;:1}" stroke-linecap="round" opacity="0"/><circle cx="-181" cy="-605.14286" transform="rotate(180)" r="16" data-paper-data="{&quot;index&quot;:2}" stroke-linecap="round" opacity="0"/><circle cx="-197" cy="-605.14286" transform="rotate(180)" r="16" data-paper-data="{&quot;index&quot;:3}" stroke-linecap="round" opacity="0"/><circle cx="-205" cy="-619" transform="rotate(180)" r="16" data-paper-data="{&quot;index&quot;:4}" stroke-linecap="round" opacity="0"/><circle cx="-197" cy="-632.85714" transform="rotate(180)" r="16" data-paper-data="{&quot;index&quot;:5}" stroke-linecap="round" opacity="0"/><circle cx="-181" cy="-632.85714" transform="rotate(180)" r="16" data-paper-data="{&quot;index&quot;:6}" stroke-linecap="round" opacity="0"/><path d="M173,619c0,-5.92226 3.21759,-11.09301 8,-13.85948c4.78241,2.76648 8,7.93723 8,13.85948c0,5.92226 -3.21759,11.09301 -8,13.85948c-4.78241,-2.76648 -8,-7.93723 -8,-13.85948z" stroke-linecap="butt"/><path d="M189,603c2.9143,0 5.64661,0.77915 8,2.14052c0,0.00078 0,0.00156 0,0.00234c0,8.83656 -7.16344,16 -16,16c-2.91432,0 -5.64665,-0.77917 -8.00005,-2.14055c0,-0.00078 0.00005,-0.00153 0.00005,-0.00231c0,-8.83656 7.16344,-16 16,-16z" stroke-linecap="butt"/><path d="M189,603c8.83656,0 16,7.16344 16,16c0,0.00078 0,0.00156 0,0.00234c-2.35339,1.36137 -5.08569,2.14052 -8,2.14052c-8.83656,0 -16,-7.16344 -16,-16c0,-0.00078 0,-0.00157 0,-0.00235c2.35339,-1.36136 5.0857,-2.1405 8,-2.1405z" stroke-linecap="butt"/><path d="M197,605.14052c4.78241,2.76648 8,7.93723 8,13.85948c0,5.92226 -3.21759,11.09301 -8,13.85948c-4.78241,-2.76648 -8,-7.93723 -8,-13.85948c0,-5.92226 3.21759,-11.09301 8,-13.85948z" stroke-linecap="butt"/><path d="M205,618.99766c0,0.00078 0,0.00156 0,0.00234c0,8.83656 -7.16344,16 -16,16c-2.9143,0 -5.64661,-0.77915 -8,-2.14052c0,-0.00078 0,-0.00156 0,-0.00234c0,-8.83656 7.16344,-16 16,-16c2.9143,0 5.64661,0.77915 8,2.14052z" stroke-linecap="butt"/><path d="M173,619c0,-0.00078 0,-0.00156 0,-0.00234c2.35339,-1.36136 5.0857,-2.14052 8,-2.14052c8.83656,0 16,7.16344 16,16c0,0.00078 0,0.00157 0,0.00235c-2.35339,1.36136 -5.0857,2.1405 -8,2.1405c-8.83656,0 -16,-7.16344 -16,-16z" stroke-linecap="butt"/><path d="M173,603c8.83656,0 16,7.16344 16,16c0,0.00078 0,0.00156 0,0.00234c-2.35339,1.36137 -5.08569,2.14052 -8,2.14052c-8.83656,0 -16,-7.16344 -16,-16c0,-0.00078 0,-0.00157 0,-0.00235c2.35339,-1.36136 5.0857,-2.1405 8,-2.1405z" stroke-linecap="butt"/><path d="M189,618.99766c0,0.00078 0,0.00156 0,0.00234c0,8.83656 -7.16344,16 -16,16c-2.9143,0 -5.64661,-0.77915 -8,-2.14052c0,-0.00078 0,-0.00156 0,-0.00234c0,-8.83656 7.16344,-16 16,-16c2.9143,0 5.64661,0.77915 8,2.14052z" stroke-linecap="butt"/><path d="M189,591.28337c4.78241,2.76648 8,7.93723 8,13.85948c0,5.92226 -3.21759,11.09301 -8,13.85948c-4.78241,-2.76648 -8,-7.93723 -8,-13.85948c0,-5.92226 3.21759,-11.09301 8,-13.85948z" stroke-linecap="butt"/><path d="M213,605.14052c0,0.00078 0,0.00156 0,0.00234c0,8.83656 -7.16344,16 -16,16c-2.9143,0 -5.64661,-0.77915 -8,-2.14052c0,-0.00078 0,-0.00156 0,-0.00234c0,-8.83656 7.16344,-16 16,-16c2.9143,0 5.64661,0.77915 8,2.14052z" stroke-linecap="butt"/><path d="M189,619c0,-0.00078 0,-0.00156 0,-0.00234c2.35339,-1.36136 5.0857,-2.14052 8,-2.14052c8.83656,0 16,7.16344 16,16c0,0.00078 0,0.00157 0,0.00235c-2.35339,1.36136 -5.0857,2.1405 -8,2.1405c-8.83656,0 -16,-7.16344 -16,-16z" stroke-linecap="butt"/><path d="M181,632.85714c0,-5.92226 3.21759,-11.09301 8,-13.85948c4.78241,2.76648 8,7.93723 8,13.85948c0,5.92226 -3.21759,11.09301 -8,13.85948c-4.78241,-2.76648 -8,-7.93723 -8,-13.85948z" stroke-linecap="butt"/></g><rect x="-292" y="-636" transform="rotate(180)" width="34" height="34" stroke="#000000" stroke-width="0.5" stroke-linecap="butt" opacity="0"/><g stroke="#000000" stroke-width="0.5"><circle cx="-275" cy="-619" transform="rotate(180)" r="16" data-paper-data="{&quot;index&quot;:0}" stroke-linecap="round" opacity="0"/><circle cx="-259" cy="-619" transform="rotate(180)" r="16" data-paper-data="{&quot;index&quot;:1}" stroke-linecap="round" opacity="0"/><circle cx="-267" cy="-605.14286" transform="rotate(180)" r="16" data-paper-data="{&quot;index&quot;:2}" stroke-linecap="round" opacity="0"/><circle cx="-283" cy="-605.14286" transform="rotate(180)" r="16" data-paper-data="{&quot;index&quot;:3}" stroke-linecap="round" opacity="0"/><circle cx="-291" cy="-619" transform="rotate(180)" r="16" data-paper-data="{&quot;index&quot;:4}" stroke-linecap="round" opacity="0"/><circle cx="-283" cy="-632.85714" transform="rotate(180)" r="16" data-paper-data="{&quot;index&quot;:5}" stroke-linecap="round" opacity="0"/><circle cx="-267" cy="-632.85714" transform="rotate(180)" r="16" data-paper-data="{&quot;index&quot;:6}" stroke-linecap="round" opacity="0"/><path d="M259,619c0,-5.92226 3.21759,-11.09301 8,-13.85948c4.78241,2.76648 8,7.93723 8,13.85948c0,0.00078 0,0.00157 0,0.00235c-2.35339,1.36136 -5.0857,2.1405 -8,2.1405c-2.9143,0 -5.64661,-0.77915 -8,-2.14052c0,-0.00078 0,-0.00156 0,-0.00234z" stroke-linecap="butt"/><path d="M259,618.99765c2.35339,-1.36136 5.0857,-2.1405 8,-2.1405c2.9143,0 5.64661,0.77915 8,2.14052c0,0.00078 0,0.00156 0,0.00234c0,5.92226 -3.21759,11.09301 -8,13.85948c-4.78241,-2.76648 -8,-7.93723 -8,-13.85948c0,-0.00078 0,-0.00157 0,-0.00235z" stroke-linecap="butt"/><path d="M275,619.00234c-4.78241,-2.76648 -8,-7.93723 -8,-13.85948c0,-0.00078 0,-0.00156 0,-0.00234c2.35339,-1.36136 5.0857,-2.14052 8,-2.14052c2.9143,0 5.64661,0.77915 8,2.14052c0,0.00078 0,0.00156 0,0.00234c0,5.92226 -3.21759,11.09301 -8,13.85948z" stroke-linecap="butt"/><path d="M275,619.00234c0,-0.00078 0,-0.00156 0,-0.00234c0,-5.92226 3.21759,-11.09301 8,-13.85948c4.78241,2.76648 8,7.93723 8,13.85948c0,0.00078 0,0.00156 0,0.00234c-2.35339,1.36136 -5.0857,2.14052 -8,2.14052c-2.9143,0 -5.64661,-0.77915 -8,-2.14052z" stroke-linecap="butt"/><path d="M274.99999,618.99766c2.35339,-1.36136 5.08571,-2.14052 8.00001,-2.14052c2.9143,0 5.64661,0.77915 8,2.14052c0,0.00078 0,0.00156 0,0.00234c0,5.92226 -3.21759,11.09301 -8,13.85948c-4.78241,-2.76648 -8,-7.93723 -8,-13.85948c0,-0.00078 -0.00001,-0.00155 -0.00001,-0.00234z" stroke-linecap="butt"/><path d="M275,635c-2.9143,0 -5.64661,-0.77915 -8,-2.14052c0,-0.00078 0,-0.00156 0,-0.00234c0,-5.92226 3.21759,-11.09301 8,-13.85948c4.78241,2.76648 8,7.93723 8,13.85948c0,0.00078 0,0.00156 0,0.00234c-2.35339,1.36137 -5.08569,2.14052 -8,2.14052z" stroke-linecap="butt"/></g><path d="M283,605.14052c0,0.00078 0,0.00156 0,0.00234c0,8.83656 -7.16344,16 -16,16c-2.9143,0 -5.64661,-0.77915 -8,-2.14052c0,-0.00078 0,-0.00156 0,-0.00234c0,-8.83656 7.16344,-16 16,-16c2.9143,0 5.64661,0.77915 8,2.14052z" stroke-width="1" stroke-linecap="butt"/><path d="M267,616.85714c8.83656,0 16,7.16344 16,16c0,0.00078 0,0.00156 0,0.00234c-2.35339,1.36137 -5.08569,2.14052 -8,2.14052c-8.83656,0 -16,-7.16344 -16,-16c0,-0.00078 0,-0.00157 0,-0.00235c2.35339,-1.36136 5.0857,-2.1405 8,-2.1405z" stroke-width="1" stroke-linecap="butt"/><path d="M267,605.14286c0,-0.00078 0,-0.00156 0,-0.00234c2.35339,-1.36136 5.0857,-2.14052 8,-2.14052c8.83656,0 16,7.16344 16,16c0,0.00078 0,0.00157 0,0.00235c-2.35339,1.36136 -5.0857,2.1405 -8,2.1405c-8.83656,0 -16,-7.16344 -16,-16z" stroke-width="1" stroke-linecap="butt"/><path d="M275,619c0,-5.92226 3.21759,-11.09301 8,-13.85948c4.78241,2.76648 8,7.93723 8,13.85948c0,5.92226 -3.21759,11.09301 -8,13.85948c-4.78241,-2.76648 -8,-7.93723 -8,-13.85948z" stroke-width="1" stroke-linecap="butt"/><path d="M283,616.85714c2.9143,0 5.64661,0.77915 8,2.14052c0,0.00078 0,0.00156 0,0.00234c0,8.83656 -7.16344,16 -16,16c-2.91432,0 -5.64665,-0.77917 -8.00005,-2.14055c0,-0.00078 0.00005,-0.00153 0.00005,-0.00231c0,-8.83656 7.16344,-16 16,-16z" stroke-width="1" stroke-linecap="butt"/><path d="M267,616.85714c8.83656,0 16,7.16344 16,16c0,0.00078 0,0.00156 0,0.00234c-2.35339,1.36137 -5.08569,2.14052 -8,2.14052c-8.83656,0 -16,-7.16344 -16,-16c0,-0.00078 0,-0.00157 0,-0.00235c2.35339,-1.36136 5.0857,-2.1405 8,-2.1405z" stroke-width="1" stroke-linecap="butt"/><rect x="-378" y="-636" transform="rotate(180)" width="34" height="34" stroke="#000000" stroke-width="0.5" stroke-linecap="butt" opacity="0"/><g stroke="#000000" stroke-width="0.5"><circle cx="-361" cy="-619" transform="rotate(180)" r="16" data-paper-data="{&quot;index&quot;:0}" stroke-linecap="round" opacity="0"/><circle cx="-345" cy="-619" transform="rotate(180)" r="16" data-paper-data="{&quot;index&quot;:1}" stroke-linecap="round" opacity="0"/><circle cx="-353" cy="-605.14286" transform="rotate(180)" r="16" data-paper-data="{&quot;index&quot;:2}" stroke-linecap="round" opacity="0"/><circle cx="-369" cy="-605.14286" transform="rotate(180)" r="16" data-paper-data="{&quot;index&quot;:3}" stroke-linecap="round" opacity="0"/><circle cx="-377" cy="-619" transform="rotate(180)" r="16" data-paper-data="{&quot;index&quot;:4}" stroke-linecap="round" opacity="0"/><circle cx="-369" cy="-632.85714" transform="rotate(180)" r="16" data-paper-data="{&quot;index&quot;:5}" stroke-linecap="round" opacity="0"/><circle cx="-353" cy="-632.85714" transform="rotate(180)" r="16" data-paper-data="{&quot;index&quot;:6}" stroke-linecap="round" opacity="0"/><path d="M353,605.14052c4.78241,2.76648 8,7.93723 8,13.85948c0,0.00078 0,0.00156 0,0.00234c-4.7824,-2.76648 -8,-7.93723 -8,-13.85948c0,-0.00078 0,-0.00156 0,-0.00234z" stroke-linecap="butt"/><path d="M361,618.99766c0,0.00078 0,0.00156 0,0.00234c0,5.92226 -3.21759,11.09301 -8,13.85948c0,-0.00078 0,-0.00156 0,-0.00234c0,-5.92226 3.21759,-11.09301 8,-13.85948z" stroke-linecap="butt"/><path d="M369,605.14052c0,0.00078 0,0.00156 0,0.00234c0,5.92226 -3.21759,11.09301 -8,13.85948c0,-0.00078 0,-0.00156 0,-0.00234c0,-5.92226 3.21759,-11.09301 8,-13.85948z" stroke-linecap="butt"/><path d="M353,621.14286c-2.91597,0 -5.64975,-0.78005 -8.00405,-2.14286c2.3543,-1.36281 5.08808,-2.14286 8.00405,-2.14286c2.91597,0 5.64975,0.78005 8.00405,2.14286c-2.3543,1.36281 -5.08808,2.14286 -8.00405,2.14286z" stroke-linecap="butt"/><path d="M369,621.14286c-2.91597,0 -5.64975,-0.78005 -8.00405,-2.14286c2.3543,-1.36281 5.08808,-2.14286 8.00405,-2.14286c2.91597,0 5.64975,0.78005 8.00405,2.14286c-2.3543,1.36281 -5.08808,2.14286 -8.00405,2.14286z" stroke-linecap="butt"/><path d="M361,619c0,-0.00078 0,-0.00156 0,-0.00234c4.7824,2.76648 8,7.93723 8,13.85948c0,0.00078 0,0.00156 0,0.00234c-4.78241,-2.76648 -8,-7.93723 -8,-13.85949z" stroke-linecap="butt"/></g><rect x="570" y="25" width="510" height="800" fill="#ffffff" stroke-width="1" stroke-linecap="butt"/><g stroke-width="1" stroke-linecap="butt"/><rect x="-756" y="-120" transform="rotate(180)" width="34" height="34" stroke="#000000" stroke-width="0.5" stroke-linecap="butt" opacity="0"/><g stroke="#000000" stroke-width="0.5" stroke-linecap="round"><circle cx="-739" cy="-103" transform="rotate(180)" r="16" data-paper-data="{&quot;index&quot;:0}" opacity="0"/></g><rect x="-842" y="-120" transform="rotate(180)" width="34" height="34" stroke="#000000" stroke-width="0.5" stroke-linecap="butt" opacity="0"/><g stroke="#000000" stroke-width="0.5" stroke-linecap="round"><circle cx="-825" cy="-103" transform="rotate(180)" r="16" data-paper-data="{&quot;index&quot;:0}" opacity="0"/></g><rect x="-928" y="-120" transform="rotate(180)" width="34" height="34" stroke="#000000" stroke-width="0.5" stroke-linecap="butt" opacity="0"/><g stroke="#000000" stroke-width="0.5" stroke-linecap="round"><circle cx="-911" cy="-103" transform="rotate(180)" r="16" data-paper-data="{&quot;index&quot;:0}" opacity="0"/></g><rect x="-1014" y="-120" transform="rotate(180)" width="34" height="34" stroke="#000000" stroke-width="0.5" stroke-linecap="butt" opacity="0"/><g stroke="#000000" stroke-width="0.5" stroke-linecap="round"><circle cx="-997" cy="-103" transform="rotate(180)" r="16" data-paper-data="{&quot;index&quot;:0}"/></g><rect x="-756" y="-206" transform="rotate(180)" width="34" height="34" stroke="#000000" stroke-width="0.5" stroke-linecap="butt" opacity="0"/><g stroke="#000000" stroke-width="0.5" stroke-linecap="round"><circle cx="-189" cy="739" transform="rotate(-90)" r="16" data-paper-data="{&quot;index&quot;:0}" opacity="0"/><circle cx="-173" cy="739" transform="rotate(-90)" r="16" data-paper-data="{&quot;index&quot;:1}" opacity="0"/></g><rect x="-842" y="-206" transform="rotate(180)" width="34" height="34" stroke="#000000" stroke-width="0.5" stroke-linecap="butt" opacity="0"/><g stroke="#000000" stroke-width="0.5" stroke-linecap="round"><circle cx="-189" cy="825" transform="rotate(-90)" r="16" data-paper-data="{&quot;index&quot;:0}" opacity="0"/><circle cx="-173" cy="825" transform="rotate(-90)" r="16" data-paper-data="{&quot;index&quot;:1}" opacity="0"/></g><rect x="-928" y="-206" transform="rotate(180)" width="34" height="34" stroke="#000000" stroke-width="0.5" stroke-linecap="butt" opacity="0"/><g stroke="#000000" stroke-width="0.5" stroke-linecap="round"><circle cx="-189" cy="911" transform="rotate(-90)" r="16" data-paper-data="{&quot;index&quot;:0}" opacity="0"/><circle cx="-173" cy="911" transform="rotate(-90)" r="16" data-paper-data="{&quot;index&quot;:1}" opacity="0"/><circle cx="911" cy="181" r="8"/><circle cx="911" cy="181" r="13.85714"/></g><rect x="-1014" y="-206" transform="rotate(180)" width="34" height="34" stroke="#000000" stroke-width="0.5" stroke-linecap="butt" opacity="0"/><g stroke="#000000" stroke-width="0.5" stroke-linecap="round"><circle cx="-189" cy="997" transform="rotate(-90)" r="16" data-paper-data="{&quot;index&quot;:0}"/><circle cx="-173" cy="997" transform="rotate(-90)" r="16" data-paper-data="{&quot;index&quot;:1}"/></g><rect x="-756" y="-292" transform="rotate(180)" width="34" height="34" stroke="#000000" stroke-width="0.5" stroke-linecap="butt" opacity="0"/><g stroke="#000000" stroke-width="0.5" stroke-linecap="round"><circle cx="-607.65699" cy="502.49277" transform="rotate(-120)" r="16" data-paper-data="{&quot;index&quot;:0}" opacity="0"/><circle cx="-591.65635" cy="502.49314" transform="rotate(-120)" r="16" data-paper-data="{&quot;index&quot;:1}" opacity="0"/><circle cx="-599.65635" cy="516.34955" transform="rotate(-120)" r="16" data-paper-data="{&quot;index&quot;:2}" opacity="0"/></g><rect x="-842" y="-292" transform="rotate(180)" width="34" height="34" stroke="#000000" stroke-width="0.5" stroke-linecap="butt" opacity="0"/><g stroke="#000000" stroke-width="0.5" stroke-linecap="round"><circle cx="-650.65699" cy="576.97096" transform="matrix(-0.5000000000000019,-0.8660254037844375,0.8660254037844375,-0.5000000000000019,0,0)" r="16" data-paper-data="{&quot;index&quot;:0}" opacity="0"/><circle cx="-634.65635" cy="576.97133" transform="matrix(-0.5000000000000019,-0.8660254037844375,0.8660254037844375,-0.5000000000000019,0,0)" r="16" data-paper-data="{&quot;index&quot;:1}" opacity="0"/><circle cx="-642.65635" cy="590.82773" transform="matrix(-0.5000000000000019,-0.8660254037844375,0.8660254037844375,-0.5000000000000019,0,0)" r="16" data-paper-data="{&quot;index&quot;:2}" opacity="0"/><circle cx="825" cy="265.7619" r="6.7619"/><circle cx="825" cy="265.7619" r="9.2381"/></g><rect x="-928" y="-292" transform="rotate(180)" width="34" height="34" stroke="#000000" stroke-width="0.5" stroke-linecap="butt" opacity="0"/><g stroke="#000000" stroke-width="0.5" stroke-linecap="round"><circle cx="-693.65699" cy="651.44914" transform="matrix(-0.5000000000000019,-0.8660254037844375,0.8660254037844375,-0.5000000000000019,0,0)" r="16" data-paper-data="{&quot;index&quot;:0}" opacity="0"/><circle cx="-677.65635" cy="651.44951" transform="matrix(-0.5000000000000019,-0.8660254037844375,0.8660254037844375,-0.5000000000000019,0,0)" r="16" data-paper-data="{&quot;index&quot;:1}" opacity="0"/><circle cx="-685.65635" cy="665.30592" transform="matrix(-0.5000000000000019,-0.8660254037844375,0.8660254037844375,-0.5000000000000019,0,0)" r="16" data-paper-data="{&quot;index&quot;:2}" opacity="0"/><circle cx="907" cy="268.07143" r="8"/><circle cx="915" cy="268.07143" r="8"/><circle cx="911" cy="261.14286" r="8"/><circle cx="907" cy="268.07143" r="13.85714"/><circle cx="915" cy="268.07143" r="13.85714"/><circle cx="911" cy="261.14286" r="13.85714"/></g><rect x="-1014" y="-292" transform="rotate(180)" width="34" height="34" stroke="#000000" stroke-width="0.5" stroke-linecap="butt" opacity="0"/><g stroke="#000000" stroke-width="0.5" stroke-linecap="round"><circle cx="-736.65699" cy="725.92733" transform="matrix(-0.5000000000000019,-0.8660254037844375,0.8660254037844375,-0.5000000000000019,0,0)" r="16" data-paper-data="{&quot;index&quot;:0}"/><circle cx="-720.65635" cy="725.9277" transform="matrix(-0.5000000000000019,-0.8660254037844375,0.8660254037844375,-0.5000000000000019,0,0)" r="16" data-paper-data="{&quot;index&quot;:1}"/><circle cx="-728.65635" cy="739.7841" transform="matrix(-0.5000000000000019,-0.8660254037844375,0.8660254037844375,-0.5000000000000019,0,0)" r="16" data-paper-data="{&quot;index&quot;:2}"/></g><rect x="-756" y="-378" transform="rotate(180)" width="34" height="34" stroke="#000000" stroke-width="0.5" stroke-linecap="butt" opacity="0"/><g stroke="#000000" stroke-width="0.5" stroke-linecap="round"><circle cx="-820.49277" cy="56.86483" transform="rotate(-150)" r="16" data-paper-data="{&quot;index&quot;:0}" opacity="0"/><circle cx="-804.49214" cy="56.86446" transform="rotate(-150)" r="16" data-paper-data="{&quot;index&quot;:1}" opacity="0"/><circle cx="-812.49277" cy="70.72124" transform="rotate(-150)" r="16" data-paper-data="{&quot;index&quot;:2}" opacity="0"/><circle cx="-828.49341" cy="70.7216" transform="rotate(-150)" r="16" data-paper-data="{&quot;index&quot;:3}" opacity="0"/><circle cx="739" cy="353" r="2.14286"/><circle cx="739" cy="353" r="8"/></g><rect x="-842" y="-378" transform="rotate(180)" width="34" height="34" stroke="#000000" stroke-width="0.5" stroke-linecap="butt" opacity="0"/><g stroke="#000000" stroke-width="0.5" stroke-linecap="round"><circle cx="-894.97096" cy="99.86483" transform="rotate(-150)" r="16" data-paper-data="{&quot;index&quot;:0}" opacity="0"/><circle cx="-878.97032" cy="99.86446" transform="rotate(-150)" r="16" data-paper-data="{&quot;index&quot;:1}" opacity="0"/><circle cx="-886.97096" cy="113.72124" transform="rotate(-150)" r="16" data-paper-data="{&quot;index&quot;:2}" opacity="0"/><circle cx="-902.9716" cy="113.7216" transform="rotate(-150)" r="16" data-paper-data="{&quot;index&quot;:3}" opacity="0"/><circle cx="820.38095" cy="353" r="6.7619"/><circle cx="829.61905" cy="353" r="6.7619"/><circle cx="820.38095" cy="353" r="9.2381"/><circle cx="829.61905" cy="353" r="9.2381"/></g><rect x="-928" y="-378" transform="rotate(180)" width="34" height="34" stroke="#000000" stroke-width="0.5" stroke-linecap="butt" opacity="0"/><g stroke="#000000" stroke-width="0.5" stroke-linecap="round"><circle cx="-969.44914" cy="142.86483" transform="rotate(-150)" r="16" data-paper-data="{&quot;index&quot;:0}" opacity="0"/><circle cx="-953.44851" cy="142.86446" transform="rotate(-150)" r="16" data-paper-data="{&quot;index&quot;:1}" opacity="0"/><circle cx="-961.44914" cy="156.72124" transform="rotate(-150)" r="16" data-paper-data="{&quot;index&quot;:2}" opacity="0"/><circle cx="-977.44978" cy="156.7216" transform="rotate(-150)" r="16" data-paper-data="{&quot;index&quot;:3}" opacity="0"/><circle cx="904.07143" cy="357" r="8"/><circle cx="911" cy="353" r="8"/><circle cx="917.92857" cy="357" r="8"/><circle cx="904.07143" cy="349" r="8"/><circle cx="917.92857" cy="349" r="8"/><circle cx="904.07143" cy="357" r="13.85714"/><circle cx="911" cy="353" r="13.85714"/><circle cx="917.92857" cy="357" r="13.85714"/><circle cx="904.07143" cy="349" r="13.85714"/><circle cx="917.92857" cy="349" r="13.85714"/></g><rect x="-1014" y="-378" transform="rotate(180)" width="34" height="34" stroke="#000000" stroke-width="0.5" stroke-linecap="butt" opacity="0"/><g stroke="#000000" stroke-width="0.5" stroke-linecap="round"><circle cx="-1043.92733" cy="185.86483" transform="rotate(-150)" r="16" data-paper-data="{&quot;index&quot;:0}"/><circle cx="-1027.92669" cy="185.86446" transform="rotate(-150)" r="16" data-paper-data="{&quot;index&quot;:1}"/><circle cx="-1035.92733" cy="199.72124" transform="rotate(-150)" r="16" data-paper-data="{&quot;index&quot;:2}"/><circle cx="-1051.92797" cy="199.7216" transform="rotate(-150)" r="16" data-paper-data="{&quot;index&quot;:3}"/></g><rect x="-756" y="-464" transform="rotate(180)" width="34" height="34" stroke="#000000" stroke-width="0.5" stroke-linecap="butt" opacity="0"/><g stroke="#000000" stroke-width="0.5" stroke-linecap="round"><circle cx="-739" cy="-447" transform="rotate(180)" r="16" data-paper-data="{&quot;index&quot;:0}" opacity="0"/><circle cx="-723" cy="-447" transform="rotate(180)" r="16" data-paper-data="{&quot;index&quot;:1}" opacity="0"/><circle cx="-731" cy="-433.14286" transform="rotate(180)" r="16" data-paper-data="{&quot;index&quot;:2}" opacity="0"/><circle cx="-747" cy="-433.14286" transform="rotate(180)" r="16" data-paper-data="{&quot;index&quot;:3}" opacity="0"/><circle cx="-755" cy="-447" transform="rotate(180)" r="16" data-paper-data="{&quot;index&quot;:4}" opacity="0"/><circle cx="735" cy="440.07143" r="2.14286"/><circle cx="743" cy="440.07143" r="2.14286"/><circle cx="735" cy="440.07143" r="8"/><circle cx="743" cy="440.07143" r="8"/></g><rect x="-842" y="-464" transform="rotate(180)" width="34" height="34" stroke="#000000" stroke-width="0.5" stroke-linecap="butt" opacity="0"/><g stroke="#000000" stroke-width="0.5" stroke-linecap="round"><circle cx="-825" cy="-447" transform="rotate(180)" r="16" data-paper-data="{&quot;index&quot;:0}" opacity="0"/><circle cx="-809" cy="-447" transform="rotate(180)" r="16" data-paper-data="{&quot;index&quot;:1}" opacity="0"/><circle cx="-817" cy="-433.14286" transform="rotate(180)" r="16" data-paper-data="{&quot;index&quot;:2}" opacity="0"/><circle cx="-833" cy="-433.14286" transform="rotate(180)" r="16" data-paper-data="{&quot;index&quot;:3}" opacity="0"/><circle cx="-841" cy="-447" transform="rotate(180)" r="16" data-paper-data="{&quot;index&quot;:4}" opacity="0"/><circle cx="817" cy="442.38095" r="6.7619"/><circle cx="825" cy="437.7619" r="6.7619"/><circle cx="833" cy="442.38095" r="6.7619"/><circle cx="817" cy="442.38095" r="9.2381"/><circle cx="825" cy="437.7619" r="9.2381"/><circle cx="833" cy="442.38095" r="9.2381"/></g><rect x="-928" y="-464" transform="rotate(180)" width="34" height="34" stroke="#000000" stroke-width="0.5" stroke-linecap="butt" opacity="0"/><g stroke="#000000" stroke-width="0.5" stroke-linecap="round"><circle cx="-911" cy="-447" transform="rotate(180)" r="16" data-paper-data="{&quot;index&quot;:0}" opacity="0"/><circle cx="-895" cy="-447" transform="rotate(180)" r="16" data-paper-data="{&quot;index&quot;:1}" opacity="0"/><circle cx="-903" cy="-433.14286" transform="rotate(180)" r="16" data-paper-data="{&quot;index&quot;:2}" opacity="0"/><circle cx="-919" cy="-433.14286" transform="rotate(180)" r="16" data-paper-data="{&quot;index&quot;:3}" opacity="0"/><circle cx="-927" cy="-447" transform="rotate(180)" r="16" data-paper-data="{&quot;index&quot;:4}" opacity="0"/><circle cx="903" cy="447" r="8"/><circle cx="907" cy="440.07143" r="8"/><circle cx="915" cy="440.07143" r="8"/><circle cx="919" cy="447" r="8"/><circle cx="899" cy="440.07143" r="8"/><circle cx="911" cy="433.14286" r="8"/><circle cx="923" cy="440.07143" r="8"/><circle cx="903" cy="447" r="13.85714"/><circle cx="907" cy="440.07143" r="13.85714"/><circle cx="915" cy="440.07143" r="13.85714"/><circle cx="919" cy="447" r="13.85714"/><circle cx="899" cy="440.07143" r="13.85714"/><circle cx="911" cy="433.14286" r="13.85714"/><circle cx="923" cy="440.07143" r="13.85714"/></g><rect x="-1014" y="-464" transform="rotate(180)" width="34" height="34" stroke="#000000" stroke-width="0.5" stroke-linecap="butt" opacity="0"/><g stroke="#000000" stroke-width="0.5" stroke-linecap="round"><circle cx="-997" cy="-447" transform="rotate(180)" r="16" data-paper-data="{&quot;index&quot;:0}"/><circle cx="-981" cy="-447" transform="rotate(180)" r="16" data-paper-data="{&quot;index&quot;:1}"/><circle cx="-989" cy="-433.14286" transform="rotate(180)" r="16" data-paper-data="{&quot;index&quot;:2}"/><circle cx="-1005" cy="-433.14286" transform="rotate(180)" r="16" data-paper-data="{&quot;index&quot;:3}"/><circle cx="-1013" cy="-447" transform="rotate(180)" r="16" data-paper-data="{&quot;index&quot;:4}"/></g><rect x="-756" y="-550" transform="rotate(180)" width="34" height="34" stroke="#000000" stroke-width="0.5" stroke-linecap="butt" opacity="0"/><g stroke="#000000" stroke-width="0.5" stroke-linecap="round"><circle cx="-373.49277" cy="-831.09154" transform="rotate(150)" r="16" data-paper-data="{&quot;index&quot;:0}" opacity="0"/><circle cx="-357.49214" cy="-831.09117" transform="rotate(150)" r="16" data-paper-data="{&quot;index&quot;:1}" opacity="0"/><circle cx="-365.49214" cy="-817.23477" transform="rotate(150)" r="16" data-paper-data="{&quot;index&quot;:2}" opacity="0"/><circle cx="-381.49277" cy="-817.23513" transform="rotate(150)" r="16" data-paper-data="{&quot;index&quot;:3}" opacity="0"/><circle cx="-389.49341" cy="-831.09191" transform="rotate(150)" r="16" data-paper-data="{&quot;index&quot;:4}" opacity="0"/><circle cx="-381.49341" cy="-844.94831" transform="rotate(150)" r="16" data-paper-data="{&quot;index&quot;:5}" opacity="0"/><circle cx="732.07143" cy="529" r="2.14286"/><circle cx="739" cy="541" r="2.14286"/><circle cx="739" cy="525" r="2.14286"/><circle cx="745.92857" cy="529" r="2.14286"/><circle cx="732.07143" cy="529" r="8"/><circle cx="739" cy="541" r="8"/><circle cx="739" cy="525" r="8"/><circle cx="745.92857" cy="529" r="8"/></g><rect x="-842" y="-550" transform="rotate(180)" width="34" height="34" stroke="#000000" stroke-width="0.5" stroke-linecap="butt" opacity="0"/><g stroke="#000000" stroke-width="0.5" stroke-linecap="round"><circle cx="-447.97096" cy="-874.09154" transform="rotate(150)" r="16" data-paper-data="{&quot;index&quot;:0}" opacity="0"/><circle cx="-431.97032" cy="-874.09117" transform="rotate(150)" r="16" data-paper-data="{&quot;index&quot;:1}" opacity="0"/><circle cx="-439.97032" cy="-860.23477" transform="rotate(150)" r="16" data-paper-data="{&quot;index&quot;:2}" opacity="0"/><circle cx="-455.97096" cy="-860.23513" transform="rotate(150)" r="16" data-paper-data="{&quot;index&quot;:3}" opacity="0"/><circle cx="-463.9716" cy="-874.09191" transform="rotate(150)" r="16" data-paper-data="{&quot;index&quot;:4}" opacity="0"/><circle cx="-455.9716" cy="-887.94831" transform="rotate(150)" r="16" data-paper-data="{&quot;index&quot;:5}" opacity="0"/><circle cx="815.7619" cy="533" r="6.7619"/><circle cx="820.38095" cy="525" r="6.7619"/><circle cx="829.61905" cy="525" r="6.7619"/><circle cx="834.2381" cy="533" r="6.7619"/><circle cx="815.7619" cy="533" r="9.2381"/><circle cx="820.38095" cy="525" r="9.2381"/><circle cx="829.61905" cy="525" r="9.2381"/><circle cx="834.2381" cy="533" r="9.2381"/></g><rect x="-928" y="-550" transform="rotate(180)" width="34" height="34" stroke="#000000" stroke-width="0.5" stroke-linecap="butt" opacity="0"/><g stroke="#000000" stroke-width="0.5" stroke-linecap="round"><circle cx="-522.44914" cy="-917.09154" transform="rotate(150)" r="16" data-paper-data="{&quot;index&quot;:0}" opacity="0"/><circle cx="-506.44851" cy="-917.09117" transform="rotate(150)" r="16" data-paper-data="{&quot;index&quot;:1}" opacity="0"/><circle cx="-514.44851" cy="-903.23477" transform="rotate(150)" r="16" data-paper-data="{&quot;index&quot;:2}" opacity="0"/><circle cx="-530.44914" cy="-903.23513" transform="rotate(150)" r="16" data-paper-data="{&quot;index&quot;:3}" opacity="0"/><circle cx="-538.44978" cy="-917.09191" transform="rotate(150)" r="16" data-paper-data="{&quot;index&quot;:4}" opacity="0"/><circle cx="-530.44978" cy="-930.94831" transform="rotate(150)" r="16" data-paper-data="{&quot;index&quot;:5}" opacity="0"/><circle cx="904.07143" cy="537" r="8"/><circle cx="904.07143" cy="529" r="8"/><circle cx="911" cy="525" r="8"/><circle cx="917.92857" cy="529" r="8"/><circle cx="917.92857" cy="537" r="8"/><circle cx="897.14286" cy="533" r="8"/><circle cx="904.07143" cy="521" r="8"/><circle cx="917.92857" cy="521" r="8"/><circle cx="924.85714" cy="533" r="8"/><circle cx="904.07143" cy="537" r="13.85714"/><circle cx="904.07143" cy="529" r="13.85714"/><circle cx="911" cy="525" r="13.85714"/><circle cx="917.92857" cy="529" r="13.85714"/><circle cx="917.92857" cy="537" r="13.85714"/><circle cx="897.14286" cy="533" r="13.85714"/><circle cx="904.07143" cy="521" r="13.85714"/><circle cx="917.92857" cy="521" r="13.85714"/><circle cx="924.85714" cy="533" r="13.85714"/></g><rect x="-1014" y="-550" transform="rotate(180)" width="34" height="34" stroke="#000000" stroke-width="0.5" stroke-linecap="butt" opacity="0"/><g stroke="#000000" stroke-width="0.5" stroke-linecap="round"><circle cx="-596.92733" cy="-960.09154" transform="rotate(150)" r="16" data-paper-data="{&quot;index&quot;:0}"/><circle cx="-580.92669" cy="-960.09117" transform="rotate(150)" r="16" data-paper-data="{&quot;index&quot;:1}"/><circle cx="-588.92669" cy="-946.23477" transform="rotate(150)" r="16" data-paper-data="{&quot;index&quot;:2}"/><circle cx="-604.92733" cy="-946.23513" transform="rotate(150)" r="16" data-paper-data="{&quot;index&quot;:3}"/><circle cx="-612.92797" cy="-960.09191" transform="rotate(150)" r="16" data-paper-data="{&quot;index&quot;:4}"/><circle cx="-604.92797" cy="-973.94831" transform="rotate(150)" r="16" data-paper-data="{&quot;index&quot;:5}"/></g><rect x="-756" y="-636" transform="rotate(180)" width="34" height="34" stroke="#000000" stroke-width="0.5" stroke-linecap="butt" opacity="0"/><g stroke="#000000" stroke-width="0.5" stroke-linecap="round"><circle cx="-739" cy="-619" transform="rotate(180)" r="16" data-paper-data="{&quot;index&quot;:0}" opacity="0"/><circle cx="-723" cy="-619" transform="rotate(180)" r="16" data-paper-data="{&quot;index&quot;:1}" opacity="0"/><circle cx="-731" cy="-605.14286" transform="rotate(180)" r="16" data-paper-data="{&quot;index&quot;:2}" opacity="0"/><circle cx="-747" cy="-605.14286" transform="rotate(180)" r="16" data-paper-data="{&quot;index&quot;:3}" opacity="0"/><circle cx="-755" cy="-619" transform="rotate(180)" r="16" data-paper-data="{&quot;index&quot;:4}" opacity="0"/><circle cx="-747" cy="-632.85714" transform="rotate(180)" r="16" data-paper-data="{&quot;index&quot;:5}" opacity="0"/><circle cx="-731" cy="-632.85714" transform="rotate(180)" r="16" data-paper-data="{&quot;index&quot;:6}" opacity="0"/><circle cx="735" cy="612.07143" r="2.14286"/><circle cx="735" cy="625.92857" r="2.14286"/><circle cx="743" cy="612.07143" r="2.14286"/><circle cx="731" cy="619" r="2.14286"/><circle cx="747" cy="619" r="2.14286"/><circle cx="743" cy="625.92857" r="2.14286"/><circle cx="735" cy="612.07143" r="8"/><circle cx="735" cy="625.92857" r="8"/><circle cx="743" cy="612.07143" r="8"/><circle cx="731" cy="619" r="8"/><circle cx="747" cy="619" r="8"/><circle cx="743" cy="625.92857" r="8"/></g><rect x="-842" y="-636" transform="rotate(180)" width="34" height="34" stroke="#000000" stroke-width="0.5" stroke-linecap="butt" opacity="0"/><g stroke="#000000" stroke-width="0.5" stroke-linecap="round"><circle cx="-825" cy="-619" transform="rotate(180)" r="16" data-paper-data="{&quot;index&quot;:0}" opacity="0"/><circle cx="-809" cy="-619" transform="rotate(180)" r="16" data-paper-data="{&quot;index&quot;:1}" opacity="0"/><circle cx="-817" cy="-605.14286" transform="rotate(180)" r="16" data-paper-data="{&quot;index&quot;:2}" opacity="0"/><circle cx="-833" cy="-605.14286" transform="rotate(180)" r="16" data-paper-data="{&quot;index&quot;:3}" opacity="0"/><circle cx="-841" cy="-619" transform="rotate(180)" r="16" data-paper-data="{&quot;index&quot;:4}" opacity="0"/><circle cx="-833" cy="-632.85714" transform="rotate(180)" r="16" data-paper-data="{&quot;index&quot;:5}" opacity="0"/><circle cx="-817" cy="-632.85714" transform="rotate(180)" r="16" data-paper-data="{&quot;index&quot;:6}" opacity="0"/><circle cx="817" cy="614.38095" r="6.7619"/><circle cx="817" cy="623.61905" r="6.7619"/><circle cx="825" cy="609.7619" r="6.7619"/><circle cx="833" cy="614.38095" r="6.7619"/><circle cx="833" cy="623.61905" r="6.7619"/><circle cx="825" cy="628.2381" r="6.7619"/><circle cx="817" cy="614.38095" r="9.2381"/><circle cx="817" cy="623.61905" r="9.2381"/><circle cx="825" cy="609.7619" r="9.2381"/><circle cx="833" cy="614.38095" r="9.2381"/><circle cx="833" cy="623.61905" r="9.2381"/><circle cx="825" cy="628.2381" r="9.2381"/></g><rect x="-928" y="-636" transform="rotate(180)" width="34" height="34" stroke="#000000" stroke-width="0.5" stroke-linecap="butt" opacity="0"/><g stroke="#000000" stroke-width="0.5" stroke-linecap="round"><circle cx="-911" cy="-619" transform="rotate(180)" r="16" data-paper-data="{&quot;index&quot;:0}" opacity="0"/><circle cx="-895" cy="-619" transform="rotate(180)" r="16" data-paper-data="{&quot;index&quot;:1}" opacity="0"/><circle cx="-903" cy="-605.14286" transform="rotate(180)" r="16" data-paper-data="{&quot;index&quot;:2}" opacity="0"/><circle cx="-919" cy="-605.14286" transform="rotate(180)" r="16" data-paper-data="{&quot;index&quot;:3}" opacity="0"/><circle cx="-927" cy="-619" transform="rotate(180)" r="16" data-paper-data="{&quot;index&quot;:4}" opacity="0"/><circle cx="-919" cy="-632.85714" transform="rotate(180)" r="16" data-paper-data="{&quot;index&quot;:5}" opacity="0"/><circle cx="-903" cy="-632.85714" transform="rotate(180)" r="16" data-paper-data="{&quot;index&quot;:6}" opacity="0"/><circle cx="903" cy="619" r="8"/><circle cx="907" cy="612.07143" r="8"/><circle cx="915" cy="612.07143" r="8"/><circle cx="919" cy="619" r="8"/><circle cx="915" cy="625.92857" r="8"/><circle cx="907" cy="625.92857" r="8"/><circle cx="899" cy="612.07143" r="8"/><circle cx="899" cy="625.92857" r="8"/><circle cx="911" cy="605.14286" r="8"/><circle cx="923" cy="612.07143" r="8"/><circle cx="923" cy="625.92857" r="8"/><circle cx="911" cy="632.85714" r="8"/><circle cx="903" cy="619" r="13.85714"/><circle cx="907" cy="612.07143" r="13.85714"/><circle cx="915" cy="612.07143" r="13.85714"/><circle cx="919" cy="619" r="13.85714"/><circle cx="915" cy="625.92857" r="13.85714"/><circle cx="907" cy="625.92857" r="13.85714"/><circle cx="899" cy="612.07143" r="13.85714"/><circle cx="899" cy="625.92857" r="13.85714"/><circle cx="911" cy="605.14286" r="13.85714"/><circle cx="923" cy="612.07143" r="13.85714"/><circle cx="923" cy="625.92857" r="13.85714"/><circle cx="911" cy="632.85714" r="13.85714"/></g><rect x="-1014" y="-636" transform="rotate(180)" width="34" height="34" stroke="#000000" stroke-width="0.5" stroke-linecap="butt" opacity="0"/><g stroke="#000000" stroke-width="0.5" stroke-linecap="round"><circle cx="-997" cy="-619" transform="rotate(180)" r="16" data-paper-data="{&quot;index&quot;:0}"/><circle cx="-981" cy="-619" transform="rotate(-180)" r="16" data-paper-data="{&quot;index&quot;:1}"/><circle cx="-989" cy="-605.14286" transform="rotate(180)" r="16" data-paper-data="{&quot;index&quot;:2}"/><circle cx="-1005" cy="-605.14286" transform="rotate(180)" r="16" data-paper-data="{&quot;index&quot;:3}"/><circle cx="-1013" cy="-619" transform="rotate(-180)" r="16" data-paper-data="{&quot;index&quot;:4}"/><circle cx="-1005" cy="-632.85714" transform="rotate(180)" r="16" data-paper-data="{&quot;index&quot;:5}"/><circle cx="-989" cy="-632.85714" transform="rotate(180)" r="16" data-paper-data="{&quot;index&quot;:6}"/></g></g></svg>