<svg x="0" y="0" width="1100" height="850" version="1.1" xmlns="http://www.w3.org/2000/svg" xmlns:xlink="http://www.w3.org/1999/xlink"><g fill="none" stroke="none" stroke-width="none" stroke-linecap="none" stroke-linejoin="miter" stroke-miterlimit="10" stroke-dasharray="" stroke-dashoffset="0" font-family="sans-serif" font-size="12" text-anchor="start" mix-blend-mode="normal"><rect x="20" y="25" width="510" height="800" fill="#000000" stroke-width="1" stroke-linecap="butt"/><g stroke-width="1" stroke-linecap="butt"/><rect x="-120" y="-120" transform="rotate(180)" width="12" height="19" stroke="#000000" stroke-width="0.5" stroke-linecap="butt" opacity="0"/><g stroke="#ffffff" stroke-width="0.5" stroke-linecap="round"><circle cx="-114" cy="-110.5" transform="rotate(180)" r="20" data-paper-data="{&quot;index&quot;:0}"/></g><rect x="-228" y="-120" transform="rotate(180)" width="12" height="19" stroke="#000000" stroke-width="0.5" stroke-linecap="butt" opacity="0"/><g stroke="#ffffff" stroke-width="0.5" stroke-linecap="round"><circle cx="-222" cy="-110.5" transform="rotate(180)" r="20" data-paper-data="{&quot;index&quot;:0}" opacity="0"/></g><rect x="-336" y="-120" transform="rotate(180)" width="12" height="19" stroke="#000000" stroke-width="0.5" stroke-linecap="butt" opacity="0"/><g stroke="#ffffff" stroke-width="0.5" stroke-linecap="round"><circle cx="-330" cy="-110.5" transform="rotate(180)" r="20" data-paper-data="{&quot;index&quot;:0}" opacity="0"/></g><rect x="-444" y="-120" transform="rotate(180)" width="12" height="19" stroke="#000000" stroke-width="0.5" stroke-linecap="butt" opacity="0"/><g stroke="#ffffff" stroke-width="0.5" stroke-linecap="round"><circle cx="-438" cy="-110.5" transform="rotate(180)" r="20" data-paper-data="{&quot;index&quot;:0}" opacity="0"/></g><rect x="-120" y="-221" transform="rotate(180)" width="12" height="19" stroke="#000000" stroke-width="0.5" stroke-linecap="butt" opacity="0"/><g stroke="#ffffff" stroke-width="0.5" stroke-linecap="round"><circle cx="-211.5" cy="114" transform="rotate(-90)" r="20" data-paper-data="{&quot;index&quot;:0}"/><circle cx="-191.5" cy="114" transform="rotate(-90)" r="20" data-paper-data="{&quot;index&quot;:1}"/></g><rect x="-228" y="-221" transform="rotate(180)" width="12" height="19" stroke="#000000" stroke-width="0.5" stroke-linecap="butt" opacity="0"/><g stroke="#ffffff" stroke-width="0.5"><circle cx="-211.5" cy="222" transform="rotate(-90)" r="20" data-paper-data="{&quot;index&quot;:0}" stroke-linecap="round" opacity="0"/><circle cx="-191.5" cy="222" transform="rotate(-90)" r="20" data-paper-data="{&quot;index&quot;:1}" stroke-linecap="round" opacity="0"/><path d="M222,191.5c7.40282,0 13.86626,4.02199 17.32436,10c-3.45809,5.97801 -9.92153,10 -17.32436,10c-7.40282,0 -13.86626,-4.02199 -17.32436,-10c3.45809,-5.97801 9.92153,-10 17.32436,-10z" stroke-linecap="butt"/></g><rect x="-336" y="-221" transform="rotate(180)" width="12" height="19" stroke="#000000" stroke-width="0.5" stroke-linecap="butt" opacity="0"/><g stroke="#ffffff" stroke-width="0.5" stroke-linecap="round"><circle cx="-211.5" cy="330" transform="rotate(-90)" r="20" data-paper-data="{&quot;index&quot;:0}" opacity="0"/><circle cx="-191.5" cy="330" transform="rotate(-90)" r="20" data-paper-data="{&quot;index&quot;:1}" opacity="0"/></g><rect x="-444" y="-221" transform="rotate(180)" width="12" height="19" stroke="#000000" stroke-width="0.5" stroke-linecap="butt" opacity="0"/><g stroke="#ffffff" stroke-width="0.5" stroke-linecap="round"><circle cx="-211.5" cy="438" transform="rotate(-90)" r="20" data-paper-data="{&quot;index&quot;:0}" opacity="0"/><circle cx="-191.5" cy="438" transform="rotate(-90)" r="20" data-paper-data="{&quot;index&quot;:1}" opacity="0"/></g><rect x="-120" y="-322" transform="rotate(180)" width="12" height="19" stroke="#000000" stroke-width="0.5" stroke-linecap="butt" opacity="0"/><g stroke="#ffffff" stroke-width="0.5" stroke-linecap="round"><circle cx="-327.63294" cy="-57.5231" transform="rotate(-120)" r="20" data-paper-data="{&quot;index&quot;:0}"/><circle cx="-307.63214" cy="-57.52264" transform="rotate(-120)" r="20" data-paper-data="{&quot;index&quot;:1}"/><circle cx="-317.63214" cy="-40.20214" transform="matrix(-0.5000000000000019,-0.8660254037844375,0.8660254037844375,-0.5000000000000019,0,0)" r="20" data-paper-data="{&quot;index&quot;:2}"/></g><rect x="-228" y="-322" transform="rotate(180)" width="12" height="19" stroke="#000000" stroke-width="0.5" stroke-linecap="butt" opacity="0"/><g stroke="#ffffff" stroke-width="0.5"><circle cx="-381.63294" cy="36.00764" transform="rotate(-120)" r="20" data-paper-data="{&quot;index&quot;:0}" stroke-linecap="round" opacity="0"/><circle cx="-361.63214" cy="36.0081" transform="rotate(-120)" r="20" data-paper-data="{&quot;index&quot;:1}" stroke-linecap="round" opacity="0"/><circle cx="-371.63214" cy="53.32861" transform="rotate(-120)" r="20" data-paper-data="{&quot;index&quot;:2}" stroke-linecap="round" opacity="0"/><path d="M212,295.17949c6.41103,-3.70141 14.01953,-3.44999 20.00333,-0.00192c-0.00611,6.90584 -3.59258,13.62026 -10.00333,17.32151c-6.41103,3.70141 -14.01953,3.44999 -20.00333,0.00192c0.00611,-6.90584 3.59258,-13.62026 10.00333,-17.32151z" stroke-linecap="butt"/><path d="M239.32051,302.5c1.82127,3.15453 2.68552,6.59899 2.68283,9.99715c-0.00111,0.00064 -0.00222,0.00128 -0.00333,0.00192c-9.56585,5.52285 -21.79766,2.24534 -27.32051,-7.32051c-1.82127,-3.15453 -2.68552,-6.59899 -2.68283,-9.99715c0.00111,-0.00064 0.00222,-0.00128 0.00333,-0.00192c9.56585,-5.52285 21.79766,-2.24534 27.32051,7.32051z" stroke-linecap="butt"/><path d="M229.32051,285.17857c5.52285,9.56585 2.24534,21.79766 -7.32051,27.32051c-0.00111,0.00064 -0.00222,0.00128 -0.00333,0.00192c-2.94458,-1.69677 -5.49574,-4.16761 -7.31718,-7.32243c-5.52285,-9.56585 -2.24534,-21.79766 7.32051,-27.32051c0.00112,-0.00064 0.00223,-0.00129 0.00335,-0.00193c2.94459,1.69677 5.49572,4.16762 7.31716,7.32244z" stroke-linecap="butt"/></g><rect x="-336" y="-322" transform="rotate(180)" width="12" height="19" stroke="#000000" stroke-width="0.5" stroke-linecap="butt" opacity="0"/><g stroke="#ffffff" stroke-width="0.5"><circle cx="-435.63294" cy="129.53838" transform="rotate(-120)" r="20" data-paper-data="{&quot;index&quot;:0}" stroke-linecap="round" opacity="0"/><circle cx="-415.63214" cy="129.53884" transform="rotate(-120)" r="20" data-paper-data="{&quot;index&quot;:1}" stroke-linecap="round" opacity="0"/><circle cx="-425.63214" cy="146.85935" transform="rotate(-120)" r="20" data-paper-data="{&quot;index&quot;:2}" stroke-linecap="round" opacity="0"/><path d="M320,295.17949c6.41103,-3.70141 14.01953,-3.44999 20.00333,-0.00192c-0.00611,6.90584 -3.59258,13.62026 -10.00333,17.32151c-0.00112,0.00064 -0.00223,0.00129 -0.00335,0.00193c-2.94459,-1.69677 -5.49572,-4.16762 -7.31716,-7.32244c-1.82127,-3.15453 -2.68552,-6.59899 -2.68283,-9.99715c0.00111,-0.00064 0.00222,-0.00128 0.00333,-0.00192z" stroke-linecap="butt"/></g><path d="M350.00333,312.49715c-0.00111,0.00064 -0.00222,0.00128 -0.00333,0.00192c-9.56585,5.52285 -21.79766,2.24534 -27.32051,-7.32051c-1.82127,-3.15453 -2.68552,-6.59899 -2.68283,-9.99715c0.00111,-0.00064 0.00222,-0.00128 0.00333,-0.00192c9.56585,-5.52285 21.79766,-2.24534 27.32051,7.32051c1.82127,3.15453 2.68552,6.59899 2.68283,9.99715z" stroke-width="1" stroke-linecap="butt"/><rect x="-444" y="-322" transform="rotate(180)" width="12" height="19" stroke="#000000" stroke-width="0.5" stroke-linecap="butt" opacity="0"/><g stroke="#ffffff" stroke-width="0.5" stroke-linecap="round"><circle cx="-489.63294" cy="223.06913" transform="rotate(-120)" r="20" data-paper-data="{&quot;index&quot;:0}" opacity="0"/><circle cx="-469.63214" cy="223.06959" transform="rotate(-120)" r="20" data-paper-data="{&quot;index&quot;:1}" opacity="0"/><circle cx="-479.63214" cy="240.3901" transform="rotate(-120)" r="20" data-paper-data="{&quot;index&quot;:2}" opacity="0"/></g><rect x="-120" y="-423" transform="rotate(180)" width="12" height="19" stroke="#000000" stroke-width="0.5" stroke-linecap="butt" opacity="0"/><g stroke="#ffffff" stroke-width="0.5" stroke-linecap="round"><circle cx="-305.4769" cy="-301.1015" transform="rotate(-150)" r="20" data-paper-data="{&quot;index&quot;:0}"/><circle cx="-285.4761" cy="-301.10196" transform="rotate(-150)" r="20" data-paper-data="{&quot;index&quot;:1}"/><circle cx="-295.4769" cy="-283.781" transform="rotate(-150)" r="20" data-paper-data="{&quot;index&quot;:2}"/><circle cx="-315.47769" cy="-283.78054" transform="rotate(-150)" r="20" data-paper-data="{&quot;index&quot;:3}"/></g><rect x="-228" y="-423" transform="rotate(180)" width="12" height="19" stroke="#000000" stroke-width="0.5" stroke-linecap="butt" opacity="0"/><g stroke="#ffffff" stroke-width="0.5"><circle cx="-399.00764" cy="-247.1015" transform="rotate(-150)" r="20" data-paper-data="{&quot;index&quot;:0}" stroke-linecap="round" opacity="0"/><circle cx="-379.00684" cy="-247.10196" transform="rotate(-150)" r="20" data-paper-data="{&quot;index&quot;:1}" stroke-linecap="round" opacity="0"/><circle cx="-389.00764" cy="-229.781" transform="rotate(-150)" r="20" data-paper-data="{&quot;index&quot;:2}" stroke-linecap="round" opacity="0"/><circle cx="-409.00844" cy="-229.78054" transform="rotate(-150)" r="20" data-paper-data="{&quot;index&quot;:3}" stroke-linecap="round" opacity="0"/><path d="M204.67949,403.5c3.70125,-6.41075 10.41568,-9.99722 17.32151,-10.00333c3.44806,5.9838 3.69949,13.5923 -0.00192,20.00333c-3.70125,6.41075 -10.41568,9.99722 -17.32151,10.00333c-3.44806,-5.9838 -3.69949,-13.5923 0.00192,-20.00333z" stroke-linecap="butt"/><path d="M232,396.17949c3.15482,1.82144 5.62567,4.37259 7.32243,7.31718c-0.00064,0.00111 -0.00128,0.00222 -0.00192,0.00333c-5.52285,9.56585 -17.75466,12.84336 -27.32051,7.32051c-3.15484,-1.82145 -5.6257,-4.37263 -7.32247,-7.31724c0.00064,-0.00111 0.00132,-0.00216 0.00196,-0.00327c5.52285,-9.56585 17.75466,-12.84336 27.32051,-7.32051z" stroke-linecap="butt"/><path d="M232,396.17949c9.56585,5.52285 12.84336,17.75466 7.32051,27.32051c-0.00064,0.00111 -0.00128,0.00222 -0.00192,0.00333c-3.39818,0.0027 -6.84261,-0.86155 -9.99715,-2.68283c-9.56585,-5.52285 -12.84336,-17.75466 -7.32051,-27.32051c0.00064,-0.00112 0.00129,-0.00223 0.00193,-0.00335c3.39817,-0.00269 6.84261,0.86157 9.99715,2.68284z" stroke-linecap="butt"/><path d="M214.67857,386.17949c9.56585,5.52285 12.84336,17.75466 7.32051,27.32051c-0.00064,0.00111 -0.00128,0.00222 -0.00192,0.00333c-3.39818,0.0027 -6.84261,-0.86155 -9.99715,-2.68283c-9.56585,-5.52285 -12.84336,-17.75466 -7.32051,-27.32051c0.00064,-0.00112 0.00129,-0.00223 0.00193,-0.00335c3.39817,-0.00269 6.84261,0.86157 9.99715,2.68284z" stroke-linecap="butt"/><path d="M239.32243,383.49667c3.44806,5.9838 3.69949,13.5923 -0.00192,20.00333c-3.70125,6.41075 -10.41568,9.99722 -17.32151,10.00333c-3.44806,-5.9838 -3.69949,-13.5923 0.00192,-20.00333c3.70125,-6.41075 10.41568,-9.99722 17.32151,-10.00333z" stroke-linecap="butt"/></g><rect x="-336" y="-423" transform="rotate(180)" width="12" height="19" stroke="#000000" stroke-width="0.5" stroke-linecap="butt" opacity="0"/><g stroke="#ffffff" stroke-width="0.5"><circle cx="-492.53838" cy="-193.1015" transform="rotate(-150)" r="20" data-paper-data="{&quot;index&quot;:0}" stroke-linecap="round" opacity="0"/><circle cx="-472.53759" cy="-193.10196" transform="rotate(-150)" r="20" data-paper-data="{&quot;index&quot;:1}" stroke-linecap="round" opacity="0"/><circle cx="-482.53838" cy="-175.781" transform="rotate(-150)" r="20" data-paper-data="{&quot;index&quot;:2}" stroke-linecap="round" opacity="0"/><circle cx="-502.53918" cy="-175.78054" transform="rotate(-150)" r="20" data-paper-data="{&quot;index&quot;:3}" stroke-linecap="round" opacity="0"/><path d="M312.67949,403.5c3.70125,-6.41075 10.41568,-9.99722 17.32151,-10.00333c3.44806,5.9838 3.69949,13.5923 -0.00192,20.00333c-0.00064,0.00112 -0.00129,0.00223 -0.00193,0.00335c-3.39817,0.00269 -6.84261,-0.86157 -9.99715,-2.68284c-3.15482,-1.82144 -5.62567,-4.37259 -7.32243,-7.31718c0.00064,-0.00111 0.00128,-0.00222 0.00192,-0.00333z" stroke-linecap="butt"/><path d="M329.999,413.50333c-3.44806,-5.9838 -3.69949,-13.5923 0.00192,-20.00333c0.00064,-0.00111 0.00128,-0.00222 0.00192,-0.00333c3.39817,-0.00269 6.84262,0.86155 9.99715,2.68283c3.15482,1.82144 5.62567,4.37259 7.32243,7.31718c-0.00064,0.00111 -0.00128,0.00222 -0.00192,0.00333c-3.70125,6.41075 -10.41568,9.99722 -17.32151,10.00333z" stroke-linecap="butt"/></g><path d="M347.32243,403.49667c-0.00064,0.00111 -0.00128,0.00222 -0.00192,0.00333c-5.52285,9.56585 -17.75466,12.84336 -27.32051,7.32051c-3.15482,-1.82144 -5.62567,-4.37259 -7.32243,-7.31718c0.00064,-0.00111 0.00128,-0.00222 0.00192,-0.00333c5.52285,-9.56585 17.75466,-12.84336 27.32051,-7.32051c3.15482,1.82144 5.62567,4.37259 7.32243,7.31718z" stroke-width="1" stroke-linecap="butt"/><path d="M330.00092,393.5c0.00064,-0.00111 0.00128,-0.00222 0.00192,-0.00333c3.39817,-0.00269 6.84262,0.86155 9.99715,2.68283c9.56585,5.52285 12.84336,17.75466 7.32051,27.32051c-0.00064,0.00112 -0.00129,0.00223 -0.00193,0.00335c-3.39817,0.00269 -6.84261,-0.86157 -9.99715,-2.68284c-9.56585,-5.52285 -12.84336,-17.75466 -7.32051,-27.32051z" stroke-width="1" stroke-linecap="butt"/><rect x="-444" y="-423" transform="rotate(180)" width="12" height="19" stroke="#000000" stroke-width="0.5" stroke-linecap="butt" opacity="0"/><g stroke="#ffffff" stroke-width="0.5"><circle cx="-586.06913" cy="-139.1015" transform="rotate(-150)" r="20" data-paper-data="{&quot;index&quot;:0}" stroke-linecap="round" opacity="0"/><circle cx="-566.06833" cy="-139.10196" transform="rotate(-150)" r="20" data-paper-data="{&quot;index&quot;:1}" stroke-linecap="round" opacity="0"/><circle cx="-576.06913" cy="-121.781" transform="rotate(-150)" r="20" data-paper-data="{&quot;index&quot;:2}" stroke-linecap="round" opacity="0"/><circle cx="-596.06992" cy="-121.78054" transform="rotate(-150)" r="20" data-paper-data="{&quot;index&quot;:3}" stroke-linecap="round" opacity="0"/><path d="M438.00193,393.49827c3.44719,5.98356 3.69824,13.59127 -0.00285,20.00173c-0.00033,0.00058 -0.00067,0.00116 -0.001,0.00174c-3.44718,-5.98356 -3.69824,-13.59128 0.00284,-20.00174c0.00033,-0.00058 0.00067,-0.00115 0.00101,-0.00173z" stroke-linecap="butt"/></g><rect x="-120" y="-524" transform="rotate(180)" width="12" height="19" stroke="#000000" stroke-width="0.5" stroke-linecap="butt" opacity="0"/><g stroke="#ffffff" stroke-width="0.5" stroke-linecap="round"><circle cx="-114" cy="-514.5" transform="rotate(180)" r="20" data-paper-data="{&quot;index&quot;:0}"/><circle cx="-94" cy="-514.5" transform="rotate(180)" r="20" data-paper-data="{&quot;index&quot;:1}"/><circle cx="-104" cy="-497.17857" transform="rotate(180)" r="20" data-paper-data="{&quot;index&quot;:2}"/><circle cx="-124" cy="-497.17857" transform="rotate(180)" r="20" data-paper-data="{&quot;index&quot;:3}"/><circle cx="-134" cy="-514.5" transform="rotate(180)" r="20" data-paper-data="{&quot;index&quot;:4}"/></g><rect x="-228" y="-524" transform="rotate(180)" width="12" height="19" stroke="#000000" stroke-width="0.5" stroke-linecap="butt" opacity="0"/><g stroke="#ffffff" stroke-width="0.5"><circle cx="-222" cy="-514.5" transform="rotate(180)" r="20" data-paper-data="{&quot;index&quot;:0}" stroke-linecap="round" opacity="0"/><circle cx="-202" cy="-514.5" transform="rotate(180)" r="20" data-paper-data="{&quot;index&quot;:1}" stroke-linecap="round" opacity="0"/><circle cx="-212" cy="-497.17857" transform="rotate(180)" r="20" data-paper-data="{&quot;index&quot;:2}" stroke-linecap="round" opacity="0"/><circle cx="-232" cy="-497.17857" transform="rotate(180)" r="20" data-paper-data="{&quot;index&quot;:3}" stroke-linecap="round" opacity="0"/><circle cx="-242" cy="-514.5" transform="rotate(180)" r="20" data-paper-data="{&quot;index&quot;:4}" stroke-linecap="round" opacity="0"/><path d="M202,514.5c0,-7.40282 4.02199,-13.86626 10,-17.32436c5.97801,3.45809 10,9.92153 10,17.32436c0,7.40282 -4.02199,13.86626 -10,17.32436c-5.97801,-3.45809 -10,-9.92153 -10,-17.32436z" stroke-linecap="butt"/><path d="M222,494.5c3.64287,0 7.05827,0.97394 10,2.67564c0,0.00098 0,0.00195 0,0.00293c0,11.04569 -8.95431,20 -20,20c-3.6429,0 -7.05832,-0.97396 -10.00007,-2.67568c0,-0.00098 0.00007,-0.00191 0.00007,-0.00289c0,-11.04569 8.95431,-20 20,-20z" stroke-linecap="butt"/><path d="M222,494.5c11.04569,0 20,8.95431 20,20c0,0.00098 0,0.00195 0,0.00293c-2.94174,1.70171 -6.35711,2.67564 -10,2.67564c-11.04569,0 -20,-8.95431 -20,-20c0,-0.00098 0,-0.00196 0,-0.00294c2.94174,-1.7017 6.35712,-2.67563 10,-2.67563z" stroke-linecap="butt"/><path d="M232,497.17564c5.97801,3.45809 10,9.92153 10,17.32436c0,7.40282 -4.02199,13.86626 -10,17.32436c-5.97801,-3.45809 -10,-9.92153 -10,-17.32436c0,-7.40282 4.02199,-13.86626 10,-17.32436z" stroke-linecap="butt"/><path d="M202,494.5c11.04569,0 20,8.95431 20,20c0,0.00098 0,0.00195 0,0.00293c-2.94174,1.70171 -6.35711,2.67564 -10,2.67564c-11.04569,0 -20,-8.95431 -20,-20c0,-0.00098 0,-0.00196 0,-0.00294c2.94174,-1.7017 6.35712,-2.67563 10,-2.67563z" stroke-linecap="butt"/><path d="M222,479.85422c5.97801,3.45809 10,9.92153 10,17.32436c0,7.40282 -4.02199,13.86626 -10,17.32436c-5.97801,-3.45809 -10,-9.92153 -10,-17.32436c0,-7.40282 4.02199,-13.86626 10,-17.32436z" stroke-linecap="butt"/><path d="M252,497.17564c0,0.00098 0,0.00195 0,0.00293c0,11.04569 -8.95431,20 -20,20c-3.64287,0 -7.05827,-0.97394 -10,-2.67564c0,-0.00098 0,-0.00195 0,-0.00293c0,-11.04569 8.95431,-20 20,-20c3.64287,0 7.05827,0.97394 10,2.67564z" stroke-linecap="butt"/></g><rect x="-336" y="-524" transform="rotate(180)" width="12" height="19" stroke="#000000" stroke-width="0.5" stroke-linecap="butt" opacity="0"/><g stroke="#ffffff" stroke-width="0.5"><circle cx="-330" cy="-514.5" transform="rotate(180)" r="20" data-paper-data="{&quot;index&quot;:0}" stroke-linecap="round" opacity="0"/><circle cx="-310" cy="-514.5" transform="rotate(180)" r="20" data-paper-data="{&quot;index&quot;:1}" stroke-linecap="round" opacity="0"/><circle cx="-320" cy="-497.17857" transform="rotate(180)" r="20" data-paper-data="{&quot;index&quot;:2}" stroke-linecap="round" opacity="0"/><circle cx="-340" cy="-497.17857" transform="rotate(180)" r="20" data-paper-data="{&quot;index&quot;:3}" stroke-linecap="round" opacity="0"/><circle cx="-350" cy="-514.5" transform="rotate(180)" r="20" data-paper-data="{&quot;index&quot;:4}" stroke-linecap="round" opacity="0"/><path d="M310,514.5c0,-7.40282 4.02199,-13.86626 10,-17.32436c5.97801,3.45809 10,9.92153 10,17.32436c0,0.00098 0,0.00196 0,0.00294c-2.94174,1.7017 -6.35712,2.67563 -10,2.67563c-3.64287,0 -7.05827,-0.97394 -10,-2.67564c0,-0.00098 0,-0.00195 0,-0.00293z" stroke-linecap="butt"/><path d="M330,514.50293c-5.97801,-3.45809 -10,-9.92153 -10,-17.32436c0,-0.00098 0,-0.00195 0,-0.00293c2.94173,-1.7017 6.35713,-2.67564 10,-2.67564c3.64287,0 7.05827,0.97394 10,2.67564c0,0.00098 0,0.00195 0,0.00293c0,7.40282 -4.02199,13.86626 -10,17.32436z" stroke-linecap="butt"/><path d="M330,514.50293c0,-0.00098 0,-0.00195 0,-0.00293c0,-7.40282 4.02199,-13.86626 10,-17.32436c5.97801,3.45809 10,9.92153 10,17.32436c0,0.00098 0,0.00195 0,0.00293c-2.94173,1.7017 -6.35713,2.67564 -10,2.67564c-3.64287,0 -7.05827,-0.97394 -10,-2.67564z" stroke-linecap="butt"/></g><path d="M340,497.17564c0,0.00098 0,0.00195 0,0.00293c0,11.04569 -8.95431,20 -20,20c-3.64287,0 -7.05827,-0.97394 -10,-2.67564c0,-0.00098 0,-0.00195 0,-0.00293c0,-11.04569 8.95431,-20 20,-20c3.64287,0 7.05827,0.97394 10,2.67564z" stroke-width="1" stroke-linecap="butt"/><path d="M320,497.17857c0,-0.00098 0,-0.00195 0,-0.00293c2.94173,-1.7017 6.35713,-2.67564 10,-2.67564c11.04569,0 20,8.95431 20,20c0,0.00098 0,0.00196 0,0.00294c-2.94174,1.7017 -6.35712,2.67563 -10,2.67563c-11.04569,0 -20,-8.95431 -20,-20z" stroke-width="1" stroke-linecap="butt"/><path d="M330,514.5c0,-7.40282 4.02199,-13.86626 10,-17.32436c5.97801,3.45809 10,9.92153 10,17.32436c0,7.40282 -4.02199,13.86626 -10,17.32436c-5.97801,-3.45809 -10,-9.92153 -10,-17.32436z" stroke-width="1" stroke-linecap="butt"/><rect x="-444" y="-524" transform="rotate(180)" width="12" height="19" stroke="#000000" stroke-width="0.5" stroke-linecap="butt" opacity="0"/><g stroke="#ffffff" stroke-width="0.5"><circle cx="-438" cy="-514.5" transform="rotate(180)" r="20" data-paper-data="{&quot;index&quot;:0}" stroke-linecap="round" opacity="0"/><circle cx="-418" cy="-514.5" transform="rotate(180)" r="20" data-paper-data="{&quot;index&quot;:1}" stroke-linecap="round" opacity="0"/><circle cx="-428" cy="-497.17857" transform="rotate(180)" r="20" data-paper-data="{&quot;index&quot;:2}" stroke-linecap="round" opacity="0"/><circle cx="-448" cy="-497.17857" transform="rotate(180)" r="20" data-paper-data="{&quot;index&quot;:3}" stroke-linecap="round" opacity="0"/><circle cx="-458" cy="-514.5" transform="rotate(180)" r="20" data-paper-data="{&quot;index&quot;:4}" stroke-linecap="round" opacity="0"/><path d="M428,497.17565c5.97801,3.45809 10,9.92153 10,17.32435c0,0.00098 0,0.00195 0,0.00293c-5.978,-3.4581 -10,-9.92154 -10,-17.32436c0,-0.00098 0,-0.00195 0,-0.00292z" stroke-linecap="butt"/><path d="M448,497.17564c0,0.00098 0,0.00195 0,0.00293c0,7.40282 -4.02199,13.86626 -10,17.32436c0,-0.00098 0,-0.00195 0,-0.00293c0,-7.40282 4.02199,-13.86626 10,-17.32436z" stroke-linecap="butt"/></g><rect x="-120" y="-625" transform="rotate(180)" width="12" height="19" stroke="#000000" stroke-width="0.5" stroke-linecap="butt" opacity="0"/><g stroke="#ffffff" stroke-width="0.5" stroke-linecap="round"><circle cx="209.0231" cy="-590.03864" transform="rotate(150)" r="20" data-paper-data="{&quot;index&quot;:0}"/><circle cx="229.0239" cy="-590.03818" transform="rotate(150)" r="20" data-paper-data="{&quot;index&quot;:1}"/><circle cx="219.0239" cy="-572.71767" transform="rotate(150)" r="20" data-paper-data="{&quot;index&quot;:2}"/><circle cx="199.0231" cy="-572.71813" transform="rotate(150)" r="20" data-paper-data="{&quot;index&quot;:3}"/><circle cx="189.02231" cy="-590.0391" transform="rotate(150)" r="20" data-paper-data="{&quot;index&quot;:4}"/><circle cx="199.02231" cy="-607.3596" transform="rotate(150)" r="20" data-paper-data="{&quot;index&quot;:5}"/></g><rect x="-228" y="-625" transform="rotate(180)" width="12" height="19" stroke="#000000" stroke-width="0.5" stroke-linecap="butt" opacity="0"/><g stroke="#ffffff" stroke-width="0.5"><circle cx="115.49236" cy="-644.03864" transform="rotate(150)" r="20" data-paper-data="{&quot;index&quot;:0}" stroke-linecap="round" opacity="0"/><circle cx="135.49316" cy="-644.03818" transform="rotate(150)" r="20" data-paper-data="{&quot;index&quot;:1}" stroke-linecap="round" opacity="0"/><circle cx="125.49316" cy="-626.71767" transform="rotate(150)" r="20" data-paper-data="{&quot;index&quot;:2}" stroke-linecap="round" opacity="0"/><circle cx="105.49236" cy="-626.71813" transform="rotate(150)" r="20" data-paper-data="{&quot;index&quot;:3}" stroke-linecap="round" opacity="0"/><circle cx="95.49156" cy="-644.0391" transform="rotate(150)" r="20" data-paper-data="{&quot;index&quot;:4}" stroke-linecap="round" opacity="0"/><circle cx="105.49156" cy="-661.3596" transform="rotate(150)" r="20" data-paper-data="{&quot;index&quot;:5}" stroke-linecap="round" opacity="0"/><path d="M204.67949,625.5c-3.70141,-6.41103 -3.44999,-14.01953 -0.00192,-20.00333c6.90584,0.00611 13.62026,3.59258 17.32151,10.00333c3.70141,6.41103 3.44999,14.01953 0.00192,20.00333c-6.90584,-0.00611 -13.62026,-3.59258 -17.32151,-10.00333z" stroke-linecap="butt"/><path d="M212,598.17949c3.15453,-1.82127 6.59899,-2.68552 9.99715,-2.68283c0.00064,0.00111 0.00128,0.00222 0.00192,0.00333c5.52285,9.56585 2.24534,21.79766 -7.32051,27.32051c-3.15456,1.82128 -6.59904,2.68553 -9.99723,2.68283c-0.00064,-0.00111 -0.00121,-0.00222 -0.00185,-0.00333c-5.52285,-9.56585 -2.24534,-21.79766 7.32051,-27.32051z" stroke-linecap="butt"/><path d="M212,598.17949c9.56585,-5.52285 21.79766,-2.24534 27.32051,7.32051c0.00064,0.00111 0.00128,0.00222 0.00192,0.00333c-1.69677,2.9446 -4.1676,5.49573 -7.32243,7.31718c-9.56585,5.52285 -21.79766,2.24534 -27.32051,-7.32051c-0.00064,-0.00112 -0.00129,-0.00223 -0.00193,-0.00335c1.69677,-2.94459 4.16762,-5.49572 7.32244,-7.31716z" stroke-linecap="butt"/><path d="M221.999,595.49667c6.90584,0.00611 13.62026,3.59258 17.32151,10.00333c3.70141,6.41103 3.44999,14.01953 0.00192,20.00333c-6.90584,-0.00611 -13.62026,-3.59258 -17.32151,-10.00333c-3.70141,-6.41103 -3.44999,-14.01953 -0.00192,-20.00333z" stroke-linecap="butt"/><path d="M239.31858,605.49667c0.00064,0.00111 0.00128,0.00222 0.00192,0.00333c5.52285,9.56585 2.24534,21.79766 -7.32051,27.32051c-3.15453,1.82127 -6.59899,2.68552 -9.99715,2.68283c-0.00064,-0.00111 -0.00128,-0.00222 -0.00192,-0.00333c-5.52285,-9.56585 -2.24534,-21.79766 7.32051,-27.32051c3.15453,-1.82127 6.59899,-2.68552 9.99715,-2.68283z" stroke-linecap="butt"/><path d="M194.67857,608.17949c9.56585,-5.52285 21.79766,-2.24534 27.32051,7.32051c0.00064,0.00111 0.00128,0.00222 0.00192,0.00333c-1.69677,2.94458 -4.16761,5.49574 -7.32243,7.31718c-9.56585,5.52285 -21.79766,2.24534 -27.32051,-7.32051c-0.00064,-0.00112 -0.00129,-0.00223 -0.00193,-0.00335c1.69677,-2.94459 4.16762,-5.49572 7.32244,-7.31716z" stroke-linecap="butt"/><path d="M204.67757,585.49667c6.90584,0.00611 13.62026,3.59258 17.32151,10.00333c3.70141,6.41103 3.44999,14.01953 0.00192,20.00333c-6.90584,-0.00611 -13.62026,-3.59258 -17.32151,-10.00333c-3.70141,-6.41103 -3.44999,-14.01953 -0.00192,-20.00333z" stroke-linecap="butt"/><path d="M239.31858,585.49667c0.00064,0.00111 0.00128,0.00222 0.00192,0.00333c5.52285,9.56585 2.24534,21.79766 -7.32051,27.32051c-3.15453,1.82127 -6.59899,2.68552 -9.99715,2.68283c-0.00064,-0.00111 -0.00128,-0.00222 -0.00192,-0.00333c-5.52285,-9.56585 -2.24534,-21.79766 7.32051,-27.32051c3.15453,-1.82127 6.59899,-2.68552 9.99715,-2.68283z" stroke-linecap="butt"/><path d="M222.00092,615.5c-0.00064,-0.00111 -0.00128,-0.00222 -0.00192,-0.00333c1.69677,-2.94458 4.16761,-5.49574 7.32243,-7.31718c9.56585,-5.52285 21.79766,-2.24534 27.32051,7.32051c0.00064,0.00112 0.00129,0.00223 0.00193,0.00335c-1.69677,2.94459 -4.16762,5.49572 -7.32244,7.31716c-9.56585,5.52285 -21.79766,2.24534 -27.32051,-7.32051z" stroke-linecap="butt"/></g><rect x="-336" y="-625" transform="rotate(180)" width="12" height="19" stroke="#000000" stroke-width="0.5" stroke-linecap="butt" opacity="0"/><g stroke="#ffffff" stroke-width="0.5"><circle cx="21.96162" cy="-698.03864" transform="rotate(150)" r="20" data-paper-data="{&quot;index&quot;:0}" stroke-linecap="round" opacity="0"/><circle cx="41.96241" cy="-698.03818" transform="rotate(150)" r="20" data-paper-data="{&quot;index&quot;:1}" stroke-linecap="round" opacity="0"/><circle cx="31.96241" cy="-680.71767" transform="rotate(150)" r="20" data-paper-data="{&quot;index&quot;:2}" stroke-linecap="round" opacity="0"/><circle cx="11.96162" cy="-680.71813" transform="rotate(150)" r="20" data-paper-data="{&quot;index&quot;:3}" stroke-linecap="round" opacity="0"/><circle cx="1.96082" cy="-698.0391" transform="rotate(150)" r="20" data-paper-data="{&quot;index&quot;:4}" stroke-linecap="round" opacity="0"/><circle cx="11.96082" cy="-715.3596" transform="rotate(150)" r="20" data-paper-data="{&quot;index&quot;:5}" stroke-linecap="round" opacity="0"/><path d="M312.67949,625.5c-3.70141,-6.41103 -3.44999,-14.01953 -0.00192,-20.00333c6.90584,0.00611 13.62026,3.59258 17.32151,10.00333c0.00064,0.00112 0.00129,0.00223 0.00193,0.00335c-1.69677,2.94459 -4.16762,5.49572 -7.32244,7.31716c-3.15453,1.82127 -6.59899,2.68552 -9.99715,2.68283c-0.00064,-0.00111 -0.00128,-0.00222 -0.00192,-0.00333z" stroke-linecap="butt"/><path d="M330.001,615.50333c-6.90584,-0.00611 -13.62026,-3.59258 -17.32151,-10.00333c-0.00064,-0.00111 -0.00128,-0.00222 -0.00192,-0.00333c1.69677,-2.94458 4.16761,-5.49574 7.32243,-7.31718c3.15453,-1.82127 6.59899,-2.68552 9.99715,-2.68283c0.00064,0.00111 0.00128,0.00222 0.00192,0.00333c3.70141,6.41103 3.44999,14.01953 0.00192,20.00333z" stroke-linecap="butt"/><path d="M330.00285,615.50333c-0.00064,-0.00111 -0.00128,-0.00222 -0.00192,-0.00333c-3.70141,-6.41103 -3.44999,-14.01953 -0.00192,-20.00333c6.90584,0.00611 13.62026,3.59258 17.32151,10.00333c0.00064,0.00111 0.00128,0.00222 0.00192,0.00333c-1.69677,2.94458 -4.16761,5.49574 -7.32243,7.31718c-3.15453,1.82127 -6.59899,2.68552 -9.99715,2.68283z" stroke-linecap="butt"/><path d="M329.99899,615.49668c1.69677,-2.94459 4.16761,-5.49575 7.32244,-7.31718c3.15453,-1.82127 6.59899,-2.68552 9.99715,-2.68283c0.00064,0.00111 0.00128,0.00222 0.00192,0.00333c3.70141,6.41103 3.44999,14.01953 0.00192,20.00333c-6.90584,-0.00611 -13.62026,-3.59258 -17.32151,-10.00333c-0.00064,-0.00112 -0.00129,-0.00221 -0.00193,-0.00332z" stroke-linecap="butt"/></g><path d="M329.99715,595.49667c0.00064,0.00111 0.00128,0.00222 0.00192,0.00333c5.52285,9.56585 2.24534,21.79766 -7.32051,27.32051c-3.15453,1.82127 -6.59899,2.68552 -9.99715,2.68283c-0.00064,-0.00111 -0.00128,-0.00222 -0.00192,-0.00333c-5.52285,-9.56585 -2.24534,-21.79766 7.32051,-27.32051c3.15453,-1.82127 6.59899,-2.68552 9.99715,-2.68283z" stroke-width="1" stroke-linecap="butt"/><path d="M312.67949,605.5c-0.00064,-0.00111 -0.00128,-0.00222 -0.00192,-0.00333c1.69677,-2.94458 4.16761,-5.49574 7.32243,-7.31718c9.56585,-5.52285 21.79766,-2.24534 27.32051,7.32051c0.00064,0.00112 0.00129,0.00223 0.00193,0.00335c-1.69677,2.94459 -4.16762,5.49572 -7.32244,7.31716c-9.56585,5.52285 -21.79766,2.24534 -27.32051,-7.32051z" stroke-width="1" stroke-linecap="butt"/><path d="M330.00092,615.5c-3.70141,-6.41103 -3.44999,-14.01953 -0.00192,-20.00333c6.90584,0.00611 13.62026,3.59258 17.32151,10.00333c3.70141,6.41103 3.44999,14.01953 0.00192,20.00333c-6.90584,-0.00611 -13.62026,-3.59258 -17.32151,-10.00333z" stroke-width="1" stroke-linecap="butt"/><path d="M337.32143,608.17949c3.15453,-1.82127 6.59899,-2.68552 9.99715,-2.68283c0.00064,0.00111 0.00128,0.00222 0.00192,0.00333c5.52285,9.56585 2.24534,21.79766 -7.32051,27.32051c-3.15453,1.82127 -6.59899,2.68552 -9.99715,2.68283c-0.00064,-0.00111 -0.00128,-0.00222 -0.00192,-0.00333c-5.52285,-9.56585 -2.24534,-21.79766 7.32051,-27.32051z" stroke-width="1" stroke-linecap="butt"/><rect x="-444" y="-625" transform="rotate(180)" width="12" height="19" stroke="#000000" stroke-width="0.5" stroke-linecap="butt" opacity="0"/><g stroke="#ffffff" stroke-width="0.5"><circle cx="-71.56913" cy="-752.03864" transform="rotate(150)" r="20" data-paper-data="{&quot;index&quot;:0}" stroke-linecap="round" opacity="0"/><circle cx="-51.56833" cy="-752.03818" transform="rotate(150)" r="20" data-paper-data="{&quot;index&quot;:1}" stroke-linecap="round" opacity="0"/><circle cx="-61.56833" cy="-734.71767" transform="rotate(150)" r="20" data-paper-data="{&quot;index&quot;:2}" stroke-linecap="round" opacity="0"/><circle cx="-81.56913" cy="-734.71813" transform="rotate(150)" r="20" data-paper-data="{&quot;index&quot;:3}" stroke-linecap="round" opacity="0"/><circle cx="-91.56992" cy="-752.0391" transform="rotate(150)" r="20" data-paper-data="{&quot;index&quot;:4}" stroke-linecap="round" opacity="0"/><circle cx="-81.56992" cy="-769.3596" transform="rotate(150)" r="20" data-paper-data="{&quot;index&quot;:5}" stroke-linecap="round" opacity="0"/><path d="M420.67757,605.49667c6.90583,0.00611 13.62026,3.59259 17.32151,10.00333c0.00064,0.00111 0.00128,0.00222 0.00192,0.00333c-6.90583,-0.00612 -13.62027,-3.59259 -17.32151,-10.00333c-0.00064,-0.00111 -0.00128,-0.00222 -0.00192,-0.00333z" stroke-linecap="butt"/><path d="M437.99808,615.49826c0.00033,0.00058 0.00067,0.00116 0.001,0.00174c3.70108,6.41046 3.45003,14.01818 0.00284,20.00174c-0.00033,-0.00058 -0.00067,-0.00116 -0.001,-0.00174c-3.70108,-6.41046 -3.45003,-14.01818 -0.00284,-20.00174z" stroke-linecap="butt"/><path d="M437.99808,595.49826c0.00033,0.00058 0.00067,0.00116 0.001,0.00174c3.70108,6.41046 3.45003,14.01818 0.00284,20.00174c-0.00033,-0.00058 -0.00067,-0.00116 -0.001,-0.00174c-3.70108,-6.41046 -3.45003,-14.01818 -0.00284,-20.00174z" stroke-linecap="butt"/><path d="M448,612.82051c-3.15691,1.82264 -6.60418,2.68682 -10.00484,2.68282c1.69688,-2.9474 4.16907,-5.50103 7.32627,-7.32383c3.15691,-1.82264 6.60418,-2.68682 10.00484,-2.68282c-1.69688,2.9474 -4.16907,5.50103 -7.32627,7.32383z" stroke-linecap="butt"/></g><rect x="-120" y="-726" transform="rotate(180)" width="12" height="19" stroke="#000000" stroke-width="0.5" stroke-linecap="butt" opacity="0"/><g stroke="#ffffff" stroke-width="0.5" stroke-linecap="round"><circle cx="-114" cy="-716.5" transform="rotate(180)" r="20" data-paper-data="{&quot;index&quot;:0}"/><circle cx="-94" cy="-716.5" transform="rotate(180)" r="20" data-paper-data="{&quot;index&quot;:1}"/><circle cx="-104" cy="-699.17857" transform="rotate(180)" r="20" data-paper-data="{&quot;index&quot;:2}"/><circle cx="-124" cy="-699.17857" transform="rotate(180)" r="20" data-paper-data="{&quot;index&quot;:3}"/><circle cx="-134" cy="-716.5" transform="rotate(180)" r="20" data-paper-data="{&quot;index&quot;:4}"/><circle cx="-124" cy="-733.82143" transform="rotate(180)" r="20" data-paper-data="{&quot;index&quot;:5}"/><circle cx="-104" cy="-733.82143" transform="rotate(180)" r="20" data-paper-data="{&quot;index&quot;:6}"/></g><rect x="-228" y="-726" transform="rotate(180)" width="12" height="19" stroke="#000000" stroke-width="0.5" stroke-linecap="butt" opacity="0"/><g stroke="#ffffff" stroke-width="0.5"><circle cx="-222" cy="-716.5" transform="rotate(180)" r="20" data-paper-data="{&quot;index&quot;:0}" stroke-linecap="round" opacity="0"/><circle cx="-202" cy="-716.5" transform="rotate(180)" r="20" data-paper-data="{&quot;index&quot;:1}" stroke-linecap="round" opacity="0"/><circle cx="-212" cy="-699.17857" transform="rotate(180)" r="20" data-paper-data="{&quot;index&quot;:2}" stroke-linecap="round" opacity="0"/><circle cx="-232" cy="-699.17857" transform="rotate(180)" r="20" data-paper-data="{&quot;index&quot;:3}" stroke-linecap="round" opacity="0"/><circle cx="-242" cy="-716.5" transform="rotate(180)" r="20" data-paper-data="{&quot;index&quot;:4}" stroke-linecap="round" opacity="0"/><circle cx="-232" cy="-733.82143" transform="rotate(180)" r="20" data-paper-data="{&quot;index&quot;:5}" stroke-linecap="round" opacity="0"/><circle cx="-212" cy="-733.82143" transform="rotate(180)" r="20" data-paper-data="{&quot;index&quot;:6}" stroke-linecap="round" opacity="0"/><path d="M202,716.5c0,-7.40282 4.02199,-13.86626 10,-17.32436c5.97801,3.45809 10,9.92153 10,17.32436c0,7.40282 -4.02199,13.86626 -10,17.32436c-5.97801,-3.45809 -10,-9.92153 -10,-17.32436z" stroke-linecap="butt"/><path d="M222,696.5c3.64287,0 7.05827,0.97394 10,2.67564c0,0.00098 0,0.00195 0,0.00293c0,11.04569 -8.95431,20 -20,20c-3.6429,0 -7.05832,-0.97396 -10.00007,-2.67568c0,-0.00098 0.00007,-0.00191 0.00007,-0.00289c0,-11.04569 8.95431,-20 20,-20z" stroke-linecap="butt"/><path d="M222,696.5c11.04569,0 20,8.95431 20,20c0,0.00098 0,0.00195 0,0.00293c-2.94174,1.70171 -6.35711,2.67564 -10,2.67564c-11.04569,0 -20,-8.95431 -20,-20c0,-0.00098 0,-0.00196 0,-0.00294c2.94174,-1.7017 6.35712,-2.67563 10,-2.67563z" stroke-linecap="butt"/><path d="M232,699.17564c5.97801,3.45809 10,9.92153 10,17.32436c0,7.40282 -4.02199,13.86626 -10,17.32436c-5.97801,-3.45809 -10,-9.92153 -10,-17.32436c0,-7.40282 4.02199,-13.86626 10,-17.32436z" stroke-linecap="butt"/><path d="M242,716.49707c0,0.00098 0,0.00195 0,0.00293c0,11.04569 -8.95431,20 -20,20c-3.64287,0 -7.05827,-0.97394 -10,-2.67564c0,-0.00098 0,-0.00195 0,-0.00293c0,-11.04569 8.95431,-20 20,-20c3.64287,0 7.05827,0.97394 10,2.67564z" stroke-linecap="butt"/><path d="M202,716.5c0,-0.00098 0,-0.00195 0,-0.00293c2.94173,-1.7017 6.35713,-2.67564 10,-2.67564c11.04569,0 20,8.95431 20,20c0,0.00098 0,0.00196 0,0.00294c-2.94174,1.7017 -6.35712,2.67563 -10,2.67563c-11.04569,0 -20,-8.95431 -20,-20z" stroke-linecap="butt"/><path d="M202,696.5c11.04569,0 20,8.95431 20,20c0,0.00098 0,0.00195 0,0.00293c-2.94174,1.70171 -6.35711,2.67564 -10,2.67564c-11.04569,0 -20,-8.95431 -20,-20c0,-0.00098 0,-0.00196 0,-0.00294c2.94174,-1.7017 6.35712,-2.67563 10,-2.67563z" stroke-linecap="butt"/><path d="M222,716.49707c0,0.00098 0,0.00195 0,0.00293c0,11.04569 -8.95431,20 -20,20c-3.64287,0 -7.05827,-0.97394 -10,-2.67564c0,-0.00098 0,-0.00195 0,-0.00293c0,-11.04569 8.95431,-20 20,-20c3.64287,0 7.05827,0.97394 10,2.67564z" stroke-linecap="butt"/><path d="M222,681.85422c5.97801,3.45809 10,9.92153 10,17.32436c0,7.40282 -4.02199,13.86626 -10,17.32436c-5.97801,-3.45809 -10,-9.92153 -10,-17.32436c0,-7.40282 4.02199,-13.86626 10,-17.32436z" stroke-linecap="butt"/><path d="M252,699.17564c0,0.00098 0,0.00195 0,0.00293c0,11.04569 -8.95431,20 -20,20c-3.64287,0 -7.05827,-0.97394 -10,-2.67564c0,-0.00098 0,-0.00195 0,-0.00293c0,-11.04569 8.95431,-20 20,-20c3.64287,0 7.05827,0.97394 10,2.67564z" stroke-linecap="butt"/><path d="M222,716.5c0,-0.00098 0,-0.00195 0,-0.00293c2.94173,-1.7017 6.35713,-2.67564 10,-2.67564c11.04569,0 20,8.95431 20,20c0,0.00098 0,0.00196 0,0.00294c-2.94174,1.7017 -6.35712,2.67563 -10,2.67563c-11.04569,0 -20,-8.95431 -20,-20z" stroke-linecap="butt"/><path d="M212,733.82143c0,-7.40282 4.02199,-13.86626 10,-17.32436c5.97801,3.45809 10,9.92153 10,17.32436c0,7.40282 -4.02199,13.86626 -10,17.32436c-5.97801,-3.45809 -10,-9.92153 -10,-17.32436z" stroke-linecap="butt"/></g><rect x="-336" y="-726" transform="rotate(180)" width="12" height="19" stroke="#000000" stroke-width="0.5" stroke-linecap="butt" opacity="0"/><g stroke="#ffffff" stroke-width="0.5"><circle cx="-330" cy="-716.5" transform="rotate(180)" r="20" data-paper-data="{&quot;index&quot;:0}" stroke-linecap="round" opacity="0"/><circle cx="-310" cy="-716.5" transform="rotate(180)" r="20" data-paper-data="{&quot;index&quot;:1}" stroke-linecap="round" opacity="0"/><circle cx="-320" cy="-699.17857" transform="rotate(180)" r="20" data-paper-data="{&quot;index&quot;:2}" stroke-linecap="round" opacity="0"/><circle cx="-340" cy="-699.17857" transform="rotate(180)" r="20" data-paper-data="{&quot;index&quot;:3}" stroke-linecap="round" opacity="0"/><circle cx="-350" cy="-716.5" transform="rotate(180)" r="20" data-paper-data="{&quot;index&quot;:4}" stroke-linecap="round" opacity="0"/><circle cx="-340" cy="-733.82143" transform="rotate(180)" r="20" data-paper-data="{&quot;index&quot;:5}" stroke-linecap="round" opacity="0"/><circle cx="-320" cy="-733.82143" transform="rotate(180)" r="20" data-paper-data="{&quot;index&quot;:6}" stroke-linecap="round" opacity="0"/><path d="M310,716.5c0,-7.40282 4.02199,-13.86626 10,-17.32436c5.97801,3.45809 10,9.92153 10,17.32436c0,0.00098 0,0.00196 0,0.00294c-2.94174,1.7017 -6.35712,2.67563 -10,2.67563c-3.64287,0 -7.05827,-0.97394 -10,-2.67564c0,-0.00098 0,-0.00195 0,-0.00293z" stroke-linecap="butt"/><path d="M310,716.49706c2.94174,-1.7017 6.35712,-2.67563 10,-2.67563c3.64287,0 7.05827,0.97394 10,2.67564c0,0.00098 0,0.00195 0,0.00293c0,7.40282 -4.02199,13.86626 -10,17.32436c-5.97801,-3.45809 -10,-9.92153 -10,-17.32436c0,-0.00098 0,-0.00196 0,-0.00294z" stroke-linecap="butt"/><path d="M330,716.50293c-5.97801,-3.45809 -10,-9.92153 -10,-17.32436c0,-0.00098 0,-0.00195 0,-0.00293c2.94173,-1.7017 6.35713,-2.67564 10,-2.67564c3.64287,0 7.05827,0.97394 10,2.67564c0,0.00098 0,0.00195 0,0.00293c0,7.40282 -4.02199,13.86626 -10,17.32436z" stroke-linecap="butt"/><path d="M330,716.50293c0,-0.00098 0,-0.00195 0,-0.00293c0,-7.40282 4.02199,-13.86626 10,-17.32436c5.97801,3.45809 10,9.92153 10,17.32436c0,0.00098 0,0.00195 0,0.00293c-2.94173,1.7017 -6.35713,2.67564 -10,2.67564c-3.64287,0 -7.05827,-0.97394 -10,-2.67564z" stroke-linecap="butt"/><path d="M329.99999,716.49708c2.94174,-1.7017 6.35713,-2.67565 10.00001,-2.67565c3.64287,0 7.05827,0.97394 10,2.67564c0,0.00098 0,0.00195 0,0.00293c0,7.40282 -4.02199,13.86626 -10,17.32436c-5.97801,-3.45809 -10,-9.92153 -10,-17.32436c0,-0.00098 -0.00001,-0.00194 -0.00001,-0.00292z" stroke-linecap="butt"/><path d="M330,736.5c-3.64287,0 -7.05827,-0.97394 -10,-2.67564c0,-0.00098 0,-0.00195 0,-0.00293c0,-7.40282 4.02199,-13.86626 10,-17.32436c5.97801,3.45809 10,9.92153 10,17.32436c0,0.00098 0,0.00195 0,0.00293c-2.94174,1.70171 -6.35711,2.67564 -10,2.67564z" stroke-linecap="butt"/></g><path d="M340,699.17564c0,0.00098 0,0.00195 0,0.00293c0,11.04569 -8.95431,20 -20,20c-3.64287,0 -7.05827,-0.97394 -10,-2.67564c0,-0.00098 0,-0.00195 0,-0.00293c0,-11.04569 8.95431,-20 20,-20c3.64287,0 7.05827,0.97394 10,2.67564z" stroke-width="1" stroke-linecap="butt"/><path d="M320,713.82143c11.04569,0 20,8.95431 20,20c0,0.00098 0,0.00195 0,0.00293c-2.94174,1.70171 -6.35711,2.67564 -10,2.67564c-11.04569,0 -20,-8.95431 -20,-20c0,-0.00098 0,-0.00196 0,-0.00294c2.94174,-1.7017 6.35712,-2.67563 10,-2.67563z" stroke-width="1" stroke-linecap="butt"/><path d="M320,699.17857c0,-0.00098 0,-0.00195 0,-0.00293c2.94173,-1.7017 6.35713,-2.67564 10,-2.67564c11.04569,0 20,8.95431 20,20c0,0.00098 0,0.00196 0,0.00294c-2.94174,1.7017 -6.35712,2.67563 -10,2.67563c-11.04569,0 -20,-8.95431 -20,-20z" stroke-width="1" stroke-linecap="butt"/><path d="M330,716.5c0,-7.40282 4.02199,-13.86626 10,-17.32436c5.97801,3.45809 10,9.92153 10,17.32436c0,7.40282 -4.02199,13.86626 -10,17.32436c-5.97801,-3.45809 -10,-9.92153 -10,-17.32436z" stroke-width="1" stroke-linecap="butt"/><path d="M340,713.82143c3.64287,0 7.05827,0.97394 10,2.67564c0,0.00098 0,0.00195 0,0.00293c0,11.04569 -8.95431,20 -20,20c-3.64287,0 -7.05827,-0.97394 -10,-2.67564c0,-0.00098 0,-0.00195 0,-0.00293c0,-11.04569 8.95431,-20 20,-20z" stroke-width="1" stroke-linecap="butt"/><path d="M320,713.82143c11.04569,0 20,8.95431 20,20c0,0.00098 0,0.00195 0,0.00293c-2.94174,1.70171 -6.35711,2.67564 -10,2.67564c-11.04569,0 -20,-8.95431 -20,-20c0,-0.00098 0,-0.00196 0,-0.00294c2.94174,-1.7017 6.35712,-2.67563 10,-2.67563z" stroke-width="1" stroke-linecap="butt"/><rect x="-444" y="-726" transform="rotate(180)" width="12" height="19" stroke="#000000" stroke-width="0.5" stroke-linecap="butt" opacity="0"/><g stroke="#ffffff" stroke-width="0.5"><circle cx="-438" cy="-716.5" transform="rotate(180)" r="20" data-paper-data="{&quot;index&quot;:0}" stroke-linecap="round" opacity="0"/><circle cx="-418" cy="-716.5" transform="rotate(180)" r="20" data-paper-data="{&quot;index&quot;:1}" stroke-linecap="round" opacity="0"/><circle cx="-428" cy="-699.17857" transform="rotate(180)" r="20" data-paper-data="{&quot;index&quot;:2}" stroke-linecap="round" opacity="0"/><circle cx="-448" cy="-699.17857" transform="rotate(180)" r="20" data-paper-data="{&quot;index&quot;:3}" stroke-linecap="round" opacity="0"/><circle cx="-458" cy="-716.5" transform="rotate(180)" r="20" data-paper-data="{&quot;index&quot;:4}" stroke-linecap="round" opacity="0"/><circle cx="-448" cy="-733.82143" transform="rotate(180)" r="20" data-paper-data="{&quot;index&quot;:5}" stroke-linecap="round" opacity="0"/><circle cx="-428" cy="-733.82143" transform="rotate(180)" r="20" data-paper-data="{&quot;index&quot;:6}" stroke-linecap="round" opacity="0"/><path d="M428,699.17565c5.97801,3.45809 10,9.92153 10,17.32435c0,0.00098 0,0.00195 0,0.00293c-5.978,-3.4581 -10,-9.92154 -10,-17.32436c0,-0.00098 0,-0.00195 0,-0.00292z" stroke-linecap="butt"/><path d="M438,716.49707c0,0.00098 0,0.00195 0,0.00293c0,7.40282 -4.02199,13.86626 -10,17.32436c0,-0.00098 0,-0.00195 0,-0.00293c0,-7.40282 4.02199,-13.86626 10,-17.32436z" stroke-linecap="butt"/><path d="M448,699.17564c0,0.00098 0,0.00195 0,0.00293c0,7.40282 -4.02199,13.86626 -10,17.32436c0,-0.00098 0,-0.00195 0,-0.00293c0,-7.40282 4.02199,-13.86626 10,-17.32436z" stroke-linecap="butt"/><path d="M428,719.17857c-3.64496,0 -7.06218,-0.97506 -10.00506,-2.67857c2.94288,-1.70351 6.3601,-2.67857 10.00506,-2.67857c3.64496,0 7.06218,0.97506 10.00506,2.67857c-2.94288,1.70351 -6.3601,2.67857 -10.00506,2.67857z" stroke-linecap="butt"/><path d="M448,719.17857c-3.64496,0 -7.06218,-0.97506 -10.00506,-2.67857c2.94288,-1.70351 6.3601,-2.67857 10.00506,-2.67857c3.64496,0 7.06218,0.97506 10.00506,2.67857c-2.94288,1.70351 -6.3601,2.67857 -10.00506,2.67857z" stroke-linecap="butt"/><path d="M438,716.5c0,-0.00098 0,-0.00195 0,-0.00293c5.978,3.4581 10,9.92154 10,17.32436c0,0.00098 0,0.00195 0,0.00293c-5.97801,-3.45809 -10,-9.92154 -10,-17.32436z" stroke-linecap="butt"/></g><rect x="570" y="25" width="510" height="800" fill="#000000" stroke-width="1" stroke-linecap="butt"/><g stroke-width="1" stroke-linecap="butt"/><rect x="-670" y="-120" transform="rotate(180)" width="12" height="19" stroke="#000000" stroke-width="0.5" stroke-linecap="butt" opacity="0"/><g stroke="#ffffff" stroke-width="0.5" stroke-linecap="round"><circle cx="-664" cy="-110.5" transform="rotate(180)" r="20" data-paper-data="{&quot;index&quot;:0}" opacity="0"/></g><rect x="-778" y="-120" transform="rotate(180)" width="12" height="19" stroke="#000000" stroke-width="0.5" stroke-linecap="butt" opacity="0"/><g stroke="#ffffff" stroke-width="0.5" stroke-linecap="round"><circle cx="-772" cy="-110.5" transform="rotate(180)" r="20" data-paper-data="{&quot;index&quot;:0}" opacity="0"/></g><rect x="-886" y="-120" transform="rotate(180)" width="12" height="19" stroke="#000000" stroke-width="0.5" stroke-linecap="butt" opacity="0"/><g stroke="#ffffff" stroke-width="0.5" stroke-linecap="round"><circle cx="-880" cy="-110.5" transform="rotate(180)" r="20" data-paper-data="{&quot;index&quot;:0}" opacity="0"/></g><rect x="-994" y="-120" transform="rotate(180)" width="12" height="19" stroke="#000000" stroke-width="0.5" stroke-linecap="butt" opacity="0"/><g stroke="#ffffff" stroke-width="0.5" stroke-linecap="round"><circle cx="-988" cy="-110.5" transform="rotate(180)" r="20" data-paper-data="{&quot;index&quot;:0}"/></g><rect x="-670" y="-221" transform="rotate(180)" width="12" height="19" stroke="#000000" stroke-width="0.5" stroke-linecap="butt" opacity="0"/><g stroke="#ffffff" stroke-width="0.5" stroke-linecap="round"><circle cx="-211.5" cy="664" transform="rotate(-90)" r="20" data-paper-data="{&quot;index&quot;:0}" opacity="0"/><circle cx="-191.5" cy="664" transform="rotate(-90)" r="20" data-paper-data="{&quot;index&quot;:1}" opacity="0"/></g><rect x="-778" y="-221" transform="rotate(180)" width="12" height="19" stroke="#000000" stroke-width="0.5" stroke-linecap="butt" opacity="0"/><g stroke="#ffffff" stroke-width="0.5" stroke-linecap="round"><circle cx="-211.5" cy="772" transform="rotate(-90)" r="20" data-paper-data="{&quot;index&quot;:0}" opacity="0"/><circle cx="-191.5" cy="772" transform="rotate(-90)" r="20" data-paper-data="{&quot;index&quot;:1}" opacity="0"/></g><rect x="-886" y="-221" transform="rotate(180)" width="12" height="19" stroke="#000000" stroke-width="0.5" stroke-linecap="butt" opacity="0"/><g stroke="#ffffff" stroke-width="0.5" stroke-linecap="round"><circle cx="-211.5" cy="880" transform="rotate(-90)" r="20" data-paper-data="{&quot;index&quot;:0}" opacity="0"/><circle cx="-191.5" cy="880" transform="rotate(-90)" r="20" data-paper-data="{&quot;index&quot;:1}" opacity="0"/><circle cx="880" cy="201.5" r="10"/><circle cx="880" cy="201.5" r="17.32143"/></g><rect x="-994" y="-221" transform="rotate(180)" width="12" height="19" stroke="#000000" stroke-width="0.5" stroke-linecap="butt" opacity="0"/><g stroke="#ffffff" stroke-width="0.5" stroke-linecap="round"><circle cx="-211.5" cy="988" transform="rotate(-90)" r="20" data-paper-data="{&quot;index&quot;:0}"/><circle cx="-191.5" cy="988" transform="rotate(-90)" r="20" data-paper-data="{&quot;index&quot;:1}"/></g><rect x="-670" y="-322" transform="rotate(180)" width="12" height="19" stroke="#000000" stroke-width="0.5" stroke-linecap="butt" opacity="0"/><g stroke="#ffffff" stroke-width="0.5" stroke-linecap="round"><circle cx="-602.63294" cy="418.79087" transform="rotate(-120)" r="20" data-paper-data="{&quot;index&quot;:0}" opacity="0"/><circle cx="-582.63214" cy="418.79133" transform="rotate(-120)" r="20" data-paper-data="{&quot;index&quot;:1}" opacity="0"/><circle cx="-592.63214" cy="436.11184" transform="rotate(-120)" r="20" data-paper-data="{&quot;index&quot;:2}" opacity="0"/></g><rect x="-778" y="-322" transform="rotate(180)" width="12" height="19" stroke="#000000" stroke-width="0.5" stroke-linecap="butt" opacity="0"/><g stroke="#ffffff" stroke-width="0.5" stroke-linecap="round"><circle cx="-656.63294" cy="512.32161" transform="rotate(-120)" r="20" data-paper-data="{&quot;index&quot;:0}" opacity="0"/><circle cx="-636.63214" cy="512.32207" transform="rotate(-120)" r="20" data-paper-data="{&quot;index&quot;:1}" opacity="0"/><circle cx="-646.63214" cy="529.64258" transform="rotate(-120)" r="20" data-paper-data="{&quot;index&quot;:2}" opacity="0"/><circle cx="772" cy="300.95238" r="8.45238"/><circle cx="772" cy="300.95238" r="11.54762"/></g><rect x="-886" y="-322" transform="rotate(180)" width="12" height="19" stroke="#000000" stroke-width="0.5" stroke-linecap="butt" opacity="0"/><g stroke="#ffffff" stroke-width="0.5" stroke-linecap="round"><circle cx="-710.63294" cy="605.85236" transform="rotate(-120)" r="20" data-paper-data="{&quot;index&quot;:0}" opacity="0"/><circle cx="-690.63214" cy="605.85282" transform="rotate(-120)" r="20" data-paper-data="{&quot;index&quot;:1}" opacity="0"/><circle cx="-700.63214" cy="623.17332" transform="rotate(-120)" r="20" data-paper-data="{&quot;index&quot;:2}" opacity="0"/><circle cx="875" cy="303.83929" r="10"/><circle cx="885" cy="303.83929" r="10"/><circle cx="880" cy="295.17857" r="10"/><circle cx="875" cy="303.83929" r="17.32143"/><circle cx="885" cy="303.83929" r="17.32143"/><circle cx="880" cy="295.17857" r="17.32143"/></g><rect x="-994" y="-322" transform="rotate(180)" width="12" height="19" stroke="#000000" stroke-width="0.5" stroke-linecap="butt" opacity="0"/><g stroke="#ffffff" stroke-width="0.5" stroke-linecap="round"><circle cx="-764.63294" cy="699.3831" transform="rotate(-120)" r="20" data-paper-data="{&quot;index&quot;:0}"/><circle cx="-744.63214" cy="699.38356" transform="rotate(-120)" r="20" data-paper-data="{&quot;index&quot;:1}"/><circle cx="-754.63214" cy="716.70407" transform="rotate(-120)" r="20" data-paper-data="{&quot;index&quot;:2}"/></g><rect x="-670" y="-423" transform="rotate(180)" width="12" height="19" stroke="#000000" stroke-width="0.5" stroke-linecap="butt" opacity="0"/><g stroke="#ffffff" stroke-width="0.5" stroke-linecap="round"><circle cx="-781.79087" cy="-26.1015" transform="rotate(-150)" r="20" data-paper-data="{&quot;index&quot;:0}" opacity="0"/><circle cx="-761.79007" cy="-26.10196" transform="rotate(-150)" r="20" data-paper-data="{&quot;index&quot;:1}" opacity="0"/><circle cx="-771.79087" cy="-8.781" transform="rotate(-150)" r="20" data-paper-data="{&quot;index&quot;:2}" opacity="0"/><circle cx="-791.79167" cy="-8.78054" transform="rotate(-150)" r="20" data-paper-data="{&quot;index&quot;:3}" opacity="0"/><circle cx="664" cy="403.5" r="2.67857"/><circle cx="664" cy="403.5" r="10"/></g><rect x="-778" y="-423" transform="rotate(180)" width="12" height="19" stroke="#000000" stroke-width="0.5" stroke-linecap="butt" opacity="0"/><g stroke="#ffffff" stroke-width="0.5" stroke-linecap="round"><circle cx="-875.32161" cy="27.8985" transform="rotate(-150)" r="20" data-paper-data="{&quot;index&quot;:0}" opacity="0"/><circle cx="-855.32081" cy="27.89804" transform="rotate(-150)" r="20" data-paper-data="{&quot;index&quot;:1}" opacity="0"/><circle cx="-865.32161" cy="45.219" transform="rotate(-150)" r="20" data-paper-data="{&quot;index&quot;:2}" opacity="0"/><circle cx="-885.32241" cy="45.21946" transform="rotate(-150)" r="20" data-paper-data="{&quot;index&quot;:3}" opacity="0"/><circle cx="766.22619" cy="403.5" r="8.45238"/><circle cx="777.77381" cy="403.5" r="8.45238"/><circle cx="766.22619" cy="403.5" r="11.54762"/><circle cx="777.77381" cy="403.5" r="11.54762"/></g><rect x="-886" y="-423" transform="rotate(180)" width="12" height="19" stroke="#000000" stroke-width="0.5" stroke-linecap="butt" opacity="0"/><g stroke="#ffffff" stroke-width="0.5" stroke-linecap="round"><circle cx="-968.85236" cy="81.8985" transform="rotate(-150)" r="20" data-paper-data="{&quot;index&quot;:0}" opacity="0"/><circle cx="-948.85156" cy="81.89804" transform="rotate(-150)" r="20" data-paper-data="{&quot;index&quot;:1}" opacity="0"/><circle cx="-958.85236" cy="99.219" transform="rotate(-150)" r="20" data-paper-data="{&quot;index&quot;:2}" opacity="0"/><circle cx="-978.85315" cy="99.21946" transform="rotate(-150)" r="20" data-paper-data="{&quot;index&quot;:3}" opacity="0"/><circle cx="871.33929" cy="408.5" r="10"/><circle cx="880" cy="403.5" r="10"/><circle cx="888.66071" cy="408.5" r="10"/><circle cx="871.33929" cy="398.5" r="10"/><circle cx="888.66071" cy="398.5" r="10"/><circle cx="871.33929" cy="408.5" r="17.32143"/><circle cx="880" cy="403.5" r="17.32143"/><circle cx="888.66071" cy="408.5" r="17.32143"/><circle cx="871.33929" cy="398.5" r="17.32143"/><circle cx="888.66071" cy="398.5" r="17.32143"/></g><rect x="-994" y="-423" transform="rotate(180)" width="12" height="19" stroke="#000000" stroke-width="0.5" stroke-linecap="butt" opacity="0"/><g stroke="#ffffff" stroke-width="0.5" stroke-linecap="round"><circle cx="-1062.3831" cy="135.8985" transform="rotate(-150)" r="20" data-paper-data="{&quot;index&quot;:0}"/><circle cx="-1042.3823" cy="135.89804" transform="rotate(-150)" r="20" data-paper-data="{&quot;index&quot;:1}"/><circle cx="-1052.3831" cy="153.219" transform="rotate(-150)" r="20" data-paper-data="{&quot;index&quot;:2}"/><circle cx="-1072.3839" cy="153.21946" transform="rotate(-150)" r="20" data-paper-data="{&quot;index&quot;:3}"/></g><rect x="-670" y="-524" transform="rotate(180)" width="12" height="19" stroke="#000000" stroke-width="0.5" stroke-linecap="butt" opacity="0"/><g stroke="#ffffff" stroke-width="0.5" stroke-linecap="round"><circle cx="-664" cy="-514.5" transform="rotate(180)" r="20" data-paper-data="{&quot;index&quot;:0}" opacity="0"/><circle cx="-644" cy="-514.5" transform="rotate(180)" r="20" data-paper-data="{&quot;index&quot;:1}" opacity="0"/><circle cx="-654" cy="-497.17857" transform="rotate(180)" r="20" data-paper-data="{&quot;index&quot;:2}" opacity="0"/><circle cx="-674" cy="-497.17857" transform="rotate(180)" r="20" data-paper-data="{&quot;index&quot;:3}" opacity="0"/><circle cx="-684" cy="-514.5" transform="rotate(180)" r="20" data-paper-data="{&quot;index&quot;:4}" opacity="0"/><circle cx="659" cy="505.83929" r="2.67857"/><circle cx="669" cy="505.83929" r="2.67857"/><circle cx="659" cy="505.83929" r="10"/><circle cx="669" cy="505.83929" r="10"/></g><rect x="-778" y="-524" transform="rotate(180)" width="12" height="19" stroke="#000000" stroke-width="0.5" stroke-linecap="butt" opacity="0"/><g stroke="#ffffff" stroke-width="0.5" stroke-linecap="round"><circle cx="-772" cy="-514.5" transform="rotate(180)" r="20" data-paper-data="{&quot;index&quot;:0}" opacity="0"/><circle cx="-752" cy="-514.5" transform="rotate(180)" r="20" data-paper-data="{&quot;index&quot;:1}" opacity="0"/><circle cx="-762" cy="-497.17857" transform="rotate(180)" r="20" data-paper-data="{&quot;index&quot;:2}" opacity="0"/><circle cx="-782" cy="-497.17857" transform="rotate(180)" r="20" data-paper-data="{&quot;index&quot;:3}" opacity="0"/><circle cx="-792" cy="-514.5" transform="rotate(180)" r="20" data-paper-data="{&quot;index&quot;:4}" opacity="0"/><circle cx="762" cy="508.72619" r="8.45238"/><circle cx="772" cy="502.95238" r="8.45238"/><circle cx="782" cy="508.72619" r="8.45238"/><circle cx="762" cy="508.72619" r="11.54762"/><circle cx="772" cy="502.95238" r="11.54762"/><circle cx="782" cy="508.72619" r="11.54762"/></g><rect x="-886" y="-524" transform="rotate(180)" width="12" height="19" stroke="#000000" stroke-width="0.5" stroke-linecap="butt" opacity="0"/><g stroke="#ffffff" stroke-width="0.5" stroke-linecap="round"><circle cx="-880" cy="-514.5" transform="rotate(180)" r="20" data-paper-data="{&quot;index&quot;:0}" opacity="0"/><circle cx="-860" cy="-514.5" transform="rotate(180)" r="20" data-paper-data="{&quot;index&quot;:1}" opacity="0"/><circle cx="-870" cy="-497.17857" transform="rotate(180)" r="20" data-paper-data="{&quot;index&quot;:2}" opacity="0"/><circle cx="-890" cy="-497.17857" transform="rotate(180)" r="20" data-paper-data="{&quot;index&quot;:3}" opacity="0"/><circle cx="-900" cy="-514.5" transform="rotate(180)" r="20" data-paper-data="{&quot;index&quot;:4}" opacity="0"/><circle cx="870" cy="514.5" r="10"/><circle cx="875" cy="505.83929" r="10"/><circle cx="885" cy="505.83929" r="10"/><circle cx="890" cy="514.5" r="10"/><circle cx="865" cy="505.83929" r="10"/><circle cx="880" cy="497.17857" r="10"/><circle cx="895" cy="505.83929" r="10"/><circle cx="870" cy="514.5" r="17.32143"/><circle cx="875" cy="505.83929" r="17.32143"/><circle cx="885" cy="505.83929" r="17.32143"/><circle cx="890" cy="514.5" r="17.32143"/><circle cx="865" cy="505.83929" r="17.32143"/><circle cx="880" cy="497.17857" r="17.32143"/><circle cx="895" cy="505.83929" r="17.32143"/></g><rect x="-994" y="-524" transform="rotate(180)" width="12" height="19" stroke="#000000" stroke-width="0.5" stroke-linecap="butt" opacity="0"/><g stroke="#ffffff" stroke-width="0.5" stroke-linecap="round"><circle cx="-988" cy="-514.5" transform="rotate(180)" r="20" data-paper-data="{&quot;index&quot;:0}"/><circle cx="-968" cy="-514.5" transform="rotate(-180)" r="20" data-paper-data="{&quot;index&quot;:1}"/><circle cx="-978" cy="-497.17857" transform="rotate(180)" r="20" data-paper-data="{&quot;index&quot;:2}"/><circle cx="-998" cy="-497.17857" transform="rotate(180)" r="20" data-paper-data="{&quot;index&quot;:3}"/><circle cx="-1008" cy="-514.5" transform="rotate(-180)" r="20" data-paper-data="{&quot;index&quot;:4}"/></g><rect x="-670" y="-625" transform="rotate(180)" width="12" height="19" stroke="#000000" stroke-width="0.5" stroke-linecap="butt" opacity="0"/><g stroke="#ffffff" stroke-width="0.5" stroke-linecap="round"><circle cx="-267.29087" cy="-865.03864" transform="rotate(150)" r="20" data-paper-data="{&quot;index&quot;:0}" opacity="0"/><circle cx="-247.29007" cy="-865.03818" transform="rotate(150)" r="20" data-paper-data="{&quot;index&quot;:1}" opacity="0"/><circle cx="-257.29007" cy="-847.71767" transform="rotate(150)" r="20" data-paper-data="{&quot;index&quot;:2}" opacity="0"/><circle cx="-277.29087" cy="-847.71813" transform="rotate(150)" r="20" data-paper-data="{&quot;index&quot;:3}" opacity="0"/><circle cx="-287.29167" cy="-865.0391" transform="rotate(150)" r="20" data-paper-data="{&quot;index&quot;:4}" opacity="0"/><circle cx="-277.29167" cy="-882.3596" transform="rotate(150)" r="20" data-paper-data="{&quot;index&quot;:5}" opacity="0"/><circle cx="655.33929" cy="610.5" r="2.67857"/><circle cx="664" cy="625.5" r="2.67857"/><circle cx="664" cy="605.5" r="2.67857"/><circle cx="672.66071" cy="610.5" r="2.67857"/><circle cx="655.33929" cy="610.5" r="10"/><circle cx="664" cy="625.5" r="10"/><circle cx="664" cy="605.5" r="10"/><circle cx="672.66071" cy="610.5" r="10"/></g><rect x="-778" y="-625" transform="rotate(180)" width="12" height="19" stroke="#000000" stroke-width="0.5" stroke-linecap="butt" opacity="0"/><g stroke="#ffffff" stroke-width="0.5" stroke-linecap="round"><circle cx="-360.82161" cy="-919.03864" transform="rotate(150)" r="20" data-paper-data="{&quot;index&quot;:0}" opacity="0"/><circle cx="-340.82081" cy="-919.03818" transform="rotate(150)" r="20" data-paper-data="{&quot;index&quot;:1}" opacity="0"/><circle cx="-350.82081" cy="-901.71767" transform="rotate(150)" r="20" data-paper-data="{&quot;index&quot;:2}" opacity="0"/><circle cx="-370.82161" cy="-901.71813" transform="rotate(150)" r="20" data-paper-data="{&quot;index&quot;:3}" opacity="0"/><circle cx="-380.82241" cy="-919.0391" transform="rotate(150)" r="20" data-paper-data="{&quot;index&quot;:4}" opacity="0"/><circle cx="-370.82241" cy="-936.3596" transform="rotate(150)" r="20" data-paper-data="{&quot;index&quot;:5}" opacity="0"/><circle cx="760.45238" cy="615.5" r="8.45238"/><circle cx="766.22619" cy="605.5" r="8.45238"/><circle cx="777.77381" cy="605.5" r="8.45238"/><circle cx="783.54762" cy="615.5" r="8.45238"/><circle cx="760.45238" cy="615.5" r="11.54762"/><circle cx="766.22619" cy="605.5" r="11.54762"/><circle cx="777.77381" cy="605.5" r="11.54762"/><circle cx="783.54762" cy="615.5" r="11.54762"/></g><rect x="-886" y="-625" transform="rotate(180)" width="12" height="19" stroke="#000000" stroke-width="0.5" stroke-linecap="butt" opacity="0"/><g stroke="#ffffff" stroke-width="0.5" stroke-linecap="round"><circle cx="-454.35236" cy="-973.03864" transform="rotate(150)" r="20" data-paper-data="{&quot;index&quot;:0}" opacity="0"/><circle cx="-434.35156" cy="-973.03818" transform="rotate(150)" r="20" data-paper-data="{&quot;index&quot;:1}" opacity="0"/><circle cx="-444.35156" cy="-955.71767" transform="rotate(150)" r="20" data-paper-data="{&quot;index&quot;:2}" opacity="0"/><circle cx="-464.35236" cy="-955.71813" transform="rotate(150)" r="20" data-paper-data="{&quot;index&quot;:3}" opacity="0"/><circle cx="-474.35315" cy="-973.0391" transform="rotate(150)" r="20" data-paper-data="{&quot;index&quot;:4}" opacity="0"/><circle cx="-464.35315" cy="-990.3596" transform="rotate(150)" r="20" data-paper-data="{&quot;index&quot;:5}" opacity="0"/><circle cx="871.33929" cy="620.5" r="10"/><circle cx="871.33929" cy="610.5" r="10"/><circle cx="880" cy="605.5" r="10"/><circle cx="888.66071" cy="610.5" r="10"/><circle cx="888.66071" cy="620.5" r="10"/><circle cx="862.67857" cy="615.5" r="10"/><circle cx="871.33929" cy="600.5" r="10"/><circle cx="888.66071" cy="600.5" r="10"/><circle cx="897.32143" cy="615.5" r="10"/><circle cx="871.33929" cy="620.5" r="17.32143"/><circle cx="871.33929" cy="610.5" r="17.32143"/><circle cx="880" cy="605.5" r="17.32143"/><circle cx="888.66071" cy="610.5" r="17.32143"/><circle cx="888.66071" cy="620.5" r="17.32143"/><circle cx="862.67857" cy="615.5" r="17.32143"/><circle cx="871.33929" cy="600.5" r="17.32143"/><circle cx="888.66071" cy="600.5" r="17.32143"/><circle cx="897.32143" cy="615.5" r="17.32143"/></g><rect x="-994" y="-625" transform="rotate(180)" width="12" height="19" stroke="#000000" stroke-width="0.5" stroke-linecap="butt" opacity="0"/><g stroke="#ffffff" stroke-width="0.5" stroke-linecap="round"><circle cx="-547.8831" cy="-1027.03864" transform="rotate(150)" r="20" data-paper-data="{&quot;index&quot;:0}"/><circle cx="-527.8823" cy="-1027.03818" transform="rotate(150)" r="20" data-paper-data="{&quot;index&quot;:1}"/><circle cx="-537.8823" cy="-1009.71767" transform="rotate(150)" r="20" data-paper-data="{&quot;index&quot;:2}"/><circle cx="-557.8831" cy="-1009.71813" transform="rotate(150)" r="20" data-paper-data="{&quot;index&quot;:3}"/><circle cx="-567.8839" cy="-1027.0391" transform="rotate(150)" r="20" data-paper-data="{&quot;index&quot;:4}"/><circle cx="-557.8839" cy="-1044.3596" transform="rotate(150)" r="20" data-paper-data="{&quot;index&quot;:5}"/></g><rect x="-670" y="-726" transform="rotate(180)" width="12" height="19" stroke="#000000" stroke-width="0.5" stroke-linecap="butt" opacity="0"/><g stroke="#ffffff" stroke-width="0.5" stroke-linecap="round"><circle cx="-664" cy="-716.5" transform="rotate(180)" r="20" data-paper-data="{&quot;index&quot;:0}" opacity="0"/><circle cx="-644" cy="-716.5" transform="rotate(180)" r="20" data-paper-data="{&quot;index&quot;:1}" opacity="0"/><circle cx="-654" cy="-699.17857" transform="rotate(180)" r="20" data-paper-data="{&quot;index&quot;:2}" opacity="0"/><circle cx="-674" cy="-699.17857" transform="rotate(180)" r="20" data-paper-data="{&quot;index&quot;:3}" opacity="0"/><circle cx="-684" cy="-716.5" transform="rotate(180)" r="20" data-paper-data="{&quot;index&quot;:4}" opacity="0"/><circle cx="-674" cy="-733.82143" transform="rotate(180)" r="20" data-paper-data="{&quot;index&quot;:5}" opacity="0"/><circle cx="-654" cy="-733.82143" transform="rotate(180)" r="20" data-paper-data="{&quot;index&quot;:6}" opacity="0"/><circle cx="659" cy="707.83929" r="2.67857"/><circle cx="659" cy="725.16071" r="2.67857"/><circle cx="669" cy="707.83929" r="2.67857"/><circle cx="654" cy="716.5" r="2.67857"/><circle cx="674" cy="716.5" r="2.67857"/><circle cx="669" cy="725.16071" r="2.67857"/><circle cx="659" cy="707.83929" r="10"/><circle cx="659" cy="725.16071" r="10"/><circle cx="669" cy="707.83929" r="10"/><circle cx="654" cy="716.5" r="10"/><circle cx="674" cy="716.5" r="10"/><circle cx="669" cy="725.16071" r="10"/></g><rect x="-778" y="-726" transform="rotate(180)" width="12" height="19" stroke="#000000" stroke-width="0.5" stroke-linecap="butt" opacity="0"/><g stroke="#ffffff" stroke-width="0.5" stroke-linecap="round"><circle cx="-772" cy="-716.5" transform="rotate(180)" r="20" data-paper-data="{&quot;index&quot;:0}" opacity="0"/><circle cx="-752" cy="-716.5" transform="rotate(180)" r="20" data-paper-data="{&quot;index&quot;:1}" opacity="0"/><circle cx="-762" cy="-699.17857" transform="rotate(180)" r="20" data-paper-data="{&quot;index&quot;:2}" opacity="0"/><circle cx="-782" cy="-699.17857" transform="rotate(180)" r="20" data-paper-data="{&quot;index&quot;:3}" opacity="0"/><circle cx="-792" cy="-716.5" transform="rotate(180)" r="20" data-paper-data="{&quot;index&quot;:4}" opacity="0"/><circle cx="-782" cy="-733.82143" transform="rotate(180)" r="20" data-paper-data="{&quot;index&quot;:5}" opacity="0"/><circle cx="-762" cy="-733.82143" transform="rotate(180)" r="20" data-paper-data="{&quot;index&quot;:6}" opacity="0"/><circle cx="762" cy="710.72619" r="8.45238"/><circle cx="762" cy="722.27381" r="8.45238"/><circle cx="772" cy="704.95238" r="8.45238"/><circle cx="782" cy="710.72619" r="8.45238"/><circle cx="782" cy="722.27381" r="8.45238"/><circle cx="772" cy="728.04762" r="8.45238"/><circle cx="762" cy="710.72619" r="11.54762"/><circle cx="762" cy="722.27381" r="11.54762"/><circle cx="772" cy="704.95238" r="11.54762"/><circle cx="782" cy="710.72619" r="11.54762"/><circle cx="782" cy="722.27381" r="11.54762"/><circle cx="772" cy="728.04762" r="11.54762"/></g><rect x="-886" y="-726" transform="rotate(180)" width="12" height="19" stroke="#000000" stroke-width="0.5" stroke-linecap="butt" opacity="0"/><g stroke="#ffffff" stroke-width="0.5" stroke-linecap="round"><circle cx="-880" cy="-716.5" transform="rotate(180)" r="20" data-paper-data="{&quot;index&quot;:0}" opacity="0"/><circle cx="-860" cy="-716.5" transform="rotate(180)" r="20" data-paper-data="{&quot;index&quot;:1}" opacity="0"/><circle cx="-870" cy="-699.17857" transform="rotate(180)" r="20" data-paper-data="{&quot;index&quot;:2}" opacity="0"/><circle cx="-890" cy="-699.17857" transform="rotate(180)" r="20" data-paper-data="{&quot;index&quot;:3}" opacity="0"/><circle cx="-900" cy="-716.5" transform="rotate(180)" r="20" data-paper-data="{&quot;index&quot;:4}" opacity="0"/><circle cx="-890" cy="-733.82143" transform="rotate(180)" r="20" data-paper-data="{&quot;index&quot;:5}" opacity="0"/><circle cx="-870" cy="-733.82143" transform="rotate(180)" r="20" data-paper-data="{&quot;index&quot;:6}" opacity="0"/><circle cx="870" cy="716.5" r="10"/><circle cx="875" cy="707.83929" r="10"/><circle cx="885" cy="707.83929" r="10"/><circle cx="890" cy="716.5" r="10"/><circle cx="885" cy="725.16071" r="10"/><circle cx="875" cy="725.16071" r="10"/><circle cx="865" cy="707.83929" r="10"/><circle cx="865" cy="725.16071" r="10"/><circle cx="880" cy="699.17857" r="10"/><circle cx="895" cy="707.83929" r="10"/><circle cx="895" cy="725.16071" r="10"/><circle cx="880" cy="733.82143" r="10"/><circle cx="870" cy="716.5" r="17.32143"/><circle cx="875" cy="707.83929" r="17.32143"/><circle cx="885" cy="707.83929" r="17.32143"/><circle cx="890" cy="716.5" r="17.32143"/><circle cx="885" cy="725.16071" r="17.32143"/><circle cx="875" cy="725.16071" r="17.32143"/><circle cx="865" cy="707.83929" r="17.32143"/><circle cx="865" cy="725.16071" r="17.32143"/><circle cx="880" cy="699.17857" r="17.32143"/><circle cx="895" cy="707.83929" r="17.32143"/><circle cx="895" cy="725.16071" r="17.32143"/><circle cx="880" cy="733.82143" r="17.32143"/></g><rect x="-994" y="-726" transform="rotate(180)" width="12" height="19" stroke="#000000" stroke-width="0.5" stroke-linecap="butt" opacity="0"/><g stroke="#ffffff" stroke-width="0.5" stroke-linecap="round"><circle cx="-988" cy="-716.5" transform="rotate(180)" r="20" data-paper-data="{&quot;index&quot;:0}"/><circle cx="-968" cy="-716.5" transform="rotate(-180)" r="20" data-paper-data="{&quot;index&quot;:1}"/><circle cx="-978" cy="-699.17857" transform="rotate(180)" r="20" data-paper-data="{&quot;index&quot;:2}"/><circle cx="-998" cy="-699.17857" transform="rotate(180)" r="20" data-paper-data="{&quot;index&quot;:3}"/><circle cx="-1008" cy="-716.5" transform="rotate(-180)" r="20" data-paper-data="{&quot;index&quot;:4}"/><circle cx="-998" cy="-733.82143" transform="rotate(180)" r="20" data-paper-data="{&quot;index&quot;:5}"/><circle cx="-978" cy="-733.82143" transform="rotate(180)" r="20" data-paper-data="{&quot;index&quot;:6}"/></g></g></svg>