<svg x="0" y="0" width="1100" height="850" version="1.1" xmlns="http://www.w3.org/2000/svg" xmlns:xlink="http://www.w3.org/1999/xlink"><g fill="none" stroke="none" stroke-width="none" stroke-linecap="none" stroke-linejoin="miter" stroke-miterlimit="10" stroke-dasharray="" stroke-dashoffset="0" font-family="sans-serif" font-size="12" text-anchor="start" mix-blend-mode="normal"><rect x="20" y="25" width="510" height="800" fill="#000000" stroke-width="1" stroke-linecap="butt"/><g stroke-width="1" stroke-linecap="butt"/><rect x="-120" y="-120" transform="rotate(180)" width="34" height="19" stroke="#000000" stroke-width="0.5" stroke-linecap="butt" opacity="0"/><g stroke="#ffffff" stroke-width="0.5" stroke-linecap="round"><circle cx="-103" cy="-110.5" transform="rotate(180)" r="20" data-paper-data="{&quot;index&quot;:0}"/></g><rect x="-292" y="-120" transform="rotate(180)" width="34" height="19" stroke="#000000" stroke-width="0.5" stroke-linecap="butt" opacity="0"/><g stroke="#ffffff" stroke-width="0.5" stroke-linecap="round"><circle cx="-275" cy="-110.5" transform="rotate(180)" r="20" data-paper-data="{&quot;index&quot;:0}" opacity="0"/></g><rect x="-378" y="-120" transform="rotate(180)" width="34" height="19" stroke="#000000" stroke-width="0.5" stroke-linecap="butt" opacity="0"/><g stroke="#ffffff" stroke-width="0.5" stroke-linecap="round"><circle cx="-361" cy="-110.5" transform="rotate(180)" r="20" data-paper-data="{&quot;index&quot;:0}" opacity="0"/></g><rect x="-464" y="-120" transform="rotate(180)" width="34" height="19" stroke="#000000" stroke-width="0.5" stroke-linecap="butt" opacity="0"/><g stroke="#ffffff" stroke-width="0.5" stroke-linecap="round"><circle cx="-447" cy="-110.5" transform="rotate(180)" r="20" data-paper-data="{&quot;index&quot;:0}" opacity="0"/></g><rect x="-120" y="-221" transform="rotate(180)" width="34" height="19" stroke="#000000" stroke-width="0.5" stroke-linecap="butt" opacity="0"/><g stroke="#ffffff" stroke-width="0.5" stroke-linecap="round"><circle cx="-211.5" cy="103" transform="rotate(-90)" r="20" data-paper-data="{&quot;index&quot;:0}"/><circle cx="-191.5" cy="103" transform="rotate(-90)" r="20" data-paper-data="{&quot;index&quot;:1}"/></g><rect x="-292" y="-221" transform="rotate(180)" width="34" height="19" stroke="#000000" stroke-width="0.5" stroke-linecap="butt" opacity="0"/><g stroke="#ffffff" stroke-width="0.5"><circle cx="-211.5" cy="275" transform="rotate(-90)" r="20" data-paper-data="{&quot;index&quot;:0}" stroke-linecap="round" opacity="0"/><circle cx="-191.5" cy="275" transform="rotate(-90)" r="20" data-paper-data="{&quot;index&quot;:1}" stroke-linecap="round" opacity="0"/><path d="M275,191.5c7.40282,0 13.86626,4.02199 17.32436,10c-3.45809,5.97801 -9.92153,10 -17.32436,10c-7.40282,0 -13.86626,-4.02199 -17.32436,-10c3.45809,-5.97801 9.92153,-10 17.32436,-10z" stroke-linecap="butt"/></g><rect x="-378" y="-221" transform="rotate(180)" width="34" height="19" stroke="#000000" stroke-width="0.5" stroke-linecap="butt" opacity="0"/><g stroke="#ffffff" stroke-width="0.5" stroke-linecap="round"><circle cx="-211.5" cy="361" transform="rotate(-90)" r="20" data-paper-data="{&quot;index&quot;:0}" opacity="0"/><circle cx="-191.5" cy="361" transform="rotate(-90)" r="20" data-paper-data="{&quot;index&quot;:1}" opacity="0"/></g><rect x="-464" y="-221" transform="rotate(180)" width="34" height="19" stroke="#000000" stroke-width="0.5" stroke-linecap="butt" opacity="0"/><g stroke="#ffffff" stroke-width="0.5" stroke-linecap="round"><circle cx="-211.5" cy="447" transform="rotate(-90)" r="20" data-paper-data="{&quot;index&quot;:0}" opacity="0"/><circle cx="-191.5" cy="447" transform="rotate(-90)" r="20" data-paper-data="{&quot;index&quot;:1}" opacity="0"/></g><rect x="-120" y="-322" transform="rotate(180)" width="34" height="19" stroke="#000000" stroke-width="0.5" stroke-linecap="butt" opacity="0"/><g stroke="#ffffff" stroke-width="0.5" stroke-linecap="round"><circle cx="-322.13294" cy="-67.04938" transform="rotate(-120)" r="20" data-paper-data="{&quot;index&quot;:0}"/><circle cx="-302.13214" cy="-67.04892" transform="rotate(-120)" r="20" data-paper-data="{&quot;index&quot;:1}"/><circle cx="-312.13214" cy="-49.72842" transform="rotate(-120)" r="20" data-paper-data="{&quot;index&quot;:2}"/></g><rect x="-292" y="-322" transform="rotate(180)" width="34" height="19" stroke="#000000" stroke-width="0.5" stroke-linecap="butt" opacity="0"/><g stroke="#ffffff" stroke-width="0.5"><circle cx="-408.13294" cy="81.90699" transform="rotate(-120)" r="20" data-paper-data="{&quot;index&quot;:0}" stroke-linecap="round" opacity="0"/><circle cx="-388.13214" cy="81.90745" transform="rotate(-120)" r="20" data-paper-data="{&quot;index&quot;:1}" stroke-linecap="round" opacity="0"/><circle cx="-398.13214" cy="99.22795" transform="rotate(-120)" r="20" data-paper-data="{&quot;index&quot;:2}" stroke-linecap="round" opacity="0"/><path d="M265,295.17949c6.41103,-3.70141 14.01953,-3.44999 20.00333,-0.00192c-0.00611,6.90584 -3.59258,13.62026 -10.00333,17.32151c-6.41103,3.70141 -14.01953,3.44999 -20.00333,0.00192c0.00611,-6.90584 3.59258,-13.62026 10.00333,-17.32151z" stroke-linecap="butt"/><path d="M292.32051,302.5c1.82127,3.15453 2.68552,6.59899 2.68283,9.99715c-0.00111,0.00064 -0.00222,0.00128 -0.00333,0.00192c-9.56585,5.52285 -21.79766,2.24534 -27.32051,-7.32051c-1.82127,-3.15453 -2.68552,-6.59899 -2.68283,-9.99715c0.00111,-0.00064 0.00222,-0.00128 0.00333,-0.00192c9.56585,-5.52285 21.79766,-2.24534 27.32051,7.32051z" stroke-linecap="butt"/><path d="M282.32051,285.17857c5.52285,9.56585 2.24534,21.79766 -7.32051,27.32051c-0.00111,0.00064 -0.00222,0.00128 -0.00333,0.00192c-2.9446,-1.69677 -5.49573,-4.1676 -7.31718,-7.32243c-5.52285,-9.56585 -2.24534,-21.79766 7.32051,-27.32051c0.00112,-0.00064 0.00223,-0.00129 0.00335,-0.00193c2.94459,1.69677 5.49572,4.16762 7.31716,7.32244z" stroke-linecap="butt"/></g><rect x="-378" y="-322" transform="rotate(180)" width="34" height="19" stroke="#000000" stroke-width="0.5" stroke-linecap="butt" opacity="0"/><g stroke="#ffffff" stroke-width="0.5"><circle cx="-451.13294" cy="156.38517" transform="rotate(-120)" r="20" data-paper-data="{&quot;index&quot;:0}" stroke-linecap="round" opacity="0"/><circle cx="-431.13214" cy="156.38563" transform="rotate(-120)" r="20" data-paper-data="{&quot;index&quot;:1}" stroke-linecap="round" opacity="0"/><circle cx="-441.13214" cy="173.70614" transform="rotate(-120)" r="20" data-paper-data="{&quot;index&quot;:2}" stroke-linecap="round" opacity="0"/><path d="M351,295.17949c6.41103,-3.70141 14.01953,-3.44999 20.00333,-0.00192c-0.00611,6.90584 -3.59258,13.62026 -10.00333,17.32151c-0.00112,0.00064 -0.00223,0.00129 -0.00335,0.00193c-2.94459,-1.69677 -5.49572,-4.16762 -7.31716,-7.32244c-1.82127,-3.15453 -2.68552,-6.59899 -2.68283,-9.99715c0.00111,-0.00064 0.00222,-0.00128 0.00333,-0.00192z" stroke-linecap="butt"/></g><path d="M381.00333,312.49715c-0.00111,0.00064 -0.00222,0.00128 -0.00333,0.00192c-9.56585,5.52285 -21.79766,2.24534 -27.32051,-7.32051c-1.82127,-3.15453 -2.68552,-6.59899 -2.68283,-9.99715c0.00111,-0.00064 0.00222,-0.00128 0.00333,-0.00192c9.56585,-5.52285 21.79766,-2.24534 27.32051,7.32051c1.82128,3.15456 2.68553,6.59896 2.68283,9.99715z" stroke-width="1" stroke-linecap="butt"/><rect x="-464" y="-322" transform="rotate(180)" width="34" height="19" stroke="#000000" stroke-width="0.5" stroke-linecap="butt" opacity="0"/><g stroke="#ffffff" stroke-width="0.5" stroke-linecap="round"><circle cx="-494.13294" cy="230.86336" transform="rotate(-120)" r="20" data-paper-data="{&quot;index&quot;:0}" opacity="0"/><circle cx="-474.13214" cy="230.86382" transform="rotate(-120)" r="20" data-paper-data="{&quot;index&quot;:1}" opacity="0"/><circle cx="-484.13214" cy="248.18432" transform="rotate(-120)" r="20" data-paper-data="{&quot;index&quot;:2}" opacity="0"/></g><rect x="-120" y="-423" transform="rotate(180)" width="34" height="19" stroke="#000000" stroke-width="0.5" stroke-linecap="butt" opacity="0"/><g stroke="#ffffff" stroke-width="0.5" stroke-linecap="round"><circle cx="-295.95062" cy="-306.6015" transform="rotate(-150)" r="20" data-paper-data="{&quot;index&quot;:0}"/><circle cx="-275.94982" cy="-306.60196" transform="rotate(-150)" r="20" data-paper-data="{&quot;index&quot;:1}"/><circle cx="-285.95062" cy="-289.281" transform="rotate(-150)" r="20" data-paper-data="{&quot;index&quot;:2}"/><circle cx="-305.95141" cy="-289.28054" transform="rotate(-150)" r="20" data-paper-data="{&quot;index&quot;:3}"/></g><rect x="-292" y="-423" transform="rotate(180)" width="34" height="19" stroke="#000000" stroke-width="0.5" stroke-linecap="butt" opacity="0"/><g stroke="#ffffff" stroke-width="0.5"><circle cx="-444.90699" cy="-220.6015" transform="rotate(-150)" r="20" data-paper-data="{&quot;index&quot;:0}" stroke-linecap="round" opacity="0"/><circle cx="-424.90619" cy="-220.60196" transform="rotate(-150)" r="20" data-paper-data="{&quot;index&quot;:1}" stroke-linecap="round" opacity="0"/><circle cx="-434.90699" cy="-203.281" transform="rotate(-150)" r="20" data-paper-data="{&quot;index&quot;:2}" stroke-linecap="round" opacity="0"/><circle cx="-454.90778" cy="-203.28054" transform="rotate(-150)" r="20" data-paper-data="{&quot;index&quot;:3}" stroke-linecap="round" opacity="0"/><path d="M257.67949,403.5c3.70125,-6.41075 10.41568,-9.99722 17.32151,-10.00333c3.44806,5.9838 3.69949,13.5923 -0.00192,20.00333c-3.70125,6.41075 -10.41568,9.99722 -17.32151,10.00333c-3.44806,-5.9838 -3.69949,-13.5923 0.00192,-20.00333z" stroke-linecap="butt"/><path d="M285,396.17949c3.15482,1.82144 5.62567,4.37259 7.32243,7.31718c-0.00064,0.00111 -0.00128,0.00222 -0.00192,0.00333c-5.52285,9.56585 -17.75466,12.84336 -27.32051,7.32051c-3.15484,-1.82145 -5.6257,-4.37263 -7.32247,-7.31724c0.00064,-0.00111 0.00132,-0.00216 0.00196,-0.00327c5.52285,-9.56585 17.75466,-12.84336 27.32051,-7.32051z" stroke-linecap="butt"/><path d="M285,396.17949c9.56585,5.52285 12.84336,17.75466 7.32051,27.32051c-0.00064,0.00111 -0.00128,0.00222 -0.00192,0.00333c-3.39817,0.00269 -6.84262,-0.86155 -9.99715,-2.68283c-9.56585,-5.52285 -12.84336,-17.75466 -7.32051,-27.32051c0.00064,-0.00112 0.00129,-0.00223 0.00193,-0.00335c3.39817,-0.00269 6.84261,0.86157 9.99715,2.68284z" stroke-linecap="butt"/><path d="M267.67857,386.17949c9.56585,5.52285 12.84336,17.75466 7.32051,27.32051c-0.00064,0.00111 -0.00128,0.00222 -0.00192,0.00333c-3.39817,0.00269 -6.84262,-0.86155 -9.99715,-2.68283c-9.56585,-5.52285 -12.84336,-17.75466 -7.32051,-27.32051c0.00064,-0.00112 0.00129,-0.00223 0.00193,-0.00335c3.39817,-0.00269 6.84261,0.86157 9.99715,2.68284z" stroke-linecap="butt"/><path d="M292.32243,383.49667c3.44806,5.9838 3.69949,13.5923 -0.00192,20.00333c-3.70125,6.41075 -10.41568,9.99722 -17.32151,10.00333c-3.44806,-5.9838 -3.69949,-13.5923 0.00192,-20.00333c3.70125,-6.41075 10.41568,-9.99722 17.32151,-10.00333z" stroke-linecap="butt"/></g><rect x="-378" y="-423" transform="rotate(180)" width="34" height="19" stroke="#000000" stroke-width="0.5" stroke-linecap="butt" opacity="0"/><g stroke="#ffffff" stroke-width="0.5"><circle cx="-519.38517" cy="-177.6015" transform="rotate(-150)" r="20" data-paper-data="{&quot;index&quot;:0}" stroke-linecap="round" opacity="0"/><circle cx="-499.38437" cy="-177.60196" transform="rotate(-150)" r="20" data-paper-data="{&quot;index&quot;:1}" stroke-linecap="round" opacity="0"/><circle cx="-509.38517" cy="-160.281" transform="rotate(-150)" r="20" data-paper-data="{&quot;index&quot;:2}" stroke-linecap="round" opacity="0"/><circle cx="-529.38597" cy="-160.28054" transform="rotate(-150)" r="20" data-paper-data="{&quot;index&quot;:3}" stroke-linecap="round" opacity="0"/><path d="M343.67949,403.5c3.70125,-6.41075 10.41568,-9.99722 17.32151,-10.00333c3.44806,5.9838 3.69949,13.5923 -0.00192,20.00333c-0.00064,0.00112 -0.00129,0.00223 -0.00193,0.00335c-3.39817,0.00269 -6.84261,-0.86157 -9.99715,-2.68284c-3.15482,-1.82144 -5.62567,-4.37259 -7.32243,-7.31718c0.00064,-0.00111 0.00128,-0.00222 0.00192,-0.00333z" stroke-linecap="butt"/><path d="M360.999,413.50333c-3.44806,-5.9838 -3.69949,-13.5923 0.00192,-20.00333c0.00064,-0.00111 0.00128,-0.00222 0.00192,-0.00333c3.39817,-0.00269 6.84262,0.86155 9.99715,2.68283c3.15482,1.82144 5.62567,4.37259 7.32243,7.31718c-0.00064,0.00111 -0.00128,0.00222 -0.00192,0.00333c-3.70125,6.41075 -10.41568,9.99722 -17.32151,10.00333z" stroke-linecap="butt"/></g><path d="M378.32243,403.49667c-0.00064,0.00111 -0.00128,0.00222 -0.00192,0.00333c-5.52285,9.56585 -17.75466,12.84336 -27.32051,7.32051c-3.15482,-1.82144 -5.62567,-4.37259 -7.32243,-7.31718c0.00064,-0.00111 0.00128,-0.00222 0.00192,-0.00333c5.52285,-9.56585 17.75466,-12.84336 27.32051,-7.32051c3.15482,1.82144 5.62567,4.37259 7.32243,7.31718z" stroke-width="1" stroke-linecap="butt"/><path d="M361.00092,393.5c0.00064,-0.00111 0.00128,-0.00222 0.00192,-0.00333c3.39817,-0.00269 6.84262,0.86155 9.99715,2.68283c9.56585,5.52285 12.84336,17.75466 7.32051,27.32051c-0.00064,0.00112 -0.00129,0.00223 -0.00193,0.00335c-3.39817,0.00269 -6.84261,-0.86157 -9.99715,-2.68284c-9.56585,-5.52285 -12.84336,-17.75466 -7.32051,-27.32051z" stroke-width="1" stroke-linecap="butt"/><rect x="-464" y="-423" transform="rotate(180)" width="34" height="19" stroke="#000000" stroke-width="0.5" stroke-linecap="butt" opacity="0"/><g stroke="#ffffff" stroke-width="0.5"><circle cx="-593.86336" cy="-134.6015" transform="rotate(-150)" r="20" data-paper-data="{&quot;index&quot;:0}" stroke-linecap="round" opacity="0"/><circle cx="-573.86256" cy="-134.60196" transform="rotate(-150)" r="20" data-paper-data="{&quot;index&quot;:1}" stroke-linecap="round" opacity="0"/><circle cx="-583.86336" cy="-117.281" transform="rotate(-150)" r="20" data-paper-data="{&quot;index&quot;:2}" stroke-linecap="round" opacity="0"/><circle cx="-603.86415" cy="-117.28054" transform="rotate(-150)" r="20" data-paper-data="{&quot;index&quot;:3}" stroke-linecap="round" opacity="0"/><path d="M447.00193,393.49827c3.44719,5.98356 3.69824,13.59127 -0.00285,20.00173c-0.00033,0.00058 -0.00067,0.00116 -0.001,0.00174c-3.44718,-5.98356 -3.69824,-13.59128 0.00284,-20.00174c0.00033,-0.00058 0.00067,-0.00115 0.00101,-0.00173z" stroke-linecap="butt"/></g><rect x="-120" y="-524" transform="rotate(180)" width="34" height="19" stroke="#000000" stroke-width="0.5" stroke-linecap="butt" opacity="0"/><g stroke="#ffffff" stroke-width="0.5" stroke-linecap="round"><circle cx="-103" cy="-514.5" transform="rotate(180)" r="20" data-paper-data="{&quot;index&quot;:0}"/><circle cx="-83" cy="-514.5" transform="rotate(180)" r="20" data-paper-data="{&quot;index&quot;:1}"/><circle cx="-93" cy="-497.17857" transform="rotate(180)" r="20" data-paper-data="{&quot;index&quot;:2}"/><circle cx="-113" cy="-497.17857" transform="rotate(180)" r="20" data-paper-data="{&quot;index&quot;:3}"/><circle cx="-123" cy="-514.5" transform="rotate(180)" r="20" data-paper-data="{&quot;index&quot;:4}"/></g><rect x="-292" y="-524" transform="rotate(180)" width="34" height="19" stroke="#000000" stroke-width="0.5" stroke-linecap="butt" opacity="0"/><g stroke="#ffffff" stroke-width="0.5"><circle cx="-275" cy="-514.5" transform="rotate(180)" r="20" data-paper-data="{&quot;index&quot;:0}" stroke-linecap="round" opacity="0"/><circle cx="-255" cy="-514.5" transform="rotate(180)" r="20" data-paper-data="{&quot;index&quot;:1}" stroke-linecap="round" opacity="0"/><circle cx="-265" cy="-497.17857" transform="rotate(180)" r="20" data-paper-data="{&quot;index&quot;:2}" stroke-linecap="round" opacity="0"/><circle cx="-285" cy="-497.17857" transform="rotate(180)" r="20" data-paper-data="{&quot;index&quot;:3}" stroke-linecap="round" opacity="0"/><circle cx="-295" cy="-514.5" transform="rotate(180)" r="20" data-paper-data="{&quot;index&quot;:4}" stroke-linecap="round" opacity="0"/><path d="M255,514.5c0,-7.40282 4.02199,-13.86626 10,-17.32436c5.97801,3.45809 10,9.92153 10,17.32436c0,7.40282 -4.02199,13.86626 -10,17.32436c-5.97801,-3.45809 -10,-9.92153 -10,-17.32436z" stroke-linecap="butt"/><path d="M275,494.5c3.64287,0 7.05827,0.97394 10,2.67564c0,0.00098 0,0.00195 0,0.00293c0,11.04569 -8.95431,20 -20,20c-3.64287,0 -7.05827,-0.97394 -10,-2.67564c0,-0.00098 0,-0.00195 0,-0.00293c0,-11.04569 8.95431,-20 20,-20z" stroke-linecap="butt"/><path d="M275,494.5c11.04569,0 20,8.95431 20,20c0,0.00098 0,0.00195 0,0.00293c-2.94174,1.70171 -6.35711,2.67564 -10,2.67564c-11.04569,0 -20,-8.95431 -20,-20c0,-0.00098 0,-0.00196 0,-0.00294c2.94174,-1.7017 6.35712,-2.67563 10,-2.67563z" stroke-linecap="butt"/><path d="M285,497.17564c5.97801,3.45809 10,9.92153 10,17.32436c0,7.40282 -4.02199,13.86626 -10,17.32436c-5.97801,-3.45809 -10,-9.92153 -10,-17.32436c0,-7.40282 4.02199,-13.86626 10,-17.32436z" stroke-linecap="butt"/><path d="M255,494.5c11.04569,0 20,8.95431 20,20c0,0.00098 0,0.00195 0,0.00293c-2.94174,1.70171 -6.35711,2.67564 -10,2.67564c-11.04569,0 -20,-8.95431 -20,-20c0,-0.00098 0,-0.00196 0,-0.00294c2.94174,-1.7017 6.35712,-2.67563 10,-2.67563z" stroke-linecap="butt"/><path d="M275,479.85422c5.97801,3.45809 10,9.92153 10,17.32436c0,7.40282 -4.02199,13.86626 -10,17.32436c-5.97801,-3.45809 -10,-9.92153 -10,-17.32436c0,-7.40282 4.02199,-13.86626 10,-17.32436z" stroke-linecap="butt"/><path d="M305,497.17564c0,0.00098 0,0.00195 0,0.00293c0,11.04569 -8.95431,20 -20,20c-3.64287,0 -7.05827,-0.97394 -10,-2.67564c0,-0.00098 0,-0.00195 0,-0.00293c0,-11.04569 8.95431,-20 20,-20c3.64287,0 7.05827,0.97394 10,2.67564z" stroke-linecap="butt"/></g><rect x="-378" y="-524" transform="rotate(180)" width="34" height="19" stroke="#000000" stroke-width="0.5" stroke-linecap="butt" opacity="0"/><g stroke="#ffffff" stroke-width="0.5"><circle cx="-361" cy="-514.5" transform="rotate(180)" r="20" data-paper-data="{&quot;index&quot;:0}" stroke-linecap="round" opacity="0"/><circle cx="-341" cy="-514.5" transform="rotate(180)" r="20" data-paper-data="{&quot;index&quot;:1}" stroke-linecap="round" opacity="0"/><circle cx="-351" cy="-497.17857" transform="rotate(180)" r="20" data-paper-data="{&quot;index&quot;:2}" stroke-linecap="round" opacity="0"/><circle cx="-371" cy="-497.17857" transform="rotate(180)" r="20" data-paper-data="{&quot;index&quot;:3}" stroke-linecap="round" opacity="0"/><circle cx="-381" cy="-514.5" transform="rotate(180)" r="20" data-paper-data="{&quot;index&quot;:4}" stroke-linecap="round" opacity="0"/><path d="M341,514.5c0,-7.40282 4.02199,-13.86626 10,-17.32436c5.97801,3.45809 10,9.92153 10,17.32436c0,0.00098 0,0.00196 0,0.00294c-2.94174,1.7017 -6.35712,2.67563 -10,2.67563c-3.64287,0 -7.05827,-0.97394 -10,-2.67564c0,-0.00098 0,-0.00195 0,-0.00293z" stroke-linecap="butt"/><path d="M361,514.50293c-5.97801,-3.45809 -10,-9.92153 -10,-17.32436c0,-0.00098 0,-0.00195 0,-0.00293c2.94173,-1.7017 6.35713,-2.67564 10,-2.67564c3.64287,0 7.05827,0.97394 10,2.67564c0,0.00098 0,0.00195 0,0.00293c0,7.40282 -4.02199,13.86626 -10,17.32436z" stroke-linecap="butt"/><path d="M361,514.50293c0,-0.00098 0,-0.00195 0,-0.00293c0,-7.40282 4.02199,-13.86626 10,-17.32436c5.97801,3.45809 10,9.92153 10,17.32436c0,0.00098 0,0.00195 0,0.00293c-2.94173,1.7017 -6.35713,2.67564 -10,2.67564c-3.64287,0 -7.05827,-0.97394 -10,-2.67564z" stroke-linecap="butt"/></g><path d="M371,497.17564c0,0.00098 0,0.00195 0,0.00293c0,11.04569 -8.95431,20 -20,20c-3.64287,0 -7.05827,-0.97394 -10,-2.67564c0,-0.00098 0,-0.00195 0,-0.00293c0,-11.04569 8.95431,-20 20,-20c3.64287,0 7.05827,0.97394 10,2.67564z" stroke-width="1" stroke-linecap="butt"/><path d="M351,497.17857c0,-0.00098 0,-0.00195 0,-0.00293c2.94173,-1.7017 6.35713,-2.67564 10,-2.67564c11.04569,0 20,8.95431 20,20c0,0.00098 0,0.00196 0,0.00294c-2.94174,1.7017 -6.35712,2.67563 -10,2.67563c-11.04569,0 -20,-8.95431 -20,-20z" stroke-width="1" stroke-linecap="butt"/><path d="M361,514.5c0,-7.40282 4.02199,-13.86626 10,-17.32436c5.97801,3.45809 10,9.92153 10,17.32436c0,7.40282 -4.02199,13.86626 -10,17.32436c-5.97801,-3.45809 -10,-9.92153 -10,-17.32436z" stroke-width="1" stroke-linecap="butt"/><rect x="-464" y="-524" transform="rotate(180)" width="34" height="19" stroke="#000000" stroke-width="0.5" stroke-linecap="butt" opacity="0"/><g stroke="#ffffff" stroke-width="0.5"><circle cx="-447" cy="-514.5" transform="rotate(180)" r="20" data-paper-data="{&quot;index&quot;:0}" stroke-linecap="round" opacity="0"/><circle cx="-427" cy="-514.5" transform="rotate(180)" r="20" data-paper-data="{&quot;index&quot;:1}" stroke-linecap="round" opacity="0"/><circle cx="-437" cy="-497.17857" transform="rotate(180)" r="20" data-paper-data="{&quot;index&quot;:2}" stroke-linecap="round" opacity="0"/><circle cx="-457" cy="-497.17857" transform="rotate(180)" r="20" data-paper-data="{&quot;index&quot;:3}" stroke-linecap="round" opacity="0"/><circle cx="-467" cy="-514.5" transform="rotate(180)" r="20" data-paper-data="{&quot;index&quot;:4}" stroke-linecap="round" opacity="0"/><path d="M437,497.17565c5.97801,3.45809 10,9.92153 10,17.32435c0,0.00098 0,0.00195 0,0.00293c-5.978,-3.4581 -10,-9.92154 -10,-17.32436c0,-0.00098 0,-0.00195 0,-0.00292z" stroke-linecap="butt"/><path d="M457,497.17564c0,0.00098 0,0.00195 0,0.00293c0,7.40282 -4.02199,13.86626 -10,17.32436c0,-0.00098 0,-0.00195 0,-0.00293c0,-7.40282 4.02199,-13.86626 10,-17.32436z" stroke-linecap="butt"/></g><rect x="-120" y="-625" transform="rotate(180)" width="34" height="19" stroke="#000000" stroke-width="0.5" stroke-linecap="butt" opacity="0"/><g stroke="#ffffff" stroke-width="0.5" stroke-linecap="round"><circle cx="218.54938" cy="-584.53864" transform="rotate(150)" r="20" data-paper-data="{&quot;index&quot;:0}"/><circle cx="238.55018" cy="-584.53818" transform="rotate(150)" r="20" data-paper-data="{&quot;index&quot;:1}"/><circle cx="228.55018" cy="-567.21767" transform="matrix(-0.8660254037844379,0.5000000000000011,-0.5000000000000011,-0.8660254037844379,0,0)" r="20" data-paper-data="{&quot;index&quot;:2}"/><circle cx="208.54938" cy="-567.21813" transform="matrix(-0.8660254037844379,0.5000000000000011,-0.5000000000000011,-0.8660254037844379,0,0)" r="20" data-paper-data="{&quot;index&quot;:3}"/><circle cx="198.54859" cy="-584.5391" transform="rotate(150)" r="20" data-paper-data="{&quot;index&quot;:4}"/><circle cx="208.54859" cy="-601.8596" transform="rotate(150)" r="20" data-paper-data="{&quot;index&quot;:5}"/></g><rect x="-292" y="-625" transform="rotate(180)" width="34" height="19" stroke="#000000" stroke-width="0.5" stroke-linecap="butt" opacity="0"/><g stroke="#ffffff" stroke-width="0.5"><circle cx="69.59301" cy="-670.53864" transform="rotate(150)" r="20" data-paper-data="{&quot;index&quot;:0}" stroke-linecap="round" opacity="0"/><circle cx="89.59381" cy="-670.53818" transform="rotate(150)" r="20" data-paper-data="{&quot;index&quot;:1}" stroke-linecap="round" opacity="0"/><circle cx="79.59381" cy="-653.21767" transform="matrix(-0.8660254037844379,0.5000000000000011,-0.5000000000000011,-0.8660254037844379,0,0)" r="20" data-paper-data="{&quot;index&quot;:2}" stroke-linecap="round" opacity="0"/><circle cx="59.59301" cy="-653.21813" transform="matrix(-0.8660254037844379,0.5000000000000011,-0.5000000000000011,-0.8660254037844379,0,0)" r="20" data-paper-data="{&quot;index&quot;:3}" stroke-linecap="round" opacity="0"/><circle cx="49.59222" cy="-670.5391" transform="rotate(150)" r="20" data-paper-data="{&quot;index&quot;:4}" stroke-linecap="round" opacity="0"/><circle cx="59.59222" cy="-687.8596" transform="matrix(-0.8660254037844379,0.5000000000000011,-0.5000000000000011,-0.8660254037844379,0,0)" r="20" data-paper-data="{&quot;index&quot;:5}" stroke-linecap="round" opacity="0"/><path d="M257.67949,625.5c-3.70141,-6.41103 -3.44999,-14.01953 -0.00192,-20.00333c6.90584,0.00611 13.62026,3.59258 17.32151,10.00333c3.70141,6.41103 3.44999,14.01953 0.00192,20.00333c-6.90584,-0.00611 -13.62026,-3.59258 -17.32151,-10.00333z" stroke-linecap="butt"/><path d="M265,598.17949c3.15453,-1.82127 6.59899,-2.68552 9.99715,-2.68283c0.00064,0.00111 0.00128,0.00222 0.00192,0.00333c5.52285,9.56585 2.24534,21.79766 -7.32051,27.32051c-3.15456,1.82128 -6.59904,2.68553 -9.99723,2.68283c-0.00064,-0.00111 -0.00121,-0.00222 -0.00185,-0.00333c-5.52285,-9.56585 -2.24534,-21.79766 7.32051,-27.32051z" stroke-linecap="butt"/><path d="M265,598.17949c9.56585,-5.52285 21.79766,-2.24534 27.32051,7.32051c0.00064,0.00111 0.00128,0.00222 0.00192,0.00333c-1.69677,2.9446 -4.1676,5.49573 -7.32243,7.31718c-9.56585,5.52285 -21.79766,2.24534 -27.32051,-7.32051c-0.00064,-0.00112 -0.00129,-0.00223 -0.00193,-0.00335c1.69677,-2.94459 4.16762,-5.49572 7.32244,-7.31716z" stroke-linecap="butt"/><path d="M274.999,595.49667c6.90584,0.00611 13.62026,3.59258 17.32151,10.00333c3.70141,6.41103 3.44999,14.01953 0.00192,20.00333c-6.90584,-0.00611 -13.62026,-3.59258 -17.32151,-10.00333c-3.70141,-6.41103 -3.44999,-14.01953 -0.00192,-20.00333z" stroke-linecap="butt"/><path d="M292.31858,605.49667c0.00064,0.00111 0.00128,0.00222 0.00192,0.00333c5.52285,9.56585 2.24534,21.79766 -7.32051,27.32051c-3.15453,1.82127 -6.59899,2.68552 -9.99715,2.68283c-0.00064,-0.00111 -0.00128,-0.00222 -0.00192,-0.00333c-5.52285,-9.56585 -2.24534,-21.79766 7.32051,-27.32051c3.15453,-1.82127 6.59899,-2.68552 9.99715,-2.68283z" stroke-linecap="butt"/><path d="M247.67857,608.17949c9.56585,-5.52285 21.79766,-2.24534 27.32051,7.32051c0.00064,0.00111 0.00128,0.00222 0.00192,0.00333c-1.69677,2.94458 -4.16761,5.49574 -7.32243,7.31718c-9.56585,5.52285 -21.79766,2.24534 -27.32051,-7.32051c-0.00064,-0.00112 -0.00129,-0.00223 -0.00193,-0.00335c1.69677,-2.94459 4.16762,-5.49572 7.32244,-7.31716z" stroke-linecap="butt"/><path d="M257.67757,585.49667c6.90584,0.00611 13.62026,3.59258 17.32151,10.00333c3.70141,6.41103 3.44999,14.01953 0.00192,20.00333c-6.90584,-0.00611 -13.62026,-3.59258 -17.32151,-10.00333c-3.70141,-6.41103 -3.44999,-14.01953 -0.00192,-20.00333z" stroke-linecap="butt"/><path d="M292.31858,585.49667c0.00064,0.00111 0.00128,0.00222 0.00192,0.00333c5.52285,9.56585 2.24534,21.79766 -7.32051,27.32051c-3.15453,1.82127 -6.59899,2.68552 -9.99715,2.68283c-0.00064,-0.00111 -0.00128,-0.00222 -0.00192,-0.00333c-5.52285,-9.56585 -2.24534,-21.79766 7.32051,-27.32051c3.15453,-1.82127 6.59899,-2.68552 9.99715,-2.68283z" stroke-linecap="butt"/><path d="M275.00092,615.5c-0.00064,-0.00111 -0.00128,-0.00222 -0.00192,-0.00333c1.69677,-2.94458 4.16761,-5.49574 7.32243,-7.31718c9.56585,-5.52285 21.79766,-2.24534 27.32051,7.32051c0.00064,0.00112 0.00129,0.00223 0.00193,0.00335c-1.69677,2.94459 -4.16762,5.49572 -7.32244,7.31716c-9.56585,5.52285 -21.79766,2.24534 -27.32051,-7.32051z" stroke-linecap="butt"/></g><rect x="-378" y="-625" transform="rotate(180)" width="34" height="19" stroke="#000000" stroke-width="0.5" stroke-linecap="butt" opacity="0"/><g stroke="#ffffff" stroke-width="0.5"><circle cx="-4.88517" cy="-713.53864" transform="rotate(150)" r="20" data-paper-data="{&quot;index&quot;:0}" stroke-linecap="round" opacity="0"/><circle cx="15.11563" cy="-713.53818" transform="rotate(150)" r="20" data-paper-data="{&quot;index&quot;:1}" stroke-linecap="round" opacity="0"/><circle cx="5.11563" cy="-696.21767" transform="matrix(-0.8660254037844379,0.5000000000000011,-0.5000000000000011,-0.8660254037844379,0,0)" r="20" data-paper-data="{&quot;index&quot;:2}" stroke-linecap="round" opacity="0"/><circle cx="-14.88517" cy="-696.21813" transform="matrix(-0.8660254037844379,0.5000000000000011,-0.5000000000000011,-0.8660254037844379,0,0)" r="20" data-paper-data="{&quot;index&quot;:3}" stroke-linecap="round" opacity="0"/><circle cx="-24.88597" cy="-713.5391" transform="rotate(150)" r="20" data-paper-data="{&quot;index&quot;:4}" stroke-linecap="round" opacity="0"/><circle cx="-14.88597" cy="-730.8596" transform="matrix(-0.8660254037844379,0.5000000000000011,-0.5000000000000011,-0.8660254037844379,0,0)" r="20" data-paper-data="{&quot;index&quot;:5}" stroke-linecap="round" opacity="0"/><path d="M343.67949,625.5c-3.70141,-6.41103 -3.44999,-14.01953 -0.00192,-20.00333c6.90584,0.00611 13.62026,3.59258 17.32151,10.00333c0.00064,0.00112 0.00129,0.00223 0.00193,0.00335c-1.69677,2.94459 -4.16762,5.49572 -7.32244,7.31716c-3.15453,1.82127 -6.59899,2.68552 -9.99715,2.68283c-0.00064,-0.00111 -0.00128,-0.00222 -0.00192,-0.00333z" stroke-linecap="butt"/><path d="M361.001,615.50333c-6.90584,-0.00611 -13.62026,-3.59258 -17.32151,-10.00333c-0.00064,-0.00111 -0.00128,-0.00222 -0.00192,-0.00333c1.69677,-2.94458 4.16761,-5.49574 7.32243,-7.31718c3.15453,-1.82127 6.59899,-2.68552 9.99715,-2.68283c0.00064,0.00111 0.00128,0.00222 0.00192,0.00333c3.70141,6.41103 3.44999,14.01953 0.00192,20.00333z" stroke-linecap="butt"/><path d="M361.00285,615.50333c-0.00064,-0.00111 -0.00128,-0.00222 -0.00192,-0.00333c-3.70141,-6.41103 -3.44999,-14.01953 -0.00192,-20.00333c6.90584,0.00611 13.62026,3.59258 17.32151,10.00333c0.00064,0.00111 0.00128,0.00222 0.00192,0.00333c-1.69677,2.94458 -4.16761,5.49574 -7.32243,7.31718c-3.15453,1.82127 -6.59899,2.68552 -9.99715,2.68283z" stroke-linecap="butt"/><path d="M360.99899,615.49668c1.69677,-2.94459 4.16761,-5.49575 7.32244,-7.31718c3.15453,-1.82127 6.59899,-2.68552 9.99715,-2.68283c0.00064,0.00111 0.00128,0.00222 0.00192,0.00333c3.70141,6.41103 3.44999,14.01953 0.00192,20.00333c-6.90584,-0.00611 -13.62026,-3.59258 -17.32151,-10.00333c-0.00064,-0.00112 -0.00129,-0.00221 -0.00193,-0.00332z" stroke-linecap="butt"/></g><path d="M360.99715,595.49667c0.00064,0.00111 0.00128,0.00222 0.00192,0.00333c5.52285,9.56585 2.24534,21.79766 -7.32051,27.32051c-3.15453,1.82127 -6.59899,2.68552 -9.99715,2.68283c-0.00064,-0.00111 -0.00128,-0.00222 -0.00192,-0.00333c-5.52285,-9.56585 -2.24534,-21.79766 7.32051,-27.32051c3.15453,-1.82127 6.59899,-2.68552 9.99715,-2.68283z" stroke-width="1" stroke-linecap="butt"/><path d="M343.67949,605.5c-0.00064,-0.00111 -0.00128,-0.00222 -0.00192,-0.00333c1.69677,-2.94458 4.16761,-5.49574 7.32243,-7.31718c9.56585,-5.52285 21.79766,-2.24534 27.32051,7.32051c0.00064,0.00112 0.00129,0.00223 0.00193,0.00335c-1.69677,2.94459 -4.16762,5.49572 -7.32244,7.31716c-9.56585,5.52285 -21.79766,2.24534 -27.32051,-7.32051z" stroke-width="1" stroke-linecap="butt"/><path d="M361.00092,615.5c-3.70141,-6.41103 -3.44999,-14.01953 -0.00192,-20.00333c6.90584,0.00611 13.62026,3.59258 17.32151,10.00333c3.70141,6.41103 3.44999,14.01953 0.00192,20.00333c-6.90584,-0.00611 -13.62026,-3.59258 -17.32151,-10.00333z" stroke-width="1" stroke-linecap="butt"/><path d="M368.32143,608.17949c3.15453,-1.82127 6.59899,-2.68552 9.99715,-2.68283c0.00064,0.00111 0.00128,0.00222 0.00192,0.00333c5.52285,9.56585 2.24534,21.79766 -7.32051,27.32051c-3.15453,1.82127 -6.59899,2.68552 -9.99715,2.68283c-0.00064,-0.00111 -0.00128,-0.00222 -0.00192,-0.00333c-5.52285,-9.56585 -2.24534,-21.79766 7.32051,-27.32051z" stroke-width="1" stroke-linecap="butt"/><rect x="-464" y="-625" transform="rotate(180)" width="34" height="19" stroke="#000000" stroke-width="0.5" stroke-linecap="butt" opacity="0"/><g stroke="#ffffff" stroke-width="0.5"><circle cx="-79.36336" cy="-756.53864" transform="rotate(150)" r="20" data-paper-data="{&quot;index&quot;:0}" stroke-linecap="round" opacity="0"/><circle cx="-59.36256" cy="-756.53818" transform="rotate(150)" r="20" data-paper-data="{&quot;index&quot;:1}" stroke-linecap="round" opacity="0"/><circle cx="-69.36256" cy="-739.21767" transform="rotate(150)" r="20" data-paper-data="{&quot;index&quot;:2}" stroke-linecap="round" opacity="0"/><circle cx="-89.36336" cy="-739.21813" transform="matrix(-0.8660254037844379,0.5000000000000011,-0.5000000000000011,-0.8660254037844379,0,0)" r="20" data-paper-data="{&quot;index&quot;:3}" stroke-linecap="round" opacity="0"/><circle cx="-99.36415" cy="-756.5391" transform="rotate(150)" r="20" data-paper-data="{&quot;index&quot;:4}" stroke-linecap="round" opacity="0"/><circle cx="-89.36415" cy="-773.8596" transform="matrix(-0.8660254037844379,0.5000000000000011,-0.5000000000000011,-0.8660254037844379,0,0)" r="20" data-paper-data="{&quot;index&quot;:5}" stroke-linecap="round" opacity="0"/><path d="M429.67757,605.49667c6.90583,0.00611 13.62026,3.59259 17.32151,10.00333c0.00064,0.00111 0.00128,0.00222 0.00192,0.00333c-6.90583,-0.00612 -13.62027,-3.59259 -17.32151,-10.00333c-0.00064,-0.00111 -0.00128,-0.00222 -0.00192,-0.00333z" stroke-linecap="butt"/><path d="M446.99808,615.49826c0.00033,0.00058 0.00067,0.00116 0.001,0.00174c3.70108,6.41046 3.45003,14.01818 0.00284,20.00174c-0.00033,-0.00058 -0.00067,-0.00116 -0.001,-0.00174c-3.70108,-6.41046 -3.45003,-14.01818 -0.00284,-20.00174z" stroke-linecap="butt"/><path d="M446.99808,595.49826c0.00033,0.00058 0.00067,0.00116 0.001,0.00174c3.70108,6.41046 3.45003,14.01818 0.00284,20.00174c-0.00033,-0.00058 -0.00067,-0.00116 -0.001,-0.00174c-3.70108,-6.41046 -3.45003,-14.01818 -0.00284,-20.00174z" stroke-linecap="butt"/><path d="M457,612.82051c-3.15691,1.82264 -6.60418,2.68682 -10.00484,2.68282c1.69688,-2.9474 4.16907,-5.50103 7.32627,-7.32383c3.15691,-1.82264 6.60418,-2.68682 10.00484,-2.68282c-1.69688,2.9474 -4.16907,5.50103 -7.32627,7.32383z" stroke-linecap="butt"/></g><rect x="-120" y="-726" transform="rotate(180)" width="34" height="19" stroke="#000000" stroke-width="0.5" stroke-linecap="butt" opacity="0"/><g stroke="#ffffff" stroke-width="0.5" stroke-linecap="round"><circle cx="-103" cy="-716.5" transform="rotate(180)" r="20" data-paper-data="{&quot;index&quot;:0}"/><circle cx="-83" cy="-716.5" transform="rotate(180)" r="20" data-paper-data="{&quot;index&quot;:1}"/><circle cx="-93" cy="-699.17857" transform="rotate(180)" r="20" data-paper-data="{&quot;index&quot;:2}"/><circle cx="-113" cy="-699.17857" transform="rotate(180)" r="20" data-paper-data="{&quot;index&quot;:3}"/><circle cx="-123" cy="-716.5" transform="rotate(180)" r="20" data-paper-data="{&quot;index&quot;:4}"/><circle cx="-113" cy="-733.82143" transform="rotate(180)" r="20" data-paper-data="{&quot;index&quot;:5}"/><circle cx="-93" cy="-733.82143" transform="rotate(180)" r="20" data-paper-data="{&quot;index&quot;:6}"/></g><rect x="-292" y="-726" transform="rotate(180)" width="34" height="19" stroke="#000000" stroke-width="0.5" stroke-linecap="butt" opacity="0"/><g stroke="#ffffff" stroke-width="0.5"><circle cx="-275" cy="-716.5" transform="rotate(180)" r="20" data-paper-data="{&quot;index&quot;:0}" stroke-linecap="round" opacity="0"/><circle cx="-255" cy="-716.5" transform="rotate(180)" r="20" data-paper-data="{&quot;index&quot;:1}" stroke-linecap="round" opacity="0"/><circle cx="-265" cy="-699.17857" transform="rotate(180)" r="20" data-paper-data="{&quot;index&quot;:2}" stroke-linecap="round" opacity="0"/><circle cx="-285" cy="-699.17857" transform="rotate(180)" r="20" data-paper-data="{&quot;index&quot;:3}" stroke-linecap="round" opacity="0"/><circle cx="-295" cy="-716.5" transform="rotate(180)" r="20" data-paper-data="{&quot;index&quot;:4}" stroke-linecap="round" opacity="0"/><circle cx="-285" cy="-733.82143" transform="rotate(180)" r="20" data-paper-data="{&quot;index&quot;:5}" stroke-linecap="round" opacity="0"/><circle cx="-265" cy="-733.82143" transform="rotate(180)" r="20" data-paper-data="{&quot;index&quot;:6}" stroke-linecap="round" opacity="0"/><path d="M255,716.5c0,-7.40282 4.02199,-13.86626 10,-17.32436c5.97801,3.45809 10,9.92153 10,17.32436c0,7.40282 -4.02199,13.86626 -10,17.32436c-5.97801,-3.45809 -10,-9.92153 -10,-17.32436z" stroke-linecap="butt"/><path d="M275,696.5c3.64287,0 7.05827,0.97394 10,2.67564c0,0.00098 0,0.00195 0,0.00293c0,11.04569 -8.95431,20 -20,20c-3.6429,0 -7.05832,-0.97396 -10.00007,-2.67568c0,-0.00098 0.00007,-0.00191 0.00007,-0.00289c0,-11.04569 8.95431,-20 20,-20z" stroke-linecap="butt"/><path d="M275,696.5c11.04569,0 20,8.95431 20,20c0,0.00098 0,0.00195 0,0.00293c-2.94174,1.70171 -6.35711,2.67564 -10,2.67564c-11.04569,0 -20,-8.95431 -20,-20c0,-0.00098 0,-0.00196 0,-0.00294c2.94174,-1.7017 6.35712,-2.67563 10,-2.67563z" stroke-linecap="butt"/><path d="M285,699.17564c5.97801,3.45809 10,9.92153 10,17.32436c0,7.40282 -4.02199,13.86626 -10,17.32436c-5.97801,-3.45809 -10,-9.92153 -10,-17.32436c0,-7.40282 4.02199,-13.86626 10,-17.32436z" stroke-linecap="butt"/><path d="M295,716.49707c0,0.00098 0,0.00195 0,0.00293c0,11.04569 -8.95431,20 -20,20c-3.64287,0 -7.05827,-0.97394 -10,-2.67564c0,-0.00098 0,-0.00195 0,-0.00293c0,-11.04569 8.95431,-20 20,-20c3.64287,0 7.05827,0.97394 10,2.67564z" stroke-linecap="butt"/><path d="M255,716.5c0,-0.00098 0,-0.00195 0,-0.00293c2.94173,-1.7017 6.35713,-2.67564 10,-2.67564c11.04569,0 20,8.95431 20,20c0,0.00098 0,0.00196 0,0.00294c-2.94174,1.7017 -6.35712,2.67563 -10,2.67563c-11.04569,0 -20,-8.95431 -20,-20z" stroke-linecap="butt"/><path d="M255,696.5c11.04569,0 20,8.95431 20,20c0,0.00098 0,0.00195 0,0.00293c-2.94174,1.70171 -6.35711,2.67564 -10,2.67564c-11.04569,0 -20,-8.95431 -20,-20c0,-0.00098 0,-0.00196 0,-0.00294c2.94174,-1.7017 6.35712,-2.67563 10,-2.67563z" stroke-linecap="butt"/><path d="M275,716.49707c0,0.00098 0,0.00195 0,0.00293c0,11.04569 -8.95431,20 -20,20c-3.64287,0 -7.05827,-0.97394 -10,-2.67564c0,-0.00098 0,-0.00195 0,-0.00293c0,-11.04569 8.95431,-20 20,-20c3.64287,0 7.05827,0.97394 10,2.67564z" stroke-linecap="butt"/><path d="M275,681.85422c5.97801,3.45809 10,9.92153 10,17.32436c0,7.40282 -4.02199,13.86626 -10,17.32436c-5.97801,-3.45809 -10,-9.92153 -10,-17.32436c0,-7.40282 4.02199,-13.86626 10,-17.32436z" stroke-linecap="butt"/><path d="M305,699.17564c0,0.00098 0,0.00195 0,0.00293c0,11.04569 -8.95431,20 -20,20c-3.64287,0 -7.05827,-0.97394 -10,-2.67564c0,-0.00098 0,-0.00195 0,-0.00293c0,-11.04569 8.95431,-20 20,-20c3.64287,0 7.05827,0.97394 10,2.67564z" stroke-linecap="butt"/><path d="M275,716.5c0,-0.00098 0,-0.00195 0,-0.00293c2.94173,-1.7017 6.35713,-2.67564 10,-2.67564c11.04569,0 20,8.95431 20,20c0,0.00098 0,0.00196 0,0.00294c-2.94174,1.7017 -6.35712,2.67563 -10,2.67563c-11.04569,0 -20,-8.95431 -20,-20z" stroke-linecap="butt"/><path d="M265,733.82143c0,-7.40282 4.02199,-13.86626 10,-17.32436c5.97801,3.45809 10,9.92153 10,17.32436c0,7.40282 -4.02199,13.86626 -10,17.32436c-5.97801,-3.45809 -10,-9.92153 -10,-17.32436z" stroke-linecap="butt"/></g><rect x="-378" y="-726" transform="rotate(180)" width="34" height="19" stroke="#000000" stroke-width="0.5" stroke-linecap="butt" opacity="0"/><g stroke="#ffffff" stroke-width="0.5"><circle cx="-361" cy="-716.5" transform="rotate(180)" r="20" data-paper-data="{&quot;index&quot;:0}" stroke-linecap="round" opacity="0"/><circle cx="-341" cy="-716.5" transform="rotate(180)" r="20" data-paper-data="{&quot;index&quot;:1}" stroke-linecap="round" opacity="0"/><circle cx="-351" cy="-699.17857" transform="rotate(180)" r="20" data-paper-data="{&quot;index&quot;:2}" stroke-linecap="round" opacity="0"/><circle cx="-371" cy="-699.17857" transform="rotate(180)" r="20" data-paper-data="{&quot;index&quot;:3}" stroke-linecap="round" opacity="0"/><circle cx="-381" cy="-716.5" transform="rotate(180)" r="20" data-paper-data="{&quot;index&quot;:4}" stroke-linecap="round" opacity="0"/><circle cx="-371" cy="-733.82143" transform="rotate(180)" r="20" data-paper-data="{&quot;index&quot;:5}" stroke-linecap="round" opacity="0"/><circle cx="-351" cy="-733.82143" transform="rotate(180)" r="20" data-paper-data="{&quot;index&quot;:6}" stroke-linecap="round" opacity="0"/><path d="M341,716.5c0,-7.40282 4.02199,-13.86626 10,-17.32436c5.97801,3.45809 10,9.92153 10,17.32436c0,0.00098 0,0.00196 0,0.00294c-2.94174,1.7017 -6.35712,2.67563 -10,2.67563c-3.64287,0 -7.05827,-0.97394 -10,-2.67564c0,-0.00098 0,-0.00195 0,-0.00293z" stroke-linecap="butt"/><path d="M341,716.49706c2.94174,-1.7017 6.35712,-2.67563 10,-2.67563c3.64287,0 7.05827,0.97394 10,2.67564c0,0.00098 0,0.00195 0,0.00293c0,7.40282 -4.02199,13.86626 -10,17.32436c-5.97801,-3.45809 -10,-9.92153 -10,-17.32436c0,-0.00098 0,-0.00196 0,-0.00294z" stroke-linecap="butt"/><path d="M361,716.50293c-5.97801,-3.45809 -10,-9.92153 -10,-17.32436c0,-0.00098 0,-0.00195 0,-0.00293c2.94173,-1.7017 6.35713,-2.67564 10,-2.67564c3.64287,0 7.05827,0.97394 10,2.67564c0,0.00098 0,0.00195 0,0.00293c0,7.40282 -4.02199,13.86626 -10,17.32436z" stroke-linecap="butt"/><path d="M361,716.50293c0,-0.00098 0,-0.00195 0,-0.00293c0,-7.40282 4.02199,-13.86626 10,-17.32436c5.97801,3.45809 10,9.92153 10,17.32436c0,0.00098 0,0.00195 0,0.00293c-2.94173,1.7017 -6.35713,2.67564 -10,2.67564c-3.64287,0 -7.05827,-0.97394 -10,-2.67564z" stroke-linecap="butt"/><path d="M360.99999,716.49708c2.94174,-1.7017 6.35713,-2.67565 10.00001,-2.67565c3.64287,0 7.05827,0.97394 10,2.67564c0,0.00098 0,0.00195 0,0.00293c0,7.40282 -4.02199,13.86626 -10,17.32436c-5.97801,-3.45809 -10,-9.92153 -10,-17.32436c0,-0.00098 -0.00001,-0.00194 -0.00001,-0.00292z" stroke-linecap="butt"/><path d="M361,736.5c-3.64287,0 -7.05827,-0.97394 -10,-2.67564c0,-0.00098 0,-0.00195 0,-0.00293c0,-7.40282 4.02199,-13.86626 10,-17.32436c5.97801,3.45809 10,9.92153 10,17.32436c0,0.00098 0,0.00195 0,0.00293c-2.94173,1.7017 -6.35713,2.67564 -10,2.67564z" stroke-linecap="butt"/></g><path d="M371,699.17564c0,0.00098 0,0.00195 0,0.00293c0,11.04569 -8.95431,20 -20,20c-3.64287,0 -7.05827,-0.97394 -10,-2.67564c0,-0.00098 0,-0.00195 0,-0.00293c0,-11.04569 8.95431,-20 20,-20c3.64287,0 7.05827,0.97394 10,2.67564z" stroke-width="1" stroke-linecap="butt"/><path d="M351,713.82143c11.04569,0 20,8.95431 20,20c0,0.00098 0,0.00195 0,0.00293c-2.94173,1.7017 -6.35713,2.67564 -10,2.67564c-11.04569,0 -20,-8.95431 -20,-20c0,-0.00098 0,-0.00196 0,-0.00294c2.94174,-1.7017 6.35712,-2.67563 10,-2.67563z" stroke-width="1" stroke-linecap="butt"/><path d="M351,699.17857c0,-0.00098 0,-0.00195 0,-0.00293c2.94173,-1.7017 6.35713,-2.67564 10,-2.67564c11.04569,0 20,8.95431 20,20c0,0.00098 0,0.00196 0,0.00294c-2.94174,1.7017 -6.35712,2.67563 -10,2.67563c-11.04569,0 -20,-8.95431 -20,-20z" stroke-width="1" stroke-linecap="butt"/><path d="M361,716.5c0,-7.40282 4.02199,-13.86626 10,-17.32436c5.97801,3.45809 10,9.92153 10,17.32436c0,7.40282 -4.02199,13.86626 -10,17.32436c-5.97801,-3.45809 -10,-9.92153 -10,-17.32436z" stroke-width="1" stroke-linecap="butt"/><path d="M371,713.82143c3.64287,0 7.05827,0.97394 10,2.67564c0,0.00098 0,0.00195 0,0.00293c0,11.04569 -8.95431,20 -20,20c-3.64287,0 -7.05827,-0.97394 -10,-2.67564c0,-0.00098 0,-0.00195 0,-0.00293c0,-11.04569 8.95431,-20 20,-20z" stroke-width="1" stroke-linecap="butt"/><path d="M351,713.82143c11.04569,0 20,8.95431 20,20c0,0.00098 0,0.00195 0,0.00293c-2.94173,1.7017 -6.35713,2.67564 -10,2.67564c-11.04569,0 -20,-8.95431 -20,-20c0,-0.00098 0,-0.00196 0,-0.00294c2.94174,-1.7017 6.35712,-2.67563 10,-2.67563z" stroke-width="1" stroke-linecap="butt"/><rect x="-464" y="-726" transform="rotate(180)" width="34" height="19" stroke="#000000" stroke-width="0.5" stroke-linecap="butt" opacity="0"/><g stroke="#ffffff" stroke-width="0.5"><circle cx="-447" cy="-716.5" transform="rotate(180)" r="20" data-paper-data="{&quot;index&quot;:0}" stroke-linecap="round" opacity="0"/><circle cx="-427" cy="-716.5" transform="rotate(180)" r="20" data-paper-data="{&quot;index&quot;:1}" stroke-linecap="round" opacity="0"/><circle cx="-437" cy="-699.17857" transform="rotate(180)" r="20" data-paper-data="{&quot;index&quot;:2}" stroke-linecap="round" opacity="0"/><circle cx="-457" cy="-699.17857" transform="rotate(180)" r="20" data-paper-data="{&quot;index&quot;:3}" stroke-linecap="round" opacity="0"/><circle cx="-467" cy="-716.5" transform="rotate(180)" r="20" data-paper-data="{&quot;index&quot;:4}" stroke-linecap="round" opacity="0"/><circle cx="-457" cy="-733.82143" transform="rotate(180)" r="20" data-paper-data="{&quot;index&quot;:5}" stroke-linecap="round" opacity="0"/><circle cx="-437" cy="-733.82143" transform="rotate(180)" r="20" data-paper-data="{&quot;index&quot;:6}" stroke-linecap="round" opacity="0"/><path d="M437,699.17565c5.97801,3.45809 10,9.92153 10,17.32435c0,0.00098 0,0.00195 0,0.00293c-5.978,-3.4581 -10,-9.92154 -10,-17.32436c0,-0.00098 0,-0.00195 0,-0.00292z" stroke-linecap="butt"/><path d="M447,716.49707c0,0.00098 0,0.00195 0,0.00293c0,7.40282 -4.02199,13.86626 -10,17.32436c0,-0.00098 0,-0.00195 0,-0.00293c0,-7.40282 4.02199,-13.86626 10,-17.32436z" stroke-linecap="butt"/><path d="M457,699.17564c0,0.00098 0,0.00195 0,0.00293c0,7.40282 -4.02199,13.86626 -10,17.32436c0,-0.00098 0,-0.00195 0,-0.00293c0,-7.40282 4.02199,-13.86626 10,-17.32436z" stroke-linecap="butt"/><path d="M437,719.17857c-3.64496,0 -7.06218,-0.97506 -10.00506,-2.67857c2.94288,-1.70351 6.3601,-2.67857 10.00506,-2.67857c3.64496,0 7.06218,0.97506 10.00506,2.67857c-2.94288,1.70351 -6.3601,2.67857 -10.00506,2.67857z" stroke-linecap="butt"/><path d="M457,719.17857c-3.64496,0 -7.06218,-0.97506 -10.00506,-2.67857c2.94288,-1.70351 6.3601,-2.67857 10.00506,-2.67857c3.64496,0 7.06218,0.97506 10.00506,2.67857c-2.94288,1.70351 -6.3601,2.67857 -10.00506,2.67857z" stroke-linecap="butt"/><path d="M447,716.5c0,-0.00098 0,-0.00195 0,-0.00293c5.978,3.4581 10,9.92154 10,17.32436c0,0.00098 0,0.00195 0,0.00293c-5.97801,-3.45809 -10,-9.92154 -10,-17.32436z" stroke-linecap="butt"/></g><rect x="570" y="25" width="510" height="800" fill="#000000" stroke-width="1" stroke-linecap="butt"/><g stroke-width="1" stroke-linecap="butt"/><rect x="-670" y="-120" transform="rotate(180)" width="34" height="19" stroke="#000000" stroke-width="0.5" stroke-linecap="butt" opacity="0"/><g stroke="#ffffff" stroke-width="0.5" stroke-linecap="round"><circle cx="-653" cy="-110.5" transform="rotate(180)" r="20" data-paper-data="{&quot;index&quot;:0}" opacity="0"/></g><rect x="-756" y="-120" transform="rotate(180)" width="34" height="19" stroke="#000000" stroke-width="0.5" stroke-linecap="butt" opacity="0"/><g stroke="#ffffff" stroke-width="0.5" stroke-linecap="round"><circle cx="-739" cy="-110.5" transform="rotate(180)" r="20" data-paper-data="{&quot;index&quot;:0}" opacity="0"/></g><rect x="-842" y="-120" transform="rotate(180)" width="34" height="19" stroke="#000000" stroke-width="0.5" stroke-linecap="butt" opacity="0"/><g stroke="#ffffff" stroke-width="0.5" stroke-linecap="round"><circle cx="-825" cy="-110.5" transform="rotate(180)" r="20" data-paper-data="{&quot;index&quot;:0}" opacity="0"/></g><rect x="-1014" y="-120" transform="rotate(180)" width="34" height="19" stroke="#000000" stroke-width="0.5" stroke-linecap="butt" opacity="0"/><g stroke="#ffffff" stroke-width="0.5" stroke-linecap="round"><circle cx="-997" cy="-110.5" transform="rotate(180)" r="20" data-paper-data="{&quot;index&quot;:0}"/></g><rect x="-670" y="-221" transform="rotate(180)" width="34" height="19" stroke="#000000" stroke-width="0.5" stroke-linecap="butt" opacity="0"/><g stroke="#ffffff" stroke-width="0.5" stroke-linecap="round"><circle cx="-211.5" cy="653" transform="rotate(-90)" r="20" data-paper-data="{&quot;index&quot;:0}" opacity="0"/><circle cx="-191.5" cy="653" transform="rotate(-90)" r="20" data-paper-data="{&quot;index&quot;:1}" opacity="0"/></g><rect x="-756" y="-221" transform="rotate(180)" width="34" height="19" stroke="#000000" stroke-width="0.5" stroke-linecap="butt" opacity="0"/><g stroke="#ffffff" stroke-width="0.5" stroke-linecap="round"><circle cx="-211.5" cy="739" transform="rotate(-90)" r="20" data-paper-data="{&quot;index&quot;:0}" opacity="0"/><circle cx="-191.5" cy="739" transform="rotate(-90)" r="20" data-paper-data="{&quot;index&quot;:1}" opacity="0"/></g><rect x="-842" y="-221" transform="rotate(180)" width="34" height="19" stroke="#000000" stroke-width="0.5" stroke-linecap="butt" opacity="0"/><g stroke="#ffffff" stroke-width="0.5" stroke-linecap="round"><circle cx="-211.5" cy="825" transform="rotate(-90)" r="20" data-paper-data="{&quot;index&quot;:0}" opacity="0"/><circle cx="-191.5" cy="825" transform="rotate(-90)" r="20" data-paper-data="{&quot;index&quot;:1}" opacity="0"/><circle cx="825" cy="201.5" r="10"/><circle cx="825" cy="201.5" r="17.32143"/></g><rect x="-1014" y="-221" transform="rotate(180)" width="34" height="19" stroke="#000000" stroke-width="0.5" stroke-linecap="butt" opacity="0"/><g stroke="#ffffff" stroke-width="0.5" stroke-linecap="round"><circle cx="-211.5" cy="997" transform="rotate(-90)" r="20" data-paper-data="{&quot;index&quot;:0}"/><circle cx="-191.5" cy="997" transform="rotate(-90)" r="20" data-paper-data="{&quot;index&quot;:1}"/></g><rect x="-670" y="-322" transform="rotate(180)" width="34" height="19" stroke="#000000" stroke-width="0.5" stroke-linecap="butt" opacity="0"/><g stroke="#ffffff" stroke-width="0.5" stroke-linecap="round"><circle cx="-597.13294" cy="409.26459" transform="rotate(-120)" r="20" data-paper-data="{&quot;index&quot;:0}" opacity="0"/><circle cx="-577.13214" cy="409.26505" transform="rotate(-120)" r="20" data-paper-data="{&quot;index&quot;:1}" opacity="0"/><circle cx="-587.13214" cy="426.58556" transform="rotate(-120)" r="20" data-paper-data="{&quot;index&quot;:2}" opacity="0"/></g><rect x="-756" y="-322" transform="rotate(180)" width="34" height="19" stroke="#000000" stroke-width="0.5" stroke-linecap="butt" opacity="0"/><g stroke="#ffffff" stroke-width="0.5" stroke-linecap="round"><circle cx="-640.13294" cy="483.74277" transform="rotate(-120)" r="20" data-paper-data="{&quot;index&quot;:0}" opacity="0"/><circle cx="-620.13214" cy="483.74323" transform="rotate(-120)" r="20" data-paper-data="{&quot;index&quot;:1}" opacity="0"/><circle cx="-630.13214" cy="501.06374" transform="rotate(-120)" r="20" data-paper-data="{&quot;index&quot;:2}" opacity="0"/><circle cx="739" cy="300.95238" r="8.45238"/><circle cx="739" cy="300.95238" r="11.54762"/></g><rect x="-842" y="-322" transform="rotate(180)" width="34" height="19" stroke="#000000" stroke-width="0.5" stroke-linecap="butt" opacity="0"/><g stroke="#ffffff" stroke-width="0.5" stroke-linecap="round"><circle cx="-683.13294" cy="558.22096" transform="rotate(-120)" r="20" data-paper-data="{&quot;index&quot;:0}" opacity="0"/><circle cx="-663.13214" cy="558.22142" transform="rotate(-120)" r="20" data-paper-data="{&quot;index&quot;:1}" opacity="0"/><circle cx="-673.13214" cy="575.54193" transform="rotate(-120)" r="20" data-paper-data="{&quot;index&quot;:2}" opacity="0"/><circle cx="820" cy="303.83929" r="10"/><circle cx="830" cy="303.83929" r="10"/><circle cx="825" cy="295.17857" r="10"/><circle cx="820" cy="303.83929" r="17.32143"/><circle cx="830" cy="303.83929" r="17.32143"/><circle cx="825" cy="295.17857" r="17.32143"/></g><rect x="-1014" y="-322" transform="rotate(180)" width="34" height="19" stroke="#000000" stroke-width="0.5" stroke-linecap="butt" opacity="0"/><g stroke="#ffffff" stroke-width="0.5" stroke-linecap="round"><circle cx="-769.13294" cy="707.17733" transform="rotate(-120)" r="20" data-paper-data="{&quot;index&quot;:0}"/><circle cx="-749.13214" cy="707.17779" transform="rotate(-120)" r="20" data-paper-data="{&quot;index&quot;:1}"/><circle cx="-759.13214" cy="724.4983" transform="rotate(-120)" r="20" data-paper-data="{&quot;index&quot;:2}"/></g><rect x="-670" y="-423" transform="rotate(180)" width="34" height="19" stroke="#000000" stroke-width="0.5" stroke-linecap="butt" opacity="0"/><g stroke="#ffffff" stroke-width="0.5" stroke-linecap="round"><circle cx="-772.26459" cy="-31.6015" transform="rotate(-150)" r="20" data-paper-data="{&quot;index&quot;:0}" opacity="0"/><circle cx="-752.26379" cy="-31.60196" transform="rotate(-150)" r="20" data-paper-data="{&quot;index&quot;:1}" opacity="0"/><circle cx="-762.26459" cy="-14.281" transform="rotate(-150)" r="20" data-paper-data="{&quot;index&quot;:2}" opacity="0"/><circle cx="-782.26539" cy="-14.28054" transform="rotate(-150)" r="20" data-paper-data="{&quot;index&quot;:3}" opacity="0"/><circle cx="653" cy="403.5" r="2.67857"/><circle cx="653" cy="403.5" r="10"/></g><rect x="-756" y="-423" transform="rotate(180)" width="34" height="19" stroke="#000000" stroke-width="0.5" stroke-linecap="butt" opacity="0"/><g stroke="#ffffff" stroke-width="0.5" stroke-linecap="round"><circle cx="-846.74277" cy="11.3985" transform="rotate(-150)" r="20" data-paper-data="{&quot;index&quot;:0}" opacity="0"/><circle cx="-826.74198" cy="11.39804" transform="rotate(-150)" r="20" data-paper-data="{&quot;index&quot;:1}" opacity="0"/><circle cx="-836.74277" cy="28.719" transform="rotate(-150)" r="20" data-paper-data="{&quot;index&quot;:2}" opacity="0"/><circle cx="-856.74357" cy="28.71946" transform="rotate(-150)" r="20" data-paper-data="{&quot;index&quot;:3}" opacity="0"/><circle cx="733.22619" cy="403.5" r="8.45238"/><circle cx="744.77381" cy="403.5" r="8.45238"/><circle cx="733.22619" cy="403.5" r="11.54762"/><circle cx="744.77381" cy="403.5" r="11.54762"/></g><rect x="-842" y="-423" transform="rotate(180)" width="34" height="19" stroke="#000000" stroke-width="0.5" stroke-linecap="butt" opacity="0"/><g stroke="#ffffff" stroke-width="0.5" stroke-linecap="round"><circle cx="-921.22096" cy="54.3985" transform="rotate(-150)" r="20" data-paper-data="{&quot;index&quot;:0}" opacity="0"/><circle cx="-901.22016" cy="54.39804" transform="rotate(-150)" r="20" data-paper-data="{&quot;index&quot;:1}" opacity="0"/><circle cx="-911.22096" cy="71.719" transform="rotate(-150)" r="20" data-paper-data="{&quot;index&quot;:2}" opacity="0"/><circle cx="-931.22176" cy="71.71946" transform="rotate(-150)" r="20" data-paper-data="{&quot;index&quot;:3}" opacity="0"/><circle cx="816.33929" cy="408.5" r="10"/><circle cx="825" cy="403.5" r="10"/><circle cx="833.66071" cy="408.5" r="10"/><circle cx="816.33929" cy="398.5" r="10"/><circle cx="833.66071" cy="398.5" r="10"/><circle cx="816.33929" cy="408.5" r="17.32143"/><circle cx="825" cy="403.5" r="17.32143"/><circle cx="833.66071" cy="408.5" r="17.32143"/><circle cx="816.33929" cy="398.5" r="17.32143"/><circle cx="833.66071" cy="398.5" r="17.32143"/></g><rect x="-1014" y="-423" transform="rotate(180)" width="34" height="19" stroke="#000000" stroke-width="0.5" stroke-linecap="butt" opacity="0"/><g stroke="#ffffff" stroke-width="0.5" stroke-linecap="round"><circle cx="-1070.17733" cy="140.3985" transform="rotate(-150)" r="20" data-paper-data="{&quot;index&quot;:0}"/><circle cx="-1050.17653" cy="140.39804" transform="rotate(-150)" r="20" data-paper-data="{&quot;index&quot;:1}"/><circle cx="-1060.17733" cy="157.719" transform="rotate(-150)" r="20" data-paper-data="{&quot;index&quot;:2}"/><circle cx="-1080.17812" cy="157.71946" transform="rotate(-150)" r="20" data-paper-data="{&quot;index&quot;:3}"/></g><rect x="-670" y="-524" transform="rotate(180)" width="34" height="19" stroke="#000000" stroke-width="0.5" stroke-linecap="butt" opacity="0"/><g stroke="#ffffff" stroke-width="0.5" stroke-linecap="round"><circle cx="-653" cy="-514.5" transform="rotate(180)" r="20" data-paper-data="{&quot;index&quot;:0}" opacity="0"/><circle cx="-633" cy="-514.5" transform="rotate(180)" r="20" data-paper-data="{&quot;index&quot;:1}" opacity="0"/><circle cx="-643" cy="-497.17857" transform="rotate(180)" r="20" data-paper-data="{&quot;index&quot;:2}" opacity="0"/><circle cx="-663" cy="-497.17857" transform="rotate(180)" r="20" data-paper-data="{&quot;index&quot;:3}" opacity="0"/><circle cx="-673" cy="-514.5" transform="rotate(180)" r="20" data-paper-data="{&quot;index&quot;:4}" opacity="0"/><circle cx="648" cy="505.83929" r="2.67857"/><circle cx="658" cy="505.83929" r="2.67857"/><circle cx="648" cy="505.83929" r="10"/><circle cx="658" cy="505.83929" r="10"/></g><rect x="-756" y="-524" transform="rotate(180)" width="34" height="19" stroke="#000000" stroke-width="0.5" stroke-linecap="butt" opacity="0"/><g stroke="#ffffff" stroke-width="0.5" stroke-linecap="round"><circle cx="-739" cy="-514.5" transform="rotate(180)" r="20" data-paper-data="{&quot;index&quot;:0}" opacity="0"/><circle cx="-719" cy="-514.5" transform="rotate(180)" r="20" data-paper-data="{&quot;index&quot;:1}" opacity="0"/><circle cx="-729" cy="-497.17857" transform="rotate(180)" r="20" data-paper-data="{&quot;index&quot;:2}" opacity="0"/><circle cx="-749" cy="-497.17857" transform="rotate(180)" r="20" data-paper-data="{&quot;index&quot;:3}" opacity="0"/><circle cx="-759" cy="-514.5" transform="rotate(180)" r="20" data-paper-data="{&quot;index&quot;:4}" opacity="0"/><circle cx="729" cy="508.72619" r="8.45238"/><circle cx="739" cy="502.95238" r="8.45238"/><circle cx="749" cy="508.72619" r="8.45238"/><circle cx="729" cy="508.72619" r="11.54762"/><circle cx="739" cy="502.95238" r="11.54762"/><circle cx="749" cy="508.72619" r="11.54762"/></g><rect x="-842" y="-524" transform="rotate(180)" width="34" height="19" stroke="#000000" stroke-width="0.5" stroke-linecap="butt" opacity="0"/><g stroke="#ffffff" stroke-width="0.5" stroke-linecap="round"><circle cx="-825" cy="-514.5" transform="rotate(180)" r="20" data-paper-data="{&quot;index&quot;:0}" opacity="0"/><circle cx="-805" cy="-514.5" transform="rotate(180)" r="20" data-paper-data="{&quot;index&quot;:1}" opacity="0"/><circle cx="-815" cy="-497.17857" transform="rotate(180)" r="20" data-paper-data="{&quot;index&quot;:2}" opacity="0"/><circle cx="-835" cy="-497.17857" transform="rotate(180)" r="20" data-paper-data="{&quot;index&quot;:3}" opacity="0"/><circle cx="-845" cy="-514.5" transform="rotate(180)" r="20" data-paper-data="{&quot;index&quot;:4}" opacity="0"/><circle cx="815" cy="514.5" r="10"/><circle cx="820" cy="505.83929" r="10"/><circle cx="830" cy="505.83929" r="10"/><circle cx="835" cy="514.5" r="10"/><circle cx="810" cy="505.83929" r="10"/><circle cx="825" cy="497.17857" r="10"/><circle cx="840" cy="505.83929" r="10"/><circle cx="815" cy="514.5" r="17.32143"/><circle cx="820" cy="505.83929" r="17.32143"/><circle cx="830" cy="505.83929" r="17.32143"/><circle cx="835" cy="514.5" r="17.32143"/><circle cx="810" cy="505.83929" r="17.32143"/><circle cx="825" cy="497.17857" r="17.32143"/><circle cx="840" cy="505.83929" r="17.32143"/></g><rect x="-1014" y="-524" transform="rotate(180)" width="34" height="19" stroke="#000000" stroke-width="0.5" stroke-linecap="butt" opacity="0"/><g stroke="#ffffff" stroke-width="0.5" stroke-linecap="round"><circle cx="-997" cy="-514.5" transform="rotate(180)" r="20" data-paper-data="{&quot;index&quot;:0}"/><circle cx="-977" cy="-514.5" transform="rotate(-180)" r="20" data-paper-data="{&quot;index&quot;:1}"/><circle cx="-987" cy="-497.17857" transform="rotate(-180)" r="20" data-paper-data="{&quot;index&quot;:2}"/><circle cx="-1007" cy="-497.17857" transform="rotate(-180)" r="20" data-paper-data="{&quot;index&quot;:3}"/><circle cx="-1017" cy="-514.5" transform="rotate(-180)" r="20" data-paper-data="{&quot;index&quot;:4}"/></g><rect x="-670" y="-625" transform="rotate(180)" width="34" height="19" stroke="#000000" stroke-width="0.5" stroke-linecap="butt" opacity="0"/><g stroke="#ffffff" stroke-width="0.5" stroke-linecap="round"><circle cx="-257.76459" cy="-859.53864" transform="matrix(-0.8660254037844379,0.5000000000000011,-0.5000000000000011,-0.8660254037844379,0,0)" r="20" data-paper-data="{&quot;index&quot;:0}" opacity="0"/><circle cx="-237.76379" cy="-859.53818" transform="matrix(-0.8660254037844379,0.5000000000000011,-0.5000000000000011,-0.8660254037844379,0,0)" r="20" data-paper-data="{&quot;index&quot;:1}" opacity="0"/><circle cx="-247.76379" cy="-842.21767" transform="matrix(-0.8660254037844379,0.5000000000000011,-0.5000000000000011,-0.8660254037844379,0,0)" r="20" data-paper-data="{&quot;index&quot;:2}" opacity="0"/><circle cx="-267.76459" cy="-842.21813" transform="matrix(-0.8660254037844379,0.5000000000000011,-0.5000000000000011,-0.8660254037844379,0,0)" r="20" data-paper-data="{&quot;index&quot;:3}" opacity="0"/><circle cx="-277.76539" cy="-859.5391" transform="matrix(-0.8660254037844379,0.5000000000000011,-0.5000000000000011,-0.8660254037844379,0,0)" r="20" data-paper-data="{&quot;index&quot;:4}" opacity="0"/><circle cx="-267.76539" cy="-876.8596" transform="matrix(-0.8660254037844379,0.5000000000000011,-0.5000000000000011,-0.8660254037844379,0,0)" r="20" data-paper-data="{&quot;index&quot;:5}" opacity="0"/><circle cx="644.33929" cy="610.5" r="2.67857"/><circle cx="653" cy="625.5" r="2.67857"/><circle cx="653" cy="605.5" r="2.67857"/><circle cx="661.66071" cy="610.5" r="2.67857"/><circle cx="644.33929" cy="610.5" r="10"/><circle cx="653" cy="625.5" r="10"/><circle cx="653" cy="605.5" r="10"/><circle cx="661.66071" cy="610.5" r="10"/></g><rect x="-756" y="-625" transform="rotate(180)" width="34" height="19" stroke="#000000" stroke-width="0.5" stroke-linecap="butt" opacity="0"/><g stroke="#ffffff" stroke-width="0.5" stroke-linecap="round"><circle cx="-332.24277" cy="-902.53864" transform="matrix(-0.8660254037844379,0.5000000000000011,-0.5000000000000011,-0.8660254037844379,0,0)" r="20" data-paper-data="{&quot;index&quot;:0}" opacity="0"/><circle cx="-312.24198" cy="-902.53818" transform="matrix(-0.8660254037844379,0.5000000000000011,-0.5000000000000011,-0.8660254037844379,0,0)" r="20" data-paper-data="{&quot;index&quot;:1}" opacity="0"/><circle cx="-322.24198" cy="-885.21767" transform="matrix(-0.8660254037844379,0.5000000000000011,-0.5000000000000011,-0.8660254037844379,0,0)" r="20" data-paper-data="{&quot;index&quot;:2}" opacity="0"/><circle cx="-342.24277" cy="-885.21813" transform="matrix(-0.8660254037844379,0.5000000000000011,-0.5000000000000011,-0.8660254037844379,0,0)" r="20" data-paper-data="{&quot;index&quot;:3}" opacity="0"/><circle cx="-352.24357" cy="-902.5391" transform="matrix(-0.8660254037844379,0.5000000000000011,-0.5000000000000011,-0.8660254037844379,0,0)" r="20" data-paper-data="{&quot;index&quot;:4}" opacity="0"/><circle cx="-342.24357" cy="-919.8596" transform="matrix(-0.8660254037844379,0.5000000000000011,-0.5000000000000011,-0.8660254037844379,0,0)" r="20" data-paper-data="{&quot;index&quot;:5}" opacity="0"/><circle cx="727.45238" cy="615.5" r="8.45238"/><circle cx="733.22619" cy="605.5" r="8.45238"/><circle cx="744.77381" cy="605.5" r="8.45238"/><circle cx="750.54762" cy="615.5" r="8.45238"/><circle cx="727.45238" cy="615.5" r="11.54762"/><circle cx="733.22619" cy="605.5" r="11.54762"/><circle cx="744.77381" cy="605.5" r="11.54762"/><circle cx="750.54762" cy="615.5" r="11.54762"/></g><rect x="-842" y="-625" transform="rotate(180)" width="34" height="19" stroke="#000000" stroke-width="0.5" stroke-linecap="butt" opacity="0"/><g stroke="#ffffff" stroke-width="0.5" stroke-linecap="round"><circle cx="-406.72096" cy="-945.53864" transform="matrix(-0.8660254037844379,0.5000000000000011,-0.5000000000000011,-0.8660254037844379,0,0)" r="20" data-paper-data="{&quot;index&quot;:0}" opacity="0"/><circle cx="-386.72016" cy="-945.53818" transform="matrix(-0.8660254037844379,0.5000000000000011,-0.5000000000000011,-0.8660254037844379,0,0)" r="20" data-paper-data="{&quot;index&quot;:1}" opacity="0"/><circle cx="-396.72016" cy="-928.21767" transform="matrix(-0.8660254037844379,0.5000000000000011,-0.5000000000000011,-0.8660254037844379,0,0)" r="20" data-paper-data="{&quot;index&quot;:2}" opacity="0"/><circle cx="-416.72096" cy="-928.21813" transform="matrix(-0.8660254037844379,0.5000000000000011,-0.5000000000000011,-0.8660254037844379,0,0)" r="20" data-paper-data="{&quot;index&quot;:3}" opacity="0"/><circle cx="-426.72176" cy="-945.5391" transform="matrix(-0.8660254037844379,0.5000000000000011,-0.5000000000000011,-0.8660254037844379,0,0)" r="20" data-paper-data="{&quot;index&quot;:4}" opacity="0"/><circle cx="-416.72176" cy="-962.8596" transform="matrix(-0.8660254037844379,0.5000000000000011,-0.5000000000000011,-0.8660254037844379,0,0)" r="20" data-paper-data="{&quot;index&quot;:5}" opacity="0"/><circle cx="816.33929" cy="620.5" r="10"/><circle cx="816.33929" cy="610.5" r="10"/><circle cx="825" cy="605.5" r="10"/><circle cx="833.66071" cy="610.5" r="10"/><circle cx="833.66071" cy="620.5" r="10"/><circle cx="807.67857" cy="615.5" r="10"/><circle cx="816.33929" cy="600.5" r="10"/><circle cx="833.66071" cy="600.5" r="10"/><circle cx="842.32143" cy="615.5" r="10"/><circle cx="816.33929" cy="620.5" r="17.32143"/><circle cx="816.33929" cy="610.5" r="17.32143"/><circle cx="825" cy="605.5" r="17.32143"/><circle cx="833.66071" cy="610.5" r="17.32143"/><circle cx="833.66071" cy="620.5" r="17.32143"/><circle cx="807.67857" cy="615.5" r="17.32143"/><circle cx="816.33929" cy="600.5" r="17.32143"/><circle cx="833.66071" cy="600.5" r="17.32143"/><circle cx="842.32143" cy="615.5" r="17.32143"/></g><rect x="-1014" y="-625" transform="rotate(180)" width="34" height="19" stroke="#000000" stroke-width="0.5" stroke-linecap="butt" opacity="0"/><g stroke="#ffffff" stroke-width="0.5" stroke-linecap="round"><circle cx="-555.67733" cy="-1031.53864" transform="matrix(-0.8660254037844379,0.5000000000000011,-0.5000000000000011,-0.8660254037844379,0,0)" r="20" data-paper-data="{&quot;index&quot;:0}"/><circle cx="-535.67653" cy="-1031.53818" transform="rotate(150)" r="20" data-paper-data="{&quot;index&quot;:1}"/><circle cx="-545.67653" cy="-1014.21767" transform="rotate(150)" r="20" data-paper-data="{&quot;index&quot;:2}"/><circle cx="-565.67733" cy="-1014.21813" transform="rotate(150)" r="20" data-paper-data="{&quot;index&quot;:3}"/><circle cx="-575.67812" cy="-1031.5391" transform="rotate(150)" r="20" data-paper-data="{&quot;index&quot;:4}"/><circle cx="-565.67812" cy="-1048.8596" transform="rotate(150)" r="20" data-paper-data="{&quot;index&quot;:5}"/></g><rect x="-670" y="-726" transform="rotate(180)" width="34" height="19" stroke="#000000" stroke-width="0.5" stroke-linecap="butt" opacity="0"/><g stroke="#ffffff" stroke-width="0.5" stroke-linecap="round"><circle cx="-653" cy="-716.5" transform="rotate(180)" r="20" data-paper-data="{&quot;index&quot;:0}" opacity="0"/><circle cx="-633" cy="-716.5" transform="rotate(180)" r="20" data-paper-data="{&quot;index&quot;:1}" opacity="0"/><circle cx="-643" cy="-699.17857" transform="rotate(180)" r="20" data-paper-data="{&quot;index&quot;:2}" opacity="0"/><circle cx="-663" cy="-699.17857" transform="rotate(180)" r="20" data-paper-data="{&quot;index&quot;:3}" opacity="0"/><circle cx="-673" cy="-716.5" transform="rotate(180)" r="20" data-paper-data="{&quot;index&quot;:4}" opacity="0"/><circle cx="-663" cy="-733.82143" transform="rotate(180)" r="20" data-paper-data="{&quot;index&quot;:5}" opacity="0"/><circle cx="-643" cy="-733.82143" transform="rotate(180)" r="20" data-paper-data="{&quot;index&quot;:6}" opacity="0"/><circle cx="648" cy="707.83929" r="2.67857"/><circle cx="648" cy="725.16071" r="2.67857"/><circle cx="658" cy="707.83929" r="2.67857"/><circle cx="643" cy="716.5" r="2.67857"/><circle cx="663" cy="716.5" r="2.67857"/><circle cx="658" cy="725.16071" r="2.67857"/><circle cx="648" cy="707.83929" r="10"/><circle cx="648" cy="725.16071" r="10"/><circle cx="658" cy="707.83929" r="10"/><circle cx="643" cy="716.5" r="10"/><circle cx="663" cy="716.5" r="10"/><circle cx="658" cy="725.16071" r="10"/></g><rect x="-756" y="-726" transform="rotate(180)" width="34" height="19" stroke="#000000" stroke-width="0.5" stroke-linecap="butt" opacity="0"/><g stroke="#ffffff" stroke-width="0.5" stroke-linecap="round"><circle cx="-739" cy="-716.5" transform="rotate(180)" r="20" data-paper-data="{&quot;index&quot;:0}" opacity="0"/><circle cx="-719" cy="-716.5" transform="rotate(180)" r="20" data-paper-data="{&quot;index&quot;:1}" opacity="0"/><circle cx="-729" cy="-699.17857" transform="rotate(180)" r="20" data-paper-data="{&quot;index&quot;:2}" opacity="0"/><circle cx="-749" cy="-699.17857" transform="rotate(180)" r="20" data-paper-data="{&quot;index&quot;:3}" opacity="0"/><circle cx="-759" cy="-716.5" transform="rotate(180)" r="20" data-paper-data="{&quot;index&quot;:4}" opacity="0"/><circle cx="-749" cy="-733.82143" transform="rotate(180)" r="20" data-paper-data="{&quot;index&quot;:5}" opacity="0"/><circle cx="-729" cy="-733.82143" transform="rotate(180)" r="20" data-paper-data="{&quot;index&quot;:6}" opacity="0"/><circle cx="729" cy="710.72619" r="8.45238"/><circle cx="729" cy="722.27381" r="8.45238"/><circle cx="739" cy="704.95238" r="8.45238"/><circle cx="749" cy="710.72619" r="8.45238"/><circle cx="749" cy="722.27381" r="8.45238"/><circle cx="739" cy="728.04762" r="8.45238"/><circle cx="729" cy="710.72619" r="11.54762"/><circle cx="729" cy="722.27381" r="11.54762"/><circle cx="739" cy="704.95238" r="11.54762"/><circle cx="749" cy="710.72619" r="11.54762"/><circle cx="749" cy="722.27381" r="11.54762"/><circle cx="739" cy="728.04762" r="11.54762"/></g><rect x="-842" y="-726" transform="rotate(180)" width="34" height="19" stroke="#000000" stroke-width="0.5" stroke-linecap="butt" opacity="0"/><g stroke="#ffffff" stroke-width="0.5" stroke-linecap="round"><circle cx="-825" cy="-716.5" transform="rotate(180)" r="20" data-paper-data="{&quot;index&quot;:0}" opacity="0"/><circle cx="-805" cy="-716.5" transform="rotate(180)" r="20" data-paper-data="{&quot;index&quot;:1}" opacity="0"/><circle cx="-815" cy="-699.17857" transform="rotate(180)" r="20" data-paper-data="{&quot;index&quot;:2}" opacity="0"/><circle cx="-835" cy="-699.17857" transform="rotate(180)" r="20" data-paper-data="{&quot;index&quot;:3}" opacity="0"/><circle cx="-845" cy="-716.5" transform="rotate(180)" r="20" data-paper-data="{&quot;index&quot;:4}" opacity="0"/><circle cx="-835" cy="-733.82143" transform="rotate(180)" r="20" data-paper-data="{&quot;index&quot;:5}" opacity="0"/><circle cx="-815" cy="-733.82143" transform="rotate(180)" r="20" data-paper-data="{&quot;index&quot;:6}" opacity="0"/><circle cx="815" cy="716.5" r="10"/><circle cx="820" cy="707.83929" r="10"/><circle cx="830" cy="707.83929" r="10"/><circle cx="835" cy="716.5" r="10"/><circle cx="830" cy="725.16071" r="10"/><circle cx="820" cy="725.16071" r="10"/><circle cx="810" cy="707.83929" r="10"/><circle cx="810" cy="725.16071" r="10"/><circle cx="825" cy="699.17857" r="10"/><circle cx="840" cy="707.83929" r="10"/><circle cx="840" cy="725.16071" r="10"/><circle cx="825" cy="733.82143" r="10"/><circle cx="815" cy="716.5" r="17.32143"/><circle cx="820" cy="707.83929" r="17.32143"/><circle cx="830" cy="707.83929" r="17.32143"/><circle cx="835" cy="716.5" r="17.32143"/><circle cx="830" cy="725.16071" r="17.32143"/><circle cx="820" cy="725.16071" r="17.32143"/><circle cx="810" cy="707.83929" r="17.32143"/><circle cx="810" cy="725.16071" r="17.32143"/><circle cx="825" cy="699.17857" r="17.32143"/><circle cx="840" cy="707.83929" r="17.32143"/><circle cx="840" cy="725.16071" r="17.32143"/><circle cx="825" cy="733.82143" r="17.32143"/></g><rect x="-1014" y="-726" transform="rotate(180)" width="34" height="19" stroke="#000000" stroke-width="0.5" stroke-linecap="butt" opacity="0"/><g stroke="#ffffff" stroke-width="0.5" stroke-linecap="round"><circle cx="-997" cy="-716.5" transform="rotate(180)" r="20" data-paper-data="{&quot;index&quot;:0}"/><circle cx="-977" cy="-716.5" transform="rotate(-180)" r="20" data-paper-data="{&quot;index&quot;:1}"/><circle cx="-987" cy="-699.17857" transform="rotate(-180)" r="20" data-paper-data="{&quot;index&quot;:2}"/><circle cx="-1007" cy="-699.17857" transform="rotate(-180)" r="20" data-paper-data="{&quot;index&quot;:3}"/><circle cx="-1017" cy="-716.5" transform="rotate(-180)" r="20" data-paper-data="{&quot;index&quot;:4}"/><circle cx="-1007" cy="-733.82143" transform="rotate(-180)" r="20" data-paper-data="{&quot;index&quot;:5}"/><circle cx="-987" cy="-733.82143" transform="rotate(-180)" r="20" data-paper-data="{&quot;index&quot;:6}"/></g></g></svg>