<svg x="0" y="0" width="1100" height="850.00006" version="1.1" xmlns="http://www.w3.org/2000/svg" xmlns:xlink="http://www.w3.org/1999/xlink"><g fill="none" stroke="none" stroke-width="none" stroke-linecap="none" stroke-linejoin="miter" stroke-miterlimit="10" stroke-dasharray="" stroke-dashoffset="0" font-family="sans-serif" font-size="12" text-anchor="start" mix-blend-mode="normal"><rect x="570" y="25" width="510" height="800" fill="#000000" stroke-width="1" stroke-linecap="butt"/><g stroke-width="1" stroke-linecap="butt"/><rect x="657.5" y="241.66667" width="12.5" height="1.66667" stroke="#000000" stroke-width="0.5" stroke-linecap="butt" opacity="0"/><g stroke="#ffffff" stroke-width="0.5" stroke-linecap="round"><circle cx="-541.88616" cy="453.57436" transform="rotate(-120)" r="24" data-paper-data="{&quot;index&quot;:0}"/><circle cx="-517.8852" cy="453.57491" transform="rotate(-120)" r="24" data-paper-data="{&quot;index&quot;:1}"/><circle cx="-529.8852" cy="474.35952" transform="rotate(-120)" r="24" data-paper-data="{&quot;index&quot;:2}"/></g><rect x="657.5" y="363.33333" width="12.5" height="1.66667" stroke="#000000" stroke-width="0.5" stroke-linecap="butt" opacity="0"/><g stroke="#ffffff" stroke-width="0.5" stroke-linecap="round"><circle cx="-647.26289" cy="392.73508" transform="rotate(-120)" r="24" data-paper-data="{&quot;index&quot;:0}" opacity="0"/><circle cx="-623.26194" cy="392.73563" transform="rotate(-120)" r="24" data-paper-data="{&quot;index&quot;:1}" opacity="0"/><circle cx="-635.26194" cy="413.52024" transform="rotate(-120)" r="24" data-paper-data="{&quot;index&quot;:2}" opacity="0"/><circle cx="663.75" cy="364.17857" r="1.5" fill="#ffffff"/><circle cx="651.75" cy="343.39286" r="1.5" fill="#ffffff"/><circle cx="675.75" cy="343.39286" r="1.5" fill="#ffffff"/><circle cx="639.75" cy="364.17857" r="1.5" fill="#ffffff"/><circle cx="687.75" cy="364.17857" r="1.5" fill="#ffffff"/><circle cx="663.75" cy="322.60714" r="1.5" fill="#ffffff"/></g><rect x="657.5" y="485" width="12.5" height="1.66667" stroke="#000000" stroke-width="0.5" stroke-linecap="butt" opacity="0"/><g stroke="#ffffff" stroke-width="0.5" stroke-linecap="round"><circle cx="-752.63963" cy="331.89579" transform="rotate(-120)" r="24" data-paper-data="{&quot;index&quot;:0}" opacity="0"/><circle cx="-728.63867" cy="331.89634" transform="matrix(-0.5000000000000019,-0.8660254037844375,0.8660254037844375,-0.5000000000000019,0,0)" r="24" data-paper-data="{&quot;index&quot;:1}" opacity="0"/><circle cx="-740.63867" cy="352.68095" transform="rotate(-120)" r="24" data-paper-data="{&quot;index&quot;:2}" opacity="0"/><line x1="663.75" y1="485.85714" x2="651.75" y2="465.07143" data-paper-data="{&quot;endpoints&quot;:[[&quot;Point&quot;,663.75,485.85714],[&quot;Point&quot;,651.75,465.07143]]}"/><line x1="663.75" y1="485.85714" x2="675.75" y2="465.07143" data-paper-data="{&quot;endpoints&quot;:[[&quot;Point&quot;,663.75,485.85714],[&quot;Point&quot;,675.75,465.07143]]}"/><line x1="663.75" y1="485.85714" x2="639.75" y2="485.85714" data-paper-data="{&quot;endpoints&quot;:[[&quot;Point&quot;,663.75,485.85714],[&quot;Point&quot;,639.75,485.85714]]}"/><line x1="663.75" y1="485.85714" x2="687.75" y2="485.85714" data-paper-data="{&quot;endpoints&quot;:[[&quot;Point&quot;,663.75,485.85714],[&quot;Point&quot;,687.75,485.85714]]}"/><line x1="663.75" y1="485.85714" x2="663.75" y2="444.28571" data-paper-data="{&quot;endpoints&quot;:[[&quot;Point&quot;,663.75,485.85714],[&quot;Point&quot;,663.75,444.28571]]}"/><line x1="651.75" y1="465.07143" x2="675.75" y2="465.07143" data-paper-data="{&quot;endpoints&quot;:[[&quot;Point&quot;,651.75,465.07143],[&quot;Point&quot;,675.75,465.07143]]}"/><line x1="651.75" y1="465.07143" x2="639.75" y2="485.85714" data-paper-data="{&quot;endpoints&quot;:[[&quot;Point&quot;,651.75,465.07143],[&quot;Point&quot;,639.75,485.85714]]}"/><line x1="651.75" y1="465.07143" x2="687.75" y2="485.85714" data-paper-data="{&quot;endpoints&quot;:[[&quot;Point&quot;,651.75,465.07143],[&quot;Point&quot;,687.75,485.85714]]}"/><line x1="651.75" y1="465.07143" x2="663.75" y2="444.28571" data-paper-data="{&quot;endpoints&quot;:[[&quot;Point&quot;,651.75,465.07143],[&quot;Point&quot;,663.75,444.28571]]}"/><line x1="675.75" y1="465.07143" x2="639.75" y2="485.85714" data-paper-data="{&quot;endpoints&quot;:[[&quot;Point&quot;,675.75,465.07143],[&quot;Point&quot;,639.75,485.85714]]}"/><line x1="675.75" y1="465.07143" x2="687.75" y2="485.85714" data-paper-data="{&quot;endpoints&quot;:[[&quot;Point&quot;,675.75,465.07143],[&quot;Point&quot;,687.75,485.85714]]}"/><line x1="675.75" y1="465.07143" x2="663.75" y2="444.28571" data-paper-data="{&quot;endpoints&quot;:[[&quot;Point&quot;,675.75,465.07143],[&quot;Point&quot;,663.75,444.28571]]}"/><line x1="639.75" y1="485.85714" x2="687.75" y2="485.85714" data-paper-data="{&quot;endpoints&quot;:[[&quot;Point&quot;,639.75,485.85714],[&quot;Point&quot;,687.75,485.85714]]}" opacity="0"/><line x1="639.75" y1="485.85714" x2="663.75" y2="444.28571" data-paper-data="{&quot;endpoints&quot;:[[&quot;Point&quot;,639.75,485.85714],[&quot;Point&quot;,663.75,444.28571]]}" opacity="0"/><line x1="687.75" y1="485.85714" x2="663.75" y2="444.28571" data-paper-data="{&quot;endpoints&quot;:[[&quot;Point&quot;,687.75,485.85714],[&quot;Point&quot;,663.75,444.28571]]}" opacity="0"/></g><rect x="765" y="485" width="12.5" height="1.66667" stroke="#000000" stroke-width="0.5" stroke-linecap="butt" opacity="0"/><g stroke="#ffffff" stroke-width="0.5" stroke-linecap="round"><circle cx="-806.38963" cy="424.99352" transform="rotate(-120)" r="24" data-paper-data="{&quot;index&quot;:0}" opacity="0"/><circle cx="-782.38867" cy="424.99407" transform="rotate(-120)" r="24" data-paper-data="{&quot;index&quot;:1}" opacity="0"/><circle cx="-794.38867" cy="445.77868" transform="rotate(-120)" r="24" data-paper-data="{&quot;index&quot;:2}" opacity="0"/><line x1="771.25" y1="485.85714" x2="759.25" y2="465.07143" data-paper-data="{&quot;endpoints&quot;:[[&quot;Point&quot;,771.25,485.85714],[&quot;Point&quot;,759.25,465.07143]]}"/><line x1="771.25" y1="485.85714" x2="783.25" y2="465.07143" data-paper-data="{&quot;endpoints&quot;:[[&quot;Point&quot;,771.25,485.85714],[&quot;Point&quot;,783.25,465.07143]]}"/><line x1="771.25" y1="485.85714" x2="747.25" y2="485.85714" data-paper-data="{&quot;endpoints&quot;:[[&quot;Point&quot;,771.25,485.85714],[&quot;Point&quot;,747.25,485.85714]]}"/><line x1="771.25" y1="485.85714" x2="795.25" y2="485.85714" data-paper-data="{&quot;endpoints&quot;:[[&quot;Point&quot;,771.25,485.85714],[&quot;Point&quot;,795.25,485.85714]]}"/><line x1="771.25" y1="485.85714" x2="771.25" y2="444.28571" data-paper-data="{&quot;endpoints&quot;:[[&quot;Point&quot;,771.25,485.85714],[&quot;Point&quot;,771.25,444.28571]]}" opacity="0"/><line x1="759.25" y1="465.07143" x2="783.25" y2="465.07143" data-paper-data="{&quot;endpoints&quot;:[[&quot;Point&quot;,759.25,465.07143],[&quot;Point&quot;,783.25,465.07143]]}"/><line x1="759.25" y1="465.07143" x2="747.25" y2="485.85714" data-paper-data="{&quot;endpoints&quot;:[[&quot;Point&quot;,759.25,465.07143],[&quot;Point&quot;,747.25,485.85714]]}"/><line x1="759.25" y1="465.07143" x2="795.25" y2="485.85714" data-paper-data="{&quot;endpoints&quot;:[[&quot;Point&quot;,759.25,465.07143],[&quot;Point&quot;,795.25,485.85714]]}" opacity="0"/><line x1="759.25" y1="465.07143" x2="771.25" y2="444.28571" data-paper-data="{&quot;endpoints&quot;:[[&quot;Point&quot;,759.25,465.07143],[&quot;Point&quot;,771.25,444.28571]]}"/><line x1="783.25" y1="465.07143" x2="747.25" y2="485.85714" data-paper-data="{&quot;endpoints&quot;:[[&quot;Point&quot;,783.25,465.07143],[&quot;Point&quot;,747.25,485.85714]]}" opacity="0"/><line x1="783.25" y1="465.07143" x2="795.25" y2="485.85714" data-paper-data="{&quot;endpoints&quot;:[[&quot;Point&quot;,783.25,465.07143],[&quot;Point&quot;,795.25,485.85714]]}"/><line x1="783.25" y1="465.07143" x2="771.25" y2="444.28571" data-paper-data="{&quot;endpoints&quot;:[[&quot;Point&quot;,783.25,465.07143],[&quot;Point&quot;,771.25,444.28571]]}"/><line x1="747.25" y1="485.85714" x2="795.25" y2="485.85714" data-paper-data="{&quot;endpoints&quot;:[[&quot;Point&quot;,747.25,485.85714],[&quot;Point&quot;,795.25,485.85714]]}" opacity="0"/><line x1="747.25" y1="485.85714" x2="771.25" y2="444.28571" data-paper-data="{&quot;endpoints&quot;:[[&quot;Point&quot;,747.25,485.85714],[&quot;Point&quot;,771.25,444.28571]]}" opacity="0"/><line x1="795.25" y1="485.85714" x2="771.25" y2="444.28571" data-paper-data="{&quot;endpoints&quot;:[[&quot;Point&quot;,795.25,485.85714],[&quot;Point&quot;,771.25,444.28571]]}" opacity="0"/></g><rect x="872.5" y="485" width="12.5" height="1.66667" stroke="#000000" stroke-width="0.5" stroke-linecap="butt" opacity="0"/><g stroke="#ffffff" stroke-width="0.5" stroke-linecap="round"><circle cx="-860.13963" cy="518.09125" transform="rotate(-120)" r="24" data-paper-data="{&quot;index&quot;:0}" opacity="0"/><circle cx="-836.13867" cy="518.0918" transform="rotate(-120)" r="24" data-paper-data="{&quot;index&quot;:1}" opacity="0"/><circle cx="-848.13867" cy="538.87641" transform="rotate(-120)" r="24" data-paper-data="{&quot;index&quot;:2}" opacity="0"/><line x1="878.75" y1="485.85714" x2="866.75" y2="465.07143" data-paper-data="{&quot;endpoints&quot;:[[&quot;Point&quot;,878.75,485.85714],[&quot;Point&quot;,866.75,465.07143]]}" opacity="0"/><line x1="878.75" y1="485.85714" x2="890.75" y2="465.07143" data-paper-data="{&quot;endpoints&quot;:[[&quot;Point&quot;,878.75,485.85714],[&quot;Point&quot;,890.75,465.07143]]}" opacity="0"/><line x1="878.75" y1="485.85714" x2="854.75" y2="485.85714" data-paper-data="{&quot;endpoints&quot;:[[&quot;Point&quot;,878.75,485.85714],[&quot;Point&quot;,854.75,485.85714]]}" opacity="0"/><line x1="878.75" y1="485.85714" x2="902.75" y2="485.85714" data-paper-data="{&quot;endpoints&quot;:[[&quot;Point&quot;,878.75,485.85714],[&quot;Point&quot;,902.75,485.85714]]}" opacity="0"/><line x1="878.75" y1="485.85714" x2="878.75" y2="444.28571" data-paper-data="{&quot;endpoints&quot;:[[&quot;Point&quot;,878.75,485.85714],[&quot;Point&quot;,878.75,444.28571]]}"/><line x1="866.75" y1="465.07143" x2="890.75" y2="465.07143" data-paper-data="{&quot;endpoints&quot;:[[&quot;Point&quot;,866.75,465.07143],[&quot;Point&quot;,890.75,465.07143]]}" opacity="0"/><line x1="866.75" y1="465.07143" x2="854.75" y2="485.85714" data-paper-data="{&quot;endpoints&quot;:[[&quot;Point&quot;,866.75,465.07143],[&quot;Point&quot;,854.75,485.85714]]}" opacity="0"/><line x1="866.75" y1="465.07143" x2="902.75" y2="485.85714" data-paper-data="{&quot;endpoints&quot;:[[&quot;Point&quot;,866.75,465.07143],[&quot;Point&quot;,902.75,485.85714]]}"/><line x1="866.75" y1="465.07143" x2="878.75" y2="444.28571" data-paper-data="{&quot;endpoints&quot;:[[&quot;Point&quot;,866.75,465.07143],[&quot;Point&quot;,878.75,444.28571]]}" opacity="0"/><line x1="890.75" y1="465.07143" x2="854.75" y2="485.85714" data-paper-data="{&quot;endpoints&quot;:[[&quot;Point&quot;,890.75,465.07143],[&quot;Point&quot;,854.75,485.85714]]}"/><line x1="890.75" y1="465.07143" x2="902.75" y2="485.85714" data-paper-data="{&quot;endpoints&quot;:[[&quot;Point&quot;,890.75,465.07143],[&quot;Point&quot;,902.75,485.85714]]}" opacity="0"/><line x1="890.75" y1="465.07143" x2="878.75" y2="444.28571" data-paper-data="{&quot;endpoints&quot;:[[&quot;Point&quot;,890.75,465.07143],[&quot;Point&quot;,878.75,444.28571]]}" opacity="0"/><line x1="854.75" y1="485.85714" x2="902.75" y2="485.85714" data-paper-data="{&quot;endpoints&quot;:[[&quot;Point&quot;,854.75,485.85714],[&quot;Point&quot;,902.75,485.85714]]}" opacity="0"/><line x1="854.75" y1="485.85714" x2="878.75" y2="444.28571" data-paper-data="{&quot;endpoints&quot;:[[&quot;Point&quot;,854.75,485.85714],[&quot;Point&quot;,878.75,444.28571]]}" opacity="0"/><line x1="902.75" y1="485.85714" x2="878.75" y2="444.28571" data-paper-data="{&quot;endpoints&quot;:[[&quot;Point&quot;,902.75,485.85714],[&quot;Point&quot;,878.75,444.28571]]}" opacity="0"/></g><rect x="980" y="485" width="12.5" height="1.66667" stroke="#000000" stroke-width="0.5" stroke-linecap="butt" opacity="0"/><g stroke="#ffffff" stroke-width="0.5" stroke-linecap="round"><circle cx="-913.8587" cy="611.20684" transform="rotate(-120)" r="24" data-paper-data="{&quot;index&quot;:0}" opacity="0"/><circle cx="-889.88867" cy="611.18954" transform="rotate(-120)" r="24" data-paper-data="{&quot;index&quot;:1}" opacity="0"/><circle cx="-901.88867" cy="631.97415" transform="rotate(-120)" r="24" data-paper-data="{&quot;index&quot;:2}" opacity="0"/><line x1="986.25" y1="485.82143" x2="974.25" y2="465.07143" data-paper-data="{&quot;endpoints&quot;:[[&quot;Point&quot;,986.25,485.82143],[&quot;Point&quot;,974.25,465.07143]]}" opacity="0"/><line x1="986.25" y1="485.82143" x2="998.25" y2="465.07143" data-paper-data="{&quot;endpoints&quot;:[[&quot;Point&quot;,986.25,485.82143],[&quot;Point&quot;,998.25,465.07143]]}" opacity="0"/><line x1="986.25" y1="485.82143" x2="962.25" y2="485.85714" data-paper-data="{&quot;endpoints&quot;:[[&quot;Point&quot;,986.25,485.82143],[&quot;Point&quot;,962.25,485.85714]]}" opacity="0"/><line x1="986.25" y1="485.82143" x2="998.25" y2="465.03571" data-paper-data="{&quot;endpoints&quot;:[[&quot;Point&quot;,986.25,485.82143],[&quot;Point&quot;,998.25,465.03571]]}" opacity="0"/><line x1="986.25" y1="485.82143" x2="974.25" y2="465.03571" data-paper-data="{&quot;endpoints&quot;:[[&quot;Point&quot;,986.25,485.82143],[&quot;Point&quot;,974.25,465.03571]]}" opacity="0"/><line x1="986.25" y1="485.82143" x2="1010.25" y2="485.85714" data-paper-data="{&quot;endpoints&quot;:[[&quot;Point&quot;,986.25,485.82143],[&quot;Point&quot;,1010.25,485.85714]]}" opacity="0"/><line x1="986.25" y1="485.82143" x2="986.25" y2="485.85714" data-paper-data="{&quot;endpoints&quot;:[[&quot;Point&quot;,986.25,485.82143],[&quot;Point&quot;,986.25,485.85714]]}" opacity="0"/><line x1="986.25" y1="485.82143" x2="986.25" y2="444.28571" data-paper-data="{&quot;endpoints&quot;:[[&quot;Point&quot;,986.25,485.82143],[&quot;Point&quot;,986.25,444.28571]]}" opacity="0"/><line x1="974.25" y1="465.07143" x2="998.25" y2="465.07143" data-paper-data="{&quot;endpoints&quot;:[[&quot;Point&quot;,974.25,465.07143],[&quot;Point&quot;,998.25,465.07143]]}" opacity="0"/><line x1="974.25" y1="465.07143" x2="962.25" y2="485.85714" data-paper-data="{&quot;endpoints&quot;:[[&quot;Point&quot;,974.25,465.07143],[&quot;Point&quot;,962.25,485.85714]]}" opacity="0"/><line x1="974.25" y1="465.07143" x2="998.25" y2="465.03571" data-paper-data="{&quot;endpoints&quot;:[[&quot;Point&quot;,974.25,465.07143],[&quot;Point&quot;,998.25,465.03571]]}" opacity="0"/><line x1="974.25" y1="465.07143" x2="974.25" y2="465.03571" data-paper-data="{&quot;endpoints&quot;:[[&quot;Point&quot;,974.25,465.07143],[&quot;Point&quot;,974.25,465.03571]]}" opacity="0"/><line x1="974.25" y1="465.07143" x2="1010.25" y2="485.85714" data-paper-data="{&quot;endpoints&quot;:[[&quot;Point&quot;,974.25,465.07143],[&quot;Point&quot;,1010.25,485.85714]]}" opacity="0"/><line x1="974.25" y1="465.07143" x2="986.25" y2="485.85714" data-paper-data="{&quot;endpoints&quot;:[[&quot;Point&quot;,974.25,465.07143],[&quot;Point&quot;,986.25,485.85714]]}" opacity="0"/><line x1="974.25" y1="465.07143" x2="986.25" y2="444.28571" data-paper-data="{&quot;endpoints&quot;:[[&quot;Point&quot;,974.25,465.07143],[&quot;Point&quot;,986.25,444.28571]]}" opacity="0"/><line x1="998.25" y1="465.07143" x2="962.25" y2="485.85714" data-paper-data="{&quot;endpoints&quot;:[[&quot;Point&quot;,998.25,465.07143],[&quot;Point&quot;,962.25,485.85714]]}" opacity="0"/><line x1="998.25" y1="465.07143" x2="998.25" y2="465.03571" data-paper-data="{&quot;endpoints&quot;:[[&quot;Point&quot;,998.25,465.07143],[&quot;Point&quot;,998.25,465.03571]]}" opacity="0"/><line x1="998.25" y1="465.07143" x2="974.25" y2="465.03571" data-paper-data="{&quot;endpoints&quot;:[[&quot;Point&quot;,998.25,465.07143],[&quot;Point&quot;,974.25,465.03571]]}" opacity="0"/><line x1="998.25" y1="465.07143" x2="1010.25" y2="485.85714" data-paper-data="{&quot;endpoints&quot;:[[&quot;Point&quot;,998.25,465.07143],[&quot;Point&quot;,1010.25,485.85714]]}" opacity="0"/><line x1="998.25" y1="465.07143" x2="986.25" y2="485.85714" data-paper-data="{&quot;endpoints&quot;:[[&quot;Point&quot;,998.25,465.07143],[&quot;Point&quot;,986.25,485.85714]]}" opacity="0"/><line x1="998.25" y1="465.07143" x2="986.25" y2="444.28571" data-paper-data="{&quot;endpoints&quot;:[[&quot;Point&quot;,998.25,465.07143],[&quot;Point&quot;,986.25,444.28571]]}" opacity="0"/><line x1="962.25" y1="485.85714" x2="998.25" y2="465.03571" data-paper-data="{&quot;endpoints&quot;:[[&quot;Point&quot;,962.25,485.85714],[&quot;Point&quot;,998.25,465.03571]]}" opacity="0"/><line x1="962.25" y1="485.85714" x2="974.25" y2="465.03571" data-paper-data="{&quot;endpoints&quot;:[[&quot;Point&quot;,962.25,485.85714],[&quot;Point&quot;,974.25,465.03571]]}" opacity="0"/><line x1="962.25" y1="485.85714" x2="1010.25" y2="485.85714" data-paper-data="{&quot;endpoints&quot;:[[&quot;Point&quot;,962.25,485.85714],[&quot;Point&quot;,1010.25,485.85714]]}" opacity="0"/><line x1="962.25" y1="485.85714" x2="986.25" y2="485.85714" data-paper-data="{&quot;endpoints&quot;:[[&quot;Point&quot;,962.25,485.85714],[&quot;Point&quot;,986.25,485.85714]]}" opacity="0"/><line x1="962.25" y1="485.85714" x2="986.25" y2="444.28571" data-paper-data="{&quot;endpoints&quot;:[[&quot;Point&quot;,962.25,485.85714],[&quot;Point&quot;,986.25,444.28571]]}" opacity="0"/><line x1="998.25" y1="465.03571" x2="974.25" y2="465.03571" data-paper-data="{&quot;endpoints&quot;:[[&quot;Point&quot;,998.25,465.03571],[&quot;Point&quot;,974.25,465.03571]]}" opacity="0"/><line x1="998.25" y1="465.03571" x2="1010.25" y2="485.85714" data-paper-data="{&quot;endpoints&quot;:[[&quot;Point&quot;,998.25,465.03571],[&quot;Point&quot;,1010.25,485.85714]]}" opacity="0"/><line x1="998.25" y1="465.03571" x2="986.25" y2="485.85714" data-paper-data="{&quot;endpoints&quot;:[[&quot;Point&quot;,998.25,465.03571],[&quot;Point&quot;,986.25,485.85714]]}" opacity="0"/><line x1="998.25" y1="465.03571" x2="986.25" y2="444.28571" data-paper-data="{&quot;endpoints&quot;:[[&quot;Point&quot;,998.25,465.03571],[&quot;Point&quot;,986.25,444.28571]]}" opacity="0"/><line x1="974.25" y1="465.03571" x2="1010.25" y2="485.85714" data-paper-data="{&quot;endpoints&quot;:[[&quot;Point&quot;,974.25,465.03571],[&quot;Point&quot;,1010.25,485.85714]]}" opacity="0"/><line x1="974.25" y1="465.03571" x2="986.25" y2="485.85714" data-paper-data="{&quot;endpoints&quot;:[[&quot;Point&quot;,974.25,465.03571],[&quot;Point&quot;,986.25,485.85714]]}" opacity="0"/><line x1="974.25" y1="465.03571" x2="986.25" y2="444.28571" data-paper-data="{&quot;endpoints&quot;:[[&quot;Point&quot;,974.25,465.03571],[&quot;Point&quot;,986.25,444.28571]]}" opacity="0"/><line x1="1010.25" y1="485.85714" x2="986.25" y2="485.85714" data-paper-data="{&quot;endpoints&quot;:[[&quot;Point&quot;,1010.25,485.85714],[&quot;Point&quot;,986.25,485.85714]]}" opacity="0"/><line x1="1010.25" y1="485.85714" x2="986.25" y2="444.28571" data-paper-data="{&quot;endpoints&quot;:[[&quot;Point&quot;,1010.25,485.85714],[&quot;Point&quot;,986.25,444.28571]]}" opacity="0"/><line x1="986.25" y1="485.85714" x2="986.25" y2="444.28571" data-paper-data="{&quot;endpoints&quot;:[[&quot;Point&quot;,986.25,485.85714],[&quot;Point&quot;,986.25,444.28571]]}" opacity="0"/></g><rect x="657.5" y="606.66667" width="12.5" height="1.66667" stroke="#000000" stroke-width="0.5" stroke-linecap="butt" opacity="0"/><g stroke="#ffffff" stroke-width="0.5" stroke-linecap="round"><circle cx="-857.98543" cy="271.07436" transform="rotate(-120)" r="24" data-paper-data="{&quot;index&quot;:0}" opacity="0"/><circle cx="-833.98448" cy="271.07491" transform="rotate(-120)" r="24" data-paper-data="{&quot;index&quot;:1}" opacity="0"/><circle cx="-845.98448" cy="291.85952" transform="rotate(-120)" r="24" data-paper-data="{&quot;index&quot;:2}" opacity="0"/><circle cx="657.75" cy="597.10714" r="20.78571"/><circle cx="669.75" cy="597.10714" r="20.78571"/><circle cx="663.75" cy="586.71429" r="20.78571"/><circle cx="657.75" cy="597.10714" r="12"/><circle cx="669.75" cy="597.10714" r="12"/><circle cx="663.75" cy="586.71429" r="12"/><circle cx="663.75" cy="593.64286" r="13.85714"/><circle cx="663.75" cy="593.64286" r="10.14286"/></g><rect x="765" y="606.66667" width="12.5" height="1.66667" stroke="#000000" stroke-width="0.5" stroke-linecap="butt" opacity="0"/><g stroke="#ffffff" stroke-width="0.5" stroke-linecap="round"><circle cx="-911.73543" cy="364.17209" transform="rotate(-120)" r="24" data-paper-data="{&quot;index&quot;:0}" opacity="0"/><circle cx="-887.73448" cy="364.17264" transform="rotate(-120)" r="24" data-paper-data="{&quot;index&quot;:1}" opacity="0"/><circle cx="-899.73448" cy="384.95725" transform="rotate(-120)" r="24" data-paper-data="{&quot;index&quot;:2}" opacity="0"/><circle cx="765.25" cy="597.10714" r="20.78571"/><circle cx="777.25" cy="597.10714" r="20.78571"/><circle cx="771.25" cy="586.71429" r="20.78571"/><circle cx="765.25" cy="597.10714" r="12"/><circle cx="777.25" cy="597.10714" r="12"/><circle cx="771.25" cy="586.71429" r="12"/></g><rect x="872.5" y="606.66667" width="12.5" height="1.66667" stroke="#000000" stroke-width="0.5" stroke-linecap="butt" opacity="0"/><g stroke="#ffffff" stroke-width="0.5" stroke-linecap="round"><circle cx="-965.48543" cy="457.26982" transform="rotate(-120)" r="24" data-paper-data="{&quot;index&quot;:0}" opacity="0"/><circle cx="-941.48448" cy="457.27038" transform="rotate(-120)" r="24" data-paper-data="{&quot;index&quot;:1}" opacity="0"/><circle cx="-953.48448" cy="478.05499" transform="rotate(-120)" r="24" data-paper-data="{&quot;index&quot;:2}" opacity="0"/><circle cx="878.75" cy="593.64286" r="13.85714"/><circle cx="878.75" cy="593.64286" r="10.14286"/></g><rect x="980" y="606.66667" width="12.5" height="1.66667" stroke="#000000" stroke-width="0.5" stroke-linecap="butt" opacity="0"/><g stroke="#ffffff" stroke-width="0.5" stroke-linecap="round"><circle cx="-1019.23543" cy="550.36755" transform="rotate(-120)" r="24" data-paper-data="{&quot;index&quot;:0}" opacity="0"/><circle cx="-995.23448" cy="550.36811" transform="rotate(-120)" r="24" data-paper-data="{&quot;index&quot;:1}" opacity="0"/><circle cx="-1007.23448" cy="571.15272" transform="rotate(-120)" r="24" data-paper-data="{&quot;index&quot;:2}" opacity="0"/></g><rect x="657.5" y="728.33333" width="12.5" height="1.66667" stroke="#000000" stroke-width="0.5" stroke-linecap="butt" opacity="0"/><g stroke="#ffffff" stroke-width="0.5" stroke-linecap="round"><circle cx="-963.36217" cy="210.23508" transform="rotate(-120)" r="24" data-paper-data="{&quot;index&quot;:0}" opacity="0"/><circle cx="-939.36121" cy="210.23563" transform="rotate(-120)" r="24" data-paper-data="{&quot;index&quot;:1}" opacity="0"/><circle cx="-951.36121" cy="231.02024" transform="rotate(-120)" r="24" data-paper-data="{&quot;index&quot;:2}" opacity="0"/><circle cx="663.75" cy="715.32143" r="1.5" fill="#ffffff"/><line x1="663.75" y1="729.17857" x2="651.75" y2="708.39286" data-paper-data="{&quot;endpoints&quot;:[[&quot;Point&quot;,663.75,729.17857],[&quot;Point&quot;,651.75,708.39286]]}" opacity="0"/><line x1="663.75" y1="729.17857" x2="675.75" y2="708.39286" data-paper-data="{&quot;endpoints&quot;:[[&quot;Point&quot;,663.75,729.17857],[&quot;Point&quot;,675.75,708.39286]]}" opacity="0"/><line x1="663.75" y1="729.17857" x2="639.75" y2="729.17857" data-paper-data="{&quot;endpoints&quot;:[[&quot;Point&quot;,663.75,729.17857],[&quot;Point&quot;,639.75,729.17857]]}" opacity="0"/><line x1="663.75" y1="729.17857" x2="687.75" y2="729.17857" data-paper-data="{&quot;endpoints&quot;:[[&quot;Point&quot;,663.75,729.17857],[&quot;Point&quot;,687.75,729.17857]]}" opacity="0"/><line x1="663.75" y1="729.17857" x2="663.75" y2="687.60714" data-paper-data="{&quot;endpoints&quot;:[[&quot;Point&quot;,663.75,729.17857],[&quot;Point&quot;,663.75,687.60714]]}"/><line x1="651.75" y1="708.39286" x2="675.75" y2="708.39286" data-paper-data="{&quot;endpoints&quot;:[[&quot;Point&quot;,651.75,708.39286],[&quot;Point&quot;,675.75,708.39286]]}" opacity="0"/><line x1="651.75" y1="708.39286" x2="639.75" y2="729.17857" data-paper-data="{&quot;endpoints&quot;:[[&quot;Point&quot;,651.75,708.39286],[&quot;Point&quot;,639.75,729.17857]]}" opacity="0"/><line x1="651.75" y1="708.39286" x2="687.75" y2="729.17857" data-paper-data="{&quot;endpoints&quot;:[[&quot;Point&quot;,651.75,708.39286],[&quot;Point&quot;,687.75,729.17857]]}"/><line x1="651.75" y1="708.39286" x2="663.75" y2="687.60714" data-paper-data="{&quot;endpoints&quot;:[[&quot;Point&quot;,651.75,708.39286],[&quot;Point&quot;,663.75,687.60714]]}" opacity="0"/><line x1="675.75" y1="708.39286" x2="639.75" y2="729.17857" data-paper-data="{&quot;endpoints&quot;:[[&quot;Point&quot;,675.75,708.39286],[&quot;Point&quot;,639.75,729.17857]]}"/><line x1="675.75" y1="708.39286" x2="687.75" y2="729.17857" data-paper-data="{&quot;endpoints&quot;:[[&quot;Point&quot;,675.75,708.39286],[&quot;Point&quot;,687.75,729.17857]]}" opacity="0"/><line x1="675.75" y1="708.39286" x2="663.75" y2="687.60714" data-paper-data="{&quot;endpoints&quot;:[[&quot;Point&quot;,675.75,708.39286],[&quot;Point&quot;,663.75,687.60714]]}" opacity="0"/><line x1="639.75" y1="729.17857" x2="687.75" y2="729.17857" data-paper-data="{&quot;endpoints&quot;:[[&quot;Point&quot;,639.75,729.17857],[&quot;Point&quot;,687.75,729.17857]]}" opacity="0"/><line x1="639.75" y1="729.17857" x2="663.75" y2="687.60714" data-paper-data="{&quot;endpoints&quot;:[[&quot;Point&quot;,639.75,729.17857],[&quot;Point&quot;,663.75,687.60714]]}" opacity="0"/><line x1="687.75" y1="729.17857" x2="663.75" y2="687.60714" data-paper-data="{&quot;endpoints&quot;:[[&quot;Point&quot;,687.75,729.17857],[&quot;Point&quot;,663.75,687.60714]]}" opacity="0"/><circle cx="663.75" cy="715.32143" r="13.85714"/><circle cx="663.75" cy="715.32143" r="13.85659"/><circle cx="663.75" cy="715.32143" r="13.85659"/><circle cx="663.75" cy="715.32143" r="27.71318"/><circle cx="663.75" cy="715.32143" r="27.71318"/><circle cx="663.75" cy="715.32143" r="27.71429"/></g><rect x="765" y="728.33333" width="12.5" height="1.66667" stroke="#000000" stroke-width="0.5" stroke-linecap="butt" opacity="0"/><g stroke="#ffffff" stroke-width="0.5" stroke-linecap="round"><circle cx="-1017.11217" cy="303.33281" transform="rotate(-120)" r="24" data-paper-data="{&quot;index&quot;:0}" opacity="0"/><circle cx="-993.11121" cy="303.33336" transform="rotate(-120)" r="24" data-paper-data="{&quot;index&quot;:1}" opacity="0"/><circle cx="-1005.11121" cy="324.11797" transform="rotate(-120)" r="24" data-paper-data="{&quot;index&quot;:2}" opacity="0"/><circle cx="771.25" cy="715.32143" r="1.5" fill="#ffffff"/></g><rect x="872.5" y="728.33333" width="12.5" height="1.66667" stroke="#000000" stroke-width="0.5" stroke-linecap="butt" opacity="0"/><g stroke="#ffffff" stroke-width="0.5" stroke-linecap="round"><circle cx="-1070.86217" cy="396.43054" transform="rotate(-120)" r="24" data-paper-data="{&quot;index&quot;:0}" opacity="0"/><circle cx="-1046.86121" cy="396.43109" transform="rotate(-120)" r="24" data-paper-data="{&quot;index&quot;:1}" opacity="0"/><circle cx="-1058.86121" cy="417.2157" transform="rotate(-120)" r="24" data-paper-data="{&quot;index&quot;:2}" opacity="0"/><line x1="878.75" y1="729.17857" x2="866.75" y2="708.39286" data-paper-data="{&quot;endpoints&quot;:[[&quot;Point&quot;,878.75,729.17857],[&quot;Point&quot;,866.75,708.39286]]}" opacity="0"/><line x1="878.75" y1="729.17857" x2="890.75" y2="708.39286" data-paper-data="{&quot;endpoints&quot;:[[&quot;Point&quot;,878.75,729.17857],[&quot;Point&quot;,890.75,708.39286]]}" opacity="0"/><line x1="878.75" y1="729.17857" x2="854.75" y2="729.17857" data-paper-data="{&quot;endpoints&quot;:[[&quot;Point&quot;,878.75,729.17857],[&quot;Point&quot;,854.75,729.17857]]}" opacity="0"/><line x1="878.75" y1="729.17857" x2="902.75" y2="729.17857" data-paper-data="{&quot;endpoints&quot;:[[&quot;Point&quot;,878.75,729.17857],[&quot;Point&quot;,902.75,729.17857]]}" opacity="0"/><line x1="878.75" y1="729.17857" x2="878.75" y2="687.60714" data-paper-data="{&quot;endpoints&quot;:[[&quot;Point&quot;,878.75,729.17857],[&quot;Point&quot;,878.75,687.60714]]}"/><line x1="866.75" y1="708.39286" x2="890.75" y2="708.39286" data-paper-data="{&quot;endpoints&quot;:[[&quot;Point&quot;,866.75,708.39286],[&quot;Point&quot;,890.75,708.39286]]}" opacity="0"/><line x1="866.75" y1="708.39286" x2="854.75" y2="729.17857" data-paper-data="{&quot;endpoints&quot;:[[&quot;Point&quot;,866.75,708.39286],[&quot;Point&quot;,854.75,729.17857]]}" opacity="0"/><line x1="866.75" y1="708.39286" x2="902.75" y2="729.17857" data-paper-data="{&quot;endpoints&quot;:[[&quot;Point&quot;,866.75,708.39286],[&quot;Point&quot;,902.75,729.17857]]}"/><line x1="866.75" y1="708.39286" x2="878.75" y2="687.60714" data-paper-data="{&quot;endpoints&quot;:[[&quot;Point&quot;,866.75,708.39286],[&quot;Point&quot;,878.75,687.60714]]}" opacity="0"/><line x1="890.75" y1="708.39286" x2="854.75" y2="729.17857" data-paper-data="{&quot;endpoints&quot;:[[&quot;Point&quot;,890.75,708.39286],[&quot;Point&quot;,854.75,729.17857]]}"/><line x1="890.75" y1="708.39286" x2="902.75" y2="729.17857" data-paper-data="{&quot;endpoints&quot;:[[&quot;Point&quot;,890.75,708.39286],[&quot;Point&quot;,902.75,729.17857]]}" opacity="0"/><line x1="890.75" y1="708.39286" x2="878.75" y2="687.60714" data-paper-data="{&quot;endpoints&quot;:[[&quot;Point&quot;,890.75,708.39286],[&quot;Point&quot;,878.75,687.60714]]}" opacity="0"/><line x1="854.75" y1="729.17857" x2="902.75" y2="729.17857" data-paper-data="{&quot;endpoints&quot;:[[&quot;Point&quot;,854.75,729.17857],[&quot;Point&quot;,902.75,729.17857]]}" opacity="0"/><line x1="854.75" y1="729.17857" x2="878.75" y2="687.60714" data-paper-data="{&quot;endpoints&quot;:[[&quot;Point&quot;,854.75,729.17857],[&quot;Point&quot;,878.75,687.60714]]}" opacity="0"/><line x1="902.75" y1="729.17857" x2="878.75" y2="687.60714" data-paper-data="{&quot;endpoints&quot;:[[&quot;Point&quot;,902.75,729.17857],[&quot;Point&quot;,878.75,687.60714]]}" opacity="0"/></g><rect x="980" y="728.33333" width="12.5" height="1.66667" stroke="#000000" stroke-width="0.5" stroke-linecap="butt" opacity="0"/><g stroke="#ffffff" stroke-width="0.5" stroke-linecap="round"><circle cx="-1124.61217" cy="489.52827" transform="rotate(-120)" r="24" data-paper-data="{&quot;index&quot;:0}" opacity="0"/><circle cx="-1100.61121" cy="489.52882" transform="rotate(-120)" r="24" data-paper-data="{&quot;index&quot;:1}" opacity="0"/><circle cx="-1112.61121" cy="510.31343" transform="rotate(-120)" r="24" data-paper-data="{&quot;index&quot;:2}" opacity="0"/><circle cx="986.25" cy="715.32143" r="13.85714"/><circle cx="986.25" cy="715.32143" r="13.85659"/><circle cx="986.25" cy="715.32143" r="13.85659"/><circle cx="986.25" cy="715.32143" r="27.71318"/><circle cx="986.25" cy="715.32143" r="27.71318"/><circle cx="986.25" cy="715.32143" r="27.71429"/></g></g></svg>