<svg x="0" y="0" width="1100" height="850" version="1.1" xmlns="http://www.w3.org/2000/svg" xmlns:xlink="http://www.w3.org/1999/xlink"><g fill="none" stroke="none" stroke-width="none" stroke-linecap="none" stroke-linejoin="miter" stroke-miterlimit="10" stroke-dasharray="" stroke-dashoffset="0" font-family="sans-serif" font-size="12" text-anchor="start" mix-blend-mode="normal"><rect x="20" y="25" width="510" height="800" fill="#000000" stroke-width="1" stroke-linecap="butt"/><g stroke-width="1" stroke-linecap="butt"/><rect x="-120" y="-120" transform="rotate(180)" width="34" height="19" stroke="#000000" stroke-width="0.5" stroke-linecap="butt" opacity="0"/><g stroke="#ffffff" stroke-width="0.5" stroke-linecap="round"><circle cx="-103" cy="-110.5" transform="rotate(180)" r="20" data-paper-data="{&quot;index&quot;:0}"/></g><rect x="-292" y="-120" transform="rotate(180)" width="34" height="19" stroke="#000000" stroke-width="0.5" stroke-linecap="butt" opacity="0"/><g stroke="#ffffff" stroke-width="0.5" stroke-linecap="round"><circle cx="-275" cy="-110.5" transform="rotate(180)" r="20" data-paper-data="{&quot;index&quot;:0}" opacity="0"/></g><rect x="-378" y="-120" transform="rotate(180)" width="34" height="19" stroke="#000000" stroke-width="0.5" stroke-linecap="butt" opacity="0"/><g stroke="#ffffff" stroke-width="0.5" stroke-linecap="round"><circle cx="-361" cy="-110.5" transform="rotate(180)" r="20" data-paper-data="{&quot;index&quot;:0}" opacity="0"/></g><rect x="-464" y="-120" transform="rotate(180)" width="34" height="19" stroke="#000000" stroke-width="0.5" stroke-linecap="butt" opacity="0"/><g stroke="#ffffff" stroke-width="0.5" stroke-linecap="round"><circle cx="-447" cy="-110.5" transform="rotate(180)" r="20" data-paper-data="{&quot;index&quot;:0}" opacity="0"/></g><rect x="-120" y="-221" transform="rotate(180)" width="34" height="19" stroke="#000000" stroke-width="0.5" stroke-linecap="butt" opacity="0"/><g stroke="#ffffff" stroke-width="0.5" stroke-linecap="round"><circle cx="-211.5" cy="103" transform="rotate(-90)" r="20" data-paper-data="{&quot;index&quot;:0}"/><circle cx="-191.5" cy="103" transform="rotate(-90)" r="20" data-paper-data="{&quot;index&quot;:1}"/></g><rect x="-292" y="-221" transform="rotate(180)" width="34" height="19" stroke="#000000" stroke-width="0.5" stroke-linecap="butt" opacity="0"/><g stroke="#ffffff" stroke-width="0.5" stroke-linecap="round"><circle cx="-211.5" cy="275" transform="rotate(-90)" r="20" data-paper-data="{&quot;index&quot;:0}" opacity="0"/><circle cx="-191.5" cy="275" transform="rotate(-90)" r="20" data-paper-data="{&quot;index&quot;:1}" opacity="0"/></g><rect x="-378" y="-221" transform="rotate(180)" width="34" height="19" stroke="#000000" stroke-width="0.5" stroke-linecap="butt" opacity="0"/><g stroke="#ffffff" stroke-width="0.5" stroke-linecap="round"><circle cx="-211.5" cy="361" transform="rotate(-90)" r="20" data-paper-data="{&quot;index&quot;:0}" opacity="0"/><circle cx="-191.5" cy="361" transform="rotate(-90)" r="20" data-paper-data="{&quot;index&quot;:1}" opacity="0"/></g><rect x="-464" y="-221" transform="rotate(180)" width="34" height="19" stroke="#000000" stroke-width="0.5" stroke-linecap="butt" opacity="0"/><g stroke="#ffffff" stroke-width="0.5"><circle cx="-211.5" cy="447" transform="rotate(-90)" r="20" data-paper-data="{&quot;index&quot;:0}" stroke-linecap="round" opacity="0"/><circle cx="-191.5" cy="447" transform="rotate(-90)" r="20" data-paper-data="{&quot;index&quot;:1}" stroke-linecap="round" opacity="0"/><path d="M447,191.5c7.40282,0 13.86626,4.02199 17.32436,10c-3.45809,5.97801 -9.92153,10 -17.32436,10c-7.40282,0 -13.86626,-4.02199 -17.32436,-10c3.45809,-5.97801 9.92153,-10 17.32436,-10z" stroke-linecap="butt"/></g><rect x="-120" y="-322" transform="rotate(180)" width="34" height="19" stroke="#000000" stroke-width="0.5" stroke-linecap="butt" opacity="0"/><g stroke="#ffffff" stroke-width="0.5" stroke-linecap="round"><circle cx="-322.13294" cy="-67.04938" transform="rotate(-120)" r="20" data-paper-data="{&quot;index&quot;:0}"/><circle cx="-302.13214" cy="-67.04892" transform="rotate(-120)" r="20" data-paper-data="{&quot;index&quot;:1}"/><circle cx="-312.13214" cy="-49.72842" transform="rotate(-120)" r="20" data-paper-data="{&quot;index&quot;:2}"/></g><rect x="-292" y="-322" transform="rotate(180)" width="34" height="19" stroke="#000000" stroke-width="0.5" stroke-linecap="butt" opacity="0"/><g stroke="#ffffff" stroke-width="0.5" stroke-linecap="round"><circle cx="-408.13294" cy="81.90699" transform="rotate(-120)" r="20" data-paper-data="{&quot;index&quot;:0}" opacity="0"/><circle cx="-388.13214" cy="81.90745" transform="rotate(-120)" r="20" data-paper-data="{&quot;index&quot;:1}" opacity="0"/><circle cx="-398.13214" cy="99.22795" transform="rotate(-120)" r="20" data-paper-data="{&quot;index&quot;:2}" opacity="0"/></g><rect x="-378" y="-322" transform="rotate(180)" width="34" height="19" stroke="#000000" stroke-width="0.5" stroke-linecap="butt" opacity="0"/><g stroke="#ffffff" stroke-width="0.5"><circle cx="-451.13294" cy="156.38517" transform="rotate(-120)" r="20" data-paper-data="{&quot;index&quot;:0}" stroke-linecap="round" opacity="0"/><circle cx="-431.13214" cy="156.38563" transform="rotate(-120)" r="20" data-paper-data="{&quot;index&quot;:1}" stroke-linecap="round" opacity="0"/><circle cx="-441.13214" cy="173.70614" transform="rotate(-120)" r="20" data-paper-data="{&quot;index&quot;:2}" stroke-linecap="round" opacity="0"/><path d="M351,295.17949c6.41103,-3.70141 14.01953,-3.44999 20.00333,-0.00192c-0.00611,6.90584 -3.59258,13.62026 -10.00333,17.32151c-0.00112,0.00064 -0.00223,0.00129 -0.00335,0.00193c-2.94459,-1.69677 -5.49572,-4.16762 -7.31716,-7.32244c-1.82127,-3.15453 -2.68552,-6.59899 -2.68283,-9.99715c0.00111,-0.00064 0.00222,-0.00128 0.00333,-0.00192z" stroke-linecap="butt"/></g><path d="M381.00333,312.49715c-0.00111,0.00064 -0.00222,0.00128 -0.00333,0.00192c-9.56585,5.52285 -21.79766,2.24534 -27.32051,-7.32051c-1.82127,-3.15453 -2.68552,-6.59899 -2.68283,-9.99715c0.00111,-0.00064 0.00222,-0.00128 0.00333,-0.00192c9.56585,-5.52285 21.79766,-2.24534 27.32051,7.32051c1.82128,3.15456 2.68553,6.59896 2.68283,9.99715z" stroke-width="1" stroke-linecap="butt"/><rect x="-464" y="-322" transform="rotate(180)" width="34" height="19" stroke="#000000" stroke-width="0.5" stroke-linecap="butt" opacity="0"/><g stroke="#ffffff" stroke-width="0.5"><circle cx="-494.13294" cy="230.86336" transform="rotate(-120)" r="20" data-paper-data="{&quot;index&quot;:0}" stroke-linecap="round" opacity="0"/><circle cx="-474.13214" cy="230.86382" transform="rotate(-120)" r="20" data-paper-data="{&quot;index&quot;:1}" stroke-linecap="round" opacity="0"/><circle cx="-484.13214" cy="248.18432" transform="rotate(-120)" r="20" data-paper-data="{&quot;index&quot;:2}" stroke-linecap="round" opacity="0"/><path d="M437,295.17949c6.41103,-3.70141 14.01953,-3.44999 20.00333,-0.00192c-0.00611,6.90584 -3.59258,13.62026 -10.00333,17.32151c-6.41103,3.70141 -14.01953,3.44999 -20.00333,0.00192c0.00611,-6.90584 3.59258,-13.62026 10.00333,-17.32151z" stroke-linecap="butt"/><path d="M464.32051,302.5c1.82127,3.15453 2.68552,6.59899 2.68283,9.99715c-0.00111,0.00064 -0.00222,0.00128 -0.00333,0.00192c-9.56585,5.52285 -21.79766,2.24534 -27.32051,-7.32051c-1.82127,-3.15453 -2.68552,-6.59899 -2.68283,-9.99715c0.00111,-0.00064 0.00222,-0.00128 0.00333,-0.00192c9.56585,-5.52285 21.79766,-2.24534 27.32051,7.32051z" stroke-linecap="butt"/><path d="M454.32051,285.17857c5.52285,9.56585 2.24534,21.79766 -7.32051,27.32051c-0.00111,0.00064 -0.00222,0.00128 -0.00333,0.00192c-2.9446,-1.69677 -5.49573,-4.1676 -7.31718,-7.32243c-5.52285,-9.56585 -2.24534,-21.79766 7.32051,-27.32051c0.00112,-0.00064 0.00223,-0.00129 0.00335,-0.00193c2.94459,1.69677 5.49572,4.16762 7.31716,7.32244z" stroke-linecap="butt"/></g><rect x="-120" y="-423" transform="rotate(180)" width="34" height="19" stroke="#000000" stroke-width="0.5" stroke-linecap="butt" opacity="0"/><g stroke="#ffffff" stroke-width="0.5" stroke-linecap="round"><circle cx="-295.95062" cy="-306.6015" transform="rotate(-150)" r="20" data-paper-data="{&quot;index&quot;:0}"/><circle cx="-275.94982" cy="-306.60196" transform="rotate(-150)" r="20" data-paper-data="{&quot;index&quot;:1}"/><circle cx="-285.95062" cy="-289.281" transform="rotate(-150)" r="20" data-paper-data="{&quot;index&quot;:2}"/><circle cx="-305.95141" cy="-289.28054" transform="rotate(-150)" r="20" data-paper-data="{&quot;index&quot;:3}"/></g><rect x="-292" y="-423" transform="rotate(180)" width="34" height="19" stroke="#000000" stroke-width="0.5" stroke-linecap="butt" opacity="0"/><g stroke="#ffffff" stroke-width="0.5"><circle cx="-444.90699" cy="-220.6015" transform="rotate(-150)" r="20" data-paper-data="{&quot;index&quot;:0}" stroke-linecap="round" opacity="0"/><circle cx="-424.90619" cy="-220.60196" transform="rotate(-150)" r="20" data-paper-data="{&quot;index&quot;:1}" stroke-linecap="round" opacity="0"/><circle cx="-434.90699" cy="-203.281" transform="rotate(-150)" r="20" data-paper-data="{&quot;index&quot;:2}" stroke-linecap="round" opacity="0"/><circle cx="-454.90778" cy="-203.28054" transform="rotate(-150)" r="20" data-paper-data="{&quot;index&quot;:3}" stroke-linecap="round" opacity="0"/><path d="M275.00193,393.49827c3.44719,5.98356 3.69824,13.59127 -0.00285,20.00173c-0.00033,0.00058 -0.00067,0.00116 -0.001,0.00174c-3.44718,-5.98356 -3.69824,-13.59128 0.00284,-20.00174c0.00033,-0.00058 0.00067,-0.00115 0.00101,-0.00173z" stroke-linecap="butt"/></g><rect x="-378" y="-423" transform="rotate(180)" width="34" height="19" stroke="#000000" stroke-width="0.5" stroke-linecap="butt" opacity="0"/><g stroke="#ffffff" stroke-width="0.5"><circle cx="-519.38517" cy="-177.6015" transform="rotate(-150)" r="20" data-paper-data="{&quot;index&quot;:0}" stroke-linecap="round" opacity="0"/><circle cx="-499.38437" cy="-177.60196" transform="rotate(-150)" r="20" data-paper-data="{&quot;index&quot;:1}" stroke-linecap="round" opacity="0"/><circle cx="-509.38517" cy="-160.281" transform="rotate(-150)" r="20" data-paper-data="{&quot;index&quot;:2}" stroke-linecap="round" opacity="0"/><circle cx="-529.38597" cy="-160.28054" transform="rotate(-150)" r="20" data-paper-data="{&quot;index&quot;:3}" stroke-linecap="round" opacity="0"/><path d="M343.67949,403.5c3.70125,-6.41075 10.41568,-9.99722 17.32151,-10.00333c3.44806,5.9838 3.69949,13.5923 -0.00192,20.00333c-0.00064,0.00112 -0.00129,0.00223 -0.00193,0.00335c-3.39817,0.00269 -6.84261,-0.86157 -9.99715,-2.68284c-3.15482,-1.82144 -5.62567,-4.37259 -7.32243,-7.31718c0.00064,-0.00111 0.00128,-0.00222 0.00192,-0.00333z" stroke-linecap="butt"/><path d="M360.999,413.50333c-3.44806,-5.9838 -3.69949,-13.5923 0.00192,-20.00333c0.00064,-0.00111 0.00128,-0.00222 0.00192,-0.00333c3.39817,-0.00269 6.84262,0.86155 9.99715,2.68283c3.15482,1.82144 5.62567,4.37259 7.32243,7.31718c-0.00064,0.00111 -0.00128,0.00222 -0.00192,0.00333c-3.70125,6.41075 -10.41568,9.99722 -17.32151,10.00333z" stroke-linecap="butt"/></g><path d="M378.32243,403.49667c-0.00064,0.00111 -0.00128,0.00222 -0.00192,0.00333c-5.52285,9.56585 -17.75466,12.84336 -27.32051,7.32051c-3.15482,-1.82144 -5.62567,-4.37259 -7.32243,-7.31718c0.00064,-0.00111 0.00128,-0.00222 0.00192,-0.00333c5.52285,-9.56585 17.75466,-12.84336 27.32051,-7.32051c3.15482,1.82144 5.62567,4.37259 7.32243,7.31718z" stroke-width="1" stroke-linecap="butt"/><path d="M361.00092,393.5c0.00064,-0.00111 0.00128,-0.00222 0.00192,-0.00333c3.39817,-0.00269 6.84262,0.86155 9.99715,2.68283c9.56585,5.52285 12.84336,17.75466 7.32051,27.32051c-0.00064,0.00112 -0.00129,0.00223 -0.00193,0.00335c-3.39817,0.00269 -6.84261,-0.86157 -9.99715,-2.68284c-9.56585,-5.52285 -12.84336,-17.75466 -7.32051,-27.32051z" stroke-width="1" stroke-linecap="butt"/><rect x="-464" y="-423" transform="rotate(180)" width="34" height="19" stroke="#000000" stroke-width="0.5" stroke-linecap="butt" opacity="0"/><g stroke="#ffffff" stroke-width="0.5"><circle cx="-593.86336" cy="-134.6015" transform="rotate(-150)" r="20" data-paper-data="{&quot;index&quot;:0}" stroke-linecap="round" opacity="0"/><circle cx="-573.86256" cy="-134.60196" transform="rotate(-150)" r="20" data-paper-data="{&quot;index&quot;:1}" stroke-linecap="round" opacity="0"/><circle cx="-583.86336" cy="-117.281" transform="rotate(-150)" r="20" data-paper-data="{&quot;index&quot;:2}" stroke-linecap="round" opacity="0"/><circle cx="-603.86415" cy="-117.28054" transform="rotate(-150)" r="20" data-paper-data="{&quot;index&quot;:3}" stroke-linecap="round" opacity="0"/><path d="M429.67949,403.5c3.70125,-6.41075 10.41568,-9.99722 17.32151,-10.00333c3.44806,5.9838 3.69949,13.5923 -0.00192,20.00333c-3.70125,6.41075 -10.41568,9.99722 -17.32151,10.00333c-3.44806,-5.9838 -3.69949,-13.5923 0.00192,-20.00333z" stroke-linecap="butt"/><path d="M457,396.17949c3.15482,1.82144 5.62567,4.37259 7.32243,7.31718c-0.00064,0.00111 -0.00128,0.00222 -0.00192,0.00333c-5.52285,9.56585 -17.75466,12.84336 -27.32051,7.32051c-3.15484,-1.82145 -5.6257,-4.37263 -7.32247,-7.31724c0.00064,-0.00111 0.00132,-0.00216 0.00196,-0.00327c5.52285,-9.56585 17.75466,-12.84336 27.32051,-7.32051z" stroke-linecap="butt"/><path d="M457,396.17949c9.56585,5.52285 12.84336,17.75466 7.32051,27.32051c-0.00064,0.00111 -0.00128,0.00222 -0.00192,0.00333c-3.39818,0.0027 -6.84261,-0.86155 -9.99715,-2.68283c-9.56585,-5.52285 -12.84336,-17.75466 -7.32051,-27.32051c0.00064,-0.00112 0.00129,-0.00223 0.00193,-0.00335c3.39817,-0.00269 6.84261,0.86157 9.99715,2.68284z" stroke-linecap="butt"/><path d="M439.67857,386.17949c9.56585,5.52285 12.84336,17.75466 7.32051,27.32051c-0.00064,0.00111 -0.00128,0.00222 -0.00192,0.00333c-3.39818,0.0027 -6.84261,-0.86155 -9.99715,-2.68283c-9.56585,-5.52285 -12.84336,-17.75466 -7.32051,-27.32051c0.00064,-0.00112 0.00129,-0.00223 0.00193,-0.00335c3.39817,-0.00269 6.84261,0.86157 9.99715,2.68284z" stroke-linecap="butt"/><path d="M464.32243,383.49667c3.44806,5.9838 3.69949,13.5923 -0.00192,20.00333c-3.70125,6.41075 -10.41568,9.99722 -17.32151,10.00333c-3.44806,-5.9838 -3.69949,-13.5923 0.00192,-20.00333c3.70125,-6.41075 10.41568,-9.99722 17.32151,-10.00333z" stroke-linecap="butt"/></g><rect x="-120" y="-524" transform="rotate(180)" width="34" height="19" stroke="#000000" stroke-width="0.5" stroke-linecap="butt" opacity="0"/><g stroke="#ffffff" stroke-width="0.5" stroke-linecap="round"><circle cx="-103" cy="-514.5" transform="rotate(180)" r="20" data-paper-data="{&quot;index&quot;:0}"/><circle cx="-83" cy="-514.5" transform="rotate(180)" r="20" data-paper-data="{&quot;index&quot;:1}"/><circle cx="-93" cy="-497.17857" transform="rotate(180)" r="20" data-paper-data="{&quot;index&quot;:2}"/><circle cx="-113" cy="-497.17857" transform="rotate(180)" r="20" data-paper-data="{&quot;index&quot;:3}"/><circle cx="-123" cy="-514.5" transform="rotate(180)" r="20" data-paper-data="{&quot;index&quot;:4}"/></g><rect x="-292" y="-524" transform="rotate(180)" width="34" height="19" stroke="#000000" stroke-width="0.5" stroke-linecap="butt" opacity="0"/><g stroke="#ffffff" stroke-width="0.5"><circle cx="-275" cy="-514.5" transform="rotate(180)" r="20" data-paper-data="{&quot;index&quot;:0}" stroke-linecap="round" opacity="0"/><circle cx="-255" cy="-514.5" transform="rotate(180)" r="20" data-paper-data="{&quot;index&quot;:1}" stroke-linecap="round" opacity="0"/><circle cx="-265" cy="-497.17857" transform="rotate(180)" r="20" data-paper-data="{&quot;index&quot;:2}" stroke-linecap="round" opacity="0"/><circle cx="-285" cy="-497.17857" transform="rotate(180)" r="20" data-paper-data="{&quot;index&quot;:3}" stroke-linecap="round" opacity="0"/><circle cx="-295" cy="-514.5" transform="rotate(180)" r="20" data-paper-data="{&quot;index&quot;:4}" stroke-linecap="round" opacity="0"/><path d="M265,497.17565c5.97801,3.45809 10,9.92153 10,17.32435c0,0.00098 0,0.00195 0,0.00293c-5.978,-3.4581 -10,-9.92154 -10,-17.32436c0,-0.00098 0,-0.00195 0,-0.00292z" stroke-linecap="butt"/><path d="M285,497.17564c0,0.00098 0,0.00195 0,0.00293c0,7.40282 -4.02199,13.86626 -10,17.32436c0,-0.00098 0,-0.00195 0,-0.00293c0,-7.40282 4.02199,-13.86626 10,-17.32436z" stroke-linecap="butt"/></g><rect x="-378" y="-524" transform="rotate(180)" width="34" height="19" stroke="#000000" stroke-width="0.5" stroke-linecap="butt" opacity="0"/><g stroke="#ffffff" stroke-width="0.5"><circle cx="-361" cy="-514.5" transform="rotate(180)" r="20" data-paper-data="{&quot;index&quot;:0}" stroke-linecap="round" opacity="0"/><circle cx="-341" cy="-514.5" transform="rotate(180)" r="20" data-paper-data="{&quot;index&quot;:1}" stroke-linecap="round" opacity="0"/><circle cx="-351" cy="-497.17857" transform="rotate(180)" r="20" data-paper-data="{&quot;index&quot;:2}" stroke-linecap="round" opacity="0"/><circle cx="-371" cy="-497.17857" transform="rotate(180)" r="20" data-paper-data="{&quot;index&quot;:3}" stroke-linecap="round" opacity="0"/><circle cx="-381" cy="-514.5" transform="rotate(180)" r="20" data-paper-data="{&quot;index&quot;:4}" stroke-linecap="round" opacity="0"/><path d="M341,514.5c0,-7.40282 4.02199,-13.86626 10,-17.32436c5.97801,3.45809 10,9.92153 10,17.32436c0,0.00098 0,0.00196 0,0.00294c-2.94174,1.7017 -6.35712,2.67563 -10,2.67563c-3.64287,0 -7.05827,-0.97394 -10,-2.67564c0,-0.00098 0,-0.00195 0,-0.00293z" stroke-linecap="butt"/><path d="M361,514.50293c-5.97801,-3.45809 -10,-9.92153 -10,-17.32436c0,-0.00098 0,-0.00195 0,-0.00293c2.94173,-1.7017 6.35713,-2.67564 10,-2.67564c3.64287,0 7.05827,0.97394 10,2.67564c0,0.00098 0,0.00195 0,0.00293c0,7.40282 -4.02199,13.86626 -10,17.32436z" stroke-linecap="butt"/><path d="M361,514.50293c0,-0.00098 0,-0.00195 0,-0.00293c0,-7.40282 4.02199,-13.86626 10,-17.32436c5.97801,3.45809 10,9.92153 10,17.32436c0,0.00098 0,0.00195 0,0.00293c-2.94173,1.7017 -6.35713,2.67564 -10,2.67564c-3.64287,0 -7.05827,-0.97394 -10,-2.67564z" stroke-linecap="butt"/></g><path d="M371,497.17564c0,0.00098 0,0.00195 0,0.00293c0,11.04569 -8.95431,20 -20,20c-3.64287,0 -7.05827,-0.97394 -10,-2.67564c0,-0.00098 0,-0.00195 0,-0.00293c0,-11.04569 8.95431,-20 20,-20c3.64287,0 7.05827,0.97394 10,2.67564z" stroke-width="1" stroke-linecap="butt"/><path d="M351,497.17857c0,-0.00098 0,-0.00195 0,-0.00293c2.94173,-1.7017 6.35713,-2.67564 10,-2.67564c11.04569,0 20,8.95431 20,20c0,0.00098 0,0.00196 0,0.00294c-2.94174,1.7017 -6.35712,2.67563 -10,2.67563c-11.04569,0 -20,-8.95431 -20,-20z" stroke-width="1" stroke-linecap="butt"/><path d="M361,514.5c0,-7.40282 4.02199,-13.86626 10,-17.32436c5.97801,3.45809 10,9.92153 10,17.32436c0,7.40282 -4.02199,13.86626 -10,17.32436c-5.97801,-3.45809 -10,-9.92153 -10,-17.32436z" stroke-width="1" stroke-linecap="butt"/><rect x="-464" y="-524" transform="rotate(180)" width="34" height="19" stroke="#000000" stroke-width="0.5" stroke-linecap="butt" opacity="0"/><g stroke="#ffffff" stroke-width="0.5"><circle cx="-447" cy="-514.5" transform="rotate(180)" r="20" data-paper-data="{&quot;index&quot;:0}" stroke-linecap="round" opacity="0"/><circle cx="-427" cy="-514.5" transform="rotate(180)" r="20" data-paper-data="{&quot;index&quot;:1}" stroke-linecap="round" opacity="0"/><circle cx="-437" cy="-497.17857" transform="rotate(180)" r="20" data-paper-data="{&quot;index&quot;:2}" stroke-linecap="round" opacity="0"/><circle cx="-457" cy="-497.17857" transform="rotate(180)" r="20" data-paper-data="{&quot;index&quot;:3}" stroke-linecap="round" opacity="0"/><circle cx="-467" cy="-514.5" transform="rotate(180)" r="20" data-paper-data="{&quot;index&quot;:4}" stroke-linecap="round" opacity="0"/><path d="M427,514.5c0,-7.40282 4.02199,-13.86626 10,-17.32436c5.97801,3.45809 10,9.92153 10,17.32436c0,7.40282 -4.02199,13.86626 -10,17.32436c-5.97801,-3.45809 -10,-9.92153 -10,-17.32436z" stroke-linecap="butt"/><path d="M447,494.5c3.64287,0 7.05827,0.97394 10,2.67564c0,0.00098 0,0.00195 0,0.00293c0,11.04569 -8.95431,20 -20,20c-3.64287,0 -7.05827,-0.97394 -10,-2.67564c0,-0.00098 0,-0.00195 0,-0.00293c0,-11.04569 8.95431,-20 20,-20z" stroke-linecap="butt"/><path d="M447,494.5c11.04569,0 20,8.95431 20,20c0,0.00098 0,0.00195 0,0.00293c-2.94174,1.70171 -6.35711,2.67564 -10,2.67564c-11.04569,0 -20,-8.95431 -20,-20c0,-0.00098 0,-0.00196 0,-0.00294c2.94174,-1.7017 6.35712,-2.67563 10,-2.67563z" stroke-linecap="butt"/><path d="M457,497.17564c5.97801,3.45809 10,9.92153 10,17.32436c0,7.40282 -4.02199,13.86626 -10,17.32436c-5.97801,-3.45809 -10,-9.92153 -10,-17.32436c0,-7.40282 4.02199,-13.86626 10,-17.32436z" stroke-linecap="butt"/><path d="M427,494.5c11.04569,0 20,8.95431 20,20c0,0.00098 0,0.00195 0,0.00293c-2.94174,1.70171 -6.35711,2.67564 -10,2.67564c-11.04569,0 -20,-8.95431 -20,-20c0,-0.00098 0,-0.00196 0,-0.00294c2.94174,-1.7017 6.35712,-2.67563 10,-2.67563z" stroke-linecap="butt"/><path d="M447,479.85422c5.97801,3.45809 10,9.92153 10,17.32436c0,7.40282 -4.02199,13.86626 -10,17.32436c-5.97801,-3.45809 -10,-9.92153 -10,-17.32436c0,-7.40282 4.02199,-13.86626 10,-17.32436z" stroke-linecap="butt"/><path d="M477,497.17564c0,0.00098 0,0.00195 0,0.00293c0,11.04569 -8.95431,20 -20,20c-3.64287,0 -7.05827,-0.97394 -10,-2.67564c0,-0.00098 0,-0.00195 0,-0.00293c0,-11.04569 8.95431,-20 20,-20c3.64287,0 7.05827,0.97394 10,2.67564z" stroke-linecap="butt"/></g><rect x="-120" y="-625" transform="rotate(180)" width="34" height="19" stroke="#000000" stroke-width="0.5" stroke-linecap="butt" opacity="0"/><g stroke="#ffffff" stroke-width="0.5" stroke-linecap="round"><circle cx="218.54938" cy="-584.53864" transform="rotate(150)" r="20" data-paper-data="{&quot;index&quot;:0}"/><circle cx="238.55018" cy="-584.53818" transform="rotate(150)" r="20" data-paper-data="{&quot;index&quot;:1}"/><circle cx="228.55018" cy="-567.21767" transform="matrix(-0.8660254037844379,0.5000000000000011,-0.5000000000000011,-0.8660254037844379,0,0)" r="20" data-paper-data="{&quot;index&quot;:2}"/><circle cx="208.54938" cy="-567.21813" transform="matrix(-0.8660254037844379,0.5000000000000011,-0.5000000000000011,-0.8660254037844379,0,0)" r="20" data-paper-data="{&quot;index&quot;:3}"/><circle cx="198.54859" cy="-584.5391" transform="rotate(150)" r="20" data-paper-data="{&quot;index&quot;:4}"/><circle cx="208.54859" cy="-601.8596" transform="rotate(150)" r="20" data-paper-data="{&quot;index&quot;:5}"/></g><rect x="-292" y="-625" transform="rotate(180)" width="34" height="19" stroke="#000000" stroke-width="0.5" stroke-linecap="butt" opacity="0"/><g stroke="#ffffff" stroke-width="0.5"><circle cx="69.59301" cy="-670.53864" transform="rotate(150)" r="20" data-paper-data="{&quot;index&quot;:0}" stroke-linecap="round" opacity="0"/><circle cx="89.59381" cy="-670.53818" transform="rotate(150)" r="20" data-paper-data="{&quot;index&quot;:1}" stroke-linecap="round" opacity="0"/><circle cx="79.59381" cy="-653.21767" transform="matrix(-0.8660254037844379,0.5000000000000011,-0.5000000000000011,-0.8660254037844379,0,0)" r="20" data-paper-data="{&quot;index&quot;:2}" stroke-linecap="round" opacity="0"/><circle cx="59.59301" cy="-653.21813" transform="matrix(-0.8660254037844379,0.5000000000000011,-0.5000000000000011,-0.8660254037844379,0,0)" r="20" data-paper-data="{&quot;index&quot;:3}" stroke-linecap="round" opacity="0"/><circle cx="49.59222" cy="-670.5391" transform="rotate(150)" r="20" data-paper-data="{&quot;index&quot;:4}" stroke-linecap="round" opacity="0"/><circle cx="59.59222" cy="-687.8596" transform="matrix(-0.8660254037844379,0.5000000000000011,-0.5000000000000011,-0.8660254037844379,0,0)" r="20" data-paper-data="{&quot;index&quot;:5}" stroke-linecap="round" opacity="0"/><path d="M257.67757,605.49667c6.90583,0.00611 13.62026,3.59259 17.32151,10.00333c0.00064,0.00111 0.00128,0.00222 0.00192,0.00333c-6.90583,-0.00612 -13.62027,-3.59259 -17.32151,-10.00333c-0.00064,-0.00111 -0.00128,-0.00222 -0.00192,-0.00333z" stroke-linecap="butt"/><path d="M274.99808,615.49826c0.00033,0.00058 0.00067,0.00116 0.001,0.00174c3.70108,6.41046 3.45003,14.01818 0.00284,20.00174c-0.00033,-0.00058 -0.00067,-0.00116 -0.001,-0.00174c-3.70108,-6.41046 -3.45003,-14.01818 -0.00284,-20.00174z" stroke-linecap="butt"/><path d="M274.99808,595.49826c0.00033,0.00058 0.00067,0.00116 0.001,0.00174c3.70108,6.41046 3.45003,14.01818 0.00284,20.00174c-0.00033,-0.00058 -0.00067,-0.00116 -0.001,-0.00174c-3.70108,-6.41046 -3.45003,-14.01818 -0.00284,-20.00174z" stroke-linecap="butt"/><path d="M285,612.82051c-3.15691,1.82264 -6.60418,2.68682 -10.00484,2.68282c1.69688,-2.9474 4.16907,-5.50103 7.32627,-7.32383c3.15691,-1.82264 6.60418,-2.68682 10.00484,-2.68282c-1.69688,2.9474 -4.16907,5.50103 -7.32627,7.32383z" stroke-linecap="butt"/></g><rect x="-378" y="-625" transform="rotate(180)" width="34" height="19" stroke="#000000" stroke-width="0.5" stroke-linecap="butt" opacity="0"/><g stroke="#ffffff" stroke-width="0.5"><circle cx="-4.88517" cy="-713.53864" transform="rotate(150)" r="20" data-paper-data="{&quot;index&quot;:0}" stroke-linecap="round" opacity="0"/><circle cx="15.11563" cy="-713.53818" transform="rotate(150)" r="20" data-paper-data="{&quot;index&quot;:1}" stroke-linecap="round" opacity="0"/><circle cx="5.11563" cy="-696.21767" transform="matrix(-0.8660254037844379,0.5000000000000011,-0.5000000000000011,-0.8660254037844379,0,0)" r="20" data-paper-data="{&quot;index&quot;:2}" stroke-linecap="round" opacity="0"/><circle cx="-14.88517" cy="-696.21813" transform="matrix(-0.8660254037844379,0.5000000000000011,-0.5000000000000011,-0.8660254037844379,0,0)" r="20" data-paper-data="{&quot;index&quot;:3}" stroke-linecap="round" opacity="0"/><circle cx="-24.88597" cy="-713.5391" transform="rotate(150)" r="20" data-paper-data="{&quot;index&quot;:4}" stroke-linecap="round" opacity="0"/><circle cx="-14.88597" cy="-730.8596" transform="matrix(-0.8660254037844379,0.5000000000000011,-0.5000000000000011,-0.8660254037844379,0,0)" r="20" data-paper-data="{&quot;index&quot;:5}" stroke-linecap="round" opacity="0"/><path d="M343.67949,625.5c-3.70141,-6.41103 -3.44999,-14.01953 -0.00192,-20.00333c6.90584,0.00611 13.62026,3.59258 17.32151,10.00333c0.00064,0.00112 0.00129,0.00223 0.00193,0.00335c-1.69677,2.94459 -4.16762,5.49572 -7.32244,7.31716c-3.15453,1.82127 -6.59899,2.68552 -9.99715,2.68283c-0.00064,-0.00111 -0.00128,-0.00222 -0.00192,-0.00333z" stroke-linecap="butt"/><path d="M361.001,615.50333c-6.90584,-0.00611 -13.62026,-3.59258 -17.32151,-10.00333c-0.00064,-0.00111 -0.00128,-0.00222 -0.00192,-0.00333c1.69677,-2.94458 4.16761,-5.49574 7.32243,-7.31718c3.15453,-1.82127 6.59899,-2.68552 9.99715,-2.68283c0.00064,0.00111 0.00128,0.00222 0.00192,0.00333c3.70141,6.41103 3.44999,14.01953 0.00192,20.00333z" stroke-linecap="butt"/><path d="M361.00285,615.50333c-0.00064,-0.00111 -0.00128,-0.00222 -0.00192,-0.00333c-3.70141,-6.41103 -3.44999,-14.01953 -0.00192,-20.00333c6.90584,0.00611 13.62026,3.59258 17.32151,10.00333c0.00064,0.00111 0.00128,0.00222 0.00192,0.00333c-1.69677,2.94458 -4.16761,5.49574 -7.32243,7.31718c-3.15453,1.82127 -6.59899,2.68552 -9.99715,2.68283z" stroke-linecap="butt"/><path d="M360.99899,615.49668c1.69677,-2.94459 4.16761,-5.49575 7.32244,-7.31718c3.15453,-1.82127 6.59899,-2.68552 9.99715,-2.68283c0.00064,0.00111 0.00128,0.00222 0.00192,0.00333c3.70141,6.41103 3.44999,14.01953 0.00192,20.00333c-6.90584,-0.00611 -13.62026,-3.59258 -17.32151,-10.00333c-0.00064,-0.00112 -0.00129,-0.00221 -0.00193,-0.00332z" stroke-linecap="butt"/></g><path d="M360.99715,595.49667c0.00064,0.00111 0.00128,0.00222 0.00192,0.00333c5.52285,9.56585 2.24534,21.79766 -7.32051,27.32051c-3.15453,1.82127 -6.59899,2.68552 -9.99715,2.68283c-0.00064,-0.00111 -0.00128,-0.00222 -0.00192,-0.00333c-5.52285,-9.56585 -2.24534,-21.79766 7.32051,-27.32051c3.15453,-1.82127 6.59899,-2.68552 9.99715,-2.68283z" stroke-width="1" stroke-linecap="butt"/><path d="M343.67949,605.5c-0.00064,-0.00111 -0.00128,-0.00222 -0.00192,-0.00333c1.69677,-2.94458 4.16761,-5.49574 7.32243,-7.31718c9.56585,-5.52285 21.79766,-2.24534 27.32051,7.32051c0.00064,0.00112 0.00129,0.00223 0.00193,0.00335c-1.69677,2.94459 -4.16762,5.49572 -7.32244,7.31716c-9.56585,5.52285 -21.79766,2.24534 -27.32051,-7.32051z" stroke-width="1" stroke-linecap="butt"/><path d="M361.00092,615.5c-3.70141,-6.41103 -3.44999,-14.01953 -0.00192,-20.00333c6.90584,0.00611 13.62026,3.59258 17.32151,10.00333c3.70141,6.41103 3.44999,14.01953 0.00192,20.00333c-6.90584,-0.00611 -13.62026,-3.59258 -17.32151,-10.00333z" stroke-width="1" stroke-linecap="butt"/><path d="M368.32143,608.17949c3.15453,-1.82127 6.59899,-2.68552 9.99715,-2.68283c0.00064,0.00111 0.00128,0.00222 0.00192,0.00333c5.52285,9.56585 2.24534,21.79766 -7.32051,27.32051c-3.15453,1.82127 -6.59899,2.68552 -9.99715,2.68283c-0.00064,-0.00111 -0.00128,-0.00222 -0.00192,-0.00333c-5.52285,-9.56585 -2.24534,-21.79766 7.32051,-27.32051z" stroke-width="1" stroke-linecap="butt"/><rect x="-464" y="-625" transform="rotate(180)" width="34" height="19" stroke="#000000" stroke-width="0.5" stroke-linecap="butt" opacity="0"/><g stroke="#ffffff" stroke-width="0.5"><circle cx="-79.36336" cy="-756.53864" transform="rotate(150)" r="20" data-paper-data="{&quot;index&quot;:0}" stroke-linecap="round" opacity="0"/><circle cx="-59.36256" cy="-756.53818" transform="rotate(150)" r="20" data-paper-data="{&quot;index&quot;:1}" stroke-linecap="round" opacity="0"/><circle cx="-69.36256" cy="-739.21767" transform="rotate(150)" r="20" data-paper-data="{&quot;index&quot;:2}" stroke-linecap="round" opacity="0"/><circle cx="-89.36336" cy="-739.21813" transform="matrix(-0.8660254037844379,0.5000000000000011,-0.5000000000000011,-0.8660254037844379,0,0)" r="20" data-paper-data="{&quot;index&quot;:3}" stroke-linecap="round" opacity="0"/><circle cx="-99.36415" cy="-756.5391" transform="rotate(150)" r="20" data-paper-data="{&quot;index&quot;:4}" stroke-linecap="round" opacity="0"/><circle cx="-89.36415" cy="-773.8596" transform="matrix(-0.8660254037844379,0.5000000000000011,-0.5000000000000011,-0.8660254037844379,0,0)" r="20" data-paper-data="{&quot;index&quot;:5}" stroke-linecap="round" opacity="0"/><path d="M429.67949,625.5c-3.70141,-6.41103 -3.44999,-14.01953 -0.00192,-20.00333c6.90584,0.00611 13.62026,3.59258 17.32151,10.00333c3.70141,6.41103 3.44999,14.01953 0.00192,20.00333c-6.90584,-0.00611 -13.62026,-3.59258 -17.32151,-10.00333z" stroke-linecap="butt"/><path d="M437,598.17949c3.15453,-1.82127 6.59899,-2.68552 9.99715,-2.68283c0.00064,0.00111 0.00128,0.00222 0.00192,0.00333c5.52285,9.56585 2.24534,21.79766 -7.32051,27.32051c-3.15456,1.82128 -6.59904,2.68553 -9.99723,2.68283c-0.00064,-0.00111 -0.00121,-0.00222 -0.00185,-0.00333c-5.52285,-9.56585 -2.24534,-21.79766 7.32051,-27.32051z" stroke-linecap="butt"/><path d="M437,598.17949c9.56585,-5.52285 21.79766,-2.24534 27.32051,7.32051c0.00064,0.00111 0.00128,0.00222 0.00192,0.00333c-1.69677,2.94458 -4.16761,5.49574 -7.32243,7.31718c-9.56585,5.52285 -21.79766,2.24534 -27.32051,-7.32051c-0.00064,-0.00112 -0.00129,-0.00223 -0.00193,-0.00335c1.69677,-2.94459 4.16762,-5.49572 7.32244,-7.31716z" stroke-linecap="butt"/><path d="M446.999,595.49667c6.90584,0.00611 13.62026,3.59258 17.32151,10.00333c3.70141,6.41103 3.44999,14.01953 0.00192,20.00333c-6.90584,-0.00611 -13.62026,-3.59258 -17.32151,-10.00333c-3.70141,-6.41103 -3.44999,-14.01953 -0.00192,-20.00333z" stroke-linecap="butt"/><path d="M464.31858,605.49667c0.00064,0.00111 0.00128,0.00222 0.00192,0.00333c5.52285,9.56585 2.24534,21.79766 -7.32051,27.32051c-3.15453,1.82127 -6.59899,2.68552 -9.99715,2.68283c-0.00064,-0.00111 -0.00128,-0.00222 -0.00192,-0.00333c-5.52285,-9.56585 -2.24534,-21.79766 7.32051,-27.32051c3.15453,-1.82127 6.59899,-2.68552 9.99715,-2.68283z" stroke-linecap="butt"/><path d="M419.67857,608.17949c9.56585,-5.52285 21.79766,-2.24534 27.32051,7.32051c0.00064,0.00111 0.00128,0.00222 0.00192,0.00333c-1.69677,2.9446 -4.1676,5.49573 -7.32243,7.31718c-9.56585,5.52285 -21.79766,2.24534 -27.32051,-7.32051c-0.00064,-0.00112 -0.00129,-0.00223 -0.00193,-0.00335c1.69677,-2.94459 4.16762,-5.49572 7.32244,-7.31716z" stroke-linecap="butt"/><path d="M429.67757,585.49667c6.90584,0.00611 13.62026,3.59258 17.32151,10.00333c3.70141,6.41103 3.44999,14.01953 0.00192,20.00333c-6.90584,-0.00611 -13.62026,-3.59258 -17.32151,-10.00333c-3.70141,-6.41103 -3.44999,-14.01953 -0.00192,-20.00333z" stroke-linecap="butt"/><path d="M464.31858,585.49667c0.00064,0.00111 0.00128,0.00222 0.00192,0.00333c5.52285,9.56585 2.24534,21.79766 -7.32051,27.32051c-3.15453,1.82127 -6.59899,2.68552 -9.99715,2.68283c-0.00064,-0.00111 -0.00128,-0.00222 -0.00192,-0.00333c-5.52285,-9.56585 -2.24534,-21.79766 7.32051,-27.32051c3.15453,-1.82127 6.59899,-2.68552 9.99715,-2.68283z" stroke-linecap="butt"/><path d="M447.00092,615.5c-0.00064,-0.00111 -0.00128,-0.00222 -0.00192,-0.00333c1.69677,-2.94458 4.16761,-5.49574 7.32243,-7.31718c9.56585,-5.52285 21.79766,-2.24534 27.32051,7.32051c0.00064,0.00112 0.00129,0.00223 0.00193,0.00335c-1.69677,2.94459 -4.16762,5.49572 -7.32244,7.31716c-9.56585,5.52285 -21.79766,2.24534 -27.32051,-7.32051z" stroke-linecap="butt"/></g><rect x="-120" y="-726" transform="rotate(180)" width="34" height="19" stroke="#000000" stroke-width="0.5" stroke-linecap="butt" opacity="0"/><g stroke="#ffffff" stroke-width="0.5" stroke-linecap="round"><circle cx="-447.45062" cy="-569.0072" transform="rotate(-150)" r="20" data-paper-data="{&quot;index&quot;:0}"/><circle cx="-427.44982" cy="-569.00766" transform="rotate(-150)" r="20" data-paper-data="{&quot;index&quot;:1}"/><circle cx="-437.45062" cy="-551.68669" transform="rotate(-150)" r="20" data-paper-data="{&quot;index&quot;:2}"/><circle cx="-457.45141" cy="-551.68623" transform="rotate(-150)" r="20" data-paper-data="{&quot;index&quot;:3}"/><circle cx="-467.45141" cy="-569.00674" transform="rotate(-150)" r="20" data-paper-data="{&quot;index&quot;:4}"/><circle cx="-457.45062" cy="-586.32771" transform="rotate(-150)" r="20" data-paper-data="{&quot;index&quot;:5}"/><circle cx="-437.44982" cy="-586.32817" transform="rotate(-150)" r="20" data-paper-data="{&quot;index&quot;:6}"/></g><rect x="-292" y="-726" transform="rotate(180)" width="34" height="19" stroke="#000000" stroke-width="0.5" stroke-linecap="butt" opacity="0"/><g stroke="#ffffff" stroke-width="0.5"><circle cx="-596.40699" cy="-483.0072" transform="rotate(-150)" r="20" data-paper-data="{&quot;index&quot;:0}" stroke-linecap="round" opacity="0"/><circle cx="-576.40619" cy="-483.00766" transform="rotate(-150)" r="20" data-paper-data="{&quot;index&quot;:1}" stroke-linecap="round" opacity="0"/><circle cx="-586.40699" cy="-465.68669" transform="rotate(-150)" r="20" data-paper-data="{&quot;index&quot;:2}" stroke-linecap="round" opacity="0"/><circle cx="-606.40778" cy="-465.68623" transform="rotate(-150)" r="20" data-paper-data="{&quot;index&quot;:3}" stroke-linecap="round" opacity="0"/><circle cx="-616.40778" cy="-483.00674" transform="rotate(-150)" r="20" data-paper-data="{&quot;index&quot;:4}" stroke-linecap="round" opacity="0"/><circle cx="-606.40699" cy="-500.32771" transform="rotate(-150)" r="20" data-paper-data="{&quot;index&quot;:5}" stroke-linecap="round" opacity="0"/><circle cx="-586.40619" cy="-500.32817" transform="rotate(-150)" r="20" data-paper-data="{&quot;index&quot;:6}" stroke-linecap="round" opacity="0"/><path d="M275.00193,696.49827c3.44719,5.98356 3.69824,13.59127 -0.00285,20.00173c-0.00033,0.00058 -0.00067,0.00116 -0.001,0.00174c-3.44718,-5.98356 -3.69824,-13.59128 0.00284,-20.00174c0.00033,-0.00058 0.00067,-0.00115 0.00101,-0.00173z" stroke-linecap="butt"/><path d="M275.001,716.49667c-0.00064,0.00111 -0.00128,0.00222 -0.00192,0.00333c-3.70125,6.41075 -10.41568,9.99722 -17.32151,10.00333c0.00064,-0.00111 0.00128,-0.00222 0.00192,-0.00333c3.70125,-6.41075 10.41568,-9.99722 17.32151,-10.00333z" stroke-linecap="butt"/><path d="M292.32243,706.49667c-0.00064,0.00111 -0.00128,0.00222 -0.00192,0.00333c-3.70125,6.41075 -10.41568,9.99722 -17.32151,10.00333c0.00064,-0.00111 0.00128,-0.00222 0.00192,-0.00333c3.70125,-6.41075 10.41568,-9.99722 17.32151,-10.00333z" stroke-linecap="butt"/><path d="M265,713.82051c-3.1572,-1.82281 -5.62939,-4.37644 -7.32627,-7.32383c3.40066,-0.004 6.84793,0.86017 10.00484,2.68282c3.1572,1.82281 5.62939,4.37644 7.32627,7.32383c-3.40066,0.004 -6.84793,-0.86017 -10.00484,-2.68282z" stroke-linecap="butt"/><path d="M282.32143,723.82051c-3.1572,-1.82281 -5.62939,-4.37644 -7.32627,-7.32383c3.40066,-0.004 6.84793,0.86017 10.00484,2.68282c3.1572,1.82281 5.62939,4.37644 7.32627,7.32383c-3.40066,0.004 -6.84793,-0.86017 -10.00484,-2.68282z" stroke-linecap="butt"/><path d="M275.00092,716.5c0.00033,-0.00058 0.00067,-0.00116 0.001,-0.00174c3.44718,5.98356 3.69824,13.59128 -0.00284,20.00174c-0.00033,0.00058 -0.00067,0.00116 -0.001,0.00174c-3.44719,-5.98356 -3.69824,-13.59128 0.00285,-20.00174z" stroke-linecap="butt"/></g><rect x="-378" y="-726" transform="rotate(180)" width="34" height="19" stroke="#000000" stroke-width="0.5" stroke-linecap="butt" opacity="0"/><g stroke="#ffffff" stroke-width="0.5"><circle cx="-670.88517" cy="-440.0072" transform="rotate(-150)" r="20" data-paper-data="{&quot;index&quot;:0}" stroke-linecap="round" opacity="0"/><circle cx="-650.88437" cy="-440.00766" transform="rotate(-150)" r="20" data-paper-data="{&quot;index&quot;:1}" stroke-linecap="round" opacity="0"/><circle cx="-660.88517" cy="-422.68669" transform="rotate(-150)" r="20" data-paper-data="{&quot;index&quot;:2}" stroke-linecap="round" opacity="0"/><circle cx="-680.88597" cy="-422.68623" transform="rotate(-150)" r="20" data-paper-data="{&quot;index&quot;:3}" stroke-linecap="round" opacity="0"/><circle cx="-690.88597" cy="-440.00674" transform="rotate(-150)" r="20" data-paper-data="{&quot;index&quot;:4}" stroke-linecap="round" opacity="0"/><circle cx="-680.88517" cy="-457.32771" transform="rotate(-150)" r="20" data-paper-data="{&quot;index&quot;:5}" stroke-linecap="round" opacity="0"/><circle cx="-660.88437" cy="-457.32817" transform="rotate(-150)" r="20" data-paper-data="{&quot;index&quot;:6}" stroke-linecap="round" opacity="0"/><path d="M343.67949,706.5c3.70125,-6.41075 10.41568,-9.99722 17.32151,-10.00333c3.44806,5.9838 3.69949,13.5923 -0.00192,20.00333c-0.00064,0.00112 -0.00129,0.00223 -0.00193,0.00335c-3.39817,0.00269 -6.84261,-0.86157 -9.99715,-2.68284c-3.15482,-1.82144 -5.62567,-4.37259 -7.32243,-7.31718c0.00064,-0.00111 0.00128,-0.00222 0.00192,-0.00333z" stroke-linecap="butt"/><path d="M343.68143,706.49665c3.39817,-0.00269 6.84261,0.86157 9.99715,2.68284c3.15482,1.82144 5.62567,4.37259 7.32243,7.31718c-0.00064,0.00111 -0.00128,0.00222 -0.00192,0.00333c-3.70125,6.41075 -10.41568,9.99722 -17.32151,10.00333c-3.44806,-5.9838 -3.69949,-13.5923 0.00192,-20.00333c0.00064,-0.00112 0.00129,-0.00223 0.00193,-0.00335z" stroke-linecap="butt"/><path d="M360.999,716.50333c-3.44806,-5.9838 -3.69949,-13.5923 0.00192,-20.00333c0.00064,-0.00111 0.00128,-0.00222 0.00192,-0.00333c3.39817,-0.00269 6.84262,0.86155 9.99715,2.68283c3.15482,1.82144 5.62567,4.37259 7.32243,7.31718c-0.00064,0.00111 -0.00128,0.00222 -0.00192,0.00333c-3.70125,6.41075 -10.41568,9.99722 -17.32151,10.00333z" stroke-linecap="butt"/><path d="M360.999,716.50333c0.00064,-0.00111 0.00128,-0.00222 0.00192,-0.00333c3.70125,-6.41075 10.41568,-9.99722 17.32151,-10.00333c3.44806,5.9838 3.69949,13.5923 -0.00192,20.00333c-0.00064,0.00111 -0.00128,0.00222 -0.00192,0.00333c-3.39817,0.00269 -6.84262,-0.86155 -9.99715,-2.68283c-3.15482,-1.82144 -5.62567,-4.37259 -7.32243,-7.31718z" stroke-linecap="butt"/><path d="M361.00283,716.49667c3.39817,-0.00269 6.84263,0.86155 9.99717,2.68283c3.15482,1.82144 5.62567,4.37259 7.32243,7.31718c-0.00064,0.00111 -0.00128,0.00222 -0.00192,0.00333c-3.70125,6.41075 -10.41568,9.99722 -17.32151,10.00333c-3.44806,-5.9838 -3.69949,-13.5923 0.00192,-20.00333c0.00064,-0.00112 0.00127,-0.00222 0.00191,-0.00333z" stroke-linecap="butt"/><path d="M351,733.82051c-3.15482,-1.82144 -5.62567,-4.37259 -7.32243,-7.31718c0.00064,-0.00111 0.00128,-0.00222 0.00192,-0.00333c3.70125,-6.41075 10.41568,-9.99722 17.32151,-10.00333c3.44806,5.9838 3.69949,13.5923 -0.00192,20.00333c-0.00064,0.00111 -0.00128,0.00222 -0.00192,0.00333c-3.39818,0.0027 -6.84261,-0.86155 -9.99715,-2.68283z" stroke-linecap="butt"/></g><path d="M378.32243,706.49667c-0.00064,0.00111 -0.00128,0.00222 -0.00192,0.00333c-5.52285,9.56585 -17.75466,12.84336 -27.32051,7.32051c-3.15482,-1.82144 -5.62567,-4.37259 -7.32243,-7.31718c0.00064,-0.00111 0.00128,-0.00222 0.00192,-0.00333c5.52285,-9.56585 17.75466,-12.84336 27.32051,-7.32051c3.15482,1.82144 5.62567,4.37259 7.32243,7.31718z" stroke-width="1" stroke-linecap="butt"/><path d="M353.67857,709.17949c9.56585,5.52285 12.84336,17.75466 7.32051,27.32051c-0.00064,0.00111 -0.00128,0.00222 -0.00192,0.00333c-3.39818,0.0027 -6.84261,-0.86155 -9.99715,-2.68283c-9.56585,-5.52285 -12.84336,-17.75466 -7.32051,-27.32051c0.00064,-0.00112 0.00129,-0.00223 0.00193,-0.00335c3.39817,-0.00269 6.84261,0.86157 9.99715,2.68284z" stroke-width="1" stroke-linecap="butt"/><path d="M361.00092,696.5c0.00064,-0.00111 0.00128,-0.00222 0.00192,-0.00333c3.39817,-0.00269 6.84262,0.86155 9.99715,2.68283c9.56585,5.52285 12.84336,17.75466 7.32051,27.32051c-0.00064,0.00112 -0.00129,0.00223 -0.00193,0.00335c-3.39817,0.00269 -6.84261,-0.86157 -9.99715,-2.68284c-9.56585,-5.52285 -12.84336,-17.75466 -7.32051,-27.32051z" stroke-width="1" stroke-linecap="butt"/><path d="M361.00092,716.5c3.70125,-6.41075 10.41568,-9.99722 17.32151,-10.00333c3.44806,5.9838 3.69949,13.5923 -0.00192,20.00333c-3.70125,6.41075 -10.41568,9.99722 -17.32151,10.00333c-3.44806,-5.9838 -3.69949,-13.5923 0.00192,-20.00333z" stroke-width="1" stroke-linecap="butt"/><path d="M371,719.17949c3.15482,1.82144 5.62567,4.37259 7.32243,7.31718c-0.00064,0.00111 -0.00128,0.00222 -0.00192,0.00333c-5.52285,9.56585 -17.75466,12.84336 -27.32051,7.32051c-3.15482,-1.82144 -5.62567,-4.37259 -7.32243,-7.31718c0.00064,-0.00111 0.00128,-0.00222 0.00192,-0.00333c5.52285,-9.56585 17.75466,-12.84336 27.32051,-7.32051z" stroke-width="1" stroke-linecap="butt"/><path d="M353.67857,709.17949c9.56585,5.52285 12.84336,17.75466 7.32051,27.32051c-0.00064,0.00111 -0.00128,0.00222 -0.00192,0.00333c-3.39818,0.0027 -6.84261,-0.86155 -9.99715,-2.68283c-9.56585,-5.52285 -12.84336,-17.75466 -7.32051,-27.32051c0.00064,-0.00112 0.00129,-0.00223 0.00193,-0.00335c3.39817,-0.00269 6.84261,0.86157 9.99715,2.68284z" stroke-width="1" stroke-linecap="butt"/><rect x="-464" y="-726" transform="rotate(180)" width="34" height="19" stroke="#000000" stroke-width="0.5" stroke-linecap="butt" opacity="0"/><g stroke="#ffffff" stroke-width="0.5"><circle cx="-745.36336" cy="-397.0072" transform="rotate(-150)" r="20" data-paper-data="{&quot;index&quot;:0}" stroke-linecap="round" opacity="0"/><circle cx="-725.36256" cy="-397.00766" transform="rotate(-150)" r="20" data-paper-data="{&quot;index&quot;:1}" stroke-linecap="round" opacity="0"/><circle cx="-735.36336" cy="-379.68669" transform="rotate(-150)" r="20" data-paper-data="{&quot;index&quot;:2}" stroke-linecap="round" opacity="0"/><circle cx="-755.36415" cy="-379.68623" transform="rotate(-150)" r="20" data-paper-data="{&quot;index&quot;:3}" stroke-linecap="round" opacity="0"/><circle cx="-765.36415" cy="-397.00674" transform="rotate(-150)" r="20" data-paper-data="{&quot;index&quot;:4}" stroke-linecap="round" opacity="0"/><circle cx="-755.36336" cy="-414.32771" transform="rotate(-150)" r="20" data-paper-data="{&quot;index&quot;:5}" stroke-linecap="round" opacity="0"/><circle cx="-735.36256" cy="-414.32817" transform="rotate(-150)" r="20" data-paper-data="{&quot;index&quot;:6}" stroke-linecap="round" opacity="0"/><path d="M429.67949,706.5c3.70125,-6.41075 10.41568,-9.99722 17.32151,-10.00333c3.44806,5.9838 3.69949,13.5923 -0.00192,20.00333c-3.70125,6.41075 -10.41568,9.99722 -17.32151,10.00333c-3.44806,-5.9838 -3.69949,-13.5923 0.00192,-20.00333z" stroke-linecap="butt"/><path d="M457,699.17949c3.15482,1.82144 5.62567,4.37259 7.32243,7.31718c-0.00064,0.00111 -0.00128,0.00222 -0.00192,0.00333c-5.52285,9.56585 -17.75466,12.84336 -27.32051,7.32051c-3.15484,-1.82145 -5.6257,-4.37263 -7.32247,-7.31724c0.00064,-0.00111 0.00132,-0.00216 0.00196,-0.00327c5.52285,-9.56585 17.75466,-12.84336 27.32051,-7.32051z" stroke-linecap="butt"/><path d="M457,699.17949c9.56585,5.52285 12.84336,17.75466 7.32051,27.32051c-0.00064,0.00111 -0.00128,0.00222 -0.00192,0.00333c-3.39818,0.0027 -6.84261,-0.86155 -9.99715,-2.68283c-9.56585,-5.52285 -12.84336,-17.75466 -7.32051,-27.32051c0.00064,-0.00112 0.00129,-0.00223 0.00193,-0.00335c3.39817,-0.00269 6.84261,0.86157 9.99715,2.68284z" stroke-linecap="butt"/><path d="M464.32243,706.49667c3.44806,5.9838 3.69949,13.5923 -0.00192,20.00333c-3.70125,6.41075 -10.41568,9.99722 -17.32151,10.00333c-3.44806,-5.9838 -3.69949,-13.5923 0.00192,-20.00333c3.70125,-6.41075 10.41568,-9.99722 17.32151,-10.00333z" stroke-linecap="butt"/><path d="M464.32243,726.49667c-0.00064,0.00111 -0.00128,0.00222 -0.00192,0.00333c-5.52285,9.56585 -17.75466,12.84336 -27.32051,7.32051c-3.15482,-1.82144 -5.62567,-4.37259 -7.32243,-7.31718c0.00064,-0.00111 0.00128,-0.00222 0.00192,-0.00333c5.52285,-9.56585 17.75466,-12.84336 27.32051,-7.32051c3.15482,1.82144 5.62567,4.37259 7.32243,7.31718z" stroke-linecap="butt"/><path d="M429.67949,706.5c0.00064,-0.00111 0.00128,-0.00222 0.00192,-0.00333c3.39818,-0.0027 6.84261,0.86155 9.99715,2.68283c9.56585,5.52285 12.84336,17.75466 7.32051,27.32051c-0.00064,0.00112 -0.00129,0.00223 -0.00193,0.00335c-3.39817,0.00269 -6.84261,-0.86157 -9.99715,-2.68284c-9.56585,-5.52285 -12.84336,-17.75466 -7.32051,-27.32051z" stroke-linecap="butt"/><path d="M439.67857,689.17949c9.56585,5.52285 12.84336,17.75466 7.32051,27.32051c-0.00064,0.00111 -0.00128,0.00222 -0.00192,0.00333c-3.39817,0.00269 -6.84262,-0.86155 -9.99715,-2.68283c-9.56585,-5.52285 -12.84336,-17.75466 -7.32051,-27.32051c0.00064,-0.00112 0.00129,-0.00223 0.00193,-0.00335c3.39817,-0.00269 6.84261,0.86157 9.99715,2.68284z" stroke-linecap="butt"/><path d="M447.001,716.49667c-0.00064,0.00111 -0.00128,0.00222 -0.00192,0.00333c-5.52285,9.56585 -17.75466,12.84336 -27.32051,7.32051c-3.15482,-1.82144 -5.62567,-4.37259 -7.32243,-7.31718c0.00064,-0.00111 0.00128,-0.00222 0.00192,-0.00333c5.52285,-9.56585 17.75466,-12.84336 27.32051,-7.32051c3.15482,1.82144 5.62567,4.37259 7.32243,7.31718z" stroke-linecap="butt"/><path d="M464.32243,686.49667c3.44806,5.9838 3.69949,13.5923 -0.00192,20.00333c-3.70125,6.41075 -10.41568,9.99722 -17.32151,10.00333c-3.44806,-5.9838 -3.69949,-13.5923 0.00192,-20.00333c3.70125,-6.41075 10.41568,-9.99722 17.32151,-10.00333z" stroke-linecap="butt"/><path d="M481.64386,716.49667c-0.00064,0.00111 -0.00128,0.00222 -0.00192,0.00333c-5.52285,9.56585 -17.75466,12.84336 -27.32051,7.32051c-3.15482,-1.82144 -5.62567,-4.37259 -7.32243,-7.31718c0.00064,-0.00111 0.00128,-0.00222 0.00192,-0.00333c5.52285,-9.56585 17.75466,-12.84336 27.32051,-7.32051c3.15482,1.82144 5.62567,4.37259 7.32243,7.31718z" stroke-linecap="butt"/><path d="M447.00092,716.5c0.00064,-0.00111 0.00128,-0.00222 0.00192,-0.00333c3.39818,-0.0027 6.84261,0.86155 9.99715,2.68283c9.56585,5.52285 12.84336,17.75466 7.32051,27.32051c-0.00064,0.00112 -0.00129,0.00223 -0.00193,0.00335c-3.39817,0.00269 -6.84261,-0.86157 -9.99715,-2.68284c-9.56585,-5.52285 -12.84336,-17.75466 -7.32051,-27.32051z" stroke-linecap="butt"/><path d="M429.67949,726.5c3.70125,-6.41075 10.41568,-9.99722 17.32151,-10.00333c3.44806,5.9838 3.69949,13.5923 -0.00192,20.00333c-3.70125,6.41075 -10.41568,9.99722 -17.32151,10.00333c-3.44806,-5.9838 -3.69949,-13.5923 0.00192,-20.00333z" stroke-linecap="butt"/></g><rect x="570" y="25" width="510" height="800" fill="#000000" stroke-width="1" stroke-linecap="butt"/><g stroke-width="1" stroke-linecap="butt"/><rect x="-670" y="-120" transform="rotate(180)" width="34" height="19" stroke="#000000" stroke-width="0.5" stroke-linecap="butt" opacity="0"/><g stroke="#ffffff" stroke-width="0.5" stroke-linecap="round"><circle cx="-653" cy="-110.5" transform="rotate(180)" r="20" data-paper-data="{&quot;index&quot;:0}" opacity="0"/></g><rect x="-842" y="-120" transform="rotate(180)" width="34" height="19" stroke="#000000" stroke-width="0.5" stroke-linecap="butt" opacity="0"/><g stroke="#ffffff" stroke-width="0.5" stroke-linecap="round"><circle cx="-825" cy="-110.5" transform="rotate(180)" r="20" data-paper-data="{&quot;index&quot;:0}" opacity="0"/></g><rect x="-928" y="-120" transform="rotate(180)" width="34" height="19" stroke="#000000" stroke-width="0.5" stroke-linecap="butt" opacity="0"/><g stroke="#ffffff" stroke-width="0.5" stroke-linecap="round"><circle cx="-911" cy="-110.5" transform="rotate(180)" r="20" data-paper-data="{&quot;index&quot;:0}" opacity="0"/></g><rect x="-1014" y="-120" transform="rotate(180)" width="34" height="19" stroke="#000000" stroke-width="0.5" stroke-linecap="butt" opacity="0"/><g stroke="#ffffff" stroke-width="0.5" stroke-linecap="round"><circle cx="-997" cy="-110.5" transform="rotate(180)" r="20" data-paper-data="{&quot;index&quot;:0}" opacity="0"/></g><rect x="-670" y="-221" transform="rotate(180)" width="34" height="19" stroke="#000000" stroke-width="0.5" stroke-linecap="butt" opacity="0"/><g stroke="#ffffff" stroke-width="0.5" stroke-linecap="round"><circle cx="-211.5" cy="653" transform="rotate(-90)" r="20" data-paper-data="{&quot;index&quot;:0}" opacity="0"/><circle cx="-191.5" cy="653" transform="rotate(-90)" r="20" data-paper-data="{&quot;index&quot;:1}" opacity="0"/><circle cx="653" cy="201.5" r="10"/><circle cx="653" cy="201.5" r="17.32143"/></g><rect x="-842" y="-221" transform="rotate(180)" width="34" height="19" stroke="#000000" stroke-width="0.5" stroke-linecap="butt" opacity="0"/><g stroke="#ffffff" stroke-width="0.5" stroke-linecap="round"><circle cx="-211.5" cy="825" transform="rotate(-90)" r="20" data-paper-data="{&quot;index&quot;:0}" opacity="0"/><circle cx="-191.5" cy="825" transform="rotate(-90)" r="20" data-paper-data="{&quot;index&quot;:1}" opacity="0"/></g><rect x="-928" y="-221" transform="rotate(180)" width="34" height="19" stroke="#000000" stroke-width="0.5" stroke-linecap="butt" opacity="0"/><g stroke="#ffffff" stroke-width="0.5" stroke-linecap="round"><circle cx="-211.5" cy="911" transform="rotate(-90)" r="20" data-paper-data="{&quot;index&quot;:0}" opacity="0"/><circle cx="-191.5" cy="911" transform="rotate(-90)" r="20" data-paper-data="{&quot;index&quot;:1}" opacity="0"/></g><rect x="-1014" y="-221" transform="rotate(180)" width="34" height="19" stroke="#000000" stroke-width="0.5" stroke-linecap="butt" opacity="0"/><g stroke="#ffffff" stroke-width="0.5" stroke-linecap="round"><circle cx="-211.5" cy="997" transform="rotate(-90)" r="20" data-paper-data="{&quot;index&quot;:0}" opacity="0"/><circle cx="-191.5" cy="997" transform="rotate(-90)" r="20" data-paper-data="{&quot;index&quot;:1}" opacity="0"/><circle cx="997" cy="201.5" r="10"/><circle cx="997" cy="201.5" r="17.32143"/></g><rect x="-670" y="-322" transform="rotate(180)" width="34" height="19" stroke="#000000" stroke-width="0.5" stroke-linecap="butt" opacity="0"/><g stroke="#ffffff" stroke-width="0.5" stroke-linecap="round"><circle cx="-597.13294" cy="409.26459" transform="rotate(-120)" r="20" data-paper-data="{&quot;index&quot;:0}" opacity="0"/><circle cx="-577.13214" cy="409.26505" transform="rotate(-120)" r="20" data-paper-data="{&quot;index&quot;:1}" opacity="0"/><circle cx="-587.13214" cy="426.58556" transform="rotate(-120)" r="20" data-paper-data="{&quot;index&quot;:2}" opacity="0"/><circle cx="653" cy="300.95238" r="8.45238"/><circle cx="653" cy="300.95238" r="11.54762"/><circle cx="648" cy="303.83929" r="10"/><circle cx="658" cy="303.83929" r="10"/><circle cx="653" cy="295.17857" r="10"/><circle cx="648" cy="303.83929" r="17.32143"/><circle cx="658" cy="303.83929" r="17.32143"/><circle cx="653" cy="295.17857" r="17.32143"/></g><rect x="-842" y="-322" transform="rotate(180)" width="34" height="19" stroke="#000000" stroke-width="0.5" stroke-linecap="butt" opacity="0"/><g stroke="#ffffff" stroke-width="0.5" stroke-linecap="round"><circle cx="-683.13294" cy="558.22096" transform="rotate(-120)" r="20" data-paper-data="{&quot;index&quot;:0}" opacity="0"/><circle cx="-663.13214" cy="558.22142" transform="rotate(-120)" r="20" data-paper-data="{&quot;index&quot;:1}" opacity="0"/><circle cx="-673.13214" cy="575.54193" transform="rotate(-120)" r="20" data-paper-data="{&quot;index&quot;:2}" opacity="0"/></g><rect x="-928" y="-322" transform="rotate(180)" width="34" height="19" stroke="#000000" stroke-width="0.5" stroke-linecap="butt" opacity="0"/><g stroke="#ffffff" stroke-width="0.5" stroke-linecap="round"><circle cx="-726.13294" cy="632.69914" transform="rotate(-120)" r="20" data-paper-data="{&quot;index&quot;:0}" opacity="0"/><circle cx="-706.13214" cy="632.6996" transform="rotate(-120)" r="20" data-paper-data="{&quot;index&quot;:1}" opacity="0"/><circle cx="-716.13214" cy="650.02011" transform="rotate(-120)" r="20" data-paper-data="{&quot;index&quot;:2}" opacity="0"/><circle cx="911" cy="300.95238" r="8.45238"/><circle cx="911" cy="300.95238" r="11.54762"/></g><rect x="-1014" y="-322" transform="rotate(180)" width="34" height="19" stroke="#000000" stroke-width="0.5" stroke-linecap="butt" opacity="0"/><g stroke="#ffffff" stroke-width="0.5" stroke-linecap="round"><circle cx="-769.13294" cy="707.17733" transform="rotate(-120)" r="20" data-paper-data="{&quot;index&quot;:0}" opacity="0"/><circle cx="-749.13214" cy="707.17779" transform="rotate(-120)" r="20" data-paper-data="{&quot;index&quot;:1}" opacity="0"/><circle cx="-759.13214" cy="724.4983" transform="rotate(-120)" r="20" data-paper-data="{&quot;index&quot;:2}" opacity="0"/><circle cx="992" cy="303.83929" r="10"/><circle cx="1002" cy="303.83929" r="10"/><circle cx="997" cy="295.17857" r="10"/><circle cx="992" cy="303.83929" r="17.32143"/><circle cx="1002" cy="303.83929" r="17.32143"/><circle cx="997" cy="295.17857" r="17.32143"/></g><rect x="-670" y="-423" transform="rotate(180)" width="34" height="19" stroke="#000000" stroke-width="0.5" stroke-linecap="butt" opacity="0"/><g stroke="#ffffff" stroke-width="0.5" stroke-linecap="round"><circle cx="-772.26459" cy="-31.6015" transform="rotate(-150)" r="20" data-paper-data="{&quot;index&quot;:0}" opacity="0"/><circle cx="-752.26379" cy="-31.60196" transform="rotate(-150)" r="20" data-paper-data="{&quot;index&quot;:1}" opacity="0"/><circle cx="-762.26459" cy="-14.281" transform="rotate(-150)" r="20" data-paper-data="{&quot;index&quot;:2}" opacity="0"/><circle cx="-782.26539" cy="-14.28054" transform="rotate(-150)" r="20" data-paper-data="{&quot;index&quot;:3}" opacity="0"/><circle cx="653" cy="403.5" r="2.67857"/><circle cx="653" cy="403.5" r="10"/><circle cx="647.22619" cy="403.5" r="8.45238"/><circle cx="658.77381" cy="403.5" r="8.45238"/><circle cx="647.22619" cy="403.5" r="11.54762"/><circle cx="658.77381" cy="403.5" r="11.54762"/><circle cx="644.33929" cy="408.5" r="10"/><circle cx="653" cy="403.5" r="10"/><circle cx="661.66071" cy="408.5" r="10"/><circle cx="644.33929" cy="398.5" r="10"/><circle cx="661.66071" cy="398.5" r="10"/><circle cx="644.33929" cy="408.5" r="17.32143"/><circle cx="653" cy="403.5" r="17.32143"/><circle cx="661.66071" cy="408.5" r="17.32143"/><circle cx="644.33929" cy="398.5" r="17.32143"/><circle cx="661.66071" cy="398.5" r="17.32143"/></g><rect x="-842" y="-423" transform="rotate(180)" width="34" height="19" stroke="#000000" stroke-width="0.5" stroke-linecap="butt" opacity="0"/><g stroke="#ffffff" stroke-width="0.5" stroke-linecap="round"><circle cx="-921.22096" cy="54.3985" transform="rotate(-150)" r="20" data-paper-data="{&quot;index&quot;:0}" opacity="0"/><circle cx="-901.22016" cy="54.39804" transform="rotate(-150)" r="20" data-paper-data="{&quot;index&quot;:1}" opacity="0"/><circle cx="-911.22096" cy="71.719" transform="rotate(-150)" r="20" data-paper-data="{&quot;index&quot;:2}" opacity="0"/><circle cx="-931.22176" cy="71.71946" transform="rotate(-150)" r="20" data-paper-data="{&quot;index&quot;:3}" opacity="0"/><circle cx="825" cy="403.5" r="2.67857"/><circle cx="825" cy="403.5" r="10"/></g><rect x="-928" y="-423" transform="rotate(180)" width="34" height="19" stroke="#000000" stroke-width="0.5" stroke-linecap="butt" opacity="0"/><g stroke="#ffffff" stroke-width="0.5" stroke-linecap="round"><circle cx="-995.69914" cy="97.3985" transform="rotate(-150)" r="20" data-paper-data="{&quot;index&quot;:0}" opacity="0"/><circle cx="-975.69835" cy="97.39804" transform="rotate(-150)" r="20" data-paper-data="{&quot;index&quot;:1}" opacity="0"/><circle cx="-985.69914" cy="114.719" transform="rotate(-150)" r="20" data-paper-data="{&quot;index&quot;:2}" opacity="0"/><circle cx="-1005.69994" cy="114.71946" transform="rotate(-150)" r="20" data-paper-data="{&quot;index&quot;:3}" opacity="0"/><circle cx="905.22619" cy="403.5" r="8.45238"/><circle cx="916.77381" cy="403.5" r="8.45238"/><circle cx="905.22619" cy="403.5" r="11.54762"/><circle cx="916.77381" cy="403.5" r="11.54762"/></g><rect x="-1014" y="-423" transform="rotate(180)" width="34" height="19" stroke="#000000" stroke-width="0.5" stroke-linecap="butt" opacity="0"/><g stroke="#ffffff" stroke-width="0.5" stroke-linecap="round"><circle cx="-1070.17733" cy="140.3985" transform="rotate(-150)" r="20" data-paper-data="{&quot;index&quot;:0}" opacity="0"/><circle cx="-1050.17653" cy="140.39804" transform="rotate(-150)" r="20" data-paper-data="{&quot;index&quot;:1}" opacity="0"/><circle cx="-1060.17733" cy="157.719" transform="rotate(-150)" r="20" data-paper-data="{&quot;index&quot;:2}" opacity="0"/><circle cx="-1080.17812" cy="157.71946" transform="rotate(-150)" r="20" data-paper-data="{&quot;index&quot;:3}" opacity="0"/><circle cx="988.33929" cy="408.5" r="10"/><circle cx="997" cy="403.5" r="10"/><circle cx="1005.66071" cy="408.5" r="10"/><circle cx="988.33929" cy="398.5" r="10"/><circle cx="1005.66071" cy="398.5" r="10"/><circle cx="988.33929" cy="408.5" r="17.32143"/><circle cx="997" cy="403.5" r="17.32143"/><circle cx="1005.66071" cy="408.5" r="17.32143"/><circle cx="988.33929" cy="398.5" r="17.32143"/><circle cx="1005.66071" cy="398.5" r="17.32143"/></g><rect x="-670" y="-524" transform="rotate(180)" width="34" height="19" stroke="#000000" stroke-width="0.5" stroke-linecap="butt" opacity="0"/><g stroke="#ffffff" stroke-width="0.5" stroke-linecap="round"><circle cx="-653" cy="-514.5" transform="rotate(180)" r="20" data-paper-data="{&quot;index&quot;:0}" opacity="0"/><circle cx="-633" cy="-514.5" transform="rotate(180)" r="20" data-paper-data="{&quot;index&quot;:1}" opacity="0"/><circle cx="-643" cy="-497.17857" transform="rotate(180)" r="20" data-paper-data="{&quot;index&quot;:2}" opacity="0"/><circle cx="-663" cy="-497.17857" transform="rotate(180)" r="20" data-paper-data="{&quot;index&quot;:3}" opacity="0"/><circle cx="-673" cy="-514.5" transform="rotate(180)" r="20" data-paper-data="{&quot;index&quot;:4}" opacity="0"/><circle cx="648" cy="505.83929" r="2.67857"/><circle cx="658" cy="505.83929" r="2.67857"/><circle cx="648" cy="505.83929" r="10"/><circle cx="658" cy="505.83929" r="10"/><circle cx="643" cy="508.72619" r="8.45238"/><circle cx="653" cy="502.95238" r="8.45238"/><circle cx="663" cy="508.72619" r="8.45238"/><circle cx="643" cy="508.72619" r="11.54762"/><circle cx="653" cy="502.95238" r="11.54762"/><circle cx="663" cy="508.72619" r="11.54762"/><circle cx="643" cy="514.5" r="10"/><circle cx="648" cy="505.83929" r="10"/><circle cx="658" cy="505.83929" r="10"/><circle cx="663" cy="514.5" r="10"/><circle cx="638" cy="505.83929" r="10"/><circle cx="653" cy="497.17857" r="10"/><circle cx="668" cy="505.83929" r="10"/><circle cx="643" cy="514.5" r="17.32143"/><circle cx="648" cy="505.83929" r="17.32143"/><circle cx="658" cy="505.83929" r="17.32143"/><circle cx="663" cy="514.5" r="17.32143"/><circle cx="638" cy="505.83929" r="17.32143"/><circle cx="653" cy="497.17857" r="17.32143"/><circle cx="668" cy="505.83929" r="17.32143"/></g><rect x="-842" y="-524" transform="rotate(180)" width="34" height="19" stroke="#000000" stroke-width="0.5" stroke-linecap="butt" opacity="0"/><g stroke="#ffffff" stroke-width="0.5" stroke-linecap="round"><circle cx="-825" cy="-514.5" transform="rotate(180)" r="20" data-paper-data="{&quot;index&quot;:0}" opacity="0"/><circle cx="-805" cy="-514.5" transform="rotate(180)" r="20" data-paper-data="{&quot;index&quot;:1}" opacity="0"/><circle cx="-815" cy="-497.17857" transform="rotate(180)" r="20" data-paper-data="{&quot;index&quot;:2}" opacity="0"/><circle cx="-835" cy="-497.17857" transform="rotate(180)" r="20" data-paper-data="{&quot;index&quot;:3}" opacity="0"/><circle cx="-845" cy="-514.5" transform="rotate(180)" r="20" data-paper-data="{&quot;index&quot;:4}" opacity="0"/><circle cx="820" cy="505.83929" r="2.67857"/><circle cx="830" cy="505.83929" r="2.67857"/><circle cx="820" cy="505.83929" r="10"/><circle cx="830" cy="505.83929" r="10"/></g><rect x="-928" y="-524" transform="rotate(180)" width="34" height="19" stroke="#000000" stroke-width="0.5" stroke-linecap="butt" opacity="0"/><g stroke="#ffffff" stroke-width="0.5" stroke-linecap="round"><circle cx="-911" cy="-514.5" transform="rotate(180)" r="20" data-paper-data="{&quot;index&quot;:0}" opacity="0"/><circle cx="-891" cy="-514.5" transform="rotate(180)" r="20" data-paper-data="{&quot;index&quot;:1}" opacity="0"/><circle cx="-901" cy="-497.17857" transform="rotate(180)" r="20" data-paper-data="{&quot;index&quot;:2}" opacity="0"/><circle cx="-921" cy="-497.17857" transform="rotate(180)" r="20" data-paper-data="{&quot;index&quot;:3}" opacity="0"/><circle cx="-931" cy="-514.5" transform="rotate(180)" r="20" data-paper-data="{&quot;index&quot;:4}" opacity="0"/><circle cx="901" cy="508.72619" r="8.45238"/><circle cx="911" cy="502.95238" r="8.45238"/><circle cx="921" cy="508.72619" r="8.45238"/><circle cx="901" cy="508.72619" r="11.54762"/><circle cx="911" cy="502.95238" r="11.54762"/><circle cx="921" cy="508.72619" r="11.54762"/></g><rect x="-1014" y="-524" transform="rotate(180)" width="34" height="19" stroke="#000000" stroke-width="0.5" stroke-linecap="butt" opacity="0"/><g stroke="#ffffff" stroke-width="0.5" stroke-linecap="round"><circle cx="-997" cy="-514.5" transform="rotate(180)" r="20" data-paper-data="{&quot;index&quot;:0}" opacity="0"/><circle cx="-977" cy="-514.5" transform="rotate(-180)" r="20" data-paper-data="{&quot;index&quot;:1}" opacity="0"/><circle cx="-987" cy="-497.17857" transform="rotate(-180)" r="20" data-paper-data="{&quot;index&quot;:2}" opacity="0"/><circle cx="-1007" cy="-497.17857" transform="rotate(-180)" r="20" data-paper-data="{&quot;index&quot;:3}" opacity="0"/><circle cx="-1017" cy="-514.5" transform="rotate(-180)" r="20" data-paper-data="{&quot;index&quot;:4}" opacity="0"/><circle cx="987" cy="514.5" r="10"/><circle cx="992" cy="505.83929" r="10"/><circle cx="1002" cy="505.83929" r="10"/><circle cx="1007" cy="514.5" r="10"/><circle cx="982" cy="505.83929" r="10"/><circle cx="997" cy="497.17857" r="10"/><circle cx="1012" cy="505.83929" r="10"/><circle cx="987" cy="514.5" r="17.32143"/><circle cx="992" cy="505.83929" r="17.32143"/><circle cx="1002" cy="505.83929" r="17.32143"/><circle cx="1007" cy="514.5" r="17.32143"/><circle cx="982" cy="505.83929" r="17.32143"/><circle cx="997" cy="497.17857" r="17.32143"/><circle cx="1012" cy="505.83929" r="17.32143"/></g><rect x="-670" y="-625" transform="rotate(180)" width="34" height="19" stroke="#000000" stroke-width="0.5" stroke-linecap="butt" opacity="0"/><g stroke="#ffffff" stroke-width="0.5" stroke-linecap="round"><circle cx="-257.76459" cy="-859.53864" transform="matrix(-0.8660254037844379,0.5000000000000011,-0.5000000000000011,-0.8660254037844379,0,0)" r="20" data-paper-data="{&quot;index&quot;:0}" opacity="0"/><circle cx="-237.76379" cy="-859.53818" transform="matrix(-0.8660254037844379,0.5000000000000011,-0.5000000000000011,-0.8660254037844379,0,0)" r="20" data-paper-data="{&quot;index&quot;:1}" opacity="0"/><circle cx="-247.76379" cy="-842.21767" transform="matrix(-0.8660254037844379,0.5000000000000011,-0.5000000000000011,-0.8660254037844379,0,0)" r="20" data-paper-data="{&quot;index&quot;:2}" opacity="0"/><circle cx="-267.76459" cy="-842.21813" transform="matrix(-0.8660254037844379,0.5000000000000011,-0.5000000000000011,-0.8660254037844379,0,0)" r="20" data-paper-data="{&quot;index&quot;:3}" opacity="0"/><circle cx="-277.76539" cy="-859.5391" transform="matrix(-0.8660254037844379,0.5000000000000011,-0.5000000000000011,-0.8660254037844379,0,0)" r="20" data-paper-data="{&quot;index&quot;:4}" opacity="0"/><circle cx="-267.76539" cy="-876.8596" transform="matrix(-0.8660254037844379,0.5000000000000011,-0.5000000000000011,-0.8660254037844379,0,0)" r="20" data-paper-data="{&quot;index&quot;:5}" opacity="0"/><circle cx="644.33929" cy="610.5" r="2.67857"/><circle cx="653" cy="625.5" r="2.67857"/><circle cx="653" cy="605.5" r="2.67857"/><circle cx="661.66071" cy="610.5" r="2.67857"/><circle cx="644.33929" cy="610.5" r="10"/><circle cx="653" cy="625.5" r="10"/><circle cx="653" cy="605.5" r="10"/><circle cx="661.66071" cy="610.5" r="10"/><circle cx="641.45238" cy="615.5" r="8.45238"/><circle cx="647.22619" cy="605.5" r="8.45238"/><circle cx="658.77381" cy="605.5" r="8.45238"/><circle cx="664.54762" cy="615.5" r="8.45238"/><circle cx="641.45238" cy="615.5" r="11.54762"/><circle cx="647.22619" cy="605.5" r="11.54762"/><circle cx="658.77381" cy="605.5" r="11.54762"/><circle cx="664.54762" cy="615.5" r="11.54762"/><circle cx="644.33929" cy="620.5" r="10"/><circle cx="644.33929" cy="610.5" r="10"/><circle cx="653" cy="605.5" r="10"/><circle cx="661.66071" cy="610.5" r="10"/><circle cx="661.66071" cy="620.5" r="10"/><circle cx="635.67857" cy="615.5" r="10"/><circle cx="644.33929" cy="600.5" r="10"/><circle cx="661.66071" cy="600.5" r="10"/><circle cx="670.32143" cy="615.5" r="10"/><circle cx="644.33929" cy="620.5" r="17.32143"/><circle cx="644.33929" cy="610.5" r="17.32143"/><circle cx="653" cy="605.5" r="17.32143"/><circle cx="661.66071" cy="610.5" r="17.32143"/><circle cx="661.66071" cy="620.5" r="17.32143"/><circle cx="635.67857" cy="615.5" r="17.32143"/><circle cx="644.33929" cy="600.5" r="17.32143"/><circle cx="661.66071" cy="600.5" r="17.32143"/><circle cx="670.32143" cy="615.5" r="17.32143"/></g><rect x="-842" y="-625" transform="rotate(180)" width="34" height="19" stroke="#000000" stroke-width="0.5" stroke-linecap="butt" opacity="0"/><g stroke="#ffffff" stroke-width="0.5" stroke-linecap="round"><circle cx="-406.72096" cy="-945.53864" transform="matrix(-0.8660254037844379,0.5000000000000011,-0.5000000000000011,-0.8660254037844379,0,0)" r="20" data-paper-data="{&quot;index&quot;:0}" opacity="0"/><circle cx="-386.72016" cy="-945.53818" transform="matrix(-0.8660254037844379,0.5000000000000011,-0.5000000000000011,-0.8660254037844379,0,0)" r="20" data-paper-data="{&quot;index&quot;:1}" opacity="0"/><circle cx="-396.72016" cy="-928.21767" transform="matrix(-0.8660254037844379,0.5000000000000011,-0.5000000000000011,-0.8660254037844379,0,0)" r="20" data-paper-data="{&quot;index&quot;:2}" opacity="0"/><circle cx="-416.72096" cy="-928.21813" transform="matrix(-0.8660254037844379,0.5000000000000011,-0.5000000000000011,-0.8660254037844379,0,0)" r="20" data-paper-data="{&quot;index&quot;:3}" opacity="0"/><circle cx="-426.72176" cy="-945.5391" transform="matrix(-0.8660254037844379,0.5000000000000011,-0.5000000000000011,-0.8660254037844379,0,0)" r="20" data-paper-data="{&quot;index&quot;:4}" opacity="0"/><circle cx="-416.72176" cy="-962.8596" transform="matrix(-0.8660254037844379,0.5000000000000011,-0.5000000000000011,-0.8660254037844379,0,0)" r="20" data-paper-data="{&quot;index&quot;:5}" opacity="0"/><circle cx="816.33929" cy="610.5" r="2.67857"/><circle cx="825" cy="625.5" r="2.67857"/><circle cx="825" cy="605.5" r="2.67857"/><circle cx="833.66071" cy="610.5" r="2.67857"/><circle cx="816.33929" cy="610.5" r="10"/><circle cx="825" cy="625.5" r="10"/><circle cx="825" cy="605.5" r="10"/><circle cx="833.66071" cy="610.5" r="10"/></g><rect x="-928" y="-625" transform="rotate(180)" width="34" height="19" stroke="#000000" stroke-width="0.5" stroke-linecap="butt" opacity="0"/><g stroke="#ffffff" stroke-width="0.5" stroke-linecap="round"><circle cx="-481.19914" cy="-988.53864" transform="matrix(-0.8660254037844379,0.5000000000000011,-0.5000000000000011,-0.8660254037844379,0,0)" r="20" data-paper-data="{&quot;index&quot;:0}" opacity="0"/><circle cx="-461.19835" cy="-988.53818" transform="matrix(-0.8660254037844379,0.5000000000000011,-0.5000000000000011,-0.8660254037844379,0,0)" r="20" data-paper-data="{&quot;index&quot;:1}" opacity="0"/><circle cx="-471.19835" cy="-971.21767" transform="matrix(-0.8660254037844379,0.5000000000000011,-0.5000000000000011,-0.8660254037844379,0,0)" r="20" data-paper-data="{&quot;index&quot;:2}" opacity="0"/><circle cx="-491.19914" cy="-971.21813" transform="matrix(-0.8660254037844379,0.5000000000000011,-0.5000000000000011,-0.8660254037844379,0,0)" r="20" data-paper-data="{&quot;index&quot;:3}" opacity="0"/><circle cx="-501.19994" cy="-988.5391" transform="matrix(-0.8660254037844379,0.5000000000000011,-0.5000000000000011,-0.8660254037844379,0,0)" r="20" data-paper-data="{&quot;index&quot;:4}" opacity="0"/><circle cx="-491.19994" cy="-1005.8596" transform="matrix(-0.8660254037844379,0.5000000000000011,-0.5000000000000011,-0.8660254037844379,0,0)" r="20" data-paper-data="{&quot;index&quot;:5}" opacity="0"/><circle cx="899.45238" cy="615.5" r="8.45238"/><circle cx="905.22619" cy="605.5" r="8.45238"/><circle cx="916.77381" cy="605.5" r="8.45238"/><circle cx="922.54762" cy="615.5" r="8.45238"/><circle cx="899.45238" cy="615.5" r="11.54762"/><circle cx="905.22619" cy="605.5" r="11.54762"/><circle cx="916.77381" cy="605.5" r="11.54762"/><circle cx="922.54762" cy="615.5" r="11.54762"/></g><rect x="-1014" y="-625" transform="rotate(180)" width="34" height="19" stroke="#000000" stroke-width="0.5" stroke-linecap="butt" opacity="0"/><g stroke="#ffffff" stroke-width="0.5" stroke-linecap="round"><circle cx="-555.67733" cy="-1031.53864" transform="matrix(-0.8660254037844379,0.5000000000000011,-0.5000000000000011,-0.8660254037844379,0,0)" r="20" data-paper-data="{&quot;index&quot;:0}" opacity="0"/><circle cx="-535.67653" cy="-1031.53818" transform="rotate(150)" r="20" data-paper-data="{&quot;index&quot;:1}" opacity="0"/><circle cx="-545.67653" cy="-1014.21767" transform="rotate(150)" r="20" data-paper-data="{&quot;index&quot;:2}" opacity="0"/><circle cx="-565.67733" cy="-1014.21813" transform="rotate(150)" r="20" data-paper-data="{&quot;index&quot;:3}" opacity="0"/><circle cx="-575.67812" cy="-1031.5391" transform="rotate(150)" r="20" data-paper-data="{&quot;index&quot;:4}" opacity="0"/><circle cx="-565.67812" cy="-1048.8596" transform="rotate(150)" r="20" data-paper-data="{&quot;index&quot;:5}" opacity="0"/><circle cx="988.33929" cy="620.5" r="10"/><circle cx="988.33929" cy="610.5" r="10"/><circle cx="997" cy="605.5" r="10"/><circle cx="1005.66071" cy="610.5" r="10"/><circle cx="1005.66071" cy="620.5" r="10"/><circle cx="979.67857" cy="615.5" r="10"/><circle cx="988.33929" cy="600.5" r="10"/><circle cx="1005.66071" cy="600.5" r="10"/><circle cx="1014.32143" cy="615.5" transform="rotate(0)" r="10"/><circle cx="988.33929" cy="620.5" r="17.32143"/><circle cx="988.33929" cy="610.5" r="17.32143"/><circle cx="997" cy="605.5" r="17.32143"/><circle cx="1005.66071" cy="610.5" r="17.32143"/><circle cx="1005.66071" cy="620.5" r="17.32143"/><circle cx="979.67857" cy="615.5" r="17.32143"/><circle cx="988.33929" cy="600.5" r="17.32143"/><circle cx="1005.66071" cy="600.5" r="17.32143"/><circle cx="1014.32143" cy="615.5" r="17.32143"/></g><rect x="-670" y="-726" transform="rotate(180)" width="34" height="19" stroke="#000000" stroke-width="0.5" stroke-linecap="butt" opacity="0"/><g stroke="#ffffff" stroke-width="0.5" stroke-linecap="round"><circle cx="-923.76459" cy="-294.0072" transform="rotate(-150)" r="20" data-paper-data="{&quot;index&quot;:0}" opacity="0"/><circle cx="-903.76379" cy="-294.00766" transform="rotate(-150)" r="20" data-paper-data="{&quot;index&quot;:1}" opacity="0"/><circle cx="-913.76459" cy="-276.68669" transform="rotate(-150)" r="20" data-paper-data="{&quot;index&quot;:2}" opacity="0"/><circle cx="-933.76539" cy="-276.68623" transform="rotate(-150)" r="20" data-paper-data="{&quot;index&quot;:3}" opacity="0"/><circle cx="-943.76539" cy="-294.00674" transform="rotate(-150)" r="20" data-paper-data="{&quot;index&quot;:4}" opacity="0"/><circle cx="-933.76459" cy="-311.32771" transform="rotate(-150)" r="20" data-paper-data="{&quot;index&quot;:5}" opacity="0"/><circle cx="-913.76379" cy="-311.32817" transform="rotate(-150)" r="20" data-paper-data="{&quot;index&quot;:6}" opacity="0"/><circle cx="653" cy="706.5" r="2.67857"/><circle cx="644.33929" cy="721.5" r="2.67857"/><circle cx="661.66071" cy="711.5" r="2.67857"/><circle cx="644.33929" cy="711.5" r="2.67857"/><circle cx="661.66071" cy="721.5" r="2.67857"/><circle cx="653" cy="726.5" r="2.67857"/><circle cx="653" cy="706.5" r="10"/><circle cx="644.33929" cy="721.5" r="10"/><circle cx="661.66071" cy="711.5" r="10"/><circle cx="644.33929" cy="711.5" r="10"/><circle cx="661.66071" cy="721.5" r="10"/><circle cx="653" cy="726.5" r="10"/><circle cx="647.22619" cy="706.5" r="8.45238"/><circle cx="641.45238" cy="716.5" r="8.45238"/><circle cx="658.77381" cy="706.5" r="8.45238"/><circle cx="664.54762" cy="716.5" r="8.45238"/><circle cx="658.77381" cy="726.5" r="8.45238"/><circle cx="647.22619" cy="726.5" r="8.45238"/><circle cx="647.22619" cy="706.5" r="11.54762"/><circle cx="641.45238" cy="716.5" r="11.54762"/><circle cx="658.77381" cy="706.5" r="11.54762"/><circle cx="664.54762" cy="716.5" r="11.54762"/><circle cx="658.77381" cy="726.5" r="11.54762"/><circle cx="647.22619" cy="726.5" r="11.54762"/><circle cx="644.33929" cy="711.5" r="10"/><circle cx="653" cy="706.5" r="10"/><circle cx="661.66071" cy="711.5" r="10"/><circle cx="661.66071" cy="721.5" r="10"/><circle cx="653" cy="726.5" r="10"/><circle cx="644.33929" cy="721.5" r="10"/><circle cx="644.33929" cy="701.5" r="10"/><circle cx="635.67857" cy="716.5" r="10"/><circle cx="661.66071" cy="701.5" r="10"/><circle cx="670.32143" cy="716.5" r="10"/><circle cx="661.66071" cy="731.5" r="10"/><circle cx="644.33929" cy="731.5" r="10"/><circle cx="644.33929" cy="711.5" r="17.32143"/><circle cx="653" cy="706.5" r="17.32143"/><circle cx="661.66071" cy="711.5" r="17.32143"/><circle cx="661.66071" cy="721.5" r="17.32143"/><circle cx="653" cy="726.5" r="17.32143"/><circle cx="644.33929" cy="721.5" r="17.32143"/><circle cx="644.33929" cy="701.5" r="17.32143"/><circle cx="635.67857" cy="716.5" r="17.32143"/><circle cx="661.66071" cy="701.5" r="17.32143"/><circle cx="670.32143" cy="716.5" r="17.32143"/><circle cx="661.66071" cy="731.5" r="17.32143"/><circle cx="644.33929" cy="731.5" r="17.32143"/></g><rect x="-842" y="-726" transform="rotate(180)" width="34" height="19" stroke="#000000" stroke-width="0.5" stroke-linecap="butt" opacity="0"/><g stroke="#ffffff" stroke-width="0.5" stroke-linecap="round"><circle cx="-1072.72096" cy="-208.0072" transform="rotate(-150)" r="20" data-paper-data="{&quot;index&quot;:0}" opacity="0"/><circle cx="-1052.72016" cy="-208.00766" transform="rotate(-150)" r="20" data-paper-data="{&quot;index&quot;:1}" opacity="0"/><circle cx="-1062.72096" cy="-190.68669" transform="rotate(-150)" r="20" data-paper-data="{&quot;index&quot;:2}" opacity="0"/><circle cx="-1082.72176" cy="-190.68623" transform="rotate(-150)" r="20" data-paper-data="{&quot;index&quot;:3}" opacity="0"/><circle cx="-1092.72176" cy="-208.00674" transform="rotate(-150)" r="20" data-paper-data="{&quot;index&quot;:4}" opacity="0"/><circle cx="-1082.72096" cy="-225.32771" transform="rotate(-150)" r="20" data-paper-data="{&quot;index&quot;:5}" opacity="0"/><circle cx="-1062.72016" cy="-225.32817" transform="rotate(-150)" r="20" data-paper-data="{&quot;index&quot;:6}" opacity="0"/><circle cx="825" cy="706.5" r="2.67857"/><circle cx="816.33929" cy="721.5" r="2.67857"/><circle cx="833.66071" cy="711.5" r="2.67857"/><circle cx="816.33929" cy="711.5" r="2.67857"/><circle cx="833.66071" cy="721.5" r="2.67857"/><circle cx="825" cy="726.5" r="2.67857"/><circle cx="825" cy="706.5" r="10"/><circle cx="816.33929" cy="721.5" r="10"/><circle cx="833.66071" cy="711.5" r="10"/><circle cx="816.33929" cy="711.5" r="10"/><circle cx="833.66071" cy="721.5" r="10"/><circle cx="825" cy="726.5" r="10"/></g><rect x="-928" y="-726" transform="rotate(180)" width="34" height="19" stroke="#000000" stroke-width="0.5" stroke-linecap="butt" opacity="0"/><g stroke="#ffffff" stroke-width="0.5" stroke-linecap="round"><circle cx="-1147.19914" cy="-165.0072" transform="rotate(-150)" r="20" data-paper-data="{&quot;index&quot;:0}" opacity="0"/><circle cx="-1127.19835" cy="-165.00766" transform="rotate(-150)" r="20" data-paper-data="{&quot;index&quot;:1}" opacity="0"/><circle cx="-1137.19914" cy="-147.68669" transform="rotate(-150)" r="20" data-paper-data="{&quot;index&quot;:2}" opacity="0"/><circle cx="-1157.19994" cy="-147.68623" transform="rotate(-150)" r="20" data-paper-data="{&quot;index&quot;:3}" opacity="0"/><circle cx="-1167.19994" cy="-165.00674" transform="rotate(-150)" r="20" data-paper-data="{&quot;index&quot;:4}" opacity="0"/><circle cx="-1157.19914" cy="-182.32771" transform="rotate(-150)" r="20" data-paper-data="{&quot;index&quot;:5}" opacity="0"/><circle cx="-1137.19835" cy="-182.32817" transform="rotate(-150)" r="20" data-paper-data="{&quot;index&quot;:6}" opacity="0"/><circle cx="905.22619" cy="706.5" r="8.45238"/><circle cx="899.45238" cy="716.5" r="8.45238"/><circle cx="916.77381" cy="706.5" r="8.45238"/><circle cx="922.54762" cy="716.5" r="8.45238"/><circle cx="916.77381" cy="726.5" r="8.45238"/><circle cx="905.22619" cy="726.5" r="8.45238"/><circle cx="905.22619" cy="706.5" r="11.54762"/><circle cx="899.45238" cy="716.5" r="11.54762"/><circle cx="916.77381" cy="706.5" r="11.54762"/><circle cx="922.54762" cy="716.5" r="11.54762"/><circle cx="916.77381" cy="726.5" r="11.54762"/><circle cx="905.22619" cy="726.5" r="11.54762"/></g><rect x="-1014" y="-726" transform="rotate(180)" width="34" height="19" stroke="#000000" stroke-width="0.5" stroke-linecap="butt" opacity="0"/><g stroke="#ffffff" stroke-width="0.5" stroke-linecap="round"><circle cx="-1221.67733" cy="-122.0072" transform="rotate(-150)" r="20" data-paper-data="{&quot;index&quot;:0}" opacity="0"/><circle cx="-1201.67653" cy="-122.00766" transform="rotate(-150)" r="20" data-paper-data="{&quot;index&quot;:1}" opacity="0"/><circle cx="-1211.67733" cy="-104.68669" transform="rotate(-150)" r="20" data-paper-data="{&quot;index&quot;:2}" opacity="0"/><circle cx="-1231.67812" cy="-104.68623" transform="rotate(-150)" r="20" data-paper-data="{&quot;index&quot;:3}" opacity="0"/><circle cx="-1241.67812" cy="-122.00674" transform="rotate(-150)" r="20" data-paper-data="{&quot;index&quot;:4}" opacity="0"/><circle cx="-1231.67733" cy="-139.32771" transform="rotate(-150)" r="20" data-paper-data="{&quot;index&quot;:5}" opacity="0"/><circle cx="-1211.67653" cy="-139.32817" transform="rotate(-150)" r="20" data-paper-data="{&quot;index&quot;:6}" opacity="0"/><circle cx="988.33929" cy="711.5" r="10"/><circle cx="997" cy="706.5" r="10"/><circle cx="1005.66071" cy="711.5" r="10"/><circle cx="1005.66071" cy="721.5" r="10"/><circle cx="997" cy="726.5" r="10"/><circle cx="988.33929" cy="721.5" r="10"/><circle cx="988.33929" cy="701.5" r="10"/><circle cx="979.67857" cy="716.5" r="10"/><circle cx="1005.66071" cy="701.5" r="10"/><circle cx="1014.32143" cy="716.5" transform="rotate(0)" r="10"/><circle cx="1005.66071" cy="731.5" r="10"/><circle cx="988.33929" cy="731.5" r="10"/><circle cx="988.33929" cy="711.5" r="17.32143"/><circle cx="997" cy="706.5" r="17.32143"/><circle cx="1005.66071" cy="711.5" r="17.32143"/><circle cx="1005.66071" cy="721.5" r="17.32143"/><circle cx="997" cy="726.5" r="17.32143"/><circle cx="988.33929" cy="721.5" r="17.32143"/><circle cx="988.33929" cy="701.5" r="17.32143"/><circle cx="979.67857" cy="716.5" r="17.32143"/><circle cx="1005.66071" cy="701.5" r="17.32143"/><circle cx="1014.32143" cy="716.5" r="17.32143"/><circle cx="1005.66071" cy="731.5" r="17.32143"/><circle cx="988.33929" cy="731.5" r="17.32143"/></g></g></svg>