<svg version="1.1" xmlns="http://www.w3.org/2000/svg" xmlns:xlink="http://www.w3.org/1999/xlink" width="3300" height="2550"><g fill="none" fill-rule="nonzero" stroke="none" stroke-width="1" stroke-linecap="butt" stroke-linejoin="miter" stroke-miterlimit="10" stroke-dasharray="none" stroke-dashoffset="0" font-family="none" font-weight="none" font-size="none" text-anchor="none" style="mix-blend-mode: normal"><path d="M0,850v-850h825v850z" fill="none" stroke="#000000" stroke-dasharray="1,4"/><path d="M122.5,715v-580h580v580z" fill="#3939e6" stroke="none" stroke-dasharray=""/><path d="M0,1700v-850h825v850z" fill="none" stroke="#000000" stroke-dasharray="1,4"/><path d="M122.5,1565v-580h580v580z" fill="#398fe6" stroke="none" stroke-dasharray=""/><path d="M0,2550v-850h825v850z" fill="none" stroke="#000000" stroke-dasharray="1,4"/><path d="M122.5,2415v-580h580v580z" fill="#39e6e6" stroke="none" stroke-dasharray=""/><path d="M825,850v-850h825v850z" fill="none" stroke="#000000" stroke-dasharray="1,4"/><path d="M947.5,715v-580h580v580z" fill="#39e68f" stroke="none" stroke-dasharray=""/><path d="M825,1700v-850h825v850z" fill="none" stroke="#000000" stroke-dasharray="1,4"/><path d="M947.5,1565v-580h580v580z" fill="#39e639" stroke="none" stroke-dasharray=""/><path d="M825,2550v-850h825v850z" fill="none" stroke="#000000" stroke-dasharray="1,4"/><path d="M947.5,2415v-580h580v580z" fill="#8fe639" stroke="none" stroke-dasharray=""/><path d="M1650,850v-850h825v850z" fill="none" stroke="#000000" stroke-dasharray="1,4"/><path d="M1772.5,715v-580h580v580z" fill="#e6e639" stroke="none" stroke-dasharray=""/><path d="M1650,1700v-850h825v850z" fill="none" stroke="#000000" stroke-dasharray="1,4"/><path d="M1772.5,1565v-580h580v580z" fill="#e68f39" stroke="none" stroke-dasharray=""/><path d="M1650,2550v-850h825v850z" fill="none" stroke="#000000" stroke-dasharray="1,4"/><path d="M1772.5,2415v-580h580v580z" fill="#e63939" stroke="none" stroke-dasharray=""/><path d="M2475,850v-850h825v850z" fill="none" stroke="#000000" stroke-dasharray="1,4"/><path d="M2597.5,715v-580h580v580z" fill="#e6398f" stroke="none" stroke-dasharray=""/><path d="M2475,1700v-850h825v850z" fill="none" stroke="#000000" stroke-dasharray="1,4"/><path d="M2597.5,1565v-580h580v580z" fill="#e639e6" stroke="none" stroke-dasharray=""/><path d="M2475,2550v-850h825v850z" fill="none" stroke="#000000" stroke-dasharray="1,4"/><path d="M2597.5,2415v-580h580v580z" fill="#8f39e6" stroke="none" stroke-dasharray=""/></g></svg>