<svg x="0" y="0" width="2550" height="3300" version="1.1" xmlns="http://www.w3.org/2000/svg" xmlns:xlink="http://www.w3.org/1999/xlink"><g fill="none" stroke="#000000" stroke-width="4" stroke-linecap="butt" stroke-linejoin="miter" stroke-miterlimit="10" stroke-dasharray="" stroke-dashoffset="0" font-family="sans-serif" font-weight="normal" font-size="12" text-anchor="start" mix-blend-mode="normal"><line x1="1275" y1="525" x2="1275" y2="2775"/><line x1="150" y1="1650" x2="2400" y2="1650"/><path d="M1200,1650c0,-41.42136 33.57864,-75 75,-75c41.42136,0 75,33.57864 75,75c0,41.42136 -33.57864,75 -75,75c-41.42136,0 -75,-33.57864 -75,-75z"/><path d="M1125,1650c0,-82.84271 67.15729,-150 150,-150c82.84271,0 150,67.15729 150,150c0,82.84271 -67.15729,150 -150,150c-82.84271,0 -150,-67.15729 -150,-150z"/><path d="M1050,1650c0,-124.26407 100.73593,-225 225,-225c124.26407,0 225,100.73593 225,225c0,124.26407 -100.73593,225 -225,225c-124.26407,0 -225,-100.73593 -225,-225z"/><path d="M975,1650c0,-165.68542 134.31458,-300 300,-300c165.68542,0 300,134.31458 300,300c0,165.68542 -134.31458,300 -300,300c-165.68542,0 -300,-134.31458 -300,-300z"/><path d="M900,1650c0,-207.10678 167.89322,-375 375,-375c207.10678,0 375,167.89322 375,375c0,207.10678 -167.89322,375 -375,375c-207.10678,0 -375,-167.89322 -375,-375z"/><path d="M825,1650c0,-248.52814 201.47186,-450 450,-450c248.52814,0 450,201.47186 450,450c0,248.52814 -201.47186,450 -450,450c-248.52814,0 -450,-201.47186 -450,-450z"/><path d="M750,1650c0,-289.94949 235.05051,-525 525,-525c289.94949,0 525,235.05051 525,525c0,289.94949 -235.05051,525 -525,525c-289.94949,0 -525,-235.05051 -525,-525z"/><path d="M675,1650c0,-331.37085 268.62915,-600 600,-600c331.37085,0 600,268.62915 600,600c0,331.37085 -268.62915,600 -600,600c-331.37085,0 -600,-268.62915 -600,-600z"/><path d="M600,1650c0,-372.79221 302.20779,-675 675,-675c372.79221,0 675,302.20779 675,675c0,372.79221 -302.20779,675 -675,675c-372.79221,0 -675,-302.20779 -675,-675z"/><path d="M525,1650c0,-414.21356 335.78644,-750 750,-750c414.21356,0 750,335.78644 750,750c0,414.21356 -335.78644,750 -750,750c-414.21356,0 -750,-335.78644 -750,-750z"/><path d="M450,1650c0,-455.63492 369.36508,-825 825,-825c455.63492,0 825,369.36508 825,825c0,455.63492 -369.36508,825 -825,825c-455.63492,0 -825,-369.36508 -825,-825z"/><path d="M375,1650c0,-497.05627 402.94373,-900 900,-900c497.05627,0 900,402.94373 900,900c0,497.05627 -402.94373,900 -900,900c-497.05627,0 -900,-402.94373 -900,-900z"/><path d="M300,1650c0,-538.47763 436.52237,-975 975,-975c538.47763,0 975,436.52237 975,975c0,538.47763 -436.52237,975 -975,975c-538.47763,0 -975,-436.52237 -975,-975z"/><path d="M225,1650c0,-579.89899 470.10101,-1050 1050,-1050c579.89899,0 1050,470.10101 1050,1050c0,579.89899 -470.10101,1050 -1050,1050c-579.89899,0 -1050,-470.10101 -1050,-1050z"/><path d="M150,1650c0,-621.32034 503.67966,-1125 1125,-1125c621.32034,0 1125,503.67966 1125,1125c0,621.32034 -503.67966,1125 -1125,1125c-621.32034,0 -1125,-503.67966 -1125,-1125z"/></g></svg>