<svg x="0" y="0" width="2550" height="3300" version="1.1" xmlns="http://www.w3.org/2000/svg" xmlns:xlink="http://www.w3.org/1999/xlink"><g fill="none" stroke="#000000" stroke-width="4" stroke-linecap="butt" stroke-linejoin="miter" stroke-miterlimit="10" stroke-dasharray="" stroke-dashoffset="0" font-family="sans-serif" font-weight="normal" font-size="12" text-anchor="start" mix-blend-mode="normal"><line x1="1275" y1="112.5" x2="1275" y2="1612.5"/><line x1="525" y1="862.5" x2="2025" y2="862.5"/><path d="M1200,862.5c0,-41.42136 33.57864,-75 75,-75c41.42136,0 75,33.57864 75,75c0,41.42136 -33.57864,75 -75,75c-41.42136,0 -75,-33.57864 -75,-75z"/><path d="M1125,862.5c0,-82.84271 67.15729,-150 150,-150c82.84271,0 150,67.15729 150,150c0,82.84271 -67.15729,150 -150,150c-82.84271,0 -150,-67.15729 -150,-150z"/><path d="M1050,862.5c0,-124.26407 100.73593,-225 225,-225c124.26407,0 225,100.73593 225,225c0,124.26407 -100.73593,225 -225,225c-124.26407,0 -225,-100.73593 -225,-225z"/><path d="M975,862.5c0,-165.68542 134.31458,-300 300,-300c165.68542,0 300,134.31458 300,300c0,165.68542 -134.31458,300 -300,300c-165.68542,0 -300,-134.31458 -300,-300z"/><path d="M900,862.5c0,-207.10678 167.89322,-375 375,-375c207.10678,0 375,167.89322 375,375c0,207.10678 -167.89322,375 -375,375c-207.10678,0 -375,-167.89322 -375,-375z"/><path d="M825,862.5c0,-248.52814 201.47186,-450 450,-450c248.52814,0 450,201.47186 450,450c0,248.52814 -201.47186,450 -450,450c-248.52814,0 -450,-201.47186 -450,-450z"/><path d="M750,862.5c0,-289.94949 235.05051,-525 525,-525c289.94949,0 525,235.05051 525,525c0,289.94949 -235.05051,525 -525,525c-289.94949,0 -525,-235.05051 -525,-525z"/><path d="M675,862.5c0,-331.37085 268.62915,-600 600,-600c331.37085,0 600,268.62915 600,600c0,331.37085 -268.62915,600 -600,600c-331.37085,0 -600,-268.62915 -600,-600z"/><path d="M600,862.5c0,-372.79221 302.20779,-675 675,-675c372.79221,0 675,302.20779 675,675c0,372.79221 -302.20779,675 -675,675c-372.79221,0 -675,-302.20779 -675,-675z"/><path d="M525,862.5c0,-414.21356 335.78644,-750 750,-750c414.21356,0 750,335.78644 750,750c0,414.21356 -335.78644,750 -750,750c-414.21356,0 -750,-335.78644 -750,-750z"/><line x1="1275" y1="1687.5" x2="1275" y2="3187.5"/><line x1="525" y1="2437.5" x2="2025" y2="2437.5"/><path d="M1200,2437.5c0,-41.42136 33.57864,-75 75,-75c41.42136,0 75,33.57864 75,75c0,41.42136 -33.57864,75 -75,75c-41.42136,0 -75,-33.57864 -75,-75z"/><path d="M1125,2437.5c0,-82.84271 67.15729,-150 150,-150c82.84271,0 150,67.15729 150,150c0,82.84271 -67.15729,150 -150,150c-82.84271,0 -150,-67.15729 -150,-150z"/><path d="M1050,2437.5c0,-124.26407 100.73593,-225 225,-225c124.26407,0 225,100.73593 225,225c0,124.26407 -100.73593,225 -225,225c-124.26407,0 -225,-100.73593 -225,-225z"/><path d="M975,2437.5c0,-165.68542 134.31458,-300 300,-300c165.68542,0 300,134.31458 300,300c0,165.68542 -134.31458,300 -300,300c-165.68542,0 -300,-134.31458 -300,-300z"/><path d="M900,2437.5c0,-207.10678 167.89322,-375 375,-375c207.10678,0 375,167.89322 375,375c0,207.10678 -167.89322,375 -375,375c-207.10678,0 -375,-167.89322 -375,-375z"/><path d="M825,2437.5c0,-248.52814 201.47186,-450 450,-450c248.52814,0 450,201.47186 450,450c0,248.52814 -201.47186,450 -450,450c-248.52814,0 -450,-201.47186 -450,-450z"/><path d="M750,2437.5c0,-289.94949 235.05051,-525 525,-525c289.94949,0 525,235.05051 525,525c0,289.94949 -235.05051,525 -525,525c-289.94949,0 -525,-235.05051 -525,-525z"/><path d="M675,2437.5c0,-331.37085 268.62915,-600 600,-600c331.37085,0 600,268.62915 600,600c0,331.37085 -268.62915,600 -600,600c-331.37085,0 -600,-268.62915 -600,-600z"/><path d="M600,2437.5c0,-372.79221 302.20779,-675 675,-675c372.79221,0 675,302.20779 675,675c0,372.79221 -302.20779,675 -675,675c-372.79221,0 -675,-302.20779 -675,-675z"/><path d="M525,2437.5c0,-414.21356 335.78644,-750 750,-750c414.21356,0 750,335.78644 750,750c0,414.21356 -335.78644,750 -750,750c-414.21356,0 -750,-335.78644 -750,-750z"/></g></svg>