<svg x="0" y="0" width="2550" height="3300" version="1.1" xmlns="http://www.w3.org/2000/svg" xmlns:xlink="http://www.w3.org/1999/xlink"><g fill="none" stroke="#000000" stroke-width="4" stroke-linecap="butt" stroke-linejoin="miter" stroke-miterlimit="10" stroke-dasharray="" stroke-dashoffset="0" font-family="sans-serif" font-weight="normal" font-size="12" text-anchor="start" mix-blend-mode="normal"><line x1="750" y1="175" x2="750" y2="1075"/><line x1="300" y1="625" x2="1200" y2="625"/><path d="M675,625c0,-41.42136 33.57864,-75 75,-75c41.42136,0 75,33.57864 75,75c0,41.42136 -33.57864,75 -75,75c-41.42136,0 -75,-33.57864 -75,-75z"/><path d="M600,625c0,-82.84271 67.15729,-150 150,-150c82.84271,0 150,67.15729 150,150c0,82.84271 -67.15729,150 -150,150c-82.84271,0 -150,-67.15729 -150,-150z"/><path d="M525,625c0,-124.26407 100.73593,-225 225,-225c124.26407,0 225,100.73593 225,225c0,124.26407 -100.73593,225 -225,225c-124.26407,0 -225,-100.73593 -225,-225z"/><path d="M450,625c0,-165.68542 134.31458,-300 300,-300c165.68542,0 300,134.31458 300,300c0,165.68542 -134.31458,300 -300,300c-165.68542,0 -300,-134.31458 -300,-300z"/><path d="M375,625c0,-207.10678 167.89322,-375 375,-375c207.10678,0 375,167.89322 375,375c0,207.10678 -167.89322,375 -375,375c-207.10678,0 -375,-167.89322 -375,-375z"/><path d="M300,625c0,-248.52814 201.47186,-450 450,-450c248.52814,0 450,201.47186 450,450c0,248.52814 -201.47186,450 -450,450c-248.52814,0 -450,-201.47186 -450,-450z"/><line x1="1800" y1="175" x2="1800" y2="1075"/><line x1="1350" y1="625" x2="2250" y2="625"/><path d="M1725,625c0,-41.42136 33.57864,-75 75,-75c41.42136,0 75,33.57864 75,75c0,41.42136 -33.57864,75 -75,75c-41.42136,0 -75,-33.57864 -75,-75z"/><path d="M1650,625c0,-82.84271 67.15729,-150 150,-150c82.84271,0 150,67.15729 150,150c0,82.84271 -67.15729,150 -150,150c-82.84271,0 -150,-67.15729 -150,-150z"/><path d="M1575,625c0,-124.26407 100.73593,-225 225,-225c124.26407,0 225,100.73593 225,225c0,124.26407 -100.73593,225 -225,225c-124.26407,0 -225,-100.73593 -225,-225z"/><path d="M1500,625c0,-165.68542 134.31458,-300 300,-300c165.68542,0 300,134.31458 300,300c0,165.68542 -134.31458,300 -300,300c-165.68542,0 -300,-134.31458 -300,-300z"/><path d="M1425,625c0,-207.10678 167.89322,-375 375,-375c207.10678,0 375,167.89322 375,375c0,207.10678 -167.89322,375 -375,375c-207.10678,0 -375,-167.89322 -375,-375z"/><path d="M1350,625c0,-248.52814 201.47186,-450 450,-450c248.52814,0 450,201.47186 450,450c0,248.52814 -201.47186,450 -450,450c-248.52814,0 -450,-201.47186 -450,-450z"/><line x1="750" y1="1200" x2="750" y2="2100"/><line x1="300" y1="1650" x2="1200" y2="1650"/><path d="M675,1650c0,-41.42136 33.57864,-75 75,-75c41.42136,0 75,33.57864 75,75c0,41.42136 -33.57864,75 -75,75c-41.42136,0 -75,-33.57864 -75,-75z"/><path d="M600,1650c0,-82.84271 67.15729,-150 150,-150c82.84271,0 150,67.15729 150,150c0,82.84271 -67.15729,150 -150,150c-82.84271,0 -150,-67.15729 -150,-150z"/><path d="M525,1650c0,-124.26407 100.73593,-225 225,-225c124.26407,0 225,100.73593 225,225c0,124.26407 -100.73593,225 -225,225c-124.26407,0 -225,-100.73593 -225,-225z"/><path d="M450,1650c0,-165.68542 134.31458,-300 300,-300c165.68542,0 300,134.31458 300,300c0,165.68542 -134.31458,300 -300,300c-165.68542,0 -300,-134.31458 -300,-300z"/><path d="M375,1650c0,-207.10678 167.89322,-375 375,-375c207.10678,0 375,167.89322 375,375c0,207.10678 -167.89322,375 -375,375c-207.10678,0 -375,-167.89322 -375,-375z"/><path d="M300,1650c0,-248.52814 201.47186,-450 450,-450c248.52814,0 450,201.47186 450,450c0,248.52814 -201.47186,450 -450,450c-248.52814,0 -450,-201.47186 -450,-450z"/><line x1="1800" y1="1200" x2="1800" y2="2100"/><line x1="1350" y1="1650" x2="2250" y2="1650"/><path d="M1725,1650c0,-41.42136 33.57864,-75 75,-75c41.42136,0 75,33.57864 75,75c0,41.42136 -33.57864,75 -75,75c-41.42136,0 -75,-33.57864 -75,-75z"/><path d="M1650,1650c0,-82.84271 67.15729,-150 150,-150c82.84271,0 150,67.15729 150,150c0,82.84271 -67.15729,150 -150,150c-82.84271,0 -150,-67.15729 -150,-150z"/><path d="M1575,1650c0,-124.26407 100.73593,-225 225,-225c124.26407,0 225,100.73593 225,225c0,124.26407 -100.73593,225 -225,225c-124.26407,0 -225,-100.73593 -225,-225z"/><path d="M1500,1650c0,-165.68542 134.31458,-300 300,-300c165.68542,0 300,134.31458 300,300c0,165.68542 -134.31458,300 -300,300c-165.68542,0 -300,-134.31458 -300,-300z"/><path d="M1425,1650c0,-207.10678 167.89322,-375 375,-375c207.10678,0 375,167.89322 375,375c0,207.10678 -167.89322,375 -375,375c-207.10678,0 -375,-167.89322 -375,-375z"/><path d="M1350,1650c0,-248.52814 201.47186,-450 450,-450c248.52814,0 450,201.47186 450,450c0,248.52814 -201.47186,450 -450,450c-248.52814,0 -450,-201.47186 -450,-450z"/><line x1="750" y1="2225" x2="750" y2="3125"/><line x1="300" y1="2675" x2="1200" y2="2675"/><path d="M675,2675c0,-41.42136 33.57864,-75 75,-75c41.42136,0 75,33.57864 75,75c0,41.42136 -33.57864,75 -75,75c-41.42136,0 -75,-33.57864 -75,-75z"/><path d="M600,2675c0,-82.84271 67.15729,-150 150,-150c82.84271,0 150,67.15729 150,150c0,82.84271 -67.15729,150 -150,150c-82.84271,0 -150,-67.15729 -150,-150z"/><path d="M525,2675c0,-124.26407 100.73593,-225 225,-225c124.26407,0 225,100.73593 225,225c0,124.26407 -100.73593,225 -225,225c-124.26407,0 -225,-100.73593 -225,-225z"/><path d="M450,2675c0,-165.68542 134.31458,-300 300,-300c165.68542,0 300,134.31458 300,300c0,165.68542 -134.31458,300 -300,300c-165.68542,0 -300,-134.31458 -300,-300z"/><path d="M375,2675c0,-207.10678 167.89322,-375 375,-375c207.10678,0 375,167.89322 375,375c0,207.10678 -167.89322,375 -375,375c-207.10678,0 -375,-167.89322 -375,-375z"/><path d="M300,2675c0,-248.52814 201.47186,-450 450,-450c248.52814,0 450,201.47186 450,450c0,248.52814 -201.47186,450 -450,450c-248.52814,0 -450,-201.47186 -450,-450z"/><line x1="1800" y1="2225" x2="1800" y2="3125"/><line x1="1350" y1="2675" x2="2250" y2="2675"/><path d="M1725,2675c0,-41.42136 33.57864,-75 75,-75c41.42136,0 75,33.57864 75,75c0,41.42136 -33.57864,75 -75,75c-41.42136,0 -75,-33.57864 -75,-75z"/><path d="M1650,2675c0,-82.84271 67.15729,-150 150,-150c82.84271,0 150,67.15729 150,150c0,82.84271 -67.15729,150 -150,150c-82.84271,0 -150,-67.15729 -150,-150z"/><path d="M1575,2675c0,-124.26407 100.73593,-225 225,-225c124.26407,0 225,100.73593 225,225c0,124.26407 -100.73593,225 -225,225c-124.26407,0 -225,-100.73593 -225,-225z"/><path d="M1500,2675c0,-165.68542 134.31458,-300 300,-300c165.68542,0 300,134.31458 300,300c0,165.68542 -134.31458,300 -300,300c-165.68542,0 -300,-134.31458 -300,-300z"/><path d="M1425,2675c0,-207.10678 167.89322,-375 375,-375c207.10678,0 375,167.89322 375,375c0,207.10678 -167.89322,375 -375,375c-207.10678,0 -375,-167.89322 -375,-375z"/><path d="M1350,2675c0,-248.52814 201.47186,-450 450,-450c248.52814,0 450,201.47186 450,450c0,248.52814 -201.47186,450 -450,450c-248.52814,0 -450,-201.47186 -450,-450z"/></g></svg>