<svg x="0" y="0" width="2550" height="3300" version="1.1" xmlns="http://www.w3.org/2000/svg" xmlns:xlink="http://www.w3.org/1999/xlink"><g fill="none" stroke="#000000" stroke-width="4" stroke-linecap="butt" stroke-linejoin="miter" stroke-miterlimit="10" stroke-dasharray="" stroke-dashoffset="0" font-family="sans-serif" font-weight="normal" font-size="12" text-anchor="start" mix-blend-mode="normal"><line x1="487.5" y1="160" x2="487.5" y2="760"/><line x1="187.5" y1="460" x2="787.5" y2="460"/><path d="M412.5,460c0,-41.42136 33.57864,-75 75,-75c41.42136,0 75,33.57864 75,75c0,41.42136 -33.57864,75 -75,75c-41.42136,0 -75,-33.57864 -75,-75z"/><path d="M337.5,460c0,-82.84271 67.15729,-150 150,-150c82.84271,0 150,67.15729 150,150c0,82.84271 -67.15729,150 -150,150c-82.84271,0 -150,-67.15729 -150,-150z"/><path d="M262.5,460c0,-124.26407 100.73593,-225 225,-225c124.26407,0 225,100.73593 225,225c0,124.26407 -100.73593,225 -225,225c-124.26407,0 -225,-100.73593 -225,-225z"/><path d="M187.5,460c0,-165.68542 134.31458,-300 300,-300c165.68542,0 300,134.31458 300,300c0,165.68542 -134.31458,300 -300,300c-165.68542,0 -300,-134.31458 -300,-300z"/><line x1="1275" y1="160" x2="1275" y2="760"/><line x1="975" y1="460" x2="1575" y2="460"/><path d="M1200,460c0,-41.42136 33.57864,-75 75,-75c41.42136,0 75,33.57864 75,75c0,41.42136 -33.57864,75 -75,75c-41.42136,0 -75,-33.57864 -75,-75z"/><path d="M1125,460c0,-82.84271 67.15729,-150 150,-150c82.84271,0 150,67.15729 150,150c0,82.84271 -67.15729,150 -150,150c-82.84271,0 -150,-67.15729 -150,-150z"/><path d="M1050,460c0,-124.26407 100.73593,-225 225,-225c124.26407,0 225,100.73593 225,225c0,124.26407 -100.73593,225 -225,225c-124.26407,0 -225,-100.73593 -225,-225z"/><path d="M975,460c0,-165.68542 134.31458,-300 300,-300c165.68542,0 300,134.31458 300,300c0,165.68542 -134.31458,300 -300,300c-165.68542,0 -300,-134.31458 -300,-300z"/><line x1="2062.5" y1="160" x2="2062.5" y2="760"/><line x1="1762.5" y1="460" x2="2362.5" y2="460"/><path d="M1987.5,460c0,-41.42136 33.57864,-75 75,-75c41.42136,0 75,33.57864 75,75c0,41.42136 -33.57864,75 -75,75c-41.42136,0 -75,-33.57864 -75,-75z"/><path d="M1912.5,460c0,-82.84271 67.15729,-150 150,-150c82.84271,0 150,67.15729 150,150c0,82.84271 -67.15729,150 -150,150c-82.84271,0 -150,-67.15729 -150,-150z"/><path d="M1837.5,460c0,-124.26407 100.73593,-225 225,-225c124.26407,0 225,100.73593 225,225c0,124.26407 -100.73593,225 -225,225c-124.26407,0 -225,-100.73593 -225,-225z"/><path d="M1762.5,460c0,-165.68542 134.31458,-300 300,-300c165.68542,0 300,134.31458 300,300c0,165.68542 -134.31458,300 -300,300c-165.68542,0 -300,-134.31458 -300,-300z"/><line x1="487.5" y1="945" x2="487.5" y2="1545"/><line x1="187.5" y1="1245" x2="787.5" y2="1245"/><path d="M412.5,1245c0,-41.42136 33.57864,-75 75,-75c41.42136,0 75,33.57864 75,75c0,41.42136 -33.57864,75 -75,75c-41.42136,0 -75,-33.57864 -75,-75z"/><path d="M337.5,1245c0,-82.84271 67.15729,-150 150,-150c82.84271,0 150,67.15729 150,150c0,82.84271 -67.15729,150 -150,150c-82.84271,0 -150,-67.15729 -150,-150z"/><path d="M262.5,1245c0,-124.26407 100.73593,-225 225,-225c124.26407,0 225,100.73593 225,225c0,124.26407 -100.73593,225 -225,225c-124.26407,0 -225,-100.73593 -225,-225z"/><path d="M187.5,1245c0,-165.68542 134.31458,-300 300,-300c165.68542,0 300,134.31458 300,300c0,165.68542 -134.31458,300 -300,300c-165.68542,0 -300,-134.31458 -300,-300z"/><line x1="1275" y1="945" x2="1275" y2="1545"/><line x1="975" y1="1245" x2="1575" y2="1245"/><path d="M1200,1245c0,-41.42136 33.57864,-75 75,-75c41.42136,0 75,33.57864 75,75c0,41.42136 -33.57864,75 -75,75c-41.42136,0 -75,-33.57864 -75,-75z"/><path d="M1125,1245c0,-82.84271 67.15729,-150 150,-150c82.84271,0 150,67.15729 150,150c0,82.84271 -67.15729,150 -150,150c-82.84271,0 -150,-67.15729 -150,-150z"/><path d="M1050,1245c0,-124.26407 100.73593,-225 225,-225c124.26407,0 225,100.73593 225,225c0,124.26407 -100.73593,225 -225,225c-124.26407,0 -225,-100.73593 -225,-225z"/><path d="M975,1245c0,-165.68542 134.31458,-300 300,-300c165.68542,0 300,134.31458 300,300c0,165.68542 -134.31458,300 -300,300c-165.68542,0 -300,-134.31458 -300,-300z"/><line x1="2062.5" y1="945" x2="2062.5" y2="1545"/><line x1="1762.5" y1="1245" x2="2362.5" y2="1245"/><path d="M1987.5,1245c0,-41.42136 33.57864,-75 75,-75c41.42136,0 75,33.57864 75,75c0,41.42136 -33.57864,75 -75,75c-41.42136,0 -75,-33.57864 -75,-75z"/><path d="M1912.5,1245c0,-82.84271 67.15729,-150 150,-150c82.84271,0 150,67.15729 150,150c0,82.84271 -67.15729,150 -150,150c-82.84271,0 -150,-67.15729 -150,-150z"/><path d="M1837.5,1245c0,-124.26407 100.73593,-225 225,-225c124.26407,0 225,100.73593 225,225c0,124.26407 -100.73593,225 -225,225c-124.26407,0 -225,-100.73593 -225,-225z"/><path d="M1762.5,1245c0,-165.68542 134.31458,-300 300,-300c165.68542,0 300,134.31458 300,300c0,165.68542 -134.31458,300 -300,300c-165.68542,0 -300,-134.31458 -300,-300z"/><line x1="487.5" y1="1755" x2="487.5" y2="2355"/><line x1="187.5" y1="2055" x2="787.5" y2="2055"/><path d="M412.5,2055c0,-41.42136 33.57864,-75 75,-75c41.42136,0 75,33.57864 75,75c0,41.42136 -33.57864,75 -75,75c-41.42136,0 -75,-33.57864 -75,-75z"/><path d="M337.5,2055c0,-82.84271 67.15729,-150 150,-150c82.84271,0 150,67.15729 150,150c0,82.84271 -67.15729,150 -150,150c-82.84271,0 -150,-67.15729 -150,-150z"/><path d="M262.5,2055c0,-124.26407 100.73593,-225 225,-225c124.26407,0 225,100.73593 225,225c0,124.26407 -100.73593,225 -225,225c-124.26407,0 -225,-100.73593 -225,-225z"/><path d="M187.5,2055c0,-165.68542 134.31458,-300 300,-300c165.68542,0 300,134.31458 300,300c0,165.68542 -134.31458,300 -300,300c-165.68542,0 -300,-134.31458 -300,-300z"/><line x1="1275" y1="1755" x2="1275" y2="2355"/><line x1="975" y1="2055" x2="1575" y2="2055"/><path d="M1200,2055c0,-41.42136 33.57864,-75 75,-75c41.42136,0 75,33.57864 75,75c0,41.42136 -33.57864,75 -75,75c-41.42136,0 -75,-33.57864 -75,-75z"/><path d="M1125,2055c0,-82.84271 67.15729,-150 150,-150c82.84271,0 150,67.15729 150,150c0,82.84271 -67.15729,150 -150,150c-82.84271,0 -150,-67.15729 -150,-150z"/><path d="M1050,2055c0,-124.26407 100.73593,-225 225,-225c124.26407,0 225,100.73593 225,225c0,124.26407 -100.73593,225 -225,225c-124.26407,0 -225,-100.73593 -225,-225z"/><path d="M975,2055c0,-165.68542 134.31458,-300 300,-300c165.68542,0 300,134.31458 300,300c0,165.68542 -134.31458,300 -300,300c-165.68542,0 -300,-134.31458 -300,-300z"/><line x1="2062.5" y1="1755" x2="2062.5" y2="2355"/><line x1="1762.5" y1="2055" x2="2362.5" y2="2055"/><path d="M1987.5,2055c0,-41.42136 33.57864,-75 75,-75c41.42136,0 75,33.57864 75,75c0,41.42136 -33.57864,75 -75,75c-41.42136,0 -75,-33.57864 -75,-75z"/><path d="M1912.5,2055c0,-82.84271 67.15729,-150 150,-150c82.84271,0 150,67.15729 150,150c0,82.84271 -67.15729,150 -150,150c-82.84271,0 -150,-67.15729 -150,-150z"/><path d="M1837.5,2055c0,-124.26407 100.73593,-225 225,-225c124.26407,0 225,100.73593 225,225c0,124.26407 -100.73593,225 -225,225c-124.26407,0 -225,-100.73593 -225,-225z"/><path d="M1762.5,2055c0,-165.68542 134.31458,-300 300,-300c165.68542,0 300,134.31458 300,300c0,165.68542 -134.31458,300 -300,300c-165.68542,0 -300,-134.31458 -300,-300z"/><line x1="487.5" y1="2540" x2="487.5" y2="3140"/><line x1="187.5" y1="2840" x2="787.5" y2="2840"/><path d="M412.5,2840c0,-41.42136 33.57864,-75 75,-75c41.42136,0 75,33.57864 75,75c0,41.42136 -33.57864,75 -75,75c-41.42136,0 -75,-33.57864 -75,-75z"/><path d="M337.5,2840c0,-82.84271 67.15729,-150 150,-150c82.84271,0 150,67.15729 150,150c0,82.84271 -67.15729,150 -150,150c-82.84271,0 -150,-67.15729 -150,-150z"/><path d="M262.5,2840c0,-124.26407 100.73593,-225 225,-225c124.26407,0 225,100.73593 225,225c0,124.26407 -100.73593,225 -225,225c-124.26407,0 -225,-100.73593 -225,-225z"/><path d="M187.5,2840c0,-165.68542 134.31458,-300 300,-300c165.68542,0 300,134.31458 300,300c0,165.68542 -134.31458,300 -300,300c-165.68542,0 -300,-134.31458 -300,-300z"/><line x1="1275" y1="2540" x2="1275" y2="3140"/><line x1="975" y1="2840" x2="1575" y2="2840"/><path d="M1200,2840c0,-41.42136 33.57864,-75 75,-75c41.42136,0 75,33.57864 75,75c0,41.42136 -33.57864,75 -75,75c-41.42136,0 -75,-33.57864 -75,-75z"/><path d="M1125,2840c0,-82.84271 67.15729,-150 150,-150c82.84271,0 150,67.15729 150,150c0,82.84271 -67.15729,150 -150,150c-82.84271,0 -150,-67.15729 -150,-150z"/><path d="M1050,2840c0,-124.26407 100.73593,-225 225,-225c124.26407,0 225,100.73593 225,225c0,124.26407 -100.73593,225 -225,225c-124.26407,0 -225,-100.73593 -225,-225z"/><path d="M975,2840c0,-165.68542 134.31458,-300 300,-300c165.68542,0 300,134.31458 300,300c0,165.68542 -134.31458,300 -300,300c-165.68542,0 -300,-134.31458 -300,-300z"/><line x1="2062.5" y1="2540" x2="2062.5" y2="3140"/><line x1="1762.5" y1="2840" x2="2362.5" y2="2840"/><path d="M1987.5,2840c0,-41.42136 33.57864,-75 75,-75c41.42136,0 75,33.57864 75,75c0,41.42136 -33.57864,75 -75,75c-41.42136,0 -75,-33.57864 -75,-75z"/><path d="M1912.5,2840c0,-82.84271 67.15729,-150 150,-150c82.84271,0 150,67.15729 150,150c0,82.84271 -67.15729,150 -150,150c-82.84271,0 -150,-67.15729 -150,-150z"/><path d="M1837.5,2840c0,-124.26407 100.73593,-225 225,-225c124.26407,0 225,100.73593 225,225c0,124.26407 -100.73593,225 -225,225c-124.26407,0 -225,-100.73593 -225,-225z"/><path d="M1762.5,2840c0,-165.68542 134.31458,-300 300,-300c165.68542,0 300,134.31458 300,300c0,165.68542 -134.31458,300 -300,300c-165.68542,0 -300,-134.31458 -300,-300z"/></g></svg>