<svg x="0" y="0" width="1100" height="850" version="1.1" xmlns="http://www.w3.org/2000/svg" xmlns:xlink="http://www.w3.org/1999/xlink"><g fill="none" stroke="none" stroke-width="none" stroke-linecap="none" stroke-linejoin="miter" stroke-miterlimit="10" stroke-dasharray="" stroke-dashoffset="0" font-family="sans-serif" font-size="12" text-anchor="start" mix-blend-mode="normal"><g stroke-width="1" stroke-linecap="butt"/><rect x="-860" y="-240" transform="rotate(180)" width="70" height="156" stroke="#000000" stroke-width="0.5" stroke-linecap="butt" opacity="0"/><g stroke="#000000" stroke-width="0.5" stroke-linecap="round"><circle cx="825" cy="162" r="16" data-paper-data="{&quot;index&quot;:0}" opacity="0"/><circle cx="825" cy="162" r="1.5" fill="#000000"/></g><rect x="-860" y="-324" transform="rotate(180)" width="70" height="156" stroke="#000000" stroke-width="0.5" stroke-linecap="butt" opacity="0"/><g stroke="#000000" stroke-width="0.5" stroke-linecap="round"><circle cx="246" cy="-825" transform="rotate(90)" r="16" data-paper-data="{&quot;index&quot;:0}" opacity="0"/><circle cx="262" cy="-825" transform="rotate(90)" r="16" data-paper-data="{&quot;index&quot;:1}" opacity="0"/><circle cx="825" cy="246" r="1.5" fill="#000000"/><circle cx="825" cy="262" r="1.5" fill="#000000"/><circle cx="838.85714" cy="254" r="1.5" fill="#000000"/><circle cx="811.14286" cy="254" r="1.5" fill="#000000"/></g><rect x="-860" y="-408" transform="rotate(180)" width="70" height="156" stroke="#000000" stroke-width="0.5" stroke-linecap="butt" opacity="0"/><g stroke="#000000" stroke-width="0.5" stroke-linecap="round"><circle cx="698.28838" cy="-549.47096" transform="rotate(60)" r="16" data-paper-data="{&quot;index&quot;:0}" opacity="0"/><circle cx="714.28902" cy="-549.47059" transform="rotate(60)" r="16" data-paper-data="{&quot;index&quot;:1}" opacity="0"/><circle cx="706.28902" cy="-535.61418" transform="rotate(60)" r="16" data-paper-data="{&quot;index&quot;:2}" opacity="0"/><circle cx="825" cy="330" r="1.5" fill="#000000"/><circle cx="833" cy="343.85714" r="1.5" fill="#000000"/><circle cx="817" cy="343.85714" r="1.5" fill="#000000"/><circle cx="841" cy="330" r="1.5" fill="#000000"/><circle cx="809" cy="330" r="1.5" fill="#000000"/><circle cx="825" cy="357.71429" r="1.5" fill="#000000"/></g><rect x="-860" y="-492" transform="rotate(180)" width="70" height="156" stroke="#000000" stroke-width="0.5" stroke-linecap="butt" opacity="0"/><g stroke="#000000" stroke-width="0.5" stroke-linecap="round"><circle cx="921.47096" cy="-53.96548" transform="rotate(30)" r="16" data-paper-data="{&quot;index&quot;:0}" opacity="0"/><circle cx="937.4716" cy="-53.96585" transform="rotate(30)" r="16" data-paper-data="{&quot;index&quot;:1}" opacity="0"/><circle cx="929.47096" cy="-40.10908" transform="rotate(30)" r="16" data-paper-data="{&quot;index&quot;:2}" opacity="0"/><circle cx="913.47032" cy="-40.10871" transform="rotate(30)" r="16" data-paper-data="{&quot;index&quot;:3}" opacity="0"/><circle cx="825" cy="414" r="1.5" fill="#000000"/><circle cx="838.85714" cy="422" r="1.5" fill="#000000"/><circle cx="825" cy="430" r="1.5" fill="#000000"/><circle cx="811.14286" cy="422" r="1.5" fill="#000000"/><circle cx="838.85714" cy="406" r="1.5" fill="#000000"/><circle cx="811.14286" cy="406" r="1.5" fill="#000000"/><circle cx="838.85714" cy="438" r="1.5" fill="#000000"/><circle cx="811.14286" cy="438" r="1.5" fill="#000000"/></g><rect x="-860" y="-576" transform="rotate(180)" width="70" height="156" stroke="#000000" stroke-width="0.5" stroke-linecap="butt" opacity="0"/><g stroke="#000000" stroke-width="0.5" stroke-linecap="round"><circle cx="825" cy="498" r="16" data-paper-data="{&quot;index&quot;:0}" opacity="0"/><circle cx="841" cy="498" r="16" data-paper-data="{&quot;index&quot;:1}" opacity="0"/><circle cx="833" cy="511.85714" r="16" data-paper-data="{&quot;index&quot;:2}" opacity="0"/><circle cx="817" cy="511.85714" r="16" data-paper-data="{&quot;index&quot;:3}" opacity="0"/><circle cx="809" cy="498" r="16" data-paper-data="{&quot;index&quot;:4}" opacity="0"/><circle cx="825" cy="498" r="1.5" fill="#000000"/><circle cx="841" cy="498" r="1.5" fill="#000000"/><circle cx="833" cy="511.85714" r="1.5" fill="#000000"/><circle cx="817" cy="511.85714" r="1.5" fill="#000000"/><circle cx="809" cy="498" r="1.5" fill="#000000"/><circle cx="833" cy="484.14286" r="1.5" fill="#000000"/><circle cx="817" cy="484.14286" r="1.5" fill="#000000"/><circle cx="849" cy="511.85714" r="1.5" fill="#000000"/><circle cx="825" cy="525.71429" r="1.5" fill="#000000"/><circle cx="801" cy="511.85714" r="1.5" fill="#000000"/></g><rect x="-860" y="-660" transform="rotate(180)" width="70" height="156" stroke="#000000" stroke-width="0.5" stroke-linecap="butt" opacity="0"/><g stroke="#000000" stroke-width="0.5" stroke-linecap="round"><circle cx="423.47096" cy="916.52679" transform="rotate(-30)" r="16" data-paper-data="{&quot;index&quot;:0}" opacity="0"/><circle cx="439.4716" cy="916.52715" transform="rotate(-30)" r="16" data-paper-data="{&quot;index&quot;:1}" opacity="0"/><circle cx="431.4716" cy="930.38356" transform="rotate(-30)" r="16" data-paper-data="{&quot;index&quot;:2}" opacity="0"/><circle cx="415.47096" cy="930.38319" transform="rotate(-30)" r="16" data-paper-data="{&quot;index&quot;:3}" opacity="0"/><circle cx="407.47032" cy="916.52642" transform="rotate(-30)" r="16" data-paper-data="{&quot;index&quot;:4}" opacity="0"/><circle cx="415.47032" cy="902.67001" transform="rotate(-30)" r="16" data-paper-data="{&quot;index&quot;:5}" opacity="0"/><circle cx="825" cy="582" r="1.5" fill="#000000"/><circle cx="838.85714" cy="574" r="1.5" fill="#000000"/><circle cx="838.85714" cy="590" r="1.5" fill="#000000"/><circle cx="825" cy="598" r="1.5" fill="#000000"/><circle cx="811.14286" cy="590" r="1.5" fill="#000000"/><circle cx="811.14286" cy="574" r="1.5" fill="#000000"/><circle cx="825" cy="566" r="1.5" fill="#000000"/><circle cx="852.71429" cy="582" r="1.5" fill="#000000"/><circle cx="838.85714" cy="606" r="1.5" fill="#000000"/><circle cx="811.14286" cy="606" r="1.5" fill="#000000"/><circle cx="797.28571" cy="582" r="1.5" fill="#000000"/></g><rect x="-860" y="-744" transform="rotate(180)" width="70" height="156" stroke="#000000" stroke-width="0.5" stroke-linecap="butt" opacity="0"/><g stroke="#000000" stroke-width="0.5" stroke-linecap="round"><circle cx="1047.47096" cy="164.27292" transform="rotate(30)" r="16" data-paper-data="{&quot;index&quot;:0}" opacity="0"/><circle cx="1063.4716" cy="164.27255" transform="rotate(30)" r="16" data-paper-data="{&quot;index&quot;:1}" opacity="0"/><circle cx="1055.47096" cy="178.12933" transform="rotate(30)" r="16" data-paper-data="{&quot;index&quot;:2}" opacity="0"/><circle cx="1039.47032" cy="178.12969" transform="rotate(30)" r="16" data-paper-data="{&quot;index&quot;:3}" opacity="0"/><circle cx="1031.47032" cy="164.27329" transform="rotate(30)" r="16" data-paper-data="{&quot;index&quot;:4}" opacity="0"/><circle cx="1039.47096" cy="150.41651" transform="rotate(30)" r="16" data-paper-data="{&quot;index&quot;:5}" opacity="0"/><circle cx="1055.4716" cy="150.41614" transform="rotate(30)" r="16" data-paper-data="{&quot;index&quot;:6}" opacity="0"/><circle cx="825" cy="666" r="1.5" fill="#000000"/><circle cx="838.85714" cy="674" r="1.5" fill="#000000"/><circle cx="825" cy="682" r="1.5" fill="#000000"/><circle cx="811.14286" cy="674" r="1.5" fill="#000000"/><circle cx="811.14286" cy="658" r="1.5" fill="#000000"/><circle cx="825" cy="650" r="1.5" fill="#000000"/><circle cx="838.85714" cy="658" r="1.5" fill="#000000"/><circle cx="838.85714" cy="690" r="1.5" fill="#000000"/><circle cx="852.71429" cy="666" r="1.5" fill="#000000"/><circle cx="811.14286" cy="690" r="1.5" fill="#000000"/><circle cx="797.28571" cy="666" r="1.5" fill="#000000"/><circle cx="811.14286" cy="642" r="1.5" fill="#000000"/><circle cx="838.85714" cy="642" r="1.5" fill="#000000"/></g></g></svg>