<svg x="0" y="0" width="1100" height="850" version="1.1" xmlns="http://www.w3.org/2000/svg" xmlns:xlink="http://www.w3.org/1999/xlink"><g fill="none" stroke="none" stroke-width="none" stroke-linecap="none" stroke-linejoin="miter" stroke-miterlimit="10" stroke-dasharray="" stroke-dashoffset="0" font-family="sans-serif" font-size="12" text-anchor="start" mix-blend-mode="normal"><g stroke-width="1" stroke-linecap="butt"/><rect x="-860" y="-240" transform="rotate(180)" width="70" height="156" stroke="#000000" stroke-width="0.5" stroke-linecap="butt" opacity="0"/><g stroke="#000000" stroke-width="0.5" stroke-linecap="round"><circle cx="825" cy="162" r="16" data-paper-data="{&quot;index&quot;:0}" opacity="0"/></g><rect x="-860" y="-324" transform="rotate(180)" width="70" height="156" stroke="#000000" stroke-width="0.5" stroke-linecap="butt" opacity="0"/><g stroke="#000000" stroke-width="0.5" stroke-linecap="round"><circle cx="246" cy="-825" transform="rotate(90)" r="16" data-paper-data="{&quot;index&quot;:0}" opacity="0"/><circle cx="262" cy="-825" transform="rotate(90)" r="16" data-paper-data="{&quot;index&quot;:1}" opacity="0"/><line x1="825" y1="246" x2="825" y2="262" data-paper-data="{&quot;endpoints&quot;:[[&quot;Point&quot;,825,246],[&quot;Point&quot;,825,262]]}"/><line x1="825" y1="246" x2="838.85714" y2="254" data-paper-data="{&quot;endpoints&quot;:[[&quot;Point&quot;,825,246],[&quot;Point&quot;,838.85714,254]]}"/><line x1="825" y1="246" x2="811.14286" y2="254" data-paper-data="{&quot;endpoints&quot;:[[&quot;Point&quot;,825,246],[&quot;Point&quot;,811.14286,254]]}"/><line x1="825" y1="262" x2="838.85714" y2="254" data-paper-data="{&quot;endpoints&quot;:[[&quot;Point&quot;,825,262],[&quot;Point&quot;,838.85714,254]]}"/><line x1="825" y1="262" x2="811.14286" y2="254" data-paper-data="{&quot;endpoints&quot;:[[&quot;Point&quot;,825,262],[&quot;Point&quot;,811.14286,254]]}"/><line x1="838.85714" y1="254" x2="811.14286" y2="254" data-paper-data="{&quot;endpoints&quot;:[[&quot;Point&quot;,838.85714,254],[&quot;Point&quot;,811.14286,254]]}"/></g><rect x="-860" y="-408" transform="rotate(180)" width="70" height="156" stroke="#000000" stroke-width="0.5" stroke-linecap="butt" opacity="0"/><g stroke="#000000" stroke-width="0.5" stroke-linecap="round"><circle cx="698.28838" cy="-549.47096" transform="rotate(60)" r="16" data-paper-data="{&quot;index&quot;:0}" opacity="0"/><circle cx="714.28902" cy="-549.47059" transform="rotate(60)" r="16" data-paper-data="{&quot;index&quot;:1}" opacity="0"/><circle cx="706.28902" cy="-535.61418" transform="rotate(60)" r="16" data-paper-data="{&quot;index&quot;:2}" opacity="0"/><line x1="825" y1="330" x2="833" y2="343.85714" data-paper-data="{&quot;endpoints&quot;:[[&quot;Point&quot;,825,330],[&quot;Point&quot;,833,343.85714]]}"/><line x1="825" y1="330" x2="817" y2="343.85714" data-paper-data="{&quot;endpoints&quot;:[[&quot;Point&quot;,825,330],[&quot;Point&quot;,817,343.85714]]}"/><line x1="825" y1="330" x2="841" y2="330" data-paper-data="{&quot;endpoints&quot;:[[&quot;Point&quot;,825,330],[&quot;Point&quot;,841,330]]}"/><line x1="825" y1="330" x2="809" y2="330" data-paper-data="{&quot;endpoints&quot;:[[&quot;Point&quot;,825,330],[&quot;Point&quot;,809,330]]}"/><line x1="825" y1="330" x2="825" y2="357.71429" data-paper-data="{&quot;endpoints&quot;:[[&quot;Point&quot;,825,330],[&quot;Point&quot;,825,357.71429]]}"/><line x1="833" y1="343.85714" x2="817" y2="343.85714" data-paper-data="{&quot;endpoints&quot;:[[&quot;Point&quot;,833,343.85714],[&quot;Point&quot;,817,343.85714]]}"/><line x1="833" y1="343.85714" x2="841" y2="330" data-paper-data="{&quot;endpoints&quot;:[[&quot;Point&quot;,833,343.85714],[&quot;Point&quot;,841,330]]}"/><line x1="833" y1="343.85714" x2="809" y2="330" data-paper-data="{&quot;endpoints&quot;:[[&quot;Point&quot;,833,343.85714],[&quot;Point&quot;,809,330]]}"/><line x1="833" y1="343.85714" x2="825" y2="357.71429" data-paper-data="{&quot;endpoints&quot;:[[&quot;Point&quot;,833,343.85714],[&quot;Point&quot;,825,357.71429]]}"/><line x1="817" y1="343.85714" x2="841" y2="330" data-paper-data="{&quot;endpoints&quot;:[[&quot;Point&quot;,817,343.85714],[&quot;Point&quot;,841,330]]}"/><line x1="817" y1="343.85714" x2="809" y2="330" data-paper-data="{&quot;endpoints&quot;:[[&quot;Point&quot;,817,343.85714],[&quot;Point&quot;,809,330]]}"/><line x1="817" y1="343.85714" x2="825" y2="357.71429" data-paper-data="{&quot;endpoints&quot;:[[&quot;Point&quot;,817,343.85714],[&quot;Point&quot;,825,357.71429]]}"/><line x1="841" y1="330" x2="809" y2="330" data-paper-data="{&quot;endpoints&quot;:[[&quot;Point&quot;,841,330],[&quot;Point&quot;,809,330]]}"/><line x1="841" y1="330" x2="825" y2="357.71429" data-paper-data="{&quot;endpoints&quot;:[[&quot;Point&quot;,841,330],[&quot;Point&quot;,825,357.71429]]}"/><line x1="809" y1="330" x2="825" y2="357.71429" data-paper-data="{&quot;endpoints&quot;:[[&quot;Point&quot;,809,330],[&quot;Point&quot;,825,357.71429]]}"/></g><rect x="-860" y="-492" transform="rotate(180)" width="70" height="156" stroke="#000000" stroke-width="0.5" stroke-linecap="butt" opacity="0"/><g stroke="#000000" stroke-width="0.5" stroke-linecap="round"><circle cx="921.47096" cy="-53.96548" transform="rotate(30)" r="16" data-paper-data="{&quot;index&quot;:0}" opacity="0"/><circle cx="937.4716" cy="-53.96585" transform="rotate(30)" r="16" data-paper-data="{&quot;index&quot;:1}" opacity="0"/><circle cx="929.47096" cy="-40.10908" transform="rotate(30)" r="16" data-paper-data="{&quot;index&quot;:2}" opacity="0"/><circle cx="913.47032" cy="-40.10871" transform="rotate(30)" r="16" data-paper-data="{&quot;index&quot;:3}" opacity="0"/><line x1="825" y1="414" x2="838.85714" y2="422" data-paper-data="{&quot;endpoints&quot;:[[&quot;Point&quot;,825,414],[&quot;Point&quot;,838.85714,422]]}"/><line x1="825" y1="414" x2="825" y2="430" data-paper-data="{&quot;endpoints&quot;:[[&quot;Point&quot;,825,414],[&quot;Point&quot;,825,430]]}"/><line x1="825" y1="414" x2="811.14286" y2="422" data-paper-data="{&quot;endpoints&quot;:[[&quot;Point&quot;,825,414],[&quot;Point&quot;,811.14286,422]]}"/><line x1="825" y1="414" x2="838.85714" y2="406" data-paper-data="{&quot;endpoints&quot;:[[&quot;Point&quot;,825,414],[&quot;Point&quot;,838.85714,406]]}"/><line x1="825" y1="414" x2="811.14286" y2="406" data-paper-data="{&quot;endpoints&quot;:[[&quot;Point&quot;,825,414],[&quot;Point&quot;,811.14286,406]]}"/><line x1="825" y1="414" x2="838.85714" y2="438" data-paper-data="{&quot;endpoints&quot;:[[&quot;Point&quot;,825,414],[&quot;Point&quot;,838.85714,438]]}"/><line x1="825" y1="414" x2="811.14286" y2="438" data-paper-data="{&quot;endpoints&quot;:[[&quot;Point&quot;,825,414],[&quot;Point&quot;,811.14286,438]]}"/><line x1="838.85714" y1="422" x2="825" y2="430" data-paper-data="{&quot;endpoints&quot;:[[&quot;Point&quot;,838.85714,422],[&quot;Point&quot;,825,430]]}"/><line x1="838.85714" y1="422" x2="811.14286" y2="422" data-paper-data="{&quot;endpoints&quot;:[[&quot;Point&quot;,838.85714,422],[&quot;Point&quot;,811.14286,422]]}"/><line x1="838.85714" y1="422" x2="838.85714" y2="406" data-paper-data="{&quot;endpoints&quot;:[[&quot;Point&quot;,838.85714,422],[&quot;Point&quot;,838.85714,406]]}"/><line x1="838.85714" y1="422" x2="811.14286" y2="406" data-paper-data="{&quot;endpoints&quot;:[[&quot;Point&quot;,838.85714,422],[&quot;Point&quot;,811.14286,406]]}"/><line x1="838.85714" y1="422" x2="838.85714" y2="438" data-paper-data="{&quot;endpoints&quot;:[[&quot;Point&quot;,838.85714,422],[&quot;Point&quot;,838.85714,438]]}"/><line x1="838.85714" y1="422" x2="811.14286" y2="438" data-paper-data="{&quot;endpoints&quot;:[[&quot;Point&quot;,838.85714,422],[&quot;Point&quot;,811.14286,438]]}"/><line x1="825" y1="430" x2="811.14286" y2="422" data-paper-data="{&quot;endpoints&quot;:[[&quot;Point&quot;,825,430],[&quot;Point&quot;,811.14286,422]]}"/><line x1="825" y1="430" x2="838.85714" y2="406" data-paper-data="{&quot;endpoints&quot;:[[&quot;Point&quot;,825,430],[&quot;Point&quot;,838.85714,406]]}"/><line x1="825" y1="430" x2="811.14286" y2="406" data-paper-data="{&quot;endpoints&quot;:[[&quot;Point&quot;,825,430],[&quot;Point&quot;,811.14286,406]]}"/><line x1="825" y1="430" x2="838.85714" y2="438" data-paper-data="{&quot;endpoints&quot;:[[&quot;Point&quot;,825,430],[&quot;Point&quot;,838.85714,438]]}"/><line x1="825" y1="430" x2="811.14286" y2="438" data-paper-data="{&quot;endpoints&quot;:[[&quot;Point&quot;,825,430],[&quot;Point&quot;,811.14286,438]]}"/><line x1="811.14286" y1="422" x2="838.85714" y2="406" data-paper-data="{&quot;endpoints&quot;:[[&quot;Point&quot;,811.14286,422],[&quot;Point&quot;,838.85714,406]]}"/><line x1="811.14286" y1="422" x2="811.14286" y2="406" data-paper-data="{&quot;endpoints&quot;:[[&quot;Point&quot;,811.14286,422],[&quot;Point&quot;,811.14286,406]]}"/><line x1="811.14286" y1="422" x2="838.85714" y2="438" data-paper-data="{&quot;endpoints&quot;:[[&quot;Point&quot;,811.14286,422],[&quot;Point&quot;,838.85714,438]]}"/><line x1="811.14286" y1="422" x2="811.14286" y2="438" data-paper-data="{&quot;endpoints&quot;:[[&quot;Point&quot;,811.14286,422],[&quot;Point&quot;,811.14286,438]]}"/><line x1="838.85714" y1="406" x2="811.14286" y2="406" data-paper-data="{&quot;endpoints&quot;:[[&quot;Point&quot;,838.85714,406],[&quot;Point&quot;,811.14286,406]]}"/><line x1="838.85714" y1="406" x2="838.85714" y2="438" data-paper-data="{&quot;endpoints&quot;:[[&quot;Point&quot;,838.85714,406],[&quot;Point&quot;,838.85714,438]]}"/><line x1="838.85714" y1="406" x2="811.14286" y2="438" data-paper-data="{&quot;endpoints&quot;:[[&quot;Point&quot;,838.85714,406],[&quot;Point&quot;,811.14286,438]]}"/><line x1="811.14286" y1="406" x2="838.85714" y2="438" data-paper-data="{&quot;endpoints&quot;:[[&quot;Point&quot;,811.14286,406],[&quot;Point&quot;,838.85714,438]]}"/><line x1="811.14286" y1="406" x2="811.14286" y2="438" data-paper-data="{&quot;endpoints&quot;:[[&quot;Point&quot;,811.14286,406],[&quot;Point&quot;,811.14286,438]]}"/><line x1="838.85714" y1="438" x2="811.14286" y2="438" data-paper-data="{&quot;endpoints&quot;:[[&quot;Point&quot;,838.85714,438],[&quot;Point&quot;,811.14286,438]]}"/></g><rect x="-860" y="-576" transform="rotate(180)" width="70" height="156" stroke="#000000" stroke-width="0.5" stroke-linecap="butt" opacity="0"/><g stroke="#000000" stroke-width="0.5" stroke-linecap="round"><circle cx="825" cy="498" r="16" data-paper-data="{&quot;index&quot;:0}" opacity="0"/><circle cx="841" cy="498" r="16" data-paper-data="{&quot;index&quot;:1}" opacity="0"/><circle cx="833" cy="511.85714" r="16" data-paper-data="{&quot;index&quot;:2}" opacity="0"/><circle cx="817" cy="511.85714" r="16" data-paper-data="{&quot;index&quot;:3}" opacity="0"/><circle cx="809" cy="498" r="16" data-paper-data="{&quot;index&quot;:4}" opacity="0"/><line x1="825" y1="498" x2="841" y2="498" data-paper-data="{&quot;endpoints&quot;:[[&quot;Point&quot;,825,498],[&quot;Point&quot;,841,498]]}"/><line x1="825" y1="498" x2="833" y2="511.85714" data-paper-data="{&quot;endpoints&quot;:[[&quot;Point&quot;,825,498],[&quot;Point&quot;,833,511.85714]]}"/><line x1="825" y1="498" x2="817" y2="511.85714" data-paper-data="{&quot;endpoints&quot;:[[&quot;Point&quot;,825,498],[&quot;Point&quot;,817,511.85714]]}"/><line x1="825" y1="498" x2="809" y2="498" data-paper-data="{&quot;endpoints&quot;:[[&quot;Point&quot;,825,498],[&quot;Point&quot;,809,498]]}"/><line x1="825" y1="498" x2="833" y2="484.14286" data-paper-data="{&quot;endpoints&quot;:[[&quot;Point&quot;,825,498],[&quot;Point&quot;,833,484.14286]]}"/><line x1="825" y1="498" x2="817" y2="484.14286" data-paper-data="{&quot;endpoints&quot;:[[&quot;Point&quot;,825,498],[&quot;Point&quot;,817,484.14286]]}"/><line x1="825" y1="498" x2="849" y2="511.85714" data-paper-data="{&quot;endpoints&quot;:[[&quot;Point&quot;,825,498],[&quot;Point&quot;,849,511.85714]]}"/><line x1="825" y1="498" x2="825" y2="525.71429" data-paper-data="{&quot;endpoints&quot;:[[&quot;Point&quot;,825,498],[&quot;Point&quot;,825,525.71429]]}"/><line x1="825" y1="498" x2="801" y2="511.85714" data-paper-data="{&quot;endpoints&quot;:[[&quot;Point&quot;,825,498],[&quot;Point&quot;,801,511.85714]]}"/><line x1="841" y1="498" x2="833" y2="511.85714" data-paper-data="{&quot;endpoints&quot;:[[&quot;Point&quot;,841,498],[&quot;Point&quot;,833,511.85714]]}"/><line x1="841" y1="498" x2="817" y2="511.85714" data-paper-data="{&quot;endpoints&quot;:[[&quot;Point&quot;,841,498],[&quot;Point&quot;,817,511.85714]]}"/><line x1="841" y1="498" x2="809" y2="498" data-paper-data="{&quot;endpoints&quot;:[[&quot;Point&quot;,841,498],[&quot;Point&quot;,809,498]]}"/><line x1="841" y1="498" x2="833" y2="484.14286" data-paper-data="{&quot;endpoints&quot;:[[&quot;Point&quot;,841,498],[&quot;Point&quot;,833,484.14286]]}"/><line x1="841" y1="498" x2="817" y2="484.14286" data-paper-data="{&quot;endpoints&quot;:[[&quot;Point&quot;,841,498],[&quot;Point&quot;,817,484.14286]]}"/><line x1="841" y1="498" x2="849" y2="511.85714" data-paper-data="{&quot;endpoints&quot;:[[&quot;Point&quot;,841,498],[&quot;Point&quot;,849,511.85714]]}"/><line x1="841" y1="498" x2="825" y2="525.71429" data-paper-data="{&quot;endpoints&quot;:[[&quot;Point&quot;,841,498],[&quot;Point&quot;,825,525.71429]]}"/><line x1="841" y1="498" x2="801" y2="511.85714" data-paper-data="{&quot;endpoints&quot;:[[&quot;Point&quot;,841,498],[&quot;Point&quot;,801,511.85714]]}"/><line x1="833" y1="511.85714" x2="817" y2="511.85714" data-paper-data="{&quot;endpoints&quot;:[[&quot;Point&quot;,833,511.85714],[&quot;Point&quot;,817,511.85714]]}"/><line x1="833" y1="511.85714" x2="809" y2="498" data-paper-data="{&quot;endpoints&quot;:[[&quot;Point&quot;,833,511.85714],[&quot;Point&quot;,809,498]]}"/><line x1="833" y1="511.85714" x2="833" y2="484.14286" data-paper-data="{&quot;endpoints&quot;:[[&quot;Point&quot;,833,511.85714],[&quot;Point&quot;,833,484.14286]]}"/><line x1="833" y1="511.85714" x2="817" y2="484.14286" data-paper-data="{&quot;endpoints&quot;:[[&quot;Point&quot;,833,511.85714],[&quot;Point&quot;,817,484.14286]]}"/><line x1="833" y1="511.85714" x2="849" y2="511.85714" data-paper-data="{&quot;endpoints&quot;:[[&quot;Point&quot;,833,511.85714],[&quot;Point&quot;,849,511.85714]]}"/><line x1="833" y1="511.85714" x2="825" y2="525.71429" data-paper-data="{&quot;endpoints&quot;:[[&quot;Point&quot;,833,511.85714],[&quot;Point&quot;,825,525.71429]]}"/><line x1="833" y1="511.85714" x2="801" y2="511.85714" data-paper-data="{&quot;endpoints&quot;:[[&quot;Point&quot;,833,511.85714],[&quot;Point&quot;,801,511.85714]]}"/><line x1="817" y1="511.85714" x2="809" y2="498" data-paper-data="{&quot;endpoints&quot;:[[&quot;Point&quot;,817,511.85714],[&quot;Point&quot;,809,498]]}"/><line x1="817" y1="511.85714" x2="833" y2="484.14286" data-paper-data="{&quot;endpoints&quot;:[[&quot;Point&quot;,817,511.85714],[&quot;Point&quot;,833,484.14286]]}"/><line x1="817" y1="511.85714" x2="817" y2="484.14286" data-paper-data="{&quot;endpoints&quot;:[[&quot;Point&quot;,817,511.85714],[&quot;Point&quot;,817,484.14286]]}"/><line x1="817" y1="511.85714" x2="849" y2="511.85714" data-paper-data="{&quot;endpoints&quot;:[[&quot;Point&quot;,817,511.85714],[&quot;Point&quot;,849,511.85714]]}"/><line x1="817" y1="511.85714" x2="825" y2="525.71429" data-paper-data="{&quot;endpoints&quot;:[[&quot;Point&quot;,817,511.85714],[&quot;Point&quot;,825,525.71429]]}"/><line x1="817" y1="511.85714" x2="801" y2="511.85714" data-paper-data="{&quot;endpoints&quot;:[[&quot;Point&quot;,817,511.85714],[&quot;Point&quot;,801,511.85714]]}"/><line x1="809" y1="498" x2="833" y2="484.14286" data-paper-data="{&quot;endpoints&quot;:[[&quot;Point&quot;,809,498],[&quot;Point&quot;,833,484.14286]]}"/><line x1="809" y1="498" x2="817" y2="484.14286" data-paper-data="{&quot;endpoints&quot;:[[&quot;Point&quot;,809,498],[&quot;Point&quot;,817,484.14286]]}"/><line x1="809" y1="498" x2="849" y2="511.85714" data-paper-data="{&quot;endpoints&quot;:[[&quot;Point&quot;,809,498],[&quot;Point&quot;,849,511.85714]]}"/><line x1="809" y1="498" x2="825" y2="525.71429" data-paper-data="{&quot;endpoints&quot;:[[&quot;Point&quot;,809,498],[&quot;Point&quot;,825,525.71429]]}"/><line x1="809" y1="498" x2="801" y2="511.85714" data-paper-data="{&quot;endpoints&quot;:[[&quot;Point&quot;,809,498],[&quot;Point&quot;,801,511.85714]]}"/><line x1="833" y1="484.14286" x2="817" y2="484.14286" data-paper-data="{&quot;endpoints&quot;:[[&quot;Point&quot;,833,484.14286],[&quot;Point&quot;,817,484.14286]]}"/><line x1="833" y1="484.14286" x2="849" y2="511.85714" data-paper-data="{&quot;endpoints&quot;:[[&quot;Point&quot;,833,484.14286],[&quot;Point&quot;,849,511.85714]]}"/><line x1="833" y1="484.14286" x2="825" y2="525.71429" data-paper-data="{&quot;endpoints&quot;:[[&quot;Point&quot;,833,484.14286],[&quot;Point&quot;,825,525.71429]]}"/><line x1="833" y1="484.14286" x2="801" y2="511.85714" data-paper-data="{&quot;endpoints&quot;:[[&quot;Point&quot;,833,484.14286],[&quot;Point&quot;,801,511.85714]]}"/><line x1="817" y1="484.14286" x2="849" y2="511.85714" data-paper-data="{&quot;endpoints&quot;:[[&quot;Point&quot;,817,484.14286],[&quot;Point&quot;,849,511.85714]]}"/><line x1="817" y1="484.14286" x2="825" y2="525.71429" data-paper-data="{&quot;endpoints&quot;:[[&quot;Point&quot;,817,484.14286],[&quot;Point&quot;,825,525.71429]]}"/><line x1="817" y1="484.14286" x2="801" y2="511.85714" data-paper-data="{&quot;endpoints&quot;:[[&quot;Point&quot;,817,484.14286],[&quot;Point&quot;,801,511.85714]]}"/><line x1="849" y1="511.85714" x2="825" y2="525.71429" data-paper-data="{&quot;endpoints&quot;:[[&quot;Point&quot;,849,511.85714],[&quot;Point&quot;,825,525.71429]]}"/><line x1="849" y1="511.85714" x2="801" y2="511.85714" data-paper-data="{&quot;endpoints&quot;:[[&quot;Point&quot;,849,511.85714],[&quot;Point&quot;,801,511.85714]]}"/><line x1="825" y1="525.71429" x2="801" y2="511.85714" data-paper-data="{&quot;endpoints&quot;:[[&quot;Point&quot;,825,525.71429],[&quot;Point&quot;,801,511.85714]]}"/></g><rect x="-860" y="-660" transform="rotate(180)" width="70" height="156" stroke="#000000" stroke-width="0.5" stroke-linecap="butt" opacity="0"/><g stroke="#000000" stroke-width="0.5" stroke-linecap="round"><circle cx="423.47096" cy="916.52679" transform="rotate(-30)" r="16" data-paper-data="{&quot;index&quot;:0}" opacity="0"/><circle cx="439.4716" cy="916.52715" transform="rotate(-30)" r="16" data-paper-data="{&quot;index&quot;:1}" opacity="0"/><circle cx="431.4716" cy="930.38356" transform="rotate(-30)" r="16" data-paper-data="{&quot;index&quot;:2}" opacity="0"/><circle cx="415.47096" cy="930.38319" transform="rotate(-30)" r="16" data-paper-data="{&quot;index&quot;:3}" opacity="0"/><circle cx="407.47032" cy="916.52642" transform="rotate(-30)" r="16" data-paper-data="{&quot;index&quot;:4}" opacity="0"/><circle cx="415.47032" cy="902.67001" transform="rotate(-30)" r="16" data-paper-data="{&quot;index&quot;:5}" opacity="0"/><line x1="825" y1="582" x2="838.85714" y2="574" data-paper-data="{&quot;endpoints&quot;:[[&quot;Point&quot;,825,582],[&quot;Point&quot;,838.85714,574]]}"/><line x1="825" y1="582" x2="838.85714" y2="590" data-paper-data="{&quot;endpoints&quot;:[[&quot;Point&quot;,825,582],[&quot;Point&quot;,838.85714,590]]}"/><line x1="825" y1="582" x2="825" y2="598" data-paper-data="{&quot;endpoints&quot;:[[&quot;Point&quot;,825,582],[&quot;Point&quot;,825,598]]}"/><line x1="825" y1="582" x2="811.14286" y2="590" data-paper-data="{&quot;endpoints&quot;:[[&quot;Point&quot;,825,582],[&quot;Point&quot;,811.14286,590]]}"/><line x1="825" y1="582" x2="811.14286" y2="574" data-paper-data="{&quot;endpoints&quot;:[[&quot;Point&quot;,825,582],[&quot;Point&quot;,811.14286,574]]}"/><line x1="825" y1="582" x2="825" y2="566" data-paper-data="{&quot;endpoints&quot;:[[&quot;Point&quot;,825,582],[&quot;Point&quot;,825,566]]}"/><line x1="825" y1="582" x2="852.71429" y2="582" data-paper-data="{&quot;endpoints&quot;:[[&quot;Point&quot;,825,582],[&quot;Point&quot;,852.71429,582]]}"/><line x1="825" y1="582" x2="838.85714" y2="606" data-paper-data="{&quot;endpoints&quot;:[[&quot;Point&quot;,825,582],[&quot;Point&quot;,838.85714,606]]}"/><line x1="825" y1="582" x2="811.14286" y2="606" data-paper-data="{&quot;endpoints&quot;:[[&quot;Point&quot;,825,582],[&quot;Point&quot;,811.14286,606]]}"/><line x1="825" y1="582" x2="797.28571" y2="582" data-paper-data="{&quot;endpoints&quot;:[[&quot;Point&quot;,825,582],[&quot;Point&quot;,797.28571,582]]}"/><line x1="838.85714" y1="574" x2="838.85714" y2="590" data-paper-data="{&quot;endpoints&quot;:[[&quot;Point&quot;,838.85714,574],[&quot;Point&quot;,838.85714,590]]}"/><line x1="838.85714" y1="574" x2="825" y2="598" data-paper-data="{&quot;endpoints&quot;:[[&quot;Point&quot;,838.85714,574],[&quot;Point&quot;,825,598]]}"/><line x1="838.85714" y1="574" x2="811.14286" y2="590" data-paper-data="{&quot;endpoints&quot;:[[&quot;Point&quot;,838.85714,574],[&quot;Point&quot;,811.14286,590]]}"/><line x1="838.85714" y1="574" x2="811.14286" y2="574" data-paper-data="{&quot;endpoints&quot;:[[&quot;Point&quot;,838.85714,574],[&quot;Point&quot;,811.14286,574]]}"/><line x1="838.85714" y1="574" x2="825" y2="566" data-paper-data="{&quot;endpoints&quot;:[[&quot;Point&quot;,838.85714,574],[&quot;Point&quot;,825,566]]}"/><line x1="838.85714" y1="574" x2="852.71429" y2="582" data-paper-data="{&quot;endpoints&quot;:[[&quot;Point&quot;,838.85714,574],[&quot;Point&quot;,852.71429,582]]}"/><line x1="838.85714" y1="574" x2="838.85714" y2="606" data-paper-data="{&quot;endpoints&quot;:[[&quot;Point&quot;,838.85714,574],[&quot;Point&quot;,838.85714,606]]}"/><line x1="838.85714" y1="574" x2="811.14286" y2="606" data-paper-data="{&quot;endpoints&quot;:[[&quot;Point&quot;,838.85714,574],[&quot;Point&quot;,811.14286,606]]}"/><line x1="838.85714" y1="574" x2="797.28571" y2="582" data-paper-data="{&quot;endpoints&quot;:[[&quot;Point&quot;,838.85714,574],[&quot;Point&quot;,797.28571,582]]}"/><line x1="838.85714" y1="590" x2="825" y2="598" data-paper-data="{&quot;endpoints&quot;:[[&quot;Point&quot;,838.85714,590],[&quot;Point&quot;,825,598]]}"/><line x1="838.85714" y1="590" x2="811.14286" y2="590" data-paper-data="{&quot;endpoints&quot;:[[&quot;Point&quot;,838.85714,590],[&quot;Point&quot;,811.14286,590]]}"/><line x1="838.85714" y1="590" x2="811.14286" y2="574" data-paper-data="{&quot;endpoints&quot;:[[&quot;Point&quot;,838.85714,590],[&quot;Point&quot;,811.14286,574]]}"/><line x1="838.85714" y1="590" x2="825" y2="566" data-paper-data="{&quot;endpoints&quot;:[[&quot;Point&quot;,838.85714,590],[&quot;Point&quot;,825,566]]}"/><line x1="838.85714" y1="590" x2="852.71429" y2="582" data-paper-data="{&quot;endpoints&quot;:[[&quot;Point&quot;,838.85714,590],[&quot;Point&quot;,852.71429,582]]}"/><line x1="838.85714" y1="590" x2="838.85714" y2="606" data-paper-data="{&quot;endpoints&quot;:[[&quot;Point&quot;,838.85714,590],[&quot;Point&quot;,838.85714,606]]}"/><line x1="838.85714" y1="590" x2="811.14286" y2="606" data-paper-data="{&quot;endpoints&quot;:[[&quot;Point&quot;,838.85714,590],[&quot;Point&quot;,811.14286,606]]}"/><line x1="838.85714" y1="590" x2="797.28571" y2="582" data-paper-data="{&quot;endpoints&quot;:[[&quot;Point&quot;,838.85714,590],[&quot;Point&quot;,797.28571,582]]}"/><line x1="825" y1="598" x2="811.14286" y2="590" data-paper-data="{&quot;endpoints&quot;:[[&quot;Point&quot;,825,598],[&quot;Point&quot;,811.14286,590]]}"/><line x1="825" y1="598" x2="811.14286" y2="574" data-paper-data="{&quot;endpoints&quot;:[[&quot;Point&quot;,825,598],[&quot;Point&quot;,811.14286,574]]}"/><line x1="825" y1="598" x2="825" y2="566" data-paper-data="{&quot;endpoints&quot;:[[&quot;Point&quot;,825,598],[&quot;Point&quot;,825,566]]}"/><line x1="825" y1="598" x2="852.71429" y2="582" data-paper-data="{&quot;endpoints&quot;:[[&quot;Point&quot;,825,598],[&quot;Point&quot;,852.71429,582]]}"/><line x1="825" y1="598" x2="838.85714" y2="606" data-paper-data="{&quot;endpoints&quot;:[[&quot;Point&quot;,825,598],[&quot;Point&quot;,838.85714,606]]}"/><line x1="825" y1="598" x2="811.14286" y2="606" data-paper-data="{&quot;endpoints&quot;:[[&quot;Point&quot;,825,598],[&quot;Point&quot;,811.14286,606]]}"/><line x1="825" y1="598" x2="797.28571" y2="582" data-paper-data="{&quot;endpoints&quot;:[[&quot;Point&quot;,825,598],[&quot;Point&quot;,797.28571,582]]}"/><line x1="811.14286" y1="590" x2="811.14286" y2="574" data-paper-data="{&quot;endpoints&quot;:[[&quot;Point&quot;,811.14286,590],[&quot;Point&quot;,811.14286,574]]}"/><line x1="811.14286" y1="590" x2="825" y2="566" data-paper-data="{&quot;endpoints&quot;:[[&quot;Point&quot;,811.14286,590],[&quot;Point&quot;,825,566]]}"/><line x1="811.14286" y1="590" x2="852.71429" y2="582" data-paper-data="{&quot;endpoints&quot;:[[&quot;Point&quot;,811.14286,590],[&quot;Point&quot;,852.71429,582]]}"/><line x1="811.14286" y1="590" x2="838.85714" y2="606" data-paper-data="{&quot;endpoints&quot;:[[&quot;Point&quot;,811.14286,590],[&quot;Point&quot;,838.85714,606]]}"/><line x1="811.14286" y1="590" x2="811.14286" y2="606" data-paper-data="{&quot;endpoints&quot;:[[&quot;Point&quot;,811.14286,590],[&quot;Point&quot;,811.14286,606]]}"/><line x1="811.14286" y1="590" x2="797.28571" y2="582" data-paper-data="{&quot;endpoints&quot;:[[&quot;Point&quot;,811.14286,590],[&quot;Point&quot;,797.28571,582]]}"/><line x1="811.14286" y1="574" x2="825" y2="566" data-paper-data="{&quot;endpoints&quot;:[[&quot;Point&quot;,811.14286,574],[&quot;Point&quot;,825,566]]}"/><line x1="811.14286" y1="574" x2="852.71429" y2="582" data-paper-data="{&quot;endpoints&quot;:[[&quot;Point&quot;,811.14286,574],[&quot;Point&quot;,852.71429,582]]}"/><line x1="811.14286" y1="574" x2="838.85714" y2="606" data-paper-data="{&quot;endpoints&quot;:[[&quot;Point&quot;,811.14286,574],[&quot;Point&quot;,838.85714,606]]}"/><line x1="811.14286" y1="574" x2="811.14286" y2="606" data-paper-data="{&quot;endpoints&quot;:[[&quot;Point&quot;,811.14286,574],[&quot;Point&quot;,811.14286,606]]}"/><line x1="811.14286" y1="574" x2="797.28571" y2="582" data-paper-data="{&quot;endpoints&quot;:[[&quot;Point&quot;,811.14286,574],[&quot;Point&quot;,797.28571,582]]}"/><line x1="825" y1="566" x2="852.71429" y2="582" data-paper-data="{&quot;endpoints&quot;:[[&quot;Point&quot;,825,566],[&quot;Point&quot;,852.71429,582]]}"/><line x1="825" y1="566" x2="838.85714" y2="606" data-paper-data="{&quot;endpoints&quot;:[[&quot;Point&quot;,825,566],[&quot;Point&quot;,838.85714,606]]}"/><line x1="825" y1="566" x2="811.14286" y2="606" data-paper-data="{&quot;endpoints&quot;:[[&quot;Point&quot;,825,566],[&quot;Point&quot;,811.14286,606]]}"/><line x1="825" y1="566" x2="797.28571" y2="582" data-paper-data="{&quot;endpoints&quot;:[[&quot;Point&quot;,825,566],[&quot;Point&quot;,797.28571,582]]}"/><line x1="852.71429" y1="582" x2="838.85714" y2="606" data-paper-data="{&quot;endpoints&quot;:[[&quot;Point&quot;,852.71429,582],[&quot;Point&quot;,838.85714,606]]}"/><line x1="852.71429" y1="582" x2="811.14286" y2="606" data-paper-data="{&quot;endpoints&quot;:[[&quot;Point&quot;,852.71429,582],[&quot;Point&quot;,811.14286,606]]}"/><line x1="852.71429" y1="582" x2="797.28571" y2="582" data-paper-data="{&quot;endpoints&quot;:[[&quot;Point&quot;,852.71429,582],[&quot;Point&quot;,797.28571,582]]}"/><line x1="838.85714" y1="606" x2="811.14286" y2="606" data-paper-data="{&quot;endpoints&quot;:[[&quot;Point&quot;,838.85714,606],[&quot;Point&quot;,811.14286,606]]}"/><line x1="838.85714" y1="606" x2="797.28571" y2="582" data-paper-data="{&quot;endpoints&quot;:[[&quot;Point&quot;,838.85714,606],[&quot;Point&quot;,797.28571,582]]}"/><line x1="811.14286" y1="606" x2="797.28571" y2="582" data-paper-data="{&quot;endpoints&quot;:[[&quot;Point&quot;,811.14286,606],[&quot;Point&quot;,797.28571,582]]}"/></g><rect x="-860" y="-744" transform="rotate(180)" width="70" height="156" stroke="#000000" stroke-width="0.5" stroke-linecap="butt" opacity="0"/><g stroke="#000000" stroke-width="0.5" stroke-linecap="round"><circle cx="1047.47096" cy="164.27292" transform="rotate(30)" r="16" data-paper-data="{&quot;index&quot;:0}" opacity="0"/><circle cx="1063.4716" cy="164.27255" transform="rotate(30)" r="16" data-paper-data="{&quot;index&quot;:1}" opacity="0"/><circle cx="1055.47096" cy="178.12933" transform="rotate(30)" r="16" data-paper-data="{&quot;index&quot;:2}" opacity="0"/><circle cx="1039.47032" cy="178.12969" transform="rotate(30)" r="16" data-paper-data="{&quot;index&quot;:3}" opacity="0"/><circle cx="1031.47032" cy="164.27329" transform="rotate(30)" r="16" data-paper-data="{&quot;index&quot;:4}" opacity="0"/><circle cx="1039.47096" cy="150.41651" transform="rotate(30)" r="16" data-paper-data="{&quot;index&quot;:5}" opacity="0"/><circle cx="1055.4716" cy="150.41614" transform="rotate(30)" r="16" data-paper-data="{&quot;index&quot;:6}" opacity="0"/><line x1="825" y1="666" x2="838.85714" y2="674" data-paper-data="{&quot;endpoints&quot;:[[&quot;Point&quot;,825,666],[&quot;Point&quot;,838.85714,674]]}"/><line x1="825" y1="666" x2="825" y2="682" data-paper-data="{&quot;endpoints&quot;:[[&quot;Point&quot;,825,666],[&quot;Point&quot;,825,682]]}"/><line x1="825" y1="666" x2="811.14286" y2="674" data-paper-data="{&quot;endpoints&quot;:[[&quot;Point&quot;,825,666],[&quot;Point&quot;,811.14286,674]]}"/><line x1="825" y1="666" x2="811.14286" y2="658" data-paper-data="{&quot;endpoints&quot;:[[&quot;Point&quot;,825,666],[&quot;Point&quot;,811.14286,658]]}"/><line x1="825" y1="666" x2="825" y2="650" data-paper-data="{&quot;endpoints&quot;:[[&quot;Point&quot;,825,666],[&quot;Point&quot;,825,650]]}"/><line x1="825" y1="666" x2="838.85714" y2="658" data-paper-data="{&quot;endpoints&quot;:[[&quot;Point&quot;,825,666],[&quot;Point&quot;,838.85714,658]]}"/><line x1="825" y1="666" x2="838.85714" y2="690" data-paper-data="{&quot;endpoints&quot;:[[&quot;Point&quot;,825,666],[&quot;Point&quot;,838.85714,690]]}"/><line x1="825" y1="666" x2="852.71429" y2="666" data-paper-data="{&quot;endpoints&quot;:[[&quot;Point&quot;,825,666],[&quot;Point&quot;,852.71429,666]]}"/><line x1="825" y1="666" x2="811.14286" y2="690" data-paper-data="{&quot;endpoints&quot;:[[&quot;Point&quot;,825,666],[&quot;Point&quot;,811.14286,690]]}"/><line x1="825" y1="666" x2="797.28571" y2="666" data-paper-data="{&quot;endpoints&quot;:[[&quot;Point&quot;,825,666],[&quot;Point&quot;,797.28571,666]]}"/><line x1="825" y1="666" x2="811.14286" y2="642" data-paper-data="{&quot;endpoints&quot;:[[&quot;Point&quot;,825,666],[&quot;Point&quot;,811.14286,642]]}"/><line x1="825" y1="666" x2="838.85714" y2="642" data-paper-data="{&quot;endpoints&quot;:[[&quot;Point&quot;,825,666],[&quot;Point&quot;,838.85714,642]]}"/><line x1="838.85714" y1="674" x2="825" y2="682" data-paper-data="{&quot;endpoints&quot;:[[&quot;Point&quot;,838.85714,674],[&quot;Point&quot;,825,682]]}"/><line x1="838.85714" y1="674" x2="811.14286" y2="674" data-paper-data="{&quot;endpoints&quot;:[[&quot;Point&quot;,838.85714,674],[&quot;Point&quot;,811.14286,674]]}"/><line x1="838.85714" y1="674" x2="811.14286" y2="658" data-paper-data="{&quot;endpoints&quot;:[[&quot;Point&quot;,838.85714,674],[&quot;Point&quot;,811.14286,658]]}"/><line x1="838.85714" y1="674" x2="825" y2="650" data-paper-data="{&quot;endpoints&quot;:[[&quot;Point&quot;,838.85714,674],[&quot;Point&quot;,825,650]]}"/><line x1="838.85714" y1="674" x2="838.85714" y2="658" data-paper-data="{&quot;endpoints&quot;:[[&quot;Point&quot;,838.85714,674],[&quot;Point&quot;,838.85714,658]]}"/><line x1="838.85714" y1="674" x2="838.85714" y2="690" data-paper-data="{&quot;endpoints&quot;:[[&quot;Point&quot;,838.85714,674],[&quot;Point&quot;,838.85714,690]]}"/><line x1="838.85714" y1="674" x2="852.71429" y2="666" data-paper-data="{&quot;endpoints&quot;:[[&quot;Point&quot;,838.85714,674],[&quot;Point&quot;,852.71429,666]]}"/><line x1="838.85714" y1="674" x2="811.14286" y2="690" data-paper-data="{&quot;endpoints&quot;:[[&quot;Point&quot;,838.85714,674],[&quot;Point&quot;,811.14286,690]]}"/><line x1="838.85714" y1="674" x2="797.28571" y2="666" data-paper-data="{&quot;endpoints&quot;:[[&quot;Point&quot;,838.85714,674],[&quot;Point&quot;,797.28571,666]]}"/><line x1="838.85714" y1="674" x2="811.14286" y2="642" data-paper-data="{&quot;endpoints&quot;:[[&quot;Point&quot;,838.85714,674],[&quot;Point&quot;,811.14286,642]]}"/><line x1="838.85714" y1="674" x2="838.85714" y2="642" data-paper-data="{&quot;endpoints&quot;:[[&quot;Point&quot;,838.85714,674],[&quot;Point&quot;,838.85714,642]]}"/><line x1="825" y1="682" x2="811.14286" y2="674" data-paper-data="{&quot;endpoints&quot;:[[&quot;Point&quot;,825,682],[&quot;Point&quot;,811.14286,674]]}"/><line x1="825" y1="682" x2="811.14286" y2="658" data-paper-data="{&quot;endpoints&quot;:[[&quot;Point&quot;,825,682],[&quot;Point&quot;,811.14286,658]]}"/><line x1="825" y1="682" x2="825" y2="650" data-paper-data="{&quot;endpoints&quot;:[[&quot;Point&quot;,825,682],[&quot;Point&quot;,825,650]]}"/><line x1="825" y1="682" x2="838.85714" y2="658" data-paper-data="{&quot;endpoints&quot;:[[&quot;Point&quot;,825,682],[&quot;Point&quot;,838.85714,658]]}"/><line x1="825" y1="682" x2="838.85714" y2="690" data-paper-data="{&quot;endpoints&quot;:[[&quot;Point&quot;,825,682],[&quot;Point&quot;,838.85714,690]]}"/><line x1="825" y1="682" x2="852.71429" y2="666" data-paper-data="{&quot;endpoints&quot;:[[&quot;Point&quot;,825,682],[&quot;Point&quot;,852.71429,666]]}"/><line x1="825" y1="682" x2="811.14286" y2="690" data-paper-data="{&quot;endpoints&quot;:[[&quot;Point&quot;,825,682],[&quot;Point&quot;,811.14286,690]]}"/><line x1="825" y1="682" x2="797.28571" y2="666" data-paper-data="{&quot;endpoints&quot;:[[&quot;Point&quot;,825,682],[&quot;Point&quot;,797.28571,666]]}"/><line x1="825" y1="682" x2="811.14286" y2="642" data-paper-data="{&quot;endpoints&quot;:[[&quot;Point&quot;,825,682],[&quot;Point&quot;,811.14286,642]]}"/><line x1="825" y1="682" x2="838.85714" y2="642" data-paper-data="{&quot;endpoints&quot;:[[&quot;Point&quot;,825,682],[&quot;Point&quot;,838.85714,642]]}"/><line x1="811.14286" y1="674" x2="811.14286" y2="658" data-paper-data="{&quot;endpoints&quot;:[[&quot;Point&quot;,811.14286,674],[&quot;Point&quot;,811.14286,658]]}"/><line x1="811.14286" y1="674" x2="825" y2="650" data-paper-data="{&quot;endpoints&quot;:[[&quot;Point&quot;,811.14286,674],[&quot;Point&quot;,825,650]]}"/><line x1="811.14286" y1="674" x2="838.85714" y2="658" data-paper-data="{&quot;endpoints&quot;:[[&quot;Point&quot;,811.14286,674],[&quot;Point&quot;,838.85714,658]]}"/><line x1="811.14286" y1="674" x2="838.85714" y2="690" data-paper-data="{&quot;endpoints&quot;:[[&quot;Point&quot;,811.14286,674],[&quot;Point&quot;,838.85714,690]]}"/><line x1="811.14286" y1="674" x2="852.71429" y2="666" data-paper-data="{&quot;endpoints&quot;:[[&quot;Point&quot;,811.14286,674],[&quot;Point&quot;,852.71429,666]]}"/><line x1="811.14286" y1="674" x2="811.14286" y2="690" data-paper-data="{&quot;endpoints&quot;:[[&quot;Point&quot;,811.14286,674],[&quot;Point&quot;,811.14286,690]]}"/><line x1="811.14286" y1="674" x2="797.28571" y2="666" data-paper-data="{&quot;endpoints&quot;:[[&quot;Point&quot;,811.14286,674],[&quot;Point&quot;,797.28571,666]]}"/><line x1="811.14286" y1="674" x2="811.14286" y2="642" data-paper-data="{&quot;endpoints&quot;:[[&quot;Point&quot;,811.14286,674],[&quot;Point&quot;,811.14286,642]]}"/><line x1="811.14286" y1="674" x2="838.85714" y2="642" data-paper-data="{&quot;endpoints&quot;:[[&quot;Point&quot;,811.14286,674],[&quot;Point&quot;,838.85714,642]]}"/><line x1="811.14286" y1="658" x2="825" y2="650" data-paper-data="{&quot;endpoints&quot;:[[&quot;Point&quot;,811.14286,658],[&quot;Point&quot;,825,650]]}"/><line x1="811.14286" y1="658" x2="838.85714" y2="658" data-paper-data="{&quot;endpoints&quot;:[[&quot;Point&quot;,811.14286,658],[&quot;Point&quot;,838.85714,658]]}"/><line x1="811.14286" y1="658" x2="838.85714" y2="690" data-paper-data="{&quot;endpoints&quot;:[[&quot;Point&quot;,811.14286,658],[&quot;Point&quot;,838.85714,690]]}"/><line x1="811.14286" y1="658" x2="852.71429" y2="666" data-paper-data="{&quot;endpoints&quot;:[[&quot;Point&quot;,811.14286,658],[&quot;Point&quot;,852.71429,666]]}"/><line x1="811.14286" y1="658" x2="811.14286" y2="690" data-paper-data="{&quot;endpoints&quot;:[[&quot;Point&quot;,811.14286,658],[&quot;Point&quot;,811.14286,690]]}"/><line x1="811.14286" y1="658" x2="797.28571" y2="666" data-paper-data="{&quot;endpoints&quot;:[[&quot;Point&quot;,811.14286,658],[&quot;Point&quot;,797.28571,666]]}"/><line x1="811.14286" y1="658" x2="811.14286" y2="642" data-paper-data="{&quot;endpoints&quot;:[[&quot;Point&quot;,811.14286,658],[&quot;Point&quot;,811.14286,642]]}"/><line x1="811.14286" y1="658" x2="838.85714" y2="642" data-paper-data="{&quot;endpoints&quot;:[[&quot;Point&quot;,811.14286,658],[&quot;Point&quot;,838.85714,642]]}"/><line x1="825" y1="650" x2="838.85714" y2="658" data-paper-data="{&quot;endpoints&quot;:[[&quot;Point&quot;,825,650],[&quot;Point&quot;,838.85714,658]]}"/><line x1="825" y1="650" x2="838.85714" y2="690" data-paper-data="{&quot;endpoints&quot;:[[&quot;Point&quot;,825,650],[&quot;Point&quot;,838.85714,690]]}"/><line x1="825" y1="650" x2="852.71429" y2="666" data-paper-data="{&quot;endpoints&quot;:[[&quot;Point&quot;,825,650],[&quot;Point&quot;,852.71429,666]]}"/><line x1="825" y1="650" x2="811.14286" y2="690" data-paper-data="{&quot;endpoints&quot;:[[&quot;Point&quot;,825,650],[&quot;Point&quot;,811.14286,690]]}"/><line x1="825" y1="650" x2="797.28571" y2="666" data-paper-data="{&quot;endpoints&quot;:[[&quot;Point&quot;,825,650],[&quot;Point&quot;,797.28571,666]]}"/><line x1="825" y1="650" x2="811.14286" y2="642" data-paper-data="{&quot;endpoints&quot;:[[&quot;Point&quot;,825,650],[&quot;Point&quot;,811.14286,642]]}"/><line x1="825" y1="650" x2="838.85714" y2="642" data-paper-data="{&quot;endpoints&quot;:[[&quot;Point&quot;,825,650],[&quot;Point&quot;,838.85714,642]]}"/><line x1="838.85714" y1="658" x2="838.85714" y2="690" data-paper-data="{&quot;endpoints&quot;:[[&quot;Point&quot;,838.85714,658],[&quot;Point&quot;,838.85714,690]]}"/><line x1="838.85714" y1="658" x2="852.71429" y2="666" data-paper-data="{&quot;endpoints&quot;:[[&quot;Point&quot;,838.85714,658],[&quot;Point&quot;,852.71429,666]]}"/><line x1="838.85714" y1="658" x2="811.14286" y2="690" data-paper-data="{&quot;endpoints&quot;:[[&quot;Point&quot;,838.85714,658],[&quot;Point&quot;,811.14286,690]]}"/><line x1="838.85714" y1="658" x2="797.28571" y2="666" data-paper-data="{&quot;endpoints&quot;:[[&quot;Point&quot;,838.85714,658],[&quot;Point&quot;,797.28571,666]]}"/><line x1="838.85714" y1="658" x2="811.14286" y2="642" data-paper-data="{&quot;endpoints&quot;:[[&quot;Point&quot;,838.85714,658],[&quot;Point&quot;,811.14286,642]]}"/><line x1="838.85714" y1="658" x2="838.85714" y2="642" data-paper-data="{&quot;endpoints&quot;:[[&quot;Point&quot;,838.85714,658],[&quot;Point&quot;,838.85714,642]]}"/><line x1="838.85714" y1="690" x2="852.71429" y2="666" data-paper-data="{&quot;endpoints&quot;:[[&quot;Point&quot;,838.85714,690],[&quot;Point&quot;,852.71429,666]]}"/><line x1="838.85714" y1="690" x2="811.14286" y2="690" data-paper-data="{&quot;endpoints&quot;:[[&quot;Point&quot;,838.85714,690],[&quot;Point&quot;,811.14286,690]]}"/><line x1="838.85714" y1="690" x2="797.28571" y2="666" data-paper-data="{&quot;endpoints&quot;:[[&quot;Point&quot;,838.85714,690],[&quot;Point&quot;,797.28571,666]]}"/><line x1="838.85714" y1="690" x2="811.14286" y2="642" data-paper-data="{&quot;endpoints&quot;:[[&quot;Point&quot;,838.85714,690],[&quot;Point&quot;,811.14286,642]]}"/><line x1="838.85714" y1="690" x2="838.85714" y2="642" data-paper-data="{&quot;endpoints&quot;:[[&quot;Point&quot;,838.85714,690],[&quot;Point&quot;,838.85714,642]]}"/><line x1="852.71429" y1="666" x2="811.14286" y2="690" data-paper-data="{&quot;endpoints&quot;:[[&quot;Point&quot;,852.71429,666],[&quot;Point&quot;,811.14286,690]]}"/><line x1="852.71429" y1="666" x2="797.28571" y2="666" data-paper-data="{&quot;endpoints&quot;:[[&quot;Point&quot;,852.71429,666],[&quot;Point&quot;,797.28571,666]]}"/><line x1="852.71429" y1="666" x2="811.14286" y2="642" data-paper-data="{&quot;endpoints&quot;:[[&quot;Point&quot;,852.71429,666],[&quot;Point&quot;,811.14286,642]]}"/><line x1="852.71429" y1="666" x2="838.85714" y2="642" data-paper-data="{&quot;endpoints&quot;:[[&quot;Point&quot;,852.71429,666],[&quot;Point&quot;,838.85714,642]]}"/><line x1="811.14286" y1="690" x2="797.28571" y2="666" data-paper-data="{&quot;endpoints&quot;:[[&quot;Point&quot;,811.14286,690],[&quot;Point&quot;,797.28571,666]]}"/><line x1="811.14286" y1="690" x2="811.14286" y2="642" data-paper-data="{&quot;endpoints&quot;:[[&quot;Point&quot;,811.14286,690],[&quot;Point&quot;,811.14286,642]]}"/><line x1="811.14286" y1="690" x2="838.85714" y2="642" data-paper-data="{&quot;endpoints&quot;:[[&quot;Point&quot;,811.14286,690],[&quot;Point&quot;,838.85714,642]]}"/><line x1="797.28571" y1="666" x2="811.14286" y2="642" data-paper-data="{&quot;endpoints&quot;:[[&quot;Point&quot;,797.28571,666],[&quot;Point&quot;,811.14286,642]]}"/><line x1="797.28571" y1="666" x2="838.85714" y2="642" data-paper-data="{&quot;endpoints&quot;:[[&quot;Point&quot;,797.28571,666],[&quot;Point&quot;,838.85714,642]]}"/><line x1="811.14286" y1="642" x2="838.85714" y2="642" data-paper-data="{&quot;endpoints&quot;:[[&quot;Point&quot;,811.14286,642],[&quot;Point&quot;,838.85714,642]]}"/></g></g></svg>