<svg x="0" y="0" width="1100" height="850" version="1.1" xmlns="http://www.w3.org/2000/svg" xmlns:xlink="http://www.w3.org/1999/xlink"><g fill="none" stroke="none" stroke-width="none" stroke-linecap="none" stroke-linejoin="miter" stroke-miterlimit="10" stroke-dasharray="" stroke-dashoffset="0" font-family="sans-serif" font-size="12" text-anchor="start" mix-blend-mode="normal"><g stroke-width="1" stroke-linecap="butt"/><rect x="-860" y="-240" transform="rotate(180)" width="70" height="156" stroke="#000000" stroke-width="0.5" stroke-linecap="butt" opacity="0"/><g stroke="#000000" stroke-width="0.5" stroke-linecap="round"><circle cx="825" cy="162" r="16" data-paper-data="{&quot;index&quot;:0}" opacity="0"/></g><rect x="-860" y="-324" transform="rotate(180)" width="70" height="156" stroke="#000000" stroke-width="0.5" stroke-linecap="butt" opacity="0"/><g stroke="#000000" stroke-width="0.5" stroke-linecap="round"><circle cx="246" cy="-825" transform="rotate(90)" r="16" data-paper-data="{&quot;index&quot;:0}" opacity="0"/><circle cx="262" cy="-825" transform="rotate(90)" r="16" data-paper-data="{&quot;index&quot;:1}" opacity="0"/><circle cx="825" cy="254" r="8"/><circle cx="825" cy="254" r="13.85714"/></g><rect x="-860" y="-408" transform="rotate(180)" width="70" height="156" stroke="#000000" stroke-width="0.5" stroke-linecap="butt" opacity="0"/><g stroke="#000000" stroke-width="0.5" stroke-linecap="round"><circle cx="698.28838" cy="-549.47096" transform="rotate(60)" r="16" data-paper-data="{&quot;index&quot;:0}" opacity="0"/><circle cx="714.28902" cy="-549.47059" transform="rotate(60)" r="16" data-paper-data="{&quot;index&quot;:1}" opacity="0"/><circle cx="706.28902" cy="-535.61418" transform="rotate(60)" r="16" data-paper-data="{&quot;index&quot;:2}" opacity="0"/><circle cx="825" cy="339.2381" r="6.7619"/><circle cx="825" cy="339.2381" r="9.2381"/><circle cx="829" cy="336.92857" r="8"/><circle cx="821" cy="336.92857" r="8"/><circle cx="825" cy="343.85714" r="8"/><circle cx="829" cy="336.92857" r="13.85714"/><circle cx="821" cy="336.92857" r="13.85714"/><circle cx="825" cy="343.85714" r="13.85714"/></g><rect x="-860" y="-492" transform="rotate(180)" width="70" height="156" stroke="#000000" stroke-width="0.5" stroke-linecap="butt" opacity="0"/><g stroke="#000000" stroke-width="0.5" stroke-linecap="round"><circle cx="921.47096" cy="-53.96548" transform="rotate(30)" r="16" data-paper-data="{&quot;index&quot;:0}" opacity="0"/><circle cx="937.4716" cy="-53.96585" transform="rotate(30)" r="16" data-paper-data="{&quot;index&quot;:1}" opacity="0"/><circle cx="929.47096" cy="-40.10908" transform="rotate(30)" r="16" data-paper-data="{&quot;index&quot;:2}" opacity="0"/><circle cx="913.47032" cy="-40.10871" transform="rotate(30)" r="16" data-paper-data="{&quot;index&quot;:3}" opacity="0"/><circle cx="825" cy="422" r="2.14286"/><circle cx="825" cy="422" r="8"/><circle cx="829.61905" cy="422" r="6.7619"/><circle cx="820.38095" cy="422" r="6.7619"/><circle cx="829.61905" cy="422" r="9.2381"/><circle cx="820.38095" cy="422" r="9.2381"/><circle cx="831.92857" cy="418" r="8"/><circle cx="825" cy="422" r="8"/><circle cx="818.07143" cy="418" r="8"/><circle cx="831.92857" cy="426" r="8"/><circle cx="818.07143" cy="426" r="8"/><circle cx="831.92857" cy="418" r="13.85714"/><circle cx="825" cy="422" r="13.85714"/><circle cx="818.07143" cy="418" r="13.85714"/><circle cx="831.92857" cy="426" r="13.85714"/><circle cx="818.07143" cy="426" r="13.85714"/></g><rect x="-860" y="-576" transform="rotate(180)" width="70" height="156" stroke="#000000" stroke-width="0.5" stroke-linecap="butt" opacity="0"/><g stroke="#000000" stroke-width="0.5" stroke-linecap="round"><circle cx="825" cy="498" r="16" data-paper-data="{&quot;index&quot;:0}" opacity="0"/><circle cx="841" cy="498" r="16" data-paper-data="{&quot;index&quot;:1}" opacity="0"/><circle cx="833" cy="511.85714" r="16" data-paper-data="{&quot;index&quot;:2}" opacity="0"/><circle cx="817" cy="511.85714" r="16" data-paper-data="{&quot;index&quot;:3}" opacity="0"/><circle cx="809" cy="498" r="16" data-paper-data="{&quot;index&quot;:4}" opacity="0"/><circle cx="829" cy="504.92857" r="2.14286"/><circle cx="821" cy="504.92857" r="2.14286"/><circle cx="829" cy="504.92857" r="8"/><circle cx="821" cy="504.92857" r="8"/><circle cx="833" cy="502.61905" r="6.7619"/><circle cx="825" cy="507.2381" r="6.7619"/><circle cx="817" cy="502.61905" r="6.7619"/><circle cx="833" cy="502.61905" r="9.2381"/><circle cx="825" cy="507.2381" r="9.2381"/><circle cx="817" cy="502.61905" r="9.2381"/><circle cx="833" cy="498" r="8"/><circle cx="829" cy="504.92857" r="8"/><circle cx="821" cy="504.92857" r="8"/><circle cx="817" cy="498" r="8"/><circle cx="837" cy="504.92857" r="8"/><circle cx="825" cy="511.85714" r="8"/><circle cx="813" cy="504.92857" r="8"/><circle cx="833" cy="498" r="13.85714"/><circle cx="829" cy="504.92857" r="13.85714"/><circle cx="821" cy="504.92857" r="13.85714"/><circle cx="817" cy="498" r="13.85714"/><circle cx="837" cy="504.92857" r="13.85714"/><circle cx="825" cy="511.85714" r="13.85714"/><circle cx="813" cy="504.92857" r="13.85714"/></g><rect x="-860" y="-660" transform="rotate(180)" width="70" height="156" stroke="#000000" stroke-width="0.5" stroke-linecap="butt" opacity="0"/><g stroke="#000000" stroke-width="0.5" stroke-linecap="round"><circle cx="423.47096" cy="916.52679" transform="rotate(-30)" r="16" data-paper-data="{&quot;index&quot;:0}" opacity="0"/><circle cx="439.4716" cy="916.52715" transform="rotate(-30)" r="16" data-paper-data="{&quot;index&quot;:1}" opacity="0"/><circle cx="431.4716" cy="930.38356" transform="rotate(-30)" r="16" data-paper-data="{&quot;index&quot;:2}" opacity="0"/><circle cx="415.47096" cy="930.38319" transform="rotate(-30)" r="16" data-paper-data="{&quot;index&quot;:3}" opacity="0"/><circle cx="407.47032" cy="916.52642" transform="rotate(-30)" r="16" data-paper-data="{&quot;index&quot;:4}" opacity="0"/><circle cx="415.47032" cy="902.67001" transform="rotate(-30)" r="16" data-paper-data="{&quot;index&quot;:5}" opacity="0"/><circle cx="831.92857" cy="586" r="2.14286"/><circle cx="825" cy="574" r="2.14286"/><circle cx="825" cy="590" r="2.14286"/><circle cx="818.07143" cy="586" r="2.14286"/><circle cx="831.92857" cy="586" r="8"/><circle cx="825" cy="574" r="8"/><circle cx="825" cy="590" r="8"/><circle cx="818.07143" cy="586" r="8"/><circle cx="834.2381" cy="582" r="6.7619"/><circle cx="829.61905" cy="590" r="6.7619"/><circle cx="820.38095" cy="590" r="6.7619"/><circle cx="815.7619" cy="582" r="6.7619"/><circle cx="834.2381" cy="582" r="9.2381"/><circle cx="829.61905" cy="590" r="9.2381"/><circle cx="820.38095" cy="590" r="9.2381"/><circle cx="815.7619" cy="582" r="9.2381"/><circle cx="831.92857" cy="578" r="8"/><circle cx="831.92857" cy="586" r="8"/><circle cx="825" cy="590" r="8"/><circle cx="818.07143" cy="586" r="8"/><circle cx="818.07143" cy="578" r="8"/><circle cx="838.85714" cy="582" r="8"/><circle cx="831.92857" cy="594" r="8"/><circle cx="818.07143" cy="594" r="8"/><circle cx="811.14286" cy="582" r="8"/><circle cx="831.92857" cy="578" r="13.85714"/><circle cx="831.92857" cy="586" r="13.85714"/><circle cx="825" cy="590" r="13.85714"/><circle cx="818.07143" cy="586" r="13.85714"/><circle cx="818.07143" cy="578" r="13.85714"/><circle cx="838.85714" cy="582" r="13.85714"/><circle cx="831.92857" cy="594" r="13.85714"/><circle cx="818.07143" cy="594" r="13.85714"/><circle cx="811.14286" cy="582" r="13.85714"/></g><rect x="-860" y="-744" transform="rotate(180)" width="70" height="156" stroke="#000000" stroke-width="0.5" stroke-linecap="butt" opacity="0"/><g stroke="#000000" stroke-width="0.5" stroke-linecap="round"><circle cx="1047.47096" cy="164.27292" transform="rotate(30)" r="16" data-paper-data="{&quot;index&quot;:0}" opacity="0"/><circle cx="1063.4716" cy="164.27255" transform="rotate(30)" r="16" data-paper-data="{&quot;index&quot;:1}" opacity="0"/><circle cx="1055.47096" cy="178.12933" transform="rotate(30)" r="16" data-paper-data="{&quot;index&quot;:2}" opacity="0"/><circle cx="1039.47032" cy="178.12969" transform="rotate(30)" r="16" data-paper-data="{&quot;index&quot;:3}" opacity="0"/><circle cx="1031.47032" cy="164.27329" transform="rotate(30)" r="16" data-paper-data="{&quot;index&quot;:4}" opacity="0"/><circle cx="1039.47096" cy="150.41651" transform="rotate(30)" r="16" data-paper-data="{&quot;index&quot;:5}" opacity="0"/><circle cx="1055.4716" cy="150.41614" transform="rotate(30)" r="16" data-paper-data="{&quot;index&quot;:6}" opacity="0"/><circle cx="825" cy="674" r="2.14286"/><circle cx="831.92857" cy="662" r="2.14286"/><circle cx="818.07143" cy="670" r="2.14286"/><circle cx="831.92857" cy="670" r="2.14286"/><circle cx="818.07143" cy="662" r="2.14286"/><circle cx="825" cy="658" r="2.14286"/><circle cx="825" cy="674" r="8"/><circle cx="831.92857" cy="662" r="8"/><circle cx="818.07143" cy="670" r="8"/><circle cx="831.92857" cy="670" r="8"/><circle cx="818.07143" cy="662" r="8"/><circle cx="825" cy="658" r="8"/><circle cx="829.61905" cy="674" r="6.7619"/><circle cx="834.2381" cy="666" r="6.7619"/><circle cx="820.38095" cy="674" r="6.7619"/><circle cx="815.7619" cy="666" r="6.7619"/><circle cx="820.38095" cy="658" r="6.7619"/><circle cx="829.61905" cy="658" r="6.7619"/><circle cx="829.61905" cy="674" r="9.2381"/><circle cx="834.2381" cy="666" r="9.2381"/><circle cx="820.38095" cy="674" r="9.2381"/><circle cx="815.7619" cy="666" r="9.2381"/><circle cx="820.38095" cy="658" r="9.2381"/><circle cx="829.61905" cy="658" r="9.2381"/><circle cx="831.92857" cy="670" r="8"/><circle cx="825" cy="674" r="8"/><circle cx="818.07143" cy="670" r="8"/><circle cx="818.07143" cy="662" r="8"/><circle cx="825" cy="658" r="8"/><circle cx="831.92857" cy="662" r="8"/><circle cx="831.92857" cy="678" r="8"/><circle cx="838.85714" cy="666" r="8"/><circle cx="818.07143" cy="678" r="8"/><circle cx="811.14286" cy="666" r="8"/><circle cx="818.07143" cy="654" r="8"/><circle cx="831.92857" cy="654" r="8"/><circle cx="831.92857" cy="670" r="13.85714"/><circle cx="825" cy="674" r="13.85714"/><circle cx="818.07143" cy="670" r="13.85714"/><circle cx="818.07143" cy="662" r="13.85714"/><circle cx="825" cy="658" r="13.85714"/><circle cx="831.92857" cy="662" r="13.85714"/><circle cx="831.92857" cy="678" r="13.85714"/><circle cx="838.85714" cy="666" r="13.85714"/><circle cx="818.07143" cy="678" r="13.85714"/><circle cx="811.14286" cy="666" r="13.85714"/><circle cx="818.07143" cy="654" r="13.85714"/><circle cx="831.92857" cy="654" r="13.85714"/></g></g></svg>