<svg x="0" y="0" width="3300" height="2550" version="1.1" xmlns="http://www.w3.org/2000/svg" xmlns:xlink="http://www.w3.org/1999/xlink"><g fill="none" stroke="none" stroke-width="none" stroke-linecap="none" stroke-linejoin="miter" stroke-miterlimit="10" stroke-dasharray="none" stroke-dashoffset="0" font-family="none" font-weight="none" font-size="none" text-anchor="start" mix-blend-mode="normal"><polygon points="0,825 0,0 825,0 825,825" stroke="#000000" stroke-width="1" stroke-linecap="butt" stroke-dasharray="1,4" font-family="sans-serif" font-weight="normal" font-size="12"/><text x="92.85714" y="141.85714" fill="#000000" stroke-width="1" stroke-linecap="butt" stroke-dasharray="" font-family="Times" font-weight="bold" font-size="100">0</text><text x="623.28153" y="128.65714" fill="#000000" stroke-width="1" stroke-linecap="butt" stroke-dasharray="" font-family="Times" font-weight="bold" font-size="76">zero</text><path d="M232.5,370.5c0,-99.41125 80.58875,-180 180,-180c99.41125,0 180,80.58875 180,180c0,99.41125 -80.58875,180 -180,180c-99.41125,0 -180,-80.58875 -180,-180z" stroke="#000000" stroke-width="1" stroke-linecap="butt" stroke-dasharray="2,3" font-family="sans-serif" font-weight="normal" font-size="12"/><polygon points="825,825 825,0 1650,0 1650,825" stroke="#000000" stroke-width="1" stroke-linecap="butt" stroke-dasharray="1,4" font-family="sans-serif" font-weight="normal" font-size="12"/><text x="917.85714" y="141.85714" fill="#000000" stroke-width="1" stroke-linecap="butt" stroke-dasharray="" font-family="Times" font-weight="bold" font-size="100">1</text><text x="1472.14286" y="128.65714" fill="#000000" stroke-width="1" stroke-linecap="butt" stroke-dasharray="" font-family="Times" font-weight="bold" font-size="76">one</text><path d="M1057.5,370.5c0,-99.41125 80.58875,-180 180,-180c99.41125,0 180,80.58875 180,180c0,99.41125 -80.58875,180 -180,180c-99.41125,0 -180,-80.58875 -180,-180z" stroke="#000000" stroke-width="1" stroke-linecap="butt" stroke-dasharray="2,3" font-family="sans-serif" font-weight="normal" font-size="12"/><path d="M1219.5,190.5c0,-9.94113 8.05887,-18 18,-18c9.94113,0 18,8.05887 18,18c0,9.94113 -8.05887,18 -18,18c-9.94113,0 -18,-8.05887 -18,-18z" fill="#000000" stroke-width="1" stroke-linecap="butt" stroke-dasharray="" font-family="sans-serif" font-weight="normal" font-size="12"/><polygon points="1650,825 1650,0 2475,0 2475,825" stroke="#000000" stroke-width="1" stroke-linecap="butt" stroke-dasharray="1,4" font-family="sans-serif" font-weight="normal" font-size="12"/><text x="1742.85714" y="141.85714" fill="#000000" stroke-width="1" stroke-linecap="butt" stroke-dasharray="" font-family="Times" font-weight="bold" font-size="100">2</text><text x="2292.9495" y="128.65714" fill="#000000" stroke-width="1" stroke-linecap="butt" stroke-dasharray="" font-family="Times" font-weight="bold" font-size="76">two</text><path d="M1882.5,370.5c0,-99.41125 80.58875,-180 180,-180c99.41125,0 180,80.58875 180,180c0,99.41125 -80.58875,180 -180,180c-99.41125,0 -180,-80.58875 -180,-180z" stroke="#000000" stroke-width="1" stroke-linecap="butt" stroke-dasharray="2,3" font-family="sans-serif" font-weight="normal" font-size="12"/><path d="M2044.5,190.5c0,-9.94113 8.05887,-18 18,-18c9.94113,0 18,8.05887 18,18c0,9.94113 -8.05887,18 -18,18c-9.94113,0 -18,-8.05887 -18,-18z" fill="#000000" stroke-width="1" stroke-linecap="butt" stroke-dasharray="" font-family="sans-serif" font-weight="normal" font-size="12"/><path d="M2044.5,550.5c0,-9.94113 8.05887,-18 18,-18c9.94113,0 18,8.05887 18,18c0,9.94113 -8.05887,18 -18,18c-9.94113,0 -18,-8.05887 -18,-18z" fill="#000000" stroke-width="1" stroke-linecap="butt" stroke-dasharray="" font-family="sans-serif" font-weight="normal" font-size="12"/><g stroke="#000000" stroke-width="2" stroke-linecap="round" stroke-dasharray="" font-family="sans-serif" font-weight="normal" font-size="12"><line x1="2062.5" y1="190.5" x2="2062.5" y2="550.5"/></g><g stroke="#000000" stroke-width="2" stroke-linecap="round" stroke-dasharray="" font-family="sans-serif" font-weight="normal" font-size="12"><line x1="2062.5" y1="653.14286" x2="2062.5" y2="761.14286"/></g><polygon points="2475,825 2475,0 3300,0 3300,825" stroke="#000000" stroke-width="1" stroke-linecap="butt" stroke-dasharray="1,4" font-family="sans-serif" font-weight="normal" font-size="12"/><text x="2567.85714" y="141.85714" fill="#000000" stroke-width="1" stroke-linecap="butt" stroke-dasharray="" font-family="Times" font-weight="bold" font-size="100">3</text><text x="3068.70536" y="128.65714" fill="#000000" stroke-width="1" stroke-linecap="butt" stroke-dasharray="" font-family="Times" font-weight="bold" font-size="76">three</text><path d="M2707.5,370.5c0,-99.41125 80.58875,-180 180,-180c99.41125,0 180,80.58875 180,180c0,99.41125 -80.58875,180 -180,180c-99.41125,0 -180,-80.58875 -180,-180z" stroke="#000000" stroke-width="1" stroke-linecap="butt" stroke-dasharray="2,3" font-family="sans-serif" font-weight="normal" font-size="12"/><path d="M2869.5,190.5c0,-9.94113 8.05887,-18 18,-18c9.94113,0 18,8.05887 18,18c0,9.94113 -8.05887,18 -18,18c-9.94113,0 -18,-8.05887 -18,-18z" fill="#000000" stroke-width="1" stroke-linecap="butt" stroke-dasharray="" font-family="sans-serif" font-weight="normal" font-size="12"/><path d="M3025.38457,460.5c0,-9.94113 8.05887,-18 18,-18c9.94113,0 18,8.05887 18,18c0,9.94113 -8.05887,18 -18,18c-9.94113,0 -18,-8.05887 -18,-18z" fill="#000000" stroke-width="1" stroke-linecap="butt" stroke-dasharray="" font-family="sans-serif" font-weight="normal" font-size="12"/><path d="M2713.61543,460.5c0,-9.94113 8.05887,-18 18,-18c9.94113,0 18,8.05887 18,18c0,9.94113 -8.05887,18 -18,18c-9.94113,0 -18,-8.05887 -18,-18z" fill="#000000" stroke-width="1" stroke-linecap="butt" stroke-dasharray="" font-family="sans-serif" font-weight="normal" font-size="12"/><g stroke="#000000" stroke-width="2" stroke-linecap="round" stroke-dasharray="" font-family="sans-serif" font-weight="normal" font-size="12"><line x1="2887.5" y1="190.5" x2="3043.38457" y2="460.5"/><line x1="2887.5" y1="190.5" x2="2731.61543" y2="460.5"/><line x1="3043.38457" y1="460.5" x2="2731.61543" y2="460.5"/></g><g stroke="#000000" stroke-width="2" stroke-linecap="round" stroke-dasharray="" font-family="sans-serif" font-weight="normal" font-size="12"><line x1="2887.5" y1="666.64286" x2="2934.26537" y2="747.64286"/><line x1="2887.5" y1="666.64286" x2="2840.73463" y2="747.64286"/><line x1="2934.26537" y1="747.64286" x2="2840.73463" y2="747.64286"/></g><polygon points="0,1650 0,825 825,825 825,1650" stroke="#000000" stroke-width="1" stroke-linecap="butt" stroke-dasharray="1,4" font-family="sans-serif" font-weight="normal" font-size="12"/><text x="92.85714" y="966.85714" fill="#000000" stroke-width="1" stroke-linecap="butt" stroke-dasharray="" font-family="Times" font-weight="bold" font-size="100">4</text><text x="621.83426" y="953.65714" fill="#000000" stroke-width="1" stroke-linecap="butt" stroke-dasharray="" font-family="Times" font-weight="bold" font-size="76">four</text><path d="M232.5,1195.5c0,-99.41125 80.58875,-180 180,-180c99.41125,0 180,80.58875 180,180c0,99.41125 -80.58875,180 -180,180c-99.41125,0 -180,-80.58875 -180,-180z" stroke="#000000" stroke-width="1" stroke-linecap="butt" stroke-dasharray="2,3" font-family="sans-serif" font-weight="normal" font-size="12"/><path d="M394.5,1015.5c0,-9.94113 8.05887,-18 18,-18c9.94113,0 18,8.05887 18,18c0,9.94113 -8.05887,18 -18,18c-9.94113,0 -18,-8.05887 -18,-18z" fill="#000000" stroke-width="1" stroke-linecap="butt" stroke-dasharray="" font-family="sans-serif" font-weight="normal" font-size="12"/><path d="M574.5,1195.5c0,-9.94113 8.05887,-18 18,-18c9.94113,0 18,8.05887 18,18c0,9.94113 -8.05887,18 -18,18c-9.94113,0 -18,-8.05887 -18,-18z" fill="#000000" stroke-width="1" stroke-linecap="butt" stroke-dasharray="" font-family="sans-serif" font-weight="normal" font-size="12"/><path d="M394.5,1375.5c0,-9.94113 8.05887,-18 18,-18c9.94113,0 18,8.05887 18,18c0,9.94113 -8.05887,18 -18,18c-9.94113,0 -18,-8.05887 -18,-18z" fill="#000000" stroke-width="1" stroke-linecap="butt" stroke-dasharray="" font-family="sans-serif" font-weight="normal" font-size="12"/><path d="M214.5,1195.5c0,-9.94113 8.05887,-18 18,-18c9.94113,0 18,8.05887 18,18c0,9.94113 -8.05887,18 -18,18c-9.94113,0 -18,-8.05887 -18,-18z" fill="#000000" stroke-width="1" stroke-linecap="butt" stroke-dasharray="" font-family="sans-serif" font-weight="normal" font-size="12"/><g stroke="#000000" stroke-width="2" stroke-linecap="round" stroke-dasharray="" font-family="sans-serif" font-weight="normal" font-size="12"><line x1="412.5" y1="1015.5" x2="592.5" y2="1195.5"/><line x1="412.5" y1="1015.5" x2="232.5" y2="1195.5"/><line x1="592.5" y1="1195.5" x2="412.5" y2="1375.5"/><line x1="412.5" y1="1375.5" x2="232.5" y2="1195.5"/></g><g stroke="#000000" stroke-width="2" stroke-linecap="round" stroke-dasharray="" font-family="sans-serif" font-weight="normal" font-size="12"><line x1="117.85714" y1="1478.14286" x2="171.85714" y2="1532.14286"/><line x1="117.85714" y1="1478.14286" x2="63.85714" y2="1532.14286"/><line x1="171.85714" y1="1532.14286" x2="117.85714" y2="1586.14286"/><line x1="117.85714" y1="1586.14286" x2="63.85714" y2="1532.14286"/></g><g stroke="#000000" stroke-width="2" stroke-linecap="round" stroke-dasharray="" font-family="sans-serif" font-weight="normal" font-size="12"><line x1="412.5" y1="1015.5" x2="412.5" y2="1375.5"/><line x1="592.5" y1="1195.5" x2="232.5" y2="1195.5"/></g><g stroke="#000000" stroke-width="2" stroke-linecap="round" stroke-dasharray="" font-family="sans-serif" font-weight="normal" font-size="12"><line x1="707.14286" y1="1478.14286" x2="707.14286" y2="1586.14286"/><line x1="761.14286" y1="1532.14286" x2="653.14286" y2="1532.14286"/></g><polygon points="825,1650 825,825 1650,825 1650,1650" stroke="#000000" stroke-width="1" stroke-linecap="butt" stroke-dasharray="1,4" font-family="sans-serif" font-weight="normal" font-size="12"/><text x="917.85714" y="966.85714" fill="#000000" stroke-width="1" stroke-linecap="butt" stroke-dasharray="" font-family="Times" font-weight="bold" font-size="100">5</text><text x="1472.14286" y="953.65714" fill="#000000" stroke-width="1" stroke-linecap="butt" stroke-dasharray="" font-family="Times" font-weight="bold" font-size="76">ﬁve</text><path d="M1057.5,1195.5c0,-99.41125 80.58875,-180 180,-180c99.41125,0 180,80.58875 180,180c0,99.41125 -80.58875,180 -180,180c-99.41125,0 -180,-80.58875 -180,-180z" stroke="#000000" stroke-width="1" stroke-linecap="butt" stroke-dasharray="2,3" font-family="sans-serif" font-weight="normal" font-size="12"/><path d="M1219.5,1015.5c0,-9.94113 8.05887,-18 18,-18c9.94113,0 18,8.05887 18,18c0,9.94113 -8.05887,18 -18,18c-9.94113,0 -18,-8.05887 -18,-18z" fill="#000000" stroke-width="1" stroke-linecap="butt" stroke-dasharray="" font-family="sans-serif" font-weight="normal" font-size="12"/><path d="M1390.69017,1139.87694c0,-9.94113 8.05887,-18 18,-18c9.94113,0 18,8.05887 18,18c0,9.94113 -8.05887,18 -18,18c-9.94113,0 -18,-8.05887 -18,-18z" fill="#000000" stroke-width="1" stroke-linecap="butt" stroke-dasharray="" font-family="sans-serif" font-weight="normal" font-size="12"/><path d="M1325.30135,1341.12306c0,-9.94113 8.05887,-18 18,-18c9.94113,0 18,8.05887 18,18c0,9.94113 -8.05887,18 -18,18c-9.94113,0 -18,-8.05887 -18,-18z" fill="#000000" stroke-width="1" stroke-linecap="butt" stroke-dasharray="" font-family="sans-serif" font-weight="normal" font-size="12"/><path d="M1113.69865,1341.12306c0,-9.94113 8.05887,-18 18,-18c9.94113,0 18,8.05887 18,18c0,9.94113 -8.05887,18 -18,18c-9.94113,0 -18,-8.05887 -18,-18z" fill="#000000" stroke-width="1" stroke-linecap="butt" stroke-dasharray="" font-family="sans-serif" font-weight="normal" font-size="12"/><path d="M1048.30983,1139.87694c0,-9.94113 8.05887,-18 18,-18c9.94113,0 18,8.05887 18,18c0,9.94113 -8.05887,18 -18,18c-9.94113,0 -18,-8.05887 -18,-18z" fill="#000000" stroke-width="1" stroke-linecap="butt" stroke-dasharray="" font-family="sans-serif" font-weight="normal" font-size="12"/><g stroke="#000000" stroke-width="2" stroke-linecap="round" stroke-dasharray="" font-family="sans-serif" font-weight="normal" font-size="12"><line x1="1237.5" y1="1015.5" x2="1408.69017" y2="1139.87694"/><line x1="1237.5" y1="1015.5" x2="1066.30983" y2="1139.87694"/><line x1="1408.69017" y1="1139.87694" x2="1343.30135" y2="1341.12306"/><line x1="1343.30135" y1="1341.12306" x2="1131.69865" y2="1341.12306"/><line x1="1131.69865" y1="1341.12306" x2="1066.30983" y2="1139.87694"/></g><g stroke="#000000" stroke-width="2" stroke-linecap="round" stroke-dasharray="" font-family="sans-serif" font-weight="normal" font-size="12"><line x1="942.85714" y1="1483.2994" x2="994.21419" y2="1520.61248"/><line x1="942.85714" y1="1483.2994" x2="891.50009" y2="1520.61248"/><line x1="994.21419" y1="1520.61248" x2="974.59755" y2="1580.98632"/><line x1="974.59755" y1="1580.98632" x2="911.11674" y2="1580.98632"/><line x1="911.11674" y1="1580.98632" x2="891.50009" y2="1520.61248"/></g><g stroke="#000000" stroke-width="2" stroke-linecap="round" stroke-dasharray="" font-family="sans-serif" font-weight="normal" font-size="12"><line x1="1237.5" y1="1015.5" x2="1343.30135" y2="1341.12306"/><line x1="1237.5" y1="1015.5" x2="1131.69865" y2="1341.12306"/><line x1="1408.69017" y1="1139.87694" x2="1131.69865" y2="1341.12306"/><line x1="1408.69017" y1="1139.87694" x2="1066.30983" y2="1139.87694"/><line x1="1343.30135" y1="1341.12306" x2="1066.30983" y2="1139.87694"/></g><g stroke="#000000" stroke-width="2" stroke-linecap="round" stroke-dasharray="" font-family="sans-serif" font-weight="normal" font-size="12"><line x1="1532.14286" y1="1483.2994" x2="1563.88326" y2="1580.98632"/><line x1="1532.14286" y1="1483.2994" x2="1500.40245" y2="1580.98632"/><line x1="1583.49991" y1="1520.61248" x2="1500.40245" y2="1580.98632"/><line x1="1583.49991" y1="1520.61248" x2="1480.78581" y2="1520.61248"/><line x1="1563.88326" y1="1580.98632" x2="1480.78581" y2="1520.61248"/></g><polygon points="1650,1650 1650,825 2475,825 2475,1650" stroke="#000000" stroke-width="1" stroke-linecap="butt" stroke-dasharray="1,4" font-family="sans-serif" font-weight="normal" font-size="12"/><text x="1742.85714" y="966.85714" fill="#000000" stroke-width="1" stroke-linecap="butt" stroke-dasharray="" font-family="Times" font-weight="bold" font-size="100">6</text><text x="2322.45145" y="953.65714" fill="#000000" stroke-width="1" stroke-linecap="butt" stroke-dasharray="" font-family="Times" font-weight="bold" font-size="76">six</text><path d="M1882.5,1195.5c0,-99.41125 80.58875,-180 180,-180c99.41125,0 180,80.58875 180,180c0,99.41125 -80.58875,180 -180,180c-99.41125,0 -180,-80.58875 -180,-180z" stroke="#000000" stroke-width="1" stroke-linecap="butt" stroke-dasharray="2,3" font-family="sans-serif" font-weight="normal" font-size="12"/><path d="M2044.5,1015.5c0,-9.94113 8.05887,-18 18,-18c9.94113,0 18,8.05887 18,18c0,9.94113 -8.05887,18 -18,18c-9.94113,0 -18,-8.05887 -18,-18z" fill="#000000" stroke-width="1" stroke-linecap="butt" stroke-dasharray="" font-family="sans-serif" font-weight="normal" font-size="12"/><path d="M2200.38457,1105.5c0,-9.94113 8.05887,-18 18,-18c9.94113,0 18,8.05887 18,18c0,9.94113 -8.05887,18 -18,18c-9.94113,0 -18,-8.05887 -18,-18z" fill="#000000" stroke-width="1" stroke-linecap="butt" stroke-dasharray="" font-family="sans-serif" font-weight="normal" font-size="12"/><path d="M2200.38457,1285.5c0,-9.94113 8.05887,-18 18,-18c9.94113,0 18,8.05887 18,18c0,9.94113 -8.05887,18 -18,18c-9.94113,0 -18,-8.05887 -18,-18z" fill="#000000" stroke-width="1" stroke-linecap="butt" stroke-dasharray="" font-family="sans-serif" font-weight="normal" font-size="12"/><path d="M2044.5,1375.5c0,-9.94113 8.05887,-18 18,-18c9.94113,0 18,8.05887 18,18c0,9.94113 -8.05887,18 -18,18c-9.94113,0 -18,-8.05887 -18,-18z" fill="#000000" stroke-width="1" stroke-linecap="butt" stroke-dasharray="" font-family="sans-serif" font-weight="normal" font-size="12"/><path d="M1888.61543,1285.5c0,-9.94113 8.05887,-18 18,-18c9.94113,0 18,8.05887 18,18c0,9.94113 -8.05887,18 -18,18c-9.94113,0 -18,-8.05887 -18,-18z" fill="#000000" stroke-width="1" stroke-linecap="butt" stroke-dasharray="" font-family="sans-serif" font-weight="normal" font-size="12"/><path d="M1888.61543,1105.5c0,-9.94113 8.05887,-18 18,-18c9.94113,0 18,8.05887 18,18c0,9.94113 -8.05887,18 -18,18c-9.94113,0 -18,-8.05887 -18,-18z" fill="#000000" stroke-width="1" stroke-linecap="butt" stroke-dasharray="" font-family="sans-serif" font-weight="normal" font-size="12"/><g stroke="#000000" stroke-width="2" stroke-linecap="round" stroke-dasharray="" font-family="sans-serif" font-weight="normal" font-size="12"><line x1="2062.5" y1="1015.5" x2="2218.38457" y2="1105.5"/><line x1="2062.5" y1="1015.5" x2="1906.61543" y2="1105.5"/><line x1="2218.38457" y1="1105.5" x2="2218.38457" y2="1285.5"/><line x1="2218.38457" y1="1285.5" x2="2062.5" y2="1375.5"/><line x1="2062.5" y1="1375.5" x2="1906.61543" y2="1285.5"/><line x1="1906.61543" y1="1285.5" x2="1906.61543" y2="1105.5"/></g><g stroke="#000000" stroke-width="2" stroke-linecap="round" stroke-dasharray="" font-family="sans-serif" font-weight="normal" font-size="12"><line x1="1767.85714" y1="1478.14286" x2="1814.62251" y2="1505.14286"/><line x1="1767.85714" y1="1478.14286" x2="1721.09177" y2="1505.14286"/><line x1="1814.62251" y1="1505.14286" x2="1814.62251" y2="1559.14286"/><line x1="1814.62251" y1="1559.14286" x2="1767.85714" y2="1586.14286"/><line x1="1767.85714" y1="1586.14286" x2="1721.09177" y2="1559.14286"/><line x1="1721.09177" y1="1559.14286" x2="1721.09177" y2="1505.14286"/></g><g stroke="#000000" stroke-width="2" stroke-linecap="round" stroke-dasharray="" font-family="sans-serif" font-weight="normal" font-size="12"><line x1="2062.5" y1="1015.5" x2="2218.38457" y2="1285.5"/><line x1="2062.5" y1="1015.5" x2="1906.61543" y2="1285.5"/><line x1="2218.38457" y1="1105.5" x2="2062.5" y2="1375.5"/><line x1="2218.38457" y1="1105.5" x2="1906.61543" y2="1105.5"/><line x1="2218.38457" y1="1285.5" x2="1906.61543" y2="1285.5"/><line x1="2062.5" y1="1375.5" x2="1906.61543" y2="1105.5"/></g><g stroke="#000000" stroke-width="2" stroke-linecap="round" stroke-dasharray="" font-family="sans-serif" font-weight="normal" font-size="12"><line x1="2062.5" y1="1478.14286" x2="2109.26537" y2="1559.14286"/><line x1="2062.5" y1="1478.14286" x2="2015.73463" y2="1559.14286"/><line x1="2109.26537" y1="1505.14286" x2="2062.5" y2="1586.14286"/><line x1="2109.26537" y1="1505.14286" x2="2015.73463" y2="1505.14286"/><line x1="2109.26537" y1="1559.14286" x2="2015.73463" y2="1559.14286"/><line x1="2062.5" y1="1586.14286" x2="2015.73463" y2="1505.14286"/></g><g stroke="#000000" stroke-width="2" stroke-linecap="round" stroke-dasharray="" font-family="sans-serif" font-weight="normal" font-size="12"><line x1="2062.5" y1="1015.5" x2="2062.5" y2="1375.5"/><line x1="2218.38457" y1="1105.5" x2="1906.61543" y2="1285.5"/><line x1="2218.38457" y1="1285.5" x2="1906.61543" y2="1105.5"/></g><g stroke="#000000" stroke-width="2" stroke-linecap="round" stroke-dasharray="" font-family="sans-serif" font-weight="normal" font-size="12"><line x1="2357.14286" y1="1478.14286" x2="2357.14286" y2="1586.14286"/><line x1="2403.90823" y1="1505.14286" x2="2310.37749" y2="1559.14286"/><line x1="2403.90823" y1="1559.14286" x2="2310.37749" y2="1505.14286"/></g><polygon points="2475,1650 2475,825 3300,825 3300,1650" stroke="#000000" stroke-width="1" stroke-linecap="butt" stroke-dasharray="1,4" font-family="sans-serif" font-weight="normal" font-size="12"/><text x="2567.85714" y="966.85714" fill="#000000" stroke-width="1" stroke-linecap="butt" stroke-dasharray="" font-family="Times" font-weight="bold" font-size="100">7</text><text x="3058.83426" y="953.65714" fill="#000000" stroke-width="1" stroke-linecap="butt" stroke-dasharray="" font-family="Times" font-weight="bold" font-size="76">seven</text><path d="M2707.5,1195.5c0,-99.41125 80.58875,-180 180,-180c99.41125,0 180,80.58875 180,180c0,99.41125 -80.58875,180 -180,180c-99.41125,0 -180,-80.58875 -180,-180z" stroke="#000000" stroke-width="1" stroke-linecap="butt" stroke-dasharray="2,3" font-family="sans-serif" font-weight="normal" font-size="12"/><path d="M2869.5,1015.5c0,-9.94113 8.05887,-18 18,-18c9.94113,0 18,8.05887 18,18c0,9.94113 -8.05887,18 -18,18c-9.94113,0 -18,-8.05887 -18,-18z" fill="#000000" stroke-width="1" stroke-linecap="butt" stroke-dasharray="" font-family="sans-serif" font-weight="normal" font-size="12"/><path d="M3010.22967,1083.27184c0,-9.94113 8.05887,-18 18,-18c9.94113,0 18,8.05887 18,18c0,9.94113 -8.05887,18 -18,18c-9.94113,0 -18,-8.05887 -18,-18z" fill="#000000" stroke-width="1" stroke-linecap="butt" stroke-dasharray="" font-family="sans-serif" font-weight="normal" font-size="12"/><path d="M3044.98702,1235.55377c0,-9.94113 8.05887,-18 18,-18c9.94113,0 18,8.05887 18,18c0,9.94113 -8.05887,18 -18,18c-9.94113,0 -18,-8.05887 -18,-18z" fill="#000000" stroke-width="1" stroke-linecap="butt" stroke-dasharray="" font-family="sans-serif" font-weight="normal" font-size="12"/><path d="M2947.59907,1357.6744c0,-9.94113 8.05887,-18 18,-18c9.94113,0 18,8.05887 18,18c0,9.94113 -8.05887,18 -18,18c-9.94113,0 -18,-8.05887 -18,-18z" fill="#000000" stroke-width="1" stroke-linecap="butt" stroke-dasharray="" font-family="sans-serif" font-weight="normal" font-size="12"/><path d="M2791.40093,1357.6744c0,-9.94113 8.05887,-18 18,-18c9.94113,0 18,8.05887 18,18c0,9.94113 -8.05887,18 -18,18c-9.94113,0 -18,-8.05887 -18,-18z" fill="#000000" stroke-width="1" stroke-linecap="butt" stroke-dasharray="" font-family="sans-serif" font-weight="normal" font-size="12"/><path d="M2694.01298,1235.55377c0,-9.94113 8.05887,-18 18,-18c9.94113,0 18,8.05887 18,18c0,9.94113 -8.05887,18 -18,18c-9.94113,0 -18,-8.05887 -18,-18z" fill="#000000" stroke-width="1" stroke-linecap="butt" stroke-dasharray="" font-family="sans-serif" font-weight="normal" font-size="12"/><path d="M2728.77033,1083.27184c0,-9.94113 8.05887,-18 18,-18c9.94113,0 18,8.05887 18,18c0,9.94113 -8.05887,18 -18,18c-9.94113,0 -18,-8.05887 -18,-18z" fill="#000000" stroke-width="1" stroke-linecap="butt" stroke-dasharray="" font-family="sans-serif" font-weight="normal" font-size="12"/><g stroke="#000000" stroke-width="2" stroke-linecap="round" stroke-dasharray="" font-family="sans-serif" font-weight="normal" font-size="12"><line x1="2887.5" y1="1015.5" x2="3028.22967" y2="1083.27184"/><line x1="2887.5" y1="1015.5" x2="2746.77033" y2="1083.27184"/><line x1="3028.22967" y1="1083.27184" x2="3062.98702" y2="1235.55377"/><line x1="3062.98702" y1="1235.55377" x2="2965.59907" y2="1357.6744"/><line x1="2965.59907" y1="1357.6744" x2="2809.40093" y2="1357.6744"/><line x1="2809.40093" y1="1357.6744" x2="2712.01298" y2="1235.55377"/><line x1="2712.01298" y1="1235.55377" x2="2746.77033" y2="1083.27184"/></g><g stroke="#000000" stroke-width="2" stroke-linecap="round" stroke-dasharray="" font-family="sans-serif" font-weight="normal" font-size="12"><line x1="2592.85714" y1="1480.8167" x2="2635.07604" y2="1501.14825"/><line x1="2592.85714" y1="1480.8167" x2="2550.63824" y2="1501.14825"/><line x1="2635.07604" y1="1501.14825" x2="2645.50325" y2="1546.83283"/><line x1="2645.50325" y1="1546.83283" x2="2616.28686" y2="1583.46902"/><line x1="2616.28686" y1="1583.46902" x2="2569.42742" y2="1583.46902"/><line x1="2569.42742" y1="1583.46902" x2="2540.21104" y2="1546.83283"/><line x1="2540.21104" y1="1546.83283" x2="2550.63824" y2="1501.14825"/></g><g stroke="#000000" stroke-width="2" stroke-linecap="round" stroke-dasharray="" font-family="sans-serif" font-weight="normal" font-size="12"><line x1="2887.5" y1="1015.5" x2="3062.98702" y2="1235.55377"/><line x1="2887.5" y1="1015.5" x2="2712.01298" y2="1235.55377"/><line x1="3028.22967" y1="1083.27184" x2="2965.59907" y2="1357.6744"/><line x1="3028.22967" y1="1083.27184" x2="2746.77033" y2="1083.27184"/><line x1="3062.98702" y1="1235.55377" x2="2809.40093" y2="1357.6744"/><line x1="2965.59907" y1="1357.6744" x2="2712.01298" y2="1235.55377"/><line x1="2809.40093" y1="1357.6744" x2="2746.77033" y2="1083.27184"/></g><g stroke="#000000" stroke-width="2" stroke-linecap="round" stroke-dasharray="" font-family="sans-serif" font-weight="normal" font-size="12"><line x1="2887.5" y1="1480.8167" x2="2940.14611" y2="1546.83283"/><line x1="2887.5" y1="1480.8167" x2="2834.85389" y2="1546.83283"/><line x1="2929.7189" y1="1501.14825" x2="2910.92972" y2="1583.46902"/><line x1="2929.7189" y1="1501.14825" x2="2845.2811" y2="1501.14825"/><line x1="2940.14611" y1="1546.83283" x2="2864.07028" y2="1583.46902"/><line x1="2910.92972" y1="1583.46902" x2="2834.85389" y2="1546.83283"/><line x1="2864.07028" y1="1583.46902" x2="2845.2811" y2="1501.14825"/></g><g stroke="#000000" stroke-width="2" stroke-linecap="round" stroke-dasharray="" font-family="sans-serif" font-weight="normal" font-size="12"><line x1="2887.5" y1="1015.5" x2="2965.59907" y2="1357.6744"/><line x1="2887.5" y1="1015.5" x2="2809.40093" y2="1357.6744"/><line x1="3028.22967" y1="1083.27184" x2="2809.40093" y2="1357.6744"/><line x1="3028.22967" y1="1083.27184" x2="2712.01298" y2="1235.55377"/><line x1="3062.98702" y1="1235.55377" x2="2712.01298" y2="1235.55377"/><line x1="3062.98702" y1="1235.55377" x2="2746.77033" y2="1083.27184"/><line x1="2965.59907" y1="1357.6744" x2="2746.77033" y2="1083.27184"/></g><g stroke="#000000" stroke-width="2" stroke-linecap="round" stroke-dasharray="" font-family="sans-serif" font-weight="normal" font-size="12"><line x1="3182.14286" y1="1480.8167" x2="3205.57258" y2="1583.46902"/><line x1="3182.14286" y1="1480.8167" x2="3158.71314" y2="1583.46902"/><line x1="3224.36176" y1="1501.14825" x2="3158.71314" y2="1583.46902"/><line x1="3224.36176" y1="1501.14825" x2="3129.49675" y2="1546.83283"/><line x1="3234.78896" y1="1546.83283" x2="3129.49675" y2="1546.83283"/><line x1="3234.78896" y1="1546.83283" x2="3139.92396" y2="1501.14825"/><line x1="3205.57258" y1="1583.46902" x2="3139.92396" y2="1501.14825"/></g><polygon points="0,2475 0,1650 825,1650 825,2475" stroke="#000000" stroke-width="1" stroke-linecap="butt" stroke-dasharray="1,4" font-family="sans-serif" font-weight="normal" font-size="12"/><text x="92.85714" y="1791.85714" fill="#000000" stroke-width="1" stroke-linecap="butt" stroke-dasharray="" font-family="Times" font-weight="bold" font-size="100">8</text><text x="600.71903" y="1778.65714" fill="#000000" stroke-width="1" stroke-linecap="butt" stroke-dasharray="" font-family="Times" font-weight="bold" font-size="76">eight</text><path d="M232.5,2020.5c0,-99.41125 80.58875,-180 180,-180c99.41125,0 180,80.58875 180,180c0,99.41125 -80.58875,180 -180,180c-99.41125,0 -180,-80.58875 -180,-180z" stroke="#000000" stroke-width="1" stroke-linecap="butt" stroke-dasharray="2,3" font-family="sans-serif" font-weight="normal" font-size="12"/><path d="M394.5,1840.5c0,-9.94113 8.05887,-18 18,-18c9.94113,0 18,8.05887 18,18c0,9.94113 -8.05887,18 -18,18c-9.94113,0 -18,-8.05887 -18,-18z" fill="#000000" stroke-width="1" stroke-linecap="butt" stroke-dasharray="" font-family="sans-serif" font-weight="normal" font-size="12"/><path d="M521.77922,1893.22078c0,-9.94113 8.05887,-18 18,-18c9.94113,0 18,8.05887 18,18c0,9.94113 -8.05887,18 -18,18c-9.94113,0 -18,-8.05887 -18,-18z" fill="#000000" stroke-width="1" stroke-linecap="butt" stroke-dasharray="" font-family="sans-serif" font-weight="normal" font-size="12"/><path d="M574.5,2020.5c0,-9.94113 8.05887,-18 18,-18c9.94113,0 18,8.05887 18,18c0,9.94113 -8.05887,18 -18,18c-9.94113,0 -18,-8.05887 -18,-18z" fill="#000000" stroke-width="1" stroke-linecap="butt" stroke-dasharray="" font-family="sans-serif" font-weight="normal" font-size="12"/><path d="M521.77922,2147.77922c0,-9.94113 8.05887,-18 18,-18c9.94113,0 18,8.05887 18,18c0,9.94113 -8.05887,18 -18,18c-9.94113,0 -18,-8.05887 -18,-18z" fill="#000000" stroke-width="1" stroke-linecap="butt" stroke-dasharray="" font-family="sans-serif" font-weight="normal" font-size="12"/><path d="M394.5,2200.5c0,-9.94113 8.05887,-18 18,-18c9.94113,0 18,8.05887 18,18c0,9.94113 -8.05887,18 -18,18c-9.94113,0 -18,-8.05887 -18,-18z" fill="#000000" stroke-width="1" stroke-linecap="butt" stroke-dasharray="" font-family="sans-serif" font-weight="normal" font-size="12"/><path d="M267.22078,2147.77922c0,-9.94113 8.05887,-18 18,-18c9.94113,0 18,8.05887 18,18c0,9.94113 -8.05887,18 -18,18c-9.94113,0 -18,-8.05887 -18,-18z" fill="#000000" stroke-width="1" stroke-linecap="butt" stroke-dasharray="" font-family="sans-serif" font-weight="normal" font-size="12"/><path d="M214.5,2020.5c0,-9.94113 8.05887,-18 18,-18c9.94113,0 18,8.05887 18,18c0,9.94113 -8.05887,18 -18,18c-9.94113,0 -18,-8.05887 -18,-18z" fill="#000000" stroke-width="1" stroke-linecap="butt" stroke-dasharray="" font-family="sans-serif" font-weight="normal" font-size="12"/><path d="M267.22078,1893.22078c0,-9.94113 8.05887,-18 18,-18c9.94113,0 18,8.05887 18,18c0,9.94113 -8.05887,18 -18,18c-9.94113,0 -18,-8.05887 -18,-18z" fill="#000000" stroke-width="1" stroke-linecap="butt" stroke-dasharray="" font-family="sans-serif" font-weight="normal" font-size="12"/><g stroke="#000000" stroke-width="2" stroke-linecap="round" stroke-dasharray="" font-family="sans-serif" font-weight="normal" font-size="12"><line x1="412.5" y1="1840.5" x2="539.77922" y2="1893.22078"/><line x1="412.5" y1="1840.5" x2="285.22078" y2="1893.22078"/><line x1="539.77922" y1="1893.22078" x2="592.5" y2="2020.5"/><line x1="592.5" y1="2020.5" x2="539.77922" y2="2147.77922"/><line x1="539.77922" y1="2147.77922" x2="412.5" y2="2200.5"/><line x1="412.5" y1="2200.5" x2="285.22078" y2="2147.77922"/><line x1="285.22078" y1="2147.77922" x2="232.5" y2="2020.5"/><line x1="232.5" y1="2020.5" x2="285.22078" y2="1893.22078"/></g><g stroke="#000000" stroke-width="2" stroke-linecap="round" stroke-dasharray="" font-family="sans-serif" font-weight="normal" font-size="12"><line x1="117.85714" y1="2303.14286" x2="156.04091" y2="2318.95909"/><line x1="117.85714" y1="2303.14286" x2="79.67338" y2="2318.95909"/><line x1="156.04091" y1="2318.95909" x2="171.85714" y2="2357.14286"/><line x1="171.85714" y1="2357.14286" x2="156.04091" y2="2395.32662"/><line x1="156.04091" y1="2395.32662" x2="117.85714" y2="2411.14286"/><line x1="117.85714" y1="2411.14286" x2="79.67338" y2="2395.32662"/><line x1="79.67338" y1="2395.32662" x2="63.85714" y2="2357.14286"/><line x1="63.85714" y1="2357.14286" x2="79.67338" y2="2318.95909"/></g><g stroke="#000000" stroke-width="2" stroke-linecap="round" stroke-dasharray="" font-family="sans-serif" font-weight="normal" font-size="12"><line x1="412.5" y1="1840.5" x2="592.5" y2="2020.5"/><line x1="412.5" y1="1840.5" x2="232.5" y2="2020.5"/><line x1="539.77922" y1="1893.22078" x2="539.77922" y2="2147.77922"/><line x1="539.77922" y1="1893.22078" x2="285.22078" y2="1893.22078"/><line x1="592.5" y1="2020.5" x2="412.5" y2="2200.5"/><line x1="539.77922" y1="2147.77922" x2="285.22078" y2="2147.77922"/><line x1="412.5" y1="2200.5" x2="232.5" y2="2020.5"/><line x1="285.22078" y1="2147.77922" x2="285.22078" y2="1893.22078"/></g><g stroke="#000000" stroke-width="2" stroke-linecap="round" stroke-dasharray="" font-family="sans-serif" font-weight="normal" font-size="12"><line x1="314.28571" y1="2303.14286" x2="368.28571" y2="2357.14286"/><line x1="314.28571" y1="2303.14286" x2="260.28571" y2="2357.14286"/><line x1="352.46948" y1="2318.95909" x2="352.46948" y2="2395.32662"/><line x1="352.46948" y1="2318.95909" x2="276.10195" y2="2318.95909"/><line x1="368.28571" y1="2357.14286" x2="314.28571" y2="2411.14286"/><line x1="352.46948" y1="2395.32662" x2="276.10195" y2="2395.32662"/><line x1="314.28571" y1="2411.14286" x2="260.28571" y2="2357.14286"/><line x1="276.10195" y1="2395.32662" x2="276.10195" y2="2318.95909"/></g><g stroke="#000000" stroke-width="2" stroke-linecap="round" stroke-dasharray="" font-family="sans-serif" font-weight="normal" font-size="12"><line x1="412.5" y1="1840.5" x2="539.77922" y2="2147.77922"/><line x1="412.5" y1="1840.5" x2="285.22078" y2="2147.77922"/><line x1="539.77922" y1="1893.22078" x2="412.5" y2="2200.5"/><line x1="539.77922" y1="1893.22078" x2="232.5" y2="2020.5"/><line x1="592.5" y1="2020.5" x2="285.22078" y2="2147.77922"/><line x1="592.5" y1="2020.5" x2="285.22078" y2="1893.22078"/><line x1="539.77922" y1="2147.77922" x2="232.5" y2="2020.5"/><line x1="412.5" y1="2200.5" x2="285.22078" y2="1893.22078"/></g><g stroke="#000000" stroke-width="2" stroke-linecap="round" stroke-dasharray="" font-family="sans-serif" font-weight="normal" font-size="12"><line x1="510.71429" y1="2303.14286" x2="548.89805" y2="2395.32662"/><line x1="510.71429" y1="2303.14286" x2="472.53052" y2="2395.32662"/><line x1="548.89805" y1="2318.95909" x2="510.71429" y2="2411.14286"/><line x1="548.89805" y1="2318.95909" x2="456.71429" y2="2357.14286"/><line x1="564.71429" y1="2357.14286" x2="472.53052" y2="2395.32662"/><line x1="564.71429" y1="2357.14286" x2="472.53052" y2="2318.95909"/><line x1="548.89805" y1="2395.32662" x2="456.71429" y2="2357.14286"/><line x1="510.71429" y1="2411.14286" x2="472.53052" y2="2318.95909"/></g><g stroke="#000000" stroke-width="2" stroke-linecap="round" stroke-dasharray="" font-family="sans-serif" font-weight="normal" font-size="12"><line x1="412.5" y1="1840.5" x2="412.5" y2="2200.5"/><line x1="539.77922" y1="1893.22078" x2="285.22078" y2="2147.77922"/><line x1="592.5" y1="2020.5" x2="232.5" y2="2020.5"/><line x1="539.77922" y1="2147.77922" x2="285.22078" y2="1893.22078"/></g><g stroke="#000000" stroke-width="2" stroke-linecap="round" stroke-dasharray="" font-family="sans-serif" font-weight="normal" font-size="12"><line x1="707.14286" y1="2303.14286" x2="707.14286" y2="2411.14286"/><line x1="745.32662" y1="2318.95909" x2="668.95909" y2="2395.32662"/><line x1="761.14286" y1="2357.14286" x2="653.14286" y2="2357.14286"/><line x1="745.32662" y1="2395.32662" x2="668.95909" y2="2318.95909"/></g><polygon points="825,2475 825,1650 1650,1650 1650,2475" stroke="#000000" stroke-width="1" stroke-linecap="butt" stroke-dasharray="1,4" font-family="sans-serif" font-weight="normal" font-size="12"/><text x="917.85714" y="1791.85714" fill="#000000" stroke-width="1" stroke-linecap="butt" stroke-dasharray="" font-family="Times" font-weight="bold" font-size="100">9</text><text x="1446.76004" y="1778.65714" fill="#000000" stroke-width="1" stroke-linecap="butt" stroke-dasharray="" font-family="Times" font-weight="bold" font-size="76">nine</text><path d="M1057.5,2020.5c0,-99.41125 80.58875,-180 180,-180c99.41125,0 180,80.58875 180,180c0,99.41125 -80.58875,180 -180,180c-99.41125,0 -180,-80.58875 -180,-180z" stroke="#000000" stroke-width="1" stroke-linecap="butt" stroke-dasharray="2,3" font-family="sans-serif" font-weight="normal" font-size="12"/><path d="M1219.5,1840.5c0,-9.94113 8.05887,-18 18,-18c9.94113,0 18,8.05887 18,18c0,9.94113 -8.05887,18 -18,18c-9.94113,0 -18,-8.05887 -18,-18z" fill="#000000" stroke-width="1" stroke-linecap="butt" stroke-dasharray="" font-family="sans-serif" font-weight="normal" font-size="12"/><path d="M1335.20177,1882.612c0,-9.94113 8.05887,-18 18,-18c9.94113,0 18,8.05887 18,18c0,9.94113 -8.05887,18 -18,18c-9.94113,0 -18,-8.05887 -18,-18z" fill="#000000" stroke-width="1" stroke-linecap="butt" stroke-dasharray="" font-family="sans-serif" font-weight="normal" font-size="12"/><path d="M1396.7654,1989.24333c0,-9.94113 8.05887,-18 18,-18c9.94113,0 18,8.05887 18,18c0,9.94113 -8.05887,18 -18,18c-9.94113,0 -18,-8.05887 -18,-18z" fill="#000000" stroke-width="1" stroke-linecap="butt" stroke-dasharray="" font-family="sans-serif" font-weight="normal" font-size="12"/><path d="M1375.38457,2110.5c0,-9.94113 8.05887,-18 18,-18c9.94113,0 18,8.05887 18,18c0,9.94113 -8.05887,18 -18,18c-9.94113,0 -18,-8.05887 -18,-18z" fill="#000000" stroke-width="1" stroke-linecap="butt" stroke-dasharray="" font-family="sans-serif" font-weight="normal" font-size="12"/><path d="M1281.06363,2189.64467c0,-9.94113 8.05887,-18 18,-18c9.94113,0 18,8.05887 18,18c0,9.94113 -8.05887,18 -18,18c-9.94113,0 -18,-8.05887 -18,-18z" fill="#000000" stroke-width="1" stroke-linecap="butt" stroke-dasharray="" font-family="sans-serif" font-weight="normal" font-size="12"/><path d="M1157.93637,2189.64467c0,-9.94113 8.05887,-18 18,-18c9.94113,0 18,8.05887 18,18c0,9.94113 -8.05887,18 -18,18c-9.94113,0 -18,-8.05887 -18,-18z" fill="#000000" stroke-width="1" stroke-linecap="butt" stroke-dasharray="" font-family="sans-serif" font-weight="normal" font-size="12"/><path d="M1063.61543,2110.5c0,-9.94113 8.05887,-18 18,-18c9.94113,0 18,8.05887 18,18c0,9.94113 -8.05887,18 -18,18c-9.94113,0 -18,-8.05887 -18,-18z" fill="#000000" stroke-width="1" stroke-linecap="butt" stroke-dasharray="" font-family="sans-serif" font-weight="normal" font-size="12"/><path d="M1042.2346,1989.24333c0,-9.94113 8.05887,-18 18,-18c9.94113,0 18,8.05887 18,18c0,9.94113 -8.05887,18 -18,18c-9.94113,0 -18,-8.05887 -18,-18z" fill="#000000" stroke-width="1" stroke-linecap="butt" stroke-dasharray="" font-family="sans-serif" font-weight="normal" font-size="12"/><path d="M1103.79823,1882.612c0,-9.94113 8.05887,-18 18,-18c9.94113,0 18,8.05887 18,18c0,9.94113 -8.05887,18 -18,18c-9.94113,0 -18,-8.05887 -18,-18z" fill="#000000" stroke-width="1" stroke-linecap="butt" stroke-dasharray="" font-family="sans-serif" font-weight="normal" font-size="12"/><g stroke="#000000" stroke-width="2" stroke-linecap="round" stroke-dasharray="" font-family="sans-serif" font-weight="normal" font-size="12"><line x1="1237.5" y1="1840.5" x2="1353.20177" y2="1882.612"/><line x1="1237.5" y1="1840.5" x2="1121.79823" y2="1882.612"/><line x1="1353.20177" y1="1882.612" x2="1414.7654" y2="1989.24333"/><line x1="1414.7654" y1="1989.24333" x2="1393.38457" y2="2110.5"/><line x1="1393.38457" y1="2110.5" x2="1299.06363" y2="2189.64467"/><line x1="1299.06363" y1="2189.64467" x2="1175.93637" y2="2189.64467"/><line x1="1175.93637" y1="2189.64467" x2="1081.61543" y2="2110.5"/><line x1="1081.61543" y1="2110.5" x2="1060.2346" y2="1989.24333"/><line x1="1060.2346" y1="1989.24333" x2="1121.79823" y2="1882.612"/></g><g stroke="#000000" stroke-width="2" stroke-linecap="round" stroke-dasharray="" font-family="sans-serif" font-weight="normal" font-size="12"><line x1="942.85714" y1="2304.77116" x2="977.56767" y2="2317.40476"/><line x1="942.85714" y1="2304.77116" x2="908.14661" y2="2317.40476"/><line x1="977.56767" y1="2317.40476" x2="996.03676" y2="2349.39415"/><line x1="996.03676" y1="2349.39415" x2="989.62251" y2="2385.77116"/><line x1="989.62251" y1="2385.77116" x2="961.32623" y2="2409.51456"/><line x1="961.32623" y1="2409.51456" x2="924.38806" y2="2409.51456"/><line x1="924.38806" y1="2409.51456" x2="896.09177" y2="2385.77116"/><line x1="896.09177" y1="2385.77116" x2="889.67752" y2="2349.39415"/><line x1="889.67752" y1="2349.39415" x2="908.14661" y2="2317.40476"/></g><g stroke="#000000" stroke-width="2" stroke-linecap="round" stroke-dasharray="" font-family="sans-serif" font-weight="normal" font-size="12"><line x1="1237.5" y1="1840.5" x2="1414.7654" y2="1989.24333"/><line x1="1237.5" y1="1840.5" x2="1060.2346" y2="1989.24333"/><line x1="1353.20177" y1="1882.612" x2="1393.38457" y2="2110.5"/><line x1="1353.20177" y1="1882.612" x2="1121.79823" y2="1882.612"/><line x1="1414.7654" y1="1989.24333" x2="1299.06363" y2="2189.64467"/><line x1="1393.38457" y1="2110.5" x2="1175.93637" y2="2189.64467"/><line x1="1299.06363" y1="2189.64467" x2="1081.61543" y2="2110.5"/><line x1="1175.93637" y1="2189.64467" x2="1060.2346" y2="1989.24333"/><line x1="1081.61543" y1="2110.5" x2="1121.79823" y2="1882.612"/></g><g stroke="#000000" stroke-width="2" stroke-linecap="round" stroke-dasharray="" font-family="sans-serif" font-weight="normal" font-size="12"><line x1="1139.28571" y1="2304.77116" x2="1192.46533" y2="2349.39415"/><line x1="1139.28571" y1="2304.77116" x2="1086.1061" y2="2349.39415"/><line x1="1173.99625" y1="2317.40476" x2="1186.05109" y2="2385.77116"/><line x1="1173.99625" y1="2317.40476" x2="1104.57518" y2="2317.40476"/><line x1="1192.46533" y1="2349.39415" x2="1157.7548" y2="2409.51456"/><line x1="1186.05109" y1="2385.77116" x2="1120.81663" y2="2409.51456"/><line x1="1157.7548" y1="2409.51456" x2="1092.52034" y2="2385.77116"/><line x1="1120.81663" y1="2409.51456" x2="1086.1061" y2="2349.39415"/><line x1="1092.52034" y1="2385.77116" x2="1104.57518" y2="2317.40476"/></g><g stroke="#000000" stroke-width="2" stroke-linecap="round" stroke-dasharray="" font-family="sans-serif" font-weight="normal" font-size="12"><line x1="1237.5" y1="1840.5" x2="1393.38457" y2="2110.5"/><line x1="1237.5" y1="1840.5" x2="1081.61543" y2="2110.5"/><line x1="1353.20177" y1="1882.612" x2="1299.06363" y2="2189.64467"/><line x1="1353.20177" y1="1882.612" x2="1060.2346" y2="1989.24333"/><line x1="1414.7654" y1="1989.24333" x2="1175.93637" y2="2189.64467"/><line x1="1414.7654" y1="1989.24333" x2="1121.79823" y2="1882.612"/><line x1="1393.38457" y1="2110.5" x2="1081.61543" y2="2110.5"/><line x1="1299.06363" y1="2189.64467" x2="1060.2346" y2="1989.24333"/><line x1="1175.93637" y1="2189.64467" x2="1121.79823" y2="1882.612"/></g><g stroke="#000000" stroke-width="2" stroke-linecap="round" stroke-dasharray="" font-family="sans-serif" font-weight="normal" font-size="12"><line x1="1335.71429" y1="2304.77116" x2="1382.47966" y2="2385.77116"/><line x1="1335.71429" y1="2304.77116" x2="1288.94891" y2="2385.77116"/><line x1="1370.42482" y1="2317.40476" x2="1354.18337" y2="2409.51456"/><line x1="1370.42482" y1="2317.40476" x2="1282.53467" y2="2349.39415"/><line x1="1388.8939" y1="2349.39415" x2="1317.2452" y2="2409.51456"/><line x1="1388.8939" y1="2349.39415" x2="1301.00375" y2="2317.40476"/><line x1="1382.47966" y1="2385.77116" x2="1288.94891" y2="2385.77116"/><line x1="1354.18337" y1="2409.51456" x2="1282.53467" y2="2349.39415"/><line x1="1317.2452" y1="2409.51456" x2="1301.00375" y2="2317.40476"/></g><g stroke="#000000" stroke-width="2" stroke-linecap="round" stroke-dasharray="" font-family="sans-serif" font-weight="normal" font-size="12"><line x1="1237.5" y1="1840.5" x2="1299.06363" y2="2189.64467"/><line x1="1237.5" y1="1840.5" x2="1175.93637" y2="2189.64467"/><line x1="1353.20177" y1="1882.612" x2="1175.93637" y2="2189.64467"/><line x1="1353.20177" y1="1882.612" x2="1081.61543" y2="2110.5"/><line x1="1414.7654" y1="1989.24333" x2="1081.61543" y2="2110.5"/><line x1="1414.7654" y1="1989.24333" x2="1060.2346" y2="1989.24333"/><line x1="1393.38457" y1="2110.5" x2="1060.2346" y2="1989.24333"/><line x1="1393.38457" y1="2110.5" x2="1121.79823" y2="1882.612"/><line x1="1299.06363" y1="2189.64467" x2="1121.79823" y2="1882.612"/></g><g stroke="#000000" stroke-width="2" stroke-linecap="round" stroke-dasharray="" font-family="sans-serif" font-weight="normal" font-size="12"><line x1="1532.14286" y1="2304.77116" x2="1550.61194" y2="2409.51456"/><line x1="1532.14286" y1="2304.77116" x2="1513.67377" y2="2409.51456"/><line x1="1566.85339" y1="2317.40476" x2="1513.67377" y2="2409.51456"/><line x1="1566.85339" y1="2317.40476" x2="1485.37749" y2="2385.77116"/><line x1="1585.32248" y1="2349.39415" x2="1485.37749" y2="2385.77116"/><line x1="1585.32248" y1="2349.39415" x2="1478.96324" y2="2349.39415"/><line x1="1578.90823" y1="2385.77116" x2="1478.96324" y2="2349.39415"/><line x1="1578.90823" y1="2385.77116" x2="1497.43233" y2="2317.40476"/><line x1="1550.61194" y1="2409.51456" x2="1497.43233" y2="2317.40476"/></g><polygon points="1650,2475 1650,1650 2475,1650 2475,2475" stroke="#000000" stroke-width="1" stroke-linecap="butt" stroke-dasharray="1,4" font-family="sans-serif" font-weight="normal" font-size="12"/><text x="1717.85714" y="1791.85714" fill="#000000" stroke-width="1" stroke-linecap="butt" stroke-dasharray="" font-family="Times" font-weight="bold" font-size="100">10</text><text x="2309.83426" y="1778.65714" fill="#000000" stroke-width="1" stroke-linecap="butt" stroke-dasharray="" font-family="Times" font-weight="bold" font-size="76">ten</text><path d="M1882.5,2020.5c0,-99.41125 80.58875,-180 180,-180c99.41125,0 180,80.58875 180,180c0,99.41125 -80.58875,180 -180,180c-99.41125,0 -180,-80.58875 -180,-180z" stroke="#000000" stroke-width="1" stroke-linecap="butt" stroke-dasharray="2,3" font-family="sans-serif" font-weight="normal" font-size="12"/><path d="M2044.5,1840.5c0,-9.94113 8.05887,-18 18,-18c9.94113,0 18,8.05887 18,18c0,9.94113 -8.05887,18 -18,18c-9.94113,0 -18,-8.05887 -18,-18z" fill="#000000" stroke-width="1" stroke-linecap="butt" stroke-dasharray="" font-family="sans-serif" font-weight="normal" font-size="12"/><path d="M2150.30135,1874.87694c0,-9.94113 8.05887,-18 18,-18c9.94113,0 18,8.05887 18,18c0,9.94113 -8.05887,18 -18,18c-9.94113,0 -18,-8.05887 -18,-18z" fill="#000000" stroke-width="1" stroke-linecap="butt" stroke-dasharray="" font-family="sans-serif" font-weight="normal" font-size="12"/><path d="M2215.69017,1964.87694c0,-9.94113 8.05887,-18 18,-18c9.94113,0 18,8.05887 18,18c0,9.94113 -8.05887,18 -18,18c-9.94113,0 -18,-8.05887 -18,-18z" fill="#000000" stroke-width="1" stroke-linecap="butt" stroke-dasharray="" font-family="sans-serif" font-weight="normal" font-size="12"/><path d="M2215.69017,2076.12306c0,-9.94113 8.05887,-18 18,-18c9.94113,0 18,8.05887 18,18c0,9.94113 -8.05887,18 -18,18c-9.94113,0 -18,-8.05887 -18,-18z" fill="#000000" stroke-width="1" stroke-linecap="butt" stroke-dasharray="" font-family="sans-serif" font-weight="normal" font-size="12"/><path d="M2150.30135,2166.12306c0,-9.94113 8.05887,-18 18,-18c9.94113,0 18,8.05887 18,18c0,9.94113 -8.05887,18 -18,18c-9.94113,0 -18,-8.05887 -18,-18z" fill="#000000" stroke-width="1" stroke-linecap="butt" stroke-dasharray="" font-family="sans-serif" font-weight="normal" font-size="12"/><path d="M2044.5,2200.5c0,-9.94113 8.05887,-18 18,-18c9.94113,0 18,8.05887 18,18c0,9.94113 -8.05887,18 -18,18c-9.94113,0 -18,-8.05887 -18,-18z" fill="#000000" stroke-width="1" stroke-linecap="butt" stroke-dasharray="" font-family="sans-serif" font-weight="normal" font-size="12"/><path d="M1938.69865,2166.12306c0,-9.94113 8.05887,-18 18,-18c9.94113,0 18,8.05887 18,18c0,9.94113 -8.05887,18 -18,18c-9.94113,0 -18,-8.05887 -18,-18z" fill="#000000" stroke-width="1" stroke-linecap="butt" stroke-dasharray="" font-family="sans-serif" font-weight="normal" font-size="12"/><path d="M1873.30983,2076.12306c0,-9.94113 8.05887,-18 18,-18c9.94113,0 18,8.05887 18,18c0,9.94113 -8.05887,18 -18,18c-9.94113,0 -18,-8.05887 -18,-18z" fill="#000000" stroke-width="1" stroke-linecap="butt" stroke-dasharray="" font-family="sans-serif" font-weight="normal" font-size="12"/><path d="M1873.30983,1964.87694c0,-9.94113 8.05887,-18 18,-18c9.94113,0 18,8.05887 18,18c0,9.94113 -8.05887,18 -18,18c-9.94113,0 -18,-8.05887 -18,-18z" fill="#000000" stroke-width="1" stroke-linecap="butt" stroke-dasharray="" font-family="sans-serif" font-weight="normal" font-size="12"/><path d="M1938.69865,1874.87694c0,-9.94113 8.05887,-18 18,-18c9.94113,0 18,8.05887 18,18c0,9.94113 -8.05887,18 -18,18c-9.94113,0 -18,-8.05887 -18,-18z" fill="#000000" stroke-width="1" stroke-linecap="butt" stroke-dasharray="" font-family="sans-serif" font-weight="normal" font-size="12"/><g stroke="#000000" stroke-width="2" stroke-linecap="round" stroke-dasharray="" font-family="sans-serif" font-weight="normal" font-size="12"><line x1="2062.5" y1="1840.5" x2="2168.30135" y2="1874.87694"/><line x1="2062.5" y1="1840.5" x2="1956.69865" y2="1874.87694"/><line x1="2168.30135" y1="1874.87694" x2="2233.69017" y2="1964.87694"/><line x1="2233.69017" y1="1964.87694" x2="2233.69017" y2="2076.12306"/><line x1="2233.69017" y1="2076.12306" x2="2168.30135" y2="2166.12306"/><line x1="2168.30135" y1="2166.12306" x2="2062.5" y2="2200.5"/><line x1="2062.5" y1="2200.5" x2="1956.69865" y2="2166.12306"/><line x1="1956.69865" y1="2166.12306" x2="1891.30983" y2="2076.12306"/><line x1="1891.30983" y1="2076.12306" x2="1891.30983" y2="1964.87694"/><line x1="1891.30983" y1="1964.87694" x2="1956.69865" y2="1874.87694"/></g><g stroke="#000000" stroke-width="2" stroke-linecap="round" stroke-dasharray="" font-family="sans-serif" font-weight="normal" font-size="12"><line x1="1767.85714" y1="2303.14286" x2="1799.59755" y2="2313.45594"/><line x1="1767.85714" y1="2303.14286" x2="1736.11674" y2="2313.45594"/><line x1="1799.59755" y1="2313.45594" x2="1819.21419" y2="2340.45594"/><line x1="1819.21419" y1="2340.45594" x2="1819.21419" y2="2373.82977"/><line x1="1819.21419" y1="2373.82977" x2="1799.59755" y2="2400.82977"/><line x1="1799.59755" y1="2400.82977" x2="1767.85714" y2="2411.14286"/><line x1="1767.85714" y1="2411.14286" x2="1736.11674" y2="2400.82977"/><line x1="1736.11674" y1="2400.82977" x2="1716.50009" y2="2373.82977"/><line x1="1716.50009" y1="2373.82977" x2="1716.50009" y2="2340.45594"/><line x1="1716.50009" y1="2340.45594" x2="1736.11674" y2="2313.45594"/></g><g stroke="#000000" stroke-width="2" stroke-linecap="round" stroke-dasharray="" font-family="sans-serif" font-weight="normal" font-size="12"><line x1="2062.5" y1="1840.5" x2="2233.69017" y2="1964.87694"/><line x1="2062.5" y1="1840.5" x2="1891.30983" y2="1964.87694"/><line x1="2168.30135" y1="1874.87694" x2="2233.69017" y2="2076.12306"/><line x1="2168.30135" y1="1874.87694" x2="1956.69865" y2="1874.87694"/><line x1="2233.69017" y1="1964.87694" x2="2168.30135" y2="2166.12306"/><line x1="2233.69017" y1="2076.12306" x2="2062.5" y2="2200.5"/><line x1="2168.30135" y1="2166.12306" x2="1956.69865" y2="2166.12306"/><line x1="2062.5" y1="2200.5" x2="1891.30983" y2="2076.12306"/><line x1="1956.69865" y1="2166.12306" x2="1891.30983" y2="1964.87694"/><line x1="1891.30983" y1="2076.12306" x2="1956.69865" y2="1874.87694"/></g><g stroke="#000000" stroke-width="2" stroke-linecap="round" stroke-dasharray="" font-family="sans-serif" font-weight="normal" font-size="12"><line x1="1915.17857" y1="2303.14286" x2="1966.53562" y2="2340.45594"/><line x1="1915.17857" y1="2303.14286" x2="1863.82152" y2="2340.45594"/><line x1="1946.91898" y1="2313.45594" x2="1966.53562" y2="2373.82977"/><line x1="1946.91898" y1="2313.45594" x2="1883.43817" y2="2313.45594"/><line x1="1966.53562" y1="2340.45594" x2="1946.91898" y2="2400.82977"/><line x1="1966.53562" y1="2373.82977" x2="1915.17857" y2="2411.14286"/><line x1="1946.91898" y1="2400.82977" x2="1883.43817" y2="2400.82977"/><line x1="1915.17857" y1="2411.14286" x2="1863.82152" y2="2373.82977"/><line x1="1883.43817" y1="2400.82977" x2="1863.82152" y2="2340.45594"/><line x1="1863.82152" y1="2373.82977" x2="1883.43817" y2="2313.45594"/></g><g stroke="#000000" stroke-width="2" stroke-linecap="round" stroke-dasharray="" font-family="sans-serif" font-weight="normal" font-size="12"><line x1="2062.5" y1="1840.5" x2="2233.69017" y2="2076.12306"/><line x1="2062.5" y1="1840.5" x2="1891.30983" y2="2076.12306"/><line x1="2168.30135" y1="1874.87694" x2="2168.30135" y2="2166.12306"/><line x1="2168.30135" y1="1874.87694" x2="1891.30983" y2="1964.87694"/><line x1="2233.69017" y1="1964.87694" x2="2062.5" y2="2200.5"/><line x1="2233.69017" y1="1964.87694" x2="1956.69865" y2="1874.87694"/><line x1="2233.69017" y1="2076.12306" x2="1956.69865" y2="2166.12306"/><line x1="2168.30135" y1="2166.12306" x2="1891.30983" y2="2076.12306"/><line x1="2062.5" y1="2200.5" x2="1891.30983" y2="1964.87694"/><line x1="1956.69865" y1="2166.12306" x2="1956.69865" y2="1874.87694"/></g><g stroke="#000000" stroke-width="2" stroke-linecap="round" stroke-dasharray="" font-family="sans-serif" font-weight="normal" font-size="12"><line x1="2062.5" y1="2303.14286" x2="2113.85705" y2="2373.82977"/><line x1="2062.5" y1="2303.14286" x2="2011.14295" y2="2373.82977"/><line x1="2094.2404" y1="2313.45594" x2="2094.2404" y2="2400.82977"/><line x1="2094.2404" y1="2313.45594" x2="2011.14295" y2="2340.45594"/><line x1="2113.85705" y1="2340.45594" x2="2062.5" y2="2411.14286"/><line x1="2113.85705" y1="2340.45594" x2="2030.7596" y2="2313.45594"/><line x1="2113.85705" y1="2373.82977" x2="2030.7596" y2="2400.82977"/><line x1="2094.2404" y1="2400.82977" x2="2011.14295" y2="2373.82977"/><line x1="2062.5" y1="2411.14286" x2="2011.14295" y2="2340.45594"/><line x1="2030.7596" y1="2400.82977" x2="2030.7596" y2="2313.45594"/></g><g stroke="#000000" stroke-width="2" stroke-linecap="round" stroke-dasharray="" font-family="sans-serif" font-weight="normal" font-size="12"><line x1="2062.5" y1="1840.5" x2="2168.30135" y2="2166.12306"/><line x1="2062.5" y1="1840.5" x2="1956.69865" y2="2166.12306"/><line x1="2168.30135" y1="1874.87694" x2="2062.5" y2="2200.5"/><line x1="2168.30135" y1="1874.87694" x2="1891.30983" y2="2076.12306"/><line x1="2233.69017" y1="1964.87694" x2="1956.69865" y2="2166.12306"/><line x1="2233.69017" y1="1964.87694" x2="1891.30983" y2="1964.87694"/><line x1="2233.69017" y1="2076.12306" x2="1891.30983" y2="2076.12306"/><line x1="2233.69017" y1="2076.12306" x2="1956.69865" y2="1874.87694"/><line x1="2168.30135" y1="2166.12306" x2="1891.30983" y2="1964.87694"/><line x1="2062.5" y1="2200.5" x2="1956.69865" y2="1874.87694"/></g><g stroke="#000000" stroke-width="2" stroke-linecap="round" stroke-dasharray="" font-family="sans-serif" font-weight="normal" font-size="12"><line x1="2209.82143" y1="2303.14286" x2="2241.56183" y2="2400.82977"/><line x1="2209.82143" y1="2303.14286" x2="2178.08102" y2="2400.82977"/><line x1="2241.56183" y1="2313.45594" x2="2209.82143" y2="2411.14286"/><line x1="2241.56183" y1="2313.45594" x2="2158.46438" y2="2373.82977"/><line x1="2261.17848" y1="2340.45594" x2="2178.08102" y2="2400.82977"/><line x1="2261.17848" y1="2340.45594" x2="2158.46438" y2="2340.45594"/><line x1="2261.17848" y1="2373.82977" x2="2158.46438" y2="2373.82977"/><line x1="2261.17848" y1="2373.82977" x2="2178.08102" y2="2313.45594"/><line x1="2241.56183" y1="2400.82977" x2="2158.46438" y2="2340.45594"/><line x1="2209.82143" y1="2411.14286" x2="2178.08102" y2="2313.45594"/></g><g stroke="#000000" stroke-width="2" stroke-linecap="round" stroke-dasharray="" font-family="sans-serif" font-weight="normal" font-size="12"><line x1="2062.5" y1="1840.5" x2="2062.5" y2="2200.5"/><line x1="2168.30135" y1="1874.87694" x2="1956.69865" y2="2166.12306"/><line x1="2233.69017" y1="1964.87694" x2="1891.30983" y2="2076.12306"/><line x1="2233.69017" y1="2076.12306" x2="1891.30983" y2="1964.87694"/><line x1="2168.30135" y1="2166.12306" x2="1956.69865" y2="1874.87694"/></g><g stroke="#000000" stroke-width="2" stroke-linecap="round" stroke-dasharray="" font-family="sans-serif" font-weight="normal" font-size="12"><line x1="2357.14286" y1="2303.14286" x2="2357.14286" y2="2411.14286"/><line x1="2388.88326" y1="2313.45594" x2="2325.40245" y2="2400.82977"/><line x1="2408.49991" y1="2340.45594" x2="2305.78581" y2="2373.82977"/><line x1="2408.49991" y1="2373.82977" x2="2305.78581" y2="2340.45594"/><line x1="2388.88326" y1="2400.82977" x2="2325.40245" y2="2313.45594"/></g><polygon points="2475,2475 2475,1650 3300,1650 3300,2475" stroke="#000000" stroke-width="1" stroke-linecap="butt" stroke-dasharray="1,4" font-family="sans-serif" font-weight="normal" font-size="12"/></g></svg>