<svg x="0" y="0" width="3300" height="2550" version="1.1" xmlns="http://www.w3.org/2000/svg" xmlns:xlink="http://www.w3.org/1999/xlink"><g fill="none" stroke="none" stroke-width="none" stroke-linecap="none" stroke-linejoin="miter" stroke-miterlimit="10" stroke-dasharray="" stroke-dashoffset="0" font-family="sans-serif" font-weight="normal" font-size="12" text-anchor="start" mix-blend-mode="normal"><path d="M388.5,425c0,-13.25483 10.74517,-24 24,-24c13.25483,0 24,10.74517 24,24c0,13.25483 -10.74517,24 -24,24c-13.25483,0 -24,-10.74517 -24,-24z" fill="#000000" stroke-width="1" stroke-linecap="butt"/><path d="M1213.5,365c0,-13.25483 10.74517,-24 24,-24c13.25483,0 24,10.74517 24,24c0,13.25483 -10.74517,24 -24,24c-13.25483,0 -24,-10.74517 -24,-24z" fill="#000000" stroke-width="1" stroke-linecap="butt"/><path d="M1213.5,485c0,-13.25483 10.74517,-24 24,-24c13.25483,0 24,10.74517 24,24c0,13.25483 -10.74517,24 -24,24c-13.25483,0 -24,-10.74517 -24,-24z" fill="#000000" stroke-width="1" stroke-linecap="butt"/><line x1="1237.5" y1="365" x2="1237.5" y2="485" stroke="#000000" stroke-width="2" stroke-linecap="round"/><path d="M2038.5,355.71797c0,-13.25483 10.74517,-24 24,-24c13.25483,0 24,10.74517 24,24c0,13.25483 -10.74517,24 -24,24c-13.25483,0 -24,-10.74517 -24,-24z" fill="#000000" stroke-width="1" stroke-linecap="butt"/><path d="M2098.5,459.64102c0,-13.25483 10.74517,-24 24,-24c13.25483,0 24,10.74517 24,24c0,13.25483 -10.74517,24 -24,24c-13.25483,0 -24,-10.74517 -24,-24z" fill="#000000" stroke-width="1" stroke-linecap="butt"/><path d="M1978.5,459.64102c0,-13.25483 10.74517,-24 24,-24c13.25483,0 24,10.74517 24,24c0,13.25483 -10.74517,24 -24,24c-13.25483,0 -24,-10.74517 -24,-24z" fill="#000000" stroke-width="1" stroke-linecap="butt"/><line x1="2062.5" y1="355.71797" x2="2122.5" y2="459.64102" stroke="#000000" stroke-width="2" stroke-linecap="round"/><line x1="2062.5" y1="355.71797" x2="2002.5" y2="459.64102" stroke="#000000" stroke-width="2" stroke-linecap="round"/><line x1="2122.5" y1="459.64102" x2="2002.5" y2="459.64102" stroke="#000000" stroke-width="2" stroke-linecap="round"/><path d="M2863.5,340.14719c0,-13.25483 10.74517,-24 24,-24c13.25483,0 24,10.74517 24,24c0,13.25483 -10.74517,24 -24,24c-13.25483,0 -24,-10.74517 -24,-24z" fill="#000000" stroke-width="1" stroke-linecap="butt"/><path d="M2948.35281,425c0,-13.25483 10.74517,-24 24,-24c13.25483,0 24,10.74517 24,24c0,13.25483 -10.74517,24 -24,24c-13.25483,0 -24,-10.74517 -24,-24z" fill="#000000" stroke-width="1" stroke-linecap="butt"/><path d="M2863.5,509.85281c0,-13.25483 10.74517,-24 24,-24c13.25483,0 24,10.74517 24,24c0,13.25483 -10.74517,24 -24,24c-13.25483,0 -24,-10.74517 -24,-24z" fill="#000000" stroke-width="1" stroke-linecap="butt"/><path d="M2778.64719,425c0,-13.25483 10.74517,-24 24,-24c13.25483,0 24,10.74517 24,24c0,13.25483 -10.74517,24 -24,24c-13.25483,0 -24,-10.74517 -24,-24z" fill="#000000" stroke-width="1" stroke-linecap="butt"/><line x1="2887.5" y1="340.14719" x2="2972.35281" y2="425" stroke="#000000" stroke-width="2" stroke-linecap="round"/><line x1="2887.5" y1="340.14719" x2="2887.5" y2="509.85281" stroke="#000000" stroke-width="2" stroke-linecap="round"/><line x1="2887.5" y1="340.14719" x2="2802.64719" y2="425" stroke="#000000" stroke-width="2" stroke-linecap="round"/><line x1="2972.35281" y1="425" x2="2887.5" y2="509.85281" stroke="#000000" stroke-width="2" stroke-linecap="round"/><line x1="2972.35281" y1="425" x2="2802.64719" y2="425" stroke="#000000" stroke-width="2" stroke-linecap="round"/><line x1="2887.5" y1="509.85281" x2="2802.64719" y2="425" stroke="#000000" stroke-width="2" stroke-linecap="round"/><path d="M388.5,1172.9219c0,-13.25483 10.74517,-24 24,-24c13.25483,0 24,10.74517 24,24c0,13.25483 -10.74517,24 -24,24c-13.25483,0 -24,-10.74517 -24,-24z" fill="#000000" stroke-width="1" stroke-linecap="butt"/><path d="M485.58204,1243.45613c0,-13.25483 10.74517,-24 24,-24c13.25483,0 24,10.74517 24,24c0,13.25483 -10.74517,24 -24,24c-13.25483,0 -24,-10.74517 -24,-24z" fill="#000000" stroke-width="1" stroke-linecap="butt"/><path d="M448.5,1357.58292c0,-13.25483 10.74517,-24 24,-24c13.25483,0 24,10.74517 24,24c0,13.25483 -10.74517,24 -24,24c-13.25483,0 -24,-10.74517 -24,-24z" fill="#000000" stroke-width="1" stroke-linecap="butt"/><path d="M328.5,1357.58292c0,-13.25483 10.74517,-24 24,-24c13.25483,0 24,10.74517 24,24c0,13.25483 -10.74517,24 -24,24c-13.25483,0 -24,-10.74517 -24,-24z" fill="#000000" stroke-width="1" stroke-linecap="butt"/><path d="M291.41796,1243.45613c0,-13.25483 10.74517,-24 24,-24c13.25483,0 24,10.74517 24,24c0,13.25483 -10.74517,24 -24,24c-13.25483,0 -24,-10.74517 -24,-24z" fill="#000000" stroke-width="1" stroke-linecap="butt"/><line x1="412.5" y1="1172.9219" x2="509.58204" y2="1243.45613" stroke="#000000" stroke-width="2" stroke-linecap="round"/><line x1="412.5" y1="1172.9219" x2="472.5" y2="1357.58292" stroke="#000000" stroke-width="2" stroke-linecap="round"/><line x1="412.5" y1="1172.9219" x2="352.5" y2="1357.58292" stroke="#000000" stroke-width="2" stroke-linecap="round"/><line x1="412.5" y1="1172.9219" x2="315.41796" y2="1243.45613" stroke="#000000" stroke-width="2" stroke-linecap="round"/><line x1="509.58204" y1="1243.45613" x2="472.5" y2="1357.58292" stroke="#000000" stroke-width="2" stroke-linecap="round"/><line x1="509.58204" y1="1243.45613" x2="352.5" y2="1357.58292" stroke="#000000" stroke-width="2" stroke-linecap="round"/><line x1="509.58204" y1="1243.45613" x2="315.41796" y2="1243.45613" stroke="#000000" stroke-width="2" stroke-linecap="round"/><line x1="472.5" y1="1357.58292" x2="352.5" y2="1357.58292" stroke="#000000" stroke-width="2" stroke-linecap="round"/><line x1="472.5" y1="1357.58292" x2="315.41796" y2="1243.45613" stroke="#000000" stroke-width="2" stroke-linecap="round"/><line x1="352.5" y1="1357.58292" x2="315.41796" y2="1243.45613" stroke="#000000" stroke-width="2" stroke-linecap="round"/><path d="M1213.5,1155c0,-13.25483 10.74517,-24 24,-24c13.25483,0 24,10.74517 24,24c0,13.25483 -10.74517,24 -24,24c-13.25483,0 -24,-10.74517 -24,-24z" fill="#000000" stroke-width="1" stroke-linecap="butt"/><path d="M1317.42305,1215c0,-13.25483 10.74517,-24 24,-24c13.25483,0 24,10.74517 24,24c0,13.25483 -10.74517,24 -24,24c-13.25483,0 -24,-10.74517 -24,-24z" fill="#000000" stroke-width="1" stroke-linecap="butt"/><path d="M1317.42305,1335c0,-13.25483 10.74517,-24 24,-24c13.25483,0 24,10.74517 24,24c0,13.25483 -10.74517,24 -24,24c-13.25483,0 -24,-10.74517 -24,-24z" fill="#000000" stroke-width="1" stroke-linecap="butt"/><path d="M1213.5,1395c0,-13.25483 10.74517,-24 24,-24c13.25483,0 24,10.74517 24,24c0,13.25483 -10.74517,24 -24,24c-13.25483,0 -24,-10.74517 -24,-24z" fill="#000000" stroke-width="1" stroke-linecap="butt"/><path d="M1109.57695,1335c0,-13.25483 10.74517,-24 24,-24c13.25483,0 24,10.74517 24,24c0,13.25483 -10.74517,24 -24,24c-13.25483,0 -24,-10.74517 -24,-24z" fill="#000000" stroke-width="1" stroke-linecap="butt"/><path d="M1109.57695,1215c0,-13.25483 10.74517,-24 24,-24c13.25483,0 24,10.74517 24,24c0,13.25483 -10.74517,24 -24,24c-13.25483,0 -24,-10.74517 -24,-24z" fill="#000000" stroke-width="1" stroke-linecap="butt"/><line x1="1237.5" y1="1155" x2="1341.42305" y2="1215" stroke="#000000" stroke-width="2" stroke-linecap="round"/><line x1="1237.5" y1="1155" x2="1341.42305" y2="1335" stroke="#000000" stroke-width="2" stroke-linecap="round"/><line x1="1237.5" y1="1155" x2="1237.5" y2="1395" stroke="#000000" stroke-width="2" stroke-linecap="round"/><line x1="1237.5" y1="1155" x2="1133.57695" y2="1335" stroke="#000000" stroke-width="2" stroke-linecap="round"/><line x1="1237.5" y1="1155" x2="1133.57695" y2="1215" stroke="#000000" stroke-width="2" stroke-linecap="round"/><line x1="1341.42305" y1="1215" x2="1341.42305" y2="1335" stroke="#000000" stroke-width="2" stroke-linecap="round"/><line x1="1341.42305" y1="1215" x2="1237.5" y2="1395" stroke="#000000" stroke-width="2" stroke-linecap="round"/><line x1="1341.42305" y1="1215" x2="1133.57695" y2="1335" stroke="#000000" stroke-width="2" stroke-linecap="round"/><line x1="1341.42305" y1="1215" x2="1133.57695" y2="1215" stroke="#000000" stroke-width="2" stroke-linecap="round"/><line x1="1341.42305" y1="1335" x2="1237.5" y2="1395" stroke="#000000" stroke-width="2" stroke-linecap="round"/><line x1="1341.42305" y1="1335" x2="1133.57695" y2="1335" stroke="#000000" stroke-width="2" stroke-linecap="round"/><line x1="1341.42305" y1="1335" x2="1133.57695" y2="1215" stroke="#000000" stroke-width="2" stroke-linecap="round"/><line x1="1237.5" y1="1395" x2="1133.57695" y2="1335" stroke="#000000" stroke-width="2" stroke-linecap="round"/><line x1="1237.5" y1="1395" x2="1133.57695" y2="1215" stroke="#000000" stroke-width="2" stroke-linecap="round"/><line x1="1133.57695" y1="1335" x2="1133.57695" y2="1215" stroke="#000000" stroke-width="2" stroke-linecap="round"/><path d="M2038.5,1136.71411c0,-13.25483 10.74517,-24 24,-24c13.25483,0 24,10.74517 24,24c0,13.25483 -10.74517,24 -24,24c-13.25483,0 -24,-10.74517 -24,-24z" fill="#000000" stroke-width="1" stroke-linecap="butt"/><path d="M2146.61626,1188.78016c0,-13.25483 10.74517,-24 24,-24c13.25483,0 24,10.74517 24,24c0,13.25483 -10.74517,24 -24,24c-13.25483,0 -24,-10.74517 -24,-24z" fill="#000000" stroke-width="1" stroke-linecap="butt"/><path d="M2173.31878,1305.77151c0,-13.25483 10.74517,-24 24,-24c13.25483,0 24,10.74517 24,24c0,13.25483 -10.74517,24 -24,24c-13.25483,0 -24,-10.74517 -24,-24z" fill="#000000" stroke-width="1" stroke-linecap="butt"/><path d="M2098.5,1399.59128c0,-13.25483 10.74517,-24 24,-24c13.25483,0 24,10.74517 24,24c0,13.25483 -10.74517,24 -24,24c-13.25483,0 -24,-10.74517 -24,-24z" fill="#000000" stroke-width="1" stroke-linecap="butt"/><path d="M1978.5,1399.59128c0,-13.25483 10.74517,-24 24,-24c13.25483,0 24,10.74517 24,24c0,13.25483 -10.74517,24 -24,24c-13.25483,0 -24,-10.74517 -24,-24z" fill="#000000" stroke-width="1" stroke-linecap="butt"/><path d="M1903.68122,1305.77151c0,-13.25483 10.74517,-24 24,-24c13.25483,0 24,10.74517 24,24c0,13.25483 -10.74517,24 -24,24c-13.25483,0 -24,-10.74517 -24,-24z" fill="#000000" stroke-width="1" stroke-linecap="butt"/><path d="M1930.38374,1188.78016c0,-13.25483 10.74517,-24 24,-24c13.25483,0 24,10.74517 24,24c0,13.25483 -10.74517,24 -24,24c-13.25483,0 -24,-10.74517 -24,-24z" fill="#000000" stroke-width="1" stroke-linecap="butt"/><line x1="2062.5" y1="1136.71411" x2="2170.61626" y2="1188.78016" stroke="#000000" stroke-width="2" stroke-linecap="round"/><line x1="2062.5" y1="1136.71411" x2="2197.31878" y2="1305.77151" stroke="#000000" stroke-width="2" stroke-linecap="round"/><line x1="2062.5" y1="1136.71411" x2="2122.5" y2="1399.59128" stroke="#000000" stroke-width="2" stroke-linecap="round"/><line x1="2062.5" y1="1136.71411" x2="2002.5" y2="1399.59128" stroke="#000000" stroke-width="2" stroke-linecap="round"/><line x1="2062.5" y1="1136.71411" x2="1927.68122" y2="1305.77151" stroke="#000000" stroke-width="2" stroke-linecap="round"/><line x1="2062.5" y1="1136.71411" x2="1954.38374" y2="1188.78016" stroke="#000000" stroke-width="2" stroke-linecap="round"/><line x1="2170.61626" y1="1188.78016" x2="2197.31878" y2="1305.77151" stroke="#000000" stroke-width="2" stroke-linecap="round"/><line x1="2170.61626" y1="1188.78016" x2="2122.5" y2="1399.59128" stroke="#000000" stroke-width="2" stroke-linecap="round"/><line x1="2170.61626" y1="1188.78016" x2="2002.5" y2="1399.59128" stroke="#000000" stroke-width="2" stroke-linecap="round"/><line x1="2170.61626" y1="1188.78016" x2="1927.68122" y2="1305.77151" stroke="#000000" stroke-width="2" stroke-linecap="round"/><line x1="2170.61626" y1="1188.78016" x2="1954.38374" y2="1188.78016" stroke="#000000" stroke-width="2" stroke-linecap="round"/><line x1="2197.31878" y1="1305.77151" x2="2122.5" y2="1399.59128" stroke="#000000" stroke-width="2" stroke-linecap="round"/><line x1="2197.31878" y1="1305.77151" x2="2002.5" y2="1399.59128" stroke="#000000" stroke-width="2" stroke-linecap="round"/><line x1="2197.31878" y1="1305.77151" x2="1927.68122" y2="1305.77151" stroke="#000000" stroke-width="2" stroke-linecap="round"/><line x1="2197.31878" y1="1305.77151" x2="1954.38374" y2="1188.78016" stroke="#000000" stroke-width="2" stroke-linecap="round"/><line x1="2122.5" y1="1399.59128" x2="2002.5" y2="1399.59128" stroke="#000000" stroke-width="2" stroke-linecap="round"/><line x1="2122.5" y1="1399.59128" x2="1927.68122" y2="1305.77151" stroke="#000000" stroke-width="2" stroke-linecap="round"/><line x1="2122.5" y1="1399.59128" x2="1954.38374" y2="1188.78016" stroke="#000000" stroke-width="2" stroke-linecap="round"/><line x1="2002.5" y1="1399.59128" x2="1927.68122" y2="1305.77151" stroke="#000000" stroke-width="2" stroke-linecap="round"/><line x1="2002.5" y1="1399.59128" x2="1954.38374" y2="1188.78016" stroke="#000000" stroke-width="2" stroke-linecap="round"/><line x1="1927.68122" y1="1305.77151" x2="1954.38374" y2="1188.78016" stroke="#000000" stroke-width="2" stroke-linecap="round"/><path d="M2863.5,1118.21244c0,-13.25483 10.74517,-24 24,-24c13.25483,0 24,10.74517 24,24c0,13.25483 -10.74517,24 -24,24c-13.25483,0 -24,-10.74517 -24,-24z" fill="#000000" stroke-width="1" stroke-linecap="butt"/><path d="M2974.36554,1164.13446c0,-13.25483 10.74517,-24 24,-24c13.25483,0 24,10.74517 24,24c0,13.25483 -10.74517,24 -24,24c-13.25483,0 -24,-10.74517 -24,-24z" fill="#000000" stroke-width="1" stroke-linecap="butt"/><path d="M3020.28756,1275c0,-13.25483 10.74517,-24 24,-24c13.25483,0 24,10.74517 24,24c0,13.25483 -10.74517,24 -24,24c-13.25483,0 -24,-10.74517 -24,-24z" fill="#000000" stroke-width="1" stroke-linecap="butt"/><path d="M2974.36554,1385.86554c0,-13.25483 10.74517,-24 24,-24c13.25483,0 24,10.74517 24,24c0,13.25483 -10.74517,24 -24,24c-13.25483,0 -24,-10.74517 -24,-24z" fill="#000000" stroke-width="1" stroke-linecap="butt"/><path d="M2863.5,1431.78756c0,-13.25483 10.74517,-24 24,-24c13.25483,0 24,10.74517 24,24c0,13.25483 -10.74517,24 -24,24c-13.25483,0 -24,-10.74517 -24,-24z" fill="#000000" stroke-width="1" stroke-linecap="butt"/><path d="M2752.63446,1385.86554c0,-13.25483 10.74517,-24 24,-24c13.25483,0 24,10.74517 24,24c0,13.25483 -10.74517,24 -24,24c-13.25483,0 -24,-10.74517 -24,-24z" fill="#000000" stroke-width="1" stroke-linecap="butt"/><path d="M2706.71244,1275c0,-13.25483 10.74517,-24 24,-24c13.25483,0 24,10.74517 24,24c0,13.25483 -10.74517,24 -24,24c-13.25483,0 -24,-10.74517 -24,-24z" fill="#000000" stroke-width="1" stroke-linecap="butt"/><path d="M2752.63446,1164.13446c0,-13.25483 10.74517,-24 24,-24c13.25483,0 24,10.74517 24,24c0,13.25483 -10.74517,24 -24,24c-13.25483,0 -24,-10.74517 -24,-24z" fill="#000000" stroke-width="1" stroke-linecap="butt"/><line x1="2887.5" y1="1118.21244" x2="2998.36554" y2="1164.13446" stroke="#000000" stroke-width="2" stroke-linecap="round"/><line x1="2887.5" y1="1118.21244" x2="3044.28756" y2="1275" stroke="#000000" stroke-width="2" stroke-linecap="round"/><line x1="2887.5" y1="1118.21244" x2="2998.36554" y2="1385.86554" stroke="#000000" stroke-width="2" stroke-linecap="round"/><line x1="2887.5" y1="1118.21244" x2="2887.5" y2="1431.78756" stroke="#000000" stroke-width="2" stroke-linecap="round"/><line x1="2887.5" y1="1118.21244" x2="2776.63446" y2="1385.86554" stroke="#000000" stroke-width="2" stroke-linecap="round"/><line x1="2887.5" y1="1118.21244" x2="2730.71244" y2="1275" stroke="#000000" stroke-width="2" stroke-linecap="round"/><line x1="2887.5" y1="1118.21244" x2="2776.63446" y2="1164.13446" stroke="#000000" stroke-width="2" stroke-linecap="round"/><line x1="2998.36554" y1="1164.13446" x2="3044.28756" y2="1275" stroke="#000000" stroke-width="2" stroke-linecap="round"/><line x1="2998.36554" y1="1164.13446" x2="2998.36554" y2="1385.86554" stroke="#000000" stroke-width="2" stroke-linecap="round"/><line x1="2998.36554" y1="1164.13446" x2="2887.5" y2="1431.78756" stroke="#000000" stroke-width="2" stroke-linecap="round"/><line x1="2998.36554" y1="1164.13446" x2="2776.63446" y2="1385.86554" stroke="#000000" stroke-width="2" stroke-linecap="round"/><line x1="2998.36554" y1="1164.13446" x2="2730.71244" y2="1275" stroke="#000000" stroke-width="2" stroke-linecap="round"/><line x1="2998.36554" y1="1164.13446" x2="2776.63446" y2="1164.13446" stroke="#000000" stroke-width="2" stroke-linecap="round"/><line x1="3044.28756" y1="1275" x2="2998.36554" y2="1385.86554" stroke="#000000" stroke-width="2" stroke-linecap="round"/><line x1="3044.28756" y1="1275" x2="2887.5" y2="1431.78756" stroke="#000000" stroke-width="2" stroke-linecap="round"/><line x1="3044.28756" y1="1275" x2="2776.63446" y2="1385.86554" stroke="#000000" stroke-width="2" stroke-linecap="round"/><line x1="3044.28756" y1="1275" x2="2730.71244" y2="1275" stroke="#000000" stroke-width="2" stroke-linecap="round"/><line x1="3044.28756" y1="1275" x2="2776.63446" y2="1164.13446" stroke="#000000" stroke-width="2" stroke-linecap="round"/><line x1="2998.36554" y1="1385.86554" x2="2887.5" y2="1431.78756" stroke="#000000" stroke-width="2" stroke-linecap="round"/><line x1="2998.36554" y1="1385.86554" x2="2776.63446" y2="1385.86554" stroke="#000000" stroke-width="2" stroke-linecap="round"/><line x1="2998.36554" y1="1385.86554" x2="2730.71244" y2="1275" stroke="#000000" stroke-width="2" stroke-linecap="round"/><line x1="2998.36554" y1="1385.86554" x2="2776.63446" y2="1164.13446" stroke="#000000" stroke-width="2" stroke-linecap="round"/><line x1="2887.5" y1="1431.78756" x2="2776.63446" y2="1385.86554" stroke="#000000" stroke-width="2" stroke-linecap="round"/><line x1="2887.5" y1="1431.78756" x2="2730.71244" y2="1275" stroke="#000000" stroke-width="2" stroke-linecap="round"/><line x1="2887.5" y1="1431.78756" x2="2776.63446" y2="1164.13446" stroke="#000000" stroke-width="2" stroke-linecap="round"/><line x1="2776.63446" y1="1385.86554" x2="2730.71244" y2="1275" stroke="#000000" stroke-width="2" stroke-linecap="round"/><line x1="2776.63446" y1="1385.86554" x2="2776.63446" y2="1164.13446" stroke="#000000" stroke-width="2" stroke-linecap="round"/><line x1="2730.71244" y1="1275" x2="2776.63446" y2="1164.13446" stroke="#000000" stroke-width="2" stroke-linecap="round"/><path d="M388.5,1949.57174c0,-13.25483 10.74517,-24 24,-24c13.25483,0 24,10.74517 24,24c0,13.25483 -10.74517,24 -24,24c-13.25483,0 -24,-10.74517 -24,-24z" fill="#000000" stroke-width="1" stroke-linecap="butt"/><path d="M501.26311,1990.61415c0,-13.25483 10.74517,-24 24,-24c13.25483,0 24,10.74517 24,24c0,13.25483 -10.74517,24 -24,24c-13.25483,0 -24,-10.74517 -24,-24z" fill="#000000" stroke-width="1" stroke-linecap="butt"/><path d="M561.26311,2094.5372c0,-13.25483 10.74517,-24 24,-24c13.25483,0 24,10.74517 24,24c0,13.25483 -10.74517,24 -24,24c-13.25483,0 -24,-10.74517 -24,-24z" fill="#000000" stroke-width="1" stroke-linecap="butt"/><path d="M540.42533,2212.71413c0,-13.25483 10.74517,-24 24,-24c13.25483,0 24,10.74517 24,24c0,13.25483 -10.74517,24 -24,24c-13.25483,0 -24,-10.74517 -24,-24z" fill="#000000" stroke-width="1" stroke-linecap="butt"/><path d="M448.5,2289.84865c0,-13.25483 10.74517,-24 24,-24c13.25483,0 24,10.74517 24,24c0,13.25483 -10.74517,24 -24,24c-13.25483,0 -24,-10.74517 -24,-24z" fill="#000000" stroke-width="1" stroke-linecap="butt"/><path d="M328.5,2289.84865c0,-13.25483 10.74517,-24 24,-24c13.25483,0 24,10.74517 24,24c0,13.25483 -10.74517,24 -24,24c-13.25483,0 -24,-10.74517 -24,-24z" fill="#000000" stroke-width="1" stroke-linecap="butt"/><path d="M236.57467,2212.71413c0,-13.25483 10.74517,-24 24,-24c13.25483,0 24,10.74517 24,24c0,13.25483 -10.74517,24 -24,24c-13.25483,0 -24,-10.74517 -24,-24z" fill="#000000" stroke-width="1" stroke-linecap="butt"/><path d="M215.73689,2094.5372c0,-13.25483 10.74517,-24 24,-24c13.25483,0 24,10.74517 24,24c0,13.25483 -10.74517,24 -24,24c-13.25483,0 -24,-10.74517 -24,-24z" fill="#000000" stroke-width="1" stroke-linecap="butt"/><path d="M275.73689,1990.61415c0,-13.25483 10.74517,-24 24,-24c13.25483,0 24,10.74517 24,24c0,13.25483 -10.74517,24 -24,24c-13.25483,0 -24,-10.74517 -24,-24z" fill="#000000" stroke-width="1" stroke-linecap="butt"/><line x1="412.5" y1="1949.57174" x2="525.26311" y2="1990.61415" stroke="#000000" stroke-width="2" stroke-linecap="round"/><line x1="412.5" y1="1949.57174" x2="585.26311" y2="2094.5372" stroke="#000000" stroke-width="2" stroke-linecap="round"/><line x1="412.5" y1="1949.57174" x2="564.42533" y2="2212.71413" stroke="#000000" stroke-width="2" stroke-linecap="round"/><line x1="412.5" y1="1949.57174" x2="472.5" y2="2289.84865" stroke="#000000" stroke-width="2" stroke-linecap="round"/><line x1="412.5" y1="1949.57174" x2="352.5" y2="2289.84865" stroke="#000000" stroke-width="2" stroke-linecap="round"/><line x1="412.5" y1="1949.57174" x2="260.57467" y2="2212.71413" stroke="#000000" stroke-width="2" stroke-linecap="round"/><line x1="412.5" y1="1949.57174" x2="239.73689" y2="2094.5372" stroke="#000000" stroke-width="2" stroke-linecap="round"/><line x1="412.5" y1="1949.57174" x2="299.73689" y2="1990.61415" stroke="#000000" stroke-width="2" stroke-linecap="round"/><line x1="525.26311" y1="1990.61415" x2="585.26311" y2="2094.5372" stroke="#000000" stroke-width="2" stroke-linecap="round"/><line x1="525.26311" y1="1990.61415" x2="564.42533" y2="2212.71413" stroke="#000000" stroke-width="2" stroke-linecap="round"/><line x1="525.26311" y1="1990.61415" x2="472.5" y2="2289.84865" stroke="#000000" stroke-width="2" stroke-linecap="round"/><line x1="525.26311" y1="1990.61415" x2="352.5" y2="2289.84865" stroke="#000000" stroke-width="2" stroke-linecap="round"/><line x1="525.26311" y1="1990.61415" x2="260.57467" y2="2212.71413" stroke="#000000" stroke-width="2" stroke-linecap="round"/><line x1="525.26311" y1="1990.61415" x2="239.73689" y2="2094.5372" stroke="#000000" stroke-width="2" stroke-linecap="round"/><line x1="525.26311" y1="1990.61415" x2="299.73689" y2="1990.61415" stroke="#000000" stroke-width="2" stroke-linecap="round"/><line x1="585.26311" y1="2094.5372" x2="564.42533" y2="2212.71413" stroke="#000000" stroke-width="2" stroke-linecap="round"/><line x1="585.26311" y1="2094.5372" x2="472.5" y2="2289.84865" stroke="#000000" stroke-width="2" stroke-linecap="round"/><line x1="585.26311" y1="2094.5372" x2="352.5" y2="2289.84865" stroke="#000000" stroke-width="2" stroke-linecap="round"/><line x1="585.26311" y1="2094.5372" x2="260.57467" y2="2212.71413" stroke="#000000" stroke-width="2" stroke-linecap="round"/><line x1="585.26311" y1="2094.5372" x2="239.73689" y2="2094.5372" stroke="#000000" stroke-width="2" stroke-linecap="round"/><line x1="585.26311" y1="2094.5372" x2="299.73689" y2="1990.61415" stroke="#000000" stroke-width="2" stroke-linecap="round"/><line x1="564.42533" y1="2212.71413" x2="472.5" y2="2289.84865" stroke="#000000" stroke-width="2" stroke-linecap="round"/><line x1="564.42533" y1="2212.71413" x2="352.5" y2="2289.84865" stroke="#000000" stroke-width="2" stroke-linecap="round"/><line x1="564.42533" y1="2212.71413" x2="260.57467" y2="2212.71413" stroke="#000000" stroke-width="2" stroke-linecap="round"/><line x1="564.42533" y1="2212.71413" x2="239.73689" y2="2094.5372" stroke="#000000" stroke-width="2" stroke-linecap="round"/><line x1="564.42533" y1="2212.71413" x2="299.73689" y2="1990.61415" stroke="#000000" stroke-width="2" stroke-linecap="round"/><line x1="472.5" y1="2289.84865" x2="352.5" y2="2289.84865" stroke="#000000" stroke-width="2" stroke-linecap="round"/><line x1="472.5" y1="2289.84865" x2="260.57467" y2="2212.71413" stroke="#000000" stroke-width="2" stroke-linecap="round"/><line x1="472.5" y1="2289.84865" x2="239.73689" y2="2094.5372" stroke="#000000" stroke-width="2" stroke-linecap="round"/><line x1="472.5" y1="2289.84865" x2="299.73689" y2="1990.61415" stroke="#000000" stroke-width="2" stroke-linecap="round"/><line x1="352.5" y1="2289.84865" x2="260.57467" y2="2212.71413" stroke="#000000" stroke-width="2" stroke-linecap="round"/><line x1="352.5" y1="2289.84865" x2="239.73689" y2="2094.5372" stroke="#000000" stroke-width="2" stroke-linecap="round"/><line x1="352.5" y1="2289.84865" x2="299.73689" y2="1990.61415" stroke="#000000" stroke-width="2" stroke-linecap="round"/><line x1="260.57467" y1="2212.71413" x2="239.73689" y2="2094.5372" stroke="#000000" stroke-width="2" stroke-linecap="round"/><line x1="260.57467" y1="2212.71413" x2="299.73689" y2="1990.61415" stroke="#000000" stroke-width="2" stroke-linecap="round"/><line x1="239.73689" y1="2094.5372" x2="299.73689" y2="1990.61415" stroke="#000000" stroke-width="2" stroke-linecap="round"/><path d="M1213.5,1930.83592c0,-13.25483 10.74517,-24 24,-24c13.25483,0 24,10.74517 24,24c0,13.25483 -10.74517,24 -24,24c-13.25483,0 -24,-10.74517 -24,-24z" fill="#000000" stroke-width="1" stroke-linecap="butt"/><path d="M1327.62678,1967.91796c0,-13.25483 10.74517,-24 24,-24c13.25483,0 24,10.74517 24,24c0,13.25483 -10.74517,24 -24,24c-13.25483,0 -24,-10.74517 -24,-24z" fill="#000000" stroke-width="1" stroke-linecap="butt"/><path d="M1398.16101,2065c0,-13.25483 10.74517,-24 24,-24c13.25483,0 24,10.74517 24,24c0,13.25483 -10.74517,24 -24,24c-13.25483,0 -24,-10.74517 -24,-24z" fill="#000000" stroke-width="1" stroke-linecap="butt"/><path d="M1398.16101,2185c0,-13.25483 10.74517,-24 24,-24c13.25483,0 24,10.74517 24,24c0,13.25483 -10.74517,24 -24,24c-13.25483,0 -24,-10.74517 -24,-24z" fill="#000000" stroke-width="1" stroke-linecap="butt"/><path d="M1327.62678,2282.08204c0,-13.25483 10.74517,-24 24,-24c13.25483,0 24,10.74517 24,24c0,13.25483 -10.74517,24 -24,24c-13.25483,0 -24,-10.74517 -24,-24z" fill="#000000" stroke-width="1" stroke-linecap="butt"/><path d="M1213.5,2319.16408c0,-13.25483 10.74517,-24 24,-24c13.25483,0 24,10.74517 24,24c0,13.25483 -10.74517,24 -24,24c-13.25483,0 -24,-10.74517 -24,-24z" fill="#000000" stroke-width="1" stroke-linecap="butt"/><path d="M1099.37322,2282.08204c0,-13.25483 10.74517,-24 24,-24c13.25483,0 24,10.74517 24,24c0,13.25483 -10.74517,24 -24,24c-13.25483,0 -24,-10.74517 -24,-24z" fill="#000000" stroke-width="1" stroke-linecap="butt"/><path d="M1028.83899,2185c0,-13.25483 10.74517,-24 24,-24c13.25483,0 24,10.74517 24,24c0,13.25483 -10.74517,24 -24,24c-13.25483,0 -24,-10.74517 -24,-24z" fill="#000000" stroke-width="1" stroke-linecap="butt"/><path d="M1028.83899,2065c0,-13.25483 10.74517,-24 24,-24c13.25483,0 24,10.74517 24,24c0,13.25483 -10.74517,24 -24,24c-13.25483,0 -24,-10.74517 -24,-24z" fill="#000000" stroke-width="1" stroke-linecap="butt"/><path d="M1099.37322,1967.91796c0,-13.25483 10.74517,-24 24,-24c13.25483,0 24,10.74517 24,24c0,13.25483 -10.74517,24 -24,24c-13.25483,0 -24,-10.74517 -24,-24z" fill="#000000" stroke-width="1" stroke-linecap="butt"/><line x1="1237.5" y1="1930.83592" x2="1351.62678" y2="1967.91796" stroke="#000000" stroke-width="2" stroke-linecap="round"/><line x1="1237.5" y1="1930.83592" x2="1422.16101" y2="2065" stroke="#000000" stroke-width="2" stroke-linecap="round"/><line x1="1237.5" y1="1930.83592" x2="1422.16101" y2="2185" stroke="#000000" stroke-width="2" stroke-linecap="round"/><line x1="1237.5" y1="1930.83592" x2="1351.62678" y2="2282.08204" stroke="#000000" stroke-width="2" stroke-linecap="round"/><line x1="1237.5" y1="1930.83592" x2="1237.5" y2="2319.16408" stroke="#000000" stroke-width="2" stroke-linecap="round"/><line x1="1237.5" y1="1930.83592" x2="1123.37322" y2="2282.08204" stroke="#000000" stroke-width="2" stroke-linecap="round"/><line x1="1237.5" y1="1930.83592" x2="1052.83899" y2="2185" stroke="#000000" stroke-width="2" stroke-linecap="round"/><line x1="1237.5" y1="1930.83592" x2="1052.83899" y2="2065" stroke="#000000" stroke-width="2" stroke-linecap="round"/><line x1="1237.5" y1="1930.83592" x2="1123.37322" y2="1967.91796" stroke="#000000" stroke-width="2" stroke-linecap="round"/><line x1="1351.62678" y1="1967.91796" x2="1422.16101" y2="2065" stroke="#000000" stroke-width="2" stroke-linecap="round"/><line x1="1351.62678" y1="1967.91796" x2="1422.16101" y2="2185" stroke="#000000" stroke-width="2" stroke-linecap="round"/><line x1="1351.62678" y1="1967.91796" x2="1351.62678" y2="2282.08204" stroke="#000000" stroke-width="2" stroke-linecap="round"/><line x1="1351.62678" y1="1967.91796" x2="1237.5" y2="2319.16408" stroke="#000000" stroke-width="2" stroke-linecap="round"/><line x1="1351.62678" y1="1967.91796" x2="1123.37322" y2="2282.08204" stroke="#000000" stroke-width="2" stroke-linecap="round"/><line x1="1351.62678" y1="1967.91796" x2="1052.83899" y2="2185" stroke="#000000" stroke-width="2" stroke-linecap="round"/><line x1="1351.62678" y1="1967.91796" x2="1052.83899" y2="2065" stroke="#000000" stroke-width="2" stroke-linecap="round"/><line x1="1351.62678" y1="1967.91796" x2="1123.37322" y2="1967.91796" stroke="#000000" stroke-width="2" stroke-linecap="round"/><line x1="1422.16101" y1="2065" x2="1422.16101" y2="2185" stroke="#000000" stroke-width="2" stroke-linecap="round"/><line x1="1422.16101" y1="2065" x2="1351.62678" y2="2282.08204" stroke="#000000" stroke-width="2" stroke-linecap="round"/><line x1="1422.16101" y1="2065" x2="1237.5" y2="2319.16408" stroke="#000000" stroke-width="2" stroke-linecap="round"/><line x1="1422.16101" y1="2065" x2="1123.37322" y2="2282.08204" stroke="#000000" stroke-width="2" stroke-linecap="round"/><line x1="1422.16101" y1="2065" x2="1052.83899" y2="2185" stroke="#000000" stroke-width="2" stroke-linecap="round"/><line x1="1422.16101" y1="2065" x2="1052.83899" y2="2065" stroke="#000000" stroke-width="2" stroke-linecap="round"/><line x1="1422.16101" y1="2065" x2="1123.37322" y2="1967.91796" stroke="#000000" stroke-width="2" stroke-linecap="round"/><line x1="1422.16101" y1="2185" x2="1351.62678" y2="2282.08204" stroke="#000000" stroke-width="2" stroke-linecap="round"/><line x1="1422.16101" y1="2185" x2="1237.5" y2="2319.16408" stroke="#000000" stroke-width="2" stroke-linecap="round"/><line x1="1422.16101" y1="2185" x2="1123.37322" y2="2282.08204" stroke="#000000" stroke-width="2" stroke-linecap="round"/><line x1="1422.16101" y1="2185" x2="1052.83899" y2="2185" stroke="#000000" stroke-width="2" stroke-linecap="round"/><line x1="1422.16101" y1="2185" x2="1052.83899" y2="2065" stroke="#000000" stroke-width="2" stroke-linecap="round"/><line x1="1422.16101" y1="2185" x2="1123.37322" y2="1967.91796" stroke="#000000" stroke-width="2" stroke-linecap="round"/><line x1="1351.62678" y1="2282.08204" x2="1237.5" y2="2319.16408" stroke="#000000" stroke-width="2" stroke-linecap="round"/><line x1="1351.62678" y1="2282.08204" x2="1123.37322" y2="2282.08204" stroke="#000000" stroke-width="2" stroke-linecap="round"/><line x1="1351.62678" y1="2282.08204" x2="1052.83899" y2="2185" stroke="#000000" stroke-width="2" stroke-linecap="round"/><line x1="1351.62678" y1="2282.08204" x2="1052.83899" y2="2065" stroke="#000000" stroke-width="2" stroke-linecap="round"/><line x1="1351.62678" y1="2282.08204" x2="1123.37322" y2="1967.91796" stroke="#000000" stroke-width="2" stroke-linecap="round"/><line x1="1237.5" y1="2319.16408" x2="1123.37322" y2="2282.08204" stroke="#000000" stroke-width="2" stroke-linecap="round"/><line x1="1237.5" y1="2319.16408" x2="1052.83899" y2="2185" stroke="#000000" stroke-width="2" stroke-linecap="round"/><line x1="1237.5" y1="2319.16408" x2="1052.83899" y2="2065" stroke="#000000" stroke-width="2" stroke-linecap="round"/><line x1="1237.5" y1="2319.16408" x2="1123.37322" y2="1967.91796" stroke="#000000" stroke-width="2" stroke-linecap="round"/><line x1="1123.37322" y1="2282.08204" x2="1052.83899" y2="2185" stroke="#000000" stroke-width="2" stroke-linecap="round"/><line x1="1123.37322" y1="2282.08204" x2="1052.83899" y2="2065" stroke="#000000" stroke-width="2" stroke-linecap="round"/><line x1="1123.37322" y1="2282.08204" x2="1123.37322" y2="1967.91796" stroke="#000000" stroke-width="2" stroke-linecap="round"/><line x1="1052.83899" y1="2185" x2="1052.83899" y2="2065" stroke="#000000" stroke-width="2" stroke-linecap="round"/><line x1="1052.83899" y1="2185" x2="1123.37322" y2="1967.91796" stroke="#000000" stroke-width="2" stroke-linecap="round"/><line x1="1052.83899" y1="2065" x2="1123.37322" y2="1967.91796" stroke="#000000" stroke-width="2" stroke-linecap="round"/><path d="M2038.5,1912.03207c0,-13.25483 10.74517,-24 24,-24c13.25483,0 24,10.74517 24,24c0,13.25483 -10.74517,24 -24,24c-13.25483,0 -24,-10.74517 -24,-24z" fill="#000000" stroke-width="1" stroke-linecap="butt"/><path d="M2153.63916,1945.83997c0,-13.25483 10.74517,-24 24,-24c13.25483,0 24,10.74517 24,24c0,13.25483 -10.74517,24 -24,24c-13.25483,0 -24,-10.74517 -24,-24z" fill="#000000" stroke-width="1" stroke-linecap="butt"/><path d="M2232.22244,2036.52992c0,-13.25483 10.74517,-24 24,-24c13.25483,0 24,10.74517 24,24c0,13.25483 -10.74517,24 -24,24c-13.25483,0 -24,-10.74517 -24,-24z" fill="#000000" stroke-width="1" stroke-linecap="butt"/><path d="M2249.30023,2155.3085c0,-13.25483 10.74517,-24 24,-24c13.25483,0 24,10.74517 24,24c0,13.25483 -10.74517,24 -24,24c-13.25483,0 -24,-10.74517 -24,-24z" fill="#000000" stroke-width="1" stroke-linecap="butt"/><path d="M2199.45042,2264.46434c0,-13.25483 10.74517,-24 24,-24c13.25483,0 24,10.74517 24,24c0,13.25483 -10.74517,24 -24,24c-13.25483,0 -24,-10.74517 -24,-24z" fill="#000000" stroke-width="1" stroke-linecap="butt"/><path d="M2098.5,2329.34123c0,-13.25483 10.74517,-24 24,-24c13.25483,0 24,10.74517 24,24c0,13.25483 -10.74517,24 -24,24c-13.25483,0 -24,-10.74517 -24,-24z" fill="#000000" stroke-width="1" stroke-linecap="butt"/><path d="M1978.5,2329.34123c0,-13.25483 10.74517,-24 24,-24c13.25483,0 24,10.74517 24,24c0,13.25483 -10.74517,24 -24,24c-13.25483,0 -24,-10.74517 -24,-24z" fill="#000000" stroke-width="1" stroke-linecap="butt"/><path d="M1877.54958,2264.46434c0,-13.25483 10.74517,-24 24,-24c13.25483,0 24,10.74517 24,24c0,13.25483 -10.74517,24 -24,24c-13.25483,0 -24,-10.74517 -24,-24z" fill="#000000" stroke-width="1" stroke-linecap="butt"/><path d="M1827.69977,2155.3085c0,-13.25483 10.74517,-24 24,-24c13.25483,0 24,10.74517 24,24c0,13.25483 -10.74517,24 -24,24c-13.25483,0 -24,-10.74517 -24,-24z" fill="#000000" stroke-width="1" stroke-linecap="butt"/><path d="M1844.77756,2036.52992c0,-13.25483 10.74517,-24 24,-24c13.25483,0 24,10.74517 24,24c0,13.25483 -10.74517,24 -24,24c-13.25483,0 -24,-10.74517 -24,-24z" fill="#000000" stroke-width="1" stroke-linecap="butt"/><path d="M1923.36084,1945.83997c0,-13.25483 10.74517,-24 24,-24c13.25483,0 24,10.74517 24,24c0,13.25483 -10.74517,24 -24,24c-13.25483,0 -24,-10.74517 -24,-24z" fill="#000000" stroke-width="1" stroke-linecap="butt"/><line x1="2062.5" y1="1912.03207" x2="2177.63916" y2="1945.83997" stroke="#000000" stroke-width="2" stroke-linecap="round"/><line x1="2062.5" y1="1912.03207" x2="2256.22244" y2="2036.52992" stroke="#000000" stroke-width="2" stroke-linecap="round"/><line x1="2062.5" y1="1912.03207" x2="2273.30023" y2="2155.3085" stroke="#000000" stroke-width="2" stroke-linecap="round"/><line x1="2062.5" y1="1912.03207" x2="2223.45042" y2="2264.46434" stroke="#000000" stroke-width="2" stroke-linecap="round"/><line x1="2062.5" y1="1912.03207" x2="2122.5" y2="2329.34123" stroke="#000000" stroke-width="2" stroke-linecap="round"/><line x1="2062.5" y1="1912.03207" x2="2002.5" y2="2329.34123" stroke="#000000" stroke-width="2" stroke-linecap="round"/><line x1="2062.5" y1="1912.03207" x2="1901.54958" y2="2264.46434" stroke="#000000" stroke-width="2" stroke-linecap="round"/><line x1="2062.5" y1="1912.03207" x2="1851.69977" y2="2155.3085" stroke="#000000" stroke-width="2" stroke-linecap="round"/><line x1="2062.5" y1="1912.03207" x2="1868.77756" y2="2036.52992" stroke="#000000" stroke-width="2" stroke-linecap="round"/><line x1="2062.5" y1="1912.03207" x2="1947.36084" y2="1945.83997" stroke="#000000" stroke-width="2" stroke-linecap="round"/><line x1="2177.63916" y1="1945.83997" x2="2256.22244" y2="2036.52992" stroke="#000000" stroke-width="2" stroke-linecap="round"/><line x1="2177.63916" y1="1945.83997" x2="2273.30023" y2="2155.3085" stroke="#000000" stroke-width="2" stroke-linecap="round"/><line x1="2177.63916" y1="1945.83997" x2="2223.45042" y2="2264.46434" stroke="#000000" stroke-width="2" stroke-linecap="round"/><line x1="2177.63916" y1="1945.83997" x2="2122.5" y2="2329.34123" stroke="#000000" stroke-width="2" stroke-linecap="round"/><line x1="2177.63916" y1="1945.83997" x2="2002.5" y2="2329.34123" stroke="#000000" stroke-width="2" stroke-linecap="round"/><line x1="2177.63916" y1="1945.83997" x2="1901.54958" y2="2264.46434" stroke="#000000" stroke-width="2" stroke-linecap="round"/><line x1="2177.63916" y1="1945.83997" x2="1851.69977" y2="2155.3085" stroke="#000000" stroke-width="2" stroke-linecap="round"/><line x1="2177.63916" y1="1945.83997" x2="1868.77756" y2="2036.52992" stroke="#000000" stroke-width="2" stroke-linecap="round"/><line x1="2177.63916" y1="1945.83997" x2="1947.36084" y2="1945.83997" stroke="#000000" stroke-width="2" stroke-linecap="round"/><line x1="2256.22244" y1="2036.52992" x2="2273.30023" y2="2155.3085" stroke="#000000" stroke-width="2" stroke-linecap="round"/><line x1="2256.22244" y1="2036.52992" x2="2223.45042" y2="2264.46434" stroke="#000000" stroke-width="2" stroke-linecap="round"/><line x1="2256.22244" y1="2036.52992" x2="2122.5" y2="2329.34123" stroke="#000000" stroke-width="2" stroke-linecap="round"/><line x1="2256.22244" y1="2036.52992" x2="2002.5" y2="2329.34123" stroke="#000000" stroke-width="2" stroke-linecap="round"/><line x1="2256.22244" y1="2036.52992" x2="1901.54958" y2="2264.46434" stroke="#000000" stroke-width="2" stroke-linecap="round"/><line x1="2256.22244" y1="2036.52992" x2="1851.69977" y2="2155.3085" stroke="#000000" stroke-width="2" stroke-linecap="round"/><line x1="2256.22244" y1="2036.52992" x2="1868.77756" y2="2036.52992" stroke="#000000" stroke-width="2" stroke-linecap="round"/><line x1="2256.22244" y1="2036.52992" x2="1947.36084" y2="1945.83997" stroke="#000000" stroke-width="2" stroke-linecap="round"/><line x1="2273.30023" y1="2155.3085" x2="2223.45042" y2="2264.46434" stroke="#000000" stroke-width="2" stroke-linecap="round"/><line x1="2273.30023" y1="2155.3085" x2="2122.5" y2="2329.34123" stroke="#000000" stroke-width="2" stroke-linecap="round"/><line x1="2273.30023" y1="2155.3085" x2="2002.5" y2="2329.34123" stroke="#000000" stroke-width="2" stroke-linecap="round"/><line x1="2273.30023" y1="2155.3085" x2="1901.54958" y2="2264.46434" stroke="#000000" stroke-width="2" stroke-linecap="round"/><line x1="2273.30023" y1="2155.3085" x2="1851.69977" y2="2155.3085" stroke="#000000" stroke-width="2" stroke-linecap="round"/><line x1="2273.30023" y1="2155.3085" x2="1868.77756" y2="2036.52992" stroke="#000000" stroke-width="2" stroke-linecap="round"/><line x1="2273.30023" y1="2155.3085" x2="1947.36084" y2="1945.83997" stroke="#000000" stroke-width="2" stroke-linecap="round"/><line x1="2223.45042" y1="2264.46434" x2="2122.5" y2="2329.34123" stroke="#000000" stroke-width="2" stroke-linecap="round"/><line x1="2223.45042" y1="2264.46434" x2="2002.5" y2="2329.34123" stroke="#000000" stroke-width="2" stroke-linecap="round"/><line x1="2223.45042" y1="2264.46434" x2="1901.54958" y2="2264.46434" stroke="#000000" stroke-width="2" stroke-linecap="round"/><line x1="2223.45042" y1="2264.46434" x2="1851.69977" y2="2155.3085" stroke="#000000" stroke-width="2" stroke-linecap="round"/><line x1="2223.45042" y1="2264.46434" x2="1868.77756" y2="2036.52992" stroke="#000000" stroke-width="2" stroke-linecap="round"/><line x1="2223.45042" y1="2264.46434" x2="1947.36084" y2="1945.83997" stroke="#000000" stroke-width="2" stroke-linecap="round"/><line x1="2122.5" y1="2329.34123" x2="2002.5" y2="2329.34123" stroke="#000000" stroke-width="2" stroke-linecap="round"/><line x1="2122.5" y1="2329.34123" x2="1901.54958" y2="2264.46434" stroke="#000000" stroke-width="2" stroke-linecap="round"/><line x1="2122.5" y1="2329.34123" x2="1851.69977" y2="2155.3085" stroke="#000000" stroke-width="2" stroke-linecap="round"/><line x1="2122.5" y1="2329.34123" x2="1868.77756" y2="2036.52992" stroke="#000000" stroke-width="2" stroke-linecap="round"/><line x1="2122.5" y1="2329.34123" x2="1947.36084" y2="1945.83997" stroke="#000000" stroke-width="2" stroke-linecap="round"/><line x1="2002.5" y1="2329.34123" x2="1901.54958" y2="2264.46434" stroke="#000000" stroke-width="2" stroke-linecap="round"/><line x1="2002.5" y1="2329.34123" x2="1851.69977" y2="2155.3085" stroke="#000000" stroke-width="2" stroke-linecap="round"/><line x1="2002.5" y1="2329.34123" x2="1868.77756" y2="2036.52992" stroke="#000000" stroke-width="2" stroke-linecap="round"/><line x1="2002.5" y1="2329.34123" x2="1947.36084" y2="1945.83997" stroke="#000000" stroke-width="2" stroke-linecap="round"/><line x1="1901.54958" y1="2264.46434" x2="1851.69977" y2="2155.3085" stroke="#000000" stroke-width="2" stroke-linecap="round"/><line x1="1901.54958" y1="2264.46434" x2="1868.77756" y2="2036.52992" stroke="#000000" stroke-width="2" stroke-linecap="round"/><line x1="1901.54958" y1="2264.46434" x2="1947.36084" y2="1945.83997" stroke="#000000" stroke-width="2" stroke-linecap="round"/><line x1="1851.69977" y1="2155.3085" x2="1868.77756" y2="2036.52992" stroke="#000000" stroke-width="2" stroke-linecap="round"/><line x1="1851.69977" y1="2155.3085" x2="1947.36084" y2="1945.83997" stroke="#000000" stroke-width="2" stroke-linecap="round"/><line x1="1868.77756" y1="2036.52992" x2="1947.36084" y2="1945.83997" stroke="#000000" stroke-width="2" stroke-linecap="round"/><path d="M2863.5,1893.1778c0,-13.25483 10.74517,-24 24,-24c13.25483,0 24,10.74517 24,24c0,13.25483 -10.74517,24 -24,24c-13.25483,0 -24,-10.74517 -24,-24z" fill="#000000" stroke-width="1" stroke-linecap="butt"/><path d="M2979.4111,1924.23609c0,-13.25483 10.74517,-24 24,-24c13.25483,0 24,10.74517 24,24c0,13.25483 -10.74517,24 -24,24c-13.25483,0 -24,-10.74517 -24,-24z" fill="#000000" stroke-width="1" stroke-linecap="butt"/><path d="M3064.26391,2009.0889c0,-13.25483 10.74517,-24 24,-24c13.25483,0 24,10.74517 24,24c0,13.25483 -10.74517,24 -24,24c-13.25483,0 -24,-10.74517 -24,-24z" fill="#000000" stroke-width="1" stroke-linecap="butt"/><path d="M3095.3222,2125c0,-13.25483 10.74517,-24 24,-24c13.25483,0 24,10.74517 24,24c0,13.25483 -10.74517,24 -24,24c-13.25483,0 -24,-10.74517 -24,-24z" fill="#000000" stroke-width="1" stroke-linecap="butt"/><path d="M3064.26391,2240.9111c0,-13.25483 10.74517,-24 24,-24c13.25483,0 24,10.74517 24,24c0,13.25483 -10.74517,24 -24,24c-13.25483,0 -24,-10.74517 -24,-24z" fill="#000000" stroke-width="1" stroke-linecap="butt"/><path d="M2979.4111,2325.76391c0,-13.25483 10.74517,-24 24,-24c13.25483,0 24,10.74517 24,24c0,13.25483 -10.74517,24 -24,24c-13.25483,0 -24,-10.74517 -24,-24z" fill="#000000" stroke-width="1" stroke-linecap="butt"/><path d="M2863.5,2356.8222c0,-13.25483 10.74517,-24 24,-24c13.25483,0 24,10.74517 24,24c0,13.25483 -10.74517,24 -24,24c-13.25483,0 -24,-10.74517 -24,-24z" fill="#000000" stroke-width="1" stroke-linecap="butt"/><path d="M2747.5889,2325.76391c0,-13.25483 10.74517,-24 24,-24c13.25483,0 24,10.74517 24,24c0,13.25483 -10.74517,24 -24,24c-13.25483,0 -24,-10.74517 -24,-24z" fill="#000000" stroke-width="1" stroke-linecap="butt"/><path d="M2662.73609,2240.9111c0,-13.25483 10.74517,-24 24,-24c13.25483,0 24,10.74517 24,24c0,13.25483 -10.74517,24 -24,24c-13.25483,0 -24,-10.74517 -24,-24z" fill="#000000" stroke-width="1" stroke-linecap="butt"/><path d="M2631.6778,2125c0,-13.25483 10.74517,-24 24,-24c13.25483,0 24,10.74517 24,24c0,13.25483 -10.74517,24 -24,24c-13.25483,0 -24,-10.74517 -24,-24z" fill="#000000" stroke-width="1" stroke-linecap="butt"/><path d="M2662.73609,2009.0889c0,-13.25483 10.74517,-24 24,-24c13.25483,0 24,10.74517 24,24c0,13.25483 -10.74517,24 -24,24c-13.25483,0 -24,-10.74517 -24,-24z" fill="#000000" stroke-width="1" stroke-linecap="butt"/><path d="M2747.5889,1924.23609c0,-13.25483 10.74517,-24 24,-24c13.25483,0 24,10.74517 24,24c0,13.25483 -10.74517,24 -24,24c-13.25483,0 -24,-10.74517 -24,-24z" fill="#000000" stroke-width="1" stroke-linecap="butt"/><line x1="2887.5" y1="1893.1778" x2="3003.4111" y2="1924.23609" stroke="#000000" stroke-width="2" stroke-linecap="round"/><line x1="2887.5" y1="1893.1778" x2="3088.26391" y2="2009.0889" stroke="#000000" stroke-width="2" stroke-linecap="round"/><line x1="2887.5" y1="1893.1778" x2="3119.3222" y2="2125" stroke="#000000" stroke-width="2" stroke-linecap="round"/><line x1="2887.5" y1="1893.1778" x2="3088.26391" y2="2240.9111" stroke="#000000" stroke-width="2" stroke-linecap="round"/><line x1="2887.5" y1="1893.1778" x2="3003.4111" y2="2325.76391" stroke="#000000" stroke-width="2" stroke-linecap="round"/><line x1="2887.5" y1="1893.1778" x2="2887.5" y2="2356.8222" stroke="#000000" stroke-width="2" stroke-linecap="round"/><line x1="2887.5" y1="1893.1778" x2="2771.5889" y2="2325.76391" stroke="#000000" stroke-width="2" stroke-linecap="round"/><line x1="2887.5" y1="1893.1778" x2="2686.73609" y2="2240.9111" stroke="#000000" stroke-width="2" stroke-linecap="round"/><line x1="2887.5" y1="1893.1778" x2="2655.6778" y2="2125" stroke="#000000" stroke-width="2" stroke-linecap="round"/><line x1="2887.5" y1="1893.1778" x2="2686.73609" y2="2009.0889" stroke="#000000" stroke-width="2" stroke-linecap="round"/><line x1="2887.5" y1="1893.1778" x2="2771.5889" y2="1924.23609" stroke="#000000" stroke-width="2" stroke-linecap="round"/><line x1="3003.4111" y1="1924.23609" x2="3088.26391" y2="2009.0889" stroke="#000000" stroke-width="2" stroke-linecap="round"/><line x1="3003.4111" y1="1924.23609" x2="3119.3222" y2="2125" stroke="#000000" stroke-width="2" stroke-linecap="round"/><line x1="3003.4111" y1="1924.23609" x2="3088.26391" y2="2240.9111" stroke="#000000" stroke-width="2" stroke-linecap="round"/><line x1="3003.4111" y1="1924.23609" x2="3003.4111" y2="2325.76391" stroke="#000000" stroke-width="2" stroke-linecap="round"/><line x1="3003.4111" y1="1924.23609" x2="2887.5" y2="2356.8222" stroke="#000000" stroke-width="2" stroke-linecap="round"/><line x1="3003.4111" y1="1924.23609" x2="2771.5889" y2="2325.76391" stroke="#000000" stroke-width="2" stroke-linecap="round"/><line x1="3003.4111" y1="1924.23609" x2="2686.73609" y2="2240.9111" stroke="#000000" stroke-width="2" stroke-linecap="round"/><line x1="3003.4111" y1="1924.23609" x2="2655.6778" y2="2125" stroke="#000000" stroke-width="2" stroke-linecap="round"/><line x1="3003.4111" y1="1924.23609" x2="2686.73609" y2="2009.0889" stroke="#000000" stroke-width="2" stroke-linecap="round"/><line x1="3003.4111" y1="1924.23609" x2="2771.5889" y2="1924.23609" stroke="#000000" stroke-width="2" stroke-linecap="round"/><line x1="3088.26391" y1="2009.0889" x2="3119.3222" y2="2125" stroke="#000000" stroke-width="2" stroke-linecap="round"/><line x1="3088.26391" y1="2009.0889" x2="3088.26391" y2="2240.9111" stroke="#000000" stroke-width="2" stroke-linecap="round"/><line x1="3088.26391" y1="2009.0889" x2="3003.4111" y2="2325.76391" stroke="#000000" stroke-width="2" stroke-linecap="round"/><line x1="3088.26391" y1="2009.0889" x2="2887.5" y2="2356.8222" stroke="#000000" stroke-width="2" stroke-linecap="round"/><line x1="3088.26391" y1="2009.0889" x2="2771.5889" y2="2325.76391" stroke="#000000" stroke-width="2" stroke-linecap="round"/><line x1="3088.26391" y1="2009.0889" x2="2686.73609" y2="2240.9111" stroke="#000000" stroke-width="2" stroke-linecap="round"/><line x1="3088.26391" y1="2009.0889" x2="2655.6778" y2="2125" stroke="#000000" stroke-width="2" stroke-linecap="round"/><line x1="3088.26391" y1="2009.0889" x2="2686.73609" y2="2009.0889" stroke="#000000" stroke-width="2" stroke-linecap="round"/><line x1="3088.26391" y1="2009.0889" x2="2771.5889" y2="1924.23609" stroke="#000000" stroke-width="2" stroke-linecap="round"/><line x1="3119.3222" y1="2125" x2="3088.26391" y2="2240.9111" stroke="#000000" stroke-width="2" stroke-linecap="round"/><line x1="3119.3222" y1="2125" x2="3003.4111" y2="2325.76391" stroke="#000000" stroke-width="2" stroke-linecap="round"/><line x1="3119.3222" y1="2125" x2="2887.5" y2="2356.8222" stroke="#000000" stroke-width="2" stroke-linecap="round"/><line x1="3119.3222" y1="2125" x2="2771.5889" y2="2325.76391" stroke="#000000" stroke-width="2" stroke-linecap="round"/><line x1="3119.3222" y1="2125" x2="2686.73609" y2="2240.9111" stroke="#000000" stroke-width="2" stroke-linecap="round"/><line x1="3119.3222" y1="2125" x2="2655.6778" y2="2125" stroke="#000000" stroke-width="2" stroke-linecap="round"/><line x1="3119.3222" y1="2125" x2="2686.73609" y2="2009.0889" stroke="#000000" stroke-width="2" stroke-linecap="round"/><line x1="3119.3222" y1="2125" x2="2771.5889" y2="1924.23609" stroke="#000000" stroke-width="2" stroke-linecap="round"/><line x1="3088.26391" y1="2240.9111" x2="3003.4111" y2="2325.76391" stroke="#000000" stroke-width="2" stroke-linecap="round"/><line x1="3088.26391" y1="2240.9111" x2="2887.5" y2="2356.8222" stroke="#000000" stroke-width="2" stroke-linecap="round"/><line x1="3088.26391" y1="2240.9111" x2="2771.5889" y2="2325.76391" stroke="#000000" stroke-width="2" stroke-linecap="round"/><line x1="3088.26391" y1="2240.9111" x2="2686.73609" y2="2240.9111" stroke="#000000" stroke-width="2" stroke-linecap="round"/><line x1="3088.26391" y1="2240.9111" x2="2655.6778" y2="2125" stroke="#000000" stroke-width="2" stroke-linecap="round"/><line x1="3088.26391" y1="2240.9111" x2="2686.73609" y2="2009.0889" stroke="#000000" stroke-width="2" stroke-linecap="round"/><line x1="3088.26391" y1="2240.9111" x2="2771.5889" y2="1924.23609" stroke="#000000" stroke-width="2" stroke-linecap="round"/><line x1="3003.4111" y1="2325.76391" x2="2887.5" y2="2356.8222" stroke="#000000" stroke-width="2" stroke-linecap="round"/><line x1="3003.4111" y1="2325.76391" x2="2771.5889" y2="2325.76391" stroke="#000000" stroke-width="2" stroke-linecap="round"/><line x1="3003.4111" y1="2325.76391" x2="2686.73609" y2="2240.9111" stroke="#000000" stroke-width="2" stroke-linecap="round"/><line x1="3003.4111" y1="2325.76391" x2="2655.6778" y2="2125" stroke="#000000" stroke-width="2" stroke-linecap="round"/><line x1="3003.4111" y1="2325.76391" x2="2686.73609" y2="2009.0889" stroke="#000000" stroke-width="2" stroke-linecap="round"/><line x1="3003.4111" y1="2325.76391" x2="2771.5889" y2="1924.23609" stroke="#000000" stroke-width="2" stroke-linecap="round"/><line x1="2887.5" y1="2356.8222" x2="2771.5889" y2="2325.76391" stroke="#000000" stroke-width="2" stroke-linecap="round"/><line x1="2887.5" y1="2356.8222" x2="2686.73609" y2="2240.9111" stroke="#000000" stroke-width="2" stroke-linecap="round"/><line x1="2887.5" y1="2356.8222" x2="2655.6778" y2="2125" stroke="#000000" stroke-width="2" stroke-linecap="round"/><line x1="2887.5" y1="2356.8222" x2="2686.73609" y2="2009.0889" stroke="#000000" stroke-width="2" stroke-linecap="round"/><line x1="2887.5" y1="2356.8222" x2="2771.5889" y2="1924.23609" stroke="#000000" stroke-width="2" stroke-linecap="round"/><line x1="2771.5889" y1="2325.76391" x2="2686.73609" y2="2240.9111" stroke="#000000" stroke-width="2" stroke-linecap="round"/><line x1="2771.5889" y1="2325.76391" x2="2655.6778" y2="2125" stroke="#000000" stroke-width="2" stroke-linecap="round"/><line x1="2771.5889" y1="2325.76391" x2="2686.73609" y2="2009.0889" stroke="#000000" stroke-width="2" stroke-linecap="round"/><line x1="2771.5889" y1="2325.76391" x2="2771.5889" y2="1924.23609" stroke="#000000" stroke-width="2" stroke-linecap="round"/><line x1="2686.73609" y1="2240.9111" x2="2655.6778" y2="2125" stroke="#000000" stroke-width="2" stroke-linecap="round"/><line x1="2686.73609" y1="2240.9111" x2="2686.73609" y2="2009.0889" stroke="#000000" stroke-width="2" stroke-linecap="round"/><line x1="2686.73609" y1="2240.9111" x2="2771.5889" y2="1924.23609" stroke="#000000" stroke-width="2" stroke-linecap="round"/><line x1="2655.6778" y1="2125" x2="2686.73609" y2="2009.0889" stroke="#000000" stroke-width="2" stroke-linecap="round"/><line x1="2655.6778" y1="2125" x2="2771.5889" y2="1924.23609" stroke="#000000" stroke-width="2" stroke-linecap="round"/><line x1="2686.73609" y1="2009.0889" x2="2771.5889" y2="1924.23609" stroke="#000000" stroke-width="2" stroke-linecap="round"/></g></svg>