<svg x="0" y="0" width="3300" height="2550" version="1.1" xmlns="http://www.w3.org/2000/svg" xmlns:xlink="http://www.w3.org/1999/xlink"><g fill="none" stroke="none" stroke-width="none" stroke-linecap="none" stroke-linejoin="miter" stroke-miterlimit="10" stroke-dasharray="none" stroke-dashoffset="0" font-family="none" font-weight="none" font-size="none" text-anchor="start" mix-blend-mode="normal"><polygon points="2475,850 2475,0 3300,0 3300,850" stroke="#000000" stroke-width="1" stroke-linecap="butt" stroke-dasharray="1,4" font-family="sans-serif" font-weight="normal" font-size="12"/><text x="2857.5" y="157.42857" fill="#000000" stroke-width="1" stroke-linecap="butt" stroke-dasharray="" font-family="Times" font-weight="bold" font-size="120">0</text><path d="M2687.5,425c0,-110.45695 89.54305,-200 200,-200c110.45695,0 200,89.54305 200,200c0,110.45695 -89.54305,200 -200,200c-110.45695,0 -200,-89.54305 -200,-200z" stroke="#000000" stroke-width="1" stroke-linecap="butt" stroke-dasharray="2,3" font-family="sans-serif" font-weight="normal" font-size="12"/><polygon points="1650,850 1650,0 2475,0 2475,850" stroke="#000000" stroke-width="1" stroke-linecap="butt" stroke-dasharray="1,4" font-family="sans-serif" font-weight="normal" font-size="12"/><text x="2032.5" y="157.42857" fill="#000000" stroke-width="1" stroke-linecap="butt" stroke-dasharray="" font-family="Times" font-weight="bold" font-size="120">1</text><path d="M1862.5,425c0,-110.45695 89.54305,-200 200,-200c110.45695,0 200,89.54305 200,200c0,110.45695 -89.54305,200 -200,200c-110.45695,0 -200,-89.54305 -200,-200z" stroke="#000000" stroke-width="1" stroke-linecap="butt" stroke-dasharray="2,3" font-family="sans-serif" font-weight="normal" font-size="12"/><path d="M2038.5,225c0,-13.25483 10.74517,-24 24,-24c13.25483,0 24,10.74517 24,24c0,13.25483 -10.74517,24 -24,24c-13.25483,0 -24,-10.74517 -24,-24z" fill="#000000" stroke-width="1" stroke-linecap="butt" stroke-dasharray="" font-family="sans-serif" font-weight="normal" font-size="12"/><polygon points="825,850 825,0 1650,0 1650,850" stroke="#000000" stroke-width="1" stroke-linecap="butt" stroke-dasharray="1,4" font-family="sans-serif" font-weight="normal" font-size="12"/><text x="1207.5" y="157.42857" fill="#000000" stroke-width="1" stroke-linecap="butt" stroke-dasharray="" font-family="Times" font-weight="bold" font-size="120">2</text><path d="M1037.5,425c0,-110.45695 89.54305,-200 200,-200c110.45695,0 200,89.54305 200,200c0,110.45695 -89.54305,200 -200,200c-110.45695,0 -200,-89.54305 -200,-200z" stroke="#000000" stroke-width="1" stroke-linecap="butt" stroke-dasharray="2,3" font-family="sans-serif" font-weight="normal" font-size="12"/><path d="M1213.5,225c0,-13.25483 10.74517,-24 24,-24c13.25483,0 24,10.74517 24,24c0,13.25483 -10.74517,24 -24,24c-13.25483,0 -24,-10.74517 -24,-24z" fill="#000000" stroke-width="1" stroke-linecap="butt" stroke-dasharray="" font-family="sans-serif" font-weight="normal" font-size="12"/><path d="M1213.5,625c0,-13.25483 10.74517,-24 24,-24c13.25483,0 24,10.74517 24,24c0,13.25483 -10.74517,24 -24,24c-13.25483,0 -24,-10.74517 -24,-24z" fill="#000000" stroke-width="1" stroke-linecap="butt" stroke-dasharray="" font-family="sans-serif" font-weight="normal" font-size="12"/><g stroke="#000000" stroke-width="2" stroke-linecap="round" stroke-dasharray="" font-family="sans-serif" font-weight="normal" font-size="12"><line x1="1237.5" y1="225" x2="1237.5" y2="625"/></g><g stroke="#000000" stroke-width="2" stroke-linecap="round" stroke-dasharray="" font-family="sans-serif" font-weight="normal" font-size="12"><line x1="1237.5" y1="678.57143" x2="1237.5" y2="778.57143"/></g><polygon points="0,850 0,0 825,0 825,850" stroke="#000000" stroke-width="1" stroke-linecap="butt" stroke-dasharray="1,4" font-family="sans-serif" font-weight="normal" font-size="12"/><text x="382.5" y="157.42857" fill="#000000" stroke-width="1" stroke-linecap="butt" stroke-dasharray="" font-family="Times" font-weight="bold" font-size="120">3</text><path d="M212.5,425c0,-110.45695 89.54305,-200 200,-200c110.45695,0 200,89.54305 200,200c0,110.45695 -89.54305,200 -200,200c-110.45695,0 -200,-89.54305 -200,-200z" stroke="#000000" stroke-width="1" stroke-linecap="butt" stroke-dasharray="2,3" font-family="sans-serif" font-weight="normal" font-size="12"/><path d="M388.5,225c0,-13.25483 10.74517,-24 24,-24c13.25483,0 24,10.74517 24,24c0,13.25483 -10.74517,24 -24,24c-13.25483,0 -24,-10.74517 -24,-24z" fill="#000000" stroke-width="1" stroke-linecap="butt" stroke-dasharray="" font-family="sans-serif" font-weight="normal" font-size="12"/><path d="M561.70508,525c0,-13.25483 10.74517,-24 24,-24c13.25483,0 24,10.74517 24,24c0,13.25483 -10.74517,24 -24,24c-13.25483,0 -24,-10.74517 -24,-24z" fill="#000000" stroke-width="1" stroke-linecap="butt" stroke-dasharray="" font-family="sans-serif" font-weight="normal" font-size="12"/><path d="M215.29492,525c0,-13.25483 10.74517,-24 24,-24c13.25483,0 24,10.74517 24,24c0,13.25483 -10.74517,24 -24,24c-13.25483,0 -24,-10.74517 -24,-24z" fill="#000000" stroke-width="1" stroke-linecap="butt" stroke-dasharray="" font-family="sans-serif" font-weight="normal" font-size="12"/><g stroke="#000000" stroke-width="2" stroke-linecap="round" stroke-dasharray="" font-family="sans-serif" font-weight="normal" font-size="12"><line x1="412.5" y1="225" x2="585.70508" y2="525"/><line x1="412.5" y1="225" x2="239.29492" y2="525"/><line x1="585.70508" y1="525" x2="239.29492" y2="525"/></g><g stroke="#000000" stroke-width="2" stroke-linecap="round" stroke-dasharray="" font-family="sans-serif" font-weight="normal" font-size="12"><line x1="412.5" y1="691.07143" x2="455.80127" y2="766.07143"/><line x1="412.5" y1="691.07143" x2="369.19873" y2="766.07143"/><line x1="455.80127" y1="766.07143" x2="369.19873" y2="766.07143"/></g><polygon points="2475,1700 2475,850 3300,850 3300,1700" stroke="#000000" stroke-width="1" stroke-linecap="butt" stroke-dasharray="1,4" font-family="sans-serif" font-weight="normal" font-size="12"/><text x="2857.5" y="1007.42857" fill="#000000" stroke-width="1" stroke-linecap="butt" stroke-dasharray="" font-family="Times" font-weight="bold" font-size="120">4</text><path d="M2687.5,1275c0,-110.45695 89.54305,-200 200,-200c110.45695,0 200,89.54305 200,200c0,110.45695 -89.54305,200 -200,200c-110.45695,0 -200,-89.54305 -200,-200z" stroke="#000000" stroke-width="1" stroke-linecap="butt" stroke-dasharray="2,3" font-family="sans-serif" font-weight="normal" font-size="12"/><path d="M2863.5,1075c0,-13.25483 10.74517,-24 24,-24c13.25483,0 24,10.74517 24,24c0,13.25483 -10.74517,24 -24,24c-13.25483,0 -24,-10.74517 -24,-24z" fill="#000000" stroke-width="1" stroke-linecap="butt" stroke-dasharray="" font-family="sans-serif" font-weight="normal" font-size="12"/><path d="M3063.5,1275c0,-13.25483 10.74517,-24 24,-24c13.25483,0 24,10.74517 24,24c0,13.25483 -10.74517,24 -24,24c-13.25483,0 -24,-10.74517 -24,-24z" fill="#000000" stroke-width="1" stroke-linecap="butt" stroke-dasharray="" font-family="sans-serif" font-weight="normal" font-size="12"/><path d="M2863.5,1475c0,-13.25483 10.74517,-24 24,-24c13.25483,0 24,10.74517 24,24c0,13.25483 -10.74517,24 -24,24c-13.25483,0 -24,-10.74517 -24,-24z" fill="#000000" stroke-width="1" stroke-linecap="butt" stroke-dasharray="" font-family="sans-serif" font-weight="normal" font-size="12"/><path d="M2663.5,1275c0,-13.25483 10.74517,-24 24,-24c13.25483,0 24,10.74517 24,24c0,13.25483 -10.74517,24 -24,24c-13.25483,0 -24,-10.74517 -24,-24z" fill="#000000" stroke-width="1" stroke-linecap="butt" stroke-dasharray="" font-family="sans-serif" font-weight="normal" font-size="12"/><g stroke="#000000" stroke-width="2" stroke-linecap="round" stroke-dasharray="" font-family="sans-serif" font-weight="normal" font-size="12"><line x1="2887.5" y1="1075" x2="3087.5" y2="1275"/><line x1="2887.5" y1="1075" x2="2687.5" y2="1275"/><line x1="3087.5" y1="1275" x2="2887.5" y2="1475"/><line x1="2887.5" y1="1475" x2="2687.5" y2="1275"/></g><g stroke="#000000" stroke-width="2" stroke-linecap="round" stroke-dasharray="" font-family="sans-serif" font-weight="normal" font-size="12"><line x1="2592.85714" y1="1528.57143" x2="2642.85714" y2="1578.57143"/><line x1="2592.85714" y1="1528.57143" x2="2542.85714" y2="1578.57143"/><line x1="2642.85714" y1="1578.57143" x2="2592.85714" y2="1628.57143"/><line x1="2592.85714" y1="1628.57143" x2="2542.85714" y2="1578.57143"/></g><g stroke="#000000" stroke-width="2" stroke-linecap="round" stroke-dasharray="" font-family="sans-serif" font-weight="normal" font-size="12"><line x1="2887.5" y1="1075" x2="2887.5" y2="1475"/><line x1="3087.5" y1="1275" x2="2687.5" y2="1275"/></g><g stroke="#000000" stroke-width="2" stroke-linecap="round" stroke-dasharray="" font-family="sans-serif" font-weight="normal" font-size="12"><line x1="3182.14286" y1="1528.57143" x2="3182.14286" y2="1628.57143"/><line x1="3232.14286" y1="1578.57143" x2="3132.14286" y2="1578.57143"/></g><polygon points="1650,1700 1650,850 2475,850 2475,1700" stroke="#000000" stroke-width="1" stroke-linecap="butt" stroke-dasharray="1,4" font-family="sans-serif" font-weight="normal" font-size="12"/><text x="2032.5" y="1007.42857" fill="#000000" stroke-width="1" stroke-linecap="butt" stroke-dasharray="" font-family="Times" font-weight="bold" font-size="120">5</text><path d="M1862.5,1275c0,-110.45695 89.54305,-200 200,-200c110.45695,0 200,89.54305 200,200c0,110.45695 -89.54305,200 -200,200c-110.45695,0 -200,-89.54305 -200,-200z" stroke="#000000" stroke-width="1" stroke-linecap="butt" stroke-dasharray="2,3" font-family="sans-serif" font-weight="normal" font-size="12"/><path d="M2038.5,1075c0,-13.25483 10.74517,-24 24,-24c13.25483,0 24,10.74517 24,24c0,13.25483 -10.74517,24 -24,24c-13.25483,0 -24,-10.74517 -24,-24z" fill="#000000" stroke-width="1" stroke-linecap="butt" stroke-dasharray="" font-family="sans-serif" font-weight="normal" font-size="12"/><path d="M2228.7113,1213.1966c0,-13.25483 10.74517,-24 24,-24c13.25483,0 24,10.74517 24,24c0,13.25483 -10.74517,24 -24,24c-13.25483,0 -24,-10.74517 -24,-24z" fill="#000000" stroke-width="1" stroke-linecap="butt" stroke-dasharray="" font-family="sans-serif" font-weight="normal" font-size="12"/><path d="M2156.05705,1436.8034c0,-13.25483 10.74517,-24 24,-24c13.25483,0 24,10.74517 24,24c0,13.25483 -10.74517,24 -24,24c-13.25483,0 -24,-10.74517 -24,-24z" fill="#000000" stroke-width="1" stroke-linecap="butt" stroke-dasharray="" font-family="sans-serif" font-weight="normal" font-size="12"/><path d="M1920.94295,1436.8034c0,-13.25483 10.74517,-24 24,-24c13.25483,0 24,10.74517 24,24c0,13.25483 -10.74517,24 -24,24c-13.25483,0 -24,-10.74517 -24,-24z" fill="#000000" stroke-width="1" stroke-linecap="butt" stroke-dasharray="" font-family="sans-serif" font-weight="normal" font-size="12"/><path d="M1848.2887,1213.1966c0,-13.25483 10.74517,-24 24,-24c13.25483,0 24,10.74517 24,24c0,13.25483 -10.74517,24 -24,24c-13.25483,0 -24,-10.74517 -24,-24z" fill="#000000" stroke-width="1" stroke-linecap="butt" stroke-dasharray="" font-family="sans-serif" font-weight="normal" font-size="12"/><g stroke="#000000" stroke-width="2" stroke-linecap="round" stroke-dasharray="" font-family="sans-serif" font-weight="normal" font-size="12"><line x1="2062.5" y1="1075" x2="2252.7113" y2="1213.1966"/><line x1="2062.5" y1="1075" x2="1872.2887" y2="1213.1966"/><line x1="2252.7113" y1="1213.1966" x2="2180.05705" y2="1436.8034"/><line x1="2180.05705" y1="1436.8034" x2="1944.94295" y2="1436.8034"/><line x1="1944.94295" y1="1436.8034" x2="1872.2887" y2="1213.1966"/></g><g stroke="#000000" stroke-width="2" stroke-linecap="round" stroke-dasharray="" font-family="sans-serif" font-weight="normal" font-size="12"><line x1="1767.85714" y1="1533.346" x2="1815.40997" y2="1567.89515"/><line x1="1767.85714" y1="1533.346" x2="1720.30432" y2="1567.89515"/><line x1="1815.40997" y1="1567.89515" x2="1797.24641" y2="1623.79685"/><line x1="1797.24641" y1="1623.79685" x2="1738.46788" y2="1623.79685"/><line x1="1738.46788" y1="1623.79685" x2="1720.30432" y2="1567.89515"/></g><g stroke="#000000" stroke-width="2" stroke-linecap="round" stroke-dasharray="" font-family="sans-serif" font-weight="normal" font-size="12"><line x1="2062.5" y1="1075" x2="2180.05705" y2="1436.8034"/><line x1="2062.5" y1="1075" x2="1944.94295" y2="1436.8034"/><line x1="2252.7113" y1="1213.1966" x2="1944.94295" y2="1436.8034"/><line x1="2252.7113" y1="1213.1966" x2="1872.2887" y2="1213.1966"/><line x1="2180.05705" y1="1436.8034" x2="1872.2887" y2="1213.1966"/></g><g stroke="#000000" stroke-width="2" stroke-linecap="round" stroke-dasharray="" font-family="sans-serif" font-weight="normal" font-size="12"><line x1="2357.14286" y1="1533.346" x2="2386.53212" y2="1623.79685"/><line x1="2357.14286" y1="1533.346" x2="2327.75359" y2="1623.79685"/><line x1="2404.69568" y1="1567.89515" x2="2327.75359" y2="1623.79685"/><line x1="2404.69568" y1="1567.89515" x2="2309.59003" y2="1567.89515"/><line x1="2386.53212" y1="1623.79685" x2="2309.59003" y2="1567.89515"/></g><polygon points="825,1700 825,850 1650,850 1650,1700" stroke="#000000" stroke-width="1" stroke-linecap="butt" stroke-dasharray="1,4" font-family="sans-serif" font-weight="normal" font-size="12"/><text x="1207.5" y="1007.42857" fill="#000000" stroke-width="1" stroke-linecap="butt" stroke-dasharray="" font-family="Times" font-weight="bold" font-size="120">6</text><path d="M1037.5,1275c0,-110.45695 89.54305,-200 200,-200c110.45695,0 200,89.54305 200,200c0,110.45695 -89.54305,200 -200,200c-110.45695,0 -200,-89.54305 -200,-200z" stroke="#000000" stroke-width="1" stroke-linecap="butt" stroke-dasharray="2,3" font-family="sans-serif" font-weight="normal" font-size="12"/><g stroke="#000000" stroke-width="2" stroke-linecap="round" stroke-dasharray="" font-family="sans-serif" font-weight="normal" font-size="12"><line x1="1237.5" y1="1075" x2="1410.70508" y2="1175"/><line x1="1237.5" y1="1075" x2="1064.29492" y2="1175"/><line x1="1410.70508" y1="1175" x2="1410.70508" y2="1375"/><line x1="1410.70508" y1="1375" x2="1237.5" y2="1475"/><line x1="1237.5" y1="1475" x2="1064.29492" y2="1375"/><line x1="1064.29492" y1="1375" x2="1064.29492" y2="1175"/></g><g stroke="#000000" stroke-width="2" stroke-linecap="round" stroke-dasharray="" font-family="sans-serif" font-weight="normal" font-size="12"><line x1="942.85714" y1="1528.57143" x2="986.15841" y2="1553.57143"/><line x1="942.85714" y1="1528.57143" x2="899.55587" y2="1553.57143"/><line x1="986.15841" y1="1553.57143" x2="986.15841" y2="1603.57143"/><line x1="986.15841" y1="1603.57143" x2="942.85714" y2="1628.57143"/><line x1="942.85714" y1="1628.57143" x2="899.55587" y2="1603.57143"/><line x1="899.55587" y1="1603.57143" x2="899.55587" y2="1553.57143"/></g><g stroke="#000000" stroke-width="2" stroke-linecap="round" stroke-dasharray="" font-family="sans-serif" font-weight="normal" font-size="12"><line x1="1237.5" y1="1075" x2="1410.70508" y2="1375"/><line x1="1237.5" y1="1075" x2="1064.29492" y2="1375"/><line x1="1410.70508" y1="1175" x2="1237.5" y2="1475"/><line x1="1410.70508" y1="1175" x2="1064.29492" y2="1175"/><line x1="1410.70508" y1="1375" x2="1064.29492" y2="1375"/><line x1="1237.5" y1="1475" x2="1064.29492" y2="1175"/></g><g stroke="#000000" stroke-width="2" stroke-linecap="round" stroke-dasharray="" font-family="sans-serif" font-weight="normal" font-size="12"><line x1="1237.5" y1="1528.57143" x2="1280.80127" y2="1603.57143"/><line x1="1237.5" y1="1528.57143" x2="1194.19873" y2="1603.57143"/><line x1="1280.80127" y1="1553.57143" x2="1237.5" y2="1628.57143"/><line x1="1280.80127" y1="1553.57143" x2="1194.19873" y2="1553.57143"/><line x1="1280.80127" y1="1603.57143" x2="1194.19873" y2="1603.57143"/><line x1="1237.5" y1="1628.57143" x2="1194.19873" y2="1553.57143"/></g><g stroke="#000000" stroke-width="2" stroke-linecap="round" stroke-dasharray="" font-family="sans-serif" font-weight="normal" font-size="12"><line x1="1237.5" y1="1075" x2="1237.5" y2="1475"/><line x1="1410.70508" y1="1175" x2="1064.29492" y2="1375"/><line x1="1410.70508" y1="1375" x2="1064.29492" y2="1175"/></g><g stroke="#000000" stroke-width="2" stroke-linecap="round" stroke-dasharray="" font-family="sans-serif" font-weight="normal" font-size="12"><line x1="1532.14286" y1="1528.57143" x2="1532.14286" y2="1628.57143"/><line x1="1575.44413" y1="1553.57143" x2="1488.84159" y2="1603.57143"/><line x1="1575.44413" y1="1603.57143" x2="1488.84159" y2="1553.57143"/></g><polygon points="0,1700 0,850 825,850 825,1700" stroke="#000000" stroke-width="1" stroke-linecap="butt" stroke-dasharray="1,4" font-family="sans-serif" font-weight="normal" font-size="12"/><text x="382.5" y="1007.42857" fill="#000000" stroke-width="1" stroke-linecap="butt" stroke-dasharray="" font-family="Times" font-weight="bold" font-size="120">7</text><path d="M212.5,1275c0,-110.45695 89.54305,-200 200,-200c110.45695,0 200,89.54305 200,200c0,110.45695 -89.54305,200 -200,200c-110.45695,0 -200,-89.54305 -200,-200z" stroke="#000000" stroke-width="1" stroke-linecap="butt" stroke-dasharray="2,3" font-family="sans-serif" font-weight="normal" font-size="12"/><g stroke="#000000" stroke-width="2" stroke-linecap="round" stroke-dasharray="" font-family="sans-serif" font-weight="normal" font-size="12"><line x1="412.5" y1="1075" x2="568.8663" y2="1150.30204"/><line x1="412.5" y1="1075" x2="256.1337" y2="1150.30204"/><line x1="568.8663" y1="1150.30204" x2="607.48558" y2="1319.50419"/><line x1="607.48558" y1="1319.50419" x2="499.27675" y2="1455.19377"/><line x1="499.27675" y1="1455.19377" x2="325.72325" y2="1455.19377"/><line x1="325.72325" y1="1455.19377" x2="217.51442" y2="1319.50419"/><line x1="217.51442" y1="1319.50419" x2="256.1337" y2="1150.30204"/></g><g stroke="#000000" stroke-width="2" stroke-linecap="round" stroke-dasharray="" font-family="sans-serif" font-weight="normal" font-size="12"><line x1="117.85714" y1="1531.04721" x2="156.94872" y2="1549.87272"/><line x1="117.85714" y1="1531.04721" x2="78.76557" y2="1549.87272"/><line x1="156.94872" y1="1549.87272" x2="166.60354" y2="1592.17325"/><line x1="166.60354" y1="1592.17325" x2="139.55133" y2="1626.09565"/><line x1="139.55133" y1="1626.09565" x2="96.16296" y2="1626.09565"/><line x1="96.16296" y1="1626.09565" x2="69.11075" y2="1592.17325"/><line x1="69.11075" y1="1592.17325" x2="78.76557" y2="1549.87272"/></g><g stroke="#000000" stroke-width="2" stroke-linecap="round" stroke-dasharray="" font-family="sans-serif" font-weight="normal" font-size="12"><line x1="412.5" y1="1075" x2="607.48558" y2="1319.50419"/><line x1="412.5" y1="1075" x2="217.51442" y2="1319.50419"/><line x1="568.8663" y1="1150.30204" x2="499.27675" y2="1455.19377"/><line x1="568.8663" y1="1150.30204" x2="256.1337" y2="1150.30204"/><line x1="607.48558" y1="1319.50419" x2="325.72325" y2="1455.19377"/><line x1="499.27675" y1="1455.19377" x2="217.51442" y2="1319.50419"/><line x1="325.72325" y1="1455.19377" x2="256.1337" y2="1150.30204"/></g><g stroke="#000000" stroke-width="2" stroke-linecap="round" stroke-dasharray="" font-family="sans-serif" font-weight="normal" font-size="12"><line x1="412.5" y1="1531.04721" x2="461.2464" y2="1592.17325"/><line x1="412.5" y1="1531.04721" x2="363.7536" y2="1592.17325"/><line x1="451.59157" y1="1549.87272" x2="434.19419" y2="1626.09565"/><line x1="451.59157" y1="1549.87272" x2="373.40843" y2="1549.87272"/><line x1="461.2464" y1="1592.17325" x2="390.80581" y2="1626.09565"/><line x1="434.19419" y1="1626.09565" x2="363.7536" y2="1592.17325"/><line x1="390.80581" y1="1626.09565" x2="373.40843" y2="1549.87272"/></g><g stroke="#000000" stroke-width="2" stroke-linecap="round" stroke-dasharray="" font-family="sans-serif" font-weight="normal" font-size="12"><line x1="412.5" y1="1075" x2="499.27675" y2="1455.19377"/><line x1="412.5" y1="1075" x2="325.72325" y2="1455.19377"/><line x1="568.8663" y1="1150.30204" x2="325.72325" y2="1455.19377"/><line x1="568.8663" y1="1150.30204" x2="217.51442" y2="1319.50419"/><line x1="607.48558" y1="1319.50419" x2="217.51442" y2="1319.50419"/><line x1="607.48558" y1="1319.50419" x2="256.1337" y2="1150.30204"/><line x1="499.27675" y1="1455.19377" x2="256.1337" y2="1150.30204"/></g><g stroke="#000000" stroke-width="2" stroke-linecap="round" stroke-dasharray="" font-family="sans-serif" font-weight="normal" font-size="12"><line x1="707.14286" y1="1531.04721" x2="728.83704" y2="1626.09565"/><line x1="707.14286" y1="1531.04721" x2="685.44867" y2="1626.09565"/><line x1="746.23443" y1="1549.87272" x2="685.44867" y2="1626.09565"/><line x1="746.23443" y1="1549.87272" x2="658.39646" y2="1592.17325"/><line x1="755.88925" y1="1592.17325" x2="658.39646" y2="1592.17325"/><line x1="755.88925" y1="1592.17325" x2="668.05128" y2="1549.87272"/><line x1="728.83704" y1="1626.09565" x2="668.05128" y2="1549.87272"/></g><polygon points="2475,2550 2475,1700 3300,1700 3300,2550" stroke="#000000" stroke-width="1" stroke-linecap="butt" stroke-dasharray="1,4" font-family="sans-serif" font-weight="normal" font-size="12"/><text x="2857.5" y="1857.42857" fill="#000000" stroke-width="1" stroke-linecap="butt" stroke-dasharray="" font-family="Times" font-weight="bold" font-size="120">8</text><path d="M2687.5,2125c0,-110.45695 89.54305,-200 200,-200c110.45695,0 200,89.54305 200,200c0,110.45695 -89.54305,200 -200,200c-110.45695,0 -200,-89.54305 -200,-200z" stroke="#000000" stroke-width="1" stroke-linecap="butt" stroke-dasharray="2,3" font-family="sans-serif" font-weight="normal" font-size="12"/><g stroke="#000000" stroke-width="2" stroke-linecap="round" stroke-dasharray="" font-family="sans-serif" font-weight="normal" font-size="12"><line x1="2887.5" y1="1925" x2="3028.92136" y2="1983.57864"/><line x1="2887.5" y1="1925" x2="2746.07864" y2="1983.57864"/><line x1="3028.92136" y1="1983.57864" x2="3087.5" y2="2125"/><line x1="3087.5" y1="2125" x2="3028.92136" y2="2266.42136"/><line x1="3028.92136" y1="2266.42136" x2="2887.5" y2="2325"/><line x1="2887.5" y1="2325" x2="2746.07864" y2="2266.42136"/><line x1="2746.07864" y1="2266.42136" x2="2687.5" y2="2125"/><line x1="2687.5" y1="2125" x2="2746.07864" y2="1983.57864"/></g><g stroke="#000000" stroke-width="2" stroke-linecap="round" stroke-dasharray="" font-family="sans-serif" font-weight="normal" font-size="12"><line x1="2592.85714" y1="2378.57143" x2="2628.21248" y2="2393.21609"/><line x1="2592.85714" y1="2378.57143" x2="2557.5018" y2="2393.21609"/><line x1="2628.21248" y1="2393.21609" x2="2642.85714" y2="2428.57143"/><line x1="2642.85714" y1="2428.57143" x2="2628.21248" y2="2463.92677"/><line x1="2628.21248" y1="2463.92677" x2="2592.85714" y2="2478.57143"/><line x1="2592.85714" y1="2478.57143" x2="2557.5018" y2="2463.92677"/><line x1="2557.5018" y1="2463.92677" x2="2542.85714" y2="2428.57143"/><line x1="2542.85714" y1="2428.57143" x2="2557.5018" y2="2393.21609"/></g><g stroke="#000000" stroke-width="2" stroke-linecap="round" stroke-dasharray="" font-family="sans-serif" font-weight="normal" font-size="12"><line x1="2887.5" y1="1925" x2="3087.5" y2="2125"/><line x1="2887.5" y1="1925" x2="2687.5" y2="2125"/><line x1="3028.92136" y1="1983.57864" x2="3028.92136" y2="2266.42136"/><line x1="3028.92136" y1="1983.57864" x2="2746.07864" y2="1983.57864"/><line x1="3087.5" y1="2125" x2="2887.5" y2="2325"/><line x1="3028.92136" y1="2266.42136" x2="2746.07864" y2="2266.42136"/><line x1="2887.5" y1="2325" x2="2687.5" y2="2125"/><line x1="2746.07864" y1="2266.42136" x2="2746.07864" y2="1983.57864"/></g><g stroke="#000000" stroke-width="2" stroke-linecap="round" stroke-dasharray="" font-family="sans-serif" font-weight="normal" font-size="12"><line x1="2789.28571" y1="2378.57143" x2="2839.28571" y2="2428.57143"/><line x1="2789.28571" y1="2378.57143" x2="2739.28571" y2="2428.57143"/><line x1="2824.64105" y1="2393.21609" x2="2824.64105" y2="2463.92677"/><line x1="2824.64105" y1="2393.21609" x2="2753.93038" y2="2393.21609"/><line x1="2839.28571" y1="2428.57143" x2="2789.28571" y2="2478.57143"/><line x1="2824.64105" y1="2463.92677" x2="2753.93038" y2="2463.92677"/><line x1="2789.28571" y1="2478.57143" x2="2739.28571" y2="2428.57143"/><line x1="2753.93038" y1="2463.92677" x2="2753.93038" y2="2393.21609"/></g><g stroke="#000000" stroke-width="2" stroke-linecap="round" stroke-dasharray="" font-family="sans-serif" font-weight="normal" font-size="12"><line x1="2887.5" y1="1925" x2="3028.92136" y2="2266.42136"/><line x1="2887.5" y1="1925" x2="2746.07864" y2="2266.42136"/><line x1="3028.92136" y1="1983.57864" x2="2887.5" y2="2325"/><line x1="3028.92136" y1="1983.57864" x2="2687.5" y2="2125"/><line x1="3087.5" y1="2125" x2="2746.07864" y2="2266.42136"/><line x1="3087.5" y1="2125" x2="2746.07864" y2="1983.57864"/><line x1="3028.92136" y1="2266.42136" x2="2687.5" y2="2125"/><line x1="2887.5" y1="2325" x2="2746.07864" y2="1983.57864"/></g><g stroke="#000000" stroke-width="2" stroke-linecap="round" stroke-dasharray="" font-family="sans-serif" font-weight="normal" font-size="12"><line x1="2985.71429" y1="2378.57143" x2="3021.06962" y2="2463.92677"/><line x1="2985.71429" y1="2378.57143" x2="2950.35895" y2="2463.92677"/><line x1="3021.06962" y1="2393.21609" x2="2985.71429" y2="2478.57143"/><line x1="3021.06962" y1="2393.21609" x2="2935.71429" y2="2428.57143"/><line x1="3035.71429" y1="2428.57143" x2="2950.35895" y2="2463.92677"/><line x1="3035.71429" y1="2428.57143" x2="2950.35895" y2="2393.21609"/><line x1="3021.06962" y1="2463.92677" x2="2935.71429" y2="2428.57143"/><line x1="2985.71429" y1="2478.57143" x2="2950.35895" y2="2393.21609"/></g><g stroke="#000000" stroke-width="2" stroke-linecap="round" stroke-dasharray="" font-family="sans-serif" font-weight="normal" font-size="12"><line x1="2887.5" y1="1925" x2="2887.5" y2="2325"/><line x1="3028.92136" y1="1983.57864" x2="2746.07864" y2="2266.42136"/><line x1="3087.5" y1="2125" x2="2687.5" y2="2125"/><line x1="3028.92136" y1="2266.42136" x2="2746.07864" y2="1983.57864"/></g><g stroke="#000000" stroke-width="2" stroke-linecap="round" stroke-dasharray="" font-family="sans-serif" font-weight="normal" font-size="12"><line x1="3182.14286" y1="2378.57143" x2="3182.14286" y2="2478.57143"/><line x1="3217.4982" y1="2393.21609" x2="3146.78752" y2="2463.92677"/><line x1="3232.14286" y1="2428.57143" x2="3132.14286" y2="2428.57143"/><line x1="3217.4982" y1="2463.92677" x2="3146.78752" y2="2393.21609"/></g><polygon points="1650,2550 1650,1700 2475,1700 2475,2550" stroke="#000000" stroke-width="1" stroke-linecap="butt" stroke-dasharray="1,4" font-family="sans-serif" font-weight="normal" font-size="12"/><text x="2032.5" y="1857.42857" fill="#000000" stroke-width="1" stroke-linecap="butt" stroke-dasharray="" font-family="Times" font-weight="bold" font-size="120">9</text><path d="M1862.5,2125c0,-110.45695 89.54305,-200 200,-200c110.45695,0 200,89.54305 200,200c0,110.45695 -89.54305,200 -200,200c-110.45695,0 -200,-89.54305 -200,-200z" stroke="#000000" stroke-width="1" stroke-linecap="butt" stroke-dasharray="2,3" font-family="sans-serif" font-weight="normal" font-size="12"/><g stroke="#000000" stroke-width="2" stroke-linecap="round" stroke-dasharray="" font-family="sans-serif" font-weight="normal" font-size="12"><line x1="2062.5" y1="1925" x2="2191.05752" y2="1971.79111"/><line x1="2062.5" y1="1925" x2="1933.94248" y2="1971.79111"/><line x1="2191.05752" y1="1971.79111" x2="2259.46155" y2="2090.27036"/><line x1="2259.46155" y1="2090.27036" x2="2235.70508" y2="2225"/><line x1="2235.70508" y1="2225" x2="2130.90403" y2="2312.93852"/><line x1="2130.90403" y1="2312.93852" x2="1994.09597" y2="2312.93852"/><line x1="1994.09597" y1="2312.93852" x2="1889.29492" y2="2225"/><line x1="1889.29492" y1="2225" x2="1865.53845" y2="2090.27036"/><line x1="1865.53845" y1="2090.27036" x2="1933.94248" y2="1971.79111"/></g><g stroke="#000000" stroke-width="2" stroke-linecap="round" stroke-dasharray="" font-family="sans-serif" font-weight="normal" font-size="12"><line x1="1767.85714" y1="2380.07911" x2="1799.99652" y2="2391.77689"/><line x1="1767.85714" y1="2380.07911" x2="1735.71776" y2="2391.77689"/><line x1="1799.99652" y1="2391.77689" x2="1817.09753" y2="2421.3967"/><line x1="1817.09753" y1="2421.3967" x2="1811.15841" y2="2455.07911"/><line x1="1811.15841" y1="2455.07911" x2="1784.95815" y2="2477.06374"/><line x1="1784.95815" y1="2477.06374" x2="1750.75614" y2="2477.06374"/><line x1="1750.75614" y1="2477.06374" x2="1724.55587" y2="2455.07911"/><line x1="1724.55587" y1="2455.07911" x2="1718.61676" y2="2421.3967"/><line x1="1718.61676" y1="2421.3967" x2="1735.71776" y2="2391.77689"/></g><g stroke="#000000" stroke-width="2" stroke-linecap="round" stroke-dasharray="" font-family="sans-serif" font-weight="normal" font-size="12"><line x1="2062.5" y1="1925" x2="2259.46155" y2="2090.27036"/><line x1="2062.5" y1="1925" x2="1865.53845" y2="2090.27036"/><line x1="2191.05752" y1="1971.79111" x2="2235.70508" y2="2225"/><line x1="2191.05752" y1="1971.79111" x2="1933.94248" y2="1971.79111"/><line x1="2259.46155" y1="2090.27036" x2="2130.90403" y2="2312.93852"/><line x1="2235.70508" y1="2225" x2="1994.09597" y2="2312.93852"/><line x1="2130.90403" y1="2312.93852" x2="1889.29492" y2="2225"/><line x1="1994.09597" y1="2312.93852" x2="1865.53845" y2="2090.27036"/><line x1="1889.29492" y1="2225" x2="1933.94248" y2="1971.79111"/></g><g stroke="#000000" stroke-width="2" stroke-linecap="round" stroke-dasharray="" font-family="sans-serif" font-weight="normal" font-size="12"><line x1="1964.28571" y1="2380.07911" x2="2013.5261" y2="2421.3967"/><line x1="1964.28571" y1="2380.07911" x2="1915.04533" y2="2421.3967"/><line x1="1996.42509" y1="2391.77689" x2="2007.58698" y2="2455.07911"/><line x1="1996.42509" y1="2391.77689" x2="1932.14633" y2="2391.77689"/><line x1="2013.5261" y1="2421.3967" x2="1981.38672" y2="2477.06374"/><line x1="2007.58698" y1="2455.07911" x2="1947.18471" y2="2477.06374"/><line x1="1981.38672" y1="2477.06374" x2="1920.98444" y2="2455.07911"/><line x1="1947.18471" y1="2477.06374" x2="1915.04533" y2="2421.3967"/><line x1="1920.98444" y1="2455.07911" x2="1932.14633" y2="2391.77689"/></g><g stroke="#000000" stroke-width="2" stroke-linecap="round" stroke-dasharray="" font-family="sans-serif" font-weight="normal" font-size="12"><line x1="2062.5" y1="1925" x2="2235.70508" y2="2225"/><line x1="2062.5" y1="1925" x2="1889.29492" y2="2225"/><line x1="2191.05752" y1="1971.79111" x2="2130.90403" y2="2312.93852"/><line x1="2191.05752" y1="1971.79111" x2="1865.53845" y2="2090.27036"/><line x1="2259.46155" y1="2090.27036" x2="1994.09597" y2="2312.93852"/><line x1="2259.46155" y1="2090.27036" x2="1933.94248" y2="1971.79111"/><line x1="2235.70508" y1="2225" x2="1889.29492" y2="2225"/><line x1="2130.90403" y1="2312.93852" x2="1865.53845" y2="2090.27036"/><line x1="1994.09597" y1="2312.93852" x2="1933.94248" y2="1971.79111"/></g><g stroke="#000000" stroke-width="2" stroke-linecap="round" stroke-dasharray="" font-family="sans-serif" font-weight="normal" font-size="12"><line x1="2160.71429" y1="2380.07911" x2="2204.01556" y2="2455.07911"/><line x1="2160.71429" y1="2380.07911" x2="2117.41302" y2="2455.07911"/><line x1="2192.85367" y1="2391.77689" x2="2177.81529" y2="2477.06374"/><line x1="2192.85367" y1="2391.77689" x2="2111.4739" y2="2421.3967"/><line x1="2209.95467" y1="2421.3967" x2="2143.61328" y2="2477.06374"/><line x1="2209.95467" y1="2421.3967" x2="2128.57491" y2="2391.77689"/><line x1="2204.01556" y1="2455.07911" x2="2117.41302" y2="2455.07911"/><line x1="2177.81529" y1="2477.06374" x2="2111.4739" y2="2421.3967"/><line x1="2143.61328" y1="2477.06374" x2="2128.57491" y2="2391.77689"/></g><g stroke="#000000" stroke-width="2" stroke-linecap="round" stroke-dasharray="" font-family="sans-serif" font-weight="normal" font-size="12"><line x1="2062.5" y1="1925" x2="2130.90403" y2="2312.93852"/><line x1="2062.5" y1="1925" x2="1994.09597" y2="2312.93852"/><line x1="2191.05752" y1="1971.79111" x2="1994.09597" y2="2312.93852"/><line x1="2191.05752" y1="1971.79111" x2="1889.29492" y2="2225"/><line x1="2259.46155" y1="2090.27036" x2="1889.29492" y2="2225"/><line x1="2259.46155" y1="2090.27036" x2="1865.53845" y2="2090.27036"/><line x1="2235.70508" y1="2225" x2="1865.53845" y2="2090.27036"/><line x1="2235.70508" y1="2225" x2="1933.94248" y2="1971.79111"/><line x1="2130.90403" y1="2312.93852" x2="1933.94248" y2="1971.79111"/></g><g stroke="#000000" stroke-width="2" stroke-linecap="round" stroke-dasharray="" font-family="sans-serif" font-weight="normal" font-size="12"><line x1="2357.14286" y1="2380.07911" x2="2374.24386" y2="2477.06374"/><line x1="2357.14286" y1="2380.07911" x2="2340.04185" y2="2477.06374"/><line x1="2389.28224" y1="2391.77689" x2="2340.04185" y2="2477.06374"/><line x1="2389.28224" y1="2391.77689" x2="2313.84159" y2="2455.07911"/><line x1="2406.38324" y1="2421.3967" x2="2313.84159" y2="2455.07911"/><line x1="2406.38324" y1="2421.3967" x2="2307.90247" y2="2421.3967"/><line x1="2400.44413" y1="2455.07911" x2="2307.90247" y2="2421.3967"/><line x1="2400.44413" y1="2455.07911" x2="2325.00348" y2="2391.77689"/><line x1="2374.24386" y1="2477.06374" x2="2325.00348" y2="2391.77689"/></g><polygon points="825,2550 825,1700 1650,1700 1650,2550" stroke="#000000" stroke-width="1" stroke-linecap="butt" stroke-dasharray="1,4" font-family="sans-serif" font-weight="normal" font-size="12"/><text x="1177.5" y="1857.42857" fill="#000000" stroke-width="1" stroke-linecap="butt" stroke-dasharray="" font-family="Times" font-weight="bold" font-size="120">10</text><path d="M1037.5,2125c0,-110.45695 89.54305,-200 200,-200c110.45695,0 200,89.54305 200,200c0,110.45695 -89.54305,200 -200,200c-110.45695,0 -200,-89.54305 -200,-200z" stroke="#000000" stroke-width="1" stroke-linecap="butt" stroke-dasharray="2,3" font-family="sans-serif" font-weight="normal" font-size="12"/><g stroke="#000000" stroke-width="2" stroke-linecap="round" stroke-dasharray="" font-family="sans-serif" font-weight="normal" font-size="12"><line x1="1237.5" y1="1925" x2="1355.05705" y2="1963.1966"/><line x1="1237.5" y1="1925" x2="1119.94295" y2="1963.1966"/><line x1="1355.05705" y1="1963.1966" x2="1427.7113" y2="2063.1966"/><line x1="1427.7113" y1="2063.1966" x2="1427.7113" y2="2186.8034"/><line x1="1427.7113" y1="2186.8034" x2="1355.05705" y2="2286.8034"/><line x1="1355.05705" y1="2286.8034" x2="1237.5" y2="2325"/><line x1="1237.5" y1="2325" x2="1119.94295" y2="2286.8034"/><line x1="1119.94295" y1="2286.8034" x2="1047.2887" y2="2186.8034"/><line x1="1047.2887" y1="2186.8034" x2="1047.2887" y2="2063.1966"/><line x1="1047.2887" y1="2063.1966" x2="1119.94295" y2="1963.1966"/></g><g stroke="#000000" stroke-width="2" stroke-linecap="round" stroke-dasharray="" font-family="sans-serif" font-weight="normal" font-size="12"><line x1="942.85714" y1="2378.57143" x2="972.24641" y2="2388.12058"/><line x1="942.85714" y1="2378.57143" x2="913.46788" y2="2388.12058"/><line x1="972.24641" y1="2388.12058" x2="990.40997" y2="2413.12058"/><line x1="990.40997" y1="2413.12058" x2="990.40997" y2="2444.02228"/><line x1="990.40997" y1="2444.02228" x2="972.24641" y2="2469.02228"/><line x1="972.24641" y1="2469.02228" x2="942.85714" y2="2478.57143"/><line x1="942.85714" y1="2478.57143" x2="913.46788" y2="2469.02228"/><line x1="913.46788" y1="2469.02228" x2="895.30432" y2="2444.02228"/><line x1="895.30432" y1="2444.02228" x2="895.30432" y2="2413.12058"/><line x1="895.30432" y1="2413.12058" x2="913.46788" y2="2388.12058"/></g><g stroke="#000000" stroke-width="2" stroke-linecap="round" stroke-dasharray="" font-family="sans-serif" font-weight="normal" font-size="12"><line x1="1237.5" y1="1925" x2="1427.7113" y2="2063.1966"/><line x1="1237.5" y1="1925" x2="1047.2887" y2="2063.1966"/><line x1="1355.05705" y1="1963.1966" x2="1427.7113" y2="2186.8034"/><line x1="1355.05705" y1="1963.1966" x2="1119.94295" y2="1963.1966"/><line x1="1427.7113" y1="2063.1966" x2="1355.05705" y2="2286.8034"/><line x1="1427.7113" y1="2186.8034" x2="1237.5" y2="2325"/><line x1="1355.05705" y1="2286.8034" x2="1119.94295" y2="2286.8034"/><line x1="1237.5" y1="2325" x2="1047.2887" y2="2186.8034"/><line x1="1119.94295" y1="2286.8034" x2="1047.2887" y2="2063.1966"/><line x1="1047.2887" y1="2186.8034" x2="1119.94295" y2="1963.1966"/></g><g stroke="#000000" stroke-width="2" stroke-linecap="round" stroke-dasharray="" font-family="sans-serif" font-weight="normal" font-size="12"><line x1="1090.17857" y1="2378.57143" x2="1137.7314" y2="2413.12058"/><line x1="1090.17857" y1="2378.57143" x2="1042.62575" y2="2413.12058"/><line x1="1119.56783" y1="2388.12058" x2="1137.7314" y2="2444.02228"/><line x1="1119.56783" y1="2388.12058" x2="1060.78931" y2="2388.12058"/><line x1="1137.7314" y1="2413.12058" x2="1119.56783" y2="2469.02228"/><line x1="1137.7314" y1="2444.02228" x2="1090.17857" y2="2478.57143"/><line x1="1119.56783" y1="2469.02228" x2="1060.78931" y2="2469.02228"/><line x1="1090.17857" y1="2478.57143" x2="1042.62575" y2="2444.02228"/><line x1="1060.78931" y1="2469.02228" x2="1042.62575" y2="2413.12058"/><line x1="1042.62575" y1="2444.02228" x2="1060.78931" y2="2388.12058"/></g><g stroke="#000000" stroke-width="2" stroke-linecap="round" stroke-dasharray="" font-family="sans-serif" font-weight="normal" font-size="12"><line x1="1237.5" y1="1925" x2="1427.7113" y2="2186.8034"/><line x1="1237.5" y1="1925" x2="1047.2887" y2="2186.8034"/><line x1="1355.05705" y1="1963.1966" x2="1355.05705" y2="2286.8034"/><line x1="1355.05705" y1="1963.1966" x2="1047.2887" y2="2063.1966"/><line x1="1427.7113" y1="2063.1966" x2="1237.5" y2="2325"/><line x1="1427.7113" y1="2063.1966" x2="1119.94295" y2="1963.1966"/><line x1="1427.7113" y1="2186.8034" x2="1119.94295" y2="2286.8034"/><line x1="1355.05705" y1="2286.8034" x2="1047.2887" y2="2186.8034"/><line x1="1237.5" y1="2325" x2="1047.2887" y2="2063.1966"/><line x1="1119.94295" y1="2286.8034" x2="1119.94295" y2="1963.1966"/></g><g stroke="#000000" stroke-width="2" stroke-linecap="round" stroke-dasharray="" font-family="sans-serif" font-weight="normal" font-size="12"><line x1="1237.5" y1="2378.57143" x2="1285.05283" y2="2444.02228"/><line x1="1237.5" y1="2378.57143" x2="1189.94717" y2="2444.02228"/><line x1="1266.88926" y1="2388.12058" x2="1266.88926" y2="2469.02228"/><line x1="1266.88926" y1="2388.12058" x2="1189.94717" y2="2413.12058"/><line x1="1285.05283" y1="2413.12058" x2="1237.5" y2="2478.57143"/><line x1="1285.05283" y1="2413.12058" x2="1208.11074" y2="2388.12058"/><line x1="1285.05283" y1="2444.02228" x2="1208.11074" y2="2469.02228"/><line x1="1266.88926" y1="2469.02228" x2="1189.94717" y2="2444.02228"/><line x1="1237.5" y1="2478.57143" x2="1189.94717" y2="2413.12058"/><line x1="1208.11074" y1="2469.02228" x2="1208.11074" y2="2388.12058"/></g><g stroke="#000000" stroke-width="2" stroke-linecap="round" stroke-dasharray="" font-family="sans-serif" font-weight="normal" font-size="12"><line x1="1237.5" y1="1925" x2="1355.05705" y2="2286.8034"/><line x1="1237.5" y1="1925" x2="1119.94295" y2="2286.8034"/><line x1="1355.05705" y1="1963.1966" x2="1237.5" y2="2325"/><line x1="1355.05705" y1="1963.1966" x2="1047.2887" y2="2186.8034"/><line x1="1427.7113" y1="2063.1966" x2="1119.94295" y2="2286.8034"/><line x1="1427.7113" y1="2063.1966" x2="1047.2887" y2="2063.1966"/><line x1="1427.7113" y1="2186.8034" x2="1047.2887" y2="2186.8034"/><line x1="1427.7113" y1="2186.8034" x2="1119.94295" y2="1963.1966"/><line x1="1355.05705" y1="2286.8034" x2="1047.2887" y2="2063.1966"/><line x1="1237.5" y1="2325" x2="1119.94295" y2="1963.1966"/></g><g stroke="#000000" stroke-width="2" stroke-linecap="round" stroke-dasharray="" font-family="sans-serif" font-weight="normal" font-size="12"><line x1="1384.82143" y1="2378.57143" x2="1414.21069" y2="2469.02228"/><line x1="1384.82143" y1="2378.57143" x2="1355.43217" y2="2469.02228"/><line x1="1414.21069" y1="2388.12058" x2="1384.82143" y2="2478.57143"/><line x1="1414.21069" y1="2388.12058" x2="1337.2686" y2="2444.02228"/><line x1="1432.37425" y1="2413.12058" x2="1355.43217" y2="2469.02228"/><line x1="1432.37425" y1="2413.12058" x2="1337.2686" y2="2413.12058"/><line x1="1432.37425" y1="2444.02228" x2="1337.2686" y2="2444.02228"/><line x1="1432.37425" y1="2444.02228" x2="1355.43217" y2="2388.12058"/><line x1="1414.21069" y1="2469.02228" x2="1337.2686" y2="2413.12058"/><line x1="1384.82143" y1="2478.57143" x2="1355.43217" y2="2388.12058"/></g><g stroke="#000000" stroke-width="2" stroke-linecap="round" stroke-dasharray="" font-family="sans-serif" font-weight="normal" font-size="12"><line x1="1237.5" y1="1925" x2="1237.5" y2="2325"/><line x1="1355.05705" y1="1963.1966" x2="1119.94295" y2="2286.8034"/><line x1="1427.7113" y1="2063.1966" x2="1047.2887" y2="2186.8034"/><line x1="1427.7113" y1="2186.8034" x2="1047.2887" y2="2063.1966"/><line x1="1355.05705" y1="2286.8034" x2="1119.94295" y2="1963.1966"/></g><g stroke="#000000" stroke-width="2" stroke-linecap="round" stroke-dasharray="" font-family="sans-serif" font-weight="normal" font-size="12"><line x1="1532.14286" y1="2378.57143" x2="1532.14286" y2="2478.57143"/><line x1="1561.53212" y1="2388.12058" x2="1502.75359" y2="2469.02228"/><line x1="1579.69568" y1="2413.12058" x2="1484.59003" y2="2444.02228"/><line x1="1579.69568" y1="2444.02228" x2="1484.59003" y2="2413.12058"/><line x1="1561.53212" y1="2469.02228" x2="1502.75359" y2="2388.12058"/></g><polygon points="0,2550 0,1700 825,1700 825,2550" stroke="#000000" stroke-width="1" stroke-linecap="butt" stroke-dasharray="1,4" font-family="sans-serif" font-weight="normal" font-size="12"/><text x="355.78125" y="1857.42857" fill="#000000" stroke-width="1" stroke-linecap="butt" stroke-dasharray="" font-family="Times" font-weight="bold" font-size="120">11</text><path d="M212.5,2125c0,-110.45695 89.54305,-200 200,-200c110.45695,0 200,89.54305 200,200c0,110.45695 -89.54305,200 -200,200c-110.45695,0 -200,-89.54305 -200,-200z" stroke="#000000" stroke-width="1" stroke-linecap="butt" stroke-dasharray="2,3" font-family="sans-serif" font-weight="normal" font-size="12"/><g stroke="#000000" stroke-width="2" stroke-linecap="round" stroke-dasharray="" font-family="sans-serif" font-weight="normal" font-size="12"><line x1="412.5" y1="1925" x2="520.62816" y2="1956.74929"/><line x1="412.5" y1="1925" x2="304.37184" y2="1956.74929"/><line x1="520.62816" y1="1956.74929" x2="594.4264" y2="2041.917"/><line x1="594.4264" y1="2041.917" x2="610.46429" y2="2153.46297"/><line x1="610.46429" y1="2153.46297" x2="563.64991" y2="2255.97215"/><line x1="563.64991" y1="2255.97215" x2="468.84651" y2="2316.89859"/><line x1="468.84651" y1="2316.89859" x2="356.15349" y2="2316.89859"/><line x1="356.15349" y1="2316.89859" x2="261.35009" y2="2255.97215"/><line x1="261.35009" y1="2255.97215" x2="214.53571" y2="2153.46297"/><line x1="214.53571" y1="2153.46297" x2="230.5736" y2="2041.917"/><line x1="230.5736" y1="2041.917" x2="304.37184" y2="1956.74929"/></g><g stroke="#000000" stroke-width="2" stroke-linecap="round" stroke-dasharray="" font-family="sans-serif" font-weight="normal" font-size="12"><line x1="117.85714" y1="2379.5841" x2="144.88918" y2="2387.52143"/><line x1="117.85714" y1="2379.5841" x2="90.8251" y2="2387.52143"/><line x1="144.88918" y1="2387.52143" x2="163.33874" y2="2408.81335"/><line x1="163.33874" y1="2408.81335" x2="167.34821" y2="2436.69985"/><line x1="167.34821" y1="2436.69985" x2="155.64462" y2="2462.32714"/><line x1="155.64462" y1="2462.32714" x2="131.94377" y2="2477.55875"/><line x1="131.94377" y1="2477.55875" x2="103.77052" y2="2477.55875"/><line x1="103.77052" y1="2477.55875" x2="80.06966" y2="2462.32714"/><line x1="80.06966" y1="2462.32714" x2="68.36607" y2="2436.69985"/><line x1="68.36607" y1="2436.69985" x2="72.37554" y2="2408.81335"/><line x1="72.37554" y1="2408.81335" x2="90.8251" y2="2387.52143"/></g><g stroke="#000000" stroke-width="2" stroke-linecap="round" stroke-dasharray="" font-family="sans-serif" font-weight="normal" font-size="12"><line x1="412.5" y1="1925" x2="594.4264" y2="2041.917"/><line x1="412.5" y1="1925" x2="230.5736" y2="2041.917"/><line x1="520.62816" y1="1956.74929" x2="610.46429" y2="2153.46297"/><line x1="520.62816" y1="1956.74929" x2="304.37184" y2="1956.74929"/><line x1="594.4264" y1="2041.917" x2="563.64991" y2="2255.97215"/><line x1="610.46429" y1="2153.46297" x2="468.84651" y2="2316.89859"/><line x1="563.64991" y1="2255.97215" x2="356.15349" y2="2316.89859"/><line x1="468.84651" y1="2316.89859" x2="261.35009" y2="2255.97215"/><line x1="356.15349" y1="2316.89859" x2="214.53571" y2="2153.46297"/><line x1="261.35009" y1="2255.97215" x2="230.5736" y2="2041.917"/><line x1="214.53571" y1="2153.46297" x2="304.37184" y2="1956.74929"/></g><g stroke="#000000" stroke-width="2" stroke-linecap="round" stroke-dasharray="" font-family="sans-serif" font-weight="normal" font-size="12"><line x1="265.17857" y1="2379.5841" x2="310.66017" y2="2408.81335"/><line x1="265.17857" y1="2379.5841" x2="219.69697" y2="2408.81335"/><line x1="292.21061" y1="2387.52143" x2="314.66964" y2="2436.69985"/><line x1="292.21061" y1="2387.52143" x2="238.14653" y2="2387.52143"/><line x1="310.66017" y1="2408.81335" x2="302.96605" y2="2462.32714"/><line x1="314.66964" y1="2436.69985" x2="279.2652" y2="2477.55875"/><line x1="302.96605" y1="2462.32714" x2="251.09194" y2="2477.55875"/><line x1="279.2652" y1="2477.55875" x2="227.39109" y2="2462.32714"/><line x1="251.09194" y1="2477.55875" x2="215.6875" y2="2436.69985"/><line x1="227.39109" y1="2462.32714" x2="219.69697" y2="2408.81335"/><line x1="215.6875" y1="2436.69985" x2="238.14653" y2="2387.52143"/></g><g stroke="#000000" stroke-width="2" stroke-linecap="round" stroke-dasharray="" font-family="sans-serif" font-weight="normal" font-size="12"><line x1="412.5" y1="1925" x2="610.46429" y2="2153.46297"/><line x1="412.5" y1="1925" x2="214.53571" y2="2153.46297"/><line x1="520.62816" y1="1956.74929" x2="563.64991" y2="2255.97215"/><line x1="520.62816" y1="1956.74929" x2="230.5736" y2="2041.917"/><line x1="594.4264" y1="2041.917" x2="468.84651" y2="2316.89859"/><line x1="594.4264" y1="2041.917" x2="304.37184" y2="1956.74929"/><line x1="610.46429" y1="2153.46297" x2="356.15349" y2="2316.89859"/><line x1="563.64991" y1="2255.97215" x2="261.35009" y2="2255.97215"/><line x1="468.84651" y1="2316.89859" x2="214.53571" y2="2153.46297"/><line x1="356.15349" y1="2316.89859" x2="230.5736" y2="2041.917"/><line x1="261.35009" y1="2255.97215" x2="304.37184" y2="1956.74929"/></g><g stroke="#000000" stroke-width="2" stroke-linecap="round" stroke-dasharray="" font-family="sans-serif" font-weight="normal" font-size="12"><line x1="412.5" y1="2379.5841" x2="461.99107" y2="2436.69985"/><line x1="412.5" y1="2379.5841" x2="363.00893" y2="2436.69985"/><line x1="439.53204" y1="2387.52143" x2="450.28748" y2="2462.32714"/><line x1="439.53204" y1="2387.52143" x2="367.0184" y2="2408.81335"/><line x1="457.9816" y1="2408.81335" x2="426.58663" y2="2477.55875"/><line x1="457.9816" y1="2408.81335" x2="385.46796" y2="2387.52143"/><line x1="461.99107" y1="2436.69985" x2="398.41337" y2="2477.55875"/><line x1="450.28748" y1="2462.32714" x2="374.71252" y2="2462.32714"/><line x1="426.58663" y1="2477.55875" x2="363.00893" y2="2436.69985"/><line x1="398.41337" y1="2477.55875" x2="367.0184" y2="2408.81335"/><line x1="374.71252" y1="2462.32714" x2="385.46796" y2="2387.52143"/></g><g stroke="#000000" stroke-width="2" stroke-linecap="round" stroke-dasharray="" font-family="sans-serif" font-weight="normal" font-size="12"><line x1="412.5" y1="1925" x2="563.64991" y2="2255.97215"/><line x1="412.5" y1="1925" x2="261.35009" y2="2255.97215"/><line x1="520.62816" y1="1956.74929" x2="468.84651" y2="2316.89859"/><line x1="520.62816" y1="1956.74929" x2="214.53571" y2="2153.46297"/><line x1="594.4264" y1="2041.917" x2="356.15349" y2="2316.89859"/><line x1="594.4264" y1="2041.917" x2="230.5736" y2="2041.917"/><line x1="610.46429" y1="2153.46297" x2="261.35009" y2="2255.97215"/><line x1="610.46429" y1="2153.46297" x2="304.37184" y2="1956.74929"/><line x1="563.64991" y1="2255.97215" x2="214.53571" y2="2153.46297"/><line x1="468.84651" y1="2316.89859" x2="230.5736" y2="2041.917"/><line x1="356.15349" y1="2316.89859" x2="304.37184" y2="1956.74929"/></g><g stroke="#000000" stroke-width="2" stroke-linecap="round" stroke-dasharray="" font-family="sans-serif" font-weight="normal" font-size="12"><line x1="559.82143" y1="2379.5841" x2="597.60891" y2="2462.32714"/><line x1="559.82143" y1="2379.5841" x2="522.03395" y2="2462.32714"/><line x1="586.85347" y1="2387.52143" x2="573.90806" y2="2477.55875"/><line x1="586.85347" y1="2387.52143" x2="510.33036" y2="2436.69985"/><line x1="605.30303" y1="2408.81335" x2="545.7348" y2="2477.55875"/><line x1="605.30303" y1="2408.81335" x2="514.33983" y2="2408.81335"/><line x1="609.3125" y1="2436.69985" x2="522.03395" y2="2462.32714"/><line x1="609.3125" y1="2436.69985" x2="532.78939" y2="2387.52143"/><line x1="597.60891" y1="2462.32714" x2="510.33036" y2="2436.69985"/><line x1="573.90806" y1="2477.55875" x2="514.33983" y2="2408.81335"/><line x1="545.7348" y1="2477.55875" x2="532.78939" y2="2387.52143"/></g><g stroke="#000000" stroke-width="2" stroke-linecap="round" stroke-dasharray="" font-family="sans-serif" font-weight="normal" font-size="12"><line x1="412.5" y1="1925" x2="468.84651" y2="2316.89859"/><line x1="412.5" y1="1925" x2="356.15349" y2="2316.89859"/><line x1="520.62816" y1="1956.74929" x2="356.15349" y2="2316.89859"/><line x1="520.62816" y1="1956.74929" x2="261.35009" y2="2255.97215"/><line x1="594.4264" y1="2041.917" x2="261.35009" y2="2255.97215"/><line x1="594.4264" y1="2041.917" x2="214.53571" y2="2153.46297"/><line x1="610.46429" y1="2153.46297" x2="214.53571" y2="2153.46297"/><line x1="610.46429" y1="2153.46297" x2="230.5736" y2="2041.917"/><line x1="563.64991" y1="2255.97215" x2="230.5736" y2="2041.917"/><line x1="563.64991" y1="2255.97215" x2="304.37184" y2="1956.74929"/><line x1="468.84651" y1="2316.89859" x2="304.37184" y2="1956.74929"/></g><g stroke="#000000" stroke-width="2" stroke-linecap="round" stroke-dasharray="" font-family="sans-serif" font-weight="normal" font-size="12"><line x1="707.14286" y1="2379.5841" x2="721.22948" y2="2477.55875"/><line x1="707.14286" y1="2379.5841" x2="693.05623" y2="2477.55875"/><line x1="734.1749" y1="2387.52143" x2="693.05623" y2="2477.55875"/><line x1="734.1749" y1="2387.52143" x2="669.35538" y2="2462.32714"/><line x1="752.62446" y1="2408.81335" x2="669.35538" y2="2462.32714"/><line x1="752.62446" y1="2408.81335" x2="657.65179" y2="2436.69985"/><line x1="756.63393" y1="2436.69985" x2="657.65179" y2="2436.69985"/><line x1="756.63393" y1="2436.69985" x2="661.66126" y2="2408.81335"/><line x1="744.93034" y1="2462.32714" x2="661.66126" y2="2408.81335"/><line x1="744.93034" y1="2462.32714" x2="680.11082" y2="2387.52143"/><line x1="721.22948" y1="2477.55875" x2="680.11082" y2="2387.52143"/></g></g></svg>