<svg x="0" y="0" width="1100" height="850" version="1.1" xmlns="http://www.w3.org/2000/svg" xmlns:xlink="http://www.w3.org/1999/xlink"><g fill="none" stroke="none" stroke-width="none" stroke-linecap="none" stroke-linejoin="miter" stroke-miterlimit="10" stroke-dasharray="" stroke-dashoffset="0" font-family="sans-serif" font-size="12" text-anchor="start" mix-blend-mode="normal"><rect x="570" y="25" width="510" height="800" fill="#000000" stroke-width="1" stroke-linecap="butt"/><g stroke-width="1" stroke-linecap="butt"/><rect x="-670" y="-224.28571" transform="rotate(180)" width="34" height="15.71429" stroke="#000000" stroke-width="0.5" stroke-linecap="butt" opacity="0"/><g stroke="#ffffff" stroke-width="0.5" stroke-linecap="round"><circle cx="-653" cy="-216.42857" transform="rotate(180)" r="20" data-paper-data="{&quot;index&quot;:0}"/></g><rect x="-670" y="-432.85714" transform="rotate(180)" width="34" height="15.71429" stroke="#000000" stroke-width="0.5" stroke-linecap="butt" opacity="0"/><g stroke="#ffffff" stroke-width="0.5" stroke-linecap="round"><circle cx="-653" cy="-425" transform="rotate(180)" r="20" data-paper-data="{&quot;index&quot;:0}" opacity="0"/><circle cx="653" cy="425" r="1.5" fill="#ffffff"/></g><rect x="-670" y="-537.14286" transform="rotate(180)" width="34" height="15.71429" stroke="#000000" stroke-width="0.5" stroke-linecap="butt" opacity="0"/><g stroke="#ffffff" stroke-width="0.5" stroke-linecap="round"><circle cx="-653" cy="-529.28571" transform="rotate(180)" r="20" data-paper-data="{&quot;index&quot;:0}" opacity="0"/></g><rect x="-756" y="-537.14286" transform="rotate(180)" width="34" height="15.71429" stroke="#000000" stroke-width="0.5" stroke-linecap="butt" opacity="0"/><g stroke="#ffffff" stroke-width="0.5" stroke-linecap="round"><circle cx="-739" cy="-529.28571" transform="rotate(180)" r="20" data-paper-data="{&quot;index&quot;:0}" opacity="0"/></g><rect x="-842" y="-537.14286" transform="rotate(180)" width="34" height="15.71429" stroke="#000000" stroke-width="0.5" stroke-linecap="butt" opacity="0"/><g stroke="#ffffff" stroke-width="0.5" stroke-linecap="round"><circle cx="-825" cy="-529.28571" transform="rotate(180)" r="20" data-paper-data="{&quot;index&quot;:0}" opacity="0"/></g><rect x="-928" y="-537.14286" transform="rotate(180)" width="34" height="15.71429" stroke="#000000" stroke-width="0.5" stroke-linecap="butt" opacity="0"/><g stroke="#ffffff" stroke-width="0.5" stroke-linecap="round"><circle cx="-911" cy="-529.28571" transform="rotate(180)" r="20" data-paper-data="{&quot;index&quot;:0}" opacity="0"/></g><rect x="-1014" y="-537.14286" transform="rotate(180)" width="34" height="15.71429" stroke="#000000" stroke-width="0.5" stroke-linecap="butt" opacity="0"/><g stroke="#ffffff" stroke-width="0.5" stroke-linecap="round"><circle cx="-997" cy="-529.28571" transform="rotate(180)" r="20" data-paper-data="{&quot;index&quot;:0}" opacity="0"/></g><rect x="-670" y="-641.42857" transform="rotate(180)" width="34" height="15.71429" stroke="#000000" stroke-width="0.5" stroke-linecap="butt" opacity="0"/><g stroke="#ffffff" stroke-width="0.5" stroke-linecap="round"><circle cx="-653" cy="-633.57143" transform="rotate(180)" r="20" data-paper-data="{&quot;index&quot;:0}" opacity="0"/></g><rect x="-756" y="-641.42857" transform="rotate(180)" width="34" height="15.71429" stroke="#000000" stroke-width="0.5" stroke-linecap="butt" opacity="0"/><g stroke="#ffffff" stroke-width="0.5" stroke-linecap="round"><circle cx="-739" cy="-633.57143" transform="rotate(180)" r="20" data-paper-data="{&quot;index&quot;:0}" opacity="0"/></g><rect x="-842" y="-641.42857" transform="rotate(180)" width="34" height="15.71429" stroke="#000000" stroke-width="0.5" stroke-linecap="butt" opacity="0"/><g stroke="#ffffff" stroke-width="0.5" stroke-linecap="round"><circle cx="-825" cy="-633.57143" transform="rotate(180)" r="20" data-paper-data="{&quot;index&quot;:0}" opacity="0"/></g><rect x="-928" y="-641.42857" transform="rotate(180)" width="34" height="15.71429" stroke="#000000" stroke-width="0.5" stroke-linecap="butt" opacity="0"/><g stroke="#ffffff" stroke-width="0.5" stroke-linecap="round"><circle cx="-911" cy="-633.57143" transform="rotate(180)" r="20" data-paper-data="{&quot;index&quot;:0}" opacity="0"/></g><rect x="-1014" y="-641.42857" transform="rotate(180)" width="34" height="15.71429" stroke="#000000" stroke-width="0.5" stroke-linecap="butt" opacity="0"/><g stroke="#ffffff" stroke-width="0.5" stroke-linecap="round"><circle cx="-997" cy="-633.57143" transform="rotate(180)" r="20" data-paper-data="{&quot;index&quot;:0}" opacity="0"/></g><rect x="-670" y="-745.71429" transform="rotate(180)" width="34" height="15.71429" stroke="#000000" stroke-width="0.5" stroke-linecap="butt" opacity="0"/><g stroke="#ffffff" stroke-width="0.5" stroke-linecap="round"><circle cx="-653" cy="-737.85714" transform="rotate(180)" r="20" data-paper-data="{&quot;index&quot;:0}" opacity="0"/><circle cx="653" cy="737.85714" r="1.5" fill="#ffffff"/><rect x="737.85714" y="-653" transform="rotate(90)" width="0" height="0"/></g><rect x="-756" y="-745.71429" transform="rotate(180)" width="34" height="15.71429" stroke="#000000" stroke-width="0.5" stroke-linecap="butt" opacity="0"/><g stroke="#ffffff" stroke-width="0.5" stroke-linecap="round"><circle cx="-739" cy="-737.85714" transform="rotate(180)" r="20" data-paper-data="{&quot;index&quot;:0}" opacity="0"/></g><rect x="-842" y="-745.71429" transform="rotate(180)" width="34" height="15.71429" stroke="#000000" stroke-width="0.5" stroke-linecap="butt" opacity="0"/><g stroke="#ffffff" stroke-width="0.5" stroke-linecap="round"><circle cx="-825" cy="-737.85714" transform="rotate(180)" r="20" data-paper-data="{&quot;index&quot;:0}" opacity="0"/><circle cx="825" cy="737.85714" r="1.5" fill="#ffffff"/></g><rect x="-928" y="-745.71429" transform="rotate(180)" width="34" height="15.71429" stroke="#000000" stroke-width="0.5" stroke-linecap="butt" opacity="0"/><g stroke="#ffffff" stroke-width="0.5" stroke-linecap="round"><circle cx="-911" cy="-737.85714" transform="rotate(180)" r="20" data-paper-data="{&quot;index&quot;:0}" opacity="0"/></g><rect x="-1014" y="-745.71429" transform="rotate(180)" width="34" height="15.71429" stroke="#000000" stroke-width="0.5" stroke-linecap="butt" opacity="0"/><g stroke="#ffffff" stroke-width="0.5" stroke-linecap="round"><circle cx="-997" cy="-737.85714" transform="rotate(180)" r="20" data-paper-data="{&quot;index&quot;:0}" opacity="0"/><rect x="737.85714" y="-997" transform="rotate(90)" width="0" height="0"/></g></g></svg>