<svg x="0" y="0" width="1100" height="850" version="1.1" xmlns="http://www.w3.org/2000/svg" xmlns:xlink="http://www.w3.org/1999/xlink"><g fill="none" stroke="none" stroke-width="none" stroke-linecap="none" stroke-linejoin="miter" stroke-miterlimit="10" stroke-dasharray="" stroke-dashoffset="0" font-family="sans-serif" font-size="12" text-anchor="start" mix-blend-mode="normal"><rect x="570" y="25" width="510" height="800" fill="#000000" stroke-width="1" stroke-linecap="butt"/><g stroke-width="1" stroke-linecap="butt"/><rect x="-670" y="-224.28571" transform="rotate(180)" width="34" height="15.71429" stroke="#000000" stroke-width="0.5" stroke-linecap="butt" opacity="0"/><g stroke="#ffffff" stroke-width="0.5" stroke-linecap="round"><circle cx="-216.42857" cy="653" transform="rotate(-90)" r="20" data-paper-data="{&quot;index&quot;:0}"/><circle cx="-196.42857" cy="653" transform="rotate(-90)" r="20" data-paper-data="{&quot;index&quot;:1}"/></g><rect x="-670" y="-432.85714" transform="rotate(180)" width="34" height="15.71429" stroke="#000000" stroke-width="0.5" stroke-linecap="butt" opacity="0"/><g stroke="#ffffff" stroke-width="0.5" stroke-linecap="round"><circle cx="-425" cy="653" transform="rotate(-90)" r="20" data-paper-data="{&quot;index&quot;:0}" opacity="0"/><circle cx="-405" cy="653" transform="rotate(-90)" r="20" data-paper-data="{&quot;index&quot;:1}" opacity="0"/><circle cx="653" cy="425" r="1.5" fill="#ffffff"/><circle cx="653" cy="405" r="1.5" fill="#ffffff"/><circle cx="635.67857" cy="415" r="1.5" fill="#ffffff"/><circle cx="670.32143" cy="415" r="1.5" fill="#ffffff"/></g><rect x="-670" y="-537.14286" transform="rotate(180)" width="34" height="15.71429" stroke="#000000" stroke-width="0.5" stroke-linecap="butt" opacity="0"/><g stroke="#ffffff" stroke-width="0.5" stroke-linecap="round"><circle cx="-529.28571" cy="653" transform="rotate(-90)" r="20" data-paper-data="{&quot;index&quot;:0}" opacity="0"/><circle cx="-509.28571" cy="653" transform="rotate(-90)" r="20" data-paper-data="{&quot;index&quot;:1}" opacity="0"/><line x1="653" y1="529.28571" x2="653" y2="509.28571" data-paper-data="{&quot;endpoints&quot;:[[&quot;Point&quot;,653,529.28571],[&quot;Point&quot;,653,509.28571]]}"/><line x1="653" y1="529.28571" x2="635.67857" y2="519.28571" data-paper-data="{&quot;endpoints&quot;:[[&quot;Point&quot;,653,529.28571],[&quot;Point&quot;,635.67857,519.28571]]}"/><line x1="653" y1="529.28571" x2="670.32143" y2="519.28571" data-paper-data="{&quot;endpoints&quot;:[[&quot;Point&quot;,653,529.28571],[&quot;Point&quot;,670.32143,519.28571]]}"/><line x1="653" y1="509.28571" x2="635.67857" y2="519.28571" data-paper-data="{&quot;endpoints&quot;:[[&quot;Point&quot;,653,509.28571],[&quot;Point&quot;,635.67857,519.28571]]}"/><line x1="653" y1="509.28571" x2="670.32143" y2="519.28571" data-paper-data="{&quot;endpoints&quot;:[[&quot;Point&quot;,653,509.28571],[&quot;Point&quot;,670.32143,519.28571]]}"/><line x1="635.67857" y1="519.28571" x2="670.32143" y2="519.28571" data-paper-data="{&quot;endpoints&quot;:[[&quot;Point&quot;,635.67857,519.28571],[&quot;Point&quot;,670.32143,519.28571]]}"/></g><rect x="-756" y="-537.14286" transform="rotate(180)" width="34" height="15.71429" stroke="#000000" stroke-width="0.5" stroke-linecap="butt" opacity="0"/><g stroke="#ffffff" stroke-width="0.5" stroke-linecap="round"><circle cx="-529.28571" cy="739" transform="rotate(-90)" r="20" data-paper-data="{&quot;index&quot;:0}" opacity="0"/><circle cx="-509.28571" cy="739" transform="rotate(-90)" r="20" data-paper-data="{&quot;index&quot;:1}" opacity="0"/><line x1="739" y1="529.28571" x2="739" y2="509.28571" data-paper-data="{&quot;endpoints&quot;:[[&quot;Point&quot;,739,529.28571],[&quot;Point&quot;,739,509.28571]]}" opacity="0"/><line x1="739" y1="529.28571" x2="721.67857" y2="519.28571" data-paper-data="{&quot;endpoints&quot;:[[&quot;Point&quot;,739,529.28571],[&quot;Point&quot;,721.67857,519.28571]]}" opacity="0"/><line x1="739" y1="529.28571" x2="756.32143" y2="519.28571" data-paper-data="{&quot;endpoints&quot;:[[&quot;Point&quot;,739,529.28571],[&quot;Point&quot;,756.32143,519.28571]]}" opacity="0"/><line x1="739" y1="509.28571" x2="721.67857" y2="519.28571" data-paper-data="{&quot;endpoints&quot;:[[&quot;Point&quot;,739,509.28571],[&quot;Point&quot;,721.67857,519.28571]]}" opacity="0"/><line x1="739" y1="509.28571" x2="756.32143" y2="519.28571" data-paper-data="{&quot;endpoints&quot;:[[&quot;Point&quot;,739,509.28571],[&quot;Point&quot;,756.32143,519.28571]]}" opacity="0"/><line x1="721.67857" y1="519.28571" x2="756.32143" y2="519.28571" data-paper-data="{&quot;endpoints&quot;:[[&quot;Point&quot;,721.67857,519.28571],[&quot;Point&quot;,756.32143,519.28571]]}" opacity="0"/></g><rect x="-842" y="-537.14286" transform="rotate(180)" width="34" height="15.71429" stroke="#000000" stroke-width="0.5" stroke-linecap="butt" opacity="0"/><g stroke="#ffffff" stroke-width="0.5" stroke-linecap="round"><circle cx="-529.28571" cy="825" transform="rotate(-90)" r="20" data-paper-data="{&quot;index&quot;:0}" opacity="0"/><circle cx="-509.28571" cy="825" transform="rotate(-90)" r="20" data-paper-data="{&quot;index&quot;:1}" opacity="0"/><line x1="825" y1="529.28571" x2="825" y2="509.28571" data-paper-data="{&quot;endpoints&quot;:[[&quot;Point&quot;,825,529.28571],[&quot;Point&quot;,825,509.28571]]}" opacity="0"/><line x1="825" y1="529.28571" x2="807.67857" y2="519.28571" data-paper-data="{&quot;endpoints&quot;:[[&quot;Point&quot;,825,529.28571],[&quot;Point&quot;,807.67857,519.28571]]}" opacity="0"/><line x1="825" y1="529.28571" x2="842.32143" y2="519.28571" data-paper-data="{&quot;endpoints&quot;:[[&quot;Point&quot;,825,529.28571],[&quot;Point&quot;,842.32143,519.28571]]}" opacity="0"/><line x1="825" y1="509.28571" x2="807.67857" y2="519.28571" data-paper-data="{&quot;endpoints&quot;:[[&quot;Point&quot;,825,509.28571],[&quot;Point&quot;,807.67857,519.28571]]}" opacity="0"/><line x1="825" y1="509.28571" x2="842.32143" y2="519.28571" data-paper-data="{&quot;endpoints&quot;:[[&quot;Point&quot;,825,509.28571],[&quot;Point&quot;,842.32143,519.28571]]}" opacity="0"/><line x1="807.67857" y1="519.28571" x2="842.32143" y2="519.28571" data-paper-data="{&quot;endpoints&quot;:[[&quot;Point&quot;,807.67857,519.28571],[&quot;Point&quot;,842.32143,519.28571]]}" opacity="0"/></g><rect x="-928" y="-537.14286" transform="rotate(180)" width="34" height="15.71429" stroke="#000000" stroke-width="0.5" stroke-linecap="butt" opacity="0"/><g stroke="#ffffff" stroke-width="0.5" stroke-linecap="round"><circle cx="-529.28571" cy="911" transform="rotate(-90)" r="20" data-paper-data="{&quot;index&quot;:0}" opacity="0"/><circle cx="-509.28571" cy="911" transform="rotate(-90)" r="20" data-paper-data="{&quot;index&quot;:1}" opacity="0"/><line x1="911" y1="529.28571" x2="911" y2="509.28571" data-paper-data="{&quot;endpoints&quot;:[[&quot;Point&quot;,911,529.28571],[&quot;Point&quot;,911,509.28571]]}" opacity="0"/><line x1="911" y1="529.28571" x2="893.67857" y2="519.28571" data-paper-data="{&quot;endpoints&quot;:[[&quot;Point&quot;,911,529.28571],[&quot;Point&quot;,893.67857,519.28571]]}" opacity="0"/><line x1="911" y1="529.28571" x2="928.32143" y2="519.28571" data-paper-data="{&quot;endpoints&quot;:[[&quot;Point&quot;,911,529.28571],[&quot;Point&quot;,928.32143,519.28571]]}" opacity="0"/><line x1="911" y1="509.28571" x2="893.67857" y2="519.28571" data-paper-data="{&quot;endpoints&quot;:[[&quot;Point&quot;,911,509.28571],[&quot;Point&quot;,893.67857,519.28571]]}" opacity="0"/><line x1="911" y1="509.28571" x2="928.32143" y2="519.28571" data-paper-data="{&quot;endpoints&quot;:[[&quot;Point&quot;,911,509.28571],[&quot;Point&quot;,928.32143,519.28571]]}" opacity="0"/><line x1="893.67857" y1="519.28571" x2="928.32143" y2="519.28571" data-paper-data="{&quot;endpoints&quot;:[[&quot;Point&quot;,893.67857,519.28571],[&quot;Point&quot;,928.32143,519.28571]]}"/></g><rect x="-1014" y="-537.14286" transform="rotate(180)" width="34" height="15.71429" stroke="#000000" stroke-width="0.5" stroke-linecap="butt" opacity="0"/><g stroke="#ffffff" stroke-width="0.5" stroke-linecap="round"><circle cx="-529.28571" cy="997" transform="rotate(-90)" r="20" data-paper-data="{&quot;index&quot;:0}" opacity="0"/><circle cx="-509.28571" cy="997" transform="rotate(-90)" r="20" data-paper-data="{&quot;index&quot;:1}" opacity="0"/><line x1="997" y1="529.28571" x2="997" y2="509.28571" data-paper-data="{&quot;endpoints&quot;:[[&quot;Point&quot;,997,529.28571],[&quot;Point&quot;,997,509.28571]]}"/><line x1="997" y1="529.28571" x2="979.67857" y2="519.28571" data-paper-data="{&quot;endpoints&quot;:[[&quot;Point&quot;,997,529.28571],[&quot;Point&quot;,979.67857,519.28571]]}"/><line x1="997" y1="529.28571" x2="1014.32143" y2="519.28571" data-paper-data="{&quot;endpoints&quot;:[[&quot;Point&quot;,997,529.28571],[&quot;Point&quot;,1014.32143,519.28571]]}"/><line x1="997" y1="509.28571" x2="979.67857" y2="519.28571" data-paper-data="{&quot;endpoints&quot;:[[&quot;Point&quot;,997,509.28571],[&quot;Point&quot;,979.67857,519.28571]]}"/><line x1="997" y1="509.28571" x2="1014.32143" y2="519.28571" data-paper-data="{&quot;endpoints&quot;:[[&quot;Point&quot;,997,509.28571],[&quot;Point&quot;,1014.32143,519.28571]]}"/><line x1="979.67857" y1="519.28571" x2="1014.32143" y2="519.28571" data-paper-data="{&quot;endpoints&quot;:[[&quot;Point&quot;,979.67857,519.28571],[&quot;Point&quot;,1014.32143,519.28571]]}" opacity="0"/></g><rect x="-670" y="-641.42857" transform="rotate(180)" width="34" height="15.71429" stroke="#000000" stroke-width="0.5" stroke-linecap="butt" opacity="0"/><g stroke="#ffffff" stroke-width="0.5" stroke-linecap="round"><circle cx="-633.57143" cy="653" transform="rotate(-90)" r="20" data-paper-data="{&quot;index&quot;:0}" opacity="0"/><circle cx="-613.57143" cy="653" transform="rotate(-90)" r="20" data-paper-data="{&quot;index&quot;:1}" opacity="0"/><circle cx="653" cy="623.57143" r="17.32143"/><circle cx="653" cy="623.57143" r="10"/></g><rect x="-756" y="-641.42857" transform="rotate(180)" width="34" height="15.71429" stroke="#000000" stroke-width="0.5" stroke-linecap="butt" opacity="0"/><g stroke="#ffffff" stroke-width="0.5" stroke-linecap="round"><circle cx="-633.57143" cy="739" transform="rotate(-90)" r="20" data-paper-data="{&quot;index&quot;:0}" opacity="0"/><circle cx="-613.57143" cy="739" transform="rotate(-90)" r="20" data-paper-data="{&quot;index&quot;:1}" opacity="0"/></g><rect x="-842" y="-641.42857" transform="rotate(180)" width="34" height="15.71429" stroke="#000000" stroke-width="0.5" stroke-linecap="butt" opacity="0"/><g stroke="#ffffff" stroke-width="0.5" stroke-linecap="round"><circle cx="-633.57143" cy="825" transform="rotate(-90)" r="20" data-paper-data="{&quot;index&quot;:0}" opacity="0"/><circle cx="-613.57143" cy="825" transform="rotate(-90)" r="20" data-paper-data="{&quot;index&quot;:1}" opacity="0"/></g><rect x="-928" y="-641.42857" transform="rotate(180)" width="34" height="15.71429" stroke="#000000" stroke-width="0.5" stroke-linecap="butt" opacity="0"/><g stroke="#ffffff" stroke-width="0.5" stroke-linecap="round"><circle cx="-633.57143" cy="911" transform="rotate(-90)" r="20" data-paper-data="{&quot;index&quot;:0}" opacity="0"/><circle cx="-613.57143" cy="911" transform="rotate(-90)" r="20" data-paper-data="{&quot;index&quot;:1}" opacity="0"/></g><rect x="-1014" y="-641.42857" transform="rotate(180)" width="34" height="15.71429" stroke="#000000" stroke-width="0.5" stroke-linecap="butt" opacity="0"/><g stroke="#ffffff" stroke-width="0.5" stroke-linecap="round"><circle cx="-633.57143" cy="997" transform="rotate(-90)" r="20" data-paper-data="{&quot;index&quot;:0}" opacity="0"/><circle cx="-613.57143" cy="997" transform="rotate(-90)" r="20" data-paper-data="{&quot;index&quot;:1}" opacity="0"/><circle cx="997" cy="623.57143" r="17.32143"/><circle cx="997" cy="623.57143" r="10"/></g><rect x="-670" y="-745.71429" transform="rotate(180)" width="34" height="15.71429" stroke="#000000" stroke-width="0.5" stroke-linecap="butt" opacity="0"/><g stroke="#ffffff" stroke-width="0.5" stroke-linecap="round"><circle cx="-737.85714" cy="653" transform="rotate(-90)" r="20" data-paper-data="{&quot;index&quot;:0}" opacity="0"/><circle cx="-717.85714" cy="653" transform="rotate(-90)" r="20" data-paper-data="{&quot;index&quot;:1}" opacity="0"/><circle cx="653" cy="727.85714" r="1.5" fill="#ffffff"/><line x1="653" y1="737.85714" x2="653" y2="717.85714" data-paper-data="{&quot;endpoints&quot;:[[&quot;Point&quot;,653,737.85714],[&quot;Point&quot;,653,717.85714]]}"/><line x1="653" y1="737.85714" x2="635.67857" y2="727.85714" data-paper-data="{&quot;endpoints&quot;:[[&quot;Point&quot;,653,737.85714],[&quot;Point&quot;,635.67857,727.85714]]}" opacity="0"/><line x1="653" y1="737.85714" x2="670.32143" y2="727.85714" data-paper-data="{&quot;endpoints&quot;:[[&quot;Point&quot;,653,737.85714],[&quot;Point&quot;,670.32143,727.85714]]}" opacity="0"/><line x1="653" y1="717.85714" x2="635.67857" y2="727.85714" data-paper-data="{&quot;endpoints&quot;:[[&quot;Point&quot;,653,717.85714],[&quot;Point&quot;,635.67857,727.85714]]}" opacity="0"/><line x1="653" y1="717.85714" x2="670.32143" y2="727.85714" data-paper-data="{&quot;endpoints&quot;:[[&quot;Point&quot;,653,717.85714],[&quot;Point&quot;,670.32143,727.85714]]}" opacity="0"/><line x1="635.67857" y1="727.85714" x2="670.32143" y2="727.85714" data-paper-data="{&quot;endpoints&quot;:[[&quot;Point&quot;,635.67857,727.85714],[&quot;Point&quot;,670.32143,727.85714]]}"/><circle cx="653" cy="727.85714" r="10"/><circle cx="653" cy="727.85714" r="10"/><circle cx="653" cy="727.85714" r="17.32143"/><circle cx="653" cy="727.85714" r="17.32143"/></g><rect x="-756" y="-745.71429" transform="rotate(180)" width="34" height="15.71429" stroke="#000000" stroke-width="0.5" stroke-linecap="butt" opacity="0"/><g stroke="#ffffff" stroke-width="0.5" stroke-linecap="round"><circle cx="-737.85714" cy="739" transform="rotate(-90)" r="20" data-paper-data="{&quot;index&quot;:0}" opacity="0"/><circle cx="-717.85714" cy="739" transform="rotate(-90)" r="20" data-paper-data="{&quot;index&quot;:1}" opacity="0"/></g><rect x="-842" y="-745.71429" transform="rotate(180)" width="34" height="15.71429" stroke="#000000" stroke-width="0.5" stroke-linecap="butt" opacity="0"/><g stroke="#ffffff" stroke-width="0.5" stroke-linecap="round"><circle cx="-737.85714" cy="825" transform="rotate(-90)" r="20" data-paper-data="{&quot;index&quot;:0}" opacity="0"/><circle cx="-717.85714" cy="825" transform="rotate(-90)" r="20" data-paper-data="{&quot;index&quot;:1}" opacity="0"/><circle cx="825" cy="727.85714" r="1.5" fill="#ffffff"/></g><rect x="-928" y="-745.71429" transform="rotate(180)" width="34" height="15.71429" stroke="#000000" stroke-width="0.5" stroke-linecap="butt" opacity="0"/><g stroke="#ffffff" stroke-width="0.5" stroke-linecap="round"><circle cx="-737.85714" cy="911" transform="rotate(-90)" r="20" data-paper-data="{&quot;index&quot;:0}" opacity="0"/><circle cx="-717.85714" cy="911" transform="rotate(-90)" r="20" data-paper-data="{&quot;index&quot;:1}" opacity="0"/><line x1="911" y1="737.85714" x2="911" y2="717.85714" data-paper-data="{&quot;endpoints&quot;:[[&quot;Point&quot;,911,737.85714],[&quot;Point&quot;,911,717.85714]]}"/><line x1="911" y1="737.85714" x2="893.67857" y2="727.85714" data-paper-data="{&quot;endpoints&quot;:[[&quot;Point&quot;,911,737.85714],[&quot;Point&quot;,893.67857,727.85714]]}" opacity="0"/><line x1="911" y1="737.85714" x2="928.32143" y2="727.85714" data-paper-data="{&quot;endpoints&quot;:[[&quot;Point&quot;,911,737.85714],[&quot;Point&quot;,928.32143,727.85714]]}" opacity="0"/><line x1="911" y1="717.85714" x2="893.67857" y2="727.85714" data-paper-data="{&quot;endpoints&quot;:[[&quot;Point&quot;,911,717.85714],[&quot;Point&quot;,893.67857,727.85714]]}" opacity="0"/><line x1="911" y1="717.85714" x2="928.32143" y2="727.85714" data-paper-data="{&quot;endpoints&quot;:[[&quot;Point&quot;,911,717.85714],[&quot;Point&quot;,928.32143,727.85714]]}" opacity="0"/><line x1="893.67857" y1="727.85714" x2="928.32143" y2="727.85714" data-paper-data="{&quot;endpoints&quot;:[[&quot;Point&quot;,893.67857,727.85714],[&quot;Point&quot;,928.32143,727.85714]]}"/></g><rect x="-1014" y="-745.71429" transform="rotate(180)" width="34" height="15.71429" stroke="#000000" stroke-width="0.5" stroke-linecap="butt" opacity="0"/><g stroke="#ffffff" stroke-width="0.5" stroke-linecap="round"><circle cx="-737.85714" cy="997" transform="rotate(-90)" r="20" data-paper-data="{&quot;index&quot;:0}" opacity="0"/><circle cx="-717.85714" cy="997" transform="rotate(-90)" r="20" data-paper-data="{&quot;index&quot;:1}" opacity="0"/><circle cx="997" cy="727.85714" r="10"/><circle cx="997" cy="727.85714" r="10"/><circle cx="997" cy="727.85714" r="17.32143"/><circle cx="997" cy="727.85714" r="17.32143"/></g></g></svg>