<svg x="0" y="0" width="1100" height="850" version="1.1" xmlns="http://www.w3.org/2000/svg" xmlns:xlink="http://www.w3.org/1999/xlink"><g fill="none" stroke="none" stroke-width="none" stroke-linecap="none" stroke-linejoin="miter" stroke-miterlimit="10" stroke-dasharray="" stroke-dashoffset="0" font-family="sans-serif" font-size="12" text-anchor="start" mix-blend-mode="normal"><rect x="570" y="25" width="510" height="800" fill="#000000" stroke-width="1" stroke-linecap="butt"/><g stroke-width="1" stroke-linecap="butt"/><rect x="-670" y="-224.28571" transform="rotate(180)" width="34" height="15.71429" stroke="#000000" stroke-width="0.5" stroke-linecap="butt" opacity="0"/><g stroke="#ffffff" stroke-width="0.5" stroke-linecap="round"><circle cx="-513.93264" cy="457.3003" transform="rotate(-120)" r="20" data-paper-data="{&quot;index&quot;:0}"/><circle cx="-493.93184" cy="457.30076" transform="rotate(-120)" r="20" data-paper-data="{&quot;index&quot;:1}"/><circle cx="-503.93184" cy="474.62127" transform="rotate(-120)" r="20" data-paper-data="{&quot;index&quot;:2}"/></g><rect x="-670" y="-432.85714" transform="rotate(180)" width="34" height="15.71429" stroke="#000000" stroke-width="0.5" stroke-linecap="butt" opacity="0"/><g stroke="#ffffff" stroke-width="0.5" stroke-linecap="round"><circle cx="-694.5608" cy="353.01459" transform="rotate(-120)" r="20" data-paper-data="{&quot;index&quot;:0}" opacity="0"/><circle cx="-674.56" cy="353.01505" transform="rotate(-120)" r="20" data-paper-data="{&quot;index&quot;:1}" opacity="0"/><circle cx="-684.56" cy="370.33556" transform="rotate(-120)" r="20" data-paper-data="{&quot;index&quot;:2}" opacity="0"/><circle cx="653" cy="425" r="1.5" fill="#ffffff"/><circle cx="643" cy="407.67857" r="1.5" fill="#ffffff"/><circle cx="663" cy="407.67857" r="1.5" fill="#ffffff"/><circle cx="633" cy="425" r="1.5" fill="#ffffff"/><circle cx="673" cy="425" r="1.5" fill="#ffffff"/><circle cx="653" cy="390.35714" r="1.5" fill="#ffffff"/></g><rect x="-670" y="-537.14286" transform="rotate(180)" width="34" height="15.71429" stroke="#000000" stroke-width="0.5" stroke-linecap="butt" opacity="0"/><g stroke="#ffffff" stroke-width="0.5" stroke-linecap="round"><circle cx="-784.87487" cy="300.87173" transform="rotate(-120)" r="20" data-paper-data="{&quot;index&quot;:0}" opacity="0"/><circle cx="-764.87408" cy="300.87219" transform="rotate(-120)" r="20" data-paper-data="{&quot;index&quot;:1}" opacity="0"/><circle cx="-774.87408" cy="318.1927" transform="rotate(-120)" r="20" data-paper-data="{&quot;index&quot;:2}" opacity="0"/><line x1="653" y1="529.28571" x2="643" y2="511.96429" data-paper-data="{&quot;endpoints&quot;:[[&quot;Point&quot;,653,529.28571],[&quot;Point&quot;,643,511.96429]]}"/><line x1="653" y1="529.28571" x2="663" y2="511.96429" data-paper-data="{&quot;endpoints&quot;:[[&quot;Point&quot;,653,529.28571],[&quot;Point&quot;,663,511.96429]]}"/><line x1="653" y1="529.28571" x2="633" y2="529.28571" data-paper-data="{&quot;endpoints&quot;:[[&quot;Point&quot;,653,529.28571],[&quot;Point&quot;,633,529.28571]]}"/><line x1="653" y1="529.28571" x2="673" y2="529.28571" data-paper-data="{&quot;endpoints&quot;:[[&quot;Point&quot;,653,529.28571],[&quot;Point&quot;,673,529.28571]]}"/><line x1="653" y1="529.28571" x2="653" y2="494.64286" data-paper-data="{&quot;endpoints&quot;:[[&quot;Point&quot;,653,529.28571],[&quot;Point&quot;,653,494.64286]]}"/><line x1="643" y1="511.96429" x2="663" y2="511.96429" data-paper-data="{&quot;endpoints&quot;:[[&quot;Point&quot;,643,511.96429],[&quot;Point&quot;,663,511.96429]]}"/><line x1="643" y1="511.96429" x2="633" y2="529.28571" data-paper-data="{&quot;endpoints&quot;:[[&quot;Point&quot;,643,511.96429],[&quot;Point&quot;,633,529.28571]]}"/><line x1="643" y1="511.96429" x2="673" y2="529.28571" data-paper-data="{&quot;endpoints&quot;:[[&quot;Point&quot;,643,511.96429],[&quot;Point&quot;,673,529.28571]]}"/><line x1="643" y1="511.96429" x2="653" y2="494.64286" data-paper-data="{&quot;endpoints&quot;:[[&quot;Point&quot;,643,511.96429],[&quot;Point&quot;,653,494.64286]]}"/><line x1="663" y1="511.96429" x2="633" y2="529.28571" data-paper-data="{&quot;endpoints&quot;:[[&quot;Point&quot;,663,511.96429],[&quot;Point&quot;,633,529.28571]]}"/><line x1="663" y1="511.96429" x2="673" y2="529.28571" data-paper-data="{&quot;endpoints&quot;:[[&quot;Point&quot;,663,511.96429],[&quot;Point&quot;,673,529.28571]]}"/><line x1="663" y1="511.96429" x2="653" y2="494.64286" data-paper-data="{&quot;endpoints&quot;:[[&quot;Point&quot;,663,511.96429],[&quot;Point&quot;,653,494.64286]]}"/><line x1="633" y1="529.28571" x2="673" y2="529.28571" data-paper-data="{&quot;endpoints&quot;:[[&quot;Point&quot;,633,529.28571],[&quot;Point&quot;,673,529.28571]]}" opacity="0"/><line x1="633" y1="529.28571" x2="653" y2="494.64286" data-paper-data="{&quot;endpoints&quot;:[[&quot;Point&quot;,633,529.28571],[&quot;Point&quot;,653,494.64286]]}" opacity="0"/><line x1="673" y1="529.28571" x2="653" y2="494.64286" data-paper-data="{&quot;endpoints&quot;:[[&quot;Point&quot;,673,529.28571],[&quot;Point&quot;,653,494.64286]]}" opacity="0"/></g><rect x="-756" y="-537.14286" transform="rotate(180)" width="34" height="15.71429" stroke="#000000" stroke-width="0.5" stroke-linecap="butt" opacity="0"/><g stroke="#ffffff" stroke-width="0.5" stroke-linecap="round"><circle cx="-827.87487" cy="375.34992" transform="rotate(-120)" r="20" data-paper-data="{&quot;index&quot;:0}" opacity="0"/><circle cx="-807.87408" cy="375.35038" transform="rotate(-120)" r="20" data-paper-data="{&quot;index&quot;:1}" opacity="0"/><circle cx="-817.87408" cy="392.67088" transform="rotate(-120)" r="20" data-paper-data="{&quot;index&quot;:2}" opacity="0"/><line x1="739" y1="529.28571" x2="729" y2="511.96429" data-paper-data="{&quot;endpoints&quot;:[[&quot;Point&quot;,739,529.28571],[&quot;Point&quot;,729,511.96429]]}" opacity="0"/><line x1="739" y1="529.28571" x2="749" y2="511.96429" data-paper-data="{&quot;endpoints&quot;:[[&quot;Point&quot;,739,529.28571],[&quot;Point&quot;,749,511.96429]]}" opacity="0"/><line x1="739" y1="529.28571" x2="719" y2="529.28571" data-paper-data="{&quot;endpoints&quot;:[[&quot;Point&quot;,739,529.28571],[&quot;Point&quot;,719,529.28571]]}" opacity="0"/><line x1="739" y1="529.28571" x2="759" y2="529.28571" data-paper-data="{&quot;endpoints&quot;:[[&quot;Point&quot;,739,529.28571],[&quot;Point&quot;,759,529.28571]]}" opacity="0"/><line x1="739" y1="529.28571" x2="739" y2="494.64286" data-paper-data="{&quot;endpoints&quot;:[[&quot;Point&quot;,739,529.28571],[&quot;Point&quot;,739,494.64286]]}" opacity="0"/><line x1="729" y1="511.96429" x2="749" y2="511.96429" data-paper-data="{&quot;endpoints&quot;:[[&quot;Point&quot;,729,511.96429],[&quot;Point&quot;,749,511.96429]]}" opacity="0"/><line x1="729" y1="511.96429" x2="719" y2="529.28571" data-paper-data="{&quot;endpoints&quot;:[[&quot;Point&quot;,729,511.96429],[&quot;Point&quot;,719,529.28571]]}" opacity="0"/><line x1="729" y1="511.96429" x2="759" y2="529.28571" data-paper-data="{&quot;endpoints&quot;:[[&quot;Point&quot;,729,511.96429],[&quot;Point&quot;,759,529.28571]]}" opacity="0"/><line x1="729" y1="511.96429" x2="739" y2="494.64286" data-paper-data="{&quot;endpoints&quot;:[[&quot;Point&quot;,729,511.96429],[&quot;Point&quot;,739,494.64286]]}" opacity="0"/><line x1="749" y1="511.96429" x2="719" y2="529.28571" data-paper-data="{&quot;endpoints&quot;:[[&quot;Point&quot;,749,511.96429],[&quot;Point&quot;,719,529.28571]]}" opacity="0"/><line x1="749" y1="511.96429" x2="759" y2="529.28571" data-paper-data="{&quot;endpoints&quot;:[[&quot;Point&quot;,749,511.96429],[&quot;Point&quot;,759,529.28571]]}" opacity="0"/><line x1="749" y1="511.96429" x2="739" y2="494.64286" data-paper-data="{&quot;endpoints&quot;:[[&quot;Point&quot;,749,511.96429],[&quot;Point&quot;,739,494.64286]]}" opacity="0"/><line x1="719" y1="529.28571" x2="759" y2="529.28571" data-paper-data="{&quot;endpoints&quot;:[[&quot;Point&quot;,719,529.28571],[&quot;Point&quot;,759,529.28571]]}" opacity="0"/><line x1="719" y1="529.28571" x2="739" y2="494.64286" data-paper-data="{&quot;endpoints&quot;:[[&quot;Point&quot;,719,529.28571],[&quot;Point&quot;,739,494.64286]]}" opacity="0"/><line x1="759" y1="529.28571" x2="739" y2="494.64286" data-paper-data="{&quot;endpoints&quot;:[[&quot;Point&quot;,759,529.28571],[&quot;Point&quot;,739,494.64286]]}" opacity="0"/></g><rect x="-842" y="-537.14286" transform="rotate(180)" width="34" height="15.71429" stroke="#000000" stroke-width="0.5" stroke-linecap="butt" opacity="0"/><g stroke="#ffffff" stroke-width="0.5" stroke-linecap="round"><circle cx="-870.87487" cy="449.8281" transform="rotate(-120)" r="20" data-paper-data="{&quot;index&quot;:0}" opacity="0"/><circle cx="-850.87408" cy="449.82856" transform="rotate(-120)" r="20" data-paper-data="{&quot;index&quot;:1}" opacity="0"/><circle cx="-860.87408" cy="467.14907" transform="rotate(-120)" r="20" data-paper-data="{&quot;index&quot;:2}" opacity="0"/><line x1="825" y1="529.28571" x2="815" y2="511.96429" data-paper-data="{&quot;endpoints&quot;:[[&quot;Point&quot;,825,529.28571],[&quot;Point&quot;,815,511.96429]]}" opacity="0"/><line x1="825" y1="529.28571" x2="835" y2="511.96429" data-paper-data="{&quot;endpoints&quot;:[[&quot;Point&quot;,825,529.28571],[&quot;Point&quot;,835,511.96429]]}" opacity="0"/><line x1="825" y1="529.28571" x2="805" y2="529.28571" data-paper-data="{&quot;endpoints&quot;:[[&quot;Point&quot;,825,529.28571],[&quot;Point&quot;,805,529.28571]]}" opacity="0"/><line x1="825" y1="529.28571" x2="845" y2="529.28571" data-paper-data="{&quot;endpoints&quot;:[[&quot;Point&quot;,825,529.28571],[&quot;Point&quot;,845,529.28571]]}" opacity="0"/><line x1="825" y1="529.28571" x2="825" y2="494.64286" data-paper-data="{&quot;endpoints&quot;:[[&quot;Point&quot;,825,529.28571],[&quot;Point&quot;,825,494.64286]]}" opacity="0"/><line x1="815" y1="511.96429" x2="835" y2="511.96429" data-paper-data="{&quot;endpoints&quot;:[[&quot;Point&quot;,815,511.96429],[&quot;Point&quot;,835,511.96429]]}" opacity="0"/><line x1="815" y1="511.96429" x2="805" y2="529.28571" data-paper-data="{&quot;endpoints&quot;:[[&quot;Point&quot;,815,511.96429],[&quot;Point&quot;,805,529.28571]]}" opacity="0"/><line x1="815" y1="511.96429" x2="845" y2="529.28571" data-paper-data="{&quot;endpoints&quot;:[[&quot;Point&quot;,815,511.96429],[&quot;Point&quot;,845,529.28571]]}" opacity="0"/><line x1="815" y1="511.96429" x2="825" y2="494.64286" data-paper-data="{&quot;endpoints&quot;:[[&quot;Point&quot;,815,511.96429],[&quot;Point&quot;,825,494.64286]]}" opacity="0"/><line x1="835" y1="511.96429" x2="805" y2="529.28571" data-paper-data="{&quot;endpoints&quot;:[[&quot;Point&quot;,835,511.96429],[&quot;Point&quot;,805,529.28571]]}" opacity="0"/><line x1="835" y1="511.96429" x2="845" y2="529.28571" data-paper-data="{&quot;endpoints&quot;:[[&quot;Point&quot;,835,511.96429],[&quot;Point&quot;,845,529.28571]]}" opacity="0"/><line x1="835" y1="511.96429" x2="825" y2="494.64286" data-paper-data="{&quot;endpoints&quot;:[[&quot;Point&quot;,835,511.96429],[&quot;Point&quot;,825,494.64286]]}" opacity="0"/><line x1="805" y1="529.28571" x2="845" y2="529.28571" data-paper-data="{&quot;endpoints&quot;:[[&quot;Point&quot;,805,529.28571],[&quot;Point&quot;,845,529.28571]]}" opacity="0"/><line x1="805" y1="529.28571" x2="825" y2="494.64286" data-paper-data="{&quot;endpoints&quot;:[[&quot;Point&quot;,805,529.28571],[&quot;Point&quot;,825,494.64286]]}" opacity="0"/><line x1="845" y1="529.28571" x2="825" y2="494.64286" data-paper-data="{&quot;endpoints&quot;:[[&quot;Point&quot;,845,529.28571],[&quot;Point&quot;,825,494.64286]]}" opacity="0"/></g><rect x="-928" y="-537.14286" transform="rotate(180)" width="34" height="15.71429" stroke="#000000" stroke-width="0.5" stroke-linecap="butt" opacity="0"/><g stroke="#ffffff" stroke-width="0.5" stroke-linecap="round"><circle cx="-913.87487" cy="524.30629" transform="rotate(-120)" r="20" data-paper-data="{&quot;index&quot;:0}" opacity="0"/><circle cx="-893.87408" cy="524.30675" transform="rotate(-120)" r="20" data-paper-data="{&quot;index&quot;:1}" opacity="0"/><circle cx="-903.87408" cy="541.62725" transform="rotate(-120)" r="20" data-paper-data="{&quot;index&quot;:2}" opacity="0"/><line x1="911" y1="529.28571" x2="901" y2="511.96429" data-paper-data="{&quot;endpoints&quot;:[[&quot;Point&quot;,911,529.28571],[&quot;Point&quot;,901,511.96429]]}" opacity="0"/><line x1="911" y1="529.28571" x2="921" y2="511.96429" data-paper-data="{&quot;endpoints&quot;:[[&quot;Point&quot;,911,529.28571],[&quot;Point&quot;,921,511.96429]]}" opacity="0"/><line x1="911" y1="529.28571" x2="891" y2="529.28571" data-paper-data="{&quot;endpoints&quot;:[[&quot;Point&quot;,911,529.28571],[&quot;Point&quot;,891,529.28571]]}" opacity="0"/><line x1="911" y1="529.28571" x2="931" y2="529.28571" data-paper-data="{&quot;endpoints&quot;:[[&quot;Point&quot;,911,529.28571],[&quot;Point&quot;,931,529.28571]]}" opacity="0"/><line x1="911" y1="529.28571" x2="911" y2="494.64286" data-paper-data="{&quot;endpoints&quot;:[[&quot;Point&quot;,911,529.28571],[&quot;Point&quot;,911,494.64286]]}"/><line x1="901" y1="511.96429" x2="921" y2="511.96429" data-paper-data="{&quot;endpoints&quot;:[[&quot;Point&quot;,901,511.96429],[&quot;Point&quot;,921,511.96429]]}" opacity="0"/><line x1="901" y1="511.96429" x2="891" y2="529.28571" data-paper-data="{&quot;endpoints&quot;:[[&quot;Point&quot;,901,511.96429],[&quot;Point&quot;,891,529.28571]]}" opacity="0"/><line x1="901" y1="511.96429" x2="931" y2="529.28571" data-paper-data="{&quot;endpoints&quot;:[[&quot;Point&quot;,901,511.96429],[&quot;Point&quot;,931,529.28571]]}"/><line x1="901" y1="511.96429" x2="911" y2="494.64286" data-paper-data="{&quot;endpoints&quot;:[[&quot;Point&quot;,901,511.96429],[&quot;Point&quot;,911,494.64286]]}" opacity="0"/><line x1="921" y1="511.96429" x2="891" y2="529.28571" data-paper-data="{&quot;endpoints&quot;:[[&quot;Point&quot;,921,511.96429],[&quot;Point&quot;,891,529.28571]]}"/><line x1="921" y1="511.96429" x2="931" y2="529.28571" data-paper-data="{&quot;endpoints&quot;:[[&quot;Point&quot;,921,511.96429],[&quot;Point&quot;,931,529.28571]]}" opacity="0"/><line x1="921" y1="511.96429" x2="911" y2="494.64286" data-paper-data="{&quot;endpoints&quot;:[[&quot;Point&quot;,921,511.96429],[&quot;Point&quot;,911,494.64286]]}" opacity="0"/><line x1="891" y1="529.28571" x2="931" y2="529.28571" data-paper-data="{&quot;endpoints&quot;:[[&quot;Point&quot;,891,529.28571],[&quot;Point&quot;,931,529.28571]]}" opacity="0"/><line x1="891" y1="529.28571" x2="911" y2="494.64286" data-paper-data="{&quot;endpoints&quot;:[[&quot;Point&quot;,891,529.28571],[&quot;Point&quot;,911,494.64286]]}" opacity="0"/><line x1="931" y1="529.28571" x2="911" y2="494.64286" data-paper-data="{&quot;endpoints&quot;:[[&quot;Point&quot;,931,529.28571],[&quot;Point&quot;,911,494.64286]]}" opacity="0"/></g><rect x="-1014" y="-537.14286" transform="rotate(180)" width="34" height="15.71429" stroke="#000000" stroke-width="0.5" stroke-linecap="butt" opacity="0"/><g stroke="#ffffff" stroke-width="0.5" stroke-linecap="round"><circle cx="-956.87487" cy="598.78447" transform="rotate(-120)" r="20" data-paper-data="{&quot;index&quot;:0}" opacity="0"/><circle cx="-936.87408" cy="598.78493" transform="rotate(-120)" r="20" data-paper-data="{&quot;index&quot;:1}" opacity="0"/><circle cx="-946.87408" cy="616.10544" transform="rotate(-120)" r="20" data-paper-data="{&quot;index&quot;:2}" opacity="0"/><line x1="997" y1="529.28571" x2="987" y2="511.96429" data-paper-data="{&quot;endpoints&quot;:[[&quot;Point&quot;,997,529.28571],[&quot;Point&quot;,987,511.96429]]}"/><line x1="997" y1="529.28571" x2="1007" y2="511.96429" data-paper-data="{&quot;endpoints&quot;:[[&quot;Point&quot;,997,529.28571],[&quot;Point&quot;,1007,511.96429]]}"/><line x1="997" y1="529.28571" x2="977" y2="529.28571" data-paper-data="{&quot;endpoints&quot;:[[&quot;Point&quot;,997,529.28571],[&quot;Point&quot;,977,529.28571]]}"/><line x1="997" y1="529.28571" x2="1017" y2="529.28571" data-paper-data="{&quot;endpoints&quot;:[[&quot;Point&quot;,997,529.28571],[&quot;Point&quot;,1017,529.28571]]}"/><line x1="997" y1="529.28571" x2="997" y2="494.64286" data-paper-data="{&quot;endpoints&quot;:[[&quot;Point&quot;,997,529.28571],[&quot;Point&quot;,997,494.64286]]}" opacity="0"/><line x1="987" y1="511.96429" x2="1007" y2="511.96429" data-paper-data="{&quot;endpoints&quot;:[[&quot;Point&quot;,987,511.96429],[&quot;Point&quot;,1007,511.96429]]}"/><line x1="987" y1="511.96429" x2="977" y2="529.28571" data-paper-data="{&quot;endpoints&quot;:[[&quot;Point&quot;,987,511.96429],[&quot;Point&quot;,977,529.28571]]}"/><line x1="987" y1="511.96429" x2="1017" y2="529.28571" data-paper-data="{&quot;endpoints&quot;:[[&quot;Point&quot;,987,511.96429],[&quot;Point&quot;,1017,529.28571]]}" opacity="0"/><line x1="987" y1="511.96429" x2="997" y2="494.64286" data-paper-data="{&quot;endpoints&quot;:[[&quot;Point&quot;,987,511.96429],[&quot;Point&quot;,997,494.64286]]}"/><line x1="1007" y1="511.96429" x2="977" y2="529.28571" data-paper-data="{&quot;endpoints&quot;:[[&quot;Point&quot;,1007,511.96429],[&quot;Point&quot;,977,529.28571]]}" opacity="0"/><line x1="1007" y1="511.96429" x2="1017" y2="529.28571" data-paper-data="{&quot;endpoints&quot;:[[&quot;Point&quot;,1007,511.96429],[&quot;Point&quot;,1017,529.28571]]}"/><line x1="1007" y1="511.96429" x2="997" y2="494.64286" data-paper-data="{&quot;endpoints&quot;:[[&quot;Point&quot;,1007,511.96429],[&quot;Point&quot;,997,494.64286]]}"/><line x1="977" y1="529.28571" x2="1017" y2="529.28571" data-paper-data="{&quot;endpoints&quot;:[[&quot;Point&quot;,977,529.28571],[&quot;Point&quot;,1017,529.28571]]}" opacity="0"/><line x1="977" y1="529.28571" x2="997" y2="494.64286" data-paper-data="{&quot;endpoints&quot;:[[&quot;Point&quot;,977,529.28571],[&quot;Point&quot;,997,494.64286]]}" opacity="0"/><line x1="1017" y1="529.28571" x2="997" y2="494.64286" data-paper-data="{&quot;endpoints&quot;:[[&quot;Point&quot;,1017,529.28571],[&quot;Point&quot;,997,494.64286]]}" opacity="0"/></g><rect x="-670" y="-641.42857" transform="rotate(180)" width="34" height="15.71429" stroke="#000000" stroke-width="0.5" stroke-linecap="butt" opacity="0"/><g stroke="#ffffff" stroke-width="0.5" stroke-linecap="round"><circle cx="-875.18895" cy="248.72887" transform="rotate(-120)" r="20" data-paper-data="{&quot;index&quot;:0}" opacity="0"/><circle cx="-855.18816" cy="248.72933" transform="rotate(-120)" r="20" data-paper-data="{&quot;index&quot;:1}" opacity="0"/><circle cx="-865.18816" cy="266.04984" transform="rotate(-120)" r="20" data-paper-data="{&quot;index&quot;:2}" opacity="0"/><circle cx="648" cy="624.91071" r="17.32143"/><circle cx="658" cy="624.91071" r="17.32143"/><circle cx="653" cy="616.25" r="17.32143"/><circle cx="648" cy="624.91071" r="10"/><circle cx="658" cy="624.91071" r="10"/><circle cx="653" cy="616.25" r="10"/><circle cx="653" cy="622.02381" r="11.54762"/><circle cx="653" cy="622.02381" r="8.45238"/></g><rect x="-756" y="-641.42857" transform="rotate(180)" width="34" height="15.71429" stroke="#000000" stroke-width="0.5" stroke-linecap="butt" opacity="0"/><g stroke="#ffffff" stroke-width="0.5" stroke-linecap="round"><circle cx="-918.18895" cy="323.20706" transform="rotate(-120)" r="20" data-paper-data="{&quot;index&quot;:0}" opacity="0"/><circle cx="-898.18816" cy="323.20752" transform="rotate(-120)" r="20" data-paper-data="{&quot;index&quot;:1}" opacity="0"/><circle cx="-908.18816" cy="340.52803" transform="rotate(-120)" r="20" data-paper-data="{&quot;index&quot;:2}" opacity="0"/></g><rect x="-842" y="-641.42857" transform="rotate(180)" width="34" height="15.71429" stroke="#000000" stroke-width="0.5" stroke-linecap="butt" opacity="0"/><g stroke="#ffffff" stroke-width="0.5" stroke-linecap="round"><circle cx="-961.18895" cy="397.68524" transform="rotate(-120)" r="20" data-paper-data="{&quot;index&quot;:0}" opacity="0"/><circle cx="-941.18816" cy="397.6857" transform="rotate(-120)" r="20" data-paper-data="{&quot;index&quot;:1}" opacity="0"/><circle cx="-951.18816" cy="415.00621" transform="rotate(-120)" r="20" data-paper-data="{&quot;index&quot;:2}" opacity="0"/></g><rect x="-928" y="-641.42857" transform="rotate(180)" width="34" height="15.71429" stroke="#000000" stroke-width="0.5" stroke-linecap="butt" opacity="0"/><g stroke="#ffffff" stroke-width="0.5" stroke-linecap="round"><circle cx="-1004.18895" cy="472.16343" transform="rotate(-120)" r="20" data-paper-data="{&quot;index&quot;:0}" opacity="0"/><circle cx="-984.18816" cy="472.16389" transform="rotate(-120)" r="20" data-paper-data="{&quot;index&quot;:1}" opacity="0"/><circle cx="-994.18816" cy="489.4844" transform="rotate(-120)" r="20" data-paper-data="{&quot;index&quot;:2}" opacity="0"/><circle cx="911" cy="622.02381" r="11.54762"/><circle cx="911" cy="622.02381" r="8.45238"/></g><rect x="-1014" y="-641.42857" transform="rotate(180)" width="34" height="15.71429" stroke="#000000" stroke-width="0.5" stroke-linecap="butt" opacity="0"/><g stroke="#ffffff" stroke-width="0.5" stroke-linecap="round"><circle cx="-1047.18895" cy="546.64161" transform="rotate(-120)" r="20" data-paper-data="{&quot;index&quot;:0}" opacity="0"/><circle cx="-1027.18816" cy="546.64207" transform="rotate(-120)" r="20" data-paper-data="{&quot;index&quot;:1}" opacity="0"/><circle cx="-1037.18816" cy="563.96258" transform="rotate(-120)" r="20" data-paper-data="{&quot;index&quot;:2}" opacity="0"/><circle cx="992" cy="624.91071" r="17.32143"/><circle cx="1002" cy="624.91071" r="17.32143"/><circle cx="997" cy="616.25" r="17.32143"/><circle cx="992" cy="624.91071" r="10"/><circle cx="1002" cy="624.91071" r="10"/><circle cx="997" cy="616.25" r="10"/></g><rect x="-670" y="-745.71429" transform="rotate(180)" width="34" height="15.71429" stroke="#000000" stroke-width="0.5" stroke-linecap="butt" opacity="0"/><g stroke="#ffffff" stroke-width="0.5" stroke-linecap="round"><circle cx="-965.50303" cy="196.58602" transform="rotate(-120)" r="20" data-paper-data="{&quot;index&quot;:0}" opacity="0"/><circle cx="-945.50223" cy="196.58648" transform="rotate(-120)" r="20" data-paper-data="{&quot;index&quot;:1}" opacity="0"/><circle cx="-955.50223" cy="213.90699" transform="rotate(-120)" r="20" data-paper-data="{&quot;index&quot;:2}" opacity="0"/><circle cx="653" cy="726.30952" r="1.5" fill="#ffffff"/><line x1="653" y1="737.85714" x2="643" y2="720.53571" data-paper-data="{&quot;endpoints&quot;:[[&quot;Point&quot;,653,737.85714],[&quot;Point&quot;,643,720.53571]]}" opacity="0"/><line x1="653" y1="737.85714" x2="663" y2="720.53571" data-paper-data="{&quot;endpoints&quot;:[[&quot;Point&quot;,653,737.85714],[&quot;Point&quot;,663,720.53571]]}" opacity="0"/><line x1="653" y1="737.85714" x2="633" y2="737.85714" data-paper-data="{&quot;endpoints&quot;:[[&quot;Point&quot;,653,737.85714],[&quot;Point&quot;,633,737.85714]]}" opacity="0"/><line x1="653" y1="737.85714" x2="673" y2="737.85714" data-paper-data="{&quot;endpoints&quot;:[[&quot;Point&quot;,653,737.85714],[&quot;Point&quot;,673,737.85714]]}" opacity="0"/><line x1="653" y1="737.85714" x2="653" y2="703.21429" data-paper-data="{&quot;endpoints&quot;:[[&quot;Point&quot;,653,737.85714],[&quot;Point&quot;,653,703.21429]]}"/><line x1="643" y1="720.53571" x2="663" y2="720.53571" data-paper-data="{&quot;endpoints&quot;:[[&quot;Point&quot;,643,720.53571],[&quot;Point&quot;,663,720.53571]]}" opacity="0"/><line x1="643" y1="720.53571" x2="633" y2="737.85714" data-paper-data="{&quot;endpoints&quot;:[[&quot;Point&quot;,643,720.53571],[&quot;Point&quot;,633,737.85714]]}" opacity="0"/><line x1="643" y1="720.53571" x2="673" y2="737.85714" data-paper-data="{&quot;endpoints&quot;:[[&quot;Point&quot;,643,720.53571],[&quot;Point&quot;,673,737.85714]]}"/><line x1="643" y1="720.53571" x2="653" y2="703.21429" data-paper-data="{&quot;endpoints&quot;:[[&quot;Point&quot;,643,720.53571],[&quot;Point&quot;,653,703.21429]]}" opacity="0"/><line x1="663" y1="720.53571" x2="633" y2="737.85714" data-paper-data="{&quot;endpoints&quot;:[[&quot;Point&quot;,663,720.53571],[&quot;Point&quot;,633,737.85714]]}"/><line x1="663" y1="720.53571" x2="673" y2="737.85714" data-paper-data="{&quot;endpoints&quot;:[[&quot;Point&quot;,663,720.53571],[&quot;Point&quot;,673,737.85714]]}" opacity="0"/><line x1="663" y1="720.53571" x2="653" y2="703.21429" data-paper-data="{&quot;endpoints&quot;:[[&quot;Point&quot;,663,720.53571],[&quot;Point&quot;,653,703.21429]]}" opacity="0"/><line x1="633" y1="737.85714" x2="673" y2="737.85714" data-paper-data="{&quot;endpoints&quot;:[[&quot;Point&quot;,633,737.85714],[&quot;Point&quot;,673,737.85714]]}" opacity="0"/><line x1="633" y1="737.85714" x2="653" y2="703.21429" data-paper-data="{&quot;endpoints&quot;:[[&quot;Point&quot;,633,737.85714],[&quot;Point&quot;,653,703.21429]]}" opacity="0"/><line x1="673" y1="737.85714" x2="653" y2="703.21429" data-paper-data="{&quot;endpoints&quot;:[[&quot;Point&quot;,673,737.85714],[&quot;Point&quot;,653,703.21429]]}" opacity="0"/><circle cx="653" cy="726.30952" r="11.54762"/><circle cx="653" cy="726.30952" r="11.54716"/><circle cx="653" cy="726.30952" r="11.54716"/><circle cx="653" cy="726.30952" r="23.09432"/><circle cx="653" cy="726.30952" r="23.09432"/><circle cx="653" cy="726.30952" r="23.09524"/></g><rect x="-756" y="-745.71429" transform="rotate(180)" width="34" height="15.71429" stroke="#000000" stroke-width="0.5" stroke-linecap="butt" opacity="0"/><g stroke="#ffffff" stroke-width="0.5" stroke-linecap="round"><circle cx="-1008.50303" cy="271.0642" transform="rotate(-120)" r="20" data-paper-data="{&quot;index&quot;:0}" opacity="0"/><circle cx="-988.50223" cy="271.06466" transform="rotate(-120)" r="20" data-paper-data="{&quot;index&quot;:1}" opacity="0"/><circle cx="-998.50223" cy="288.38517" transform="rotate(-120)" r="20" data-paper-data="{&quot;index&quot;:2}" opacity="0"/></g><rect x="-842" y="-745.71429" transform="rotate(180)" width="34" height="15.71429" stroke="#000000" stroke-width="0.5" stroke-linecap="butt" opacity="0"/><g stroke="#ffffff" stroke-width="0.5" stroke-linecap="round"><circle cx="-1051.50303" cy="345.54239" transform="rotate(-120)" r="20" data-paper-data="{&quot;index&quot;:0}" opacity="0"/><circle cx="-1031.50223" cy="345.54285" transform="rotate(-120)" r="20" data-paper-data="{&quot;index&quot;:1}" opacity="0"/><circle cx="-1041.50223" cy="362.86336" transform="rotate(-120)" r="20" data-paper-data="{&quot;index&quot;:2}" opacity="0"/><circle cx="825" cy="726.30952" r="1.5" fill="#ffffff"/></g><rect x="-928" y="-745.71429" transform="rotate(180)" width="34" height="15.71429" stroke="#000000" stroke-width="0.5" stroke-linecap="butt" opacity="0"/><g stroke="#ffffff" stroke-width="0.5" stroke-linecap="round"><circle cx="-1094.50303" cy="420.02057" transform="rotate(-120)" r="20" data-paper-data="{&quot;index&quot;:0}" opacity="0"/><circle cx="-1074.50223" cy="420.02103" transform="rotate(-120)" r="20" data-paper-data="{&quot;index&quot;:1}" opacity="0"/><circle cx="-1084.50223" cy="437.34154" transform="rotate(-120)" r="20" data-paper-data="{&quot;index&quot;:2}" opacity="0"/><line x1="911" y1="737.85714" x2="901" y2="720.53571" data-paper-data="{&quot;endpoints&quot;:[[&quot;Point&quot;,911,737.85714],[&quot;Point&quot;,901,720.53571]]}" opacity="0"/><line x1="911" y1="737.85714" x2="921" y2="720.53571" data-paper-data="{&quot;endpoints&quot;:[[&quot;Point&quot;,911,737.85714],[&quot;Point&quot;,921,720.53571]]}" opacity="0"/><line x1="911" y1="737.85714" x2="891" y2="737.85714" data-paper-data="{&quot;endpoints&quot;:[[&quot;Point&quot;,911,737.85714],[&quot;Point&quot;,891,737.85714]]}" opacity="0"/><line x1="911" y1="737.85714" x2="931" y2="737.85714" data-paper-data="{&quot;endpoints&quot;:[[&quot;Point&quot;,911,737.85714],[&quot;Point&quot;,931,737.85714]]}" opacity="0"/><line x1="911" y1="737.85714" x2="911" y2="703.21429" data-paper-data="{&quot;endpoints&quot;:[[&quot;Point&quot;,911,737.85714],[&quot;Point&quot;,911,703.21429]]}"/><line x1="901" y1="720.53571" x2="921" y2="720.53571" data-paper-data="{&quot;endpoints&quot;:[[&quot;Point&quot;,901,720.53571],[&quot;Point&quot;,921,720.53571]]}" opacity="0"/><line x1="901" y1="720.53571" x2="891" y2="737.85714" data-paper-data="{&quot;endpoints&quot;:[[&quot;Point&quot;,901,720.53571],[&quot;Point&quot;,891,737.85714]]}" opacity="0"/><line x1="901" y1="720.53571" x2="931" y2="737.85714" data-paper-data="{&quot;endpoints&quot;:[[&quot;Point&quot;,901,720.53571],[&quot;Point&quot;,931,737.85714]]}"/><line x1="901" y1="720.53571" x2="911" y2="703.21429" data-paper-data="{&quot;endpoints&quot;:[[&quot;Point&quot;,901,720.53571],[&quot;Point&quot;,911,703.21429]]}" opacity="0"/><line x1="921" y1="720.53571" x2="891" y2="737.85714" data-paper-data="{&quot;endpoints&quot;:[[&quot;Point&quot;,921,720.53571],[&quot;Point&quot;,891,737.85714]]}"/><line x1="921" y1="720.53571" x2="931" y2="737.85714" data-paper-data="{&quot;endpoints&quot;:[[&quot;Point&quot;,921,720.53571],[&quot;Point&quot;,931,737.85714]]}" opacity="0"/><line x1="921" y1="720.53571" x2="911" y2="703.21429" data-paper-data="{&quot;endpoints&quot;:[[&quot;Point&quot;,921,720.53571],[&quot;Point&quot;,911,703.21429]]}" opacity="0"/><line x1="891" y1="737.85714" x2="931" y2="737.85714" data-paper-data="{&quot;endpoints&quot;:[[&quot;Point&quot;,891,737.85714],[&quot;Point&quot;,931,737.85714]]}" opacity="0"/><line x1="891" y1="737.85714" x2="911" y2="703.21429" data-paper-data="{&quot;endpoints&quot;:[[&quot;Point&quot;,891,737.85714],[&quot;Point&quot;,911,703.21429]]}" opacity="0"/><line x1="931" y1="737.85714" x2="911" y2="703.21429" data-paper-data="{&quot;endpoints&quot;:[[&quot;Point&quot;,931,737.85714],[&quot;Point&quot;,911,703.21429]]}" opacity="0"/></g><rect x="-1014" y="-745.71429" transform="rotate(180)" width="34" height="15.71429" stroke="#000000" stroke-width="0.5" stroke-linecap="butt" opacity="0"/><g stroke="#ffffff" stroke-width="0.5" stroke-linecap="round"><circle cx="-1137.50303" cy="494.49876" transform="rotate(-120)" r="20" data-paper-data="{&quot;index&quot;:0}" opacity="0"/><circle cx="-1117.50223" cy="494.49922" transform="rotate(-120)" r="20" data-paper-data="{&quot;index&quot;:1}" opacity="0"/><circle cx="-1127.50223" cy="511.81972" transform="rotate(-120)" r="20" data-paper-data="{&quot;index&quot;:2}" opacity="0"/><circle cx="997" cy="726.30952" r="11.54762"/><circle cx="997" cy="726.30952" r="11.54716"/><circle cx="997" cy="726.30952" r="11.54716"/><circle cx="997" cy="726.30952" r="23.09432"/><circle cx="997" cy="726.30952" r="23.09432"/><circle cx="997" cy="726.30952" r="23.09524"/></g></g></svg>