<svg x="0" y="0" width="1101" height="850" version="1.1" xmlns="http://www.w3.org/2000/svg" xmlns:xlink="http://www.w3.org/1999/xlink"><g fill="none" stroke="none" stroke-width="none" stroke-linecap="none" stroke-linejoin="miter" stroke-miterlimit="10" stroke-dasharray="" stroke-dashoffset="0" font-family="sans-serif" font-size="12" text-anchor="start" mix-blend-mode="normal"><rect x="570.5" y="25" width="510.5" height="800" fill="#000000" stroke-width="1" stroke-linecap="butt"/><g stroke-width="1" stroke-linecap="butt"/><rect x="658.125" y="120" width="12.375" height="1.66667" stroke="#000000" stroke-width="0.5" stroke-linecap="butt" opacity="0"/><g stroke="#ffffff" stroke-width="0.5" stroke-linecap="round"><circle cx="-664.30357" cy="-120.84524" transform="rotate(180)" r="24" data-paper-data="{&quot;index&quot;:0}" opacity="0"/><rect x="120.83333" y="-664.3125" transform="rotate(90)" width="0" height="0"/></g><rect x="765.75" y="120" width="12.375" height="1.66667" stroke="#000000" stroke-width="0.5" stroke-linecap="butt" opacity="0"/><g stroke="#ffffff" stroke-width="0.5" stroke-linecap="round"><circle cx="-771.94643" cy="-120.84524" transform="rotate(180)" r="24" data-paper-data="{&quot;index&quot;:0}" opacity="0"/></g><rect x="873.375" y="120" width="12.375" height="1.66667" stroke="#000000" stroke-width="0.5" stroke-linecap="butt" opacity="0"/><g stroke="#ffffff" stroke-width="0.5" stroke-linecap="round"><circle cx="-879.55357" cy="-120.84524" transform="rotate(180)" r="24" data-paper-data="{&quot;index&quot;:0}" opacity="0"/><circle cx="879.5625" cy="120.83333" r="1.5" fill="#ffffff"/></g><rect x="981" y="120" width="12.375" height="1.66667" stroke="#000000" stroke-width="0.5" stroke-linecap="butt" opacity="0"/><g stroke="#ffffff" stroke-width="0.5" stroke-linecap="round"><circle cx="-987.19643" cy="-120.84524" transform="rotate(180)" r="24" data-paper-data="{&quot;index&quot;:0}" opacity="0"/><circle cx="987.1875" cy="120.83333" r="1.5" fill="#ffffff"/><rect x="120.83333" y="-987.1875" transform="rotate(90)" width="0" height="0"/></g><rect x="658.125" y="241.66667" width="12.375" height="1.66667" stroke="#000000" stroke-width="0.5" stroke-linecap="butt" opacity="0"/><g stroke="#ffffff" stroke-width="0.5" stroke-linecap="round"><circle cx="-664.30357" cy="-242.5" transform="rotate(180)" r="24" data-paper-data="{&quot;index&quot;:0}" opacity="0"/></g><rect x="765.75" y="241.66667" width="12.375" height="1.66667" stroke="#000000" stroke-width="0.5" stroke-linecap="butt" opacity="0"/><g stroke="#ffffff" stroke-width="0.5" stroke-linecap="round"><circle cx="-771.94643" cy="-242.5" transform="rotate(180)" r="24" data-paper-data="{&quot;index&quot;:0}" opacity="0"/></g><rect x="873.375" y="241.66667" width="12.375" height="1.66667" stroke="#000000" stroke-width="0.5" stroke-linecap="butt" opacity="0"/><g stroke="#ffffff" stroke-width="0.5" stroke-linecap="round"><circle cx="-879.55357" cy="-242.5" transform="rotate(180)" r="24" data-paper-data="{&quot;index&quot;:0}" opacity="0"/></g><rect x="981" y="241.66667" width="12.375" height="1.66667" stroke="#000000" stroke-width="0.5" stroke-linecap="butt" opacity="0"/><g stroke="#ffffff" stroke-width="0.5" stroke-linecap="round"><circle cx="-987.19643" cy="-242.5" transform="rotate(180)" r="24" data-paper-data="{&quot;index&quot;:0}" opacity="0"/></g><rect x="658.125" y="363.33333" width="12.375" height="1.66667" stroke="#000000" stroke-width="0.5" stroke-linecap="butt" opacity="0"/><g stroke="#ffffff" stroke-width="0.5" stroke-linecap="round"><circle cx="-664.30357" cy="-364.15476" transform="rotate(180)" r="24" data-paper-data="{&quot;index&quot;:0}" opacity="0"/></g><rect x="765.75" y="363.33333" width="12.375" height="1.66667" stroke="#000000" stroke-width="0.5" stroke-linecap="butt" opacity="0"/><g stroke="#ffffff" stroke-width="0.5" stroke-linecap="round"><circle cx="-771.94643" cy="-364.15476" transform="rotate(180)" r="24" data-paper-data="{&quot;index&quot;:0}" opacity="0"/></g><rect x="873.375" y="363.33333" width="12.375" height="1.66667" stroke="#000000" stroke-width="0.5" stroke-linecap="butt" opacity="0"/><g stroke="#ffffff" stroke-width="0.5" stroke-linecap="round"><circle cx="-879.55357" cy="-364.15476" transform="rotate(180)" r="24" data-paper-data="{&quot;index&quot;:0}" opacity="0"/></g><rect x="981" y="363.33333" width="12.375" height="1.66667" stroke="#000000" stroke-width="0.5" stroke-linecap="butt" opacity="0"/><g stroke="#ffffff" stroke-width="0.5" stroke-linecap="round"><circle cx="-987.19643" cy="-364.15476" transform="rotate(180)" r="24" data-paper-data="{&quot;index&quot;:0}" opacity="0"/></g><rect x="981" y="485" width="12.375" height="1.66667" stroke="#000000" stroke-width="0.5" stroke-linecap="butt" opacity="0"/><g stroke="#ffffff" stroke-width="0.5" stroke-linecap="round"><circle cx="-987.19643" cy="-485.84524" transform="rotate(180)" r="24" data-paper-data="{&quot;index&quot;:0}" opacity="0"/><circle cx="987.1875" cy="485.83333" r="1.5" fill="#ffffff"/></g><rect x="981" y="606.66667" width="12.375" height="1.66667" stroke="#000000" stroke-width="0.5" stroke-linecap="butt" opacity="0"/><g stroke="#ffffff" stroke-width="0.5" stroke-linecap="round"><circle cx="-987.19643" cy="-607.5" transform="rotate(180)" r="24" data-paper-data="{&quot;index&quot;:0}"/></g></g></svg>