<svg x="0" y="0" width="1100" height="850" version="1.1" xmlns="http://www.w3.org/2000/svg" xmlns:xlink="http://www.w3.org/1999/xlink"><g fill="none" stroke="none" stroke-width="none" stroke-linecap="none" stroke-linejoin="miter" stroke-miterlimit="10" stroke-dasharray="" stroke-dashoffset="0" font-family="sans-serif" font-size="12" text-anchor="start" mix-blend-mode="normal"><rect x="570" y="25" width="510" height="800" fill="#000000" stroke-width="1" stroke-linecap="butt"/><g stroke-width="1" stroke-linecap="butt"/><rect x="657.5" y="120" width="12.5" height="1.66667" stroke="#000000" stroke-width="0.5" stroke-linecap="butt" opacity="0"/><g stroke="#ffffff" stroke-width="0.5" stroke-linecap="round"><circle cx="-663.75" cy="-120.85714" transform="rotate(180)" r="24" data-paper-data="{&quot;index&quot;:0}" opacity="0"/><circle cx="-639.75" cy="-120.85714" transform="rotate(180)" r="24" data-paper-data="{&quot;index&quot;:1}" opacity="0"/><circle cx="-651.75" cy="-100.07143" transform="rotate(180)" r="24" data-paper-data="{&quot;index&quot;:2}" opacity="0"/><circle cx="651.75" cy="113.92857" r="13.85659"/><circle cx="651.75" cy="113.92857" r="13.85659"/><circle cx="651.75" cy="113.92857" r="13.85714"/><circle cx="651.75" cy="113.92857" r="27.71429"/><circle cx="651.75" cy="113.92857" r="27.71318"/><circle cx="651.75" cy="113.92857" r="27.71318"/></g><rect x="765" y="120" width="12.5" height="1.66667" stroke="#000000" stroke-width="0.5" stroke-linecap="butt" opacity="0"/><g stroke="#ffffff" stroke-width="0.5" stroke-linecap="round"><circle cx="-771.25" cy="-120.85714" transform="rotate(180)" r="24" data-paper-data="{&quot;index&quot;:0}" opacity="0"/><circle cx="-747.25" cy="-120.85714" transform="rotate(180)" r="24" data-paper-data="{&quot;index&quot;:1}" opacity="0"/><circle cx="-759.25" cy="-100.07143" transform="rotate(180)" r="24" data-paper-data="{&quot;index&quot;:2}" opacity="0"/><line x1="771.25" y1="120.85714" x2="747.25" y2="120.85714" data-paper-data="{&quot;endpoints&quot;:[[&quot;Point&quot;,771.25,120.85714],[&quot;Point&quot;,747.25,120.85714]]}" opacity="0"/><line x1="771.25" y1="120.85714" x2="759.25" y2="100.07143" data-paper-data="{&quot;endpoints&quot;:[[&quot;Point&quot;,771.25,120.85714],[&quot;Point&quot;,759.25,100.07143]]}" opacity="0"/><line x1="771.25" y1="120.85714" x2="759.25" y2="141.64286" data-paper-data="{&quot;endpoints&quot;:[[&quot;Point&quot;,771.25,120.85714],[&quot;Point&quot;,759.25,141.64286]]}" opacity="0"/><line x1="771.25" y1="120.85714" x2="783.25" y2="100.07143" data-paper-data="{&quot;endpoints&quot;:[[&quot;Point&quot;,771.25,120.85714],[&quot;Point&quot;,783.25,100.07143]]}" opacity="0"/><line x1="771.25" y1="120.85714" x2="735.25" y2="100.07143" data-paper-data="{&quot;endpoints&quot;:[[&quot;Point&quot;,771.25,120.85714],[&quot;Point&quot;,735.25,100.07143]]}"/><line x1="747.25" y1="120.85714" x2="759.25" y2="100.07143" data-paper-data="{&quot;endpoints&quot;:[[&quot;Point&quot;,747.25,120.85714],[&quot;Point&quot;,759.25,100.07143]]}" opacity="0"/><line x1="747.25" y1="120.85714" x2="759.25" y2="141.64286" data-paper-data="{&quot;endpoints&quot;:[[&quot;Point&quot;,747.25,120.85714],[&quot;Point&quot;,759.25,141.64286]]}" opacity="0"/><line x1="747.25" y1="120.85714" x2="783.25" y2="100.07143" data-paper-data="{&quot;endpoints&quot;:[[&quot;Point&quot;,747.25,120.85714],[&quot;Point&quot;,783.25,100.07143]]}"/><line x1="747.25" y1="120.85714" x2="735.25" y2="100.07143" data-paper-data="{&quot;endpoints&quot;:[[&quot;Point&quot;,747.25,120.85714],[&quot;Point&quot;,735.25,100.07143]]}" opacity="0"/><line x1="759.25" y1="100.07143" x2="759.25" y2="141.64286" data-paper-data="{&quot;endpoints&quot;:[[&quot;Point&quot;,759.25,100.07143],[&quot;Point&quot;,759.25,141.64286]]}"/><line x1="759.25" y1="100.07143" x2="783.25" y2="100.07143" data-paper-data="{&quot;endpoints&quot;:[[&quot;Point&quot;,759.25,100.07143],[&quot;Point&quot;,783.25,100.07143]]}" opacity="0"/><line x1="759.25" y1="100.07143" x2="735.25" y2="100.07143" data-paper-data="{&quot;endpoints&quot;:[[&quot;Point&quot;,759.25,100.07143],[&quot;Point&quot;,735.25,100.07143]]}" opacity="0"/><line x1="759.25" y1="141.64286" x2="783.25" y2="100.07143" data-paper-data="{&quot;endpoints&quot;:[[&quot;Point&quot;,759.25,141.64286],[&quot;Point&quot;,783.25,100.07143]]}" opacity="0"/><line x1="759.25" y1="141.64286" x2="735.25" y2="100.07143" data-paper-data="{&quot;endpoints&quot;:[[&quot;Point&quot;,759.25,141.64286],[&quot;Point&quot;,735.25,100.07143]]}" opacity="0"/><line x1="783.25" y1="100.07143" x2="735.25" y2="100.07143" data-paper-data="{&quot;endpoints&quot;:[[&quot;Point&quot;,783.25,100.07143],[&quot;Point&quot;,735.25,100.07143]]}" opacity="0"/></g><rect x="872.5" y="120" width="12.5" height="1.66667" stroke="#000000" stroke-width="0.5" stroke-linecap="butt" opacity="0"/><g stroke="#ffffff" stroke-width="0.5" stroke-linecap="round"><circle cx="-878.75" cy="-120.85714" transform="rotate(180)" r="24" data-paper-data="{&quot;index&quot;:0}" opacity="0"/><circle cx="-854.75" cy="-120.85714" transform="rotate(180)" r="24" data-paper-data="{&quot;index&quot;:1}" opacity="0"/><circle cx="-866.75" cy="-100.07143" transform="rotate(180)" r="24" data-paper-data="{&quot;index&quot;:2}" opacity="0"/><circle cx="866.75" cy="113.92857" r="1.5" fill="#ffffff"/></g><rect x="980" y="120" width="12.5" height="1.66667" stroke="#000000" stroke-width="0.5" stroke-linecap="butt" opacity="0"/><g stroke="#ffffff" stroke-width="0.5" stroke-linecap="round"><circle cx="-986.25" cy="-120.85714" transform="rotate(180)" r="24" data-paper-data="{&quot;index&quot;:0}" opacity="0"/><circle cx="-962.25" cy="-120.85714" transform="rotate(180)" r="24" data-paper-data="{&quot;index&quot;:1}" opacity="0"/><circle cx="-974.25" cy="-100.07143" transform="rotate(180)" r="24" data-paper-data="{&quot;index&quot;:2}" opacity="0"/><circle cx="974.25" cy="113.92857" r="1.5" fill="#ffffff"/><line x1="986.25" y1="120.85714" x2="962.25" y2="120.85714" data-paper-data="{&quot;endpoints&quot;:[[&quot;Point&quot;,986.25,120.85714],[&quot;Point&quot;,962.25,120.85714]]}" opacity="0"/><line x1="986.25" y1="120.85714" x2="974.25" y2="100.07143" data-paper-data="{&quot;endpoints&quot;:[[&quot;Point&quot;,986.25,120.85714],[&quot;Point&quot;,974.25,100.07143]]}" opacity="0"/><line x1="986.25" y1="120.85714" x2="974.25" y2="141.64286" data-paper-data="{&quot;endpoints&quot;:[[&quot;Point&quot;,986.25,120.85714],[&quot;Point&quot;,974.25,141.64286]]}" opacity="0"/><line x1="986.25" y1="120.85714" x2="998.25" y2="100.07143" data-paper-data="{&quot;endpoints&quot;:[[&quot;Point&quot;,986.25,120.85714],[&quot;Point&quot;,998.25,100.07143]]}" opacity="0"/><line x1="986.25" y1="120.85714" x2="950.25" y2="100.07143" data-paper-data="{&quot;endpoints&quot;:[[&quot;Point&quot;,986.25,120.85714],[&quot;Point&quot;,950.25,100.07143]]}"/><line x1="962.25" y1="120.85714" x2="974.25" y2="100.07143" data-paper-data="{&quot;endpoints&quot;:[[&quot;Point&quot;,962.25,120.85714],[&quot;Point&quot;,974.25,100.07143]]}" opacity="0"/><line x1="962.25" y1="120.85714" x2="974.25" y2="141.64286" data-paper-data="{&quot;endpoints&quot;:[[&quot;Point&quot;,962.25,120.85714],[&quot;Point&quot;,974.25,141.64286]]}" opacity="0"/><line x1="962.25" y1="120.85714" x2="998.25" y2="100.07143" data-paper-data="{&quot;endpoints&quot;:[[&quot;Point&quot;,962.25,120.85714],[&quot;Point&quot;,998.25,100.07143]]}"/><line x1="962.25" y1="120.85714" x2="950.25" y2="100.07143" data-paper-data="{&quot;endpoints&quot;:[[&quot;Point&quot;,962.25,120.85714],[&quot;Point&quot;,950.25,100.07143]]}" opacity="0"/><line x1="974.25" y1="100.07143" x2="974.25" y2="141.64286" data-paper-data="{&quot;endpoints&quot;:[[&quot;Point&quot;,974.25,100.07143],[&quot;Point&quot;,974.25,141.64286]]}"/><line x1="974.25" y1="100.07143" x2="998.25" y2="100.07143" data-paper-data="{&quot;endpoints&quot;:[[&quot;Point&quot;,974.25,100.07143],[&quot;Point&quot;,998.25,100.07143]]}" opacity="0"/><line x1="974.25" y1="100.07143" x2="950.25" y2="100.07143" data-paper-data="{&quot;endpoints&quot;:[[&quot;Point&quot;,974.25,100.07143],[&quot;Point&quot;,950.25,100.07143]]}" opacity="0"/><line x1="974.25" y1="141.64286" x2="998.25" y2="100.07143" data-paper-data="{&quot;endpoints&quot;:[[&quot;Point&quot;,974.25,141.64286],[&quot;Point&quot;,998.25,100.07143]]}" opacity="0"/><line x1="974.25" y1="141.64286" x2="950.25" y2="100.07143" data-paper-data="{&quot;endpoints&quot;:[[&quot;Point&quot;,974.25,141.64286],[&quot;Point&quot;,950.25,100.07143]]}" opacity="0"/><line x1="998.25" y1="100.07143" x2="950.25" y2="100.07143" data-paper-data="{&quot;endpoints&quot;:[[&quot;Point&quot;,998.25,100.07143],[&quot;Point&quot;,950.25,100.07143]]}" opacity="0"/><circle cx="974.25" cy="113.92857" r="13.85659"/><circle cx="974.25" cy="113.92857" r="13.85659"/><circle cx="974.25" cy="113.92857" r="13.85714"/><circle cx="974.25" cy="113.92857" r="27.71429"/><circle cx="974.25" cy="113.92857" r="27.71318"/><circle cx="974.25" cy="113.92857" r="27.71318"/></g><rect x="657.5" y="241.66667" width="12.5" height="1.66667" stroke="#000000" stroke-width="0.5" stroke-linecap="butt" opacity="0"/><g stroke="#ffffff" stroke-width="0.5" stroke-linecap="round"><circle cx="-663.75" cy="-242.5" transform="rotate(180)" r="24" data-paper-data="{&quot;index&quot;:0}" opacity="0"/><circle cx="-639.75" cy="-242.5" transform="rotate(180)" r="24" data-paper-data="{&quot;index&quot;:1}" opacity="0"/><circle cx="-651.75" cy="-221.71429" transform="rotate(180)" r="24" data-paper-data="{&quot;index&quot;:2}" opacity="0"/></g><rect x="765" y="241.66667" width="12.5" height="1.66667" stroke="#000000" stroke-width="0.5" stroke-linecap="butt" opacity="0"/><g stroke="#ffffff" stroke-width="0.5" stroke-linecap="round"><circle cx="-771.25" cy="-242.5" transform="rotate(180)" r="24" data-paper-data="{&quot;index&quot;:0}" opacity="0"/><circle cx="-747.25" cy="-242.5" transform="rotate(180)" r="24" data-paper-data="{&quot;index&quot;:1}" opacity="0"/><circle cx="-759.25" cy="-221.71429" transform="rotate(180)" r="24" data-paper-data="{&quot;index&quot;:2}" opacity="0"/><circle cx="759.25" cy="235.57143" r="13.85714"/><circle cx="759.25" cy="235.57143" r="10.14286"/></g><rect x="872.5" y="241.66667" width="12.5" height="1.66667" stroke="#000000" stroke-width="0.5" stroke-linecap="butt" opacity="0"/><g stroke="#ffffff" stroke-width="0.5" stroke-linecap="round"><circle cx="-878.75" cy="-242.5" transform="rotate(180)" r="24" data-paper-data="{&quot;index&quot;:0}" opacity="0"/><circle cx="-854.75" cy="-242.5" transform="rotate(180)" r="24" data-paper-data="{&quot;index&quot;:1}" opacity="0"/><circle cx="-866.75" cy="-221.71429" transform="rotate(180)" r="24" data-paper-data="{&quot;index&quot;:2}" opacity="0"/><circle cx="866.75" cy="242.5" r="20.78571"/><circle cx="872.75" cy="232.10714" r="20.78571"/><circle cx="860.75" cy="232.10714" r="20.78571"/><circle cx="866.75" cy="242.5" r="12"/><circle cx="872.75" cy="232.10714" r="12"/><circle cx="860.75" cy="232.10714" r="12"/></g><rect x="980" y="241.66667" width="12.5" height="1.66667" stroke="#000000" stroke-width="0.5" stroke-linecap="butt" opacity="0"/><g stroke="#ffffff" stroke-width="0.5" stroke-linecap="round"><circle cx="-986.25" cy="-242.5" transform="rotate(180)" r="24" data-paper-data="{&quot;index&quot;:0}" opacity="0"/><circle cx="-962.25" cy="-242.5" transform="rotate(180)" r="24" data-paper-data="{&quot;index&quot;:1}" opacity="0"/><circle cx="-974.25" cy="-221.71429" transform="rotate(180)" r="24" data-paper-data="{&quot;index&quot;:2}" opacity="0"/><circle cx="974.25" cy="242.5" r="20.78571"/><circle cx="980.25" cy="232.10714" r="20.78571"/><circle cx="968.25" cy="232.10714" r="20.78571"/><circle cx="974.25" cy="242.5" r="12"/><circle cx="980.25" cy="232.10714" r="12"/><circle cx="968.25" cy="232.10714" r="12"/><circle cx="974.25" cy="235.57143" r="13.85714"/><circle cx="974.25" cy="235.57143" r="10.14286"/></g><rect x="657.5" y="363.33333" width="12.5" height="1.66667" stroke="#000000" stroke-width="0.5" stroke-linecap="butt" opacity="0"/><g stroke="#ffffff" stroke-width="0.5" stroke-linecap="round"><circle cx="-663.75" cy="-364.14286" transform="rotate(180)" r="24" data-paper-data="{&quot;index&quot;:0}" opacity="0"/><circle cx="-639.75" cy="-364.14286" transform="rotate(180)" r="24" data-paper-data="{&quot;index&quot;:1}" opacity="0"/><circle cx="-651.75" cy="-343.35714" transform="rotate(180)" r="24" data-paper-data="{&quot;index&quot;:2}" opacity="0"/><line x1="663.75" y1="364.14286" x2="639.75" y2="364.14286" data-paper-data="{&quot;endpoints&quot;:[[&quot;Point&quot;,663.75,364.14286],[&quot;Point&quot;,639.75,364.14286]]}" opacity="0"/><line x1="663.75" y1="364.14286" x2="651.75" y2="343.35714" data-paper-data="{&quot;endpoints&quot;:[[&quot;Point&quot;,663.75,364.14286],[&quot;Point&quot;,651.75,343.35714]]}" opacity="0"/><line x1="663.75" y1="364.14286" x2="651.75" y2="384.92857" data-paper-data="{&quot;endpoints&quot;:[[&quot;Point&quot;,663.75,364.14286],[&quot;Point&quot;,651.75,384.92857]]}" opacity="0"/><line x1="663.75" y1="364.14286" x2="675.75" y2="343.35714" data-paper-data="{&quot;endpoints&quot;:[[&quot;Point&quot;,663.75,364.14286],[&quot;Point&quot;,675.75,343.35714]]}" opacity="0"/><line x1="663.75" y1="364.14286" x2="627.75" y2="343.35714" data-paper-data="{&quot;endpoints&quot;:[[&quot;Point&quot;,663.75,364.14286],[&quot;Point&quot;,627.75,343.35714]]}" opacity="0"/><line x1="639.75" y1="364.14286" x2="651.75" y2="343.35714" data-paper-data="{&quot;endpoints&quot;:[[&quot;Point&quot;,639.75,364.14286],[&quot;Point&quot;,651.75,343.35714]]}" opacity="0"/><line x1="639.75" y1="364.14286" x2="651.75" y2="384.92857" data-paper-data="{&quot;endpoints&quot;:[[&quot;Point&quot;,639.75,364.14286],[&quot;Point&quot;,651.75,384.92857]]}" opacity="0"/><line x1="639.75" y1="364.14286" x2="675.75" y2="343.35714" data-paper-data="{&quot;endpoints&quot;:[[&quot;Point&quot;,639.75,364.14286],[&quot;Point&quot;,675.75,343.35714]]}" opacity="0"/><line x1="639.75" y1="364.14286" x2="627.75" y2="343.35714" data-paper-data="{&quot;endpoints&quot;:[[&quot;Point&quot;,639.75,364.14286],[&quot;Point&quot;,627.75,343.35714]]}" opacity="0"/><line x1="651.75" y1="343.35714" x2="651.75" y2="384.92857" data-paper-data="{&quot;endpoints&quot;:[[&quot;Point&quot;,651.75,343.35714],[&quot;Point&quot;,651.75,384.92857]]}" opacity="0"/><line x1="651.75" y1="343.35714" x2="675.75" y2="343.35714" data-paper-data="{&quot;endpoints&quot;:[[&quot;Point&quot;,651.75,343.35714],[&quot;Point&quot;,675.75,343.35714]]}" opacity="0"/><line x1="651.75" y1="343.35714" x2="627.75" y2="343.35714" data-paper-data="{&quot;endpoints&quot;:[[&quot;Point&quot;,651.75,343.35714],[&quot;Point&quot;,627.75,343.35714]]}" opacity="0"/><line x1="651.75" y1="384.92857" x2="675.75" y2="343.35714" data-paper-data="{&quot;endpoints&quot;:[[&quot;Point&quot;,651.75,384.92857],[&quot;Point&quot;,675.75,343.35714]]}" opacity="0"/><line x1="651.75" y1="384.92857" x2="627.75" y2="343.35714" data-paper-data="{&quot;endpoints&quot;:[[&quot;Point&quot;,651.75,384.92857],[&quot;Point&quot;,627.75,343.35714]]}" opacity="0"/><line x1="675.75" y1="343.35714" x2="627.75" y2="343.35714" data-paper-data="{&quot;endpoints&quot;:[[&quot;Point&quot;,675.75,343.35714],[&quot;Point&quot;,627.75,343.35714]]}" opacity="0"/></g><rect x="765" y="363.33333" width="12.5" height="1.66667" stroke="#000000" stroke-width="0.5" stroke-linecap="butt" opacity="0"/><g stroke="#ffffff" stroke-width="0.5" stroke-linecap="round"><circle cx="-771.25" cy="-364.14286" transform="rotate(180)" r="24" data-paper-data="{&quot;index&quot;:0}" opacity="0"/><circle cx="-747.25" cy="-364.14286" transform="rotate(180)" r="24" data-paper-data="{&quot;index&quot;:1}" opacity="0"/><circle cx="-759.25" cy="-343.35714" transform="rotate(180)" r="24" data-paper-data="{&quot;index&quot;:2}" opacity="0"/><line x1="771.25" y1="364.14286" x2="747.25" y2="364.14286" data-paper-data="{&quot;endpoints&quot;:[[&quot;Point&quot;,771.25,364.14286],[&quot;Point&quot;,747.25,364.14286]]}" opacity="0"/><line x1="771.25" y1="364.14286" x2="759.25" y2="343.35714" data-paper-data="{&quot;endpoints&quot;:[[&quot;Point&quot;,771.25,364.14286],[&quot;Point&quot;,759.25,343.35714]]}" opacity="0"/><line x1="771.25" y1="364.14286" x2="759.25" y2="384.92857" data-paper-data="{&quot;endpoints&quot;:[[&quot;Point&quot;,771.25,364.14286],[&quot;Point&quot;,759.25,384.92857]]}" opacity="0"/><line x1="771.25" y1="364.14286" x2="783.25" y2="343.35714" data-paper-data="{&quot;endpoints&quot;:[[&quot;Point&quot;,771.25,364.14286],[&quot;Point&quot;,783.25,343.35714]]}" opacity="0"/><line x1="771.25" y1="364.14286" x2="735.25" y2="343.35714" data-paper-data="{&quot;endpoints&quot;:[[&quot;Point&quot;,771.25,364.14286],[&quot;Point&quot;,735.25,343.35714]]}"/><line x1="747.25" y1="364.14286" x2="759.25" y2="343.35714" data-paper-data="{&quot;endpoints&quot;:[[&quot;Point&quot;,747.25,364.14286],[&quot;Point&quot;,759.25,343.35714]]}" opacity="0"/><line x1="747.25" y1="364.14286" x2="759.25" y2="384.92857" data-paper-data="{&quot;endpoints&quot;:[[&quot;Point&quot;,747.25,364.14286],[&quot;Point&quot;,759.25,384.92857]]}" opacity="0"/><line x1="747.25" y1="364.14286" x2="783.25" y2="343.35714" data-paper-data="{&quot;endpoints&quot;:[[&quot;Point&quot;,747.25,364.14286],[&quot;Point&quot;,783.25,343.35714]]}"/><line x1="747.25" y1="364.14286" x2="735.25" y2="343.35714" data-paper-data="{&quot;endpoints&quot;:[[&quot;Point&quot;,747.25,364.14286],[&quot;Point&quot;,735.25,343.35714]]}" opacity="0"/><line x1="759.25" y1="343.35714" x2="759.25" y2="384.92857" data-paper-data="{&quot;endpoints&quot;:[[&quot;Point&quot;,759.25,343.35714],[&quot;Point&quot;,759.25,384.92857]]}"/><line x1="759.25" y1="343.35714" x2="783.25" y2="343.35714" data-paper-data="{&quot;endpoints&quot;:[[&quot;Point&quot;,759.25,343.35714],[&quot;Point&quot;,783.25,343.35714]]}" opacity="0"/><line x1="759.25" y1="343.35714" x2="735.25" y2="343.35714" data-paper-data="{&quot;endpoints&quot;:[[&quot;Point&quot;,759.25,343.35714],[&quot;Point&quot;,735.25,343.35714]]}" opacity="0"/><line x1="759.25" y1="384.92857" x2="783.25" y2="343.35714" data-paper-data="{&quot;endpoints&quot;:[[&quot;Point&quot;,759.25,384.92857],[&quot;Point&quot;,783.25,343.35714]]}" opacity="0"/><line x1="759.25" y1="384.92857" x2="735.25" y2="343.35714" data-paper-data="{&quot;endpoints&quot;:[[&quot;Point&quot;,759.25,384.92857],[&quot;Point&quot;,735.25,343.35714]]}" opacity="0"/><line x1="783.25" y1="343.35714" x2="735.25" y2="343.35714" data-paper-data="{&quot;endpoints&quot;:[[&quot;Point&quot;,783.25,343.35714],[&quot;Point&quot;,735.25,343.35714]]}" opacity="0"/></g><rect x="872.5" y="363.33333" width="12.5" height="1.66667" stroke="#000000" stroke-width="0.5" stroke-linecap="butt" opacity="0"/><g stroke="#ffffff" stroke-width="0.5" stroke-linecap="round"><circle cx="-878.75" cy="-364.14286" transform="rotate(180)" r="24" data-paper-data="{&quot;index&quot;:0}" opacity="0"/><circle cx="-854.75" cy="-364.14286" transform="rotate(180)" r="24" data-paper-data="{&quot;index&quot;:1}" opacity="0"/><circle cx="-866.75" cy="-343.35714" transform="rotate(180)" r="24" data-paper-data="{&quot;index&quot;:2}" opacity="0"/><line x1="878.75" y1="364.14286" x2="854.75" y2="364.14286" data-paper-data="{&quot;endpoints&quot;:[[&quot;Point&quot;,878.75,364.14286],[&quot;Point&quot;,854.75,364.14286]]}"/><line x1="878.75" y1="364.14286" x2="866.75" y2="343.35714" data-paper-data="{&quot;endpoints&quot;:[[&quot;Point&quot;,878.75,364.14286],[&quot;Point&quot;,866.75,343.35714]]}"/><line x1="878.75" y1="364.14286" x2="866.75" y2="384.92857" data-paper-data="{&quot;endpoints&quot;:[[&quot;Point&quot;,878.75,364.14286],[&quot;Point&quot;,866.75,384.92857]]}"/><line x1="878.75" y1="364.14286" x2="890.75" y2="343.35714" data-paper-data="{&quot;endpoints&quot;:[[&quot;Point&quot;,878.75,364.14286],[&quot;Point&quot;,890.75,343.35714]]}"/><line x1="878.75" y1="364.14286" x2="842.75" y2="343.35714" data-paper-data="{&quot;endpoints&quot;:[[&quot;Point&quot;,878.75,364.14286],[&quot;Point&quot;,842.75,343.35714]]}" opacity="0"/><line x1="854.75" y1="364.14286" x2="866.75" y2="343.35714" data-paper-data="{&quot;endpoints&quot;:[[&quot;Point&quot;,854.75,364.14286],[&quot;Point&quot;,866.75,343.35714]]}"/><line x1="854.75" y1="364.14286" x2="866.75" y2="384.92857" data-paper-data="{&quot;endpoints&quot;:[[&quot;Point&quot;,854.75,364.14286],[&quot;Point&quot;,866.75,384.92857]]}"/><line x1="854.75" y1="364.14286" x2="890.75" y2="343.35714" data-paper-data="{&quot;endpoints&quot;:[[&quot;Point&quot;,854.75,364.14286],[&quot;Point&quot;,890.75,343.35714]]}" opacity="0"/><line x1="854.75" y1="364.14286" x2="842.75" y2="343.35714" data-paper-data="{&quot;endpoints&quot;:[[&quot;Point&quot;,854.75,364.14286],[&quot;Point&quot;,842.75,343.35714]]}"/><line x1="866.75" y1="343.35714" x2="866.75" y2="384.92857" data-paper-data="{&quot;endpoints&quot;:[[&quot;Point&quot;,866.75,343.35714],[&quot;Point&quot;,866.75,384.92857]]}" opacity="0"/><line x1="866.75" y1="343.35714" x2="890.75" y2="343.35714" data-paper-data="{&quot;endpoints&quot;:[[&quot;Point&quot;,866.75,343.35714],[&quot;Point&quot;,890.75,343.35714]]}"/><line x1="866.75" y1="343.35714" x2="842.75" y2="343.35714" data-paper-data="{&quot;endpoints&quot;:[[&quot;Point&quot;,866.75,343.35714],[&quot;Point&quot;,842.75,343.35714]]}"/><line x1="866.75" y1="384.92857" x2="890.75" y2="343.35714" data-paper-data="{&quot;endpoints&quot;:[[&quot;Point&quot;,866.75,384.92857],[&quot;Point&quot;,890.75,343.35714]]}" opacity="0"/><line x1="866.75" y1="384.92857" x2="842.75" y2="343.35714" data-paper-data="{&quot;endpoints&quot;:[[&quot;Point&quot;,866.75,384.92857],[&quot;Point&quot;,842.75,343.35714]]}" opacity="0"/><line x1="890.75" y1="343.35714" x2="842.75" y2="343.35714" data-paper-data="{&quot;endpoints&quot;:[[&quot;Point&quot;,890.75,343.35714],[&quot;Point&quot;,842.75,343.35714]]}" opacity="0"/></g><rect x="980" y="363.33333" width="12.5" height="1.66667" stroke="#000000" stroke-width="0.5" stroke-linecap="butt" opacity="0"/><g stroke="#ffffff" stroke-width="0.5" stroke-linecap="round"><circle cx="-986.25" cy="-364.14286" transform="rotate(180)" r="24" data-paper-data="{&quot;index&quot;:0}" opacity="0"/><circle cx="-962.25" cy="-364.14286" transform="rotate(180)" r="24" data-paper-data="{&quot;index&quot;:1}" opacity="0"/><circle cx="-974.25" cy="-343.35714" transform="rotate(180)" r="24" data-paper-data="{&quot;index&quot;:2}" opacity="0"/><line x1="986.25" y1="364.14286" x2="962.25" y2="364.14286" data-paper-data="{&quot;endpoints&quot;:[[&quot;Point&quot;,986.25,364.14286],[&quot;Point&quot;,962.25,364.14286]]}"/><line x1="986.25" y1="364.14286" x2="974.25" y2="343.35714" data-paper-data="{&quot;endpoints&quot;:[[&quot;Point&quot;,986.25,364.14286],[&quot;Point&quot;,974.25,343.35714]]}"/><line x1="986.25" y1="364.14286" x2="974.25" y2="384.92857" data-paper-data="{&quot;endpoints&quot;:[[&quot;Point&quot;,986.25,364.14286],[&quot;Point&quot;,974.25,384.92857]]}"/><line x1="986.25" y1="364.14286" x2="998.25" y2="343.35714" data-paper-data="{&quot;endpoints&quot;:[[&quot;Point&quot;,986.25,364.14286],[&quot;Point&quot;,998.25,343.35714]]}"/><line x1="986.25" y1="364.14286" x2="950.25" y2="343.35714" data-paper-data="{&quot;endpoints&quot;:[[&quot;Point&quot;,986.25,364.14286],[&quot;Point&quot;,950.25,343.35714]]}"/><line x1="962.25" y1="364.14286" x2="974.25" y2="343.35714" data-paper-data="{&quot;endpoints&quot;:[[&quot;Point&quot;,962.25,364.14286],[&quot;Point&quot;,974.25,343.35714]]}"/><line x1="962.25" y1="364.14286" x2="974.25" y2="384.92857" data-paper-data="{&quot;endpoints&quot;:[[&quot;Point&quot;,962.25,364.14286],[&quot;Point&quot;,974.25,384.92857]]}"/><line x1="962.25" y1="364.14286" x2="998.25" y2="343.35714" data-paper-data="{&quot;endpoints&quot;:[[&quot;Point&quot;,962.25,364.14286],[&quot;Point&quot;,998.25,343.35714]]}"/><line x1="962.25" y1="364.14286" x2="950.25" y2="343.35714" data-paper-data="{&quot;endpoints&quot;:[[&quot;Point&quot;,962.25,364.14286],[&quot;Point&quot;,950.25,343.35714]]}"/><line x1="974.25" y1="343.35714" x2="974.25" y2="384.92857" data-paper-data="{&quot;endpoints&quot;:[[&quot;Point&quot;,974.25,343.35714],[&quot;Point&quot;,974.25,384.92857]]}"/><line x1="974.25" y1="343.35714" x2="998.25" y2="343.35714" data-paper-data="{&quot;endpoints&quot;:[[&quot;Point&quot;,974.25,343.35714],[&quot;Point&quot;,998.25,343.35714]]}"/><line x1="974.25" y1="343.35714" x2="950.25" y2="343.35714" data-paper-data="{&quot;endpoints&quot;:[[&quot;Point&quot;,974.25,343.35714],[&quot;Point&quot;,950.25,343.35714]]}"/><line x1="974.25" y1="384.92857" x2="998.25" y2="343.35714" data-paper-data="{&quot;endpoints&quot;:[[&quot;Point&quot;,974.25,384.92857],[&quot;Point&quot;,998.25,343.35714]]}" opacity="0"/><line x1="974.25" y1="384.92857" x2="950.25" y2="343.35714" data-paper-data="{&quot;endpoints&quot;:[[&quot;Point&quot;,974.25,384.92857],[&quot;Point&quot;,950.25,343.35714]]}" opacity="0"/><line x1="998.25" y1="343.35714" x2="950.25" y2="343.35714" data-paper-data="{&quot;endpoints&quot;:[[&quot;Point&quot;,998.25,343.35714],[&quot;Point&quot;,950.25,343.35714]]}" opacity="0"/></g><rect x="980" y="485" width="12.5" height="1.66667" stroke="#000000" stroke-width="0.5" stroke-linecap="butt" opacity="0"/><g stroke="#ffffff" stroke-width="0.5" stroke-linecap="round"><circle cx="-986.25" cy="-485.85714" transform="rotate(180)" r="24" data-paper-data="{&quot;index&quot;:0}" opacity="0"/><circle cx="-962.25" cy="-485.85714" transform="rotate(180)" r="24" data-paper-data="{&quot;index&quot;:1}" opacity="0"/><circle cx="-974.25" cy="-465.07143" transform="rotate(180)" r="24" data-paper-data="{&quot;index&quot;:2}" opacity="0"/><circle cx="986.25" cy="485.85714" r="1.5" fill="#ffffff"/><circle cx="962.25" cy="485.85714" r="1.5" fill="#ffffff"/><circle cx="974.25" cy="465.07143" r="1.5" fill="#ffffff"/><circle cx="974.25" cy="506.64286" r="1.5" fill="#ffffff"/><circle cx="998.25" cy="465.07143" r="1.5" fill="#ffffff"/><circle cx="950.25" cy="465.07143" r="1.5" fill="#ffffff"/></g><rect x="980" y="606.66667" width="12.5" height="1.66667" stroke="#000000" stroke-width="0.5" stroke-linecap="butt" opacity="0"/><g stroke="#ffffff" stroke-width="0.5" stroke-linecap="round"><circle cx="-986.25" cy="-607.5" transform="rotate(180)" r="24" data-paper-data="{&quot;index&quot;:0}"/><circle cx="-962.25" cy="-607.5" transform="rotate(-180)" r="24" data-paper-data="{&quot;index&quot;:1}"/><circle cx="-974.25" cy="-586.71429" transform="rotate(180)" r="24" data-paper-data="{&quot;index&quot;:2}"/></g></g></svg>