<svg x="0" y="0" width="1101" height="850" version="1.1" xmlns="http://www.w3.org/2000/svg" xmlns:xlink="http://www.w3.org/1999/xlink"><g fill="none" stroke="none" stroke-width="none" stroke-linecap="none" stroke-linejoin="miter" stroke-miterlimit="10" stroke-dasharray="" stroke-dashoffset="0" font-family="sans-serif" font-size="12" text-anchor="start" mix-blend-mode="normal"><rect x="570.5" y="25" width="510.5" height="800" fill="#000000" stroke-width="1" stroke-linecap="butt"/><g stroke-width="1" stroke-linecap="butt"/><rect x="658.125" y="120" width="12.375" height="1.66667" stroke="#000000" stroke-width="0.5" stroke-linecap="butt" opacity="0"/><g stroke="#ffffff" stroke-width="0.5" stroke-linecap="round"><circle cx="-227.49536" cy="-635.7478" transform="rotate(120)" r="24" data-paper-data="{&quot;index&quot;:0}" opacity="0"/><circle cx="-203.4944" cy="-635.74836" transform="matrix(-0.4999999999999998,0.8660254037844387,-0.8660254037844387,-0.4999999999999998,0,0)" r="24" data-paper-data="{&quot;index&quot;:1}" opacity="0"/><circle cx="-215.49536" cy="-614.9632" transform="matrix(-0.4999999999999998,0.8660254037844387,-0.8660254037844387,-0.4999999999999998,0,0)" r="24" data-paper-data="{&quot;index&quot;:2}" opacity="0"/><circle cx="-239.49631" cy="-614.96264" transform="matrix(-0.4999999999999998,0.8660254037844387,-0.8660254037844387,-0.4999999999999998,0,0)" r="24" data-paper-data="{&quot;index&quot;:3}" opacity="0"/><circle cx="652.32143" cy="120.85714" r="12"/><circle cx="652.32143" cy="120.85714" r="20.78571"/><circle cx="652.32143" cy="120.85714" r="12"/><circle cx="652.32143" cy="120.85714" r="20.78571"/><circle cx="652.32143" cy="120.85714" r="31.74974"/><circle cx="652.32143" cy="120.85714" r="31.74974"/><circle cx="652.32143" cy="120.85714" r="31.74974"/><circle cx="652.32143" cy="120.85714" r="31.74974"/></g><rect x="765.75" y="120" width="12.375" height="1.66667" stroke="#000000" stroke-width="0.5" stroke-linecap="butt" opacity="0"/><g stroke="#ffffff" stroke-width="0.5" stroke-linecap="round"><circle cx="-281.34772" cy="-728.9514" transform="rotate(120)" r="24" data-paper-data="{&quot;index&quot;:0}" opacity="0"/><circle cx="-257.34676" cy="-728.95195" transform="matrix(-0.4999999999999998,0.8660254037844387,-0.8660254037844387,-0.4999999999999998,0,0)" r="24" data-paper-data="{&quot;index&quot;:1}" opacity="0"/><circle cx="-269.34772" cy="-708.16679" transform="rotate(120)" r="24" data-paper-data="{&quot;index&quot;:2}" opacity="0"/><circle cx="-293.34867" cy="-708.16623" transform="matrix(-0.4999999999999998,0.8660254037844387,-0.8660254037844387,-0.4999999999999998,0,0)" r="24" data-paper-data="{&quot;index&quot;:3}" opacity="0"/><line x1="771.96429" y1="120.82143" x2="759.96429" y2="141.60714" data-paper-data="{&quot;endpoints&quot;:[[&quot;Point&quot;,771.96429,120.82143],[&quot;Point&quot;,759.96429,141.60714]]}" opacity="0"/><line x1="771.96429" y1="120.82143" x2="747.96429" y2="120.82143" data-paper-data="{&quot;endpoints&quot;:[[&quot;Point&quot;,771.96429,120.82143],[&quot;Point&quot;,747.96429,120.82143]]}"/><line x1="771.96429" y1="120.82143" x2="759.96429" y2="100.03571" data-paper-data="{&quot;endpoints&quot;:[[&quot;Point&quot;,771.96429,120.82143],[&quot;Point&quot;,759.96429,100.03571]]}" opacity="0"/><line x1="771.96429" y1="120.82143" x2="783.96429" y2="141.60714" data-paper-data="{&quot;endpoints&quot;:[[&quot;Point&quot;,771.96429,120.82143],[&quot;Point&quot;,783.96429,141.60714]]}" opacity="0"/><line x1="771.96429" y1="120.82143" x2="783.96429" y2="100.03571" data-paper-data="{&quot;endpoints&quot;:[[&quot;Point&quot;,771.96429,120.82143],[&quot;Point&quot;,783.96429,100.03571]]}" opacity="0"/><line x1="771.96429" y1="120.82143" x2="735.96429" y2="141.60714" data-paper-data="{&quot;endpoints&quot;:[[&quot;Point&quot;,771.96429,120.82143],[&quot;Point&quot;,735.96429,141.60714]]}" opacity="0"/><line x1="771.96429" y1="120.82143" x2="735.96429" y2="100.03571" data-paper-data="{&quot;endpoints&quot;:[[&quot;Point&quot;,771.96429,120.82143],[&quot;Point&quot;,735.96429,100.03571]]}" opacity="0"/><line x1="759.96429" y1="141.60714" x2="747.96429" y2="120.82143" data-paper-data="{&quot;endpoints&quot;:[[&quot;Point&quot;,759.96429,141.60714],[&quot;Point&quot;,747.96429,120.82143]]}" opacity="0"/><line x1="759.96429" y1="141.60714" x2="759.96429" y2="100.03571" data-paper-data="{&quot;endpoints&quot;:[[&quot;Point&quot;,759.96429,141.60714],[&quot;Point&quot;,759.96429,100.03571]]}"/><line x1="759.96429" y1="141.60714" x2="783.96429" y2="141.60714" data-paper-data="{&quot;endpoints&quot;:[[&quot;Point&quot;,759.96429,141.60714],[&quot;Point&quot;,783.96429,141.60714]]}" opacity="0"/><line x1="759.96429" y1="141.60714" x2="783.96429" y2="100.03571" data-paper-data="{&quot;endpoints&quot;:[[&quot;Point&quot;,759.96429,141.60714],[&quot;Point&quot;,783.96429,100.03571]]}" opacity="0"/><line x1="759.96429" y1="141.60714" x2="735.96429" y2="141.60714" data-paper-data="{&quot;endpoints&quot;:[[&quot;Point&quot;,759.96429,141.60714],[&quot;Point&quot;,735.96429,141.60714]]}" opacity="0"/><line x1="759.96429" y1="141.60714" x2="735.96429" y2="100.03571" data-paper-data="{&quot;endpoints&quot;:[[&quot;Point&quot;,759.96429,141.60714],[&quot;Point&quot;,735.96429,100.03571]]}" opacity="0"/><line x1="747.96429" y1="120.82143" x2="759.96429" y2="100.03571" data-paper-data="{&quot;endpoints&quot;:[[&quot;Point&quot;,747.96429,120.82143],[&quot;Point&quot;,759.96429,100.03571]]}" opacity="0"/><line x1="747.96429" y1="120.82143" x2="783.96429" y2="141.60714" data-paper-data="{&quot;endpoints&quot;:[[&quot;Point&quot;,747.96429,120.82143],[&quot;Point&quot;,783.96429,141.60714]]}" opacity="0"/><line x1="747.96429" y1="120.82143" x2="783.96429" y2="100.03571" data-paper-data="{&quot;endpoints&quot;:[[&quot;Point&quot;,747.96429,120.82143],[&quot;Point&quot;,783.96429,100.03571]]}" opacity="0"/><line x1="747.96429" y1="120.82143" x2="735.96429" y2="141.60714" data-paper-data="{&quot;endpoints&quot;:[[&quot;Point&quot;,747.96429,120.82143],[&quot;Point&quot;,735.96429,141.60714]]}" opacity="0"/><line x1="747.96429" y1="120.82143" x2="735.96429" y2="100.03571" data-paper-data="{&quot;endpoints&quot;:[[&quot;Point&quot;,747.96429,120.82143],[&quot;Point&quot;,735.96429,100.03571]]}" opacity="0"/><line x1="759.96429" y1="100.03571" x2="783.96429" y2="141.60714" data-paper-data="{&quot;endpoints&quot;:[[&quot;Point&quot;,759.96429,100.03571],[&quot;Point&quot;,783.96429,141.60714]]}" opacity="0"/><line x1="759.96429" y1="100.03571" x2="783.96429" y2="100.03571" data-paper-data="{&quot;endpoints&quot;:[[&quot;Point&quot;,759.96429,100.03571],[&quot;Point&quot;,783.96429,100.03571]]}" opacity="0"/><line x1="759.96429" y1="100.03571" x2="735.96429" y2="141.60714" data-paper-data="{&quot;endpoints&quot;:[[&quot;Point&quot;,759.96429,100.03571],[&quot;Point&quot;,735.96429,141.60714]]}" opacity="0"/><line x1="759.96429" y1="100.03571" x2="735.96429" y2="100.03571" data-paper-data="{&quot;endpoints&quot;:[[&quot;Point&quot;,759.96429,100.03571],[&quot;Point&quot;,735.96429,100.03571]]}" opacity="0"/><line x1="783.96429" y1="141.60714" x2="783.96429" y2="100.03571" data-paper-data="{&quot;endpoints&quot;:[[&quot;Point&quot;,783.96429,141.60714],[&quot;Point&quot;,783.96429,100.03571]]}" opacity="0"/><line x1="783.96429" y1="141.60714" x2="735.96429" y2="141.60714" data-paper-data="{&quot;endpoints&quot;:[[&quot;Point&quot;,783.96429,141.60714],[&quot;Point&quot;,735.96429,141.60714]]}" opacity="0"/><line x1="783.96429" y1="141.60714" x2="735.96429" y2="100.03571" data-paper-data="{&quot;endpoints&quot;:[[&quot;Point&quot;,783.96429,141.60714],[&quot;Point&quot;,735.96429,100.03571]]}"/><line x1="783.96429" y1="100.03571" x2="735.96429" y2="141.60714" data-paper-data="{&quot;endpoints&quot;:[[&quot;Point&quot;,783.96429,100.03571],[&quot;Point&quot;,735.96429,141.60714]]}"/><line x1="783.96429" y1="100.03571" x2="735.96429" y2="100.03571" data-paper-data="{&quot;endpoints&quot;:[[&quot;Point&quot;,783.96429,100.03571],[&quot;Point&quot;,735.96429,100.03571]]}" opacity="0"/><line x1="735.96429" y1="141.60714" x2="735.96429" y2="100.03571" data-paper-data="{&quot;endpoints&quot;:[[&quot;Point&quot;,735.96429,141.60714],[&quot;Point&quot;,735.96429,100.03571]]}" opacity="0"/></g><rect x="873.375" y="120" width="12.375" height="1.66667" stroke="#000000" stroke-width="0.5" stroke-linecap="butt" opacity="0"/><g stroke="#ffffff" stroke-width="0.5" stroke-linecap="round"><circle cx="-335.12036" cy="-822.15977" transform="matrix(-0.4999999999999998,0.8660254037844387,-0.8660254037844387,-0.4999999999999998,0,0)" r="24" data-paper-data="{&quot;index&quot;:0}" opacity="0"/><circle cx="-311.1194" cy="-822.16033" transform="matrix(-0.4999999999999998,0.8660254037844387,-0.8660254037844387,-0.4999999999999998,0,0)" r="24" data-paper-data="{&quot;index&quot;:1}" opacity="0"/><circle cx="-323.12036" cy="-801.37516" transform="matrix(-0.4999999999999998,0.8660254037844387,-0.8660254037844387,-0.4999999999999998,0,0)" r="24" data-paper-data="{&quot;index&quot;:2}" opacity="0"/><circle cx="-347.12131" cy="-801.37461" transform="matrix(-0.4999999999999998,0.8660254037844387,-0.8660254037844387,-0.4999999999999998,0,0)" r="24" data-paper-data="{&quot;index&quot;:3}" opacity="0"/><circle cx="867.57143" cy="120.85714" r="1.5" fill="#ffffff"/></g><rect x="981" y="120" width="12.375" height="1.66667" stroke="#000000" stroke-width="0.5" stroke-linecap="butt" opacity="0"/><g stroke="#ffffff" stroke-width="0.5" stroke-linecap="round"><circle cx="-388.97272" cy="-915.36336" transform="rotate(120)" r="24" data-paper-data="{&quot;index&quot;:0}" opacity="0"/><circle cx="-364.97176" cy="-915.36392" transform="rotate(120)" r="24" data-paper-data="{&quot;index&quot;:1}" opacity="0"/><circle cx="-376.97272" cy="-894.57876" transform="rotate(120)" r="24" data-paper-data="{&quot;index&quot;:2}" opacity="0"/><circle cx="-400.97367" cy="-894.5782" transform="matrix(-0.4999999999999998,0.8660254037844387,-0.8660254037844387,-0.4999999999999998,0,0)" r="24" data-paper-data="{&quot;index&quot;:3}" opacity="0"/><circle cx="975.21429" cy="120.82143" r="1.5" fill="#ffffff"/><line x1="987.21429" y1="120.82143" x2="975.21429" y2="141.60714" data-paper-data="{&quot;endpoints&quot;:[[&quot;Point&quot;,987.21429,120.82143],[&quot;Point&quot;,975.21429,141.60714]]}" opacity="0"/><line x1="987.21429" y1="120.82143" x2="963.21429" y2="120.82143" data-paper-data="{&quot;endpoints&quot;:[[&quot;Point&quot;,987.21429,120.82143],[&quot;Point&quot;,963.21429,120.82143]]}"/><line x1="987.21429" y1="120.82143" x2="975.21429" y2="100.03571" data-paper-data="{&quot;endpoints&quot;:[[&quot;Point&quot;,987.21429,120.82143],[&quot;Point&quot;,975.21429,100.03571]]}" opacity="0"/><line x1="987.21429" y1="120.82143" x2="999.21429" y2="141.60714" data-paper-data="{&quot;endpoints&quot;:[[&quot;Point&quot;,987.21429,120.82143],[&quot;Point&quot;,999.21429,141.60714]]}" opacity="0"/><line x1="987.21429" y1="120.82143" x2="999.21429" y2="100.03571" data-paper-data="{&quot;endpoints&quot;:[[&quot;Point&quot;,987.21429,120.82143],[&quot;Point&quot;,999.21429,100.03571]]}" opacity="0"/><line x1="987.21429" y1="120.82143" x2="951.21429" y2="141.60714" data-paper-data="{&quot;endpoints&quot;:[[&quot;Point&quot;,987.21429,120.82143],[&quot;Point&quot;,951.21429,141.60714]]}" opacity="0"/><line x1="987.21429" y1="120.82143" x2="951.21429" y2="100.03571" data-paper-data="{&quot;endpoints&quot;:[[&quot;Point&quot;,987.21429,120.82143],[&quot;Point&quot;,951.21429,100.03571]]}" opacity="0"/><line x1="975.21429" y1="141.60714" x2="963.21429" y2="120.82143" data-paper-data="{&quot;endpoints&quot;:[[&quot;Point&quot;,975.21429,141.60714],[&quot;Point&quot;,963.21429,120.82143]]}" opacity="0"/><line x1="975.21429" y1="141.60714" x2="975.21429" y2="100.03571" data-paper-data="{&quot;endpoints&quot;:[[&quot;Point&quot;,975.21429,141.60714],[&quot;Point&quot;,975.21429,100.03571]]}"/><line x1="975.21429" y1="141.60714" x2="999.21429" y2="141.60714" data-paper-data="{&quot;endpoints&quot;:[[&quot;Point&quot;,975.21429,141.60714],[&quot;Point&quot;,999.21429,141.60714]]}" opacity="0"/><line x1="975.21429" y1="141.60714" x2="999.21429" y2="100.03571" data-paper-data="{&quot;endpoints&quot;:[[&quot;Point&quot;,975.21429,141.60714],[&quot;Point&quot;,999.21429,100.03571]]}" opacity="0"/><line x1="975.21429" y1="141.60714" x2="951.21429" y2="141.60714" data-paper-data="{&quot;endpoints&quot;:[[&quot;Point&quot;,975.21429,141.60714],[&quot;Point&quot;,951.21429,141.60714]]}" opacity="0"/><line x1="975.21429" y1="141.60714" x2="951.21429" y2="100.03571" data-paper-data="{&quot;endpoints&quot;:[[&quot;Point&quot;,975.21429,141.60714],[&quot;Point&quot;,951.21429,100.03571]]}" opacity="0"/><line x1="963.21429" y1="120.82143" x2="975.21429" y2="100.03571" data-paper-data="{&quot;endpoints&quot;:[[&quot;Point&quot;,963.21429,120.82143],[&quot;Point&quot;,975.21429,100.03571]]}" opacity="0"/><line x1="963.21429" y1="120.82143" x2="999.21429" y2="141.60714" data-paper-data="{&quot;endpoints&quot;:[[&quot;Point&quot;,963.21429,120.82143],[&quot;Point&quot;,999.21429,141.60714]]}" opacity="0"/><line x1="963.21429" y1="120.82143" x2="999.21429" y2="100.03571" data-paper-data="{&quot;endpoints&quot;:[[&quot;Point&quot;,963.21429,120.82143],[&quot;Point&quot;,999.21429,100.03571]]}" opacity="0"/><line x1="963.21429" y1="120.82143" x2="951.21429" y2="141.60714" data-paper-data="{&quot;endpoints&quot;:[[&quot;Point&quot;,963.21429,120.82143],[&quot;Point&quot;,951.21429,141.60714]]}" opacity="0"/><line x1="963.21429" y1="120.82143" x2="951.21429" y2="100.03571" data-paper-data="{&quot;endpoints&quot;:[[&quot;Point&quot;,963.21429,120.82143],[&quot;Point&quot;,951.21429,100.03571]]}" opacity="0"/><line x1="975.21429" y1="100.03571" x2="999.21429" y2="141.60714" data-paper-data="{&quot;endpoints&quot;:[[&quot;Point&quot;,975.21429,100.03571],[&quot;Point&quot;,999.21429,141.60714]]}" opacity="0"/><line x1="975.21429" y1="100.03571" x2="999.21429" y2="100.03571" data-paper-data="{&quot;endpoints&quot;:[[&quot;Point&quot;,975.21429,100.03571],[&quot;Point&quot;,999.21429,100.03571]]}" opacity="0"/><line x1="975.21429" y1="100.03571" x2="951.21429" y2="141.60714" data-paper-data="{&quot;endpoints&quot;:[[&quot;Point&quot;,975.21429,100.03571],[&quot;Point&quot;,951.21429,141.60714]]}" opacity="0"/><line x1="975.21429" y1="100.03571" x2="951.21429" y2="100.03571" data-paper-data="{&quot;endpoints&quot;:[[&quot;Point&quot;,975.21429,100.03571],[&quot;Point&quot;,951.21429,100.03571]]}" opacity="0"/><line x1="999.21429" y1="141.60714" x2="999.21429" y2="100.03571" data-paper-data="{&quot;endpoints&quot;:[[&quot;Point&quot;,999.21429,141.60714],[&quot;Point&quot;,999.21429,100.03571]]}" opacity="0"/><line x1="999.21429" y1="141.60714" x2="951.21429" y2="141.60714" data-paper-data="{&quot;endpoints&quot;:[[&quot;Point&quot;,999.21429,141.60714],[&quot;Point&quot;,951.21429,141.60714]]}" opacity="0"/><line x1="999.21429" y1="141.60714" x2="951.21429" y2="100.03571" data-paper-data="{&quot;endpoints&quot;:[[&quot;Point&quot;,999.21429,141.60714],[&quot;Point&quot;,951.21429,100.03571]]}"/><line x1="999.21429" y1="100.03571" x2="951.21429" y2="141.60714" data-paper-data="{&quot;endpoints&quot;:[[&quot;Point&quot;,999.21429,100.03571],[&quot;Point&quot;,951.21429,141.60714]]}"/><line x1="999.21429" y1="100.03571" x2="951.21429" y2="100.03571" data-paper-data="{&quot;endpoints&quot;:[[&quot;Point&quot;,999.21429,100.03571],[&quot;Point&quot;,951.21429,100.03571]]}" opacity="0"/><line x1="951.21429" y1="141.60714" x2="951.21429" y2="100.03571" data-paper-data="{&quot;endpoints&quot;:[[&quot;Point&quot;,951.21429,141.60714],[&quot;Point&quot;,951.21429,100.03571]]}" opacity="0"/><circle cx="975.21429" cy="120.82143" r="12"/><circle cx="975.21429" cy="120.82143" r="20.78571"/><circle cx="975.21429" cy="120.82143" r="12"/><circle cx="975.21429" cy="120.82143" r="20.78571"/><circle cx="975.21429" cy="120.82143" r="31.74974"/><circle cx="975.21429" cy="120.82143" r="31.74974"/><circle cx="975.21429" cy="120.82143" r="31.74974"/><circle cx="975.21429" cy="120.82143" r="31.74974"/></g><rect x="658.125" y="241.66667" width="12.375" height="1.66667" stroke="#000000" stroke-width="0.5" stroke-linecap="butt" opacity="0"/><g stroke="#ffffff" stroke-width="0.5" stroke-linecap="round"><circle cx="-122.14955" cy="-696.56923" transform="matrix(-0.4999999999999998,0.8660254037844387,-0.8660254037844387,-0.4999999999999998,0,0)" r="24" data-paper-data="{&quot;index&quot;:0}" opacity="0"/><circle cx="-98.1486" cy="-696.56979" transform="matrix(-0.4999999999999998,0.8660254037844387,-0.8660254037844387,-0.4999999999999998,0,0)" r="24" data-paper-data="{&quot;index&quot;:1}" opacity="0"/><circle cx="-110.14955" cy="-675.78462" transform="rotate(120)" r="24" data-paper-data="{&quot;index&quot;:2}" opacity="0"/><circle cx="-134.15051" cy="-675.78407" transform="rotate(120)" r="24" data-paper-data="{&quot;index&quot;:3}" opacity="0"/><circle cx="652.32143" cy="242.5" r="12"/><circle cx="652.32143" cy="242.5" r="3.21429"/></g><rect x="765.75" y="241.66667" width="12.375" height="1.66667" stroke="#000000" stroke-width="0.5" stroke-linecap="butt" opacity="0"/><g stroke="#ffffff" stroke-width="0.5" stroke-linecap="round"><circle cx="-175.95313" cy="-789.75975" transform="matrix(-0.4999999999999998,0.8660254037844387,-0.8660254037844387,-0.4999999999999998,0,0)" r="24" data-paper-data="{&quot;index&quot;:0}" opacity="0"/><circle cx="-151.95217" cy="-789.76031" transform="rotate(120)" r="24" data-paper-data="{&quot;index&quot;:1}" opacity="0"/><circle cx="-163.95313" cy="-768.97514" transform="rotate(120)" r="24" data-paper-data="{&quot;index&quot;:2}" opacity="0"/><circle cx="-187.95408" cy="-768.97459" transform="rotate(120)" r="24" data-paper-data="{&quot;index&quot;:3}" opacity="0"/><circle cx="759.92857" cy="249.42857" r="13.85714"/><circle cx="759.92857" cy="235.57143" r="13.85714"/><circle cx="759.92857" cy="249.42857" r="10.14286"/><circle cx="759.92857" cy="235.57143" r="10.14286"/></g><rect x="873.375" y="241.66667" width="12.375" height="1.66667" stroke="#000000" stroke-width="0.5" stroke-linecap="butt" opacity="0"/><g stroke="#ffffff" stroke-width="0.5" stroke-linecap="round"><circle cx="-229.77455" cy="-882.9812" transform="matrix(-0.4999999999999998,0.8660254037844387,-0.8660254037844387,-0.4999999999999998,0,0)" r="24" data-paper-data="{&quot;index&quot;:0}" opacity="0"/><circle cx="-205.7736" cy="-882.98175" transform="matrix(-0.4999999999999998,0.8660254037844387,-0.8660254037844387,-0.4999999999999998,0,0)" r="24" data-paper-data="{&quot;index&quot;:1}" opacity="0"/><circle cx="-217.77455" cy="-862.19659" transform="matrix(-0.4999999999999998,0.8660254037844387,-0.8660254037844387,-0.4999999999999998,0,0)" r="24" data-paper-data="{&quot;index&quot;:2}" opacity="0"/><circle cx="-241.77551" cy="-862.19604" transform="matrix(-0.4999999999999998,0.8660254037844387,-0.8660254037844387,-0.4999999999999998,0,0)" r="24" data-paper-data="{&quot;index&quot;:3}" opacity="0"/><circle cx="873.57143" cy="252.89286" r="20.78571"/><circle cx="867.57143" cy="242.5" r="20.78571"/><circle cx="873.57143" cy="232.10714" r="20.78571"/><circle cx="861.57143" cy="252.89286" r="20.78571"/><circle cx="861.57143" cy="232.10714" r="20.78571"/><circle cx="873.57143" cy="252.89286" r="12"/><circle cx="867.57143" cy="242.5" r="12"/><circle cx="873.57143" cy="232.10714" r="12"/><circle cx="861.57143" cy="252.89286" r="12"/><circle cx="861.57143" cy="232.10714" r="12"/></g><rect x="981" y="241.66667" width="12.375" height="1.66667" stroke="#000000" stroke-width="0.5" stroke-linecap="butt" opacity="0"/><g stroke="#ffffff" stroke-width="0.5" stroke-linecap="round"><circle cx="-283.57813" cy="-976.17172" transform="rotate(120)" r="24" data-paper-data="{&quot;index&quot;:0}" opacity="0"/><circle cx="-259.57717" cy="-976.17227" transform="rotate(120)" r="24" data-paper-data="{&quot;index&quot;:1}" opacity="0"/><circle cx="-271.57813" cy="-955.38711" transform="matrix(-0.4999999999999998,0.8660254037844387,-0.8660254037844387,-0.4999999999999998,0,0)" r="24" data-paper-data="{&quot;index&quot;:2}" opacity="0"/><circle cx="-295.57908" cy="-955.38656" transform="matrix(-0.4999999999999998,0.8660254037844387,-0.8660254037844387,-0.4999999999999998,0,0)" r="24" data-paper-data="{&quot;index&quot;:3}" opacity="0"/><circle cx="981.17857" cy="252.89286" r="20.78571"/><circle cx="975.17857" cy="242.5" r="20.78571"/><circle cx="981.17857" cy="232.10714" r="20.78571"/><circle cx="969.17857" cy="252.89286" r="20.78571"/><circle cx="969.17857" cy="232.10714" r="20.78571"/><circle cx="981.17857" cy="252.89286" r="12"/><circle cx="975.17857" cy="242.5" r="12"/><circle cx="981.17857" cy="232.10714" r="12"/><circle cx="969.17857" cy="252.89286" r="12"/><circle cx="969.17857" cy="232.10714" r="12"/><circle cx="975.17857" cy="249.42857" r="13.85714"/><circle cx="975.17857" cy="235.57143" r="13.85714"/><circle cx="975.17857" cy="249.42857" r="10.14286"/><circle cx="975.17857" cy="235.57143" r="10.14286"/><circle cx="975.17857" cy="242.5" r="12"/><circle cx="975.17857" cy="242.5" r="3.21429"/></g><rect x="658.125" y="363.33333" width="12.375" height="1.66667" stroke="#000000" stroke-width="0.5" stroke-linecap="butt" opacity="0"/><g stroke="#ffffff" stroke-width="0.5" stroke-linecap="round"><circle cx="-16.75496" cy="-757.37759" transform="matrix(-0.4999999999999998,0.8660254037844387,-0.8660254037844387,-0.4999999999999998,0,0)" r="24" data-paper-data="{&quot;index&quot;:0}" opacity="0"/><circle cx="7.24599" cy="-757.37814" transform="matrix(-0.4999999999999998,0.8660254037844387,-0.8660254037844387,-0.4999999999999998,0,0)" r="24" data-paper-data="{&quot;index&quot;:1}" opacity="0"/><circle cx="-4.75496" cy="-736.59298" transform="matrix(-0.4999999999999998,0.8660254037844387,-0.8660254037844387,-0.4999999999999998,0,0)" r="24" data-paper-data="{&quot;index&quot;:2}" opacity="0"/><circle cx="-28.75592" cy="-736.59243" transform="matrix(-0.4999999999999998,0.8660254037844387,-0.8660254037844387,-0.4999999999999998,0,0)" r="24" data-paper-data="{&quot;index&quot;:3}" opacity="0"/><line x1="664.28571" y1="364.17857" x2="652.28571" y2="384.96429" data-paper-data="{&quot;endpoints&quot;:[[&quot;Point&quot;,664.28571,364.17857],[&quot;Point&quot;,652.28571,384.96429]]}" opacity="0"/><line x1="664.28571" y1="364.17857" x2="640.28571" y2="364.17857" data-paper-data="{&quot;endpoints&quot;:[[&quot;Point&quot;,664.28571,364.17857],[&quot;Point&quot;,640.28571,364.17857]]}" opacity="0"/><line x1="664.28571" y1="364.17857" x2="652.28571" y2="343.39286" data-paper-data="{&quot;endpoints&quot;:[[&quot;Point&quot;,664.28571,364.17857],[&quot;Point&quot;,652.28571,343.39286]]}" opacity="0"/><line x1="664.28571" y1="364.17857" x2="676.28571" y2="384.96429" data-paper-data="{&quot;endpoints&quot;:[[&quot;Point&quot;,664.28571,364.17857],[&quot;Point&quot;,676.28571,384.96429]]}" opacity="0"/><line x1="664.28571" y1="364.17857" x2="676.28571" y2="343.39286" data-paper-data="{&quot;endpoints&quot;:[[&quot;Point&quot;,664.28571,364.17857],[&quot;Point&quot;,676.28571,343.39286]]}" opacity="0"/><line x1="664.28571" y1="364.17857" x2="628.28571" y2="384.96429" data-paper-data="{&quot;endpoints&quot;:[[&quot;Point&quot;,664.28571,364.17857],[&quot;Point&quot;,628.28571,384.96429]]}" opacity="0"/><line x1="664.28571" y1="364.17857" x2="628.28571" y2="343.39286" data-paper-data="{&quot;endpoints&quot;:[[&quot;Point&quot;,664.28571,364.17857],[&quot;Point&quot;,628.28571,343.39286]]}" opacity="0"/><line x1="652.28571" y1="384.96429" x2="640.28571" y2="364.17857" data-paper-data="{&quot;endpoints&quot;:[[&quot;Point&quot;,652.28571,384.96429],[&quot;Point&quot;,640.28571,364.17857]]}" opacity="0"/><line x1="652.28571" y1="384.96429" x2="652.28571" y2="343.39286" data-paper-data="{&quot;endpoints&quot;:[[&quot;Point&quot;,652.28571,384.96429],[&quot;Point&quot;,652.28571,343.39286]]}" opacity="0"/><line x1="652.28571" y1="384.96429" x2="676.28571" y2="384.96429" data-paper-data="{&quot;endpoints&quot;:[[&quot;Point&quot;,652.28571,384.96429],[&quot;Point&quot;,676.28571,384.96429]]}" opacity="0"/><line x1="652.28571" y1="384.96429" x2="676.28571" y2="343.39286" data-paper-data="{&quot;endpoints&quot;:[[&quot;Point&quot;,652.28571,384.96429],[&quot;Point&quot;,676.28571,343.39286]]}" opacity="0"/><line x1="652.28571" y1="384.96429" x2="628.28571" y2="384.96429" data-paper-data="{&quot;endpoints&quot;:[[&quot;Point&quot;,652.28571,384.96429],[&quot;Point&quot;,628.28571,384.96429]]}" opacity="0"/><line x1="652.28571" y1="384.96429" x2="628.28571" y2="343.39286" data-paper-data="{&quot;endpoints&quot;:[[&quot;Point&quot;,652.28571,384.96429],[&quot;Point&quot;,628.28571,343.39286]]}" opacity="0"/><line x1="640.28571" y1="364.17857" x2="652.28571" y2="343.39286" data-paper-data="{&quot;endpoints&quot;:[[&quot;Point&quot;,640.28571,364.17857],[&quot;Point&quot;,652.28571,343.39286]]}" opacity="0"/><line x1="640.28571" y1="364.17857" x2="676.28571" y2="384.96429" data-paper-data="{&quot;endpoints&quot;:[[&quot;Point&quot;,640.28571,364.17857],[&quot;Point&quot;,676.28571,384.96429]]}" opacity="0"/><line x1="640.28571" y1="364.17857" x2="676.28571" y2="343.39286" data-paper-data="{&quot;endpoints&quot;:[[&quot;Point&quot;,640.28571,364.17857],[&quot;Point&quot;,676.28571,343.39286]]}" opacity="0"/><line x1="640.28571" y1="364.17857" x2="628.28571" y2="384.96429" data-paper-data="{&quot;endpoints&quot;:[[&quot;Point&quot;,640.28571,364.17857],[&quot;Point&quot;,628.28571,384.96429]]}" opacity="0"/><line x1="640.28571" y1="364.17857" x2="628.28571" y2="343.39286" data-paper-data="{&quot;endpoints&quot;:[[&quot;Point&quot;,640.28571,364.17857],[&quot;Point&quot;,628.28571,343.39286]]}" opacity="0"/><line x1="652.28571" y1="343.39286" x2="676.28571" y2="384.96429" data-paper-data="{&quot;endpoints&quot;:[[&quot;Point&quot;,652.28571,343.39286],[&quot;Point&quot;,676.28571,384.96429]]}" opacity="0"/><line x1="652.28571" y1="343.39286" x2="676.28571" y2="343.39286" data-paper-data="{&quot;endpoints&quot;:[[&quot;Point&quot;,652.28571,343.39286],[&quot;Point&quot;,676.28571,343.39286]]}" opacity="0"/><line x1="652.28571" y1="343.39286" x2="628.28571" y2="384.96429" data-paper-data="{&quot;endpoints&quot;:[[&quot;Point&quot;,652.28571,343.39286],[&quot;Point&quot;,628.28571,384.96429]]}" opacity="0"/><line x1="652.28571" y1="343.39286" x2="628.28571" y2="343.39286" data-paper-data="{&quot;endpoints&quot;:[[&quot;Point&quot;,652.28571,343.39286],[&quot;Point&quot;,628.28571,343.39286]]}" opacity="0"/><line x1="676.28571" y1="384.96429" x2="676.28571" y2="343.39286" data-paper-data="{&quot;endpoints&quot;:[[&quot;Point&quot;,676.28571,384.96429],[&quot;Point&quot;,676.28571,343.39286]]}" opacity="0"/><line x1="676.28571" y1="384.96429" x2="628.28571" y2="384.96429" data-paper-data="{&quot;endpoints&quot;:[[&quot;Point&quot;,676.28571,384.96429],[&quot;Point&quot;,628.28571,384.96429]]}" opacity="0"/><line x1="676.28571" y1="384.96429" x2="628.28571" y2="343.39286" data-paper-data="{&quot;endpoints&quot;:[[&quot;Point&quot;,676.28571,384.96429],[&quot;Point&quot;,628.28571,343.39286]]}"/><line x1="676.28571" y1="343.39286" x2="628.28571" y2="384.96429" data-paper-data="{&quot;endpoints&quot;:[[&quot;Point&quot;,676.28571,343.39286],[&quot;Point&quot;,628.28571,384.96429]]}"/><line x1="676.28571" y1="343.39286" x2="628.28571" y2="343.39286" data-paper-data="{&quot;endpoints&quot;:[[&quot;Point&quot;,676.28571,343.39286],[&quot;Point&quot;,628.28571,343.39286]]}" opacity="0"/><line x1="628.28571" y1="384.96429" x2="628.28571" y2="343.39286" data-paper-data="{&quot;endpoints&quot;:[[&quot;Point&quot;,628.28571,384.96429],[&quot;Point&quot;,628.28571,343.39286]]}" opacity="0"/></g><rect x="765.75" y="363.33333" width="12.375" height="1.66667" stroke="#000000" stroke-width="0.5" stroke-linecap="butt" opacity="0"/><g stroke="#ffffff" stroke-width="0.5" stroke-linecap="round"><circle cx="-70.60732" cy="-850.58118" transform="matrix(-0.4999999999999998,0.8660254037844387,-0.8660254037844387,-0.4999999999999998,0,0)" r="24" data-paper-data="{&quot;index&quot;:0}" opacity="0"/><circle cx="-46.60636" cy="-850.58173" transform="matrix(-0.4999999999999998,0.8660254037844387,-0.8660254037844387,-0.4999999999999998,0,0)" r="24" data-paper-data="{&quot;index&quot;:1}" opacity="0"/><circle cx="-58.60732" cy="-829.79657" transform="matrix(-0.4999999999999998,0.8660254037844387,-0.8660254037844387,-0.4999999999999998,0,0)" r="24" data-paper-data="{&quot;index&quot;:2}" opacity="0"/><circle cx="-82.60828" cy="-829.79602" transform="matrix(-0.4999999999999998,0.8660254037844387,-0.8660254037844387,-0.4999999999999998,0,0)" r="24" data-paper-data="{&quot;index&quot;:3}" opacity="0"/><line x1="771.92857" y1="364.14286" x2="759.92857" y2="384.92857" data-paper-data="{&quot;endpoints&quot;:[[&quot;Point&quot;,771.92857,364.14286],[&quot;Point&quot;,759.92857,384.92857]]}" opacity="0"/><line x1="771.92857" y1="364.14286" x2="747.92857" y2="364.14286" data-paper-data="{&quot;endpoints&quot;:[[&quot;Point&quot;,771.92857,364.14286],[&quot;Point&quot;,747.92857,364.14286]]}" opacity="0"/><line x1="771.92857" y1="364.14286" x2="759.92857" y2="343.35714" data-paper-data="{&quot;endpoints&quot;:[[&quot;Point&quot;,771.92857,364.14286],[&quot;Point&quot;,759.92857,343.35714]]}" opacity="0"/><line x1="771.92857" y1="364.14286" x2="783.92857" y2="384.92857" data-paper-data="{&quot;endpoints&quot;:[[&quot;Point&quot;,771.92857,364.14286],[&quot;Point&quot;,783.92857,384.92857]]}" opacity="0"/><line x1="771.92857" y1="364.14286" x2="783.92857" y2="343.35714" data-paper-data="{&quot;endpoints&quot;:[[&quot;Point&quot;,771.92857,364.14286],[&quot;Point&quot;,783.92857,343.35714]]}" opacity="0"/><line x1="771.92857" y1="364.14286" x2="735.92857" y2="384.92857" data-paper-data="{&quot;endpoints&quot;:[[&quot;Point&quot;,771.92857,364.14286],[&quot;Point&quot;,735.92857,384.92857]]}"/><line x1="771.92857" y1="364.14286" x2="735.92857" y2="343.35714" data-paper-data="{&quot;endpoints&quot;:[[&quot;Point&quot;,771.92857,364.14286],[&quot;Point&quot;,735.92857,343.35714]]}"/><line x1="759.92857" y1="384.92857" x2="747.92857" y2="364.14286" data-paper-data="{&quot;endpoints&quot;:[[&quot;Point&quot;,759.92857,384.92857],[&quot;Point&quot;,747.92857,364.14286]]}" opacity="0"/><line x1="759.92857" y1="384.92857" x2="759.92857" y2="343.35714" data-paper-data="{&quot;endpoints&quot;:[[&quot;Point&quot;,759.92857,384.92857],[&quot;Point&quot;,759.92857,343.35714]]}"/><line x1="759.92857" y1="384.92857" x2="783.92857" y2="384.92857" data-paper-data="{&quot;endpoints&quot;:[[&quot;Point&quot;,759.92857,384.92857],[&quot;Point&quot;,783.92857,384.92857]]}" opacity="0"/><line x1="759.92857" y1="384.92857" x2="783.92857" y2="343.35714" data-paper-data="{&quot;endpoints&quot;:[[&quot;Point&quot;,759.92857,384.92857],[&quot;Point&quot;,783.92857,343.35714]]}" opacity="0"/><line x1="759.92857" y1="384.92857" x2="735.92857" y2="384.92857" data-paper-data="{&quot;endpoints&quot;:[[&quot;Point&quot;,759.92857,384.92857],[&quot;Point&quot;,735.92857,384.92857]]}" opacity="0"/><line x1="759.92857" y1="384.92857" x2="735.92857" y2="343.35714" data-paper-data="{&quot;endpoints&quot;:[[&quot;Point&quot;,759.92857,384.92857],[&quot;Point&quot;,735.92857,343.35714]]}" opacity="0"/><line x1="747.92857" y1="364.14286" x2="759.92857" y2="343.35714" data-paper-data="{&quot;endpoints&quot;:[[&quot;Point&quot;,747.92857,364.14286],[&quot;Point&quot;,759.92857,343.35714]]}" opacity="0"/><line x1="747.92857" y1="364.14286" x2="783.92857" y2="384.92857" data-paper-data="{&quot;endpoints&quot;:[[&quot;Point&quot;,747.92857,364.14286],[&quot;Point&quot;,783.92857,384.92857]]}"/><line x1="747.92857" y1="364.14286" x2="783.92857" y2="343.35714" data-paper-data="{&quot;endpoints&quot;:[[&quot;Point&quot;,747.92857,364.14286],[&quot;Point&quot;,783.92857,343.35714]]}"/><line x1="747.92857" y1="364.14286" x2="735.92857" y2="384.92857" data-paper-data="{&quot;endpoints&quot;:[[&quot;Point&quot;,747.92857,364.14286],[&quot;Point&quot;,735.92857,384.92857]]}" opacity="0"/><line x1="747.92857" y1="364.14286" x2="735.92857" y2="343.35714" data-paper-data="{&quot;endpoints&quot;:[[&quot;Point&quot;,747.92857,364.14286],[&quot;Point&quot;,735.92857,343.35714]]}" opacity="0"/><line x1="759.92857" y1="343.35714" x2="783.92857" y2="384.92857" data-paper-data="{&quot;endpoints&quot;:[[&quot;Point&quot;,759.92857,343.35714],[&quot;Point&quot;,783.92857,384.92857]]}" opacity="0"/><line x1="759.92857" y1="343.35714" x2="783.92857" y2="343.35714" data-paper-data="{&quot;endpoints&quot;:[[&quot;Point&quot;,759.92857,343.35714],[&quot;Point&quot;,783.92857,343.35714]]}" opacity="0"/><line x1="759.92857" y1="343.35714" x2="735.92857" y2="384.92857" data-paper-data="{&quot;endpoints&quot;:[[&quot;Point&quot;,759.92857,343.35714],[&quot;Point&quot;,735.92857,384.92857]]}" opacity="0"/><line x1="759.92857" y1="343.35714" x2="735.92857" y2="343.35714" data-paper-data="{&quot;endpoints&quot;:[[&quot;Point&quot;,759.92857,343.35714],[&quot;Point&quot;,735.92857,343.35714]]}" opacity="0"/><line x1="783.92857" y1="384.92857" x2="783.92857" y2="343.35714" data-paper-data="{&quot;endpoints&quot;:[[&quot;Point&quot;,783.92857,384.92857],[&quot;Point&quot;,783.92857,343.35714]]}"/><line x1="783.92857" y1="384.92857" x2="735.92857" y2="384.92857" data-paper-data="{&quot;endpoints&quot;:[[&quot;Point&quot;,783.92857,384.92857],[&quot;Point&quot;,735.92857,384.92857]]}" opacity="0"/><line x1="783.92857" y1="384.92857" x2="735.92857" y2="343.35714" data-paper-data="{&quot;endpoints&quot;:[[&quot;Point&quot;,783.92857,384.92857],[&quot;Point&quot;,735.92857,343.35714]]}" opacity="0"/><line x1="783.92857" y1="343.35714" x2="735.92857" y2="384.92857" data-paper-data="{&quot;endpoints&quot;:[[&quot;Point&quot;,783.92857,343.35714],[&quot;Point&quot;,735.92857,384.92857]]}" opacity="0"/><line x1="783.92857" y1="343.35714" x2="735.92857" y2="343.35714" data-paper-data="{&quot;endpoints&quot;:[[&quot;Point&quot;,783.92857,343.35714],[&quot;Point&quot;,735.92857,343.35714]]}" opacity="0"/><line x1="735.92857" y1="384.92857" x2="735.92857" y2="343.35714" data-paper-data="{&quot;endpoints&quot;:[[&quot;Point&quot;,735.92857,384.92857],[&quot;Point&quot;,735.92857,343.35714]]}"/></g><rect x="873.375" y="363.33333" width="12.375" height="1.66667" stroke="#000000" stroke-width="0.5" stroke-linecap="butt" opacity="0"/><g stroke="#ffffff" stroke-width="0.5" stroke-linecap="round"><circle cx="-124.37996" cy="-943.78956" transform="matrix(-0.4999999999999998,0.8660254037844387,-0.8660254037844387,-0.4999999999999998,0,0)" r="24" data-paper-data="{&quot;index&quot;:0}" opacity="0"/><circle cx="-100.37901" cy="-943.79011" transform="matrix(-0.4999999999999998,0.8660254037844387,-0.8660254037844387,-0.4999999999999998,0,0)" r="24" data-paper-data="{&quot;index&quot;:1}" opacity="0"/><circle cx="-112.37996" cy="-923.00495" transform="matrix(-0.4999999999999998,0.8660254037844387,-0.8660254037844387,-0.4999999999999998,0,0)" r="24" data-paper-data="{&quot;index&quot;:2}" opacity="0"/><circle cx="-136.38092" cy="-923.0044" transform="matrix(-0.4999999999999998,0.8660254037844387,-0.8660254037844387,-0.4999999999999998,0,0)" r="24" data-paper-data="{&quot;index&quot;:3}" opacity="0"/><line x1="879.53571" y1="364.17857" x2="867.53571" y2="384.96429" data-paper-data="{&quot;endpoints&quot;:[[&quot;Point&quot;,879.53571,364.17857],[&quot;Point&quot;,867.53571,384.96429]]}"/><line x1="879.53571" y1="364.17857" x2="855.53571" y2="364.17857" data-paper-data="{&quot;endpoints&quot;:[[&quot;Point&quot;,879.53571,364.17857],[&quot;Point&quot;,855.53571,364.17857]]}"/><line x1="879.53571" y1="364.17857" x2="867.53571" y2="343.39286" data-paper-data="{&quot;endpoints&quot;:[[&quot;Point&quot;,879.53571,364.17857],[&quot;Point&quot;,867.53571,343.39286]]}"/><line x1="879.53571" y1="364.17857" x2="891.53571" y2="384.96429" data-paper-data="{&quot;endpoints&quot;:[[&quot;Point&quot;,879.53571,364.17857],[&quot;Point&quot;,891.53571,384.96429]]}"/><line x1="879.53571" y1="364.17857" x2="891.53571" y2="343.39286" data-paper-data="{&quot;endpoints&quot;:[[&quot;Point&quot;,879.53571,364.17857],[&quot;Point&quot;,891.53571,343.39286]]}"/><line x1="879.53571" y1="364.17857" x2="843.53571" y2="384.96429" data-paper-data="{&quot;endpoints&quot;:[[&quot;Point&quot;,879.53571,364.17857],[&quot;Point&quot;,843.53571,384.96429]]}" opacity="0"/><line x1="879.53571" y1="364.17857" x2="843.53571" y2="343.39286" data-paper-data="{&quot;endpoints&quot;:[[&quot;Point&quot;,879.53571,364.17857],[&quot;Point&quot;,843.53571,343.39286]]}" opacity="0"/><line x1="867.53571" y1="384.96429" x2="855.53571" y2="364.17857" data-paper-data="{&quot;endpoints&quot;:[[&quot;Point&quot;,867.53571,384.96429],[&quot;Point&quot;,855.53571,364.17857]]}"/><line x1="867.53571" y1="384.96429" x2="867.53571" y2="343.39286" data-paper-data="{&quot;endpoints&quot;:[[&quot;Point&quot;,867.53571,384.96429],[&quot;Point&quot;,867.53571,343.39286]]}" opacity="0"/><line x1="867.53571" y1="384.96429" x2="891.53571" y2="384.96429" data-paper-data="{&quot;endpoints&quot;:[[&quot;Point&quot;,867.53571,384.96429],[&quot;Point&quot;,891.53571,384.96429]]}"/><line x1="867.53571" y1="384.96429" x2="891.53571" y2="343.39286" data-paper-data="{&quot;endpoints&quot;:[[&quot;Point&quot;,867.53571,384.96429],[&quot;Point&quot;,891.53571,343.39286]]}" opacity="0"/><line x1="867.53571" y1="384.96429" x2="843.53571" y2="384.96429" data-paper-data="{&quot;endpoints&quot;:[[&quot;Point&quot;,867.53571,384.96429],[&quot;Point&quot;,843.53571,384.96429]]}"/><line x1="867.53571" y1="384.96429" x2="843.53571" y2="343.39286" data-paper-data="{&quot;endpoints&quot;:[[&quot;Point&quot;,867.53571,384.96429],[&quot;Point&quot;,843.53571,343.39286]]}" opacity="0"/><line x1="855.53571" y1="364.17857" x2="867.53571" y2="343.39286" data-paper-data="{&quot;endpoints&quot;:[[&quot;Point&quot;,855.53571,364.17857],[&quot;Point&quot;,867.53571,343.39286]]}"/><line x1="855.53571" y1="364.17857" x2="891.53571" y2="384.96429" data-paper-data="{&quot;endpoints&quot;:[[&quot;Point&quot;,855.53571,364.17857],[&quot;Point&quot;,891.53571,384.96429]]}" opacity="0"/><line x1="855.53571" y1="364.17857" x2="891.53571" y2="343.39286" data-paper-data="{&quot;endpoints&quot;:[[&quot;Point&quot;,855.53571,364.17857],[&quot;Point&quot;,891.53571,343.39286]]}" opacity="0"/><line x1="855.53571" y1="364.17857" x2="843.53571" y2="384.96429" data-paper-data="{&quot;endpoints&quot;:[[&quot;Point&quot;,855.53571,364.17857],[&quot;Point&quot;,843.53571,384.96429]]}"/><line x1="855.53571" y1="364.17857" x2="843.53571" y2="343.39286" data-paper-data="{&quot;endpoints&quot;:[[&quot;Point&quot;,855.53571,364.17857],[&quot;Point&quot;,843.53571,343.39286]]}"/><line x1="867.53571" y1="343.39286" x2="891.53571" y2="384.96429" data-paper-data="{&quot;endpoints&quot;:[[&quot;Point&quot;,867.53571,343.39286],[&quot;Point&quot;,891.53571,384.96429]]}" opacity="0"/><line x1="867.53571" y1="343.39286" x2="891.53571" y2="343.39286" data-paper-data="{&quot;endpoints&quot;:[[&quot;Point&quot;,867.53571,343.39286],[&quot;Point&quot;,891.53571,343.39286]]}"/><line x1="867.53571" y1="343.39286" x2="843.53571" y2="384.96429" data-paper-data="{&quot;endpoints&quot;:[[&quot;Point&quot;,867.53571,343.39286],[&quot;Point&quot;,843.53571,384.96429]]}" opacity="0"/><line x1="867.53571" y1="343.39286" x2="843.53571" y2="343.39286" data-paper-data="{&quot;endpoints&quot;:[[&quot;Point&quot;,867.53571,343.39286],[&quot;Point&quot;,843.53571,343.39286]]}"/><line x1="891.53571" y1="384.96429" x2="891.53571" y2="343.39286" data-paper-data="{&quot;endpoints&quot;:[[&quot;Point&quot;,891.53571,384.96429],[&quot;Point&quot;,891.53571,343.39286]]}" opacity="0"/><line x1="891.53571" y1="384.96429" x2="843.53571" y2="384.96429" data-paper-data="{&quot;endpoints&quot;:[[&quot;Point&quot;,891.53571,384.96429],[&quot;Point&quot;,843.53571,384.96429]]}" opacity="0"/><line x1="891.53571" y1="384.96429" x2="843.53571" y2="343.39286" data-paper-data="{&quot;endpoints&quot;:[[&quot;Point&quot;,891.53571,384.96429],[&quot;Point&quot;,843.53571,343.39286]]}" opacity="0"/><line x1="891.53571" y1="343.39286" x2="843.53571" y2="384.96429" data-paper-data="{&quot;endpoints&quot;:[[&quot;Point&quot;,891.53571,343.39286],[&quot;Point&quot;,843.53571,384.96429]]}" opacity="0"/><line x1="891.53571" y1="343.39286" x2="843.53571" y2="343.39286" data-paper-data="{&quot;endpoints&quot;:[[&quot;Point&quot;,891.53571,343.39286],[&quot;Point&quot;,843.53571,343.39286]]}" opacity="0"/><line x1="843.53571" y1="384.96429" x2="843.53571" y2="343.39286" data-paper-data="{&quot;endpoints&quot;:[[&quot;Point&quot;,843.53571,384.96429],[&quot;Point&quot;,843.53571,343.39286]]}" opacity="0"/></g><rect x="981" y="363.33333" width="12.375" height="1.66667" stroke="#000000" stroke-width="0.5" stroke-linecap="butt" opacity="0"/><g stroke="#ffffff" stroke-width="0.5" stroke-linecap="round"><circle cx="-178.23232" cy="-1036.99315" transform="matrix(-0.4999999999999998,0.8660254037844387,-0.8660254037844387,-0.4999999999999998,0,0)" r="24" data-paper-data="{&quot;index&quot;:0}" opacity="0"/><circle cx="-154.23136" cy="-1036.9937" transform="matrix(-0.4999999999999944,0.8660254037844418,-0.8660254037844418,-0.4999999999999944,0,0)" r="24" data-paper-data="{&quot;index&quot;:1}" opacity="0"/><circle cx="-166.23232" cy="-1016.20854" transform="matrix(-0.4999999999999998,0.8660254037844387,-0.8660254037844387,-0.4999999999999998,0,0)" r="24" data-paper-data="{&quot;index&quot;:2}" opacity="0"/><circle cx="-190.23328" cy="-1016.20799" transform="matrix(-0.4999999999999998,0.8660254037844387,-0.8660254037844387,-0.4999999999999998,0,0)" r="24" data-paper-data="{&quot;index&quot;:3}" opacity="0"/><line x1="987.17857" y1="364.14286" x2="975.17857" y2="384.92857" data-paper-data="{&quot;endpoints&quot;:[[&quot;Point&quot;,987.17857,364.14286],[&quot;Point&quot;,975.17857,384.92857]]}"/><line x1="987.17857" y1="364.14286" x2="963.17857" y2="364.14286" data-paper-data="{&quot;endpoints&quot;:[[&quot;Point&quot;,987.17857,364.14286],[&quot;Point&quot;,963.17857,364.14286]]}"/><line x1="987.17857" y1="364.14286" x2="975.17857" y2="343.35714" data-paper-data="{&quot;endpoints&quot;:[[&quot;Point&quot;,987.17857,364.14286],[&quot;Point&quot;,975.17857,343.35714]]}"/><line x1="987.17857" y1="364.14286" x2="999.17857" y2="384.92857" data-paper-data="{&quot;endpoints&quot;:[[&quot;Point&quot;,987.17857,364.14286],[&quot;Point&quot;,999.17857,384.92857]]}"/><line x1="987.17857" y1="364.14286" x2="999.17857" y2="343.35714" data-paper-data="{&quot;endpoints&quot;:[[&quot;Point&quot;,987.17857,364.14286],[&quot;Point&quot;,999.17857,343.35714]]}"/><line x1="987.17857" y1="364.14286" x2="951.17857" y2="384.92857" data-paper-data="{&quot;endpoints&quot;:[[&quot;Point&quot;,987.17857,364.14286],[&quot;Point&quot;,951.17857,384.92857]]}"/><line x1="987.17857" y1="364.14286" x2="951.17857" y2="343.35714" data-paper-data="{&quot;endpoints&quot;:[[&quot;Point&quot;,987.17857,364.14286],[&quot;Point&quot;,951.17857,343.35714]]}"/><line x1="975.17857" y1="384.92857" x2="963.17857" y2="364.14286" data-paper-data="{&quot;endpoints&quot;:[[&quot;Point&quot;,975.17857,384.92857],[&quot;Point&quot;,963.17857,364.14286]]}"/><line x1="975.17857" y1="384.92857" x2="975.17857" y2="343.35714" data-paper-data="{&quot;endpoints&quot;:[[&quot;Point&quot;,975.17857,384.92857],[&quot;Point&quot;,975.17857,343.35714]]}"/><line x1="975.17857" y1="384.92857" x2="999.17857" y2="384.92857" data-paper-data="{&quot;endpoints&quot;:[[&quot;Point&quot;,975.17857,384.92857],[&quot;Point&quot;,999.17857,384.92857]]}"/><line x1="975.17857" y1="384.92857" x2="999.17857" y2="343.35714" data-paper-data="{&quot;endpoints&quot;:[[&quot;Point&quot;,975.17857,384.92857],[&quot;Point&quot;,999.17857,343.35714]]}" opacity="0"/><line x1="975.17857" y1="384.92857" x2="951.17857" y2="384.92857" data-paper-data="{&quot;endpoints&quot;:[[&quot;Point&quot;,975.17857,384.92857],[&quot;Point&quot;,951.17857,384.92857]]}"/><line x1="975.17857" y1="384.92857" x2="951.17857" y2="343.35714" data-paper-data="{&quot;endpoints&quot;:[[&quot;Point&quot;,975.17857,384.92857],[&quot;Point&quot;,951.17857,343.35714]]}" opacity="0"/><line x1="963.17857" y1="364.14286" x2="975.17857" y2="343.35714" data-paper-data="{&quot;endpoints&quot;:[[&quot;Point&quot;,963.17857,364.14286],[&quot;Point&quot;,975.17857,343.35714]]}"/><line x1="963.17857" y1="364.14286" x2="999.17857" y2="384.92857" data-paper-data="{&quot;endpoints&quot;:[[&quot;Point&quot;,963.17857,364.14286],[&quot;Point&quot;,999.17857,384.92857]]}"/><line x1="963.17857" y1="364.14286" x2="999.17857" y2="343.35714" data-paper-data="{&quot;endpoints&quot;:[[&quot;Point&quot;,963.17857,364.14286],[&quot;Point&quot;,999.17857,343.35714]]}"/><line x1="963.17857" y1="364.14286" x2="951.17857" y2="384.92857" data-paper-data="{&quot;endpoints&quot;:[[&quot;Point&quot;,963.17857,364.14286],[&quot;Point&quot;,951.17857,384.92857]]}"/><line x1="963.17857" y1="364.14286" x2="951.17857" y2="343.35714" data-paper-data="{&quot;endpoints&quot;:[[&quot;Point&quot;,963.17857,364.14286],[&quot;Point&quot;,951.17857,343.35714]]}"/><line x1="975.17857" y1="343.35714" x2="999.17857" y2="384.92857" data-paper-data="{&quot;endpoints&quot;:[[&quot;Point&quot;,975.17857,343.35714],[&quot;Point&quot;,999.17857,384.92857]]}" opacity="0"/><line x1="975.17857" y1="343.35714" x2="999.17857" y2="343.35714" data-paper-data="{&quot;endpoints&quot;:[[&quot;Point&quot;,975.17857,343.35714],[&quot;Point&quot;,999.17857,343.35714]]}"/><line x1="975.17857" y1="343.35714" x2="951.17857" y2="384.92857" data-paper-data="{&quot;endpoints&quot;:[[&quot;Point&quot;,975.17857,343.35714],[&quot;Point&quot;,951.17857,384.92857]]}" opacity="0"/><line x1="975.17857" y1="343.35714" x2="951.17857" y2="343.35714" data-paper-data="{&quot;endpoints&quot;:[[&quot;Point&quot;,975.17857,343.35714],[&quot;Point&quot;,951.17857,343.35714]]}"/><line x1="999.17857" y1="384.92857" x2="999.17857" y2="343.35714" data-paper-data="{&quot;endpoints&quot;:[[&quot;Point&quot;,999.17857,384.92857],[&quot;Point&quot;,999.17857,343.35714]]}"/><line x1="999.17857" y1="384.92857" x2="951.17857" y2="384.92857" data-paper-data="{&quot;endpoints&quot;:[[&quot;Point&quot;,999.17857,384.92857],[&quot;Point&quot;,951.17857,384.92857]]}" opacity="0"/><line x1="999.17857" y1="384.92857" x2="951.17857" y2="343.35714" data-paper-data="{&quot;endpoints&quot;:[[&quot;Point&quot;,999.17857,384.92857],[&quot;Point&quot;,951.17857,343.35714]]}"/><line x1="999.17857" y1="343.35714" x2="951.17857" y2="384.92857" data-paper-data="{&quot;endpoints&quot;:[[&quot;Point&quot;,999.17857,343.35714],[&quot;Point&quot;,951.17857,384.92857]]}"/><line x1="999.17857" y1="343.35714" x2="951.17857" y2="343.35714" data-paper-data="{&quot;endpoints&quot;:[[&quot;Point&quot;,999.17857,343.35714],[&quot;Point&quot;,951.17857,343.35714]]}" opacity="0"/><line x1="951.17857" y1="384.92857" x2="951.17857" y2="343.35714" data-paper-data="{&quot;endpoints&quot;:[[&quot;Point&quot;,951.17857,384.92857],[&quot;Point&quot;,951.17857,343.35714]]}"/></g><rect x="981" y="485" width="12.375" height="1.66667" stroke="#000000" stroke-width="0.5" stroke-linecap="butt" opacity="0"/><g stroke="#ffffff" stroke-width="0.5" stroke-linecap="round"><circle cx="-72.87344" cy="-1097.86336" transform="rotate(120)" r="24" data-paper-data="{&quot;index&quot;:0}" opacity="0"/><circle cx="-48.87249" cy="-1097.86392" transform="matrix(-0.4999999999999944,0.8660254037844418,-0.8660254037844418,-0.4999999999999944,0,0)" r="24" data-paper-data="{&quot;index&quot;:1}" opacity="0"/><circle cx="-60.87344" cy="-1077.07876" transform="matrix(-0.4999999999999998,0.8660254037844387,-0.8660254037844387,-0.4999999999999998,0,0)" r="24" data-paper-data="{&quot;index&quot;:2}" opacity="0"/><circle cx="-84.8744" cy="-1077.0782" transform="matrix(-0.4999999999999998,0.8660254037844387,-0.8660254037844387,-0.4999999999999998,0,0)" r="24" data-paper-data="{&quot;index&quot;:3}" opacity="0"/><circle cx="987.21429" cy="485.82143" r="1.5" fill="#ffffff"/><circle cx="975.21429" cy="506.60714" r="1.5" fill="#ffffff"/><circle cx="963.21429" cy="485.82143" r="1.5" fill="#ffffff"/><circle cx="975.21429" cy="465.03571" r="1.5" fill="#ffffff"/><circle cx="999.21429" cy="506.60714" r="1.5" fill="#ffffff"/><circle cx="999.21429" cy="465.03571" r="1.5" fill="#ffffff"/><circle cx="951.21429" cy="506.60714" r="1.5" fill="#ffffff"/><circle cx="951.21429" cy="465.03571" r="1.5" fill="#ffffff"/></g><rect x="981" y="606.66667" width="12.375" height="1.66667" stroke="#000000" stroke-width="0.5" stroke-linecap="butt" opacity="0"/><g stroke="#ffffff" stroke-width="0.5" stroke-linecap="round"><circle cx="32.52115" cy="-1158.67172" transform="rotate(120)" r="24" data-paper-data="{&quot;index&quot;:0}"/><circle cx="56.5221" cy="-1158.67227" transform="rotate(120)" r="24" data-paper-data="{&quot;index&quot;:1}"/><circle cx="44.52115" cy="-1137.88711" transform="matrix(-0.4999999999999998,0.8660254037844387,-0.8660254037844387,-0.4999999999999998,0,0)" r="24" data-paper-data="{&quot;index&quot;:2}"/><circle cx="20.52019" cy="-1137.88656" transform="matrix(-0.4999999999999998,0.8660254037844387,-0.8660254037844387,-0.4999999999999998,0,0)" r="24" data-paper-data="{&quot;index&quot;:3}"/></g></g></svg>