<svg x="0" y="0" width="1100" height="850" version="1.1" xmlns="http://www.w3.org/2000/svg" xmlns:xlink="http://www.w3.org/1999/xlink"><g fill="none" stroke="none" stroke-width="none" stroke-linecap="none" stroke-linejoin="miter" stroke-miterlimit="10" stroke-dasharray="" stroke-dashoffset="0" font-family="sans-serif" font-size="12" text-anchor="start" mix-blend-mode="normal"><rect x="20" y="25" width="510" height="800" fill="#000000" stroke-width="1" stroke-linecap="butt"/><g stroke-width="1" stroke-linecap="butt"/><rect x="-430" y="-120" transform="rotate(180)" width="310" height="19" stroke="#000000" stroke-width="0.5" stroke-linecap="butt" opacity="0"/><g stroke="#ffffff" stroke-width="0.5" stroke-linecap="round"><circle cx="275" cy="110.5" r="20" data-paper-data="{&quot;index&quot;:0}"/></g><rect x="-430" y="-221" transform="rotate(180)" width="310" height="19" stroke="#000000" stroke-width="0.5" stroke-linecap="butt" opacity="0"/><g stroke="#ffffff" stroke-width="0.5" stroke-linecap="round"><circle cx="275" cy="211.5" r="20" data-paper-data="{&quot;index&quot;:0}"/><circle cx="295" cy="211.5" r="20" data-paper-data="{&quot;index&quot;:1}"/></g><rect x="-430" y="-322" transform="rotate(180)" width="310" height="19" stroke="#000000" stroke-width="0.5" stroke-linecap="butt" opacity="0"/><g stroke="#ffffff" stroke-width="0.5" stroke-linecap="round"><circle cx="275" cy="312.5" r="20" data-paper-data="{&quot;index&quot;:0}"/><circle cx="295" cy="312.5" r="20" data-paper-data="{&quot;index&quot;:1}"/><circle cx="285" cy="329.82143" r="20" data-paper-data="{&quot;index&quot;:2}"/></g><rect x="-430" y="-423" transform="rotate(180)" width="310" height="19" stroke="#000000" stroke-width="0.5" stroke-linecap="butt" opacity="0"/><g stroke="#ffffff" stroke-width="0.5" stroke-linecap="round"><circle cx="275" cy="413.5" r="20" data-paper-data="{&quot;index&quot;:0}"/><circle cx="295" cy="413.5" r="20" data-paper-data="{&quot;index&quot;:1}"/><circle cx="285" cy="430.82143" r="20" data-paper-data="{&quot;index&quot;:2}"/><circle cx="265" cy="430.82143" r="20" data-paper-data="{&quot;index&quot;:3}"/></g><rect x="-430" y="-524" transform="rotate(180)" width="310" height="19" stroke="#000000" stroke-width="0.5" stroke-linecap="butt" opacity="0"/><g stroke="#ffffff" stroke-width="0.5" stroke-linecap="round"><circle cx="275" cy="514.5" r="20" data-paper-data="{&quot;index&quot;:0}"/><circle cx="295" cy="514.5" r="20" data-paper-data="{&quot;index&quot;:1}"/><circle cx="285" cy="531.82143" r="20" data-paper-data="{&quot;index&quot;:2}"/><circle cx="265" cy="531.82143" r="20" data-paper-data="{&quot;index&quot;:3}"/><circle cx="255" cy="514.5" r="20" data-paper-data="{&quot;index&quot;:4}"/></g><rect x="-430" y="-625" transform="rotate(180)" width="310" height="19" stroke="#000000" stroke-width="0.5" stroke-linecap="butt" opacity="0"/><g stroke="#ffffff" stroke-width="0.5" stroke-linecap="round"><circle cx="275" cy="615.5" r="20" data-paper-data="{&quot;index&quot;:0}"/><circle cx="295" cy="615.5" r="20" data-paper-data="{&quot;index&quot;:1}"/><circle cx="285" cy="632.82143" r="20" data-paper-data="{&quot;index&quot;:2}"/><circle cx="265" cy="632.82143" r="20" data-paper-data="{&quot;index&quot;:3}"/><circle cx="255" cy="615.5" r="20" data-paper-data="{&quot;index&quot;:4}"/><circle cx="265" cy="598.17857" r="20" data-paper-data="{&quot;index&quot;:5}"/></g><rect x="-430" y="-726" transform="rotate(180)" width="310" height="19" stroke="#000000" stroke-width="0.5" stroke-linecap="butt" opacity="0"/><g stroke="#ffffff" stroke-width="0.5" stroke-linecap="round"><circle cx="275" cy="716.5" r="20" data-paper-data="{&quot;index&quot;:0}"/><circle cx="295" cy="716.5" r="20" data-paper-data="{&quot;index&quot;:1}"/><circle cx="285" cy="733.82143" r="20" data-paper-data="{&quot;index&quot;:2}"/><circle cx="265" cy="733.82143" r="20" data-paper-data="{&quot;index&quot;:3}"/><circle cx="255" cy="716.5" r="20" data-paper-data="{&quot;index&quot;:4}"/><circle cx="265" cy="699.17857" r="20" data-paper-data="{&quot;index&quot;:5}"/><circle cx="285" cy="699.17857" r="20" data-paper-data="{&quot;index&quot;:6}"/></g><rect x="570" y="25" width="510" height="800" fill="#000000" stroke-width="1" stroke-linecap="butt"/><g stroke-width="1" stroke-linecap="butt"/><rect x="-980" y="-120" transform="rotate(180)" width="310" height="19" stroke="#000000" stroke-width="0.5" stroke-linecap="butt" opacity="0"/><g stroke="#ffffff" stroke-width="0.5" stroke-linecap="round"><circle cx="825" cy="110.5" r="20" data-paper-data="{&quot;index&quot;:0}"/></g><rect x="-980" y="-221" transform="rotate(180)" width="310" height="19" stroke="#000000" stroke-width="0.5" stroke-linecap="butt" opacity="0"/><g stroke="#ffffff" stroke-width="0.5" stroke-linecap="round"><circle cx="211.5" cy="-825" transform="rotate(90)" r="20" data-paper-data="{&quot;index&quot;:0}"/><circle cx="231.5" cy="-825" transform="rotate(90)" r="20" data-paper-data="{&quot;index&quot;:1}"/></g><rect x="-980" y="-322" transform="rotate(180)" width="310" height="19" stroke="#000000" stroke-width="0.5" stroke-linecap="butt" opacity="0"/><g stroke="#ffffff" stroke-width="0.5" stroke-linecap="round"><circle cx="683.13294" cy="-558.22096" transform="rotate(60)" r="20" data-paper-data="{&quot;index&quot;:0}"/><circle cx="703.13374" cy="-558.2205" transform="rotate(60)" r="20" data-paper-data="{&quot;index&quot;:1}"/><circle cx="693.13374" cy="-540.89999" transform="rotate(60)" r="20" data-paper-data="{&quot;index&quot;:2}"/></g><rect x="-980" y="-423" transform="rotate(180)" width="310" height="19" stroke="#000000" stroke-width="0.5" stroke-linecap="butt" opacity="0"/><g stroke="#ffffff" stroke-width="0.5" stroke-linecap="round"><circle cx="921.22096" cy="-54.3985" transform="matrix(0.8660254037844382,0.5000000000000008,-0.5000000000000008,0.8660254037844382,0,0)" r="20" data-paper-data="{&quot;index&quot;:0}"/><circle cx="941.22176" cy="-54.39896" transform="matrix(0.8660254037844382,0.5000000000000008,-0.5000000000000008,0.8660254037844382,0,0)" r="20" data-paper-data="{&quot;index&quot;:1}"/><circle cx="931.22096" cy="-37.07799" transform="rotate(30)" r="20" data-paper-data="{&quot;index&quot;:2}"/><circle cx="911.22016" cy="-37.07753" transform="rotate(30)" r="20" data-paper-data="{&quot;index&quot;:3}"/></g><rect x="-980" y="-524" transform="rotate(180)" width="310" height="19" stroke="#000000" stroke-width="0.5" stroke-linecap="butt" opacity="0"/><g stroke="#ffffff" stroke-width="0.5" stroke-linecap="round"><circle cx="825" cy="514.5" r="20" data-paper-data="{&quot;index&quot;:0}"/><circle cx="845" cy="514.5" r="20" data-paper-data="{&quot;index&quot;:1}"/><circle cx="835" cy="531.82143" r="20" data-paper-data="{&quot;index&quot;:2}"/><circle cx="815" cy="531.82143" r="20" data-paper-data="{&quot;index&quot;:3}"/><circle cx="805" cy="514.5" r="20" data-paper-data="{&quot;index&quot;:4}"/></g><rect x="-980" y="-625" transform="rotate(180)" width="310" height="19" stroke="#000000" stroke-width="0.5" stroke-linecap="butt" opacity="0"/><g stroke="#ffffff" stroke-width="0.5" stroke-linecap="round"><circle cx="406.72096" cy="945.53864" transform="rotate(-30)" r="20" data-paper-data="{&quot;index&quot;:0}"/><circle cx="426.72176" cy="945.5391" transform="rotate(-30)" r="20" data-paper-data="{&quot;index&quot;:1}"/><circle cx="416.72176" cy="962.8596" transform="rotate(-30)" r="20" data-paper-data="{&quot;index&quot;:2}"/><circle cx="396.72096" cy="962.85914" transform="rotate(-30)" r="20" data-paper-data="{&quot;index&quot;:3}"/><circle cx="386.72016" cy="945.53818" transform="rotate(-30)" r="20" data-paper-data="{&quot;index&quot;:4}"/><circle cx="396.72016" cy="928.21767" transform="rotate(-30)" r="20" data-paper-data="{&quot;index&quot;:5}"/></g><rect x="-980" y="-726" transform="rotate(180)" width="310" height="19" stroke="#000000" stroke-width="0.5" stroke-linecap="butt" opacity="0"/><g stroke="#ffffff" stroke-width="0.5" stroke-linecap="round"><circle cx="1072.72096" cy="208.0072" transform="rotate(30)" r="20" data-paper-data="{&quot;index&quot;:0}"/><circle cx="1092.72176" cy="208.00674" transform="rotate(30)" r="20" data-paper-data="{&quot;index&quot;:1}"/><circle cx="1082.72096" cy="225.32771" transform="rotate(30)" r="20" data-paper-data="{&quot;index&quot;:2}"/><circle cx="1062.72016" cy="225.32817" transform="rotate(30)" r="20" data-paper-data="{&quot;index&quot;:3}"/><circle cx="1052.72016" cy="208.00766" transform="rotate(30)" r="20" data-paper-data="{&quot;index&quot;:4}"/><circle cx="1062.72096" cy="190.68669" transform="rotate(30)" r="20" data-paper-data="{&quot;index&quot;:5}"/><circle cx="1082.72176" cy="190.68623" transform="rotate(30)" r="20" data-paper-data="{&quot;index&quot;:6}"/></g></g></svg>