<svg x="0" y="0" width="1100" height="850" version="1.1" xmlns="http://www.w3.org/2000/svg" xmlns:xlink="http://www.w3.org/1999/xlink"><g fill="none" stroke="none" stroke-width="none" stroke-linecap="none" stroke-linejoin="miter" stroke-miterlimit="10" stroke-dasharray="" stroke-dashoffset="0" font-family="sans-serif" font-size="12" text-anchor="start" mix-blend-mode="normal"><rect x="20" y="25" width="510" height="800" fill="#000000" stroke-width="1" stroke-linecap="butt"/><g stroke-width="1" stroke-linecap="butt"/><rect x="-120" y="-120" transform="rotate(180)" width="34" height="19" stroke="#000000" stroke-width="0.5" stroke-linecap="butt" opacity="0"/><g stroke="#ffffff" stroke-width="0.5" stroke-linecap="round"><circle cx="103" cy="110.5" r="20" data-paper-data="{&quot;index&quot;:0}" opacity="0"/><circle cx="103" cy="110.5" r="2.67857"/><circle cx="103" cy="110.5" r="10"/><circle cx="103" cy="110.5" r="8.45238"/><circle cx="103" cy="110.5" r="11.54762"/><circle cx="103" cy="110.5" r="10"/><circle cx="103" cy="110.5" r="17.32143"/></g><rect x="-292" y="-120" transform="rotate(180)" width="34" height="19" stroke="#000000" stroke-width="0.5" stroke-linecap="butt" opacity="0"/><g stroke="#ffffff" stroke-width="0.5" stroke-linecap="round"><circle cx="275" cy="110.5" r="20" data-paper-data="{&quot;index&quot;:0}" opacity="0"/><circle cx="275" cy="110.5" r="2.67857"/><circle cx="275" cy="110.5" r="10"/></g><rect x="-378" y="-120" transform="rotate(180)" width="34" height="19" stroke="#000000" stroke-width="0.5" stroke-linecap="butt" opacity="0"/><g stroke="#ffffff" stroke-width="0.5" stroke-linecap="round"><circle cx="361" cy="110.5" r="20" data-paper-data="{&quot;index&quot;:0}" opacity="0"/><circle cx="361" cy="110.5" r="8.45238"/><circle cx="361" cy="110.5" r="11.54762"/></g><rect x="-464" y="-120" transform="rotate(180)" width="34" height="19" stroke="#000000" stroke-width="0.5" stroke-linecap="butt" opacity="0"/><g stroke="#ffffff" stroke-width="0.5" stroke-linecap="round"><circle cx="447" cy="110.5" r="20" data-paper-data="{&quot;index&quot;:0}" opacity="0"/><circle cx="447" cy="110.5" r="10"/><circle cx="447" cy="110.5" r="17.32143"/></g><rect x="-120" y="-221" transform="rotate(180)" width="34" height="19" stroke="#000000" stroke-width="0.5" stroke-linecap="butt" opacity="0"/><g stroke="#ffffff" stroke-width="0.5" stroke-linecap="round"><circle cx="211.5" cy="-103" transform="rotate(90)" r="20" data-paper-data="{&quot;index&quot;:0}" opacity="0"/><circle cx="231.5" cy="-103" transform="rotate(90)" r="20" data-paper-data="{&quot;index&quot;:1}" opacity="0"/><circle cx="103" cy="211.5" r="2.67857"/><circle cx="103" cy="231.5" r="2.67857"/><circle cx="103" cy="211.5" r="10"/><circle cx="103" cy="231.5" r="10"/><circle cx="103" cy="211.5" r="8.45238"/><circle cx="103" cy="231.5" r="8.45238"/><circle cx="103" cy="211.5" r="11.54762"/><circle cx="103" cy="231.5" r="11.54762"/><circle cx="103" cy="211.5" r="10"/><circle cx="103" cy="231.5" r="10"/><circle cx="103" cy="211.5" r="17.32143"/><circle cx="103" cy="231.5" r="17.32143"/></g><rect x="-292" y="-221" transform="rotate(180)" width="34" height="19" stroke="#000000" stroke-width="0.5" stroke-linecap="butt" opacity="0"/><g stroke="#ffffff" stroke-width="0.5" stroke-linecap="round"><circle cx="211.5" cy="-275" transform="rotate(90)" r="20" data-paper-data="{&quot;index&quot;:0}" opacity="0"/><circle cx="231.5" cy="-275" transform="rotate(90)" r="20" data-paper-data="{&quot;index&quot;:1}" opacity="0"/><circle cx="275" cy="211.5" r="2.67857"/><circle cx="275" cy="231.5" r="2.67857"/><circle cx="275" cy="211.5" r="10"/><circle cx="275" cy="231.5" r="10"/></g><rect x="-378" y="-221" transform="rotate(180)" width="34" height="19" stroke="#000000" stroke-width="0.5" stroke-linecap="butt" opacity="0"/><g stroke="#ffffff" stroke-width="0.5" stroke-linecap="round"><circle cx="211.5" cy="-361" transform="rotate(90)" r="20" data-paper-data="{&quot;index&quot;:0}" opacity="0"/><circle cx="231.5" cy="-361" transform="rotate(90)" r="20" data-paper-data="{&quot;index&quot;:1}" opacity="0"/><circle cx="361" cy="211.5" r="8.45238"/><circle cx="361" cy="231.5" r="8.45238"/><circle cx="361" cy="211.5" r="11.54762"/><circle cx="361" cy="231.5" r="11.54762"/></g><rect x="-464" y="-221" transform="rotate(180)" width="34" height="19" stroke="#000000" stroke-width="0.5" stroke-linecap="butt" opacity="0"/><g stroke="#ffffff" stroke-width="0.5" stroke-linecap="round"><circle cx="211.5" cy="-447" transform="rotate(90)" r="20" data-paper-data="{&quot;index&quot;:0}" opacity="0"/><circle cx="231.5" cy="-447" transform="rotate(90)" r="20" data-paper-data="{&quot;index&quot;:1}" opacity="0"/><circle cx="447" cy="211.5" r="10"/><circle cx="447" cy="231.5" r="10"/><circle cx="447" cy="211.5" r="17.32143"/><circle cx="447" cy="231.5" r="17.32143"/></g><rect x="-120" y="-322" transform="rotate(180)" width="34" height="19" stroke="#000000" stroke-width="0.5" stroke-linecap="butt" opacity="0"/><g stroke="#ffffff" stroke-width="0.5" stroke-linecap="round"><circle cx="322.13294" cy="67.04938" transform="rotate(60)" r="20" data-paper-data="{&quot;index&quot;:0}" opacity="0"/><circle cx="342.13374" cy="67.04984" transform="rotate(60)" r="20" data-paper-data="{&quot;index&quot;:1}" opacity="0"/><circle cx="332.13374" cy="84.37035" transform="rotate(60)" r="20" data-paper-data="{&quot;index&quot;:2}" opacity="0"/><circle cx="103" cy="312.5" r="2.67857"/><circle cx="113" cy="329.82143" r="2.67857"/><circle cx="93" cy="329.82143" r="2.67857"/><circle cx="103" cy="312.5" r="10"/><circle cx="113" cy="329.82143" r="10"/><circle cx="93" cy="329.82143" r="10"/><circle cx="103" cy="312.5" r="8.45238"/><circle cx="113" cy="329.82143" r="8.45238"/><circle cx="93" cy="329.82143" r="8.45238"/><circle cx="103" cy="312.5" r="11.54762"/><circle cx="113" cy="329.82143" r="11.54762"/><circle cx="93" cy="329.82143" r="11.54762"/><circle cx="103" cy="312.5" r="10"/><circle cx="113" cy="329.82143" r="10"/><circle cx="93" cy="329.82143" r="10"/><circle cx="103" cy="312.5" r="17.32143"/><circle cx="113" cy="329.82143" r="17.32143"/><circle cx="93" cy="329.82143" r="17.32143"/></g><rect x="-292" y="-322" transform="rotate(180)" width="34" height="19" stroke="#000000" stroke-width="0.5" stroke-linecap="butt" opacity="0"/><g stroke="#ffffff" stroke-width="0.5" stroke-linecap="round"><circle cx="408.13294" cy="-81.90699" transform="rotate(60)" r="20" data-paper-data="{&quot;index&quot;:0}" opacity="0"/><circle cx="428.13374" cy="-81.90653" transform="rotate(60)" r="20" data-paper-data="{&quot;index&quot;:1}" opacity="0"/><circle cx="418.13374" cy="-64.58602" transform="rotate(60)" r="20" data-paper-data="{&quot;index&quot;:2}" opacity="0"/><circle cx="275" cy="312.5" r="2.67857"/><circle cx="285" cy="329.82143" r="2.67857"/><circle cx="265" cy="329.82143" r="2.67857"/><circle cx="275" cy="312.5" r="10"/><circle cx="285" cy="329.82143" r="10"/><circle cx="265" cy="329.82143" r="10"/></g><rect x="-378" y="-322" transform="rotate(180)" width="34" height="19" stroke="#000000" stroke-width="0.5" stroke-linecap="butt" opacity="0"/><g stroke="#ffffff" stroke-width="0.5" stroke-linecap="round"><circle cx="451.13294" cy="-156.38517" transform="rotate(60)" r="20" data-paper-data="{&quot;index&quot;:0}" opacity="0"/><circle cx="471.13374" cy="-156.38471" transform="rotate(60)" r="20" data-paper-data="{&quot;index&quot;:1}" opacity="0"/><circle cx="461.13374" cy="-139.0642" transform="rotate(60)" r="20" data-paper-data="{&quot;index&quot;:2}" opacity="0"/><circle cx="361" cy="312.5" r="8.45238"/><circle cx="371" cy="329.82143" r="8.45238"/><circle cx="351" cy="329.82143" r="8.45238"/><circle cx="361" cy="312.5" r="11.54762"/><circle cx="371" cy="329.82143" r="11.54762"/><circle cx="351" cy="329.82143" r="11.54762"/></g><rect x="-464" y="-322" transform="rotate(180)" width="34" height="19" stroke="#000000" stroke-width="0.5" stroke-linecap="butt" opacity="0"/><g stroke="#ffffff" stroke-width="0.5" stroke-linecap="round"><circle cx="494.13294" cy="-230.86336" transform="rotate(60)" r="20" data-paper-data="{&quot;index&quot;:0}" opacity="0"/><circle cx="514.13374" cy="-230.8629" transform="rotate(60)" r="20" data-paper-data="{&quot;index&quot;:1}" opacity="0"/><circle cx="504.13374" cy="-213.54239" transform="rotate(60)" r="20" data-paper-data="{&quot;index&quot;:2}" opacity="0"/><circle cx="447" cy="312.5" r="10"/><circle cx="457" cy="329.82143" r="10"/><circle cx="437" cy="329.82143" r="10"/><circle cx="447" cy="312.5" r="17.32143"/><circle cx="457" cy="329.82143" r="17.32143"/><circle cx="437" cy="329.82143" r="17.32143"/></g><rect x="-120" y="-423" transform="rotate(180)" width="34" height="19" stroke="#000000" stroke-width="0.5" stroke-linecap="butt" opacity="0"/><g stroke="#ffffff" stroke-width="0.5" stroke-linecap="round"><circle cx="295.95062" cy="306.6015" transform="rotate(30)" r="20" data-paper-data="{&quot;index&quot;:0}" opacity="0"/><circle cx="315.95141" cy="306.60104" transform="rotate(30)" r="20" data-paper-data="{&quot;index&quot;:1}" opacity="0"/><circle cx="305.95062" cy="323.92201" transform="matrix(0.8660254037844382,0.5000000000000008,-0.5000000000000008,0.8660254037844382,0,0)" r="20" data-paper-data="{&quot;index&quot;:2}" opacity="0"/><circle cx="285.94982" cy="323.92247" transform="matrix(0.8660254037844382,0.5000000000000008,-0.5000000000000008,0.8660254037844382,0,0)" r="20" data-paper-data="{&quot;index&quot;:3}" opacity="0"/><circle cx="103" cy="413.5" r="2.67857"/><circle cx="120.32143" cy="423.5" r="2.67857"/><circle cx="103" cy="433.5" r="2.67857"/><circle cx="85.67857" cy="423.5" r="2.67857"/><circle cx="103" cy="413.5" r="10"/><circle cx="120.32143" cy="423.5" transform="rotate(0)" r="10"/><circle cx="103" cy="433.5" r="10"/><circle cx="85.67857" cy="423.5" r="10"/><circle cx="103" cy="413.5" r="8.45238"/><circle cx="120.32143" cy="423.5" r="8.45238"/><circle cx="103" cy="433.5" r="8.45238"/><circle cx="85.67857" cy="423.5" r="8.45238"/><circle cx="103" cy="413.5" r="11.54762"/><circle cx="120.32143" cy="423.5" r="11.54762"/><circle cx="103" cy="433.5" r="11.54762"/><circle cx="85.67857" cy="423.5" r="11.54762"/><circle cx="103" cy="413.5" r="10"/><circle cx="120.32143" cy="423.5" transform="rotate(0)" r="10"/><circle cx="103" cy="433.5" r="10"/><circle cx="85.67857" cy="423.5" r="10"/><circle cx="103" cy="413.5" r="17.32143"/><circle cx="120.32143" cy="423.5" r="17.32143"/><circle cx="103" cy="433.5" r="17.32143"/><circle cx="85.67857" cy="423.5" r="17.32143"/></g><rect x="-292" y="-423" transform="rotate(180)" width="34" height="19" stroke="#000000" stroke-width="0.5" stroke-linecap="butt" opacity="0"/><g stroke="#ffffff" stroke-width="0.5" stroke-linecap="round"><circle cx="444.90699" cy="220.6015" transform="matrix(0.8660254037844382,0.5000000000000008,-0.5000000000000008,0.8660254037844382,0,0)" r="20" data-paper-data="{&quot;index&quot;:0}" opacity="0"/><circle cx="464.90778" cy="220.60104" transform="matrix(0.8660254037844382,0.5000000000000008,-0.5000000000000008,0.8660254037844382,0,0)" r="20" data-paper-data="{&quot;index&quot;:1}" opacity="0"/><circle cx="454.90699" cy="237.92201" transform="matrix(0.8660254037844382,0.5000000000000008,-0.5000000000000008,0.8660254037844382,0,0)" r="20" data-paper-data="{&quot;index&quot;:2}" opacity="0"/><circle cx="434.90619" cy="237.92247" transform="matrix(0.8660254037844382,0.5000000000000008,-0.5000000000000008,0.8660254037844382,0,0)" r="20" data-paper-data="{&quot;index&quot;:3}" opacity="0"/><circle cx="275" cy="413.5" r="2.67857"/><circle cx="292.32143" cy="423.5" r="2.67857"/><circle cx="275" cy="433.5" r="2.67857"/><circle cx="257.67857" cy="423.5" r="2.67857"/><circle cx="275" cy="413.5" r="10"/><circle cx="292.32143" cy="423.5" r="10"/><circle cx="275" cy="433.5" r="10"/><circle cx="257.67857" cy="423.5" r="10"/></g><rect x="-378" y="-423" transform="rotate(180)" width="34" height="19" stroke="#000000" stroke-width="0.5" stroke-linecap="butt" opacity="0"/><g stroke="#ffffff" stroke-width="0.5" stroke-linecap="round"><circle cx="519.38517" cy="177.6015" transform="matrix(0.8660254037844382,0.5000000000000008,-0.5000000000000008,0.8660254037844382,0,0)" r="20" data-paper-data="{&quot;index&quot;:0}" opacity="0"/><circle cx="539.38597" cy="177.60104" transform="matrix(0.8660254037844382,0.5000000000000008,-0.5000000000000008,0.8660254037844382,0,0)" r="20" data-paper-data="{&quot;index&quot;:1}" opacity="0"/><circle cx="529.38517" cy="194.92201" transform="matrix(0.8660254037844382,0.5000000000000008,-0.5000000000000008,0.8660254037844382,0,0)" r="20" data-paper-data="{&quot;index&quot;:2}" opacity="0"/><circle cx="509.38437" cy="194.92247" transform="matrix(0.8660254037844382,0.5000000000000008,-0.5000000000000008,0.8660254037844382,0,0)" r="20" data-paper-data="{&quot;index&quot;:3}" opacity="0"/><circle cx="361" cy="413.5" r="8.45238"/><circle cx="378.32143" cy="423.5" r="8.45238"/><circle cx="361" cy="433.5" r="8.45238"/><circle cx="343.67857" cy="423.5" r="8.45238"/><circle cx="361" cy="413.5" r="11.54762"/><circle cx="378.32143" cy="423.5" r="11.54762"/><circle cx="361" cy="433.5" r="11.54762"/><circle cx="343.67857" cy="423.5" r="11.54762"/></g><rect x="-464" y="-423" transform="rotate(180)" width="34" height="19" stroke="#000000" stroke-width="0.5" stroke-linecap="butt" opacity="0"/><g stroke="#ffffff" stroke-width="0.5" stroke-linecap="round"><circle cx="593.86336" cy="134.6015" transform="matrix(0.8660254037844382,0.5000000000000008,-0.5000000000000008,0.8660254037844382,0,0)" r="20" data-paper-data="{&quot;index&quot;:0}" opacity="0"/><circle cx="613.86415" cy="134.60104" transform="matrix(0.8660254037844382,0.5000000000000008,-0.5000000000000008,0.8660254037844382,0,0)" r="20" data-paper-data="{&quot;index&quot;:1}" opacity="0"/><circle cx="603.86336" cy="151.92201" transform="matrix(0.8660254037844382,0.5000000000000008,-0.5000000000000008,0.8660254037844382,0,0)" r="20" data-paper-data="{&quot;index&quot;:2}" opacity="0"/><circle cx="583.86256" cy="151.92247" transform="matrix(0.8660254037844382,0.5000000000000008,-0.5000000000000008,0.8660254037844382,0,0)" r="20" data-paper-data="{&quot;index&quot;:3}" opacity="0"/><circle cx="447" cy="413.5" r="10"/><circle cx="464.32143" cy="423.5" r="10"/><circle cx="447" cy="433.5" r="10"/><circle cx="429.67857" cy="423.5" r="10"/><circle cx="447" cy="413.5" r="17.32143"/><circle cx="464.32143" cy="423.5" r="17.32143"/><circle cx="447" cy="433.5" r="17.32143"/><circle cx="429.67857" cy="423.5" r="17.32143"/></g><rect x="-120" y="-524" transform="rotate(180)" width="34" height="19" stroke="#000000" stroke-width="0.5" stroke-linecap="butt" opacity="0"/><g stroke="#ffffff" stroke-width="0.5" stroke-linecap="round"><circle cx="103" cy="514.5" r="20" data-paper-data="{&quot;index&quot;:0}" opacity="0"/><circle cx="123" cy="514.5" r="20" data-paper-data="{&quot;index&quot;:1}" opacity="0"/><circle cx="113" cy="531.82143" r="20" data-paper-data="{&quot;index&quot;:2}" opacity="0"/><circle cx="93" cy="531.82143" r="20" data-paper-data="{&quot;index&quot;:3}" opacity="0"/><circle cx="83" cy="514.5" r="20" data-paper-data="{&quot;index&quot;:4}" opacity="0"/><circle cx="103" cy="514.5" r="2.67857"/><circle cx="123" cy="514.5" r="2.67857"/><circle cx="113" cy="531.82143" r="2.67857"/><circle cx="93" cy="531.82143" r="2.67857"/><circle cx="83" cy="514.5" r="2.67857"/><circle cx="103" cy="514.5" r="10"/><circle cx="123" cy="514.5" r="10"/><circle cx="113" cy="531.82143" r="10"/><circle cx="93" cy="531.82143" r="10"/><circle cx="83" cy="514.5" r="10"/><circle cx="103" cy="514.5" r="8.45238"/><circle cx="123" cy="514.5" r="8.45238"/><circle cx="113" cy="531.82143" r="8.45238"/><circle cx="93" cy="531.82143" r="8.45238"/><circle cx="83" cy="514.5" r="8.45238"/><circle cx="103" cy="514.5" r="11.54762"/><circle cx="123" cy="514.5" r="11.54762"/><circle cx="113" cy="531.82143" r="11.54762"/><circle cx="93" cy="531.82143" r="11.54762"/><circle cx="83" cy="514.5" r="11.54762"/><circle cx="103" cy="514.5" r="10"/><circle cx="123" cy="514.5" r="10"/><circle cx="113" cy="531.82143" r="10"/><circle cx="93" cy="531.82143" r="10"/><circle cx="83" cy="514.5" r="10"/><circle cx="103" cy="514.5" r="17.32143"/><circle cx="123" cy="514.5" r="17.32143"/><circle cx="113" cy="531.82143" r="17.32143"/><circle cx="93" cy="531.82143" r="17.32143"/><circle cx="83" cy="514.5" r="17.32143"/></g><rect x="-292" y="-524" transform="rotate(180)" width="34" height="19" stroke="#000000" stroke-width="0.5" stroke-linecap="butt" opacity="0"/><g stroke="#ffffff" stroke-width="0.5" stroke-linecap="round"><circle cx="275" cy="514.5" r="20" data-paper-data="{&quot;index&quot;:0}" opacity="0"/><circle cx="295" cy="514.5" r="20" data-paper-data="{&quot;index&quot;:1}" opacity="0"/><circle cx="285" cy="531.82143" r="20" data-paper-data="{&quot;index&quot;:2}" opacity="0"/><circle cx="265" cy="531.82143" r="20" data-paper-data="{&quot;index&quot;:3}" opacity="0"/><circle cx="255" cy="514.5" r="20" data-paper-data="{&quot;index&quot;:4}" opacity="0"/><circle cx="275" cy="514.5" r="2.67857"/><circle cx="295" cy="514.5" r="2.67857"/><circle cx="285" cy="531.82143" r="2.67857"/><circle cx="265" cy="531.82143" r="2.67857"/><circle cx="255" cy="514.5" r="2.67857"/><circle cx="275" cy="514.5" r="10"/><circle cx="295" cy="514.5" r="10"/><circle cx="285" cy="531.82143" r="10"/><circle cx="265" cy="531.82143" r="10"/><circle cx="255" cy="514.5" r="10"/></g><rect x="-378" y="-524" transform="rotate(180)" width="34" height="19" stroke="#000000" stroke-width="0.5" stroke-linecap="butt" opacity="0"/><g stroke="#ffffff" stroke-width="0.5" stroke-linecap="round"><circle cx="361" cy="514.5" r="20" data-paper-data="{&quot;index&quot;:0}" opacity="0"/><circle cx="381" cy="514.5" r="20" data-paper-data="{&quot;index&quot;:1}" opacity="0"/><circle cx="371" cy="531.82143" r="20" data-paper-data="{&quot;index&quot;:2}" opacity="0"/><circle cx="351" cy="531.82143" r="20" data-paper-data="{&quot;index&quot;:3}" opacity="0"/><circle cx="341" cy="514.5" r="20" data-paper-data="{&quot;index&quot;:4}" opacity="0"/><circle cx="361" cy="514.5" r="8.45238"/><circle cx="381" cy="514.5" r="8.45238"/><circle cx="371" cy="531.82143" r="8.45238"/><circle cx="351" cy="531.82143" r="8.45238"/><circle cx="341" cy="514.5" r="8.45238"/><circle cx="361" cy="514.5" r="11.54762"/><circle cx="381" cy="514.5" r="11.54762"/><circle cx="371" cy="531.82143" r="11.54762"/><circle cx="351" cy="531.82143" r="11.54762"/><circle cx="341" cy="514.5" r="11.54762"/></g><rect x="-464" y="-524" transform="rotate(180)" width="34" height="19" stroke="#000000" stroke-width="0.5" stroke-linecap="butt" opacity="0"/><g stroke="#ffffff" stroke-width="0.5" stroke-linecap="round"><circle cx="447" cy="514.5" r="20" data-paper-data="{&quot;index&quot;:0}" opacity="0"/><circle cx="467" cy="514.5" r="20" data-paper-data="{&quot;index&quot;:1}" opacity="0"/><circle cx="457" cy="531.82143" r="20" data-paper-data="{&quot;index&quot;:2}" opacity="0"/><circle cx="437" cy="531.82143" r="20" data-paper-data="{&quot;index&quot;:3}" opacity="0"/><circle cx="427" cy="514.5" r="20" data-paper-data="{&quot;index&quot;:4}" opacity="0"/><circle cx="447" cy="514.5" r="10"/><circle cx="467" cy="514.5" r="10"/><circle cx="457" cy="531.82143" r="10"/><circle cx="437" cy="531.82143" r="10"/><circle cx="427" cy="514.5" r="10"/><circle cx="447" cy="514.5" r="17.32143"/><circle cx="467" cy="514.5" r="17.32143"/><circle cx="457" cy="531.82143" r="17.32143"/><circle cx="437" cy="531.82143" r="17.32143"/><circle cx="427" cy="514.5" r="17.32143"/></g><rect x="-120" y="-625" transform="rotate(180)" width="34" height="19" stroke="#000000" stroke-width="0.5" stroke-linecap="butt" opacity="0"/><g stroke="#ffffff" stroke-width="0.5" stroke-linecap="round"><circle cx="-218.54938" cy="584.53864" transform="matrix(0.8660254037844382,-0.5000000000000008,0.5000000000000008,0.8660254037844382,0,0)" r="20" data-paper-data="{&quot;index&quot;:0}" opacity="0"/><circle cx="-198.54859" cy="584.5391" transform="matrix(0.8660254037844382,-0.5000000000000008,0.5000000000000008,0.8660254037844382,0,0)" r="20" data-paper-data="{&quot;index&quot;:1}" opacity="0"/><circle cx="-208.54859" cy="601.8596" transform="matrix(0.8660254037844382,-0.5000000000000008,0.5000000000000008,0.8660254037844382,0,0)" r="20" data-paper-data="{&quot;index&quot;:2}" opacity="0"/><circle cx="-228.54938" cy="601.85914" transform="matrix(0.8660254037844382,-0.5000000000000008,0.5000000000000008,0.8660254037844382,0,0)" r="20" data-paper-data="{&quot;index&quot;:3}" opacity="0"/><circle cx="-238.55018" cy="584.53818" transform="matrix(0.8660254037844382,-0.5000000000000008,0.5000000000000008,0.8660254037844382,0,0)" r="20" data-paper-data="{&quot;index&quot;:4}" opacity="0"/><circle cx="-228.55018" cy="567.21767" transform="matrix(0.8660254037844382,-0.5000000000000008,0.5000000000000008,0.8660254037844382,0,0)" r="20" data-paper-data="{&quot;index&quot;:5}" opacity="0"/><circle cx="103" cy="615.5" r="2.67857"/><circle cx="120.32143" cy="605.5" r="2.67857"/><circle cx="120.32143" cy="625.5" r="2.67857"/><circle cx="103" cy="635.5" r="2.67857"/><circle cx="85.67857" cy="625.5" r="2.67857"/><circle cx="85.67857" cy="605.5" r="2.67857"/><circle cx="103" cy="615.5" r="10"/><circle cx="120.32143" cy="605.5" transform="rotate(0)" r="10"/><circle cx="120.32143" cy="625.5" transform="rotate(0)" r="10"/><circle cx="103" cy="635.5" r="10"/><circle cx="85.67857" cy="625.5" r="10"/><circle cx="85.67857" cy="605.5" r="10"/><circle cx="103" cy="615.5" r="8.45238"/><circle cx="120.32143" cy="605.5" r="8.45238"/><circle cx="120.32143" cy="625.5" r="8.45238"/><circle cx="103" cy="635.5" r="8.45238"/><circle cx="85.67857" cy="625.5" r="8.45238"/><circle cx="85.67857" cy="605.5" r="8.45238"/><circle cx="103" cy="615.5" r="11.54762"/><circle cx="120.32143" cy="605.5" r="11.54762"/><circle cx="120.32143" cy="625.5" r="11.54762"/><circle cx="103" cy="635.5" r="11.54762"/><circle cx="85.67857" cy="625.5" r="11.54762"/><circle cx="85.67857" cy="605.5" r="11.54762"/><circle cx="103" cy="615.5" r="10"/><circle cx="120.32143" cy="605.5" transform="rotate(0)" r="10"/><circle cx="120.32143" cy="625.5" transform="rotate(0)" r="10"/><circle cx="103" cy="635.5" r="10"/><circle cx="85.67857" cy="625.5" r="10"/><circle cx="85.67857" cy="605.5" r="10"/><circle cx="103" cy="615.5" r="17.32143"/><circle cx="120.32143" cy="605.5" r="17.32143"/><circle cx="120.32143" cy="625.5" r="17.32143"/><circle cx="103" cy="635.5" r="17.32143"/><circle cx="85.67857" cy="625.5" r="17.32143"/><circle cx="85.67857" cy="605.5" r="17.32143"/></g><rect x="-292" y="-625" transform="rotate(180)" width="34" height="19" stroke="#000000" stroke-width="0.5" stroke-linecap="butt" opacity="0"/><g stroke="#ffffff" stroke-width="0.5" stroke-linecap="round"><circle cx="-69.59301" cy="670.53864" transform="matrix(0.8660254037844382,-0.5000000000000008,0.5000000000000008,0.8660254037844382,0,0)" r="20" data-paper-data="{&quot;index&quot;:0}" opacity="0"/><circle cx="-49.59222" cy="670.5391" transform="matrix(0.8660254037844382,-0.5000000000000008,0.5000000000000008,0.8660254037844382,0,0)" r="20" data-paper-data="{&quot;index&quot;:1}" opacity="0"/><circle cx="-59.59222" cy="687.8596" transform="matrix(0.8660254037844382,-0.5000000000000008,0.5000000000000008,0.8660254037844382,0,0)" r="20" data-paper-data="{&quot;index&quot;:2}" opacity="0"/><circle cx="-79.59301" cy="687.85914" transform="matrix(0.8660254037844382,-0.5000000000000008,0.5000000000000008,0.8660254037844382,0,0)" r="20" data-paper-data="{&quot;index&quot;:3}" opacity="0"/><circle cx="-89.59381" cy="670.53818" transform="matrix(0.8660254037844382,-0.5000000000000008,0.5000000000000008,0.8660254037844382,0,0)" r="20" data-paper-data="{&quot;index&quot;:4}" opacity="0"/><circle cx="-79.59381" cy="653.21767" transform="matrix(0.8660254037844382,-0.5000000000000008,0.5000000000000008,0.8660254037844382,0,0)" r="20" data-paper-data="{&quot;index&quot;:5}" opacity="0"/><circle cx="275" cy="615.5" r="2.67857"/><circle cx="292.32143" cy="605.5" r="2.67857"/><circle cx="292.32143" cy="625.5" r="2.67857"/><circle cx="275" cy="635.5" r="2.67857"/><circle cx="257.67857" cy="625.5" r="2.67857"/><circle cx="257.67857" cy="605.5" r="2.67857"/><circle cx="275" cy="615.5" r="10"/><circle cx="292.32143" cy="605.5" r="10"/><circle cx="292.32143" cy="625.5" r="10"/><circle cx="275" cy="635.5" r="10"/><circle cx="257.67857" cy="625.5" r="10"/><circle cx="257.67857" cy="605.5" r="10"/></g><rect x="-378" y="-625" transform="rotate(180)" width="34" height="19" stroke="#000000" stroke-width="0.5" stroke-linecap="butt" opacity="0"/><g stroke="#ffffff" stroke-width="0.5" stroke-linecap="round"><circle cx="4.88517" cy="713.53864" transform="matrix(0.8660254037844382,-0.5000000000000008,0.5000000000000008,0.8660254037844382,0,0)" r="20" data-paper-data="{&quot;index&quot;:0}" opacity="0"/><circle cx="24.88597" cy="713.5391" transform="matrix(0.8660254037844382,-0.5000000000000008,0.5000000000000008,0.8660254037844382,0,0)" r="20" data-paper-data="{&quot;index&quot;:1}" opacity="0"/><circle cx="14.88597" cy="730.8596" transform="matrix(0.8660254037844382,-0.5000000000000008,0.5000000000000008,0.8660254037844382,0,0)" r="20" data-paper-data="{&quot;index&quot;:2}" opacity="0"/><circle cx="-5.11483" cy="730.85914" transform="matrix(0.8660254037844382,-0.5000000000000008,0.5000000000000008,0.8660254037844382,0,0)" r="20" data-paper-data="{&quot;index&quot;:3}" opacity="0"/><circle cx="-15.11563" cy="713.53818" transform="matrix(0.8660254037844382,-0.5000000000000008,0.5000000000000008,0.8660254037844382,0,0)" r="20" data-paper-data="{&quot;index&quot;:4}" opacity="0"/><circle cx="-5.11563" cy="696.21767" transform="matrix(0.8660254037844382,-0.5000000000000008,0.5000000000000008,0.8660254037844382,0,0)" r="20" data-paper-data="{&quot;index&quot;:5}" opacity="0"/><circle cx="361" cy="615.5" r="8.45238"/><circle cx="378.32143" cy="605.5" r="8.45238"/><circle cx="378.32143" cy="625.5" r="8.45238"/><circle cx="361" cy="635.5" r="8.45238"/><circle cx="343.67857" cy="625.5" r="8.45238"/><circle cx="343.67857" cy="605.5" r="8.45238"/><circle cx="361" cy="615.5" r="11.54762"/><circle cx="378.32143" cy="605.5" r="11.54762"/><circle cx="378.32143" cy="625.5" r="11.54762"/><circle cx="361" cy="635.5" r="11.54762"/><circle cx="343.67857" cy="625.5" r="11.54762"/><circle cx="343.67857" cy="605.5" r="11.54762"/></g><rect x="-464" y="-625" transform="rotate(180)" width="34" height="19" stroke="#000000" stroke-width="0.5" stroke-linecap="butt" opacity="0"/><g stroke="#ffffff" stroke-width="0.5" stroke-linecap="round"><circle cx="79.36336" cy="756.53864" transform="matrix(0.8660254037844382,-0.5000000000000008,0.5000000000000008,0.8660254037844382,0,0)" r="20" data-paper-data="{&quot;index&quot;:0}" opacity="0"/><circle cx="99.36415" cy="756.5391" transform="matrix(0.8660254037844382,-0.5000000000000008,0.5000000000000008,0.8660254037844382,0,0)" r="20" data-paper-data="{&quot;index&quot;:1}" opacity="0"/><circle cx="89.36415" cy="773.8596" transform="matrix(0.8660254037844382,-0.5000000000000008,0.5000000000000008,0.8660254037844382,0,0)" r="20" data-paper-data="{&quot;index&quot;:2}" opacity="0"/><circle cx="69.36336" cy="773.85914" transform="matrix(0.8660254037844382,-0.5000000000000008,0.5000000000000008,0.8660254037844382,0,0)" r="20" data-paper-data="{&quot;index&quot;:3}" opacity="0"/><circle cx="59.36256" cy="756.53818" transform="matrix(0.8660254037844382,-0.5000000000000008,0.5000000000000008,0.8660254037844382,0,0)" r="20" data-paper-data="{&quot;index&quot;:4}" opacity="0"/><circle cx="69.36256" cy="739.21767" transform="matrix(0.8660254037844382,-0.5000000000000008,0.5000000000000008,0.8660254037844382,0,0)" r="20" data-paper-data="{&quot;index&quot;:5}" opacity="0"/><circle cx="447" cy="615.5" r="10"/><circle cx="464.32143" cy="605.5" r="10"/><circle cx="464.32143" cy="625.5" r="10"/><circle cx="447" cy="635.5" r="10"/><circle cx="429.67857" cy="625.5" r="10"/><circle cx="429.67857" cy="605.5" r="10"/><circle cx="447" cy="615.5" r="17.32143"/><circle cx="464.32143" cy="605.5" r="17.32143"/><circle cx="464.32143" cy="625.5" r="17.32143"/><circle cx="447" cy="635.5" r="17.32143"/><circle cx="429.67857" cy="625.5" r="17.32143"/><circle cx="429.67857" cy="605.5" r="17.32143"/></g><rect x="-120" y="-726" transform="rotate(180)" width="34" height="19" stroke="#000000" stroke-width="0.5" stroke-linecap="butt" opacity="0"/><g stroke="#ffffff" stroke-width="0.5" stroke-linecap="round"><circle cx="447.45062" cy="569.0072" transform="matrix(0.8660254037844382,0.5000000000000008,-0.5000000000000008,0.8660254037844382,0,0)" r="20" data-paper-data="{&quot;index&quot;:0}" opacity="0"/><circle cx="467.45141" cy="569.00674" transform="matrix(0.8660254037844385,0.5000000000000002,-0.5000000000000002,0.8660254037844385,0,0)" r="20" data-paper-data="{&quot;index&quot;:1}" opacity="0"/><circle cx="457.45062" cy="586.32771" transform="rotate(30)" r="20" data-paper-data="{&quot;index&quot;:2}" opacity="0"/><circle cx="437.44982" cy="586.32817" transform="rotate(30)" r="20" data-paper-data="{&quot;index&quot;:3}" opacity="0"/><circle cx="427.44982" cy="569.00766" transform="matrix(0.8660254037844382,0.5000000000000008,-0.5000000000000008,0.8660254037844382,0,0)" r="20" data-paper-data="{&quot;index&quot;:4}" opacity="0"/><circle cx="437.45062" cy="551.68669" transform="rotate(30)" r="20" data-paper-data="{&quot;index&quot;:5}" opacity="0"/><circle cx="457.45141" cy="551.68623" transform="rotate(30)" r="20" data-paper-data="{&quot;index&quot;:6}" opacity="0"/><circle cx="103" cy="716.5" r="2.67857"/><circle cx="120.32143" cy="726.5" r="2.67857"/><circle cx="103" cy="736.5" r="2.67857"/><circle cx="85.67857" cy="726.5" r="2.67857"/><circle cx="85.67857" cy="706.5" r="2.67857"/><circle cx="103" cy="696.5" r="2.67857"/><circle cx="120.32143" cy="706.5" r="2.67857"/><circle cx="103" cy="716.5" r="10"/><circle cx="120.32143" cy="726.5" transform="rotate(0)" r="10"/><circle cx="103" cy="736.5" r="10"/><circle cx="85.67857" cy="726.5" r="10"/><circle cx="85.67857" cy="706.5" r="10"/><circle cx="103" cy="696.5" r="10"/><circle cx="120.32143" cy="706.5" transform="rotate(0)" r="10"/><circle cx="103" cy="716.5" r="8.45238"/><circle cx="120.32143" cy="726.5" r="8.45238"/><circle cx="103" cy="736.5" r="8.45238"/><circle cx="85.67857" cy="726.5" r="8.45238"/><circle cx="85.67857" cy="706.5" r="8.45238"/><circle cx="103" cy="696.5" r="8.45238"/><circle cx="120.32143" cy="706.5" r="8.45238"/><circle cx="103" cy="716.5" r="11.54762"/><circle cx="120.32143" cy="726.5" r="11.54762"/><circle cx="103" cy="736.5" r="11.54762"/><circle cx="85.67857" cy="726.5" r="11.54762"/><circle cx="85.67857" cy="706.5" r="11.54762"/><circle cx="103" cy="696.5" r="11.54762"/><circle cx="120.32143" cy="706.5" r="11.54762"/><circle cx="103" cy="716.5" r="10"/><circle cx="120.32143" cy="726.5" transform="rotate(0)" r="10"/><circle cx="103" cy="736.5" r="10"/><circle cx="85.67857" cy="726.5" r="10"/><circle cx="85.67857" cy="706.5" r="10"/><circle cx="103" cy="696.5" r="10"/><circle cx="120.32143" cy="706.5" transform="rotate(0)" r="10"/><circle cx="103" cy="716.5" r="17.32143"/><circle cx="120.32143" cy="726.5" r="17.32143"/><circle cx="103" cy="736.5" r="17.32143"/><circle cx="85.67857" cy="726.5" r="17.32143"/><circle cx="85.67857" cy="706.5" r="17.32143"/><circle cx="103" cy="696.5" r="17.32143"/><circle cx="120.32143" cy="706.5" r="17.32143"/></g><rect x="-292" y="-726" transform="rotate(180)" width="34" height="19" stroke="#000000" stroke-width="0.5" stroke-linecap="butt" opacity="0"/><g stroke="#ffffff" stroke-width="0.5" stroke-linecap="round"><circle cx="596.40699" cy="483.0072" transform="matrix(0.8660254037844382,0.5000000000000008,-0.5000000000000008,0.8660254037844382,0,0)" r="20" data-paper-data="{&quot;index&quot;:0}" opacity="0"/><circle cx="616.40778" cy="483.00674" transform="matrix(0.8660254037844382,0.5000000000000008,-0.5000000000000008,0.8660254037844382,0,0)" r="20" data-paper-data="{&quot;index&quot;:1}" opacity="0"/><circle cx="606.40699" cy="500.32771" transform="rotate(30)" r="20" data-paper-data="{&quot;index&quot;:2}" opacity="0"/><circle cx="586.40619" cy="500.32817" transform="rotate(30)" r="20" data-paper-data="{&quot;index&quot;:3}" opacity="0"/><circle cx="576.40619" cy="483.00766" transform="matrix(0.8660254037844382,0.5000000000000008,-0.5000000000000008,0.8660254037844382,0,0)" r="20" data-paper-data="{&quot;index&quot;:4}" opacity="0"/><circle cx="586.40699" cy="465.68669" transform="rotate(30)" r="20" data-paper-data="{&quot;index&quot;:5}" opacity="0"/><circle cx="606.40778" cy="465.68623" transform="rotate(30)" r="20" data-paper-data="{&quot;index&quot;:6}" opacity="0"/><circle cx="275" cy="716.5" r="2.67857"/><circle cx="292.32143" cy="726.5" r="2.67857"/><circle cx="275" cy="736.5" r="2.67857"/><circle cx="257.67857" cy="726.5" r="2.67857"/><circle cx="257.67857" cy="706.5" r="2.67857"/><circle cx="275" cy="696.5" r="2.67857"/><circle cx="292.32143" cy="706.5" r="2.67857"/><circle cx="275" cy="716.5" r="10"/><circle cx="292.32143" cy="726.5" r="10"/><circle cx="275" cy="736.5" r="10"/><circle cx="257.67857" cy="726.5" r="10"/><circle cx="257.67857" cy="706.5" r="10"/><circle cx="275" cy="696.5" r="10"/><circle cx="292.32143" cy="706.5" r="10"/></g><rect x="-378" y="-726" transform="rotate(180)" width="34" height="19" stroke="#000000" stroke-width="0.5" stroke-linecap="butt" opacity="0"/><g stroke="#ffffff" stroke-width="0.5" stroke-linecap="round"><circle cx="670.88517" cy="440.0072" transform="matrix(0.8660254037844382,0.5000000000000008,-0.5000000000000008,0.8660254037844382,0,0)" r="20" data-paper-data="{&quot;index&quot;:0}" opacity="0"/><circle cx="690.88597" cy="440.00674" transform="matrix(0.8660254037844382,0.5000000000000008,-0.5000000000000008,0.8660254037844382,0,0)" r="20" data-paper-data="{&quot;index&quot;:1}" opacity="0"/><circle cx="680.88517" cy="457.32771" transform="rotate(30)" r="20" data-paper-data="{&quot;index&quot;:2}" opacity="0"/><circle cx="660.88437" cy="457.32817" transform="rotate(30)" r="20" data-paper-data="{&quot;index&quot;:3}" opacity="0"/><circle cx="650.88437" cy="440.00766" transform="matrix(0.8660254037844382,0.5000000000000008,-0.5000000000000008,0.8660254037844382,0,0)" r="20" data-paper-data="{&quot;index&quot;:4}" opacity="0"/><circle cx="660.88517" cy="422.68669" transform="rotate(30)" r="20" data-paper-data="{&quot;index&quot;:5}" opacity="0"/><circle cx="680.88597" cy="422.68623" transform="rotate(30)" r="20" data-paper-data="{&quot;index&quot;:6}" opacity="0"/><circle cx="361" cy="716.5" r="8.45238"/><circle cx="378.32143" cy="726.5" r="8.45238"/><circle cx="361" cy="736.5" r="8.45238"/><circle cx="343.67857" cy="726.5" r="8.45238"/><circle cx="343.67857" cy="706.5" r="8.45238"/><circle cx="361" cy="696.5" r="8.45238"/><circle cx="378.32143" cy="706.5" r="8.45238"/><circle cx="361" cy="716.5" r="11.54762"/><circle cx="378.32143" cy="726.5" r="11.54762"/><circle cx="361" cy="736.5" r="11.54762"/><circle cx="343.67857" cy="726.5" r="11.54762"/><circle cx="343.67857" cy="706.5" r="11.54762"/><circle cx="361" cy="696.5" r="11.54762"/><circle cx="378.32143" cy="706.5" r="11.54762"/></g><rect x="-464" y="-726" transform="rotate(180)" width="34" height="19" stroke="#000000" stroke-width="0.5" stroke-linecap="butt" opacity="0"/><g stroke="#ffffff" stroke-width="0.5" stroke-linecap="round"><circle cx="745.36336" cy="397.0072" transform="matrix(0.8660254037844382,0.5000000000000008,-0.5000000000000008,0.8660254037844382,0,0)" r="20" data-paper-data="{&quot;index&quot;:0}" opacity="0"/><circle cx="765.36415" cy="397.00674" transform="matrix(0.8660254037844382,0.5000000000000008,-0.5000000000000008,0.8660254037844382,0,0)" r="20" data-paper-data="{&quot;index&quot;:1}" opacity="0"/><circle cx="755.36336" cy="414.32771" transform="rotate(30)" r="20" data-paper-data="{&quot;index&quot;:2}" opacity="0"/><circle cx="735.36256" cy="414.32817" transform="rotate(30)" r="20" data-paper-data="{&quot;index&quot;:3}" opacity="0"/><circle cx="725.36256" cy="397.00766" transform="matrix(0.8660254037844382,0.5000000000000008,-0.5000000000000008,0.8660254037844382,0,0)" r="20" data-paper-data="{&quot;index&quot;:4}" opacity="0"/><circle cx="735.36336" cy="379.68669" transform="rotate(30)" r="20" data-paper-data="{&quot;index&quot;:5}" opacity="0"/><circle cx="755.36415" cy="379.68623" transform="rotate(30)" r="20" data-paper-data="{&quot;index&quot;:6}" opacity="0"/><circle cx="447" cy="716.5" r="10"/><circle cx="464.32143" cy="726.5" r="10"/><circle cx="447" cy="736.5" r="10"/><circle cx="429.67857" cy="726.5" r="10"/><circle cx="429.67857" cy="706.5" r="10"/><circle cx="447" cy="696.5" r="10"/><circle cx="464.32143" cy="706.5" r="10"/><circle cx="447" cy="716.5" r="17.32143"/><circle cx="464.32143" cy="726.5" r="17.32143"/><circle cx="447" cy="736.5" r="17.32143"/><circle cx="429.67857" cy="726.5" r="17.32143"/><circle cx="429.67857" cy="706.5" r="17.32143"/><circle cx="447" cy="696.5" r="17.32143"/><circle cx="464.32143" cy="706.5" r="17.32143"/></g><rect x="570" y="25" width="510" height="800" fill="#000000" stroke-width="1" stroke-linecap="butt"/><g stroke-width="1" stroke-linecap="butt"/><rect x="-836" y="-120" transform="rotate(180)" width="23" height="19" stroke="#000000" stroke-width="0.5" stroke-linecap="butt" opacity="0"/><g stroke="#ffffff" stroke-width="0.5" stroke-linecap="round"><circle cx="824.5" cy="110.5" r="20" data-paper-data="{&quot;index&quot;:0}"/><circle cx="824.5" cy="110.5" r="1.5" fill="#ffffff"/></g><rect x="-836" y="-221" transform="rotate(180)" width="23" height="19" stroke="#000000" stroke-width="0.5" stroke-linecap="butt" opacity="0"/><g stroke="#ffffff" stroke-width="0.5" stroke-linecap="round"><circle cx="211.5" cy="-824.5" transform="rotate(90)" r="20" data-paper-data="{&quot;index&quot;:0}"/><circle cx="231.5" cy="-824.5" transform="rotate(90)" r="20" data-paper-data="{&quot;index&quot;:1}"/><circle cx="824.5" cy="221.5" r="1.5" fill="#ffffff"/></g><rect x="-836" y="-322" transform="rotate(180)" width="23" height="19" stroke="#000000" stroke-width="0.5" stroke-linecap="butt" opacity="0"/><g stroke="#ffffff" stroke-width="0.5" stroke-linecap="round"><circle cx="682.88294" cy="-557.78795" transform="rotate(60)" r="20" data-paper-data="{&quot;index&quot;:0}"/><circle cx="702.88374" cy="-557.78749" transform="rotate(60)" r="20" data-paper-data="{&quot;index&quot;:1}"/><circle cx="692.88374" cy="-540.46698" transform="rotate(60)" r="20" data-paper-data="{&quot;index&quot;:2}"/><circle cx="824.5" cy="324.04762" r="1.5" fill="#ffffff"/></g><rect x="-836" y="-423" transform="rotate(180)" width="23" height="19" stroke="#000000" stroke-width="0.5" stroke-linecap="butt" opacity="0"/><g stroke="#ffffff" stroke-width="0.5" stroke-linecap="round"><circle cx="920.78795" cy="-54.1485" transform="matrix(0.8660254037844382,0.5000000000000008,-0.5000000000000008,0.8660254037844382,0,0)" r="20" data-paper-data="{&quot;index&quot;:0}"/><circle cx="940.78874" cy="-54.14896" transform="matrix(0.8660254037844382,0.5000000000000008,-0.5000000000000008,0.8660254037844382,0,0)" r="20" data-paper-data="{&quot;index&quot;:1}"/><circle cx="930.78795" cy="-36.82799" transform="rotate(30)" r="20" data-paper-data="{&quot;index&quot;:2}"/><circle cx="910.78715" cy="-36.82753" transform="rotate(30)" r="20" data-paper-data="{&quot;index&quot;:3}"/><circle cx="824.5" cy="423.5" r="1.5" fill="#ffffff"/></g><rect x="-836" y="-524" transform="rotate(180)" width="23" height="19" stroke="#000000" stroke-width="0.5" stroke-linecap="butt" opacity="0"/><g stroke="#ffffff" stroke-width="0.5" stroke-linecap="round"><circle cx="824.5" cy="514.5" r="20" data-paper-data="{&quot;index&quot;:0}"/><circle cx="844.5" cy="514.5" r="20" data-paper-data="{&quot;index&quot;:1}"/><circle cx="834.5" cy="531.82143" r="20" data-paper-data="{&quot;index&quot;:2}"/><circle cx="814.5" cy="531.82143" r="20" data-paper-data="{&quot;index&quot;:3}"/><circle cx="804.5" cy="514.5" r="20" data-paper-data="{&quot;index&quot;:4}"/><circle cx="824.5" cy="521.42857" r="1.5" fill="#ffffff"/></g><rect x="-836" y="-625" transform="rotate(180)" width="23" height="19" stroke="#000000" stroke-width="0.5" stroke-linecap="butt" opacity="0"/><g stroke="#ffffff" stroke-width="0.5" stroke-linecap="round"><circle cx="406.28795" cy="945.28864" transform="rotate(-30)" r="20" data-paper-data="{&quot;index&quot;:0}"/><circle cx="426.28874" cy="945.2891" transform="rotate(-30)" r="20" data-paper-data="{&quot;index&quot;:1}"/><circle cx="416.28874" cy="962.6096" transform="rotate(-30)" r="20" data-paper-data="{&quot;index&quot;:2}"/><circle cx="396.28795" cy="962.60914" transform="rotate(-30)" r="20" data-paper-data="{&quot;index&quot;:3}"/><circle cx="386.28715" cy="945.28818" transform="rotate(-30)" r="20" data-paper-data="{&quot;index&quot;:4}"/><circle cx="396.28715" cy="927.96767" transform="rotate(-30)" r="20" data-paper-data="{&quot;index&quot;:5}"/><circle cx="824.5" cy="620.95455" r="1.5" fill="#ffffff"/></g><rect x="-836" y="-726" transform="rotate(180)" width="23" height="19" stroke="#000000" stroke-width="0.5" stroke-linecap="butt" opacity="0"/><g stroke="#ffffff" stroke-width="0.5" stroke-linecap="round"><circle cx="1072.28795" cy="208.2572" transform="rotate(30)" r="20" data-paper-data="{&quot;index&quot;:0}"/><circle cx="1092.28874" cy="208.25674" transform="rotate(30)" r="20" data-paper-data="{&quot;index&quot;:1}"/><circle cx="1082.28795" cy="225.57771" transform="rotate(30)" r="20" data-paper-data="{&quot;index&quot;:2}"/><circle cx="1062.28715" cy="225.57817" transform="rotate(30)" r="20" data-paper-data="{&quot;index&quot;:3}"/><circle cx="1052.28715" cy="208.25766" transform="rotate(30)" r="20" data-paper-data="{&quot;index&quot;:4}"/><circle cx="1062.28795" cy="190.93669" transform="rotate(30)" r="20" data-paper-data="{&quot;index&quot;:5}"/><circle cx="1082.28874" cy="190.93623" transform="rotate(30)" r="20" data-paper-data="{&quot;index&quot;:6}"/><circle cx="824.5" cy="716.5" r="1.5" fill="#ffffff"/></g></g></svg>