<svg x="0" y="0" width="1100" height="850" version="1.1" xmlns="http://www.w3.org/2000/svg" xmlns:xlink="http://www.w3.org/1999/xlink"><g fill="none" stroke="#000000" stroke-width="1" stroke-linecap="none" stroke-linejoin="miter" stroke-miterlimit="10" stroke-dasharray="" stroke-dashoffset="0" font-family="sans-serif" font-size="12" text-anchor="start" mix-blend-mode="normal"><rect x="775" y="375" width="100" height="100" stroke-linecap="butt" opacity="0"/><g stroke-linecap="round"><circle cx="926.97096" cy="-44.4392" transform="rotate(30)" r="24" data-paper-data="{&quot;index&quot;:0}" opacity="0"/><circle cx="950.97096" cy="-44.4392" transform="rotate(30)" r="24" data-paper-data="{&quot;index&quot;:1}" opacity="0"/><circle cx="938.97096" cy="-23.65349" transform="rotate(30)" r="24" data-paper-data="{&quot;index&quot;:2}" opacity="0"/><circle cx="914.97096" cy="-23.65349" transform="rotate(30)" r="24" data-paper-data="{&quot;index&quot;:3}" opacity="0"/><circle cx="902.97096" cy="-44.4392" transform="rotate(30)" r="24" data-paper-data="{&quot;index&quot;:4}" opacity="0"/><circle cx="914.97096" cy="-65.22492" transform="rotate(30)" r="24" data-paper-data="{&quot;index&quot;:5}" opacity="0"/><circle cx="938.97096" cy="-65.22492" transform="rotate(30)" r="24" data-paper-data="{&quot;index&quot;:6}" opacity="0"/><circle cx="932.97096" cy="-34.04635" transform="rotate(30)" r="3.21429"/><circle cx="932.97096" cy="-54.83206" transform="matrix(0.8660254037844365,0.5000000000000037,-0.5000000000000037,0.8660254037844365,0,0)" r="3.21429"/><circle cx="920.97096" cy="-34.04635" transform="rotate(30)" r="3.21429"/><circle cx="938.97096" cy="-44.4392" transform="rotate(30)" r="3.21429"/><circle cx="914.97096" cy="-44.4392" transform="matrix(0.8660254037844365,0.5000000000000037,-0.5000000000000037,0.8660254037844365,0,0)" r="3.21429"/><circle cx="920.97096" cy="-54.83206" transform="rotate(30)" r="3.21429"/><circle cx="932.97096" cy="-34.04635" transform="rotate(30)" r="12"/><circle cx="932.97096" cy="-54.83206" transform="rotate(30)" r="12"/><circle cx="920.97096" cy="-34.04635" transform="rotate(30)" r="12"/><circle cx="938.97096" cy="-44.4392" transform="rotate(30)" r="12"/><circle cx="914.97096" cy="-44.4392" transform="rotate(30)" r="12"/><circle cx="920.97096" cy="-54.83206" transform="rotate(30)" r="12"/><circle cx="938.97096" cy="-37.51063" transform="rotate(30)" r="10.14286"/><circle cx="938.97096" cy="-51.36777" transform="rotate(30)" r="10.14286"/><circle cx="926.97096" cy="-30.58206" transform="rotate(30)" r="10.14286"/><circle cx="914.97096" cy="-37.51063" transform="rotate(30)" r="10.14286"/><circle cx="914.97096" cy="-51.36777" transform="rotate(30)" r="10.14286"/><circle cx="926.97096" cy="-58.29635" transform="rotate(30)" r="10.14286"/><circle cx="938.97096" cy="-37.51063" transform="rotate(30)" r="13.85714"/><circle cx="938.97096" cy="-51.36777" transform="rotate(30)" r="13.85714"/><circle cx="926.97096" cy="-30.58206" transform="rotate(30)" r="13.85714"/><circle cx="914.97096" cy="-37.51063" transform="rotate(30)" r="13.85714"/><circle cx="914.97096" cy="-51.36777" transform="rotate(30)" r="13.85714"/><circle cx="926.97096" cy="-58.29635" transform="rotate(30)" r="13.85714"/><circle cx="938.97096" cy="-44.4392" transform="rotate(30)" r="12"/><circle cx="932.97096" cy="-34.04635" transform="rotate(30)" r="12"/><circle cx="920.97096" cy="-34.04635" transform="rotate(30)" r="12"/><circle cx="914.97096" cy="-44.4392" transform="rotate(30)" r="12"/><circle cx="920.97096" cy="-54.83206" transform="rotate(30)" r="12"/><circle cx="932.97096" cy="-54.83206" transform="rotate(30)" r="12"/><circle cx="944.97096" cy="-34.04635" transform="rotate(30)" r="12"/><circle cx="944.97096" cy="-54.83206" transform="rotate(30)" r="12"/><circle cx="926.97096" cy="-23.65349" transform="rotate(30)" r="12"/><circle cx="908.97096" cy="-34.04635" transform="rotate(30)" r="12"/><circle cx="908.97096" cy="-54.83206" transform="rotate(30)" r="12"/><circle cx="926.97096" cy="-65.22492" transform="rotate(30)" r="12"/><circle cx="938.97096" cy="-44.4392" transform="matrix(0.8660254037844373,0.5000000000000023,-0.5000000000000023,0.8660254037844373,0,0)" r="20.78571"/><circle cx="932.97096" cy="-34.04635" transform="rotate(30)" r="20.78571"/><circle cx="920.97096" cy="-34.04635" transform="rotate(30)" r="20.78571"/><circle cx="914.97096" cy="-44.4392" transform="rotate(30)" r="20.78571"/><circle cx="920.97096" cy="-54.83206" transform="matrix(0.8660254037844373,0.5000000000000023,-0.5000000000000023,0.8660254037844373,0,0)" r="20.78571"/><circle cx="932.97096" cy="-54.83206" transform="matrix(0.8660254037844373,0.5000000000000023,-0.5000000000000023,0.8660254037844373,0,0)" r="20.78571"/><circle cx="944.97096" cy="-34.04635" transform="rotate(30)" r="20.78571"/><circle cx="944.97096" cy="-54.83206" transform="matrix(0.8660254037844373,0.5000000000000023,-0.5000000000000023,0.8660254037844373,0,0)" r="20.78571"/><circle cx="926.97096" cy="-23.65349" transform="rotate(30)" r="20.78571"/><circle cx="908.97096" cy="-34.04635" transform="rotate(30)" r="20.78571"/><circle cx="908.97096" cy="-54.83206" transform="rotate(30)" r="20.78571"/><circle cx="926.97096" cy="-65.22492" transform="rotate(30)" r="20.78571"/></g></g></svg>