<svg x="0" y="0" width="1100" height="850" version="1.1" xmlns="http://www.w3.org/2000/svg" xmlns:xlink="http://www.w3.org/1999/xlink"><g fill="none" stroke="#000000" stroke-width="1" stroke-linecap="none" stroke-linejoin="miter" stroke-miterlimit="10" stroke-dasharray="" stroke-dashoffset="0" font-family="sans-serif" font-size="12" text-anchor="start" mix-blend-mode="normal"><rect x="775" y="375" width="100" height="100" stroke-linecap="butt" opacity="0"/><g stroke-linecap="round"><circle cx="926.97096" cy="-44.4392" transform="rotate(30)" r="24" data-paper-data="{&quot;index&quot;:0}" opacity="0"/><circle cx="950.97096" cy="-44.4392" transform="rotate(30)" r="24" data-paper-data="{&quot;index&quot;:1}" opacity="0"/><circle cx="938.97096" cy="-23.65349" transform="rotate(30)" r="24" data-paper-data="{&quot;index&quot;:2}" opacity="0"/><circle cx="914.97096" cy="-23.65349" transform="rotate(30)" r="24" data-paper-data="{&quot;index&quot;:3}" opacity="0"/><circle cx="902.97096" cy="-44.4392" transform="rotate(30)" r="24" data-paper-data="{&quot;index&quot;:4}" opacity="0"/><circle cx="914.97096" cy="-65.22492" transform="rotate(30)" r="24" data-paper-data="{&quot;index&quot;:5}" opacity="0"/><circle cx="938.97096" cy="-65.22492" transform="rotate(30)" r="24" data-paper-data="{&quot;index&quot;:6}" opacity="0"/><rect x="425" y="-825" transform="rotate(90)" width="0" height="0"/><circle cx="926.97096" cy="-44.4392" transform="rotate(30)" r="24"/><circle cx="926.97096" cy="-44.4392" transform="rotate(30)" r="24.00096"/><circle cx="926.97096" cy="-44.4392" transform="rotate(30)" r="24.00096"/><circle cx="926.97096" cy="-44.4392" transform="rotate(30)" r="24"/><circle cx="926.97096" cy="-44.4392" transform="rotate(30)" r="24.00096"/><circle cx="926.97096" cy="-44.4392" transform="rotate(30)" r="24.00096"/><circle cx="926.97096" cy="-44.4392" transform="matrix(0.8660254037844382,0.5000000000000008,-0.5000000000000008,0.8660254037844382,0,0)" r="41.56977"/><circle cx="926.97096" cy="-44.4392" transform="matrix(0.8660254037844382,0.5000000000000008,-0.5000000000000008,0.8660254037844382,0,0)" r="41.56977"/><circle cx="926.97096" cy="-44.4392" transform="matrix(0.8660254037844382,0.5000000000000008,-0.5000000000000008,0.8660254037844382,0,0)" r="41.57143"/><circle cx="926.97096" cy="-44.4392" transform="matrix(0.8660254037844382,0.5000000000000008,-0.5000000000000008,0.8660254037844382,0,0)" r="41.56977"/><circle cx="926.97096" cy="-44.4392" transform="matrix(0.8660254037844382,0.5000000000000008,-0.5000000000000008,0.8660254037844382,0,0)" r="41.56977"/><circle cx="926.97096" cy="-44.4392" transform="matrix(0.8660254037844382,0.5000000000000008,-0.5000000000000008,0.8660254037844382,0,0)" r="41.57143"/></g></g></svg>