<svg x="0" y="0" width="1100" height="850" version="1.1" xmlns="http://www.w3.org/2000/svg" xmlns:xlink="http://www.w3.org/1999/xlink"><g fill="none" stroke="#000000" stroke-width="0.5" stroke-linecap="none" stroke-linejoin="miter" stroke-miterlimit="10" stroke-dasharray="" stroke-dashoffset="0" font-family="sans-serif" font-size="12" text-anchor="start" mix-blend-mode="normal"><rect x="775" y="375" width="100" height="100" stroke-linecap="butt" opacity="0"/><g stroke-linecap="round"><circle cx="926.97096" cy="-44.4392" transform="rotate(30)" r="24" data-paper-data="{&quot;index&quot;:0}" opacity="0"/><circle cx="950.97096" cy="-44.4392" transform="rotate(30)" r="24" data-paper-data="{&quot;index&quot;:1}" opacity="0"/><circle cx="938.97096" cy="-23.65349" transform="rotate(30)" r="24" data-paper-data="{&quot;index&quot;:2}" opacity="0"/><circle cx="914.97096" cy="-23.65349" transform="rotate(30)" r="24" data-paper-data="{&quot;index&quot;:3}" opacity="0"/><circle cx="902.97096" cy="-44.4392" transform="rotate(30)" r="24" data-paper-data="{&quot;index&quot;:4}" opacity="0"/><circle cx="914.97096" cy="-65.22492" transform="rotate(30)" r="24" data-paper-data="{&quot;index&quot;:5}" opacity="0"/><circle cx="938.97096" cy="-65.22492" transform="rotate(30)" r="24" data-paper-data="{&quot;index&quot;:6}" opacity="0"/><circle cx="926.97096" cy="-44.4392" transform="rotate(30)" r="1.5" fill="#000000"/><circle cx="950.97096" cy="-44.4392" transform="rotate(30)" r="1.5" fill="#000000"/><circle cx="938.97096" cy="-23.65349" transform="rotate(30)" r="1.5" fill="#000000"/><circle cx="914.97096" cy="-23.65349" transform="rotate(30)" r="1.5" fill="#000000"/><circle cx="902.97096" cy="-44.4392" transform="rotate(30)" r="1.5" fill="#000000"/><circle cx="914.97096" cy="-65.22492" transform="rotate(30)" r="1.5" fill="#000000"/><circle cx="938.97096" cy="-65.22492" transform="rotate(30)" r="1.5" fill="#000000"/><circle cx="962.97096" cy="-23.65349" transform="rotate(30)" r="1.5" fill="#000000"/><circle cx="962.97096" cy="-65.22492" transform="rotate(30)" r="1.5" fill="#000000"/><circle cx="926.97096" cy="-2.86777" transform="matrix(0.8660254037844339,0.5000000000000081,-0.5000000000000081,0.8660254037844339,0,0)" r="1.5" fill="#000000"/><circle cx="890.97096" cy="-23.65349" transform="rotate(30)" r="1.5" fill="#000000"/><circle cx="890.97096" cy="-65.22492" transform="rotate(30)" r="1.5" fill="#000000"/><circle cx="926.97096" cy="-86.01063" transform="rotate(30)" r="1.5" fill="#000000"/><line x1="825" y1="425" x2="845.78461" y2="437" data-paper-data="{&quot;endpoints&quot;:[[&quot;Point&quot;,825,425],[&quot;Point&quot;,849,425]]}"/><line x1="825" y1="425" x2="824.99945" y2="449.00096" data-paper-data="{&quot;endpoints&quot;:[[&quot;Point&quot;,825,425],[&quot;Point&quot;,837,445.78571]]}"/><line x1="825" y1="425" x2="804.21484" y2="437.00096" data-paper-data="{&quot;endpoints&quot;:[[&quot;Point&quot;,825,425],[&quot;Point&quot;,813,445.78571]]}"/><line x1="825" y1="425" x2="804.21539" y2="413" data-paper-data="{&quot;endpoints&quot;:[[&quot;Point&quot;,825,425],[&quot;Point&quot;,801,425]]}"/><line x1="825" y1="425" x2="825.00055" y2="400.99904" data-paper-data="{&quot;endpoints&quot;:[[&quot;Point&quot;,825,425],[&quot;Point&quot;,813,404.21429]]}"/><line x1="825" y1="425" x2="845.78516" y2="412.99904" data-paper-data="{&quot;endpoints&quot;:[[&quot;Point&quot;,825,425],[&quot;Point&quot;,837,404.21429]]}"/><line x1="825" y1="425" x2="845.78406" y2="461.00096" data-paper-data="{&quot;endpoints&quot;:[[&quot;Point&quot;,825,425],[&quot;Point&quot;,861,445.78571]]}"/><line x1="825" y1="425" x2="866.56977" y2="424.99904" data-paper-data="{&quot;endpoints&quot;:[[&quot;Point&quot;,825,425],[&quot;Point&quot;,861,404.21429]]}"/><line x1="825" y1="425" x2="804.21429" y2="461.00191" data-paper-data="{&quot;endpoints&quot;:[[&quot;Point&quot;,825,425],[&quot;Point&quot;,825,466.57143]]}"/><line x1="825" y1="425" x2="783.43023" y2="425.00096" data-paper-data="{&quot;endpoints&quot;:[[&quot;Point&quot;,825,425],[&quot;Point&quot;,789,445.78571]]}"/><line x1="825" y1="425" x2="804.21594" y2="388.99904" data-paper-data="{&quot;endpoints&quot;:[[&quot;Point&quot;,825,425],[&quot;Point&quot;,789,404.21429]]}"/><line x1="825" y1="425" x2="845.78571" y2="388.99809" data-paper-data="{&quot;endpoints&quot;:[[&quot;Point&quot;,825,425],[&quot;Point&quot;,825,383.42857]]}"/><line x1="845.78461" y1="437" x2="824.99945" y2="449.00096" data-paper-data="{&quot;endpoints&quot;:[[&quot;Point&quot;,849,425],[&quot;Point&quot;,837,445.78571]]}"/><line x1="845.78461" y1="437" x2="804.21484" y2="437.00096" data-paper-data="{&quot;endpoints&quot;:[[&quot;Point&quot;,849,425],[&quot;Point&quot;,813,445.78571]]}"/><line x1="845.78461" y1="437" x2="804.21539" y2="413" data-paper-data="{&quot;endpoints&quot;:[[&quot;Point&quot;,849,425],[&quot;Point&quot;,801,425]]}" opacity="0"/><line x1="845.78461" y1="437" x2="825.00055" y2="400.99904" data-paper-data="{&quot;endpoints&quot;:[[&quot;Point&quot;,849,425],[&quot;Point&quot;,813,404.21429]]}"/><line x1="845.78461" y1="437" x2="845.78516" y2="412.99904" data-paper-data="{&quot;endpoints&quot;:[[&quot;Point&quot;,849,425],[&quot;Point&quot;,837,404.21429]]}"/><line x1="845.78461" y1="437" x2="845.78406" y2="461.00096" data-paper-data="{&quot;endpoints&quot;:[[&quot;Point&quot;,849,425],[&quot;Point&quot;,861,445.78571]]}"/><line x1="845.78461" y1="437" x2="866.56977" y2="424.99904" data-paper-data="{&quot;endpoints&quot;:[[&quot;Point&quot;,849,425],[&quot;Point&quot;,861,404.21429]]}"/><line x1="845.78461" y1="437" x2="804.21429" y2="461.00191" data-paper-data="{&quot;endpoints&quot;:[[&quot;Point&quot;,849,425],[&quot;Point&quot;,825,466.57143]]}" opacity="0"/><line x1="845.78461" y1="437" x2="783.43023" y2="425.00096" data-paper-data="{&quot;endpoints&quot;:[[&quot;Point&quot;,849,425],[&quot;Point&quot;,789,445.78571]]}"/><line x1="845.78461" y1="437" x2="804.21594" y2="388.99904" data-paper-data="{&quot;endpoints&quot;:[[&quot;Point&quot;,849,425],[&quot;Point&quot;,789,404.21429]]}"/><line x1="845.78461" y1="437" x2="845.78571" y2="388.99809" data-paper-data="{&quot;endpoints&quot;:[[&quot;Point&quot;,849,425],[&quot;Point&quot;,825,383.42857]]}" opacity="0"/><line x1="824.99945" y1="449.00096" x2="804.21484" y2="437.00096" data-paper-data="{&quot;endpoints&quot;:[[&quot;Point&quot;,837,445.78571],[&quot;Point&quot;,813,445.78571]]}"/><line x1="824.99945" y1="449.00096" x2="804.21539" y2="413" data-paper-data="{&quot;endpoints&quot;:[[&quot;Point&quot;,837,445.78571],[&quot;Point&quot;,801,425]]}"/><line x1="824.99945" y1="449.00096" x2="825.00055" y2="400.99904" data-paper-data="{&quot;endpoints&quot;:[[&quot;Point&quot;,837,445.78571],[&quot;Point&quot;,813,404.21429]]}" opacity="0"/><line x1="824.99945" y1="449.00096" x2="845.78516" y2="412.99904" data-paper-data="{&quot;endpoints&quot;:[[&quot;Point&quot;,837,445.78571],[&quot;Point&quot;,837,404.21429]]}"/><line x1="824.99945" y1="449.00096" x2="845.78406" y2="461.00096" data-paper-data="{&quot;endpoints&quot;:[[&quot;Point&quot;,837,445.78571],[&quot;Point&quot;,861,445.78571]]}"/><line x1="824.99945" y1="449.00096" x2="866.56977" y2="424.99904" data-paper-data="{&quot;endpoints&quot;:[[&quot;Point&quot;,837,445.78571],[&quot;Point&quot;,861,404.21429]]}" opacity="0"/><line x1="824.99945" y1="449.00096" x2="804.21429" y2="461.00191" data-paper-data="{&quot;endpoints&quot;:[[&quot;Point&quot;,837,445.78571],[&quot;Point&quot;,825,466.57143]]}"/><line x1="824.99945" y1="449.00096" x2="783.43023" y2="425.00096" data-paper-data="{&quot;endpoints&quot;:[[&quot;Point&quot;,837,445.78571],[&quot;Point&quot;,789,445.78571]]}" opacity="0"/><line x1="824.99945" y1="449.00096" x2="804.21594" y2="388.99904" data-paper-data="{&quot;endpoints&quot;:[[&quot;Point&quot;,837,445.78571],[&quot;Point&quot;,789,404.21429]]}"/><line x1="824.99945" y1="449.00096" x2="845.78571" y2="388.99809" data-paper-data="{&quot;endpoints&quot;:[[&quot;Point&quot;,837,445.78571],[&quot;Point&quot;,825,383.42857]]}"/><line x1="804.21484" y1="437.00096" x2="804.21539" y2="413" data-paper-data="{&quot;endpoints&quot;:[[&quot;Point&quot;,813,445.78571],[&quot;Point&quot;,801,425]]}"/><line x1="804.21484" y1="437.00096" x2="825.00055" y2="400.99904" data-paper-data="{&quot;endpoints&quot;:[[&quot;Point&quot;,813,445.78571],[&quot;Point&quot;,813,404.21429]]}"/><line x1="804.21484" y1="437.00096" x2="845.78516" y2="412.99904" data-paper-data="{&quot;endpoints&quot;:[[&quot;Point&quot;,813,445.78571],[&quot;Point&quot;,837,404.21429]]}" opacity="0"/><line x1="804.21484" y1="437.00096" x2="845.78406" y2="461.00096" data-paper-data="{&quot;endpoints&quot;:[[&quot;Point&quot;,813,445.78571],[&quot;Point&quot;,861,445.78571]]}" opacity="0"/><line x1="804.21484" y1="437.00096" x2="866.56977" y2="424.99904" data-paper-data="{&quot;endpoints&quot;:[[&quot;Point&quot;,813,445.78571],[&quot;Point&quot;,861,404.21429]]}"/><line x1="804.21484" y1="437.00096" x2="804.21429" y2="461.00191" data-paper-data="{&quot;endpoints&quot;:[[&quot;Point&quot;,813,445.78571],[&quot;Point&quot;,825,466.57143]]}"/><line x1="804.21484" y1="437.00096" x2="783.43023" y2="425.00096" data-paper-data="{&quot;endpoints&quot;:[[&quot;Point&quot;,813,445.78571],[&quot;Point&quot;,789,445.78571]]}"/><line x1="804.21484" y1="437.00096" x2="804.21594" y2="388.99904" data-paper-data="{&quot;endpoints&quot;:[[&quot;Point&quot;,813,445.78571],[&quot;Point&quot;,789,404.21429]]}" opacity="0"/><line x1="804.21484" y1="437.00096" x2="845.78571" y2="388.99809" data-paper-data="{&quot;endpoints&quot;:[[&quot;Point&quot;,813,445.78571],[&quot;Point&quot;,825,383.42857]]}"/><line x1="804.21539" y1="413" x2="825.00055" y2="400.99904" data-paper-data="{&quot;endpoints&quot;:[[&quot;Point&quot;,801,425],[&quot;Point&quot;,813,404.21429]]}"/><line x1="804.21539" y1="413" x2="845.78516" y2="412.99904" data-paper-data="{&quot;endpoints&quot;:[[&quot;Point&quot;,801,425],[&quot;Point&quot;,837,404.21429]]}"/><line x1="804.21539" y1="413" x2="845.78406" y2="461.00096" data-paper-data="{&quot;endpoints&quot;:[[&quot;Point&quot;,801,425],[&quot;Point&quot;,861,445.78571]]}"/><line x1="804.21539" y1="413" x2="866.56977" y2="424.99904" data-paper-data="{&quot;endpoints&quot;:[[&quot;Point&quot;,801,425],[&quot;Point&quot;,861,404.21429]]}"/><line x1="804.21539" y1="413" x2="804.21429" y2="461.00191" data-paper-data="{&quot;endpoints&quot;:[[&quot;Point&quot;,801,425],[&quot;Point&quot;,825,466.57143]]}" opacity="0"/><line x1="804.21539" y1="413" x2="783.43023" y2="425.00096" data-paper-data="{&quot;endpoints&quot;:[[&quot;Point&quot;,801,425],[&quot;Point&quot;,789,445.78571]]}"/><line x1="804.21539" y1="413" x2="804.21594" y2="388.99904" data-paper-data="{&quot;endpoints&quot;:[[&quot;Point&quot;,801,425],[&quot;Point&quot;,789,404.21429]]}"/><line x1="804.21539" y1="413" x2="845.78571" y2="388.99809" data-paper-data="{&quot;endpoints&quot;:[[&quot;Point&quot;,801,425],[&quot;Point&quot;,825,383.42857]]}" opacity="0"/><line x1="825.00055" y1="400.99904" x2="845.78516" y2="412.99904" data-paper-data="{&quot;endpoints&quot;:[[&quot;Point&quot;,813,404.21429],[&quot;Point&quot;,837,404.21429]]}"/><line x1="825.00055" y1="400.99904" x2="845.78406" y2="461.00096" data-paper-data="{&quot;endpoints&quot;:[[&quot;Point&quot;,813,404.21429],[&quot;Point&quot;,861,445.78571]]}"/><line x1="825.00055" y1="400.99904" x2="866.56977" y2="424.99904" data-paper-data="{&quot;endpoints&quot;:[[&quot;Point&quot;,813,404.21429],[&quot;Point&quot;,861,404.21429]]}" opacity="0"/><line x1="825.00055" y1="400.99904" x2="804.21429" y2="461.00191" data-paper-data="{&quot;endpoints&quot;:[[&quot;Point&quot;,813,404.21429],[&quot;Point&quot;,825,466.57143]]}"/><line x1="825.00055" y1="400.99904" x2="783.43023" y2="425.00096" data-paper-data="{&quot;endpoints&quot;:[[&quot;Point&quot;,813,404.21429],[&quot;Point&quot;,789,445.78571]]}" opacity="0"/><line x1="825.00055" y1="400.99904" x2="804.21594" y2="388.99904" data-paper-data="{&quot;endpoints&quot;:[[&quot;Point&quot;,813,404.21429],[&quot;Point&quot;,789,404.21429]]}"/><line x1="825.00055" y1="400.99904" x2="845.78571" y2="388.99809" data-paper-data="{&quot;endpoints&quot;:[[&quot;Point&quot;,813,404.21429],[&quot;Point&quot;,825,383.42857]]}"/><line x1="845.78516" y1="412.99904" x2="845.78406" y2="461.00096" data-paper-data="{&quot;endpoints&quot;:[[&quot;Point&quot;,837,404.21429],[&quot;Point&quot;,861,445.78571]]}" opacity="0"/><line x1="845.78516" y1="412.99904" x2="866.56977" y2="424.99904" data-paper-data="{&quot;endpoints&quot;:[[&quot;Point&quot;,837,404.21429],[&quot;Point&quot;,861,404.21429]]}"/><line x1="845.78516" y1="412.99904" x2="804.21429" y2="461.00191" data-paper-data="{&quot;endpoints&quot;:[[&quot;Point&quot;,837,404.21429],[&quot;Point&quot;,825,466.57143]]}"/><line x1="845.78516" y1="412.99904" x2="783.43023" y2="425.00096" data-paper-data="{&quot;endpoints&quot;:[[&quot;Point&quot;,837,404.21429],[&quot;Point&quot;,789,445.78571]]}"/><line x1="845.78516" y1="412.99904" x2="804.21594" y2="388.99904" data-paper-data="{&quot;endpoints&quot;:[[&quot;Point&quot;,837,404.21429],[&quot;Point&quot;,789,404.21429]]}" opacity="0"/><line x1="845.78516" y1="412.99904" x2="845.78571" y2="388.99809" data-paper-data="{&quot;endpoints&quot;:[[&quot;Point&quot;,837,404.21429],[&quot;Point&quot;,825,383.42857]]}"/><line x1="845.78406" y1="461.00096" x2="866.56977" y2="424.99904" data-paper-data="{&quot;endpoints&quot;:[[&quot;Point&quot;,861,445.78571],[&quot;Point&quot;,861,404.21429]]}"/><line x1="845.78406" y1="461.00096" x2="804.21429" y2="461.00191" data-paper-data="{&quot;endpoints&quot;:[[&quot;Point&quot;,861,445.78571],[&quot;Point&quot;,825,466.57143]]}"/><line x1="845.78406" y1="461.00096" x2="783.43023" y2="425.00096" data-paper-data="{&quot;endpoints&quot;:[[&quot;Point&quot;,861,445.78571],[&quot;Point&quot;,789,445.78571]]}" opacity="0"/><line x1="845.78406" y1="461.00096" x2="804.21594" y2="388.99904" data-paper-data="{&quot;endpoints&quot;:[[&quot;Point&quot;,861,445.78571],[&quot;Point&quot;,789,404.21429]]}" opacity="0"/><line x1="845.78406" y1="461.00096" x2="845.78571" y2="388.99809" data-paper-data="{&quot;endpoints&quot;:[[&quot;Point&quot;,861,445.78571],[&quot;Point&quot;,825,383.42857]]}" opacity="0"/><line x1="866.56977" y1="424.99904" x2="804.21429" y2="461.00191" data-paper-data="{&quot;endpoints&quot;:[[&quot;Point&quot;,861,404.21429],[&quot;Point&quot;,825,466.57143]]}" opacity="0"/><line x1="866.56977" y1="424.99904" x2="783.43023" y2="425.00096" data-paper-data="{&quot;endpoints&quot;:[[&quot;Point&quot;,861,404.21429],[&quot;Point&quot;,789,445.78571]]}" opacity="0"/><line x1="866.56977" y1="424.99904" x2="804.21594" y2="388.99904" data-paper-data="{&quot;endpoints&quot;:[[&quot;Point&quot;,861,404.21429],[&quot;Point&quot;,789,404.21429]]}" opacity="0"/><line x1="866.56977" y1="424.99904" x2="845.78571" y2="388.99809" data-paper-data="{&quot;endpoints&quot;:[[&quot;Point&quot;,861,404.21429],[&quot;Point&quot;,825,383.42857]]}"/><line x1="804.21429" y1="461.00191" x2="783.43023" y2="425.00096" data-paper-data="{&quot;endpoints&quot;:[[&quot;Point&quot;,825,466.57143],[&quot;Point&quot;,789,445.78571]]}"/><line x1="804.21429" y1="461.00191" x2="804.21594" y2="388.99904" data-paper-data="{&quot;endpoints&quot;:[[&quot;Point&quot;,825,466.57143],[&quot;Point&quot;,789,404.21429]]}" opacity="0"/><line x1="804.21429" y1="461.00191" x2="845.78571" y2="388.99809" data-paper-data="{&quot;endpoints&quot;:[[&quot;Point&quot;,825,466.57143],[&quot;Point&quot;,825,383.42857]]}" opacity="0"/><line x1="783.43023" y1="425.00096" x2="804.21594" y2="388.99904" data-paper-data="{&quot;endpoints&quot;:[[&quot;Point&quot;,789,445.78571],[&quot;Point&quot;,789,404.21429]]}"/><line x1="783.43023" y1="425.00096" x2="845.78571" y2="388.99809" data-paper-data="{&quot;endpoints&quot;:[[&quot;Point&quot;,789,445.78571],[&quot;Point&quot;,825,383.42857]]}" opacity="0"/><line x1="804.21594" y1="388.99904" x2="845.78571" y2="388.99809" data-paper-data="{&quot;endpoints&quot;:[[&quot;Point&quot;,789,404.21429],[&quot;Point&quot;,825,383.42857]]}"/><circle cx="932.97096" cy="-34.04635" transform="rotate(30)" r="3.21429"/><circle cx="932.97096" cy="-54.83206" transform="matrix(0.8660254037844365,0.5000000000000037,-0.5000000000000037,0.8660254037844365,0,0)" r="3.21429"/><circle cx="920.97096" cy="-34.04635" transform="rotate(30)" r="3.21429"/><circle cx="938.97096" cy="-44.4392" transform="rotate(30)" r="3.21429"/><circle cx="914.97096" cy="-44.4392" transform="matrix(0.8660254037844365,0.5000000000000037,-0.5000000000000037,0.8660254037844365,0,0)" r="3.21429"/><circle cx="920.97096" cy="-54.83206" transform="rotate(30)" r="3.21429"/><circle cx="932.97096" cy="-34.04635" transform="rotate(30)" r="12"/><circle cx="932.97096" cy="-54.83206" transform="rotate(30)" r="12"/><circle cx="920.97096" cy="-34.04635" transform="rotate(30)" r="12"/><circle cx="938.97096" cy="-44.4392" transform="rotate(30)" r="12"/><circle cx="914.97096" cy="-44.4392" transform="rotate(30)" r="12"/><circle cx="920.97096" cy="-54.83206" transform="rotate(30)" r="12"/><circle cx="938.97096" cy="-37.51063" transform="rotate(30)" r="10.14286"/><circle cx="938.97096" cy="-51.36777" transform="rotate(30)" r="10.14286"/><circle cx="926.97096" cy="-30.58206" transform="rotate(30)" r="10.14286"/><circle cx="914.97096" cy="-37.51063" transform="rotate(30)" r="10.14286"/><circle cx="914.97096" cy="-51.36777" transform="rotate(30)" r="10.14286"/><circle cx="926.97096" cy="-58.29635" transform="rotate(30)" r="10.14286"/><circle cx="938.97096" cy="-37.51063" transform="rotate(30)" r="13.85714"/><circle cx="938.97096" cy="-51.36777" transform="rotate(30)" r="13.85714"/><circle cx="926.97096" cy="-30.58206" transform="rotate(30)" r="13.85714"/><circle cx="914.97096" cy="-37.51063" transform="rotate(30)" r="13.85714"/><circle cx="914.97096" cy="-51.36777" transform="rotate(30)" r="13.85714"/><circle cx="926.97096" cy="-58.29635" transform="rotate(30)" r="13.85714"/><circle cx="938.97096" cy="-44.4392" transform="rotate(30)" r="12"/><circle cx="932.97096" cy="-34.04635" transform="rotate(30)" r="12"/><circle cx="920.97096" cy="-34.04635" transform="rotate(30)" r="12"/><circle cx="914.97096" cy="-44.4392" transform="rotate(30)" r="12"/><circle cx="920.97096" cy="-54.83206" transform="rotate(30)" r="12"/><circle cx="932.97096" cy="-54.83206" transform="rotate(30)" r="12"/><circle cx="944.97096" cy="-34.04635" transform="rotate(30)" r="12"/><circle cx="944.97096" cy="-54.83206" transform="rotate(30)" r="12"/><circle cx="926.97096" cy="-23.65349" transform="rotate(30)" r="12"/><circle cx="908.97096" cy="-34.04635" transform="rotate(30)" r="12"/><circle cx="908.97096" cy="-54.83206" transform="rotate(30)" r="12"/><circle cx="926.97096" cy="-65.22492" transform="rotate(30)" r="12"/><circle cx="938.97096" cy="-44.4392" transform="matrix(0.8660254037844373,0.5000000000000023,-0.5000000000000023,0.8660254037844373,0,0)" r="20.78571"/><circle cx="932.97096" cy="-34.04635" transform="rotate(30)" r="20.78571"/><circle cx="920.97096" cy="-34.04635" transform="rotate(30)" r="20.78571"/><circle cx="914.97096" cy="-44.4392" transform="rotate(30)" r="20.78571"/><circle cx="920.97096" cy="-54.83206" transform="matrix(0.8660254037844373,0.5000000000000023,-0.5000000000000023,0.8660254037844373,0,0)" r="20.78571"/><circle cx="932.97096" cy="-54.83206" transform="matrix(0.8660254037844373,0.5000000000000023,-0.5000000000000023,0.8660254037844373,0,0)" r="20.78571"/><circle cx="944.97096" cy="-34.04635" transform="rotate(30)" r="20.78571"/><circle cx="944.97096" cy="-54.83206" transform="matrix(0.8660254037844373,0.5000000000000023,-0.5000000000000023,0.8660254037844373,0,0)" r="20.78571"/><circle cx="926.97096" cy="-23.65349" transform="rotate(30)" r="20.78571"/><circle cx="908.97096" cy="-34.04635" transform="rotate(30)" r="20.78571"/><circle cx="908.97096" cy="-54.83206" transform="rotate(30)" r="20.78571"/><circle cx="926.97096" cy="-65.22492" transform="rotate(30)" r="20.78571"/><rect x="425" y="-825" transform="rotate(90)" width="0" height="0"/><circle cx="926.97096" cy="-44.4392" transform="rotate(30)" r="24"/><circle cx="926.97096" cy="-44.4392" transform="rotate(30)" r="24.00096"/><circle cx="926.97096" cy="-44.4392" transform="rotate(30)" r="24.00096"/><circle cx="926.97096" cy="-44.4392" transform="rotate(30)" r="24"/><circle cx="926.97096" cy="-44.4392" transform="rotate(30)" r="24.00096"/><circle cx="926.97096" cy="-44.4392" transform="rotate(30)" r="24.00096"/><circle cx="926.97096" cy="-44.4392" transform="matrix(0.8660254037844382,0.5000000000000008,-0.5000000000000008,0.8660254037844382,0,0)" r="41.56977"/><circle cx="926.97096" cy="-44.4392" transform="matrix(0.8660254037844382,0.5000000000000008,-0.5000000000000008,0.8660254037844382,0,0)" r="41.56977"/><circle cx="926.97096" cy="-44.4392" transform="matrix(0.8660254037844382,0.5000000000000008,-0.5000000000000008,0.8660254037844382,0,0)" r="41.57143"/><circle cx="926.97096" cy="-44.4392" transform="matrix(0.8660254037844382,0.5000000000000008,-0.5000000000000008,0.8660254037844382,0,0)" r="41.56977"/><circle cx="926.97096" cy="-44.4392" transform="matrix(0.8660254037844382,0.5000000000000008,-0.5000000000000008,0.8660254037844382,0,0)" r="41.56977"/><circle cx="926.97096" cy="-44.4392" transform="matrix(0.8660254037844382,0.5000000000000008,-0.5000000000000008,0.8660254037844382,0,0)" r="41.57143"/></g></g></svg>