<svg x="0" y="0" width="3300" height="2550" version="1.1" xmlns="http://www.w3.org/2000/svg" xmlns:xlink="http://www.w3.org/1999/xlink"><g fill="none" stroke="none" stroke-width="none" stroke-linecap="none" stroke-linejoin="miter" stroke-miterlimit="10" stroke-dasharray="none" stroke-dashoffset="0" font-family="none" font-weight="none" font-size="none" text-anchor="start" mix-blend-mode="normal"><polygon points="0,850 0,0 825,0 825,850" stroke="#000000" stroke-width="1" stroke-linecap="butt" stroke-dasharray="1,4" font-family="sans-serif" font-weight="normal" font-size="12"/><text x="87.85714" y="157.42857" fill="#000000" stroke-width="1" stroke-linecap="butt" stroke-dasharray="" font-family="Times" font-weight="bold" font-size="120">0</text><path d="M212.5,425c0,-110.45695 89.54305,-200 200,-200c110.45695,0 200,89.54305 200,200c0,110.45695 -89.54305,200 -200,200c-110.45695,0 -200,-89.54305 -200,-200z" stroke="#000000" stroke-width="1" stroke-linecap="butt" stroke-dasharray="1,2" font-family="sans-serif" font-weight="normal" font-size="12"/><polygon points="825,850 825,0 1650,0 1650,850" stroke="#000000" stroke-width="1" stroke-linecap="butt" stroke-dasharray="1,4" font-family="sans-serif" font-weight="normal" font-size="12"/><text x="912.85714" y="157.42857" fill="#000000" stroke-width="1" stroke-linecap="butt" stroke-dasharray="" font-family="Times" font-weight="bold" font-size="120">1</text><path d="M1037.5,425c0,-110.45695 89.54305,-200 200,-200c110.45695,0 200,89.54305 200,200c0,110.45695 -89.54305,200 -200,200c-110.45695,0 -200,-89.54305 -200,-200z" stroke="#000000" stroke-width="1" stroke-linecap="butt" stroke-dasharray="1,2" font-family="sans-serif" font-weight="normal" font-size="12"/><path d="M1213.5,225c0,-13.25483 10.74517,-24 24,-24c13.25483,0 24,10.74517 24,24c0,13.25483 -10.74517,24 -24,24c-13.25483,0 -24,-10.74517 -24,-24z" fill="#000000" stroke-width="1" stroke-linecap="butt" stroke-dasharray="" font-family="sans-serif" font-weight="normal" font-size="12"/><polygon points="1650,850 1650,0 2475,0 2475,850" stroke="#000000" stroke-width="1" stroke-linecap="butt" stroke-dasharray="1,4" font-family="sans-serif" font-weight="normal" font-size="12"/><text x="1737.85714" y="157.42857" fill="#000000" stroke-width="1" stroke-linecap="butt" stroke-dasharray="" font-family="Times" font-weight="bold" font-size="120">2</text><path d="M1862.5,425c0,-110.45695 89.54305,-200 200,-200c110.45695,0 200,89.54305 200,200c0,110.45695 -89.54305,200 -200,200c-110.45695,0 -200,-89.54305 -200,-200z" stroke="#000000" stroke-width="1" stroke-linecap="butt" stroke-dasharray="1,2" font-family="sans-serif" font-weight="normal" font-size="12"/><path d="M2038.5,225c0,-13.25483 10.74517,-24 24,-24c13.25483,0 24,10.74517 24,24c0,13.25483 -10.74517,24 -24,24c-13.25483,0 -24,-10.74517 -24,-24z" fill="#000000" stroke-width="1" stroke-linecap="butt" stroke-dasharray="" font-family="sans-serif" font-weight="normal" font-size="12"/><path d="M2038.5,625c0,-13.25483 10.74517,-24 24,-24c13.25483,0 24,10.74517 24,24c0,13.25483 -10.74517,24 -24,24c-13.25483,0 -24,-10.74517 -24,-24z" fill="#000000" stroke-width="1" stroke-linecap="butt" stroke-dasharray="" font-family="sans-serif" font-weight="normal" font-size="12"/><g stroke="#000000" stroke-width="2" stroke-linecap="round" stroke-dasharray="" font-family="sans-serif" font-weight="normal" font-size="12"><line x1="2062.5" y1="225" x2="2062.5" y2="625"/></g><g stroke="#000000" stroke-width="2" stroke-linecap="round" stroke-dasharray="" font-family="sans-serif" font-weight="normal" font-size="12"><line x1="2357.14286" y1="71.42857" x2="2357.14286" y2="171.42857"/></g><polygon points="2475,850 2475,0 3300,0 3300,850" stroke="#000000" stroke-width="1" stroke-linecap="butt" stroke-dasharray="1,4" font-family="sans-serif" font-weight="normal" font-size="12"/><text x="2562.85714" y="157.42857" fill="#000000" stroke-width="1" stroke-linecap="butt" stroke-dasharray="" font-family="Times" font-weight="bold" font-size="120">3</text><path d="M2687.5,425c0,-110.45695 89.54305,-200 200,-200c110.45695,0 200,89.54305 200,200c0,110.45695 -89.54305,200 -200,200c-110.45695,0 -200,-89.54305 -200,-200z" stroke="#000000" stroke-width="1" stroke-linecap="butt" stroke-dasharray="1,2" font-family="sans-serif" font-weight="normal" font-size="12"/><path d="M2863.5,225c0,-13.25483 10.74517,-24 24,-24c13.25483,0 24,10.74517 24,24c0,13.25483 -10.74517,24 -24,24c-13.25483,0 -24,-10.74517 -24,-24z" fill="#000000" stroke-width="1" stroke-linecap="butt" stroke-dasharray="" font-family="sans-serif" font-weight="normal" font-size="12"/><path d="M3036.70508,525c0,-13.25483 10.74517,-24 24,-24c13.25483,0 24,10.74517 24,24c0,13.25483 -10.74517,24 -24,24c-13.25483,0 -24,-10.74517 -24,-24z" fill="#000000" stroke-width="1" stroke-linecap="butt" stroke-dasharray="" font-family="sans-serif" font-weight="normal" font-size="12"/><path d="M2690.29492,525c0,-13.25483 10.74517,-24 24,-24c13.25483,0 24,10.74517 24,24c0,13.25483 -10.74517,24 -24,24c-13.25483,0 -24,-10.74517 -24,-24z" fill="#000000" stroke-width="1" stroke-linecap="butt" stroke-dasharray="" font-family="sans-serif" font-weight="normal" font-size="12"/><g stroke="#000000" stroke-width="2" stroke-linecap="round" stroke-dasharray="" font-family="sans-serif" font-weight="normal" font-size="12"><line x1="2887.5" y1="225" x2="3060.70508" y2="525"/><line x1="2887.5" y1="225" x2="2714.29492" y2="525"/><line x1="3060.70508" y1="525" x2="2714.29492" y2="525"/></g><g stroke="#000000" stroke-width="2" stroke-linecap="round" stroke-dasharray="" font-family="sans-serif" font-weight="normal" font-size="12"><line x1="3182.14286" y1="83.92857" x2="3225.44413" y2="158.92857"/><line x1="3182.14286" y1="83.92857" x2="3138.84159" y2="158.92857"/><line x1="3225.44413" y1="158.92857" x2="3138.84159" y2="158.92857"/></g><polygon points="0,1700 0,850 825,850 825,1700" stroke="#000000" stroke-width="1" stroke-linecap="butt" stroke-dasharray="1,4" font-family="sans-serif" font-weight="normal" font-size="12"/><text x="87.85714" y="1007.42857" fill="#000000" stroke-width="1" stroke-linecap="butt" stroke-dasharray="" font-family="Times" font-weight="bold" font-size="120">4</text><path d="M212.5,1275c0,-110.45695 89.54305,-200 200,-200c110.45695,0 200,89.54305 200,200c0,110.45695 -89.54305,200 -200,200c-110.45695,0 -200,-89.54305 -200,-200z" stroke="#000000" stroke-width="1" stroke-linecap="butt" stroke-dasharray="1,2" font-family="sans-serif" font-weight="normal" font-size="12"/><path d="M388.5,1075c0,-13.25483 10.74517,-24 24,-24c13.25483,0 24,10.74517 24,24c0,13.25483 -10.74517,24 -24,24c-13.25483,0 -24,-10.74517 -24,-24z" fill="#000000" stroke-width="1" stroke-linecap="butt" stroke-dasharray="" font-family="sans-serif" font-weight="normal" font-size="12"/><path d="M588.5,1275c0,-13.25483 10.74517,-24 24,-24c13.25483,0 24,10.74517 24,24c0,13.25483 -10.74517,24 -24,24c-13.25483,0 -24,-10.74517 -24,-24z" fill="#000000" stroke-width="1" stroke-linecap="butt" stroke-dasharray="" font-family="sans-serif" font-weight="normal" font-size="12"/><path d="M388.5,1475c0,-13.25483 10.74517,-24 24,-24c13.25483,0 24,10.74517 24,24c0,13.25483 -10.74517,24 -24,24c-13.25483,0 -24,-10.74517 -24,-24z" fill="#000000" stroke-width="1" stroke-linecap="butt" stroke-dasharray="" font-family="sans-serif" font-weight="normal" font-size="12"/><path d="M188.5,1275c0,-13.25483 10.74517,-24 24,-24c13.25483,0 24,10.74517 24,24c0,13.25483 -10.74517,24 -24,24c-13.25483,0 -24,-10.74517 -24,-24z" fill="#000000" stroke-width="1" stroke-linecap="butt" stroke-dasharray="" font-family="sans-serif" font-weight="normal" font-size="12"/><g stroke="#000000" stroke-width="2" stroke-linecap="round" stroke-dasharray="" font-family="sans-serif" font-weight="normal" font-size="12"><line x1="412.5" y1="1075" x2="612.5" y2="1275"/><line x1="412.5" y1="1075" x2="212.5" y2="1275"/><line x1="612.5" y1="1275" x2="412.5" y2="1475"/><line x1="412.5" y1="1475" x2="212.5" y2="1275"/></g><g stroke="#000000" stroke-width="2" stroke-linecap="round" stroke-dasharray="" font-family="sans-serif" font-weight="normal" font-size="12"><line x1="707.14286" y1="921.42857" x2="757.14286" y2="971.42857"/><line x1="707.14286" y1="921.42857" x2="657.14286" y2="971.42857"/><line x1="757.14286" y1="971.42857" x2="707.14286" y2="1021.42857"/><line x1="707.14286" y1="1021.42857" x2="657.14286" y2="971.42857"/></g><g stroke="#000000" stroke-width="2" stroke-linecap="round" stroke-dasharray="" font-family="sans-serif" font-weight="normal" font-size="12"><line x1="412.5" y1="1075" x2="412.5" y2="1475"/><line x1="612.5" y1="1275" x2="212.5" y2="1275"/></g><g stroke="#000000" stroke-width="2" stroke-linecap="round" stroke-dasharray="" font-family="sans-serif" font-weight="normal" font-size="12"><line x1="707.14286" y1="1073.21429" x2="707.14286" y2="1173.21429"/><line x1="757.14286" y1="1123.21429" x2="657.14286" y2="1123.21429"/></g><polygon points="825,1700 825,850 1650,850 1650,1700" stroke="#000000" stroke-width="1" stroke-linecap="butt" stroke-dasharray="1,4" font-family="sans-serif" font-weight="normal" font-size="12"/><text x="912.85714" y="1007.42857" fill="#000000" stroke-width="1" stroke-linecap="butt" stroke-dasharray="" font-family="Times" font-weight="bold" font-size="120">5</text><path d="M1037.5,1275c0,-110.45695 89.54305,-200 200,-200c110.45695,0 200,89.54305 200,200c0,110.45695 -89.54305,200 -200,200c-110.45695,0 -200,-89.54305 -200,-200z" stroke="#000000" stroke-width="1" stroke-linecap="butt" stroke-dasharray="1,2" font-family="sans-serif" font-weight="normal" font-size="12"/><path d="M1213.5,1075c0,-13.25483 10.74517,-24 24,-24c13.25483,0 24,10.74517 24,24c0,13.25483 -10.74517,24 -24,24c-13.25483,0 -24,-10.74517 -24,-24z" fill="#000000" stroke-width="1" stroke-linecap="butt" stroke-dasharray="" font-family="sans-serif" font-weight="normal" font-size="12"/><path d="M1403.7113,1213.1966c0,-13.25483 10.74517,-24 24,-24c13.25483,0 24,10.74517 24,24c0,13.25483 -10.74517,24 -24,24c-13.25483,0 -24,-10.74517 -24,-24z" fill="#000000" stroke-width="1" stroke-linecap="butt" stroke-dasharray="" font-family="sans-serif" font-weight="normal" font-size="12"/><path d="M1331.05705,1436.8034c0,-13.25483 10.74517,-24 24,-24c13.25483,0 24,10.74517 24,24c0,13.25483 -10.74517,24 -24,24c-13.25483,0 -24,-10.74517 -24,-24z" fill="#000000" stroke-width="1" stroke-linecap="butt" stroke-dasharray="" font-family="sans-serif" font-weight="normal" font-size="12"/><path d="M1095.94295,1436.8034c0,-13.25483 10.74517,-24 24,-24c13.25483,0 24,10.74517 24,24c0,13.25483 -10.74517,24 -24,24c-13.25483,0 -24,-10.74517 -24,-24z" fill="#000000" stroke-width="1" stroke-linecap="butt" stroke-dasharray="" font-family="sans-serif" font-weight="normal" font-size="12"/><path d="M1023.2887,1213.1966c0,-13.25483 10.74517,-24 24,-24c13.25483,0 24,10.74517 24,24c0,13.25483 -10.74517,24 -24,24c-13.25483,0 -24,-10.74517 -24,-24z" fill="#000000" stroke-width="1" stroke-linecap="butt" stroke-dasharray="" font-family="sans-serif" font-weight="normal" font-size="12"/><g stroke="#000000" stroke-width="2" stroke-linecap="round" stroke-dasharray="" font-family="sans-serif" font-weight="normal" font-size="12"><line x1="1237.5" y1="1075" x2="1427.7113" y2="1213.1966"/><line x1="1237.5" y1="1075" x2="1047.2887" y2="1213.1966"/><line x1="1427.7113" y1="1213.1966" x2="1355.05705" y2="1436.8034"/><line x1="1355.05705" y1="1436.8034" x2="1119.94295" y2="1436.8034"/><line x1="1119.94295" y1="1436.8034" x2="1047.2887" y2="1213.1966"/></g><g stroke="#000000" stroke-width="2" stroke-linecap="round" stroke-dasharray="" font-family="sans-serif" font-weight="normal" font-size="12"><line x1="1532.14286" y1="926.20315" x2="1579.69568" y2="960.7523"/><line x1="1532.14286" y1="926.20315" x2="1484.59003" y2="960.7523"/><line x1="1579.69568" y1="960.7523" x2="1561.53212" y2="1016.654"/><line x1="1561.53212" y1="1016.654" x2="1502.75359" y2="1016.654"/><line x1="1502.75359" y1="1016.654" x2="1484.59003" y2="960.7523"/></g><g stroke="#000000" stroke-width="2" stroke-linecap="round" stroke-dasharray="" font-family="sans-serif" font-weight="normal" font-size="12"><line x1="1237.5" y1="1075" x2="1355.05705" y2="1436.8034"/><line x1="1237.5" y1="1075" x2="1119.94295" y2="1436.8034"/><line x1="1427.7113" y1="1213.1966" x2="1119.94295" y2="1436.8034"/><line x1="1427.7113" y1="1213.1966" x2="1047.2887" y2="1213.1966"/><line x1="1355.05705" y1="1436.8034" x2="1047.2887" y2="1213.1966"/></g><g stroke="#000000" stroke-width="2" stroke-linecap="round" stroke-dasharray="" font-family="sans-serif" font-weight="normal" font-size="12"><line x1="1532.14286" y1="1077.98886" x2="1561.53212" y2="1168.43971"/><line x1="1532.14286" y1="1077.98886" x2="1502.75359" y2="1168.43971"/><line x1="1579.69568" y1="1112.53801" x2="1502.75359" y2="1168.43971"/><line x1="1579.69568" y1="1112.53801" x2="1484.59003" y2="1112.53801"/><line x1="1561.53212" y1="1168.43971" x2="1484.59003" y2="1112.53801"/></g><polygon points="1650,1700 1650,850 2475,850 2475,1700" stroke="#000000" stroke-width="1" stroke-linecap="butt" stroke-dasharray="1,4" font-family="sans-serif" font-weight="normal" font-size="12"/><text x="1737.85714" y="1007.42857" fill="#000000" stroke-width="1" stroke-linecap="butt" stroke-dasharray="" font-family="Times" font-weight="bold" font-size="120">6</text><path d="M1862.5,1275c0,-110.45695 89.54305,-200 200,-200c110.45695,0 200,89.54305 200,200c0,110.45695 -89.54305,200 -200,200c-110.45695,0 -200,-89.54305 -200,-200z" stroke="#000000" stroke-width="1" stroke-linecap="butt" stroke-dasharray="1,2" font-family="sans-serif" font-weight="normal" font-size="12"/><path d="M2038.5,1075c0,-13.25483 10.74517,-24 24,-24c13.25483,0 24,10.74517 24,24c0,13.25483 -10.74517,24 -24,24c-13.25483,0 -24,-10.74517 -24,-24z" fill="#000000" stroke-width="1" stroke-linecap="butt" stroke-dasharray="" font-family="sans-serif" font-weight="normal" font-size="12"/><path d="M2211.70508,1175c0,-13.25483 10.74517,-24 24,-24c13.25483,0 24,10.74517 24,24c0,13.25483 -10.74517,24 -24,24c-13.25483,0 -24,-10.74517 -24,-24z" fill="#000000" stroke-width="1" stroke-linecap="butt" stroke-dasharray="" font-family="sans-serif" font-weight="normal" font-size="12"/><path d="M2211.70508,1375c0,-13.25483 10.74517,-24 24,-24c13.25483,0 24,10.74517 24,24c0,13.25483 -10.74517,24 -24,24c-13.25483,0 -24,-10.74517 -24,-24z" fill="#000000" stroke-width="1" stroke-linecap="butt" stroke-dasharray="" font-family="sans-serif" font-weight="normal" font-size="12"/><path d="M2038.5,1475c0,-13.25483 10.74517,-24 24,-24c13.25483,0 24,10.74517 24,24c0,13.25483 -10.74517,24 -24,24c-13.25483,0 -24,-10.74517 -24,-24z" fill="#000000" stroke-width="1" stroke-linecap="butt" stroke-dasharray="" font-family="sans-serif" font-weight="normal" font-size="12"/><path d="M1865.29492,1375c0,-13.25483 10.74517,-24 24,-24c13.25483,0 24,10.74517 24,24c0,13.25483 -10.74517,24 -24,24c-13.25483,0 -24,-10.74517 -24,-24z" fill="#000000" stroke-width="1" stroke-linecap="butt" stroke-dasharray="" font-family="sans-serif" font-weight="normal" font-size="12"/><path d="M1865.29492,1175c0,-13.25483 10.74517,-24 24,-24c13.25483,0 24,10.74517 24,24c0,13.25483 -10.74517,24 -24,24c-13.25483,0 -24,-10.74517 -24,-24z" fill="#000000" stroke-width="1" stroke-linecap="butt" stroke-dasharray="" font-family="sans-serif" font-weight="normal" font-size="12"/><g stroke="#000000" stroke-width="2" stroke-linecap="round" stroke-dasharray="" font-family="sans-serif" font-weight="normal" font-size="12"><line x1="2062.5" y1="1075" x2="2235.70508" y2="1175"/><line x1="2062.5" y1="1075" x2="1889.29492" y2="1175"/><line x1="2235.70508" y1="1175" x2="2235.70508" y2="1375"/><line x1="2235.70508" y1="1375" x2="2062.5" y2="1475"/><line x1="2062.5" y1="1475" x2="1889.29492" y2="1375"/><line x1="1889.29492" y1="1375" x2="1889.29492" y2="1175"/></g><g stroke="#000000" stroke-width="2" stroke-linecap="round" stroke-dasharray="" font-family="sans-serif" font-weight="normal" font-size="12"><line x1="2357.14286" y1="921.42857" x2="2400.44413" y2="946.42857"/><line x1="2357.14286" y1="921.42857" x2="2313.84159" y2="946.42857"/><line x1="2400.44413" y1="946.42857" x2="2400.44413" y2="996.42857"/><line x1="2400.44413" y1="996.42857" x2="2357.14286" y2="1021.42857"/><line x1="2357.14286" y1="1021.42857" x2="2313.84159" y2="996.42857"/><line x1="2313.84159" y1="996.42857" x2="2313.84159" y2="946.42857"/></g><g stroke="#000000" stroke-width="2" stroke-linecap="round" stroke-dasharray="" font-family="sans-serif" font-weight="normal" font-size="12"><line x1="2062.5" y1="1075" x2="2235.70508" y2="1375"/><line x1="2062.5" y1="1075" x2="1889.29492" y2="1375"/><line x1="2235.70508" y1="1175" x2="2062.5" y2="1475"/><line x1="2235.70508" y1="1175" x2="1889.29492" y2="1175"/><line x1="2235.70508" y1="1375" x2="1889.29492" y2="1375"/><line x1="2062.5" y1="1475" x2="1889.29492" y2="1175"/></g><g stroke="#000000" stroke-width="2" stroke-linecap="round" stroke-dasharray="" font-family="sans-serif" font-weight="normal" font-size="12"><line x1="2357.14286" y1="1073.21429" x2="2400.44413" y2="1148.21429"/><line x1="2357.14286" y1="1073.21429" x2="2313.84159" y2="1148.21429"/><line x1="2400.44413" y1="1098.21429" x2="2357.14286" y2="1173.21429"/><line x1="2400.44413" y1="1098.21429" x2="2313.84159" y2="1098.21429"/><line x1="2400.44413" y1="1148.21429" x2="2313.84159" y2="1148.21429"/><line x1="2357.14286" y1="1173.21429" x2="2313.84159" y2="1098.21429"/></g><g stroke="#000000" stroke-width="2" stroke-linecap="round" stroke-dasharray="" font-family="sans-serif" font-weight="normal" font-size="12"><line x1="2062.5" y1="1075" x2="2062.5" y2="1475"/><line x1="2235.70508" y1="1175" x2="1889.29492" y2="1375"/><line x1="2235.70508" y1="1375" x2="1889.29492" y2="1175"/></g><g stroke="#000000" stroke-width="2" stroke-linecap="round" stroke-dasharray="" font-family="sans-serif" font-weight="normal" font-size="12"><line x1="2357.14286" y1="1225" x2="2357.14286" y2="1325"/><line x1="2400.44413" y1="1250" x2="2313.84159" y2="1300"/><line x1="2400.44413" y1="1300" x2="2313.84159" y2="1250"/></g><polygon points="2475,1700 2475,850 3300,850 3300,1700" stroke="#000000" stroke-width="1" stroke-linecap="butt" stroke-dasharray="1,4" font-family="sans-serif" font-weight="normal" font-size="12"/><text x="2562.85714" y="1007.42857" fill="#000000" stroke-width="1" stroke-linecap="butt" stroke-dasharray="" font-family="Times" font-weight="bold" font-size="120">7</text><path d="M2687.5,1275c0,-110.45695 89.54305,-200 200,-200c110.45695,0 200,89.54305 200,200c0,110.45695 -89.54305,200 -200,200c-110.45695,0 -200,-89.54305 -200,-200z" stroke="#000000" stroke-width="1" stroke-linecap="butt" stroke-dasharray="1,2" font-family="sans-serif" font-weight="normal" font-size="12"/><path d="M2863.5,1075c0,-13.25483 10.74517,-24 24,-24c13.25483,0 24,10.74517 24,24c0,13.25483 -10.74517,24 -24,24c-13.25483,0 -24,-10.74517 -24,-24z" fill="#000000" stroke-width="1" stroke-linecap="butt" stroke-dasharray="" font-family="sans-serif" font-weight="normal" font-size="12"/><path d="M3019.8663,1150.30204c0,-13.25483 10.74517,-24 24,-24c13.25483,0 24,10.74517 24,24c0,13.25483 -10.74517,24 -24,24c-13.25483,0 -24,-10.74517 -24,-24z" fill="#000000" stroke-width="1" stroke-linecap="butt" stroke-dasharray="" font-family="sans-serif" font-weight="normal" font-size="12"/><path d="M3058.48558,1319.50419c0,-13.25483 10.74517,-24 24,-24c13.25483,0 24,10.74517 24,24c0,13.25483 -10.74517,24 -24,24c-13.25483,0 -24,-10.74517 -24,-24z" fill="#000000" stroke-width="1" stroke-linecap="butt" stroke-dasharray="" font-family="sans-serif" font-weight="normal" font-size="12"/><path d="M2950.27675,1455.19377c0,-13.25483 10.74517,-24 24,-24c13.25483,0 24,10.74517 24,24c0,13.25483 -10.74517,24 -24,24c-13.25483,0 -24,-10.74517 -24,-24z" fill="#000000" stroke-width="1" stroke-linecap="butt" stroke-dasharray="" font-family="sans-serif" font-weight="normal" font-size="12"/><path d="M2776.72325,1455.19377c0,-13.25483 10.74517,-24 24,-24c13.25483,0 24,10.74517 24,24c0,13.25483 -10.74517,24 -24,24c-13.25483,0 -24,-10.74517 -24,-24z" fill="#000000" stroke-width="1" stroke-linecap="butt" stroke-dasharray="" font-family="sans-serif" font-weight="normal" font-size="12"/><path d="M2668.51442,1319.50419c0,-13.25483 10.74517,-24 24,-24c13.25483,0 24,10.74517 24,24c0,13.25483 -10.74517,24 -24,24c-13.25483,0 -24,-10.74517 -24,-24z" fill="#000000" stroke-width="1" stroke-linecap="butt" stroke-dasharray="" font-family="sans-serif" font-weight="normal" font-size="12"/><path d="M2707.1337,1150.30204c0,-13.25483 10.74517,-24 24,-24c13.25483,0 24,10.74517 24,24c0,13.25483 -10.74517,24 -24,24c-13.25483,0 -24,-10.74517 -24,-24z" fill="#000000" stroke-width="1" stroke-linecap="butt" stroke-dasharray="" font-family="sans-serif" font-weight="normal" font-size="12"/><g stroke="#000000" stroke-width="2" stroke-linecap="round" stroke-dasharray="" font-family="sans-serif" font-weight="normal" font-size="12"><line x1="2887.5" y1="1075" x2="3043.8663" y2="1150.30204"/><line x1="2887.5" y1="1075" x2="2731.1337" y2="1150.30204"/><line x1="3043.8663" y1="1150.30204" x2="3082.48558" y2="1319.50419"/><line x1="3082.48558" y1="1319.50419" x2="2974.27675" y2="1455.19377"/><line x1="2974.27675" y1="1455.19377" x2="2800.72325" y2="1455.19377"/><line x1="2800.72325" y1="1455.19377" x2="2692.51442" y2="1319.50419"/><line x1="2692.51442" y1="1319.50419" x2="2731.1337" y2="1150.30204"/></g><g stroke="#000000" stroke-width="2" stroke-linecap="round" stroke-dasharray="" font-family="sans-serif" font-weight="normal" font-size="12"><line x1="3182.14286" y1="923.90435" x2="3221.23443" y2="942.72986"/><line x1="3182.14286" y1="923.90435" x2="3143.05128" y2="942.72986"/><line x1="3221.23443" y1="942.72986" x2="3230.88925" y2="985.0304"/><line x1="3230.88925" y1="985.0304" x2="3203.83704" y2="1018.95279"/><line x1="3203.83704" y1="1018.95279" x2="3160.44867" y2="1018.95279"/><line x1="3160.44867" y1="1018.95279" x2="3133.39646" y2="985.0304"/><line x1="3133.39646" y1="985.0304" x2="3143.05128" y2="942.72986"/></g><g stroke="#000000" stroke-width="2" stroke-linecap="round" stroke-dasharray="" font-family="sans-serif" font-weight="normal" font-size="12"><line x1="2887.5" y1="1075" x2="3082.48558" y2="1319.50419"/><line x1="2887.5" y1="1075" x2="2692.51442" y2="1319.50419"/><line x1="3043.8663" y1="1150.30204" x2="2974.27675" y2="1455.19377"/><line x1="3043.8663" y1="1150.30204" x2="2731.1337" y2="1150.30204"/><line x1="3082.48558" y1="1319.50419" x2="2800.72325" y2="1455.19377"/><line x1="2974.27675" y1="1455.19377" x2="2692.51442" y2="1319.50419"/><line x1="2800.72325" y1="1455.19377" x2="2731.1337" y2="1150.30204"/></g><g stroke="#000000" stroke-width="2" stroke-linecap="round" stroke-dasharray="" font-family="sans-serif" font-weight="normal" font-size="12"><line x1="3182.14286" y1="1075.69006" x2="3230.88925" y2="1136.81611"/><line x1="3182.14286" y1="1075.69006" x2="3133.39646" y2="1136.81611"/><line x1="3221.23443" y1="1094.51557" x2="3203.83704" y2="1170.73851"/><line x1="3221.23443" y1="1094.51557" x2="3143.05128" y2="1094.51557"/><line x1="3230.88925" y1="1136.81611" x2="3160.44867" y2="1170.73851"/><line x1="3203.83704" y1="1170.73851" x2="3133.39646" y2="1136.81611"/><line x1="3160.44867" y1="1170.73851" x2="3143.05128" y2="1094.51557"/></g><g stroke="#000000" stroke-width="2" stroke-linecap="round" stroke-dasharray="" font-family="sans-serif" font-weight="normal" font-size="12"><line x1="2887.5" y1="1075" x2="2974.27675" y2="1455.19377"/><line x1="2887.5" y1="1075" x2="2800.72325" y2="1455.19377"/><line x1="3043.8663" y1="1150.30204" x2="2800.72325" y2="1455.19377"/><line x1="3043.8663" y1="1150.30204" x2="2692.51442" y2="1319.50419"/><line x1="3082.48558" y1="1319.50419" x2="2692.51442" y2="1319.50419"/><line x1="3082.48558" y1="1319.50419" x2="2731.1337" y2="1150.30204"/><line x1="2974.27675" y1="1455.19377" x2="2731.1337" y2="1150.30204"/></g><g stroke="#000000" stroke-width="2" stroke-linecap="round" stroke-dasharray="" font-family="sans-serif" font-weight="normal" font-size="12"><line x1="3182.14286" y1="1227.47578" x2="3203.83704" y2="1322.52422"/><line x1="3182.14286" y1="1227.47578" x2="3160.44867" y2="1322.52422"/><line x1="3221.23443" y1="1246.30129" x2="3160.44867" y2="1322.52422"/><line x1="3221.23443" y1="1246.30129" x2="3133.39646" y2="1288.60183"/><line x1="3230.88925" y1="1288.60183" x2="3133.39646" y2="1288.60183"/><line x1="3230.88925" y1="1288.60183" x2="3143.05128" y2="1246.30129"/><line x1="3203.83704" y1="1322.52422" x2="3143.05128" y2="1246.30129"/></g><polygon points="0,2550 0,1700 825,1700 825,2550" stroke="#000000" stroke-width="1" stroke-linecap="butt" stroke-dasharray="1,4" font-family="sans-serif" font-weight="normal" font-size="12"/><text x="87.85714" y="1857.42857" fill="#000000" stroke-width="1" stroke-linecap="butt" stroke-dasharray="" font-family="Times" font-weight="bold" font-size="120">8</text><path d="M212.5,2125c0,-110.45695 89.54305,-200 200,-200c110.45695,0 200,89.54305 200,200c0,110.45695 -89.54305,200 -200,200c-110.45695,0 -200,-89.54305 -200,-200z" stroke="#000000" stroke-width="1" stroke-linecap="butt" stroke-dasharray="1,2" font-family="sans-serif" font-weight="normal" font-size="12"/><path d="M388.5,1925c0,-13.25483 10.74517,-24 24,-24c13.25483,0 24,10.74517 24,24c0,13.25483 -10.74517,24 -24,24c-13.25483,0 -24,-10.74517 -24,-24z" fill="#000000" stroke-width="1" stroke-linecap="butt" stroke-dasharray="" font-family="sans-serif" font-weight="normal" font-size="12"/><path d="M529.92136,1983.57864c0,-13.25483 10.74517,-24 24,-24c13.25483,0 24,10.74517 24,24c0,13.25483 -10.74517,24 -24,24c-13.25483,0 -24,-10.74517 -24,-24z" fill="#000000" stroke-width="1" stroke-linecap="butt" stroke-dasharray="" font-family="sans-serif" font-weight="normal" font-size="12"/><path d="M588.5,2125c0,-13.25483 10.74517,-24 24,-24c13.25483,0 24,10.74517 24,24c0,13.25483 -10.74517,24 -24,24c-13.25483,0 -24,-10.74517 -24,-24z" fill="#000000" stroke-width="1" stroke-linecap="butt" stroke-dasharray="" font-family="sans-serif" font-weight="normal" font-size="12"/><path d="M529.92136,2266.42136c0,-13.25483 10.74517,-24 24,-24c13.25483,0 24,10.74517 24,24c0,13.25483 -10.74517,24 -24,24c-13.25483,0 -24,-10.74517 -24,-24z" fill="#000000" stroke-width="1" stroke-linecap="butt" stroke-dasharray="" font-family="sans-serif" font-weight="normal" font-size="12"/><path d="M388.5,2325c0,-13.25483 10.74517,-24 24,-24c13.25483,0 24,10.74517 24,24c0,13.25483 -10.74517,24 -24,24c-13.25483,0 -24,-10.74517 -24,-24z" fill="#000000" stroke-width="1" stroke-linecap="butt" stroke-dasharray="" font-family="sans-serif" font-weight="normal" font-size="12"/><path d="M247.07864,2266.42136c0,-13.25483 10.74517,-24 24,-24c13.25483,0 24,10.74517 24,24c0,13.25483 -10.74517,24 -24,24c-13.25483,0 -24,-10.74517 -24,-24z" fill="#000000" stroke-width="1" stroke-linecap="butt" stroke-dasharray="" font-family="sans-serif" font-weight="normal" font-size="12"/><path d="M188.5,2125c0,-13.25483 10.74517,-24 24,-24c13.25483,0 24,10.74517 24,24c0,13.25483 -10.74517,24 -24,24c-13.25483,0 -24,-10.74517 -24,-24z" fill="#000000" stroke-width="1" stroke-linecap="butt" stroke-dasharray="" font-family="sans-serif" font-weight="normal" font-size="12"/><path d="M247.07864,1983.57864c0,-13.25483 10.74517,-24 24,-24c13.25483,0 24,10.74517 24,24c0,13.25483 -10.74517,24 -24,24c-13.25483,0 -24,-10.74517 -24,-24z" fill="#000000" stroke-width="1" stroke-linecap="butt" stroke-dasharray="" font-family="sans-serif" font-weight="normal" font-size="12"/><g stroke="#000000" stroke-width="2" stroke-linecap="round" stroke-dasharray="" font-family="sans-serif" font-weight="normal" font-size="12"><line x1="412.5" y1="1925" x2="553.92136" y2="1983.57864"/><line x1="412.5" y1="1925" x2="271.07864" y2="1983.57864"/><line x1="553.92136" y1="1983.57864" x2="612.5" y2="2125"/><line x1="612.5" y1="2125" x2="553.92136" y2="2266.42136"/><line x1="553.92136" y1="2266.42136" x2="412.5" y2="2325"/><line x1="412.5" y1="2325" x2="271.07864" y2="2266.42136"/><line x1="271.07864" y1="2266.42136" x2="212.5" y2="2125"/><line x1="212.5" y1="2125" x2="271.07864" y2="1983.57864"/></g><g stroke="#000000" stroke-width="2" stroke-linecap="round" stroke-dasharray="" font-family="sans-serif" font-weight="normal" font-size="12"><line x1="707.14286" y1="1771.42857" x2="742.4982" y2="1786.07323"/><line x1="707.14286" y1="1771.42857" x2="671.78752" y2="1786.07323"/><line x1="742.4982" y1="1786.07323" x2="757.14286" y2="1821.42857"/><line x1="757.14286" y1="1821.42857" x2="742.4982" y2="1856.78391"/><line x1="742.4982" y1="1856.78391" x2="707.14286" y2="1871.42857"/><line x1="707.14286" y1="1871.42857" x2="671.78752" y2="1856.78391"/><line x1="671.78752" y1="1856.78391" x2="657.14286" y2="1821.42857"/><line x1="657.14286" y1="1821.42857" x2="671.78752" y2="1786.07323"/></g><g stroke="#000000" stroke-width="2" stroke-linecap="round" stroke-dasharray="" font-family="sans-serif" font-weight="normal" font-size="12"><line x1="412.5" y1="1925" x2="612.5" y2="2125"/><line x1="412.5" y1="1925" x2="212.5" y2="2125"/><line x1="553.92136" y1="1983.57864" x2="553.92136" y2="2266.42136"/><line x1="553.92136" y1="1983.57864" x2="271.07864" y2="1983.57864"/><line x1="612.5" y1="2125" x2="412.5" y2="2325"/><line x1="553.92136" y1="2266.42136" x2="271.07864" y2="2266.42136"/><line x1="412.5" y1="2325" x2="212.5" y2="2125"/><line x1="271.07864" y1="2266.42136" x2="271.07864" y2="1983.57864"/></g><g stroke="#000000" stroke-width="2" stroke-linecap="round" stroke-dasharray="" font-family="sans-serif" font-weight="normal" font-size="12"><line x1="707.14286" y1="1923.21429" x2="757.14286" y2="1973.21429"/><line x1="707.14286" y1="1923.21429" x2="657.14286" y2="1973.21429"/><line x1="742.4982" y1="1937.85895" x2="742.4982" y2="2008.56962"/><line x1="742.4982" y1="1937.85895" x2="671.78752" y2="1937.85895"/><line x1="757.14286" y1="1973.21429" x2="707.14286" y2="2023.21429"/><line x1="742.4982" y1="2008.56962" x2="671.78752" y2="2008.56962"/><line x1="707.14286" y1="2023.21429" x2="657.14286" y2="1973.21429"/><line x1="671.78752" y1="2008.56962" x2="671.78752" y2="1937.85895"/></g><g stroke="#000000" stroke-width="2" stroke-linecap="round" stroke-dasharray="" font-family="sans-serif" font-weight="normal" font-size="12"><line x1="412.5" y1="1925" x2="553.92136" y2="2266.42136"/><line x1="412.5" y1="1925" x2="271.07864" y2="2266.42136"/><line x1="553.92136" y1="1983.57864" x2="412.5" y2="2325"/><line x1="553.92136" y1="1983.57864" x2="212.5" y2="2125"/><line x1="612.5" y1="2125" x2="271.07864" y2="2266.42136"/><line x1="612.5" y1="2125" x2="271.07864" y2="1983.57864"/><line x1="553.92136" y1="2266.42136" x2="212.5" y2="2125"/><line x1="412.5" y1="2325" x2="271.07864" y2="1983.57864"/></g><g stroke="#000000" stroke-width="2" stroke-linecap="round" stroke-dasharray="" font-family="sans-serif" font-weight="normal" font-size="12"><line x1="707.14286" y1="2075" x2="742.4982" y2="2160.35534"/><line x1="707.14286" y1="2075" x2="671.78752" y2="2160.35534"/><line x1="742.4982" y1="2089.64466" x2="707.14286" y2="2175"/><line x1="742.4982" y1="2089.64466" x2="657.14286" y2="2125"/><line x1="757.14286" y1="2125" x2="671.78752" y2="2160.35534"/><line x1="757.14286" y1="2125" x2="671.78752" y2="2089.64466"/><line x1="742.4982" y1="2160.35534" x2="657.14286" y2="2125"/><line x1="707.14286" y1="2175" x2="671.78752" y2="2089.64466"/></g><g stroke="#000000" stroke-width="2" stroke-linecap="round" stroke-dasharray="" font-family="sans-serif" font-weight="normal" font-size="12"><line x1="412.5" y1="1925" x2="412.5" y2="2325"/><line x1="553.92136" y1="1983.57864" x2="271.07864" y2="2266.42136"/><line x1="612.5" y1="2125" x2="212.5" y2="2125"/><line x1="553.92136" y1="2266.42136" x2="271.07864" y2="1983.57864"/></g><g stroke="#000000" stroke-width="2" stroke-linecap="round" stroke-dasharray="" font-family="sans-serif" font-weight="normal" font-size="12"><line x1="707.14286" y1="2226.78571" x2="707.14286" y2="2326.78571"/><line x1="742.4982" y1="2241.43038" x2="671.78752" y2="2312.14105"/><line x1="757.14286" y1="2276.78571" x2="657.14286" y2="2276.78571"/><line x1="742.4982" y1="2312.14105" x2="671.78752" y2="2241.43038"/></g><polygon points="825,2550 825,1700 1650,1700 1650,2550" stroke="#000000" stroke-width="1" stroke-linecap="butt" stroke-dasharray="1,4" font-family="sans-serif" font-weight="normal" font-size="12"/><text x="912.85714" y="1857.42857" fill="#000000" stroke-width="1" stroke-linecap="butt" stroke-dasharray="" font-family="Times" font-weight="bold" font-size="120">9</text><path d="M1037.5,2125c0,-110.45695 89.54305,-200 200,-200c110.45695,0 200,89.54305 200,200c0,110.45695 -89.54305,200 -200,200c-110.45695,0 -200,-89.54305 -200,-200z" stroke="#000000" stroke-width="1" stroke-linecap="butt" stroke-dasharray="1,2" font-family="sans-serif" font-weight="normal" font-size="12"/><path d="M1213.5,1925c0,-13.25483 10.74517,-24 24,-24c13.25483,0 24,10.74517 24,24c0,13.25483 -10.74517,24 -24,24c-13.25483,0 -24,-10.74517 -24,-24z" fill="#000000" stroke-width="1" stroke-linecap="butt" stroke-dasharray="" font-family="sans-serif" font-weight="normal" font-size="12"/><path d="M1342.05752,1971.79111c0,-13.25483 10.74517,-24 24,-24c13.25483,0 24,10.74517 24,24c0,13.25483 -10.74517,24 -24,24c-13.25483,0 -24,-10.74517 -24,-24z" fill="#000000" stroke-width="1" stroke-linecap="butt" stroke-dasharray="" font-family="sans-serif" font-weight="normal" font-size="12"/><path d="M1410.46155,2090.27036c0,-13.25483 10.74517,-24 24,-24c13.25483,0 24,10.74517 24,24c0,13.25483 -10.74517,24 -24,24c-13.25483,0 -24,-10.74517 -24,-24z" fill="#000000" stroke-width="1" stroke-linecap="butt" stroke-dasharray="" font-family="sans-serif" font-weight="normal" font-size="12"/><path d="M1386.70508,2225c0,-13.25483 10.74517,-24 24,-24c13.25483,0 24,10.74517 24,24c0,13.25483 -10.74517,24 -24,24c-13.25483,0 -24,-10.74517 -24,-24z" fill="#000000" stroke-width="1" stroke-linecap="butt" stroke-dasharray="" font-family="sans-serif" font-weight="normal" font-size="12"/><path d="M1281.90403,2312.93852c0,-13.25483 10.74517,-24 24,-24c13.25483,0 24,10.74517 24,24c0,13.25483 -10.74517,24 -24,24c-13.25483,0 -24,-10.74517 -24,-24z" fill="#000000" stroke-width="1" stroke-linecap="butt" stroke-dasharray="" font-family="sans-serif" font-weight="normal" font-size="12"/><path d="M1145.09597,2312.93852c0,-13.25483 10.74517,-24 24,-24c13.25483,0 24,10.74517 24,24c0,13.25483 -10.74517,24 -24,24c-13.25483,0 -24,-10.74517 -24,-24z" fill="#000000" stroke-width="1" stroke-linecap="butt" stroke-dasharray="" font-family="sans-serif" font-weight="normal" font-size="12"/><path d="M1040.29492,2225c0,-13.25483 10.74517,-24 24,-24c13.25483,0 24,10.74517 24,24c0,13.25483 -10.74517,24 -24,24c-13.25483,0 -24,-10.74517 -24,-24z" fill="#000000" stroke-width="1" stroke-linecap="butt" stroke-dasharray="" font-family="sans-serif" font-weight="normal" font-size="12"/><path d="M1016.53845,2090.27036c0,-13.25483 10.74517,-24 24,-24c13.25483,0 24,10.74517 24,24c0,13.25483 -10.74517,24 -24,24c-13.25483,0 -24,-10.74517 -24,-24z" fill="#000000" stroke-width="1" stroke-linecap="butt" stroke-dasharray="" font-family="sans-serif" font-weight="normal" font-size="12"/><path d="M1084.94248,1971.79111c0,-13.25483 10.74517,-24 24,-24c13.25483,0 24,10.74517 24,24c0,13.25483 -10.74517,24 -24,24c-13.25483,0 -24,-10.74517 -24,-24z" fill="#000000" stroke-width="1" stroke-linecap="butt" stroke-dasharray="" font-family="sans-serif" font-weight="normal" font-size="12"/><g stroke="#000000" stroke-width="2" stroke-linecap="round" stroke-dasharray="" font-family="sans-serif" font-weight="normal" font-size="12"><line x1="1237.5" y1="1925" x2="1366.05752" y2="1971.79111"/><line x1="1237.5" y1="1925" x2="1108.94248" y2="1971.79111"/><line x1="1366.05752" y1="1971.79111" x2="1434.46155" y2="2090.27036"/><line x1="1434.46155" y1="2090.27036" x2="1410.70508" y2="2225"/><line x1="1410.70508" y1="2225" x2="1305.90403" y2="2312.93852"/><line x1="1305.90403" y1="2312.93852" x2="1169.09597" y2="2312.93852"/><line x1="1169.09597" y1="2312.93852" x2="1064.29492" y2="2225"/><line x1="1064.29492" y1="2225" x2="1040.53845" y2="2090.27036"/><line x1="1040.53845" y1="2090.27036" x2="1108.94248" y2="1971.79111"/></g><g stroke="#000000" stroke-width="2" stroke-linecap="round" stroke-dasharray="" font-family="sans-serif" font-weight="normal" font-size="12"><line x1="1532.14286" y1="1772.93626" x2="1564.28224" y2="1784.63403"/><line x1="1532.14286" y1="1772.93626" x2="1500.00348" y2="1784.63403"/><line x1="1564.28224" y1="1784.63403" x2="1581.38324" y2="1814.25385"/><line x1="1581.38324" y1="1814.25385" x2="1575.44413" y2="1847.93626"/><line x1="1575.44413" y1="1847.93626" x2="1549.24386" y2="1869.92089"/><line x1="1549.24386" y1="1869.92089" x2="1515.04185" y2="1869.92089"/><line x1="1515.04185" y1="1869.92089" x2="1488.84159" y2="1847.93626"/><line x1="1488.84159" y1="1847.93626" x2="1482.90247" y2="1814.25385"/><line x1="1482.90247" y1="1814.25385" x2="1500.00348" y2="1784.63403"/></g><g stroke="#000000" stroke-width="2" stroke-linecap="round" stroke-dasharray="" font-family="sans-serif" font-weight="normal" font-size="12"><line x1="1237.5" y1="1925" x2="1434.46155" y2="2090.27036"/><line x1="1237.5" y1="1925" x2="1040.53845" y2="2090.27036"/><line x1="1366.05752" y1="1971.79111" x2="1410.70508" y2="2225"/><line x1="1366.05752" y1="1971.79111" x2="1108.94248" y2="1971.79111"/><line x1="1434.46155" y1="2090.27036" x2="1305.90403" y2="2312.93852"/><line x1="1410.70508" y1="2225" x2="1169.09597" y2="2312.93852"/><line x1="1305.90403" y1="2312.93852" x2="1064.29492" y2="2225"/><line x1="1169.09597" y1="2312.93852" x2="1040.53845" y2="2090.27036"/><line x1="1064.29492" y1="2225" x2="1108.94248" y2="1971.79111"/></g><g stroke="#000000" stroke-width="2" stroke-linecap="round" stroke-dasharray="" font-family="sans-serif" font-weight="normal" font-size="12"><line x1="1532.14286" y1="1924.72197" x2="1581.38324" y2="1966.03956"/><line x1="1532.14286" y1="1924.72197" x2="1482.90247" y2="1966.03956"/><line x1="1564.28224" y1="1936.41975" x2="1575.44413" y2="1999.72197"/><line x1="1564.28224" y1="1936.41975" x2="1500.00348" y2="1936.41975"/><line x1="1581.38324" y1="1966.03956" x2="1549.24386" y2="2021.7066"/><line x1="1575.44413" y1="1999.72197" x2="1515.04185" y2="2021.7066"/><line x1="1549.24386" y1="2021.7066" x2="1488.84159" y2="1999.72197"/><line x1="1515.04185" y1="2021.7066" x2="1482.90247" y2="1966.03956"/><line x1="1488.84159" y1="1999.72197" x2="1500.00348" y2="1936.41975"/></g><g stroke="#000000" stroke-width="2" stroke-linecap="round" stroke-dasharray="" font-family="sans-serif" font-weight="normal" font-size="12"><line x1="1237.5" y1="1925" x2="1410.70508" y2="2225"/><line x1="1237.5" y1="1925" x2="1064.29492" y2="2225"/><line x1="1366.05752" y1="1971.79111" x2="1305.90403" y2="2312.93852"/><line x1="1366.05752" y1="1971.79111" x2="1040.53845" y2="2090.27036"/><line x1="1434.46155" y1="2090.27036" x2="1169.09597" y2="2312.93852"/><line x1="1434.46155" y1="2090.27036" x2="1108.94248" y2="1971.79111"/><line x1="1410.70508" y1="2225" x2="1064.29492" y2="2225"/><line x1="1305.90403" y1="2312.93852" x2="1040.53845" y2="2090.27036"/><line x1="1169.09597" y1="2312.93852" x2="1108.94248" y2="1971.79111"/></g><g stroke="#000000" stroke-width="2" stroke-linecap="round" stroke-dasharray="" font-family="sans-serif" font-weight="normal" font-size="12"><line x1="1532.14286" y1="2076.50768" x2="1575.44413" y2="2151.50768"/><line x1="1532.14286" y1="2076.50768" x2="1488.84159" y2="2151.50768"/><line x1="1564.28224" y1="2088.20546" x2="1549.24386" y2="2173.49232"/><line x1="1564.28224" y1="2088.20546" x2="1482.90247" y2="2117.82528"/><line x1="1581.38324" y1="2117.82528" x2="1515.04185" y2="2173.49232"/><line x1="1581.38324" y1="2117.82528" x2="1500.00348" y2="2088.20546"/><line x1="1575.44413" y1="2151.50768" x2="1488.84159" y2="2151.50768"/><line x1="1549.24386" y1="2173.49232" x2="1482.90247" y2="2117.82528"/><line x1="1515.04185" y1="2173.49232" x2="1500.00348" y2="2088.20546"/></g><g stroke="#000000" stroke-width="2" stroke-linecap="round" stroke-dasharray="" font-family="sans-serif" font-weight="normal" font-size="12"><line x1="1237.5" y1="1925" x2="1305.90403" y2="2312.93852"/><line x1="1237.5" y1="1925" x2="1169.09597" y2="2312.93852"/><line x1="1366.05752" y1="1971.79111" x2="1169.09597" y2="2312.93852"/><line x1="1366.05752" y1="1971.79111" x2="1064.29492" y2="2225"/><line x1="1434.46155" y1="2090.27036" x2="1064.29492" y2="2225"/><line x1="1434.46155" y1="2090.27036" x2="1040.53845" y2="2090.27036"/><line x1="1410.70508" y1="2225" x2="1040.53845" y2="2090.27036"/><line x1="1410.70508" y1="2225" x2="1108.94248" y2="1971.79111"/><line x1="1305.90403" y1="2312.93852" x2="1108.94248" y2="1971.79111"/></g><g stroke="#000000" stroke-width="2" stroke-linecap="round" stroke-dasharray="" font-family="sans-serif" font-weight="normal" font-size="12"><line x1="1532.14286" y1="2228.2934" x2="1549.24386" y2="2325.27803"/><line x1="1532.14286" y1="2228.2934" x2="1515.04185" y2="2325.27803"/><line x1="1564.28224" y1="2239.99118" x2="1515.04185" y2="2325.27803"/><line x1="1564.28224" y1="2239.99118" x2="1488.84159" y2="2303.2934"/><line x1="1581.38324" y1="2269.61099" x2="1488.84159" y2="2303.2934"/><line x1="1581.38324" y1="2269.61099" x2="1482.90247" y2="2269.61099"/><line x1="1575.44413" y1="2303.2934" x2="1482.90247" y2="2269.61099"/><line x1="1575.44413" y1="2303.2934" x2="1500.00348" y2="2239.99118"/><line x1="1549.24386" y1="2325.27803" x2="1500.00348" y2="2239.99118"/></g><polygon points="1650,2550 1650,1700 2475,1700 2475,2550" stroke="#000000" stroke-width="1" stroke-linecap="butt" stroke-dasharray="1,4" font-family="sans-serif" font-weight="normal" font-size="12"/><text x="1707.85714" y="1857.42857" fill="#000000" stroke-width="1" stroke-linecap="butt" stroke-dasharray="" font-family="Times" font-weight="bold" font-size="120">10</text><path d="M1862.5,2125c0,-110.45695 89.54305,-200 200,-200c110.45695,0 200,89.54305 200,200c0,110.45695 -89.54305,200 -200,200c-110.45695,0 -200,-89.54305 -200,-200z" stroke="#000000" stroke-width="1" stroke-linecap="butt" stroke-dasharray="1,2" font-family="sans-serif" font-weight="normal" font-size="12"/><path d="M2038.5,1925c0,-13.25483 10.74517,-24 24,-24c13.25483,0 24,10.74517 24,24c0,13.25483 -10.74517,24 -24,24c-13.25483,0 -24,-10.74517 -24,-24z" fill="#000000" stroke-width="1" stroke-linecap="butt" stroke-dasharray="" font-family="sans-serif" font-weight="normal" font-size="12"/><path d="M2156.05705,1963.1966c0,-13.25483 10.74517,-24 24,-24c13.25483,0 24,10.74517 24,24c0,13.25483 -10.74517,24 -24,24c-13.25483,0 -24,-10.74517 -24,-24z" fill="#000000" stroke-width="1" stroke-linecap="butt" stroke-dasharray="" font-family="sans-serif" font-weight="normal" font-size="12"/><path d="M2228.7113,2063.1966c0,-13.25483 10.74517,-24 24,-24c13.25483,0 24,10.74517 24,24c0,13.25483 -10.74517,24 -24,24c-13.25483,0 -24,-10.74517 -24,-24z" fill="#000000" stroke-width="1" stroke-linecap="butt" stroke-dasharray="" font-family="sans-serif" font-weight="normal" font-size="12"/><path d="M2228.7113,2186.8034c0,-13.25483 10.74517,-24 24,-24c13.25483,0 24,10.74517 24,24c0,13.25483 -10.74517,24 -24,24c-13.25483,0 -24,-10.74517 -24,-24z" fill="#000000" stroke-width="1" stroke-linecap="butt" stroke-dasharray="" font-family="sans-serif" font-weight="normal" font-size="12"/><path d="M2156.05705,2286.8034c0,-13.25483 10.74517,-24 24,-24c13.25483,0 24,10.74517 24,24c0,13.25483 -10.74517,24 -24,24c-13.25483,0 -24,-10.74517 -24,-24z" fill="#000000" stroke-width="1" stroke-linecap="butt" stroke-dasharray="" font-family="sans-serif" font-weight="normal" font-size="12"/><path d="M2038.5,2325c0,-13.25483 10.74517,-24 24,-24c13.25483,0 24,10.74517 24,24c0,13.25483 -10.74517,24 -24,24c-13.25483,0 -24,-10.74517 -24,-24z" fill="#000000" stroke-width="1" stroke-linecap="butt" stroke-dasharray="" font-family="sans-serif" font-weight="normal" font-size="12"/><path d="M1920.94295,2286.8034c0,-13.25483 10.74517,-24 24,-24c13.25483,0 24,10.74517 24,24c0,13.25483 -10.74517,24 -24,24c-13.25483,0 -24,-10.74517 -24,-24z" fill="#000000" stroke-width="1" stroke-linecap="butt" stroke-dasharray="" font-family="sans-serif" font-weight="normal" font-size="12"/><path d="M1848.2887,2186.8034c0,-13.25483 10.74517,-24 24,-24c13.25483,0 24,10.74517 24,24c0,13.25483 -10.74517,24 -24,24c-13.25483,0 -24,-10.74517 -24,-24z" fill="#000000" stroke-width="1" stroke-linecap="butt" stroke-dasharray="" font-family="sans-serif" font-weight="normal" font-size="12"/><path d="M1848.2887,2063.1966c0,-13.25483 10.74517,-24 24,-24c13.25483,0 24,10.74517 24,24c0,13.25483 -10.74517,24 -24,24c-13.25483,0 -24,-10.74517 -24,-24z" fill="#000000" stroke-width="1" stroke-linecap="butt" stroke-dasharray="" font-family="sans-serif" font-weight="normal" font-size="12"/><path d="M1920.94295,1963.1966c0,-13.25483 10.74517,-24 24,-24c13.25483,0 24,10.74517 24,24c0,13.25483 -10.74517,24 -24,24c-13.25483,0 -24,-10.74517 -24,-24z" fill="#000000" stroke-width="1" stroke-linecap="butt" stroke-dasharray="" font-family="sans-serif" font-weight="normal" font-size="12"/><g stroke="#000000" stroke-width="2" stroke-linecap="round" stroke-dasharray="" font-family="sans-serif" font-weight="normal" font-size="12"><line x1="2062.5" y1="1925" x2="2180.05705" y2="1963.1966"/><line x1="2062.5" y1="1925" x2="1944.94295" y2="1963.1966"/><line x1="2180.05705" y1="1963.1966" x2="2252.7113" y2="2063.1966"/><line x1="2252.7113" y1="2063.1966" x2="2252.7113" y2="2186.8034"/><line x1="2252.7113" y1="2186.8034" x2="2180.05705" y2="2286.8034"/><line x1="2180.05705" y1="2286.8034" x2="2062.5" y2="2325"/><line x1="2062.5" y1="2325" x2="1944.94295" y2="2286.8034"/><line x1="1944.94295" y1="2286.8034" x2="1872.2887" y2="2186.8034"/><line x1="1872.2887" y1="2186.8034" x2="1872.2887" y2="2063.1966"/><line x1="1872.2887" y1="2063.1966" x2="1944.94295" y2="1963.1966"/></g><g stroke="#000000" stroke-width="2" stroke-linecap="round" stroke-dasharray="" font-family="sans-serif" font-weight="normal" font-size="12"><line x1="2357.14286" y1="1771.42857" x2="2386.53212" y2="1780.97772"/><line x1="2357.14286" y1="1771.42857" x2="2327.75359" y2="1780.97772"/><line x1="2386.53212" y1="1780.97772" x2="2404.69568" y2="1805.97772"/><line x1="2404.69568" y1="1805.97772" x2="2404.69568" y2="1836.87942"/><line x1="2404.69568" y1="1836.87942" x2="2386.53212" y2="1861.87942"/><line x1="2386.53212" y1="1861.87942" x2="2357.14286" y2="1871.42857"/><line x1="2357.14286" y1="1871.42857" x2="2327.75359" y2="1861.87942"/><line x1="2327.75359" y1="1861.87942" x2="2309.59003" y2="1836.87942"/><line x1="2309.59003" y1="1836.87942" x2="2309.59003" y2="1805.97772"/><line x1="2309.59003" y1="1805.97772" x2="2327.75359" y2="1780.97772"/></g><g stroke="#000000" stroke-width="2" stroke-linecap="round" stroke-dasharray="" font-family="sans-serif" font-weight="normal" font-size="12"><line x1="2062.5" y1="1925" x2="2252.7113" y2="2063.1966"/><line x1="2062.5" y1="1925" x2="1872.2887" y2="2063.1966"/><line x1="2180.05705" y1="1963.1966" x2="2252.7113" y2="2186.8034"/><line x1="2180.05705" y1="1963.1966" x2="1944.94295" y2="1963.1966"/><line x1="2252.7113" y1="2063.1966" x2="2180.05705" y2="2286.8034"/><line x1="2252.7113" y1="2186.8034" x2="2062.5" y2="2325"/><line x1="2180.05705" y1="2286.8034" x2="1944.94295" y2="2286.8034"/><line x1="2062.5" y1="2325" x2="1872.2887" y2="2186.8034"/><line x1="1944.94295" y1="2286.8034" x2="1872.2887" y2="2063.1966"/><line x1="1872.2887" y1="2186.8034" x2="1944.94295" y2="1963.1966"/></g><g stroke="#000000" stroke-width="2" stroke-linecap="round" stroke-dasharray="" font-family="sans-serif" font-weight="normal" font-size="12"><line x1="2357.14286" y1="1923.21429" x2="2404.69568" y2="1957.76344"/><line x1="2357.14286" y1="1923.21429" x2="2309.59003" y2="1957.76344"/><line x1="2386.53212" y1="1932.76344" x2="2404.69568" y2="1988.66514"/><line x1="2386.53212" y1="1932.76344" x2="2327.75359" y2="1932.76344"/><line x1="2404.69568" y1="1957.76344" x2="2386.53212" y2="2013.66514"/><line x1="2404.69568" y1="1988.66514" x2="2357.14286" y2="2023.21429"/><line x1="2386.53212" y1="2013.66514" x2="2327.75359" y2="2013.66514"/><line x1="2357.14286" y1="2023.21429" x2="2309.59003" y2="1988.66514"/><line x1="2327.75359" y1="2013.66514" x2="2309.59003" y2="1957.76344"/><line x1="2309.59003" y1="1988.66514" x2="2327.75359" y2="1932.76344"/></g><g stroke="#000000" stroke-width="2" stroke-linecap="round" stroke-dasharray="" font-family="sans-serif" font-weight="normal" font-size="12"><line x1="2062.5" y1="1925" x2="2252.7113" y2="2186.8034"/><line x1="2062.5" y1="1925" x2="1872.2887" y2="2186.8034"/><line x1="2180.05705" y1="1963.1966" x2="2180.05705" y2="2286.8034"/><line x1="2180.05705" y1="1963.1966" x2="1872.2887" y2="2063.1966"/><line x1="2252.7113" y1="2063.1966" x2="2062.5" y2="2325"/><line x1="2252.7113" y1="2063.1966" x2="1944.94295" y2="1963.1966"/><line x1="2252.7113" y1="2186.8034" x2="1944.94295" y2="2286.8034"/><line x1="2180.05705" y1="2286.8034" x2="1872.2887" y2="2186.8034"/><line x1="2062.5" y1="2325" x2="1872.2887" y2="2063.1966"/><line x1="1944.94295" y1="2286.8034" x2="1944.94295" y2="1963.1966"/></g><g stroke="#000000" stroke-width="2" stroke-linecap="round" stroke-dasharray="" font-family="sans-serif" font-weight="normal" font-size="12"><line x1="2357.14286" y1="2075" x2="2404.69568" y2="2140.45085"/><line x1="2357.14286" y1="2075" x2="2309.59003" y2="2140.45085"/><line x1="2386.53212" y1="2084.54915" x2="2386.53212" y2="2165.45085"/><line x1="2386.53212" y1="2084.54915" x2="2309.59003" y2="2109.54915"/><line x1="2404.69568" y1="2109.54915" x2="2357.14286" y2="2175"/><line x1="2404.69568" y1="2109.54915" x2="2327.75359" y2="2084.54915"/><line x1="2404.69568" y1="2140.45085" x2="2327.75359" y2="2165.45085"/><line x1="2386.53212" y1="2165.45085" x2="2309.59003" y2="2140.45085"/><line x1="2357.14286" y1="2175" x2="2309.59003" y2="2109.54915"/><line x1="2327.75359" y1="2165.45085" x2="2327.75359" y2="2084.54915"/></g><g stroke="#000000" stroke-width="2" stroke-linecap="round" stroke-dasharray="" font-family="sans-serif" font-weight="normal" font-size="12"><line x1="2062.5" y1="1925" x2="2180.05705" y2="2286.8034"/><line x1="2062.5" y1="1925" x2="1944.94295" y2="2286.8034"/><line x1="2180.05705" y1="1963.1966" x2="2062.5" y2="2325"/><line x1="2180.05705" y1="1963.1966" x2="1872.2887" y2="2186.8034"/><line x1="2252.7113" y1="2063.1966" x2="1944.94295" y2="2286.8034"/><line x1="2252.7113" y1="2063.1966" x2="1872.2887" y2="2063.1966"/><line x1="2252.7113" y1="2186.8034" x2="1872.2887" y2="2186.8034"/><line x1="2252.7113" y1="2186.8034" x2="1944.94295" y2="1963.1966"/><line x1="2180.05705" y1="2286.8034" x2="1872.2887" y2="2063.1966"/><line x1="2062.5" y1="2325" x2="1944.94295" y2="1963.1966"/></g><g stroke="#000000" stroke-width="2" stroke-linecap="round" stroke-dasharray="" font-family="sans-serif" font-weight="normal" font-size="12"><line x1="2357.14286" y1="2226.78571" x2="2386.53212" y2="2317.23656"/><line x1="2357.14286" y1="2226.78571" x2="2327.75359" y2="2317.23656"/><line x1="2386.53212" y1="2236.33486" x2="2357.14286" y2="2326.78571"/><line x1="2386.53212" y1="2236.33486" x2="2309.59003" y2="2292.23656"/><line x1="2404.69568" y1="2261.33486" x2="2327.75359" y2="2317.23656"/><line x1="2404.69568" y1="2261.33486" x2="2309.59003" y2="2261.33486"/><line x1="2404.69568" y1="2292.23656" x2="2309.59003" y2="2292.23656"/><line x1="2404.69568" y1="2292.23656" x2="2327.75359" y2="2236.33486"/><line x1="2386.53212" y1="2317.23656" x2="2309.59003" y2="2261.33486"/><line x1="2357.14286" y1="2326.78571" x2="2327.75359" y2="2236.33486"/></g><g stroke="#000000" stroke-width="2" stroke-linecap="round" stroke-dasharray="" font-family="sans-serif" font-weight="normal" font-size="12"><line x1="2062.5" y1="1925" x2="2062.5" y2="2325"/><line x1="2180.05705" y1="1963.1966" x2="1944.94295" y2="2286.8034"/><line x1="2252.7113" y1="2063.1966" x2="1872.2887" y2="2186.8034"/><line x1="2252.7113" y1="2186.8034" x2="1872.2887" y2="2063.1966"/><line x1="2180.05705" y1="2286.8034" x2="1944.94295" y2="1963.1966"/></g><g stroke="#000000" stroke-width="2" stroke-linecap="round" stroke-dasharray="" font-family="sans-serif" font-weight="normal" font-size="12"><line x1="2357.14286" y1="2378.57143" x2="2357.14286" y2="2478.57143"/><line x1="2386.53212" y1="2388.12058" x2="2327.75359" y2="2469.02228"/><line x1="2404.69568" y1="2413.12058" x2="2309.59003" y2="2444.02228"/><line x1="2404.69568" y1="2444.02228" x2="2309.59003" y2="2413.12058"/><line x1="2386.53212" y1="2469.02228" x2="2327.75359" y2="2388.12058"/></g><polygon points="2475,2550 2475,1700 3300,1700 3300,2550" stroke="#000000" stroke-width="1" stroke-linecap="butt" stroke-dasharray="1,4" font-family="sans-serif" font-weight="normal" font-size="12"/><text x="2536.13839" y="1857.42857" fill="#000000" stroke-width="1" stroke-linecap="butt" stroke-dasharray="" font-family="Times" font-weight="bold" font-size="120">11</text><path d="M2687.5,2125c0,-110.45695 89.54305,-200 200,-200c110.45695,0 200,89.54305 200,200c0,110.45695 -89.54305,200 -200,200c-110.45695,0 -200,-89.54305 -200,-200z" stroke="#000000" stroke-width="1" stroke-linecap="butt" stroke-dasharray="1,2" font-family="sans-serif" font-weight="normal" font-size="12"/><g stroke="#000000" stroke-width="2" stroke-linecap="round" stroke-dasharray="" font-family="sans-serif" font-weight="normal" font-size="12"><line x1="2887.5" y1="1925" x2="2995.62816" y2="1956.74929"/><line x1="2887.5" y1="1925" x2="2779.37184" y2="1956.74929"/><line x1="2995.62816" y1="1956.74929" x2="3069.4264" y2="2041.917"/><line x1="3069.4264" y1="2041.917" x2="3085.46429" y2="2153.46297"/><line x1="3085.46429" y1="2153.46297" x2="3038.64991" y2="2255.97215"/><line x1="3038.64991" y1="2255.97215" x2="2943.84651" y2="2316.89859"/><line x1="2943.84651" y1="2316.89859" x2="2831.15349" y2="2316.89859"/><line x1="2831.15349" y1="2316.89859" x2="2736.35009" y2="2255.97215"/><line x1="2736.35009" y1="2255.97215" x2="2689.53571" y2="2153.46297"/><line x1="2689.53571" y1="2153.46297" x2="2705.5736" y2="2041.917"/><line x1="2705.5736" y1="2041.917" x2="2779.37184" y2="1956.74929"/></g><g stroke="#000000" stroke-width="2" stroke-linecap="round" stroke-dasharray="" font-family="sans-serif" font-weight="normal" font-size="12"><line x1="3182.14286" y1="1772.44125" x2="3209.1749" y2="1780.37857"/><line x1="3182.14286" y1="1772.44125" x2="3155.11082" y2="1780.37857"/><line x1="3209.1749" y1="1780.37857" x2="3227.62446" y2="1801.6705"/><line x1="3227.62446" y1="1801.6705" x2="3231.63393" y2="1829.55699"/><line x1="3231.63393" y1="1829.55699" x2="3219.93034" y2="1855.18428"/><line x1="3219.93034" y1="1855.18428" x2="3196.22948" y2="1870.4159"/><line x1="3196.22948" y1="1870.4159" x2="3168.05623" y2="1870.4159"/><line x1="3168.05623" y1="1870.4159" x2="3144.35538" y2="1855.18428"/><line x1="3144.35538" y1="1855.18428" x2="3132.65179" y2="1829.55699"/><line x1="3132.65179" y1="1829.55699" x2="3136.66126" y2="1801.6705"/><line x1="3136.66126" y1="1801.6705" x2="3155.11082" y2="1780.37857"/></g><g stroke="#000000" stroke-width="2" stroke-linecap="round" stroke-dasharray="" font-family="sans-serif" font-weight="normal" font-size="12"><line x1="2887.5" y1="1925" x2="3069.4264" y2="2041.917"/><line x1="2887.5" y1="1925" x2="2705.5736" y2="2041.917"/><line x1="2995.62816" y1="1956.74929" x2="3085.46429" y2="2153.46297"/><line x1="2995.62816" y1="1956.74929" x2="2779.37184" y2="1956.74929"/><line x1="3069.4264" y1="2041.917" x2="3038.64991" y2="2255.97215"/><line x1="3085.46429" y1="2153.46297" x2="2943.84651" y2="2316.89859"/><line x1="3038.64991" y1="2255.97215" x2="2831.15349" y2="2316.89859"/><line x1="2943.84651" y1="2316.89859" x2="2736.35009" y2="2255.97215"/><line x1="2831.15349" y1="2316.89859" x2="2689.53571" y2="2153.46297"/><line x1="2736.35009" y1="2255.97215" x2="2705.5736" y2="2041.917"/><line x1="2689.53571" y1="2153.46297" x2="2779.37184" y2="1956.74929"/></g><g stroke="#000000" stroke-width="2" stroke-linecap="round" stroke-dasharray="" font-family="sans-serif" font-weight="normal" font-size="12"><line x1="3182.14286" y1="1924.22696" x2="3227.62446" y2="1953.45621"/><line x1="3182.14286" y1="1924.22696" x2="3136.66126" y2="1953.45621"/><line x1="3209.1749" y1="1932.16428" x2="3231.63393" y2="1981.3427"/><line x1="3209.1749" y1="1932.16428" x2="3155.11082" y2="1932.16428"/><line x1="3227.62446" y1="1953.45621" x2="3219.93034" y2="2006.97"/><line x1="3231.63393" y1="1981.3427" x2="3196.22948" y2="2022.20161"/><line x1="3219.93034" y1="2006.97" x2="3168.05623" y2="2022.20161"/><line x1="3196.22948" y1="2022.20161" x2="3144.35538" y2="2006.97"/><line x1="3168.05623" y1="2022.20161" x2="3132.65179" y2="1981.3427"/><line x1="3144.35538" y1="2006.97" x2="3136.66126" y2="1953.45621"/><line x1="3132.65179" y1="1981.3427" x2="3155.11082" y2="1932.16428"/></g><g stroke="#000000" stroke-width="2" stroke-linecap="round" stroke-dasharray="" font-family="sans-serif" font-weight="normal" font-size="12"><line x1="2887.5" y1="1925" x2="3085.46429" y2="2153.46297"/><line x1="2887.5" y1="1925" x2="2689.53571" y2="2153.46297"/><line x1="2995.62816" y1="1956.74929" x2="3038.64991" y2="2255.97215"/><line x1="2995.62816" y1="1956.74929" x2="2705.5736" y2="2041.917"/><line x1="3069.4264" y1="2041.917" x2="2943.84651" y2="2316.89859"/><line x1="3069.4264" y1="2041.917" x2="2779.37184" y2="1956.74929"/><line x1="3085.46429" y1="2153.46297" x2="2831.15349" y2="2316.89859"/><line x1="3038.64991" y1="2255.97215" x2="2736.35009" y2="2255.97215"/><line x1="2943.84651" y1="2316.89859" x2="2689.53571" y2="2153.46297"/><line x1="2831.15349" y1="2316.89859" x2="2705.5736" y2="2041.917"/><line x1="2736.35009" y1="2255.97215" x2="2779.37184" y2="1956.74929"/></g><g stroke="#000000" stroke-width="2" stroke-linecap="round" stroke-dasharray="" font-family="sans-serif" font-weight="normal" font-size="12"><line x1="3182.14286" y1="2076.01268" x2="3231.63393" y2="2133.12842"/><line x1="3182.14286" y1="2076.01268" x2="3132.65179" y2="2133.12842"/><line x1="3209.1749" y1="2083.95" x2="3219.93034" y2="2158.75571"/><line x1="3209.1749" y1="2083.95" x2="3136.66126" y2="2105.24193"/><line x1="3227.62446" y1="2105.24193" x2="3196.22948" y2="2173.98732"/><line x1="3227.62446" y1="2105.24193" x2="3155.11082" y2="2083.95"/><line x1="3231.63393" y1="2133.12842" x2="3168.05623" y2="2173.98732"/><line x1="3219.93034" y1="2158.75571" x2="3144.35538" y2="2158.75571"/><line x1="3196.22948" y1="2173.98732" x2="3132.65179" y2="2133.12842"/><line x1="3168.05623" y1="2173.98732" x2="3136.66126" y2="2105.24193"/><line x1="3144.35538" y1="2158.75571" x2="3155.11082" y2="2083.95"/></g><g stroke="#000000" stroke-width="2" stroke-linecap="round" stroke-dasharray="" font-family="sans-serif" font-weight="normal" font-size="12"><line x1="2887.5" y1="1925" x2="3038.64991" y2="2255.97215"/><line x1="2887.5" y1="1925" x2="2736.35009" y2="2255.97215"/><line x1="2995.62816" y1="1956.74929" x2="2943.84651" y2="2316.89859"/><line x1="2995.62816" y1="1956.74929" x2="2689.53571" y2="2153.46297"/><line x1="3069.4264" y1="2041.917" x2="2831.15349" y2="2316.89859"/><line x1="3069.4264" y1="2041.917" x2="2705.5736" y2="2041.917"/><line x1="3085.46429" y1="2153.46297" x2="2736.35009" y2="2255.97215"/><line x1="3085.46429" y1="2153.46297" x2="2779.37184" y2="1956.74929"/><line x1="3038.64991" y1="2255.97215" x2="2689.53571" y2="2153.46297"/><line x1="2943.84651" y1="2316.89859" x2="2705.5736" y2="2041.917"/><line x1="2831.15349" y1="2316.89859" x2="2779.37184" y2="1956.74929"/></g><g stroke="#000000" stroke-width="2" stroke-linecap="round" stroke-dasharray="" font-family="sans-serif" font-weight="normal" font-size="12"><line x1="3182.14286" y1="2227.79839" x2="3219.93034" y2="2310.54143"/><line x1="3182.14286" y1="2227.79839" x2="3144.35538" y2="2310.54143"/><line x1="3209.1749" y1="2235.73571" x2="3196.22948" y2="2325.77304"/><line x1="3209.1749" y1="2235.73571" x2="3132.65179" y2="2284.91413"/><line x1="3227.62446" y1="2257.02764" x2="3168.05623" y2="2325.77304"/><line x1="3227.62446" y1="2257.02764" x2="3136.66126" y2="2257.02764"/><line x1="3231.63393" y1="2284.91413" x2="3144.35538" y2="2310.54143"/><line x1="3231.63393" y1="2284.91413" x2="3155.11082" y2="2235.73571"/><line x1="3219.93034" y1="2310.54143" x2="3132.65179" y2="2284.91413"/><line x1="3196.22948" y1="2325.77304" x2="3136.66126" y2="2257.02764"/><line x1="3168.05623" y1="2325.77304" x2="3155.11082" y2="2235.73571"/></g><g stroke="#000000" stroke-width="2" stroke-linecap="round" stroke-dasharray="" font-family="sans-serif" font-weight="normal" font-size="12"><line x1="2887.5" y1="1925" x2="2943.84651" y2="2316.89859"/><line x1="2887.5" y1="1925" x2="2831.15349" y2="2316.89859"/><line x1="2995.62816" y1="1956.74929" x2="2831.15349" y2="2316.89859"/><line x1="2995.62816" y1="1956.74929" x2="2736.35009" y2="2255.97215"/><line x1="3069.4264" y1="2041.917" x2="2736.35009" y2="2255.97215"/><line x1="3069.4264" y1="2041.917" x2="2689.53571" y2="2153.46297"/><line x1="3085.46429" y1="2153.46297" x2="2689.53571" y2="2153.46297"/><line x1="3085.46429" y1="2153.46297" x2="2705.5736" y2="2041.917"/><line x1="3038.64991" y1="2255.97215" x2="2705.5736" y2="2041.917"/><line x1="3038.64991" y1="2255.97215" x2="2779.37184" y2="1956.74929"/><line x1="2943.84651" y1="2316.89859" x2="2779.37184" y2="1956.74929"/></g><g stroke="#000000" stroke-width="2" stroke-linecap="round" stroke-dasharray="" font-family="sans-serif" font-weight="normal" font-size="12"><line x1="3182.14286" y1="2379.5841" x2="3196.22948" y2="2477.55875"/><line x1="3182.14286" y1="2379.5841" x2="3168.05623" y2="2477.55875"/><line x1="3209.1749" y1="2387.52143" x2="3168.05623" y2="2477.55875"/><line x1="3209.1749" y1="2387.52143" x2="3144.35538" y2="2462.32714"/><line x1="3227.62446" y1="2408.81335" x2="3144.35538" y2="2462.32714"/><line x1="3227.62446" y1="2408.81335" x2="3132.65179" y2="2436.69985"/><line x1="3231.63393" y1="2436.69985" x2="3132.65179" y2="2436.69985"/><line x1="3231.63393" y1="2436.69985" x2="3136.66126" y2="2408.81335"/><line x1="3219.93034" y1="2462.32714" x2="3136.66126" y2="2408.81335"/><line x1="3219.93034" y1="2462.32714" x2="3155.11082" y2="2387.52143"/><line x1="3196.22948" y1="2477.55875" x2="3155.11082" y2="2387.52143"/></g></g></svg>