<svg x="0" y="0" width="3300" height="2550" version="1.1" xmlns="http://www.w3.org/2000/svg" xmlns:xlink="http://www.w3.org/1999/xlink"><g fill="none" stroke="none" stroke-width="none" stroke-linecap="none" stroke-linejoin="miter" stroke-miterlimit="10" stroke-dasharray="none" stroke-dashoffset="0" font-family="none" font-weight="none" font-size="none" text-anchor="start" mix-blend-mode="normal"><polygon points="0,850 0,0 825,0 825,850" stroke="#000000" stroke-width="1" stroke-linecap="butt" stroke-dasharray="1,4" font-family="sans-serif" font-weight="normal" font-size="12"/><text x="382.5" y="142.25" fill="#000000" stroke-width="1" stroke-linecap="butt" stroke-dasharray="" font-family="Times" font-weight="bold" font-size="120">0</text><path d="M212.5,425c0,-110.45695 89.54305,-200 200,-200c110.45695,0 200,89.54305 200,200c0,110.45695 -89.54305,200 -200,200c-110.45695,0 -200,-89.54305 -200,-200z" stroke="#000000" stroke-width="1" stroke-linecap="butt" stroke-dasharray="2,3" font-family="sans-serif" font-weight="normal" font-size="12"/><polygon points="825,850 825,0 1650,0 1650,850" stroke="#000000" stroke-width="1" stroke-linecap="butt" stroke-dasharray="1,4" font-family="sans-serif" font-weight="normal" font-size="12"/><text x="1207.5" y="142.25" fill="#000000" stroke-width="1" stroke-linecap="butt" stroke-dasharray="" font-family="Times" font-weight="bold" font-size="120">1</text><path d="M1037.5,425c0,-110.45695 89.54305,-200 200,-200c110.45695,0 200,89.54305 200,200c0,110.45695 -89.54305,200 -200,200c-110.45695,0 -200,-89.54305 -200,-200z" stroke="#000000" stroke-width="1" stroke-linecap="butt" stroke-dasharray="2,3" font-family="sans-serif" font-weight="normal" font-size="12"/><path d="M1213.5,225c0,-13.25483 10.74517,-24 24,-24c13.25483,0 24,10.74517 24,24c0,13.25483 -10.74517,24 -24,24c-13.25483,0 -24,-10.74517 -24,-24z" fill="#000000" stroke-width="1" stroke-linecap="butt" stroke-dasharray="" font-family="sans-serif" font-weight="normal" font-size="12"/><polygon points="1650,850 1650,0 2475,0 2475,850" stroke="#000000" stroke-width="1" stroke-linecap="butt" stroke-dasharray="1,4" font-family="sans-serif" font-weight="normal" font-size="12"/><text x="2032.5" y="142.25" fill="#000000" stroke-width="1" stroke-linecap="butt" stroke-dasharray="" font-family="Times" font-weight="bold" font-size="120">2</text><path d="M1862.5,425c0,-110.45695 89.54305,-200 200,-200c110.45695,0 200,89.54305 200,200c0,110.45695 -89.54305,200 -200,200c-110.45695,0 -200,-89.54305 -200,-200z" stroke="#000000" stroke-width="1" stroke-linecap="butt" stroke-dasharray="2,3" font-family="sans-serif" font-weight="normal" font-size="12"/><path d="M2038.5,225c0,-13.25483 10.74517,-24 24,-24c13.25483,0 24,10.74517 24,24c0,13.25483 -10.74517,24 -24,24c-13.25483,0 -24,-10.74517 -24,-24z" fill="#000000" stroke-width="1" stroke-linecap="butt" stroke-dasharray="" font-family="sans-serif" font-weight="normal" font-size="12"/><path d="M2038.5,625c0,-13.25483 10.74517,-24 24,-24c13.25483,0 24,10.74517 24,24c0,13.25483 -10.74517,24 -24,24c-13.25483,0 -24,-10.74517 -24,-24z" fill="#000000" stroke-width="1" stroke-linecap="butt" stroke-dasharray="" font-family="sans-serif" font-weight="normal" font-size="12"/><g stroke="#000000" stroke-width="2" stroke-linecap="round" stroke-dasharray="" font-family="sans-serif" font-weight="normal" font-size="12"><line x1="2062.5" y1="225" x2="2062.5" y2="625"/></g><g stroke="#000000" stroke-width="2" stroke-linecap="round" stroke-dasharray="" font-family="sans-serif" font-weight="normal" font-size="12"><line x1="2062.5" y1="693.75" x2="2062.5" y2="793.75"/></g><polygon points="2475,850 2475,0 3300,0 3300,850" stroke="#000000" stroke-width="1" stroke-linecap="butt" stroke-dasharray="1,4" font-family="sans-serif" font-weight="normal" font-size="12"/><text x="2857.5" y="142.25" fill="#000000" stroke-width="1" stroke-linecap="butt" stroke-dasharray="" font-family="Times" font-weight="bold" font-size="120">3</text><path d="M2687.5,425c0,-110.45695 89.54305,-200 200,-200c110.45695,0 200,89.54305 200,200c0,110.45695 -89.54305,200 -200,200c-110.45695,0 -200,-89.54305 -200,-200z" stroke="#000000" stroke-width="1" stroke-linecap="butt" stroke-dasharray="2,3" font-family="sans-serif" font-weight="normal" font-size="12"/><path d="M2863.5,225c0,-13.25483 10.74517,-24 24,-24c13.25483,0 24,10.74517 24,24c0,13.25483 -10.74517,24 -24,24c-13.25483,0 -24,-10.74517 -24,-24z" fill="#000000" stroke-width="1" stroke-linecap="butt" stroke-dasharray="" font-family="sans-serif" font-weight="normal" font-size="12"/><path d="M3036.70508,525c0,-13.25483 10.74517,-24 24,-24c13.25483,0 24,10.74517 24,24c0,13.25483 -10.74517,24 -24,24c-13.25483,0 -24,-10.74517 -24,-24z" fill="#000000" stroke-width="1" stroke-linecap="butt" stroke-dasharray="" font-family="sans-serif" font-weight="normal" font-size="12"/><path d="M2690.29492,525c0,-13.25483 10.74517,-24 24,-24c13.25483,0 24,10.74517 24,24c0,13.25483 -10.74517,24 -24,24c-13.25483,0 -24,-10.74517 -24,-24z" fill="#000000" stroke-width="1" stroke-linecap="butt" stroke-dasharray="" font-family="sans-serif" font-weight="normal" font-size="12"/><g stroke="#000000" stroke-width="2" stroke-linecap="round" stroke-dasharray="" font-family="sans-serif" font-weight="normal" font-size="12"><line x1="2887.5" y1="225" x2="3060.70508" y2="525"/><line x1="2887.5" y1="225" x2="2714.29492" y2="525"/><line x1="3060.70508" y1="525" x2="2714.29492" y2="525"/></g><g stroke="#000000" stroke-width="2" stroke-linecap="round" stroke-dasharray="" font-family="sans-serif" font-weight="normal" font-size="12"><line x1="2887.5" y1="706.25" x2="2930.80127" y2="781.25"/><line x1="2887.5" y1="706.25" x2="2844.19873" y2="781.25"/><line x1="2930.80127" y1="781.25" x2="2844.19873" y2="781.25"/></g><polygon points="0,1700 0,850 825,850 825,1700" stroke="#000000" stroke-width="1" stroke-linecap="butt" stroke-dasharray="1,4" font-family="sans-serif" font-weight="normal" font-size="12"/><text x="382.5" y="992.25" fill="#000000" stroke-width="1" stroke-linecap="butt" stroke-dasharray="" font-family="Times" font-weight="bold" font-size="120">4</text><path d="M212.5,1275c0,-110.45695 89.54305,-200 200,-200c110.45695,0 200,89.54305 200,200c0,110.45695 -89.54305,200 -200,200c-110.45695,0 -200,-89.54305 -200,-200z" stroke="#000000" stroke-width="1" stroke-linecap="butt" stroke-dasharray="2,3" font-family="sans-serif" font-weight="normal" font-size="12"/><path d="M388.5,1075c0,-13.25483 10.74517,-24 24,-24c13.25483,0 24,10.74517 24,24c0,13.25483 -10.74517,24 -24,24c-13.25483,0 -24,-10.74517 -24,-24z" fill="#000000" stroke-width="1" stroke-linecap="butt" stroke-dasharray="" font-family="sans-serif" font-weight="normal" font-size="12"/><path d="M588.5,1275c0,-13.25483 10.74517,-24 24,-24c13.25483,0 24,10.74517 24,24c0,13.25483 -10.74517,24 -24,24c-13.25483,0 -24,-10.74517 -24,-24z" fill="#000000" stroke-width="1" stroke-linecap="butt" stroke-dasharray="" font-family="sans-serif" font-weight="normal" font-size="12"/><path d="M388.5,1475c0,-13.25483 10.74517,-24 24,-24c13.25483,0 24,10.74517 24,24c0,13.25483 -10.74517,24 -24,24c-13.25483,0 -24,-10.74517 -24,-24z" fill="#000000" stroke-width="1" stroke-linecap="butt" stroke-dasharray="" font-family="sans-serif" font-weight="normal" font-size="12"/><path d="M188.5,1275c0,-13.25483 10.74517,-24 24,-24c13.25483,0 24,10.74517 24,24c0,13.25483 -10.74517,24 -24,24c-13.25483,0 -24,-10.74517 -24,-24z" fill="#000000" stroke-width="1" stroke-linecap="butt" stroke-dasharray="" font-family="sans-serif" font-weight="normal" font-size="12"/><g stroke="#000000" stroke-width="2" stroke-linecap="round" stroke-dasharray="" font-family="sans-serif" font-weight="normal" font-size="12"><line x1="412.5" y1="1075" x2="612.5" y2="1275"/><line x1="412.5" y1="1075" x2="212.5" y2="1275"/><line x1="612.5" y1="1275" x2="412.5" y2="1475"/><line x1="412.5" y1="1475" x2="212.5" y2="1275"/></g><g stroke="#000000" stroke-width="2" stroke-linecap="round" stroke-dasharray="" font-family="sans-serif" font-weight="normal" font-size="12"><line x1="103.125" y1="1543.75" x2="153.125" y2="1593.75"/><line x1="103.125" y1="1543.75" x2="53.125" y2="1593.75"/><line x1="153.125" y1="1593.75" x2="103.125" y2="1643.75"/><line x1="103.125" y1="1643.75" x2="53.125" y2="1593.75"/></g><g stroke="#000000" stroke-width="2" stroke-linecap="round" stroke-dasharray="" font-family="sans-serif" font-weight="normal" font-size="12"><line x1="412.5" y1="1075" x2="412.5" y2="1475"/><line x1="612.5" y1="1275" x2="212.5" y2="1275"/></g><g stroke="#000000" stroke-width="2" stroke-linecap="round" stroke-dasharray="" font-family="sans-serif" font-weight="normal" font-size="12"><line x1="721.875" y1="1543.75" x2="721.875" y2="1643.75"/><line x1="771.875" y1="1593.75" x2="671.875" y2="1593.75"/></g><polygon points="825,1700 825,850 1650,850 1650,1700" stroke="#000000" stroke-width="1" stroke-linecap="butt" stroke-dasharray="1,4" font-family="sans-serif" font-weight="normal" font-size="12"/><text x="1207.5" y="992.25" fill="#000000" stroke-width="1" stroke-linecap="butt" stroke-dasharray="" font-family="Times" font-weight="bold" font-size="120">5</text><path d="M1037.5,1275c0,-110.45695 89.54305,-200 200,-200c110.45695,0 200,89.54305 200,200c0,110.45695 -89.54305,200 -200,200c-110.45695,0 -200,-89.54305 -200,-200z" stroke="#000000" stroke-width="1" stroke-linecap="butt" stroke-dasharray="2,3" font-family="sans-serif" font-weight="normal" font-size="12"/><path d="M1213.5,1075c0,-13.25483 10.74517,-24 24,-24c13.25483,0 24,10.74517 24,24c0,13.25483 -10.74517,24 -24,24c-13.25483,0 -24,-10.74517 -24,-24z" fill="#000000" stroke-width="1" stroke-linecap="butt" stroke-dasharray="" font-family="sans-serif" font-weight="normal" font-size="12"/><path d="M1403.7113,1213.1966c0,-13.25483 10.74517,-24 24,-24c13.25483,0 24,10.74517 24,24c0,13.25483 -10.74517,24 -24,24c-13.25483,0 -24,-10.74517 -24,-24z" fill="#000000" stroke-width="1" stroke-linecap="butt" stroke-dasharray="" font-family="sans-serif" font-weight="normal" font-size="12"/><path d="M1331.05705,1436.8034c0,-13.25483 10.74517,-24 24,-24c13.25483,0 24,10.74517 24,24c0,13.25483 -10.74517,24 -24,24c-13.25483,0 -24,-10.74517 -24,-24z" fill="#000000" stroke-width="1" stroke-linecap="butt" stroke-dasharray="" font-family="sans-serif" font-weight="normal" font-size="12"/><path d="M1095.94295,1436.8034c0,-13.25483 10.74517,-24 24,-24c13.25483,0 24,10.74517 24,24c0,13.25483 -10.74517,24 -24,24c-13.25483,0 -24,-10.74517 -24,-24z" fill="#000000" stroke-width="1" stroke-linecap="butt" stroke-dasharray="" font-family="sans-serif" font-weight="normal" font-size="12"/><path d="M1023.2887,1213.1966c0,-13.25483 10.74517,-24 24,-24c13.25483,0 24,10.74517 24,24c0,13.25483 -10.74517,24 -24,24c-13.25483,0 -24,-10.74517 -24,-24z" fill="#000000" stroke-width="1" stroke-linecap="butt" stroke-dasharray="" font-family="sans-serif" font-weight="normal" font-size="12"/><g stroke="#000000" stroke-width="2" stroke-linecap="round" stroke-dasharray="" font-family="sans-serif" font-weight="normal" font-size="12"><line x1="1237.5" y1="1075" x2="1427.7113" y2="1213.1966"/><line x1="1237.5" y1="1075" x2="1047.2887" y2="1213.1966"/><line x1="1427.7113" y1="1213.1966" x2="1355.05705" y2="1436.8034"/><line x1="1355.05705" y1="1436.8034" x2="1119.94295" y2="1436.8034"/><line x1="1119.94295" y1="1436.8034" x2="1047.2887" y2="1213.1966"/></g><g stroke="#000000" stroke-width="2" stroke-linecap="round" stroke-dasharray="" font-family="sans-serif" font-weight="normal" font-size="12"><line x1="928.125" y1="1548.52458" x2="975.67783" y2="1583.07373"/><line x1="928.125" y1="1548.52458" x2="880.57217" y2="1583.07373"/><line x1="975.67783" y1="1583.07373" x2="957.51426" y2="1638.97542"/><line x1="957.51426" y1="1638.97542" x2="898.73574" y2="1638.97542"/><line x1="898.73574" y1="1638.97542" x2="880.57217" y2="1583.07373"/></g><g stroke="#000000" stroke-width="2" stroke-linecap="round" stroke-dasharray="" font-family="sans-serif" font-weight="normal" font-size="12"><line x1="1237.5" y1="1075" x2="1355.05705" y2="1436.8034"/><line x1="1237.5" y1="1075" x2="1119.94295" y2="1436.8034"/><line x1="1427.7113" y1="1213.1966" x2="1119.94295" y2="1436.8034"/><line x1="1427.7113" y1="1213.1966" x2="1047.2887" y2="1213.1966"/><line x1="1355.05705" y1="1436.8034" x2="1047.2887" y2="1213.1966"/></g><g stroke="#000000" stroke-width="2" stroke-linecap="round" stroke-dasharray="" font-family="sans-serif" font-weight="normal" font-size="12"><line x1="1546.875" y1="1548.52458" x2="1576.26426" y2="1638.97542"/><line x1="1546.875" y1="1548.52458" x2="1517.48574" y2="1638.97542"/><line x1="1594.42783" y1="1583.07373" x2="1517.48574" y2="1638.97542"/><line x1="1594.42783" y1="1583.07373" x2="1499.32217" y2="1583.07373"/><line x1="1576.26426" y1="1638.97542" x2="1499.32217" y2="1583.07373"/></g><polygon points="1650,1700 1650,850 2475,850 2475,1700" stroke="#000000" stroke-width="1" stroke-linecap="butt" stroke-dasharray="1,4" font-family="sans-serif" font-weight="normal" font-size="12"/><text x="2032.5" y="992.25" fill="#000000" stroke-width="1" stroke-linecap="butt" stroke-dasharray="" font-family="Times" font-weight="bold" font-size="120">6</text><path d="M1862.5,1275c0,-110.45695 89.54305,-200 200,-200c110.45695,0 200,89.54305 200,200c0,110.45695 -89.54305,200 -200,200c-110.45695,0 -200,-89.54305 -200,-200z" stroke="#000000" stroke-width="1" stroke-linecap="butt" stroke-dasharray="2,3" font-family="sans-serif" font-weight="normal" font-size="12"/><path d="M2038.5,1075c0,-13.25483 10.74517,-24 24,-24c13.25483,0 24,10.74517 24,24c0,13.25483 -10.74517,24 -24,24c-13.25483,0 -24,-10.74517 -24,-24z" fill="#000000" stroke-width="1" stroke-linecap="butt" stroke-dasharray="" font-family="sans-serif" font-weight="normal" font-size="12"/><path d="M2211.70508,1175c0,-13.25483 10.74517,-24 24,-24c13.25483,0 24,10.74517 24,24c0,13.25483 -10.74517,24 -24,24c-13.25483,0 -24,-10.74517 -24,-24z" fill="#000000" stroke-width="1" stroke-linecap="butt" stroke-dasharray="" font-family="sans-serif" font-weight="normal" font-size="12"/><path d="M2211.70508,1375c0,-13.25483 10.74517,-24 24,-24c13.25483,0 24,10.74517 24,24c0,13.25483 -10.74517,24 -24,24c-13.25483,0 -24,-10.74517 -24,-24z" fill="#000000" stroke-width="1" stroke-linecap="butt" stroke-dasharray="" font-family="sans-serif" font-weight="normal" font-size="12"/><path d="M2038.5,1475c0,-13.25483 10.74517,-24 24,-24c13.25483,0 24,10.74517 24,24c0,13.25483 -10.74517,24 -24,24c-13.25483,0 -24,-10.74517 -24,-24z" fill="#000000" stroke-width="1" stroke-linecap="butt" stroke-dasharray="" font-family="sans-serif" font-weight="normal" font-size="12"/><path d="M1865.29492,1375c0,-13.25483 10.74517,-24 24,-24c13.25483,0 24,10.74517 24,24c0,13.25483 -10.74517,24 -24,24c-13.25483,0 -24,-10.74517 -24,-24z" fill="#000000" stroke-width="1" stroke-linecap="butt" stroke-dasharray="" font-family="sans-serif" font-weight="normal" font-size="12"/><path d="M1865.29492,1175c0,-13.25483 10.74517,-24 24,-24c13.25483,0 24,10.74517 24,24c0,13.25483 -10.74517,24 -24,24c-13.25483,0 -24,-10.74517 -24,-24z" fill="#000000" stroke-width="1" stroke-linecap="butt" stroke-dasharray="" font-family="sans-serif" font-weight="normal" font-size="12"/><g stroke="#000000" stroke-width="2" stroke-linecap="round" stroke-dasharray="" font-family="sans-serif" font-weight="normal" font-size="12"><line x1="2062.5" y1="1075" x2="2235.70508" y2="1175"/><line x1="2062.5" y1="1075" x2="1889.29492" y2="1175"/><line x1="2235.70508" y1="1175" x2="2235.70508" y2="1375"/><line x1="2235.70508" y1="1375" x2="2062.5" y2="1475"/><line x1="2062.5" y1="1475" x2="1889.29492" y2="1375"/><line x1="1889.29492" y1="1375" x2="1889.29492" y2="1175"/></g><g stroke="#000000" stroke-width="2" stroke-linecap="round" stroke-dasharray="" font-family="sans-serif" font-weight="normal" font-size="12"><line x1="1753.125" y1="1543.75" x2="1796.42627" y2="1568.75"/><line x1="1753.125" y1="1543.75" x2="1709.82373" y2="1568.75"/><line x1="1796.42627" y1="1568.75" x2="1796.42627" y2="1618.75"/><line x1="1796.42627" y1="1618.75" x2="1753.125" y2="1643.75"/><line x1="1753.125" y1="1643.75" x2="1709.82373" y2="1618.75"/><line x1="1709.82373" y1="1618.75" x2="1709.82373" y2="1568.75"/></g><g stroke="#000000" stroke-width="2" stroke-linecap="round" stroke-dasharray="" font-family="sans-serif" font-weight="normal" font-size="12"><line x1="2062.5" y1="1075" x2="2235.70508" y2="1375"/><line x1="2062.5" y1="1075" x2="1889.29492" y2="1375"/><line x1="2235.70508" y1="1175" x2="2062.5" y2="1475"/><line x1="2235.70508" y1="1175" x2="1889.29492" y2="1175"/><line x1="2235.70508" y1="1375" x2="1889.29492" y2="1375"/><line x1="2062.5" y1="1475" x2="1889.29492" y2="1175"/></g><g stroke="#000000" stroke-width="2" stroke-linecap="round" stroke-dasharray="" font-family="sans-serif" font-weight="normal" font-size="12"><line x1="2062.5" y1="1543.75" x2="2105.80127" y2="1618.75"/><line x1="2062.5" y1="1543.75" x2="2019.19873" y2="1618.75"/><line x1="2105.80127" y1="1568.75" x2="2062.5" y2="1643.75"/><line x1="2105.80127" y1="1568.75" x2="2019.19873" y2="1568.75"/><line x1="2105.80127" y1="1618.75" x2="2019.19873" y2="1618.75"/><line x1="2062.5" y1="1643.75" x2="2019.19873" y2="1568.75"/></g><g stroke="#000000" stroke-width="2" stroke-linecap="round" stroke-dasharray="" font-family="sans-serif" font-weight="normal" font-size="12"><line x1="2062.5" y1="1075" x2="2062.5" y2="1475"/><line x1="2235.70508" y1="1175" x2="1889.29492" y2="1375"/><line x1="2235.70508" y1="1375" x2="1889.29492" y2="1175"/></g><g stroke="#000000" stroke-width="2" stroke-linecap="round" stroke-dasharray="" font-family="sans-serif" font-weight="normal" font-size="12"><line x1="2371.875" y1="1543.75" x2="2371.875" y2="1643.75"/><line x1="2415.17627" y1="1568.75" x2="2328.57373" y2="1618.75"/><line x1="2415.17627" y1="1618.75" x2="2328.57373" y2="1568.75"/></g><polygon points="2475,1700 2475,850 3300,850 3300,1700" stroke="#000000" stroke-width="1" stroke-linecap="butt" stroke-dasharray="1,4" font-family="sans-serif" font-weight="normal" font-size="12"/><text x="2857.5" y="992.25" fill="#000000" stroke-width="1" stroke-linecap="butt" stroke-dasharray="" font-family="Times" font-weight="bold" font-size="120">7</text><path d="M2687.5,1275c0,-110.45695 89.54305,-200 200,-200c110.45695,0 200,89.54305 200,200c0,110.45695 -89.54305,200 -200,200c-110.45695,0 -200,-89.54305 -200,-200z" stroke="#000000" stroke-width="1" stroke-linecap="butt" stroke-dasharray="2,3" font-family="sans-serif" font-weight="normal" font-size="12"/><path d="M2863.5,1075c0,-13.25483 10.74517,-24 24,-24c13.25483,0 24,10.74517 24,24c0,13.25483 -10.74517,24 -24,24c-13.25483,0 -24,-10.74517 -24,-24z" fill="#000000" stroke-width="1" stroke-linecap="butt" stroke-dasharray="" font-family="sans-serif" font-weight="normal" font-size="12"/><path d="M3019.8663,1150.30204c0,-13.25483 10.74517,-24 24,-24c13.25483,0 24,10.74517 24,24c0,13.25483 -10.74517,24 -24,24c-13.25483,0 -24,-10.74517 -24,-24z" fill="#000000" stroke-width="1" stroke-linecap="butt" stroke-dasharray="" font-family="sans-serif" font-weight="normal" font-size="12"/><path d="M3058.48558,1319.50419c0,-13.25483 10.74517,-24 24,-24c13.25483,0 24,10.74517 24,24c0,13.25483 -10.74517,24 -24,24c-13.25483,0 -24,-10.74517 -24,-24z" fill="#000000" stroke-width="1" stroke-linecap="butt" stroke-dasharray="" font-family="sans-serif" font-weight="normal" font-size="12"/><path d="M2950.27675,1455.19377c0,-13.25483 10.74517,-24 24,-24c13.25483,0 24,10.74517 24,24c0,13.25483 -10.74517,24 -24,24c-13.25483,0 -24,-10.74517 -24,-24z" fill="#000000" stroke-width="1" stroke-linecap="butt" stroke-dasharray="" font-family="sans-serif" font-weight="normal" font-size="12"/><path d="M2776.72325,1455.19377c0,-13.25483 10.74517,-24 24,-24c13.25483,0 24,10.74517 24,24c0,13.25483 -10.74517,24 -24,24c-13.25483,0 -24,-10.74517 -24,-24z" fill="#000000" stroke-width="1" stroke-linecap="butt" stroke-dasharray="" font-family="sans-serif" font-weight="normal" font-size="12"/><path d="M2668.51442,1319.50419c0,-13.25483 10.74517,-24 24,-24c13.25483,0 24,10.74517 24,24c0,13.25483 -10.74517,24 -24,24c-13.25483,0 -24,-10.74517 -24,-24z" fill="#000000" stroke-width="1" stroke-linecap="butt" stroke-dasharray="" font-family="sans-serif" font-weight="normal" font-size="12"/><path d="M2707.1337,1150.30204c0,-13.25483 10.74517,-24 24,-24c13.25483,0 24,10.74517 24,24c0,13.25483 -10.74517,24 -24,24c-13.25483,0 -24,-10.74517 -24,-24z" fill="#000000" stroke-width="1" stroke-linecap="butt" stroke-dasharray="" font-family="sans-serif" font-weight="normal" font-size="12"/><g stroke="#000000" stroke-width="2" stroke-linecap="round" stroke-dasharray="" font-family="sans-serif" font-weight="normal" font-size="12"><line x1="2887.5" y1="1075" x2="3043.8663" y2="1150.30204"/><line x1="2887.5" y1="1075" x2="2731.1337" y2="1150.30204"/><line x1="3043.8663" y1="1150.30204" x2="3082.48558" y2="1319.50419"/><line x1="3082.48558" y1="1319.50419" x2="2974.27675" y2="1455.19377"/><line x1="2974.27675" y1="1455.19377" x2="2800.72325" y2="1455.19377"/><line x1="2800.72325" y1="1455.19377" x2="2692.51442" y2="1319.50419"/><line x1="2692.51442" y1="1319.50419" x2="2731.1337" y2="1150.30204"/></g><g stroke="#000000" stroke-width="2" stroke-linecap="round" stroke-dasharray="" font-family="sans-serif" font-weight="normal" font-size="12"><line x1="2578.125" y1="1546.22578" x2="2617.21657" y2="1565.05129"/><line x1="2578.125" y1="1546.22578" x2="2539.03343" y2="1565.05129"/><line x1="2617.21657" y1="1565.05129" x2="2626.8714" y2="1607.35183"/><line x1="2626.8714" y1="1607.35183" x2="2599.81919" y2="1641.27422"/><line x1="2599.81919" y1="1641.27422" x2="2556.43081" y2="1641.27422"/><line x1="2556.43081" y1="1641.27422" x2="2529.3786" y2="1607.35183"/><line x1="2529.3786" y1="1607.35183" x2="2539.03343" y2="1565.05129"/></g><g stroke="#000000" stroke-width="2" stroke-linecap="round" stroke-dasharray="" font-family="sans-serif" font-weight="normal" font-size="12"><line x1="2887.5" y1="1075" x2="3082.48558" y2="1319.50419"/><line x1="2887.5" y1="1075" x2="2692.51442" y2="1319.50419"/><line x1="3043.8663" y1="1150.30204" x2="2974.27675" y2="1455.19377"/><line x1="3043.8663" y1="1150.30204" x2="2731.1337" y2="1150.30204"/><line x1="3082.48558" y1="1319.50419" x2="2800.72325" y2="1455.19377"/><line x1="2974.27675" y1="1455.19377" x2="2692.51442" y2="1319.50419"/><line x1="2800.72325" y1="1455.19377" x2="2731.1337" y2="1150.30204"/></g><g stroke="#000000" stroke-width="2" stroke-linecap="round" stroke-dasharray="" font-family="sans-serif" font-weight="normal" font-size="12"><line x1="2887.5" y1="1546.22578" x2="2936.2464" y2="1607.35183"/><line x1="2887.5" y1="1546.22578" x2="2838.7536" y2="1607.35183"/><line x1="2926.59157" y1="1565.05129" x2="2909.19419" y2="1641.27422"/><line x1="2926.59157" y1="1565.05129" x2="2848.40843" y2="1565.05129"/><line x1="2936.2464" y1="1607.35183" x2="2865.80581" y2="1641.27422"/><line x1="2909.19419" y1="1641.27422" x2="2838.7536" y2="1607.35183"/><line x1="2865.80581" y1="1641.27422" x2="2848.40843" y2="1565.05129"/></g><g stroke="#000000" stroke-width="2" stroke-linecap="round" stroke-dasharray="" font-family="sans-serif" font-weight="normal" font-size="12"><line x1="2887.5" y1="1075" x2="2974.27675" y2="1455.19377"/><line x1="2887.5" y1="1075" x2="2800.72325" y2="1455.19377"/><line x1="3043.8663" y1="1150.30204" x2="2800.72325" y2="1455.19377"/><line x1="3043.8663" y1="1150.30204" x2="2692.51442" y2="1319.50419"/><line x1="3082.48558" y1="1319.50419" x2="2692.51442" y2="1319.50419"/><line x1="3082.48558" y1="1319.50419" x2="2731.1337" y2="1150.30204"/><line x1="2974.27675" y1="1455.19377" x2="2731.1337" y2="1150.30204"/></g><g stroke="#000000" stroke-width="2" stroke-linecap="round" stroke-dasharray="" font-family="sans-serif" font-weight="normal" font-size="12"><line x1="3196.875" y1="1546.22578" x2="3218.56919" y2="1641.27422"/><line x1="3196.875" y1="1546.22578" x2="3175.18081" y2="1641.27422"/><line x1="3235.96657" y1="1565.05129" x2="3175.18081" y2="1641.27422"/><line x1="3235.96657" y1="1565.05129" x2="3148.1286" y2="1607.35183"/><line x1="3245.6214" y1="1607.35183" x2="3148.1286" y2="1607.35183"/><line x1="3245.6214" y1="1607.35183" x2="3157.78343" y2="1565.05129"/><line x1="3218.56919" y1="1641.27422" x2="3157.78343" y2="1565.05129"/></g><polygon points="0,2550 0,1700 825,1700 825,2550" stroke="#000000" stroke-width="1" stroke-linecap="butt" stroke-dasharray="1,4" font-family="sans-serif" font-weight="normal" font-size="12"/><text x="382.5" y="1842.25" fill="#000000" stroke-width="1" stroke-linecap="butt" stroke-dasharray="" font-family="Times" font-weight="bold" font-size="120">8</text><path d="M212.5,2125c0,-110.45695 89.54305,-200 200,-200c110.45695,0 200,89.54305 200,200c0,110.45695 -89.54305,200 -200,200c-110.45695,0 -200,-89.54305 -200,-200z" stroke="#000000" stroke-width="1" stroke-linecap="butt" stroke-dasharray="2,3" font-family="sans-serif" font-weight="normal" font-size="12"/><path d="M388.5,1925c0,-13.25483 10.74517,-24 24,-24c13.25483,0 24,10.74517 24,24c0,13.25483 -10.74517,24 -24,24c-13.25483,0 -24,-10.74517 -24,-24z" fill="#000000" stroke-width="1" stroke-linecap="butt" stroke-dasharray="" font-family="sans-serif" font-weight="normal" font-size="12"/><path d="M529.92136,1983.57864c0,-13.25483 10.74517,-24 24,-24c13.25483,0 24,10.74517 24,24c0,13.25483 -10.74517,24 -24,24c-13.25483,0 -24,-10.74517 -24,-24z" fill="#000000" stroke-width="1" stroke-linecap="butt" stroke-dasharray="" font-family="sans-serif" font-weight="normal" font-size="12"/><path d="M588.5,2125c0,-13.25483 10.74517,-24 24,-24c13.25483,0 24,10.74517 24,24c0,13.25483 -10.74517,24 -24,24c-13.25483,0 -24,-10.74517 -24,-24z" fill="#000000" stroke-width="1" stroke-linecap="butt" stroke-dasharray="" font-family="sans-serif" font-weight="normal" font-size="12"/><path d="M529.92136,2266.42136c0,-13.25483 10.74517,-24 24,-24c13.25483,0 24,10.74517 24,24c0,13.25483 -10.74517,24 -24,24c-13.25483,0 -24,-10.74517 -24,-24z" fill="#000000" stroke-width="1" stroke-linecap="butt" stroke-dasharray="" font-family="sans-serif" font-weight="normal" font-size="12"/><path d="M388.5,2325c0,-13.25483 10.74517,-24 24,-24c13.25483,0 24,10.74517 24,24c0,13.25483 -10.74517,24 -24,24c-13.25483,0 -24,-10.74517 -24,-24z" fill="#000000" stroke-width="1" stroke-linecap="butt" stroke-dasharray="" font-family="sans-serif" font-weight="normal" font-size="12"/><path d="M247.07864,2266.42136c0,-13.25483 10.74517,-24 24,-24c13.25483,0 24,10.74517 24,24c0,13.25483 -10.74517,24 -24,24c-13.25483,0 -24,-10.74517 -24,-24z" fill="#000000" stroke-width="1" stroke-linecap="butt" stroke-dasharray="" font-family="sans-serif" font-weight="normal" font-size="12"/><path d="M188.5,2125c0,-13.25483 10.74517,-24 24,-24c13.25483,0 24,10.74517 24,24c0,13.25483 -10.74517,24 -24,24c-13.25483,0 -24,-10.74517 -24,-24z" fill="#000000" stroke-width="1" stroke-linecap="butt" stroke-dasharray="" font-family="sans-serif" font-weight="normal" font-size="12"/><path d="M247.07864,1983.57864c0,-13.25483 10.74517,-24 24,-24c13.25483,0 24,10.74517 24,24c0,13.25483 -10.74517,24 -24,24c-13.25483,0 -24,-10.74517 -24,-24z" fill="#000000" stroke-width="1" stroke-linecap="butt" stroke-dasharray="" font-family="sans-serif" font-weight="normal" font-size="12"/><g stroke="#000000" stroke-width="2" stroke-linecap="round" stroke-dasharray="" font-family="sans-serif" font-weight="normal" font-size="12"><line x1="412.5" y1="1925" x2="553.92136" y2="1983.57864"/><line x1="412.5" y1="1925" x2="271.07864" y2="1983.57864"/><line x1="553.92136" y1="1983.57864" x2="612.5" y2="2125"/><line x1="612.5" y1="2125" x2="553.92136" y2="2266.42136"/><line x1="553.92136" y1="2266.42136" x2="412.5" y2="2325"/><line x1="412.5" y1="2325" x2="271.07864" y2="2266.42136"/><line x1="271.07864" y1="2266.42136" x2="212.5" y2="2125"/><line x1="212.5" y1="2125" x2="271.07864" y2="1983.57864"/></g><g stroke="#000000" stroke-width="2" stroke-linecap="round" stroke-dasharray="" font-family="sans-serif" font-weight="normal" font-size="12"><line x1="103.125" y1="2393.75" x2="138.48034" y2="2408.39466"/><line x1="103.125" y1="2393.75" x2="67.76966" y2="2408.39466"/><line x1="138.48034" y1="2408.39466" x2="153.125" y2="2443.75"/><line x1="153.125" y1="2443.75" x2="138.48034" y2="2479.10534"/><line x1="138.48034" y1="2479.10534" x2="103.125" y2="2493.75"/><line x1="103.125" y1="2493.75" x2="67.76966" y2="2479.10534"/><line x1="67.76966" y1="2479.10534" x2="53.125" y2="2443.75"/><line x1="53.125" y1="2443.75" x2="67.76966" y2="2408.39466"/></g><g stroke="#000000" stroke-width="2" stroke-linecap="round" stroke-dasharray="" font-family="sans-serif" font-weight="normal" font-size="12"><line x1="412.5" y1="1925" x2="612.5" y2="2125"/><line x1="412.5" y1="1925" x2="212.5" y2="2125"/><line x1="553.92136" y1="1983.57864" x2="553.92136" y2="2266.42136"/><line x1="553.92136" y1="1983.57864" x2="271.07864" y2="1983.57864"/><line x1="612.5" y1="2125" x2="412.5" y2="2325"/><line x1="553.92136" y1="2266.42136" x2="271.07864" y2="2266.42136"/><line x1="412.5" y1="2325" x2="212.5" y2="2125"/><line x1="271.07864" y1="2266.42136" x2="271.07864" y2="1983.57864"/></g><g stroke="#000000" stroke-width="2" stroke-linecap="round" stroke-dasharray="" font-family="sans-serif" font-weight="normal" font-size="12"><line x1="309.375" y1="2393.75" x2="359.375" y2="2443.75"/><line x1="309.375" y1="2393.75" x2="259.375" y2="2443.75"/><line x1="344.73034" y1="2408.39466" x2="344.73034" y2="2479.10534"/><line x1="344.73034" y1="2408.39466" x2="274.01966" y2="2408.39466"/><line x1="359.375" y1="2443.75" x2="309.375" y2="2493.75"/><line x1="344.73034" y1="2479.10534" x2="274.01966" y2="2479.10534"/><line x1="309.375" y1="2493.75" x2="259.375" y2="2443.75"/><line x1="274.01966" y1="2479.10534" x2="274.01966" y2="2408.39466"/></g><g stroke="#000000" stroke-width="2" stroke-linecap="round" stroke-dasharray="" font-family="sans-serif" font-weight="normal" font-size="12"><line x1="412.5" y1="1925" x2="553.92136" y2="2266.42136"/><line x1="412.5" y1="1925" x2="271.07864" y2="2266.42136"/><line x1="553.92136" y1="1983.57864" x2="412.5" y2="2325"/><line x1="553.92136" y1="1983.57864" x2="212.5" y2="2125"/><line x1="612.5" y1="2125" x2="271.07864" y2="2266.42136"/><line x1="612.5" y1="2125" x2="271.07864" y2="1983.57864"/><line x1="553.92136" y1="2266.42136" x2="212.5" y2="2125"/><line x1="412.5" y1="2325" x2="271.07864" y2="1983.57864"/></g><g stroke="#000000" stroke-width="2" stroke-linecap="round" stroke-dasharray="" font-family="sans-serif" font-weight="normal" font-size="12"><line x1="515.625" y1="2393.75" x2="550.98034" y2="2479.10534"/><line x1="515.625" y1="2393.75" x2="480.26966" y2="2479.10534"/><line x1="550.98034" y1="2408.39466" x2="515.625" y2="2493.75"/><line x1="550.98034" y1="2408.39466" x2="465.625" y2="2443.75"/><line x1="565.625" y1="2443.75" x2="480.26966" y2="2479.10534"/><line x1="565.625" y1="2443.75" x2="480.26966" y2="2408.39466"/><line x1="550.98034" y1="2479.10534" x2="465.625" y2="2443.75"/><line x1="515.625" y1="2493.75" x2="480.26966" y2="2408.39466"/></g><g stroke="#000000" stroke-width="2" stroke-linecap="round" stroke-dasharray="" font-family="sans-serif" font-weight="normal" font-size="12"><line x1="412.5" y1="1925" x2="412.5" y2="2325"/><line x1="553.92136" y1="1983.57864" x2="271.07864" y2="2266.42136"/><line x1="612.5" y1="2125" x2="212.5" y2="2125"/><line x1="553.92136" y1="2266.42136" x2="271.07864" y2="1983.57864"/></g><g stroke="#000000" stroke-width="2" stroke-linecap="round" stroke-dasharray="" font-family="sans-serif" font-weight="normal" font-size="12"><line x1="721.875" y1="2393.75" x2="721.875" y2="2493.75"/><line x1="757.23034" y1="2408.39466" x2="686.51966" y2="2479.10534"/><line x1="771.875" y1="2443.75" x2="671.875" y2="2443.75"/><line x1="757.23034" y1="2479.10534" x2="686.51966" y2="2408.39466"/></g><polygon points="825,2550 825,1700 1650,1700 1650,2550" stroke="#000000" stroke-width="1" stroke-linecap="butt" stroke-dasharray="1,4" font-family="sans-serif" font-weight="normal" font-size="12"/><text x="1207.5" y="1842.25" fill="#000000" stroke-width="1" stroke-linecap="butt" stroke-dasharray="" font-family="Times" font-weight="bold" font-size="120">9</text><path d="M1037.5,2125c0,-110.45695 89.54305,-200 200,-200c110.45695,0 200,89.54305 200,200c0,110.45695 -89.54305,200 -200,200c-110.45695,0 -200,-89.54305 -200,-200z" stroke="#000000" stroke-width="1" stroke-linecap="butt" stroke-dasharray="2,3" font-family="sans-serif" font-weight="normal" font-size="12"/><path d="M1213.5,1925c0,-13.25483 10.74517,-24 24,-24c13.25483,0 24,10.74517 24,24c0,13.25483 -10.74517,24 -24,24c-13.25483,0 -24,-10.74517 -24,-24z" fill="#000000" stroke-width="1" stroke-linecap="butt" stroke-dasharray="" font-family="sans-serif" font-weight="normal" font-size="12"/><path d="M1342.05752,1971.79111c0,-13.25483 10.74517,-24 24,-24c13.25483,0 24,10.74517 24,24c0,13.25483 -10.74517,24 -24,24c-13.25483,0 -24,-10.74517 -24,-24z" fill="#000000" stroke-width="1" stroke-linecap="butt" stroke-dasharray="" font-family="sans-serif" font-weight="normal" font-size="12"/><path d="M1410.46155,2090.27036c0,-13.25483 10.74517,-24 24,-24c13.25483,0 24,10.74517 24,24c0,13.25483 -10.74517,24 -24,24c-13.25483,0 -24,-10.74517 -24,-24z" fill="#000000" stroke-width="1" stroke-linecap="butt" stroke-dasharray="" font-family="sans-serif" font-weight="normal" font-size="12"/><path d="M1386.70508,2225c0,-13.25483 10.74517,-24 24,-24c13.25483,0 24,10.74517 24,24c0,13.25483 -10.74517,24 -24,24c-13.25483,0 -24,-10.74517 -24,-24z" fill="#000000" stroke-width="1" stroke-linecap="butt" stroke-dasharray="" font-family="sans-serif" font-weight="normal" font-size="12"/><path d="M1281.90403,2312.93852c0,-13.25483 10.74517,-24 24,-24c13.25483,0 24,10.74517 24,24c0,13.25483 -10.74517,24 -24,24c-13.25483,0 -24,-10.74517 -24,-24z" fill="#000000" stroke-width="1" stroke-linecap="butt" stroke-dasharray="" font-family="sans-serif" font-weight="normal" font-size="12"/><path d="M1145.09597,2312.93852c0,-13.25483 10.74517,-24 24,-24c13.25483,0 24,10.74517 24,24c0,13.25483 -10.74517,24 -24,24c-13.25483,0 -24,-10.74517 -24,-24z" fill="#000000" stroke-width="1" stroke-linecap="butt" stroke-dasharray="" font-family="sans-serif" font-weight="normal" font-size="12"/><path d="M1040.29492,2225c0,-13.25483 10.74517,-24 24,-24c13.25483,0 24,10.74517 24,24c0,13.25483 -10.74517,24 -24,24c-13.25483,0 -24,-10.74517 -24,-24z" fill="#000000" stroke-width="1" stroke-linecap="butt" stroke-dasharray="" font-family="sans-serif" font-weight="normal" font-size="12"/><path d="M1016.53845,2090.27036c0,-13.25483 10.74517,-24 24,-24c13.25483,0 24,10.74517 24,24c0,13.25483 -10.74517,24 -24,24c-13.25483,0 -24,-10.74517 -24,-24z" fill="#000000" stroke-width="1" stroke-linecap="butt" stroke-dasharray="" font-family="sans-serif" font-weight="normal" font-size="12"/><path d="M1084.94248,1971.79111c0,-13.25483 10.74517,-24 24,-24c13.25483,0 24,10.74517 24,24c0,13.25483 -10.74517,24 -24,24c-13.25483,0 -24,-10.74517 -24,-24z" fill="#000000" stroke-width="1" stroke-linecap="butt" stroke-dasharray="" font-family="sans-serif" font-weight="normal" font-size="12"/><g stroke="#000000" stroke-width="2" stroke-linecap="round" stroke-dasharray="" font-family="sans-serif" font-weight="normal" font-size="12"><line x1="1237.5" y1="1925" x2="1366.05752" y2="1971.79111"/><line x1="1237.5" y1="1925" x2="1108.94248" y2="1971.79111"/><line x1="1366.05752" y1="1971.79111" x2="1434.46155" y2="2090.27036"/><line x1="1434.46155" y1="2090.27036" x2="1410.70508" y2="2225"/><line x1="1410.70508" y1="2225" x2="1305.90403" y2="2312.93852"/><line x1="1305.90403" y1="2312.93852" x2="1169.09597" y2="2312.93852"/><line x1="1169.09597" y1="2312.93852" x2="1064.29492" y2="2225"/><line x1="1064.29492" y1="2225" x2="1040.53845" y2="2090.27036"/><line x1="1040.53845" y1="2090.27036" x2="1108.94248" y2="1971.79111"/></g><g stroke="#000000" stroke-width="2" stroke-linecap="round" stroke-dasharray="" font-family="sans-serif" font-weight="normal" font-size="12"><line x1="928.125" y1="2395.25768" x2="960.26438" y2="2406.95546"/><line x1="928.125" y1="2395.25768" x2="895.98562" y2="2406.95546"/><line x1="960.26438" y1="2406.95546" x2="977.36539" y2="2436.57528"/><line x1="977.36539" y1="2436.57528" x2="971.42627" y2="2470.25768"/><line x1="971.42627" y1="2470.25768" x2="945.22601" y2="2492.24232"/><line x1="945.22601" y1="2492.24232" x2="911.02399" y2="2492.24232"/><line x1="911.02399" y1="2492.24232" x2="884.82373" y2="2470.25768"/><line x1="884.82373" y1="2470.25768" x2="878.88461" y2="2436.57528"/><line x1="878.88461" y1="2436.57528" x2="895.98562" y2="2406.95546"/></g><g stroke="#000000" stroke-width="2" stroke-linecap="round" stroke-dasharray="" font-family="sans-serif" font-weight="normal" font-size="12"><line x1="1237.5" y1="1925" x2="1434.46155" y2="2090.27036"/><line x1="1237.5" y1="1925" x2="1040.53845" y2="2090.27036"/><line x1="1366.05752" y1="1971.79111" x2="1410.70508" y2="2225"/><line x1="1366.05752" y1="1971.79111" x2="1108.94248" y2="1971.79111"/><line x1="1434.46155" y1="2090.27036" x2="1305.90403" y2="2312.93852"/><line x1="1410.70508" y1="2225" x2="1169.09597" y2="2312.93852"/><line x1="1305.90403" y1="2312.93852" x2="1064.29492" y2="2225"/><line x1="1169.09597" y1="2312.93852" x2="1040.53845" y2="2090.27036"/><line x1="1064.29492" y1="2225" x2="1108.94248" y2="1971.79111"/></g><g stroke="#000000" stroke-width="2" stroke-linecap="round" stroke-dasharray="" font-family="sans-serif" font-weight="normal" font-size="12"><line x1="1134.375" y1="2395.25768" x2="1183.61539" y2="2436.57528"/><line x1="1134.375" y1="2395.25768" x2="1085.13461" y2="2436.57528"/><line x1="1166.51438" y1="2406.95546" x2="1177.67627" y2="2470.25768"/><line x1="1166.51438" y1="2406.95546" x2="1102.23562" y2="2406.95546"/><line x1="1183.61539" y1="2436.57528" x2="1151.47601" y2="2492.24232"/><line x1="1177.67627" y1="2470.25768" x2="1117.27399" y2="2492.24232"/><line x1="1151.47601" y1="2492.24232" x2="1091.07373" y2="2470.25768"/><line x1="1117.27399" y1="2492.24232" x2="1085.13461" y2="2436.57528"/><line x1="1091.07373" y1="2470.25768" x2="1102.23562" y2="2406.95546"/></g><g stroke="#000000" stroke-width="2" stroke-linecap="round" stroke-dasharray="" font-family="sans-serif" font-weight="normal" font-size="12"><line x1="1237.5" y1="1925" x2="1410.70508" y2="2225"/><line x1="1237.5" y1="1925" x2="1064.29492" y2="2225"/><line x1="1366.05752" y1="1971.79111" x2="1305.90403" y2="2312.93852"/><line x1="1366.05752" y1="1971.79111" x2="1040.53845" y2="2090.27036"/><line x1="1434.46155" y1="2090.27036" x2="1169.09597" y2="2312.93852"/><line x1="1434.46155" y1="2090.27036" x2="1108.94248" y2="1971.79111"/><line x1="1410.70508" y1="2225" x2="1064.29492" y2="2225"/><line x1="1305.90403" y1="2312.93852" x2="1040.53845" y2="2090.27036"/><line x1="1169.09597" y1="2312.93852" x2="1108.94248" y2="1971.79111"/></g><g stroke="#000000" stroke-width="2" stroke-linecap="round" stroke-dasharray="" font-family="sans-serif" font-weight="normal" font-size="12"><line x1="1340.625" y1="2395.25768" x2="1383.92627" y2="2470.25768"/><line x1="1340.625" y1="2395.25768" x2="1297.32373" y2="2470.25768"/><line x1="1372.76438" y1="2406.95546" x2="1357.72601" y2="2492.24232"/><line x1="1372.76438" y1="2406.95546" x2="1291.38461" y2="2436.57528"/><line x1="1389.86539" y1="2436.57528" x2="1323.52399" y2="2492.24232"/><line x1="1389.86539" y1="2436.57528" x2="1308.48562" y2="2406.95546"/><line x1="1383.92627" y1="2470.25768" x2="1297.32373" y2="2470.25768"/><line x1="1357.72601" y1="2492.24232" x2="1291.38461" y2="2436.57528"/><line x1="1323.52399" y1="2492.24232" x2="1308.48562" y2="2406.95546"/></g><g stroke="#000000" stroke-width="2" stroke-linecap="round" stroke-dasharray="" font-family="sans-serif" font-weight="normal" font-size="12"><line x1="1237.5" y1="1925" x2="1305.90403" y2="2312.93852"/><line x1="1237.5" y1="1925" x2="1169.09597" y2="2312.93852"/><line x1="1366.05752" y1="1971.79111" x2="1169.09597" y2="2312.93852"/><line x1="1366.05752" y1="1971.79111" x2="1064.29492" y2="2225"/><line x1="1434.46155" y1="2090.27036" x2="1064.29492" y2="2225"/><line x1="1434.46155" y1="2090.27036" x2="1040.53845" y2="2090.27036"/><line x1="1410.70508" y1="2225" x2="1040.53845" y2="2090.27036"/><line x1="1410.70508" y1="2225" x2="1108.94248" y2="1971.79111"/><line x1="1305.90403" y1="2312.93852" x2="1108.94248" y2="1971.79111"/></g><g stroke="#000000" stroke-width="2" stroke-linecap="round" stroke-dasharray="" font-family="sans-serif" font-weight="normal" font-size="12"><line x1="1546.875" y1="2395.25768" x2="1563.97601" y2="2492.24232"/><line x1="1546.875" y1="2395.25768" x2="1529.77399" y2="2492.24232"/><line x1="1579.01438" y1="2406.95546" x2="1529.77399" y2="2492.24232"/><line x1="1579.01438" y1="2406.95546" x2="1503.57373" y2="2470.25768"/><line x1="1596.11539" y1="2436.57528" x2="1503.57373" y2="2470.25768"/><line x1="1596.11539" y1="2436.57528" x2="1497.63461" y2="2436.57528"/><line x1="1590.17627" y1="2470.25768" x2="1497.63461" y2="2436.57528"/><line x1="1590.17627" y1="2470.25768" x2="1514.73562" y2="2406.95546"/><line x1="1563.97601" y1="2492.24232" x2="1514.73562" y2="2406.95546"/></g><polygon points="1650,2550 1650,1700 2475,1700 2475,2550" stroke="#000000" stroke-width="1" stroke-linecap="butt" stroke-dasharray="1,4" font-family="sans-serif" font-weight="normal" font-size="12"/><text x="2002.5" y="1842.25" fill="#000000" stroke-width="1" stroke-linecap="butt" stroke-dasharray="" font-family="Times" font-weight="bold" font-size="120">10</text><path d="M1862.5,2125c0,-110.45695 89.54305,-200 200,-200c110.45695,0 200,89.54305 200,200c0,110.45695 -89.54305,200 -200,200c-110.45695,0 -200,-89.54305 -200,-200z" stroke="#000000" stroke-width="1" stroke-linecap="butt" stroke-dasharray="2,3" font-family="sans-serif" font-weight="normal" font-size="12"/><path d="M2038.5,1925c0,-13.25483 10.74517,-24 24,-24c13.25483,0 24,10.74517 24,24c0,13.25483 -10.74517,24 -24,24c-13.25483,0 -24,-10.74517 -24,-24z" fill="#000000" stroke-width="1" stroke-linecap="butt" stroke-dasharray="" font-family="sans-serif" font-weight="normal" font-size="12"/><path d="M2156.05705,1963.1966c0,-13.25483 10.74517,-24 24,-24c13.25483,0 24,10.74517 24,24c0,13.25483 -10.74517,24 -24,24c-13.25483,0 -24,-10.74517 -24,-24z" fill="#000000" stroke-width="1" stroke-linecap="butt" stroke-dasharray="" font-family="sans-serif" font-weight="normal" font-size="12"/><path d="M2228.7113,2063.1966c0,-13.25483 10.74517,-24 24,-24c13.25483,0 24,10.74517 24,24c0,13.25483 -10.74517,24 -24,24c-13.25483,0 -24,-10.74517 -24,-24z" fill="#000000" stroke-width="1" stroke-linecap="butt" stroke-dasharray="" font-family="sans-serif" font-weight="normal" font-size="12"/><path d="M2228.7113,2186.8034c0,-13.25483 10.74517,-24 24,-24c13.25483,0 24,10.74517 24,24c0,13.25483 -10.74517,24 -24,24c-13.25483,0 -24,-10.74517 -24,-24z" fill="#000000" stroke-width="1" stroke-linecap="butt" stroke-dasharray="" font-family="sans-serif" font-weight="normal" font-size="12"/><path d="M2156.05705,2286.8034c0,-13.25483 10.74517,-24 24,-24c13.25483,0 24,10.74517 24,24c0,13.25483 -10.74517,24 -24,24c-13.25483,0 -24,-10.74517 -24,-24z" fill="#000000" stroke-width="1" stroke-linecap="butt" stroke-dasharray="" font-family="sans-serif" font-weight="normal" font-size="12"/><path d="M2038.5,2325c0,-13.25483 10.74517,-24 24,-24c13.25483,0 24,10.74517 24,24c0,13.25483 -10.74517,24 -24,24c-13.25483,0 -24,-10.74517 -24,-24z" fill="#000000" stroke-width="1" stroke-linecap="butt" stroke-dasharray="" font-family="sans-serif" font-weight="normal" font-size="12"/><path d="M1920.94295,2286.8034c0,-13.25483 10.74517,-24 24,-24c13.25483,0 24,10.74517 24,24c0,13.25483 -10.74517,24 -24,24c-13.25483,0 -24,-10.74517 -24,-24z" fill="#000000" stroke-width="1" stroke-linecap="butt" stroke-dasharray="" font-family="sans-serif" font-weight="normal" font-size="12"/><path d="M1848.2887,2186.8034c0,-13.25483 10.74517,-24 24,-24c13.25483,0 24,10.74517 24,24c0,13.25483 -10.74517,24 -24,24c-13.25483,0 -24,-10.74517 -24,-24z" fill="#000000" stroke-width="1" stroke-linecap="butt" stroke-dasharray="" font-family="sans-serif" font-weight="normal" font-size="12"/><path d="M1848.2887,2063.1966c0,-13.25483 10.74517,-24 24,-24c13.25483,0 24,10.74517 24,24c0,13.25483 -10.74517,24 -24,24c-13.25483,0 -24,-10.74517 -24,-24z" fill="#000000" stroke-width="1" stroke-linecap="butt" stroke-dasharray="" font-family="sans-serif" font-weight="normal" font-size="12"/><path d="M1920.94295,1963.1966c0,-13.25483 10.74517,-24 24,-24c13.25483,0 24,10.74517 24,24c0,13.25483 -10.74517,24 -24,24c-13.25483,0 -24,-10.74517 -24,-24z" fill="#000000" stroke-width="1" stroke-linecap="butt" stroke-dasharray="" font-family="sans-serif" font-weight="normal" font-size="12"/><g stroke="#000000" stroke-width="2" stroke-linecap="round" stroke-dasharray="" font-family="sans-serif" font-weight="normal" font-size="12"><line x1="2062.5" y1="1925" x2="2180.05705" y2="1963.1966"/><line x1="2062.5" y1="1925" x2="1944.94295" y2="1963.1966"/><line x1="2180.05705" y1="1963.1966" x2="2252.7113" y2="2063.1966"/><line x1="2252.7113" y1="2063.1966" x2="2252.7113" y2="2186.8034"/><line x1="2252.7113" y1="2186.8034" x2="2180.05705" y2="2286.8034"/><line x1="2180.05705" y1="2286.8034" x2="2062.5" y2="2325"/><line x1="2062.5" y1="2325" x2="1944.94295" y2="2286.8034"/><line x1="1944.94295" y1="2286.8034" x2="1872.2887" y2="2186.8034"/><line x1="1872.2887" y1="2186.8034" x2="1872.2887" y2="2063.1966"/><line x1="1872.2887" y1="2063.1966" x2="1944.94295" y2="1963.1966"/></g><g stroke="#000000" stroke-width="2" stroke-linecap="round" stroke-dasharray="" font-family="sans-serif" font-weight="normal" font-size="12"><line x1="1753.125" y1="2393.75" x2="1782.51426" y2="2403.29915"/><line x1="1753.125" y1="2393.75" x2="1723.73574" y2="2403.29915"/><line x1="1782.51426" y1="2403.29915" x2="1800.67783" y2="2428.29915"/><line x1="1800.67783" y1="2428.29915" x2="1800.67783" y2="2459.20085"/><line x1="1800.67783" y1="2459.20085" x2="1782.51426" y2="2484.20085"/><line x1="1782.51426" y1="2484.20085" x2="1753.125" y2="2493.75"/><line x1="1753.125" y1="2493.75" x2="1723.73574" y2="2484.20085"/><line x1="1723.73574" y1="2484.20085" x2="1705.57217" y2="2459.20085"/><line x1="1705.57217" y1="2459.20085" x2="1705.57217" y2="2428.29915"/><line x1="1705.57217" y1="2428.29915" x2="1723.73574" y2="2403.29915"/></g><g stroke="#000000" stroke-width="2" stroke-linecap="round" stroke-dasharray="" font-family="sans-serif" font-weight="normal" font-size="12"><line x1="2062.5" y1="1925" x2="2252.7113" y2="2063.1966"/><line x1="2062.5" y1="1925" x2="1872.2887" y2="2063.1966"/><line x1="2180.05705" y1="1963.1966" x2="2252.7113" y2="2186.8034"/><line x1="2180.05705" y1="1963.1966" x2="1944.94295" y2="1963.1966"/><line x1="2252.7113" y1="2063.1966" x2="2180.05705" y2="2286.8034"/><line x1="2252.7113" y1="2186.8034" x2="2062.5" y2="2325"/><line x1="2180.05705" y1="2286.8034" x2="1944.94295" y2="2286.8034"/><line x1="2062.5" y1="2325" x2="1872.2887" y2="2186.8034"/><line x1="1944.94295" y1="2286.8034" x2="1872.2887" y2="2063.1966"/><line x1="1872.2887" y1="2186.8034" x2="1944.94295" y2="1963.1966"/></g><g stroke="#000000" stroke-width="2" stroke-linecap="round" stroke-dasharray="" font-family="sans-serif" font-weight="normal" font-size="12"><line x1="1907.8125" y1="2393.75" x2="1955.36533" y2="2428.29915"/><line x1="1907.8125" y1="2393.75" x2="1860.25967" y2="2428.29915"/><line x1="1937.20176" y1="2403.29915" x2="1955.36533" y2="2459.20085"/><line x1="1937.20176" y1="2403.29915" x2="1878.42324" y2="2403.29915"/><line x1="1955.36533" y1="2428.29915" x2="1937.20176" y2="2484.20085"/><line x1="1955.36533" y1="2459.20085" x2="1907.8125" y2="2493.75"/><line x1="1937.20176" y1="2484.20085" x2="1878.42324" y2="2484.20085"/><line x1="1907.8125" y1="2493.75" x2="1860.25967" y2="2459.20085"/><line x1="1878.42324" y1="2484.20085" x2="1860.25967" y2="2428.29915"/><line x1="1860.25967" y1="2459.20085" x2="1878.42324" y2="2403.29915"/></g><g stroke="#000000" stroke-width="2" stroke-linecap="round" stroke-dasharray="" font-family="sans-serif" font-weight="normal" font-size="12"><line x1="2062.5" y1="1925" x2="2252.7113" y2="2186.8034"/><line x1="2062.5" y1="1925" x2="1872.2887" y2="2186.8034"/><line x1="2180.05705" y1="1963.1966" x2="2180.05705" y2="2286.8034"/><line x1="2180.05705" y1="1963.1966" x2="1872.2887" y2="2063.1966"/><line x1="2252.7113" y1="2063.1966" x2="2062.5" y2="2325"/><line x1="2252.7113" y1="2063.1966" x2="1944.94295" y2="1963.1966"/><line x1="2252.7113" y1="2186.8034" x2="1944.94295" y2="2286.8034"/><line x1="2180.05705" y1="2286.8034" x2="1872.2887" y2="2186.8034"/><line x1="2062.5" y1="2325" x2="1872.2887" y2="2063.1966"/><line x1="1944.94295" y1="2286.8034" x2="1944.94295" y2="1963.1966"/></g><g stroke="#000000" stroke-width="2" stroke-linecap="round" stroke-dasharray="" font-family="sans-serif" font-weight="normal" font-size="12"><line x1="2062.5" y1="2393.75" x2="2110.05283" y2="2459.20085"/><line x1="2062.5" y1="2393.75" x2="2014.94717" y2="2459.20085"/><line x1="2091.88926" y1="2403.29915" x2="2091.88926" y2="2484.20085"/><line x1="2091.88926" y1="2403.29915" x2="2014.94717" y2="2428.29915"/><line x1="2110.05283" y1="2428.29915" x2="2062.5" y2="2493.75"/><line x1="2110.05283" y1="2428.29915" x2="2033.11074" y2="2403.29915"/><line x1="2110.05283" y1="2459.20085" x2="2033.11074" y2="2484.20085"/><line x1="2091.88926" y1="2484.20085" x2="2014.94717" y2="2459.20085"/><line x1="2062.5" y1="2493.75" x2="2014.94717" y2="2428.29915"/><line x1="2033.11074" y1="2484.20085" x2="2033.11074" y2="2403.29915"/></g><g stroke="#000000" stroke-width="2" stroke-linecap="round" stroke-dasharray="" font-family="sans-serif" font-weight="normal" font-size="12"><line x1="2062.5" y1="1925" x2="2180.05705" y2="2286.8034"/><line x1="2062.5" y1="1925" x2="1944.94295" y2="2286.8034"/><line x1="2180.05705" y1="1963.1966" x2="2062.5" y2="2325"/><line x1="2180.05705" y1="1963.1966" x2="1872.2887" y2="2186.8034"/><line x1="2252.7113" y1="2063.1966" x2="1944.94295" y2="2286.8034"/><line x1="2252.7113" y1="2063.1966" x2="1872.2887" y2="2063.1966"/><line x1="2252.7113" y1="2186.8034" x2="1872.2887" y2="2186.8034"/><line x1="2252.7113" y1="2186.8034" x2="1944.94295" y2="1963.1966"/><line x1="2180.05705" y1="2286.8034" x2="1872.2887" y2="2063.1966"/><line x1="2062.5" y1="2325" x2="1944.94295" y2="1963.1966"/></g><g stroke="#000000" stroke-width="2" stroke-linecap="round" stroke-dasharray="" font-family="sans-serif" font-weight="normal" font-size="12"><line x1="2217.1875" y1="2393.75" x2="2246.57676" y2="2484.20085"/><line x1="2217.1875" y1="2393.75" x2="2187.79824" y2="2484.20085"/><line x1="2246.57676" y1="2403.29915" x2="2217.1875" y2="2493.75"/><line x1="2246.57676" y1="2403.29915" x2="2169.63467" y2="2459.20085"/><line x1="2264.74033" y1="2428.29915" x2="2187.79824" y2="2484.20085"/><line x1="2264.74033" y1="2428.29915" x2="2169.63467" y2="2428.29915"/><line x1="2264.74033" y1="2459.20085" x2="2169.63467" y2="2459.20085"/><line x1="2264.74033" y1="2459.20085" x2="2187.79824" y2="2403.29915"/><line x1="2246.57676" y1="2484.20085" x2="2169.63467" y2="2428.29915"/><line x1="2217.1875" y1="2493.75" x2="2187.79824" y2="2403.29915"/></g><g stroke="#000000" stroke-width="2" stroke-linecap="round" stroke-dasharray="" font-family="sans-serif" font-weight="normal" font-size="12"><line x1="2062.5" y1="1925" x2="2062.5" y2="2325"/><line x1="2180.05705" y1="1963.1966" x2="1944.94295" y2="2286.8034"/><line x1="2252.7113" y1="2063.1966" x2="1872.2887" y2="2186.8034"/><line x1="2252.7113" y1="2186.8034" x2="1872.2887" y2="2063.1966"/><line x1="2180.05705" y1="2286.8034" x2="1944.94295" y2="1963.1966"/></g><g stroke="#000000" stroke-width="2" stroke-linecap="round" stroke-dasharray="" font-family="sans-serif" font-weight="normal" font-size="12"><line x1="2371.875" y1="2393.75" x2="2371.875" y2="2493.75"/><line x1="2401.26426" y1="2403.29915" x2="2342.48574" y2="2484.20085"/><line x1="2419.42783" y1="2428.29915" x2="2324.32217" y2="2459.20085"/><line x1="2419.42783" y1="2459.20085" x2="2324.32217" y2="2428.29915"/><line x1="2401.26426" y1="2484.20085" x2="2342.48574" y2="2403.29915"/></g><polygon points="2475,2550 2475,1700 3300,1700 3300,2550" stroke="#000000" stroke-width="1" stroke-linecap="butt" stroke-dasharray="1,4" font-family="sans-serif" font-weight="normal" font-size="12"/><text x="2830.78125" y="1842.25" fill="#000000" stroke-width="1" stroke-linecap="butt" stroke-dasharray="" font-family="Times" font-weight="bold" font-size="120">11</text><path d="M2687.5,2125c0,-110.45695 89.54305,-200 200,-200c110.45695,0 200,89.54305 200,200c0,110.45695 -89.54305,200 -200,200c-110.45695,0 -200,-89.54305 -200,-200z" stroke="#000000" stroke-width="1" stroke-linecap="butt" stroke-dasharray="2,3" font-family="sans-serif" font-weight="normal" font-size="12"/><g stroke="#000000" stroke-width="2" stroke-linecap="round" stroke-dasharray="" font-family="sans-serif" font-weight="normal" font-size="12"><line x1="2887.5" y1="1925" x2="2995.62816" y2="1956.74929"/><line x1="2887.5" y1="1925" x2="2779.37184" y2="1956.74929"/><line x1="2995.62816" y1="1956.74929" x2="3069.4264" y2="2041.917"/><line x1="3069.4264" y1="2041.917" x2="3085.46429" y2="2153.46297"/><line x1="3085.46429" y1="2153.46297" x2="3038.64991" y2="2255.97215"/><line x1="3038.64991" y1="2255.97215" x2="2943.84651" y2="2316.89859"/><line x1="2943.84651" y1="2316.89859" x2="2831.15349" y2="2316.89859"/><line x1="2831.15349" y1="2316.89859" x2="2736.35009" y2="2255.97215"/><line x1="2736.35009" y1="2255.97215" x2="2689.53571" y2="2153.46297"/><line x1="2689.53571" y1="2153.46297" x2="2705.5736" y2="2041.917"/><line x1="2705.5736" y1="2041.917" x2="2779.37184" y2="1956.74929"/></g><g stroke="#000000" stroke-width="2" stroke-linecap="round" stroke-dasharray="" font-family="sans-serif" font-weight="normal" font-size="12"><line x1="2578.125" y1="2394.76268" x2="2605.15704" y2="2402.7"/><line x1="2578.125" y1="2394.76268" x2="2551.09296" y2="2402.7"/><line x1="2605.15704" y1="2402.7" x2="2623.6066" y2="2423.99193"/><line x1="2623.6066" y1="2423.99193" x2="2627.61607" y2="2451.87842"/><line x1="2627.61607" y1="2451.87842" x2="2615.91248" y2="2477.50571"/><line x1="2615.91248" y1="2477.50571" x2="2592.21163" y2="2492.73732"/><line x1="2592.21163" y1="2492.73732" x2="2564.03837" y2="2492.73732"/><line x1="2564.03837" y1="2492.73732" x2="2540.33752" y2="2477.50571"/><line x1="2540.33752" y1="2477.50571" x2="2528.63393" y2="2451.87842"/><line x1="2528.63393" y1="2451.87842" x2="2532.6434" y2="2423.99193"/><line x1="2532.6434" y1="2423.99193" x2="2551.09296" y2="2402.7"/></g><g stroke="#000000" stroke-width="2" stroke-linecap="round" stroke-dasharray="" font-family="sans-serif" font-weight="normal" font-size="12"><line x1="2887.5" y1="1925" x2="3069.4264" y2="2041.917"/><line x1="2887.5" y1="1925" x2="2705.5736" y2="2041.917"/><line x1="2995.62816" y1="1956.74929" x2="3085.46429" y2="2153.46297"/><line x1="2995.62816" y1="1956.74929" x2="2779.37184" y2="1956.74929"/><line x1="3069.4264" y1="2041.917" x2="3038.64991" y2="2255.97215"/><line x1="3085.46429" y1="2153.46297" x2="2943.84651" y2="2316.89859"/><line x1="3038.64991" y1="2255.97215" x2="2831.15349" y2="2316.89859"/><line x1="2943.84651" y1="2316.89859" x2="2736.35009" y2="2255.97215"/><line x1="2831.15349" y1="2316.89859" x2="2689.53571" y2="2153.46297"/><line x1="2736.35009" y1="2255.97215" x2="2705.5736" y2="2041.917"/><line x1="2689.53571" y1="2153.46297" x2="2779.37184" y2="1956.74929"/></g><g stroke="#000000" stroke-width="2" stroke-linecap="round" stroke-dasharray="" font-family="sans-serif" font-weight="normal" font-size="12"><line x1="2732.8125" y1="2394.76268" x2="2778.2941" y2="2423.99193"/><line x1="2732.8125" y1="2394.76268" x2="2687.3309" y2="2423.99193"/><line x1="2759.84454" y1="2402.7" x2="2782.30357" y2="2451.87842"/><line x1="2759.84454" y1="2402.7" x2="2705.78046" y2="2402.7"/><line x1="2778.2941" y1="2423.99193" x2="2770.59998" y2="2477.50571"/><line x1="2782.30357" y1="2451.87842" x2="2746.89913" y2="2492.73732"/><line x1="2770.59998" y1="2477.50571" x2="2718.72587" y2="2492.73732"/><line x1="2746.89913" y1="2492.73732" x2="2695.02502" y2="2477.50571"/><line x1="2718.72587" y1="2492.73732" x2="2683.32143" y2="2451.87842"/><line x1="2695.02502" y1="2477.50571" x2="2687.3309" y2="2423.99193"/><line x1="2683.32143" y1="2451.87842" x2="2705.78046" y2="2402.7"/></g><g stroke="#000000" stroke-width="2" stroke-linecap="round" stroke-dasharray="" font-family="sans-serif" font-weight="normal" font-size="12"><line x1="2887.5" y1="1925" x2="3085.46429" y2="2153.46297"/><line x1="2887.5" y1="1925" x2="2689.53571" y2="2153.46297"/><line x1="2995.62816" y1="1956.74929" x2="3038.64991" y2="2255.97215"/><line x1="2995.62816" y1="1956.74929" x2="2705.5736" y2="2041.917"/><line x1="3069.4264" y1="2041.917" x2="2943.84651" y2="2316.89859"/><line x1="3069.4264" y1="2041.917" x2="2779.37184" y2="1956.74929"/><line x1="3085.46429" y1="2153.46297" x2="2831.15349" y2="2316.89859"/><line x1="3038.64991" y1="2255.97215" x2="2736.35009" y2="2255.97215"/><line x1="2943.84651" y1="2316.89859" x2="2689.53571" y2="2153.46297"/><line x1="2831.15349" y1="2316.89859" x2="2705.5736" y2="2041.917"/><line x1="2736.35009" y1="2255.97215" x2="2779.37184" y2="1956.74929"/></g><g stroke="#000000" stroke-width="2" stroke-linecap="round" stroke-dasharray="" font-family="sans-serif" font-weight="normal" font-size="12"><line x1="2887.5" y1="2394.76268" x2="2936.99107" y2="2451.87842"/><line x1="2887.5" y1="2394.76268" x2="2838.00893" y2="2451.87842"/><line x1="2914.53204" y1="2402.7" x2="2925.28748" y2="2477.50571"/><line x1="2914.53204" y1="2402.7" x2="2842.0184" y2="2423.99193"/><line x1="2932.9816" y1="2423.99193" x2="2901.58663" y2="2492.73732"/><line x1="2932.9816" y1="2423.99193" x2="2860.46796" y2="2402.7"/><line x1="2936.99107" y1="2451.87842" x2="2873.41337" y2="2492.73732"/><line x1="2925.28748" y1="2477.50571" x2="2849.71252" y2="2477.50571"/><line x1="2901.58663" y1="2492.73732" x2="2838.00893" y2="2451.87842"/><line x1="2873.41337" y1="2492.73732" x2="2842.0184" y2="2423.99193"/><line x1="2849.71252" y1="2477.50571" x2="2860.46796" y2="2402.7"/></g><g stroke="#000000" stroke-width="2" stroke-linecap="round" stroke-dasharray="" font-family="sans-serif" font-weight="normal" font-size="12"><line x1="2887.5" y1="1925" x2="3038.64991" y2="2255.97215"/><line x1="2887.5" y1="1925" x2="2736.35009" y2="2255.97215"/><line x1="2995.62816" y1="1956.74929" x2="2943.84651" y2="2316.89859"/><line x1="2995.62816" y1="1956.74929" x2="2689.53571" y2="2153.46297"/><line x1="3069.4264" y1="2041.917" x2="2831.15349" y2="2316.89859"/><line x1="3069.4264" y1="2041.917" x2="2705.5736" y2="2041.917"/><line x1="3085.46429" y1="2153.46297" x2="2736.35009" y2="2255.97215"/><line x1="3085.46429" y1="2153.46297" x2="2779.37184" y2="1956.74929"/><line x1="3038.64991" y1="2255.97215" x2="2689.53571" y2="2153.46297"/><line x1="2943.84651" y1="2316.89859" x2="2705.5736" y2="2041.917"/><line x1="2831.15349" y1="2316.89859" x2="2779.37184" y2="1956.74929"/></g><g stroke="#000000" stroke-width="2" stroke-linecap="round" stroke-dasharray="" font-family="sans-serif" font-weight="normal" font-size="12"><line x1="3042.1875" y1="2394.76268" x2="3079.97498" y2="2477.50571"/><line x1="3042.1875" y1="2394.76268" x2="3004.40002" y2="2477.50571"/><line x1="3069.21954" y1="2402.7" x2="3056.27413" y2="2492.73732"/><line x1="3069.21954" y1="2402.7" x2="2992.69643" y2="2451.87842"/><line x1="3087.6691" y1="2423.99193" x2="3028.10087" y2="2492.73732"/><line x1="3087.6691" y1="2423.99193" x2="2996.7059" y2="2423.99193"/><line x1="3091.67857" y1="2451.87842" x2="3004.40002" y2="2477.50571"/><line x1="3091.67857" y1="2451.87842" x2="3015.15546" y2="2402.7"/><line x1="3079.97498" y1="2477.50571" x2="2992.69643" y2="2451.87842"/><line x1="3056.27413" y1="2492.73732" x2="2996.7059" y2="2423.99193"/><line x1="3028.10087" y1="2492.73732" x2="3015.15546" y2="2402.7"/></g><g stroke="#000000" stroke-width="2" stroke-linecap="round" stroke-dasharray="" font-family="sans-serif" font-weight="normal" font-size="12"><line x1="2887.5" y1="1925" x2="2943.84651" y2="2316.89859"/><line x1="2887.5" y1="1925" x2="2831.15349" y2="2316.89859"/><line x1="2995.62816" y1="1956.74929" x2="2831.15349" y2="2316.89859"/><line x1="2995.62816" y1="1956.74929" x2="2736.35009" y2="2255.97215"/><line x1="3069.4264" y1="2041.917" x2="2736.35009" y2="2255.97215"/><line x1="3069.4264" y1="2041.917" x2="2689.53571" y2="2153.46297"/><line x1="3085.46429" y1="2153.46297" x2="2689.53571" y2="2153.46297"/><line x1="3085.46429" y1="2153.46297" x2="2705.5736" y2="2041.917"/><line x1="3038.64991" y1="2255.97215" x2="2705.5736" y2="2041.917"/><line x1="3038.64991" y1="2255.97215" x2="2779.37184" y2="1956.74929"/><line x1="2943.84651" y1="2316.89859" x2="2779.37184" y2="1956.74929"/></g><g stroke="#000000" stroke-width="2" stroke-linecap="round" stroke-dasharray="" font-family="sans-serif" font-weight="normal" font-size="12"><line x1="3196.875" y1="2394.76268" x2="3210.96163" y2="2492.73732"/><line x1="3196.875" y1="2394.76268" x2="3182.78837" y2="2492.73732"/><line x1="3223.90704" y1="2402.7" x2="3182.78837" y2="2492.73732"/><line x1="3223.90704" y1="2402.7" x2="3159.08752" y2="2477.50571"/><line x1="3242.3566" y1="2423.99193" x2="3159.08752" y2="2477.50571"/><line x1="3242.3566" y1="2423.99193" x2="3147.38393" y2="2451.87842"/><line x1="3246.36607" y1="2451.87842" x2="3147.38393" y2="2451.87842"/><line x1="3246.36607" y1="2451.87842" x2="3151.3934" y2="2423.99193"/><line x1="3234.66248" y1="2477.50571" x2="3151.3934" y2="2423.99193"/><line x1="3234.66248" y1="2477.50571" x2="3169.84296" y2="2402.7"/><line x1="3210.96163" y1="2492.73732" x2="3169.84296" y2="2402.7"/></g></g></svg>