<svg x="0" y="0" width="3300" height="2550" version="1.1" xmlns="http://www.w3.org/2000/svg" xmlns:xlink="http://www.w3.org/1999/xlink"><g fill="none" stroke="none" stroke-width="none" stroke-linecap="none" stroke-linejoin="miter" stroke-miterlimit="10" stroke-dasharray="none" stroke-dashoffset="0" font-family="none" font-weight="none" font-size="none" text-anchor="start" mix-blend-mode="normal"><polygon points="0,850 0,0 825,0 825,850" stroke="#000000" stroke-width="1" stroke-linecap="butt" stroke-dasharray="1,4" font-family="sans-serif" font-weight="normal" font-size="12"/><text x="87.85714" y="157.42857" fill="#000000" stroke-width="1" stroke-linecap="butt" stroke-dasharray="" font-family="Times" font-weight="bold" font-size="120">0</text><path d="M212.5,385c0,-110.45695 89.54305,-200 200,-200c110.45695,0 200,89.54305 200,200c0,110.45695 -89.54305,200 -200,200c-110.45695,0 -200,-89.54305 -200,-200z" stroke="#000000" stroke-width="1" stroke-linecap="butt" stroke-dasharray="1,2" font-family="sans-serif" font-weight="normal" font-size="12"/><polygon points="825,850 825,0 1650,0 1650,850" stroke="#000000" stroke-width="1" stroke-linecap="butt" stroke-dasharray="1,4" font-family="sans-serif" font-weight="normal" font-size="12"/><text x="912.85714" y="157.42857" fill="#000000" stroke-width="1" stroke-linecap="butt" stroke-dasharray="" font-family="Times" font-weight="bold" font-size="120">1</text><path d="M1037.5,385c0,-110.45695 89.54305,-200 200,-200c110.45695,0 200,89.54305 200,200c0,110.45695 -89.54305,200 -200,200c-110.45695,0 -200,-89.54305 -200,-200z" stroke="#000000" stroke-width="1" stroke-linecap="butt" stroke-dasharray="1,2" font-family="sans-serif" font-weight="normal" font-size="12"/><path d="M1213.5,185c0,-13.25483 10.74517,-24 24,-24c13.25483,0 24,10.74517 24,24c0,13.25483 -10.74517,24 -24,24c-13.25483,0 -24,-10.74517 -24,-24z" fill="#000000" stroke-width="1" stroke-linecap="butt" stroke-dasharray="" font-family="sans-serif" font-weight="normal" font-size="12"/><polygon points="1650,850 1650,0 2475,0 2475,850" stroke="#000000" stroke-width="1" stroke-linecap="butt" stroke-dasharray="1,4" font-family="sans-serif" font-weight="normal" font-size="12"/><text x="1737.85714" y="157.42857" fill="#000000" stroke-width="1" stroke-linecap="butt" stroke-dasharray="" font-family="Times" font-weight="bold" font-size="120">2</text><path d="M1862.5,385c0,-110.45695 89.54305,-200 200,-200c110.45695,0 200,89.54305 200,200c0,110.45695 -89.54305,200 -200,200c-110.45695,0 -200,-89.54305 -200,-200z" stroke="#000000" stroke-width="1" stroke-linecap="butt" stroke-dasharray="1,2" font-family="sans-serif" font-weight="normal" font-size="12"/><path d="M2038.5,185c0,-13.25483 10.74517,-24 24,-24c13.25483,0 24,10.74517 24,24c0,13.25483 -10.74517,24 -24,24c-13.25483,0 -24,-10.74517 -24,-24z" fill="#000000" stroke-width="1" stroke-linecap="butt" stroke-dasharray="" font-family="sans-serif" font-weight="normal" font-size="12"/><path d="M2038.5,585c0,-13.25483 10.74517,-24 24,-24c13.25483,0 24,10.74517 24,24c0,13.25483 -10.74517,24 -24,24c-13.25483,0 -24,-10.74517 -24,-24z" fill="#000000" stroke-width="1" stroke-linecap="butt" stroke-dasharray="" font-family="sans-serif" font-weight="normal" font-size="12"/><g stroke="#000000" stroke-width="2" stroke-linecap="round" stroke-dasharray="" font-family="sans-serif" font-weight="normal" font-size="12"><line x1="2062.5" y1="185" x2="2062.5" y2="585"/></g><g stroke="#000000" stroke-width="2" stroke-linecap="round" stroke-dasharray="" font-family="sans-serif" font-weight="normal" font-size="12"><line x1="1767.85714" y1="678.57143" x2="1767.85714" y2="778.57143"/></g><polygon points="2475,850 2475,0 3300,0 3300,850" stroke="#000000" stroke-width="1" stroke-linecap="butt" stroke-dasharray="1,4" font-family="sans-serif" font-weight="normal" font-size="12"/><text x="2562.85714" y="157.42857" fill="#000000" stroke-width="1" stroke-linecap="butt" stroke-dasharray="" font-family="Times" font-weight="bold" font-size="120">3</text><path d="M2687.5,385c0,-110.45695 89.54305,-200 200,-200c110.45695,0 200,89.54305 200,200c0,110.45695 -89.54305,200 -200,200c-110.45695,0 -200,-89.54305 -200,-200z" stroke="#000000" stroke-width="1" stroke-linecap="butt" stroke-dasharray="1,2" font-family="sans-serif" font-weight="normal" font-size="12"/><path d="M2863.5,185c0,-13.25483 10.74517,-24 24,-24c13.25483,0 24,10.74517 24,24c0,13.25483 -10.74517,24 -24,24c-13.25483,0 -24,-10.74517 -24,-24z" fill="#000000" stroke-width="1" stroke-linecap="butt" stroke-dasharray="" font-family="sans-serif" font-weight="normal" font-size="12"/><path d="M3036.70508,485c0,-13.25483 10.74517,-24 24,-24c13.25483,0 24,10.74517 24,24c0,13.25483 -10.74517,24 -24,24c-13.25483,0 -24,-10.74517 -24,-24z" fill="#000000" stroke-width="1" stroke-linecap="butt" stroke-dasharray="" font-family="sans-serif" font-weight="normal" font-size="12"/><path d="M2690.29492,485c0,-13.25483 10.74517,-24 24,-24c13.25483,0 24,10.74517 24,24c0,13.25483 -10.74517,24 -24,24c-13.25483,0 -24,-10.74517 -24,-24z" fill="#000000" stroke-width="1" stroke-linecap="butt" stroke-dasharray="" font-family="sans-serif" font-weight="normal" font-size="12"/><g stroke="#000000" stroke-width="2" stroke-linecap="round" stroke-dasharray="" font-family="sans-serif" font-weight="normal" font-size="12"><line x1="2887.5" y1="185" x2="3060.70508" y2="485"/><line x1="2887.5" y1="185" x2="2714.29492" y2="485"/><line x1="3060.70508" y1="485" x2="2714.29492" y2="485"/></g><g stroke="#000000" stroke-width="2" stroke-linecap="round" stroke-dasharray="" font-family="sans-serif" font-weight="normal" font-size="12"><line x1="2592.85714" y1="691.07143" x2="2636.15841" y2="766.07143"/><line x1="2592.85714" y1="691.07143" x2="2549.55587" y2="766.07143"/><line x1="2636.15841" y1="766.07143" x2="2549.55587" y2="766.07143"/></g><polygon points="0,1700 0,850 825,850 825,1700" stroke="#000000" stroke-width="1" stroke-linecap="butt" stroke-dasharray="1,4" font-family="sans-serif" font-weight="normal" font-size="12"/><text x="87.85714" y="1007.42857" fill="#000000" stroke-width="1" stroke-linecap="butt" stroke-dasharray="" font-family="Times" font-weight="bold" font-size="120">4</text><path d="M212.5,1235c0,-110.45695 89.54305,-200 200,-200c110.45695,0 200,89.54305 200,200c0,110.45695 -89.54305,200 -200,200c-110.45695,0 -200,-89.54305 -200,-200z" stroke="#000000" stroke-width="1" stroke-linecap="butt" stroke-dasharray="1,2" font-family="sans-serif" font-weight="normal" font-size="12"/><path d="M388.5,1035c0,-13.25483 10.74517,-24 24,-24c13.25483,0 24,10.74517 24,24c0,13.25483 -10.74517,24 -24,24c-13.25483,0 -24,-10.74517 -24,-24z" fill="#000000" stroke-width="1" stroke-linecap="butt" stroke-dasharray="" font-family="sans-serif" font-weight="normal" font-size="12"/><path d="M588.5,1235c0,-13.25483 10.74517,-24 24,-24c13.25483,0 24,10.74517 24,24c0,13.25483 -10.74517,24 -24,24c-13.25483,0 -24,-10.74517 -24,-24z" fill="#000000" stroke-width="1" stroke-linecap="butt" stroke-dasharray="" font-family="sans-serif" font-weight="normal" font-size="12"/><path d="M388.5,1435c0,-13.25483 10.74517,-24 24,-24c13.25483,0 24,10.74517 24,24c0,13.25483 -10.74517,24 -24,24c-13.25483,0 -24,-10.74517 -24,-24z" fill="#000000" stroke-width="1" stroke-linecap="butt" stroke-dasharray="" font-family="sans-serif" font-weight="normal" font-size="12"/><path d="M188.5,1235c0,-13.25483 10.74517,-24 24,-24c13.25483,0 24,10.74517 24,24c0,13.25483 -10.74517,24 -24,24c-13.25483,0 -24,-10.74517 -24,-24z" fill="#000000" stroke-width="1" stroke-linecap="butt" stroke-dasharray="" font-family="sans-serif" font-weight="normal" font-size="12"/><g stroke="#000000" stroke-width="2" stroke-linecap="round" stroke-dasharray="" font-family="sans-serif" font-weight="normal" font-size="12"><line x1="412.5" y1="1035" x2="612.5" y2="1235"/><line x1="412.5" y1="1035" x2="212.5" y2="1235"/><line x1="612.5" y1="1235" x2="412.5" y2="1435"/><line x1="412.5" y1="1435" x2="212.5" y2="1235"/></g><g stroke="#000000" stroke-width="2" stroke-linecap="round" stroke-dasharray="" font-family="sans-serif" font-weight="normal" font-size="12"><line x1="117.85714" y1="1528.57143" x2="167.85714" y2="1578.57143"/><line x1="117.85714" y1="1528.57143" x2="67.85714" y2="1578.57143"/><line x1="167.85714" y1="1578.57143" x2="117.85714" y2="1628.57143"/><line x1="117.85714" y1="1628.57143" x2="67.85714" y2="1578.57143"/></g><g stroke="#000000" stroke-width="2" stroke-linecap="round" stroke-dasharray="" font-family="sans-serif" font-weight="normal" font-size="12"><line x1="412.5" y1="1035" x2="412.5" y2="1435"/><line x1="612.5" y1="1235" x2="212.5" y2="1235"/></g><g stroke="#000000" stroke-width="2" stroke-linecap="round" stroke-dasharray="" font-family="sans-serif" font-weight="normal" font-size="12"><line x1="707.14286" y1="1528.57143" x2="707.14286" y2="1628.57143"/><line x1="757.14286" y1="1578.57143" x2="657.14286" y2="1578.57143"/></g><polygon points="825,1700 825,850 1650,850 1650,1700" stroke="#000000" stroke-width="1" stroke-linecap="butt" stroke-dasharray="1,4" font-family="sans-serif" font-weight="normal" font-size="12"/><text x="912.85714" y="1007.42857" fill="#000000" stroke-width="1" stroke-linecap="butt" stroke-dasharray="" font-family="Times" font-weight="bold" font-size="120">5</text><path d="M1037.5,1235c0,-110.45695 89.54305,-200 200,-200c110.45695,0 200,89.54305 200,200c0,110.45695 -89.54305,200 -200,200c-110.45695,0 -200,-89.54305 -200,-200z" stroke="#000000" stroke-width="1" stroke-linecap="butt" stroke-dasharray="1,2" font-family="sans-serif" font-weight="normal" font-size="12"/><path d="M1213.5,1035c0,-13.25483 10.74517,-24 24,-24c13.25483,0 24,10.74517 24,24c0,13.25483 -10.74517,24 -24,24c-13.25483,0 -24,-10.74517 -24,-24z" fill="#000000" stroke-width="1" stroke-linecap="butt" stroke-dasharray="" font-family="sans-serif" font-weight="normal" font-size="12"/><path d="M1403.7113,1173.1966c0,-13.25483 10.74517,-24 24,-24c13.25483,0 24,10.74517 24,24c0,13.25483 -10.74517,24 -24,24c-13.25483,0 -24,-10.74517 -24,-24z" fill="#000000" stroke-width="1" stroke-linecap="butt" stroke-dasharray="" font-family="sans-serif" font-weight="normal" font-size="12"/><path d="M1331.05705,1396.8034c0,-13.25483 10.74517,-24 24,-24c13.25483,0 24,10.74517 24,24c0,13.25483 -10.74517,24 -24,24c-13.25483,0 -24,-10.74517 -24,-24z" fill="#000000" stroke-width="1" stroke-linecap="butt" stroke-dasharray="" font-family="sans-serif" font-weight="normal" font-size="12"/><path d="M1095.94295,1396.8034c0,-13.25483 10.74517,-24 24,-24c13.25483,0 24,10.74517 24,24c0,13.25483 -10.74517,24 -24,24c-13.25483,0 -24,-10.74517 -24,-24z" fill="#000000" stroke-width="1" stroke-linecap="butt" stroke-dasharray="" font-family="sans-serif" font-weight="normal" font-size="12"/><path d="M1023.2887,1173.1966c0,-13.25483 10.74517,-24 24,-24c13.25483,0 24,10.74517 24,24c0,13.25483 -10.74517,24 -24,24c-13.25483,0 -24,-10.74517 -24,-24z" fill="#000000" stroke-width="1" stroke-linecap="butt" stroke-dasharray="" font-family="sans-serif" font-weight="normal" font-size="12"/><g stroke="#000000" stroke-width="2" stroke-linecap="round" stroke-dasharray="" font-family="sans-serif" font-weight="normal" font-size="12"><line x1="1237.5" y1="1035" x2="1427.7113" y2="1173.1966"/><line x1="1237.5" y1="1035" x2="1047.2887" y2="1173.1966"/><line x1="1427.7113" y1="1173.1966" x2="1355.05705" y2="1396.8034"/><line x1="1355.05705" y1="1396.8034" x2="1119.94295" y2="1396.8034"/><line x1="1119.94295" y1="1396.8034" x2="1047.2887" y2="1173.1966"/></g><g stroke="#000000" stroke-width="2" stroke-linecap="round" stroke-dasharray="" font-family="sans-serif" font-weight="normal" font-size="12"><line x1="942.85714" y1="1533.346" x2="990.40997" y2="1567.89515"/><line x1="942.85714" y1="1533.346" x2="895.30432" y2="1567.89515"/><line x1="990.40997" y1="1567.89515" x2="972.24641" y2="1623.79685"/><line x1="972.24641" y1="1623.79685" x2="913.46788" y2="1623.79685"/><line x1="913.46788" y1="1623.79685" x2="895.30432" y2="1567.89515"/></g><g stroke="#000000" stroke-width="2" stroke-linecap="round" stroke-dasharray="" font-family="sans-serif" font-weight="normal" font-size="12"><line x1="1237.5" y1="1035" x2="1355.05705" y2="1396.8034"/><line x1="1237.5" y1="1035" x2="1119.94295" y2="1396.8034"/><line x1="1427.7113" y1="1173.1966" x2="1119.94295" y2="1396.8034"/><line x1="1427.7113" y1="1173.1966" x2="1047.2887" y2="1173.1966"/><line x1="1355.05705" y1="1396.8034" x2="1047.2887" y2="1173.1966"/></g><g stroke="#000000" stroke-width="2" stroke-linecap="round" stroke-dasharray="" font-family="sans-serif" font-weight="normal" font-size="12"><line x1="1532.14286" y1="1533.346" x2="1561.53212" y2="1623.79685"/><line x1="1532.14286" y1="1533.346" x2="1502.75359" y2="1623.79685"/><line x1="1579.69568" y1="1567.89515" x2="1502.75359" y2="1623.79685"/><line x1="1579.69568" y1="1567.89515" x2="1484.59003" y2="1567.89515"/><line x1="1561.53212" y1="1623.79685" x2="1484.59003" y2="1567.89515"/></g><polygon points="1650,1700 1650,850 2475,850 2475,1700" stroke="#000000" stroke-width="1" stroke-linecap="butt" stroke-dasharray="1,4" font-family="sans-serif" font-weight="normal" font-size="12"/><text x="1737.85714" y="1007.42857" fill="#000000" stroke-width="1" stroke-linecap="butt" stroke-dasharray="" font-family="Times" font-weight="bold" font-size="120">6</text><path d="M1862.5,1235c0,-110.45695 89.54305,-200 200,-200c110.45695,0 200,89.54305 200,200c0,110.45695 -89.54305,200 -200,200c-110.45695,0 -200,-89.54305 -200,-200z" stroke="#000000" stroke-width="1" stroke-linecap="butt" stroke-dasharray="1,2" font-family="sans-serif" font-weight="normal" font-size="12"/><path d="M2038.5,1035c0,-13.25483 10.74517,-24 24,-24c13.25483,0 24,10.74517 24,24c0,13.25483 -10.74517,24 -24,24c-13.25483,0 -24,-10.74517 -24,-24z" fill="#000000" stroke-width="1" stroke-linecap="butt" stroke-dasharray="" font-family="sans-serif" font-weight="normal" font-size="12"/><path d="M2211.70508,1135c0,-13.25483 10.74517,-24 24,-24c13.25483,0 24,10.74517 24,24c0,13.25483 -10.74517,24 -24,24c-13.25483,0 -24,-10.74517 -24,-24z" fill="#000000" stroke-width="1" stroke-linecap="butt" stroke-dasharray="" font-family="sans-serif" font-weight="normal" font-size="12"/><path d="M2211.70508,1335c0,-13.25483 10.74517,-24 24,-24c13.25483,0 24,10.74517 24,24c0,13.25483 -10.74517,24 -24,24c-13.25483,0 -24,-10.74517 -24,-24z" fill="#000000" stroke-width="1" stroke-linecap="butt" stroke-dasharray="" font-family="sans-serif" font-weight="normal" font-size="12"/><path d="M2038.5,1435c0,-13.25483 10.74517,-24 24,-24c13.25483,0 24,10.74517 24,24c0,13.25483 -10.74517,24 -24,24c-13.25483,0 -24,-10.74517 -24,-24z" fill="#000000" stroke-width="1" stroke-linecap="butt" stroke-dasharray="" font-family="sans-serif" font-weight="normal" font-size="12"/><path d="M1865.29492,1335c0,-13.25483 10.74517,-24 24,-24c13.25483,0 24,10.74517 24,24c0,13.25483 -10.74517,24 -24,24c-13.25483,0 -24,-10.74517 -24,-24z" fill="#000000" stroke-width="1" stroke-linecap="butt" stroke-dasharray="" font-family="sans-serif" font-weight="normal" font-size="12"/><path d="M1865.29492,1135c0,-13.25483 10.74517,-24 24,-24c13.25483,0 24,10.74517 24,24c0,13.25483 -10.74517,24 -24,24c-13.25483,0 -24,-10.74517 -24,-24z" fill="#000000" stroke-width="1" stroke-linecap="butt" stroke-dasharray="" font-family="sans-serif" font-weight="normal" font-size="12"/><g stroke="#000000" stroke-width="2" stroke-linecap="round" stroke-dasharray="" font-family="sans-serif" font-weight="normal" font-size="12"><line x1="2062.5" y1="1035" x2="2235.70508" y2="1135"/><line x1="2062.5" y1="1035" x2="1889.29492" y2="1135"/><line x1="2235.70508" y1="1135" x2="2235.70508" y2="1335"/><line x1="2235.70508" y1="1335" x2="2062.5" y2="1435"/><line x1="2062.5" y1="1435" x2="1889.29492" y2="1335"/><line x1="1889.29492" y1="1335" x2="1889.29492" y2="1135"/></g><g stroke="#000000" stroke-width="2" stroke-linecap="round" stroke-dasharray="" font-family="sans-serif" font-weight="normal" font-size="12"><line x1="1767.85714" y1="1528.57143" x2="1811.15841" y2="1553.57143"/><line x1="1767.85714" y1="1528.57143" x2="1724.55587" y2="1553.57143"/><line x1="1811.15841" y1="1553.57143" x2="1811.15841" y2="1603.57143"/><line x1="1811.15841" y1="1603.57143" x2="1767.85714" y2="1628.57143"/><line x1="1767.85714" y1="1628.57143" x2="1724.55587" y2="1603.57143"/><line x1="1724.55587" y1="1603.57143" x2="1724.55587" y2="1553.57143"/></g><g stroke="#000000" stroke-width="2" stroke-linecap="round" stroke-dasharray="" font-family="sans-serif" font-weight="normal" font-size="12"><line x1="2062.5" y1="1035" x2="2235.70508" y2="1335"/><line x1="2062.5" y1="1035" x2="1889.29492" y2="1335"/><line x1="2235.70508" y1="1135" x2="2062.5" y2="1435"/><line x1="2235.70508" y1="1135" x2="1889.29492" y2="1135"/><line x1="2235.70508" y1="1335" x2="1889.29492" y2="1335"/><line x1="2062.5" y1="1435" x2="1889.29492" y2="1135"/></g><g stroke="#000000" stroke-width="2" stroke-linecap="round" stroke-dasharray="" font-family="sans-serif" font-weight="normal" font-size="12"><line x1="2062.5" y1="1528.57143" x2="2105.80127" y2="1603.57143"/><line x1="2062.5" y1="1528.57143" x2="2019.19873" y2="1603.57143"/><line x1="2105.80127" y1="1553.57143" x2="2062.5" y2="1628.57143"/><line x1="2105.80127" y1="1553.57143" x2="2019.19873" y2="1553.57143"/><line x1="2105.80127" y1="1603.57143" x2="2019.19873" y2="1603.57143"/><line x1="2062.5" y1="1628.57143" x2="2019.19873" y2="1553.57143"/></g><g stroke="#000000" stroke-width="2" stroke-linecap="round" stroke-dasharray="" font-family="sans-serif" font-weight="normal" font-size="12"><line x1="2062.5" y1="1035" x2="2062.5" y2="1435"/><line x1="2235.70508" y1="1135" x2="1889.29492" y2="1335"/><line x1="2235.70508" y1="1335" x2="1889.29492" y2="1135"/></g><g stroke="#000000" stroke-width="2" stroke-linecap="round" stroke-dasharray="" font-family="sans-serif" font-weight="normal" font-size="12"><line x1="2357.14286" y1="1528.57143" x2="2357.14286" y2="1628.57143"/><line x1="2400.44413" y1="1553.57143" x2="2313.84159" y2="1603.57143"/><line x1="2400.44413" y1="1603.57143" x2="2313.84159" y2="1553.57143"/></g><polygon points="2475,1700 2475,850 3300,850 3300,1700" stroke="#000000" stroke-width="1" stroke-linecap="butt" stroke-dasharray="1,4" font-family="sans-serif" font-weight="normal" font-size="12"/><text x="2562.85714" y="1007.42857" fill="#000000" stroke-width="1" stroke-linecap="butt" stroke-dasharray="" font-family="Times" font-weight="bold" font-size="120">7</text><path d="M2687.5,1235c0,-110.45695 89.54305,-200 200,-200c110.45695,0 200,89.54305 200,200c0,110.45695 -89.54305,200 -200,200c-110.45695,0 -200,-89.54305 -200,-200z" stroke="#000000" stroke-width="1" stroke-linecap="butt" stroke-dasharray="1,2" font-family="sans-serif" font-weight="normal" font-size="12"/><path d="M2863.5,1035c0,-13.25483 10.74517,-24 24,-24c13.25483,0 24,10.74517 24,24c0,13.25483 -10.74517,24 -24,24c-13.25483,0 -24,-10.74517 -24,-24z" fill="#000000" stroke-width="1" stroke-linecap="butt" stroke-dasharray="" font-family="sans-serif" font-weight="normal" font-size="12"/><path d="M3019.8663,1110.30204c0,-13.25483 10.74517,-24 24,-24c13.25483,0 24,10.74517 24,24c0,13.25483 -10.74517,24 -24,24c-13.25483,0 -24,-10.74517 -24,-24z" fill="#000000" stroke-width="1" stroke-linecap="butt" stroke-dasharray="" font-family="sans-serif" font-weight="normal" font-size="12"/><path d="M3058.48558,1279.50419c0,-13.25483 10.74517,-24 24,-24c13.25483,0 24,10.74517 24,24c0,13.25483 -10.74517,24 -24,24c-13.25483,0 -24,-10.74517 -24,-24z" fill="#000000" stroke-width="1" stroke-linecap="butt" stroke-dasharray="" font-family="sans-serif" font-weight="normal" font-size="12"/><path d="M2950.27675,1415.19377c0,-13.25483 10.74517,-24 24,-24c13.25483,0 24,10.74517 24,24c0,13.25483 -10.74517,24 -24,24c-13.25483,0 -24,-10.74517 -24,-24z" fill="#000000" stroke-width="1" stroke-linecap="butt" stroke-dasharray="" font-family="sans-serif" font-weight="normal" font-size="12"/><path d="M2776.72325,1415.19377c0,-13.25483 10.74517,-24 24,-24c13.25483,0 24,10.74517 24,24c0,13.25483 -10.74517,24 -24,24c-13.25483,0 -24,-10.74517 -24,-24z" fill="#000000" stroke-width="1" stroke-linecap="butt" stroke-dasharray="" font-family="sans-serif" font-weight="normal" font-size="12"/><path d="M2668.51442,1279.50419c0,-13.25483 10.74517,-24 24,-24c13.25483,0 24,10.74517 24,24c0,13.25483 -10.74517,24 -24,24c-13.25483,0 -24,-10.74517 -24,-24z" fill="#000000" stroke-width="1" stroke-linecap="butt" stroke-dasharray="" font-family="sans-serif" font-weight="normal" font-size="12"/><path d="M2707.1337,1110.30204c0,-13.25483 10.74517,-24 24,-24c13.25483,0 24,10.74517 24,24c0,13.25483 -10.74517,24 -24,24c-13.25483,0 -24,-10.74517 -24,-24z" fill="#000000" stroke-width="1" stroke-linecap="butt" stroke-dasharray="" font-family="sans-serif" font-weight="normal" font-size="12"/><g stroke="#000000" stroke-width="2" stroke-linecap="round" stroke-dasharray="" font-family="sans-serif" font-weight="normal" font-size="12"><line x1="2887.5" y1="1035" x2="3043.8663" y2="1110.30204"/><line x1="2887.5" y1="1035" x2="2731.1337" y2="1110.30204"/><line x1="3043.8663" y1="1110.30204" x2="3082.48558" y2="1279.50419"/><line x1="3082.48558" y1="1279.50419" x2="2974.27675" y2="1415.19377"/><line x1="2974.27675" y1="1415.19377" x2="2800.72325" y2="1415.19377"/><line x1="2800.72325" y1="1415.19377" x2="2692.51442" y2="1279.50419"/><line x1="2692.51442" y1="1279.50419" x2="2731.1337" y2="1110.30204"/></g><g stroke="#000000" stroke-width="2" stroke-linecap="round" stroke-dasharray="" font-family="sans-serif" font-weight="normal" font-size="12"><line x1="2592.85714" y1="1531.04721" x2="2631.94872" y2="1549.87272"/><line x1="2592.85714" y1="1531.04721" x2="2553.76557" y2="1549.87272"/><line x1="2631.94872" y1="1549.87272" x2="2641.60354" y2="1592.17325"/><line x1="2641.60354" y1="1592.17325" x2="2614.55133" y2="1626.09565"/><line x1="2614.55133" y1="1626.09565" x2="2571.16296" y2="1626.09565"/><line x1="2571.16296" y1="1626.09565" x2="2544.11075" y2="1592.17325"/><line x1="2544.11075" y1="1592.17325" x2="2553.76557" y2="1549.87272"/></g><g stroke="#000000" stroke-width="2" stroke-linecap="round" stroke-dasharray="" font-family="sans-serif" font-weight="normal" font-size="12"><line x1="2887.5" y1="1035" x2="3082.48558" y2="1279.50419"/><line x1="2887.5" y1="1035" x2="2692.51442" y2="1279.50419"/><line x1="3043.8663" y1="1110.30204" x2="2974.27675" y2="1415.19377"/><line x1="3043.8663" y1="1110.30204" x2="2731.1337" y2="1110.30204"/><line x1="3082.48558" y1="1279.50419" x2="2800.72325" y2="1415.19377"/><line x1="2974.27675" y1="1415.19377" x2="2692.51442" y2="1279.50419"/><line x1="2800.72325" y1="1415.19377" x2="2731.1337" y2="1110.30204"/></g><g stroke="#000000" stroke-width="2" stroke-linecap="round" stroke-dasharray="" font-family="sans-serif" font-weight="normal" font-size="12"><line x1="2887.5" y1="1531.04721" x2="2936.2464" y2="1592.17325"/><line x1="2887.5" y1="1531.04721" x2="2838.7536" y2="1592.17325"/><line x1="2926.59157" y1="1549.87272" x2="2909.19419" y2="1626.09565"/><line x1="2926.59157" y1="1549.87272" x2="2848.40843" y2="1549.87272"/><line x1="2936.2464" y1="1592.17325" x2="2865.80581" y2="1626.09565"/><line x1="2909.19419" y1="1626.09565" x2="2838.7536" y2="1592.17325"/><line x1="2865.80581" y1="1626.09565" x2="2848.40843" y2="1549.87272"/></g><g stroke="#000000" stroke-width="2" stroke-linecap="round" stroke-dasharray="" font-family="sans-serif" font-weight="normal" font-size="12"><line x1="2887.5" y1="1035" x2="2974.27675" y2="1415.19377"/><line x1="2887.5" y1="1035" x2="2800.72325" y2="1415.19377"/><line x1="3043.8663" y1="1110.30204" x2="2800.72325" y2="1415.19377"/><line x1="3043.8663" y1="1110.30204" x2="2692.51442" y2="1279.50419"/><line x1="3082.48558" y1="1279.50419" x2="2692.51442" y2="1279.50419"/><line x1="3082.48558" y1="1279.50419" x2="2731.1337" y2="1110.30204"/><line x1="2974.27675" y1="1415.19377" x2="2731.1337" y2="1110.30204"/></g><g stroke="#000000" stroke-width="2" stroke-linecap="round" stroke-dasharray="" font-family="sans-serif" font-weight="normal" font-size="12"><line x1="3182.14286" y1="1531.04721" x2="3203.83704" y2="1626.09565"/><line x1="3182.14286" y1="1531.04721" x2="3160.44867" y2="1626.09565"/><line x1="3221.23443" y1="1549.87272" x2="3160.44867" y2="1626.09565"/><line x1="3221.23443" y1="1549.87272" x2="3133.39646" y2="1592.17325"/><line x1="3230.88925" y1="1592.17325" x2="3133.39646" y2="1592.17325"/><line x1="3230.88925" y1="1592.17325" x2="3143.05128" y2="1549.87272"/><line x1="3203.83704" y1="1626.09565" x2="3143.05128" y2="1549.87272"/></g><polygon points="0,2550 0,1700 825,1700 825,2550" stroke="#000000" stroke-width="1" stroke-linecap="butt" stroke-dasharray="1,4" font-family="sans-serif" font-weight="normal" font-size="12"/><text x="87.85714" y="1857.42857" fill="#000000" stroke-width="1" stroke-linecap="butt" stroke-dasharray="" font-family="Times" font-weight="bold" font-size="120">8</text><path d="M212.5,2085c0,-110.45695 89.54305,-200 200,-200c110.45695,0 200,89.54305 200,200c0,110.45695 -89.54305,200 -200,200c-110.45695,0 -200,-89.54305 -200,-200z" stroke="#000000" stroke-width="1" stroke-linecap="butt" stroke-dasharray="1,2" font-family="sans-serif" font-weight="normal" font-size="12"/><path d="M388.5,1885c0,-13.25483 10.74517,-24 24,-24c13.25483,0 24,10.74517 24,24c0,13.25483 -10.74517,24 -24,24c-13.25483,0 -24,-10.74517 -24,-24z" fill="#000000" stroke-width="1" stroke-linecap="butt" stroke-dasharray="" font-family="sans-serif" font-weight="normal" font-size="12"/><path d="M529.92136,1943.57864c0,-13.25483 10.74517,-24 24,-24c13.25483,0 24,10.74517 24,24c0,13.25483 -10.74517,24 -24,24c-13.25483,0 -24,-10.74517 -24,-24z" fill="#000000" stroke-width="1" stroke-linecap="butt" stroke-dasharray="" font-family="sans-serif" font-weight="normal" font-size="12"/><path d="M588.5,2085c0,-13.25483 10.74517,-24 24,-24c13.25483,0 24,10.74517 24,24c0,13.25483 -10.74517,24 -24,24c-13.25483,0 -24,-10.74517 -24,-24z" fill="#000000" stroke-width="1" stroke-linecap="butt" stroke-dasharray="" font-family="sans-serif" font-weight="normal" font-size="12"/><path d="M529.92136,2226.42136c0,-13.25483 10.74517,-24 24,-24c13.25483,0 24,10.74517 24,24c0,13.25483 -10.74517,24 -24,24c-13.25483,0 -24,-10.74517 -24,-24z" fill="#000000" stroke-width="1" stroke-linecap="butt" stroke-dasharray="" font-family="sans-serif" font-weight="normal" font-size="12"/><path d="M388.5,2285c0,-13.25483 10.74517,-24 24,-24c13.25483,0 24,10.74517 24,24c0,13.25483 -10.74517,24 -24,24c-13.25483,0 -24,-10.74517 -24,-24z" fill="#000000" stroke-width="1" stroke-linecap="butt" stroke-dasharray="" font-family="sans-serif" font-weight="normal" font-size="12"/><path d="M247.07864,2226.42136c0,-13.25483 10.74517,-24 24,-24c13.25483,0 24,10.74517 24,24c0,13.25483 -10.74517,24 -24,24c-13.25483,0 -24,-10.74517 -24,-24z" fill="#000000" stroke-width="1" stroke-linecap="butt" stroke-dasharray="" font-family="sans-serif" font-weight="normal" font-size="12"/><path d="M188.5,2085c0,-13.25483 10.74517,-24 24,-24c13.25483,0 24,10.74517 24,24c0,13.25483 -10.74517,24 -24,24c-13.25483,0 -24,-10.74517 -24,-24z" fill="#000000" stroke-width="1" stroke-linecap="butt" stroke-dasharray="" font-family="sans-serif" font-weight="normal" font-size="12"/><path d="M247.07864,1943.57864c0,-13.25483 10.74517,-24 24,-24c13.25483,0 24,10.74517 24,24c0,13.25483 -10.74517,24 -24,24c-13.25483,0 -24,-10.74517 -24,-24z" fill="#000000" stroke-width="1" stroke-linecap="butt" stroke-dasharray="" font-family="sans-serif" font-weight="normal" font-size="12"/><g stroke="#000000" stroke-width="2" stroke-linecap="round" stroke-dasharray="" font-family="sans-serif" font-weight="normal" font-size="12"><line x1="412.5" y1="1885" x2="553.92136" y2="1943.57864"/><line x1="412.5" y1="1885" x2="271.07864" y2="1943.57864"/><line x1="553.92136" y1="1943.57864" x2="612.5" y2="2085"/><line x1="612.5" y1="2085" x2="553.92136" y2="2226.42136"/><line x1="553.92136" y1="2226.42136" x2="412.5" y2="2285"/><line x1="412.5" y1="2285" x2="271.07864" y2="2226.42136"/><line x1="271.07864" y1="2226.42136" x2="212.5" y2="2085"/><line x1="212.5" y1="2085" x2="271.07864" y2="1943.57864"/></g><g stroke="#000000" stroke-width="2" stroke-linecap="round" stroke-dasharray="" font-family="sans-serif" font-weight="normal" font-size="12"><line x1="117.85714" y1="2378.57143" x2="153.21248" y2="2393.21609"/><line x1="117.85714" y1="2378.57143" x2="82.5018" y2="2393.21609"/><line x1="153.21248" y1="2393.21609" x2="167.85714" y2="2428.57143"/><line x1="167.85714" y1="2428.57143" x2="153.21248" y2="2463.92677"/><line x1="153.21248" y1="2463.92677" x2="117.85714" y2="2478.57143"/><line x1="117.85714" y1="2478.57143" x2="82.5018" y2="2463.92677"/><line x1="82.5018" y1="2463.92677" x2="67.85714" y2="2428.57143"/><line x1="67.85714" y1="2428.57143" x2="82.5018" y2="2393.21609"/></g><g stroke="#000000" stroke-width="2" stroke-linecap="round" stroke-dasharray="" font-family="sans-serif" font-weight="normal" font-size="12"><line x1="412.5" y1="1885" x2="612.5" y2="2085"/><line x1="412.5" y1="1885" x2="212.5" y2="2085"/><line x1="553.92136" y1="1943.57864" x2="553.92136" y2="2226.42136"/><line x1="553.92136" y1="1943.57864" x2="271.07864" y2="1943.57864"/><line x1="612.5" y1="2085" x2="412.5" y2="2285"/><line x1="553.92136" y1="2226.42136" x2="271.07864" y2="2226.42136"/><line x1="412.5" y1="2285" x2="212.5" y2="2085"/><line x1="271.07864" y1="2226.42136" x2="271.07864" y2="1943.57864"/></g><g stroke="#000000" stroke-width="2" stroke-linecap="round" stroke-dasharray="" font-family="sans-serif" font-weight="normal" font-size="12"><line x1="314.28571" y1="2378.57143" x2="364.28571" y2="2428.57143"/><line x1="314.28571" y1="2378.57143" x2="264.28571" y2="2428.57143"/><line x1="349.64105" y1="2393.21609" x2="349.64105" y2="2463.92677"/><line x1="349.64105" y1="2393.21609" x2="278.93038" y2="2393.21609"/><line x1="364.28571" y1="2428.57143" x2="314.28571" y2="2478.57143"/><line x1="349.64105" y1="2463.92677" x2="278.93038" y2="2463.92677"/><line x1="314.28571" y1="2478.57143" x2="264.28571" y2="2428.57143"/><line x1="278.93038" y1="2463.92677" x2="278.93038" y2="2393.21609"/></g><g stroke="#000000" stroke-width="2" stroke-linecap="round" stroke-dasharray="" font-family="sans-serif" font-weight="normal" font-size="12"><line x1="412.5" y1="1885" x2="553.92136" y2="2226.42136"/><line x1="412.5" y1="1885" x2="271.07864" y2="2226.42136"/><line x1="553.92136" y1="1943.57864" x2="412.5" y2="2285"/><line x1="553.92136" y1="1943.57864" x2="212.5" y2="2085"/><line x1="612.5" y1="2085" x2="271.07864" y2="2226.42136"/><line x1="612.5" y1="2085" x2="271.07864" y2="1943.57864"/><line x1="553.92136" y1="2226.42136" x2="212.5" y2="2085"/><line x1="412.5" y1="2285" x2="271.07864" y2="1943.57864"/></g><g stroke="#000000" stroke-width="2" stroke-linecap="round" stroke-dasharray="" font-family="sans-serif" font-weight="normal" font-size="12"><line x1="510.71429" y1="2378.57143" x2="546.06962" y2="2463.92677"/><line x1="510.71429" y1="2378.57143" x2="475.35895" y2="2463.92677"/><line x1="546.06962" y1="2393.21609" x2="510.71429" y2="2478.57143"/><line x1="546.06962" y1="2393.21609" x2="460.71429" y2="2428.57143"/><line x1="560.71429" y1="2428.57143" x2="475.35895" y2="2463.92677"/><line x1="560.71429" y1="2428.57143" x2="475.35895" y2="2393.21609"/><line x1="546.06962" y1="2463.92677" x2="460.71429" y2="2428.57143"/><line x1="510.71429" y1="2478.57143" x2="475.35895" y2="2393.21609"/></g><g stroke="#000000" stroke-width="2" stroke-linecap="round" stroke-dasharray="" font-family="sans-serif" font-weight="normal" font-size="12"><line x1="412.5" y1="1885" x2="412.5" y2="2285"/><line x1="553.92136" y1="1943.57864" x2="271.07864" y2="2226.42136"/><line x1="612.5" y1="2085" x2="212.5" y2="2085"/><line x1="553.92136" y1="2226.42136" x2="271.07864" y2="1943.57864"/></g><g stroke="#000000" stroke-width="2" stroke-linecap="round" stroke-dasharray="" font-family="sans-serif" font-weight="normal" font-size="12"><line x1="707.14286" y1="2378.57143" x2="707.14286" y2="2478.57143"/><line x1="742.4982" y1="2393.21609" x2="671.78752" y2="2463.92677"/><line x1="757.14286" y1="2428.57143" x2="657.14286" y2="2428.57143"/><line x1="742.4982" y1="2463.92677" x2="671.78752" y2="2393.21609"/></g><polygon points="825,2550 825,1700 1650,1700 1650,2550" stroke="#000000" stroke-width="1" stroke-linecap="butt" stroke-dasharray="1,4" font-family="sans-serif" font-weight="normal" font-size="12"/><text x="912.85714" y="1857.42857" fill="#000000" stroke-width="1" stroke-linecap="butt" stroke-dasharray="" font-family="Times" font-weight="bold" font-size="120">9</text><path d="M1037.5,2085c0,-110.45695 89.54305,-200 200,-200c110.45695,0 200,89.54305 200,200c0,110.45695 -89.54305,200 -200,200c-110.45695,0 -200,-89.54305 -200,-200z" stroke="#000000" stroke-width="1" stroke-linecap="butt" stroke-dasharray="1,2" font-family="sans-serif" font-weight="normal" font-size="12"/><path d="M1213.5,1885c0,-13.25483 10.74517,-24 24,-24c13.25483,0 24,10.74517 24,24c0,13.25483 -10.74517,24 -24,24c-13.25483,0 -24,-10.74517 -24,-24z" fill="#000000" stroke-width="1" stroke-linecap="butt" stroke-dasharray="" font-family="sans-serif" font-weight="normal" font-size="12"/><path d="M1342.05752,1931.79111c0,-13.25483 10.74517,-24 24,-24c13.25483,0 24,10.74517 24,24c0,13.25483 -10.74517,24 -24,24c-13.25483,0 -24,-10.74517 -24,-24z" fill="#000000" stroke-width="1" stroke-linecap="butt" stroke-dasharray="" font-family="sans-serif" font-weight="normal" font-size="12"/><path d="M1410.46155,2050.27036c0,-13.25483 10.74517,-24 24,-24c13.25483,0 24,10.74517 24,24c0,13.25483 -10.74517,24 -24,24c-13.25483,0 -24,-10.74517 -24,-24z" fill="#000000" stroke-width="1" stroke-linecap="butt" stroke-dasharray="" font-family="sans-serif" font-weight="normal" font-size="12"/><path d="M1386.70508,2185c0,-13.25483 10.74517,-24 24,-24c13.25483,0 24,10.74517 24,24c0,13.25483 -10.74517,24 -24,24c-13.25483,0 -24,-10.74517 -24,-24z" fill="#000000" stroke-width="1" stroke-linecap="butt" stroke-dasharray="" font-family="sans-serif" font-weight="normal" font-size="12"/><path d="M1281.90403,2272.93852c0,-13.25483 10.74517,-24 24,-24c13.25483,0 24,10.74517 24,24c0,13.25483 -10.74517,24 -24,24c-13.25483,0 -24,-10.74517 -24,-24z" fill="#000000" stroke-width="1" stroke-linecap="butt" stroke-dasharray="" font-family="sans-serif" font-weight="normal" font-size="12"/><path d="M1145.09597,2272.93852c0,-13.25483 10.74517,-24 24,-24c13.25483,0 24,10.74517 24,24c0,13.25483 -10.74517,24 -24,24c-13.25483,0 -24,-10.74517 -24,-24z" fill="#000000" stroke-width="1" stroke-linecap="butt" stroke-dasharray="" font-family="sans-serif" font-weight="normal" font-size="12"/><path d="M1040.29492,2185c0,-13.25483 10.74517,-24 24,-24c13.25483,0 24,10.74517 24,24c0,13.25483 -10.74517,24 -24,24c-13.25483,0 -24,-10.74517 -24,-24z" fill="#000000" stroke-width="1" stroke-linecap="butt" stroke-dasharray="" font-family="sans-serif" font-weight="normal" font-size="12"/><path d="M1016.53845,2050.27036c0,-13.25483 10.74517,-24 24,-24c13.25483,0 24,10.74517 24,24c0,13.25483 -10.74517,24 -24,24c-13.25483,0 -24,-10.74517 -24,-24z" fill="#000000" stroke-width="1" stroke-linecap="butt" stroke-dasharray="" font-family="sans-serif" font-weight="normal" font-size="12"/><path d="M1084.94248,1931.79111c0,-13.25483 10.74517,-24 24,-24c13.25483,0 24,10.74517 24,24c0,13.25483 -10.74517,24 -24,24c-13.25483,0 -24,-10.74517 -24,-24z" fill="#000000" stroke-width="1" stroke-linecap="butt" stroke-dasharray="" font-family="sans-serif" font-weight="normal" font-size="12"/><g stroke="#000000" stroke-width="2" stroke-linecap="round" stroke-dasharray="" font-family="sans-serif" font-weight="normal" font-size="12"><line x1="1237.5" y1="1885" x2="1366.05752" y2="1931.79111"/><line x1="1237.5" y1="1885" x2="1108.94248" y2="1931.79111"/><line x1="1366.05752" y1="1931.79111" x2="1434.46155" y2="2050.27036"/><line x1="1434.46155" y1="2050.27036" x2="1410.70508" y2="2185"/><line x1="1410.70508" y1="2185" x2="1305.90403" y2="2272.93852"/><line x1="1305.90403" y1="2272.93852" x2="1169.09597" y2="2272.93852"/><line x1="1169.09597" y1="2272.93852" x2="1064.29492" y2="2185"/><line x1="1064.29492" y1="2185" x2="1040.53845" y2="2050.27036"/><line x1="1040.53845" y1="2050.27036" x2="1108.94248" y2="1931.79111"/></g><g stroke="#000000" stroke-width="2" stroke-linecap="round" stroke-dasharray="" font-family="sans-serif" font-weight="normal" font-size="12"><line x1="942.85714" y1="2380.07911" x2="974.99652" y2="2391.77689"/><line x1="942.85714" y1="2380.07911" x2="910.71776" y2="2391.77689"/><line x1="974.99652" y1="2391.77689" x2="992.09753" y2="2421.3967"/><line x1="992.09753" y1="2421.3967" x2="986.15841" y2="2455.07911"/><line x1="986.15841" y1="2455.07911" x2="959.95815" y2="2477.06374"/><line x1="959.95815" y1="2477.06374" x2="925.75614" y2="2477.06374"/><line x1="925.75614" y1="2477.06374" x2="899.55587" y2="2455.07911"/><line x1="899.55587" y1="2455.07911" x2="893.61676" y2="2421.3967"/><line x1="893.61676" y1="2421.3967" x2="910.71776" y2="2391.77689"/></g><g stroke="#000000" stroke-width="2" stroke-linecap="round" stroke-dasharray="" font-family="sans-serif" font-weight="normal" font-size="12"><line x1="1237.5" y1="1885" x2="1434.46155" y2="2050.27036"/><line x1="1237.5" y1="1885" x2="1040.53845" y2="2050.27036"/><line x1="1366.05752" y1="1931.79111" x2="1410.70508" y2="2185"/><line x1="1366.05752" y1="1931.79111" x2="1108.94248" y2="1931.79111"/><line x1="1434.46155" y1="2050.27036" x2="1305.90403" y2="2272.93852"/><line x1="1410.70508" y1="2185" x2="1169.09597" y2="2272.93852"/><line x1="1305.90403" y1="2272.93852" x2="1064.29492" y2="2185"/><line x1="1169.09597" y1="2272.93852" x2="1040.53845" y2="2050.27036"/><line x1="1064.29492" y1="2185" x2="1108.94248" y2="1931.79111"/></g><g stroke="#000000" stroke-width="2" stroke-linecap="round" stroke-dasharray="" font-family="sans-serif" font-weight="normal" font-size="12"><line x1="1139.28571" y1="2380.07911" x2="1188.5261" y2="2421.3967"/><line x1="1139.28571" y1="2380.07911" x2="1090.04533" y2="2421.3967"/><line x1="1171.42509" y1="2391.77689" x2="1182.58698" y2="2455.07911"/><line x1="1171.42509" y1="2391.77689" x2="1107.14633" y2="2391.77689"/><line x1="1188.5261" y1="2421.3967" x2="1156.38672" y2="2477.06374"/><line x1="1182.58698" y1="2455.07911" x2="1122.18471" y2="2477.06374"/><line x1="1156.38672" y1="2477.06374" x2="1095.98444" y2="2455.07911"/><line x1="1122.18471" y1="2477.06374" x2="1090.04533" y2="2421.3967"/><line x1="1095.98444" y1="2455.07911" x2="1107.14633" y2="2391.77689"/></g><g stroke="#000000" stroke-width="2" stroke-linecap="round" stroke-dasharray="" font-family="sans-serif" font-weight="normal" font-size="12"><line x1="1237.5" y1="1885" x2="1410.70508" y2="2185"/><line x1="1237.5" y1="1885" x2="1064.29492" y2="2185"/><line x1="1366.05752" y1="1931.79111" x2="1305.90403" y2="2272.93852"/><line x1="1366.05752" y1="1931.79111" x2="1040.53845" y2="2050.27036"/><line x1="1434.46155" y1="2050.27036" x2="1169.09597" y2="2272.93852"/><line x1="1434.46155" y1="2050.27036" x2="1108.94248" y2="1931.79111"/><line x1="1410.70508" y1="2185" x2="1064.29492" y2="2185"/><line x1="1305.90403" y1="2272.93852" x2="1040.53845" y2="2050.27036"/><line x1="1169.09597" y1="2272.93852" x2="1108.94248" y2="1931.79111"/></g><g stroke="#000000" stroke-width="2" stroke-linecap="round" stroke-dasharray="" font-family="sans-serif" font-weight="normal" font-size="12"><line x1="1335.71429" y1="2380.07911" x2="1379.01556" y2="2455.07911"/><line x1="1335.71429" y1="2380.07911" x2="1292.41302" y2="2455.07911"/><line x1="1367.85367" y1="2391.77689" x2="1352.81529" y2="2477.06374"/><line x1="1367.85367" y1="2391.77689" x2="1286.4739" y2="2421.3967"/><line x1="1384.95467" y1="2421.3967" x2="1318.61328" y2="2477.06374"/><line x1="1384.95467" y1="2421.3967" x2="1303.57491" y2="2391.77689"/><line x1="1379.01556" y1="2455.07911" x2="1292.41302" y2="2455.07911"/><line x1="1352.81529" y1="2477.06374" x2="1286.4739" y2="2421.3967"/><line x1="1318.61328" y1="2477.06374" x2="1303.57491" y2="2391.77689"/></g><g stroke="#000000" stroke-width="2" stroke-linecap="round" stroke-dasharray="" font-family="sans-serif" font-weight="normal" font-size="12"><line x1="1237.5" y1="1885" x2="1305.90403" y2="2272.93852"/><line x1="1237.5" y1="1885" x2="1169.09597" y2="2272.93852"/><line x1="1366.05752" y1="1931.79111" x2="1169.09597" y2="2272.93852"/><line x1="1366.05752" y1="1931.79111" x2="1064.29492" y2="2185"/><line x1="1434.46155" y1="2050.27036" x2="1064.29492" y2="2185"/><line x1="1434.46155" y1="2050.27036" x2="1040.53845" y2="2050.27036"/><line x1="1410.70508" y1="2185" x2="1040.53845" y2="2050.27036"/><line x1="1410.70508" y1="2185" x2="1108.94248" y2="1931.79111"/><line x1="1305.90403" y1="2272.93852" x2="1108.94248" y2="1931.79111"/></g><g stroke="#000000" stroke-width="2" stroke-linecap="round" stroke-dasharray="" font-family="sans-serif" font-weight="normal" font-size="12"><line x1="1532.14286" y1="2380.07911" x2="1549.24386" y2="2477.06374"/><line x1="1532.14286" y1="2380.07911" x2="1515.04185" y2="2477.06374"/><line x1="1564.28224" y1="2391.77689" x2="1515.04185" y2="2477.06374"/><line x1="1564.28224" y1="2391.77689" x2="1488.84159" y2="2455.07911"/><line x1="1581.38324" y1="2421.3967" x2="1488.84159" y2="2455.07911"/><line x1="1581.38324" y1="2421.3967" x2="1482.90247" y2="2421.3967"/><line x1="1575.44413" y1="2455.07911" x2="1482.90247" y2="2421.3967"/><line x1="1575.44413" y1="2455.07911" x2="1500.00348" y2="2391.77689"/><line x1="1549.24386" y1="2477.06374" x2="1500.00348" y2="2391.77689"/></g><polygon points="1650,2550 1650,1700 2475,1700 2475,2550" stroke="#000000" stroke-width="1" stroke-linecap="butt" stroke-dasharray="1,4" font-family="sans-serif" font-weight="normal" font-size="12"/><text x="1707.85714" y="1857.42857" fill="#000000" stroke-width="1" stroke-linecap="butt" stroke-dasharray="" font-family="Times" font-weight="bold" font-size="120">10</text><path d="M1862.5,2085c0,-110.45695 89.54305,-200 200,-200c110.45695,0 200,89.54305 200,200c0,110.45695 -89.54305,200 -200,200c-110.45695,0 -200,-89.54305 -200,-200z" stroke="#000000" stroke-width="1" stroke-linecap="butt" stroke-dasharray="1,2" font-family="sans-serif" font-weight="normal" font-size="12"/><path d="M2038.5,1885c0,-13.25483 10.74517,-24 24,-24c13.25483,0 24,10.74517 24,24c0,13.25483 -10.74517,24 -24,24c-13.25483,0 -24,-10.74517 -24,-24z" fill="#000000" stroke-width="1" stroke-linecap="butt" stroke-dasharray="" font-family="sans-serif" font-weight="normal" font-size="12"/><path d="M2156.05705,1923.1966c0,-13.25483 10.74517,-24 24,-24c13.25483,0 24,10.74517 24,24c0,13.25483 -10.74517,24 -24,24c-13.25483,0 -24,-10.74517 -24,-24z" fill="#000000" stroke-width="1" stroke-linecap="butt" stroke-dasharray="" font-family="sans-serif" font-weight="normal" font-size="12"/><path d="M2228.7113,2023.1966c0,-13.25483 10.74517,-24 24,-24c13.25483,0 24,10.74517 24,24c0,13.25483 -10.74517,24 -24,24c-13.25483,0 -24,-10.74517 -24,-24z" fill="#000000" stroke-width="1" stroke-linecap="butt" stroke-dasharray="" font-family="sans-serif" font-weight="normal" font-size="12"/><path d="M2228.7113,2146.8034c0,-13.25483 10.74517,-24 24,-24c13.25483,0 24,10.74517 24,24c0,13.25483 -10.74517,24 -24,24c-13.25483,0 -24,-10.74517 -24,-24z" fill="#000000" stroke-width="1" stroke-linecap="butt" stroke-dasharray="" font-family="sans-serif" font-weight="normal" font-size="12"/><path d="M2156.05705,2246.8034c0,-13.25483 10.74517,-24 24,-24c13.25483,0 24,10.74517 24,24c0,13.25483 -10.74517,24 -24,24c-13.25483,0 -24,-10.74517 -24,-24z" fill="#000000" stroke-width="1" stroke-linecap="butt" stroke-dasharray="" font-family="sans-serif" font-weight="normal" font-size="12"/><path d="M2038.5,2285c0,-13.25483 10.74517,-24 24,-24c13.25483,0 24,10.74517 24,24c0,13.25483 -10.74517,24 -24,24c-13.25483,0 -24,-10.74517 -24,-24z" fill="#000000" stroke-width="1" stroke-linecap="butt" stroke-dasharray="" font-family="sans-serif" font-weight="normal" font-size="12"/><path d="M1920.94295,2246.8034c0,-13.25483 10.74517,-24 24,-24c13.25483,0 24,10.74517 24,24c0,13.25483 -10.74517,24 -24,24c-13.25483,0 -24,-10.74517 -24,-24z" fill="#000000" stroke-width="1" stroke-linecap="butt" stroke-dasharray="" font-family="sans-serif" font-weight="normal" font-size="12"/><path d="M1848.2887,2146.8034c0,-13.25483 10.74517,-24 24,-24c13.25483,0 24,10.74517 24,24c0,13.25483 -10.74517,24 -24,24c-13.25483,0 -24,-10.74517 -24,-24z" fill="#000000" stroke-width="1" stroke-linecap="butt" stroke-dasharray="" font-family="sans-serif" font-weight="normal" font-size="12"/><path d="M1848.2887,2023.1966c0,-13.25483 10.74517,-24 24,-24c13.25483,0 24,10.74517 24,24c0,13.25483 -10.74517,24 -24,24c-13.25483,0 -24,-10.74517 -24,-24z" fill="#000000" stroke-width="1" stroke-linecap="butt" stroke-dasharray="" font-family="sans-serif" font-weight="normal" font-size="12"/><path d="M1920.94295,1923.1966c0,-13.25483 10.74517,-24 24,-24c13.25483,0 24,10.74517 24,24c0,13.25483 -10.74517,24 -24,24c-13.25483,0 -24,-10.74517 -24,-24z" fill="#000000" stroke-width="1" stroke-linecap="butt" stroke-dasharray="" font-family="sans-serif" font-weight="normal" font-size="12"/><g stroke="#000000" stroke-width="2" stroke-linecap="round" stroke-dasharray="" font-family="sans-serif" font-weight="normal" font-size="12"><line x1="2062.5" y1="1885" x2="2180.05705" y2="1923.1966"/><line x1="2062.5" y1="1885" x2="1944.94295" y2="1923.1966"/><line x1="2180.05705" y1="1923.1966" x2="2252.7113" y2="2023.1966"/><line x1="2252.7113" y1="2023.1966" x2="2252.7113" y2="2146.8034"/><line x1="2252.7113" y1="2146.8034" x2="2180.05705" y2="2246.8034"/><line x1="2180.05705" y1="2246.8034" x2="2062.5" y2="2285"/><line x1="2062.5" y1="2285" x2="1944.94295" y2="2246.8034"/><line x1="1944.94295" y1="2246.8034" x2="1872.2887" y2="2146.8034"/><line x1="1872.2887" y1="2146.8034" x2="1872.2887" y2="2023.1966"/><line x1="1872.2887" y1="2023.1966" x2="1944.94295" y2="1923.1966"/></g><g stroke="#000000" stroke-width="2" stroke-linecap="round" stroke-dasharray="" font-family="sans-serif" font-weight="normal" font-size="12"><line x1="1767.85714" y1="2378.57143" x2="1797.24641" y2="2388.12058"/><line x1="1767.85714" y1="2378.57143" x2="1738.46788" y2="2388.12058"/><line x1="1797.24641" y1="2388.12058" x2="1815.40997" y2="2413.12058"/><line x1="1815.40997" y1="2413.12058" x2="1815.40997" y2="2444.02228"/><line x1="1815.40997" y1="2444.02228" x2="1797.24641" y2="2469.02228"/><line x1="1797.24641" y1="2469.02228" x2="1767.85714" y2="2478.57143"/><line x1="1767.85714" y1="2478.57143" x2="1738.46788" y2="2469.02228"/><line x1="1738.46788" y1="2469.02228" x2="1720.30432" y2="2444.02228"/><line x1="1720.30432" y1="2444.02228" x2="1720.30432" y2="2413.12058"/><line x1="1720.30432" y1="2413.12058" x2="1738.46788" y2="2388.12058"/></g><g stroke="#000000" stroke-width="2" stroke-linecap="round" stroke-dasharray="" font-family="sans-serif" font-weight="normal" font-size="12"><line x1="2062.5" y1="1885" x2="2252.7113" y2="2023.1966"/><line x1="2062.5" y1="1885" x2="1872.2887" y2="2023.1966"/><line x1="2180.05705" y1="1923.1966" x2="2252.7113" y2="2146.8034"/><line x1="2180.05705" y1="1923.1966" x2="1944.94295" y2="1923.1966"/><line x1="2252.7113" y1="2023.1966" x2="2180.05705" y2="2246.8034"/><line x1="2252.7113" y1="2146.8034" x2="2062.5" y2="2285"/><line x1="2180.05705" y1="2246.8034" x2="1944.94295" y2="2246.8034"/><line x1="2062.5" y1="2285" x2="1872.2887" y2="2146.8034"/><line x1="1944.94295" y1="2246.8034" x2="1872.2887" y2="2023.1966"/><line x1="1872.2887" y1="2146.8034" x2="1944.94295" y2="1923.1966"/></g><g stroke="#000000" stroke-width="2" stroke-linecap="round" stroke-dasharray="" font-family="sans-serif" font-weight="normal" font-size="12"><line x1="1915.17857" y1="2378.57143" x2="1962.7314" y2="2413.12058"/><line x1="1915.17857" y1="2378.57143" x2="1867.62575" y2="2413.12058"/><line x1="1944.56783" y1="2388.12058" x2="1962.7314" y2="2444.02228"/><line x1="1944.56783" y1="2388.12058" x2="1885.78931" y2="2388.12058"/><line x1="1962.7314" y1="2413.12058" x2="1944.56783" y2="2469.02228"/><line x1="1962.7314" y1="2444.02228" x2="1915.17857" y2="2478.57143"/><line x1="1944.56783" y1="2469.02228" x2="1885.78931" y2="2469.02228"/><line x1="1915.17857" y1="2478.57143" x2="1867.62575" y2="2444.02228"/><line x1="1885.78931" y1="2469.02228" x2="1867.62575" y2="2413.12058"/><line x1="1867.62575" y1="2444.02228" x2="1885.78931" y2="2388.12058"/></g><g stroke="#000000" stroke-width="2" stroke-linecap="round" stroke-dasharray="" font-family="sans-serif" font-weight="normal" font-size="12"><line x1="2062.5" y1="1885" x2="2252.7113" y2="2146.8034"/><line x1="2062.5" y1="1885" x2="1872.2887" y2="2146.8034"/><line x1="2180.05705" y1="1923.1966" x2="2180.05705" y2="2246.8034"/><line x1="2180.05705" y1="1923.1966" x2="1872.2887" y2="2023.1966"/><line x1="2252.7113" y1="2023.1966" x2="2062.5" y2="2285"/><line x1="2252.7113" y1="2023.1966" x2="1944.94295" y2="1923.1966"/><line x1="2252.7113" y1="2146.8034" x2="1944.94295" y2="2246.8034"/><line x1="2180.05705" y1="2246.8034" x2="1872.2887" y2="2146.8034"/><line x1="2062.5" y1="2285" x2="1872.2887" y2="2023.1966"/><line x1="1944.94295" y1="2246.8034" x2="1944.94295" y2="1923.1966"/></g><g stroke="#000000" stroke-width="2" stroke-linecap="round" stroke-dasharray="" font-family="sans-serif" font-weight="normal" font-size="12"><line x1="2062.5" y1="2378.57143" x2="2110.05283" y2="2444.02228"/><line x1="2062.5" y1="2378.57143" x2="2014.94717" y2="2444.02228"/><line x1="2091.88926" y1="2388.12058" x2="2091.88926" y2="2469.02228"/><line x1="2091.88926" y1="2388.12058" x2="2014.94717" y2="2413.12058"/><line x1="2110.05283" y1="2413.12058" x2="2062.5" y2="2478.57143"/><line x1="2110.05283" y1="2413.12058" x2="2033.11074" y2="2388.12058"/><line x1="2110.05283" y1="2444.02228" x2="2033.11074" y2="2469.02228"/><line x1="2091.88926" y1="2469.02228" x2="2014.94717" y2="2444.02228"/><line x1="2062.5" y1="2478.57143" x2="2014.94717" y2="2413.12058"/><line x1="2033.11074" y1="2469.02228" x2="2033.11074" y2="2388.12058"/></g><g stroke="#000000" stroke-width="2" stroke-linecap="round" stroke-dasharray="" font-family="sans-serif" font-weight="normal" font-size="12"><line x1="2062.5" y1="1885" x2="2180.05705" y2="2246.8034"/><line x1="2062.5" y1="1885" x2="1944.94295" y2="2246.8034"/><line x1="2180.05705" y1="1923.1966" x2="2062.5" y2="2285"/><line x1="2180.05705" y1="1923.1966" x2="1872.2887" y2="2146.8034"/><line x1="2252.7113" y1="2023.1966" x2="1944.94295" y2="2246.8034"/><line x1="2252.7113" y1="2023.1966" x2="1872.2887" y2="2023.1966"/><line x1="2252.7113" y1="2146.8034" x2="1872.2887" y2="2146.8034"/><line x1="2252.7113" y1="2146.8034" x2="1944.94295" y2="1923.1966"/><line x1="2180.05705" y1="2246.8034" x2="1872.2887" y2="2023.1966"/><line x1="2062.5" y1="2285" x2="1944.94295" y2="1923.1966"/></g><g stroke="#000000" stroke-width="2" stroke-linecap="round" stroke-dasharray="" font-family="sans-serif" font-weight="normal" font-size="12"><line x1="2209.82143" y1="2378.57143" x2="2239.21069" y2="2469.02228"/><line x1="2209.82143" y1="2378.57143" x2="2180.43217" y2="2469.02228"/><line x1="2239.21069" y1="2388.12058" x2="2209.82143" y2="2478.57143"/><line x1="2239.21069" y1="2388.12058" x2="2162.2686" y2="2444.02228"/><line x1="2257.37425" y1="2413.12058" x2="2180.43217" y2="2469.02228"/><line x1="2257.37425" y1="2413.12058" x2="2162.2686" y2="2413.12058"/><line x1="2257.37425" y1="2444.02228" x2="2162.2686" y2="2444.02228"/><line x1="2257.37425" y1="2444.02228" x2="2180.43217" y2="2388.12058"/><line x1="2239.21069" y1="2469.02228" x2="2162.2686" y2="2413.12058"/><line x1="2209.82143" y1="2478.57143" x2="2180.43217" y2="2388.12058"/></g><g stroke="#000000" stroke-width="2" stroke-linecap="round" stroke-dasharray="" font-family="sans-serif" font-weight="normal" font-size="12"><line x1="2062.5" y1="1885" x2="2062.5" y2="2285"/><line x1="2180.05705" y1="1923.1966" x2="1944.94295" y2="2246.8034"/><line x1="2252.7113" y1="2023.1966" x2="1872.2887" y2="2146.8034"/><line x1="2252.7113" y1="2146.8034" x2="1872.2887" y2="2023.1966"/><line x1="2180.05705" y1="2246.8034" x2="1944.94295" y2="1923.1966"/></g><g stroke="#000000" stroke-width="2" stroke-linecap="round" stroke-dasharray="" font-family="sans-serif" font-weight="normal" font-size="12"><line x1="2357.14286" y1="2378.57143" x2="2357.14286" y2="2478.57143"/><line x1="2386.53212" y1="2388.12058" x2="2327.75359" y2="2469.02228"/><line x1="2404.69568" y1="2413.12058" x2="2309.59003" y2="2444.02228"/><line x1="2404.69568" y1="2444.02228" x2="2309.59003" y2="2413.12058"/><line x1="2386.53212" y1="2469.02228" x2="2327.75359" y2="2388.12058"/></g><polygon points="2475,2550 2475,1700 3300,1700 3300,2550" stroke="#000000" stroke-width="1" stroke-linecap="butt" stroke-dasharray="1,4" font-family="sans-serif" font-weight="normal" font-size="12"/><text x="2536.13839" y="1857.42857" fill="#000000" stroke-width="1" stroke-linecap="butt" stroke-dasharray="" font-family="Times" font-weight="bold" font-size="120">11</text><path d="M2687.5,2085c0,-110.45695 89.54305,-200 200,-200c110.45695,0 200,89.54305 200,200c0,110.45695 -89.54305,200 -200,200c-110.45695,0 -200,-89.54305 -200,-200z" stroke="#000000" stroke-width="1" stroke-linecap="butt" stroke-dasharray="1,2" font-family="sans-serif" font-weight="normal" font-size="12"/><path d="M2863.5,1885c0,-13.25483 10.74517,-24 24,-24c13.25483,0 24,10.74517 24,24c0,13.25483 -10.74517,24 -24,24c-13.25483,0 -24,-10.74517 -24,-24z" fill="#000000" stroke-width="1" stroke-linecap="butt" stroke-dasharray="" font-family="sans-serif" font-weight="normal" font-size="12"/><path d="M2971.62816,1916.74929c0,-13.25483 10.74517,-24 24,-24c13.25483,0 24,10.74517 24,24c0,13.25483 -10.74517,24 -24,24c-13.25483,0 -24,-10.74517 -24,-24z" fill="#000000" stroke-width="1" stroke-linecap="butt" stroke-dasharray="" font-family="sans-serif" font-weight="normal" font-size="12"/><path d="M3045.4264,2001.917c0,-13.25483 10.74517,-24 24,-24c13.25483,0 24,10.74517 24,24c0,13.25483 -10.74517,24 -24,24c-13.25483,0 -24,-10.74517 -24,-24z" fill="#000000" stroke-width="1" stroke-linecap="butt" stroke-dasharray="" font-family="sans-serif" font-weight="normal" font-size="12"/><path d="M3061.46429,2113.46297c0,-13.25483 10.74517,-24 24,-24c13.25483,0 24,10.74517 24,24c0,13.25483 -10.74517,24 -24,24c-13.25483,0 -24,-10.74517 -24,-24z" fill="#000000" stroke-width="1" stroke-linecap="butt" stroke-dasharray="" font-family="sans-serif" font-weight="normal" font-size="12"/><path d="M3014.64991,2215.97215c0,-13.25483 10.74517,-24 24,-24c13.25483,0 24,10.74517 24,24c0,13.25483 -10.74517,24 -24,24c-13.25483,0 -24,-10.74517 -24,-24z" fill="#000000" stroke-width="1" stroke-linecap="butt" stroke-dasharray="" font-family="sans-serif" font-weight="normal" font-size="12"/><path d="M2919.84651,2276.89859c0,-13.25483 10.74517,-24 24,-24c13.25483,0 24,10.74517 24,24c0,13.25483 -10.74517,24 -24,24c-13.25483,0 -24,-10.74517 -24,-24z" fill="#000000" stroke-width="1" stroke-linecap="butt" stroke-dasharray="" font-family="sans-serif" font-weight="normal" font-size="12"/><path d="M2807.15349,2276.89859c0,-13.25483 10.74517,-24 24,-24c13.25483,0 24,10.74517 24,24c0,13.25483 -10.74517,24 -24,24c-13.25483,0 -24,-10.74517 -24,-24z" fill="#000000" stroke-width="1" stroke-linecap="butt" stroke-dasharray="" font-family="sans-serif" font-weight="normal" font-size="12"/><path d="M2712.35009,2215.97215c0,-13.25483 10.74517,-24 24,-24c13.25483,0 24,10.74517 24,24c0,13.25483 -10.74517,24 -24,24c-13.25483,0 -24,-10.74517 -24,-24z" fill="#000000" stroke-width="1" stroke-linecap="butt" stroke-dasharray="" font-family="sans-serif" font-weight="normal" font-size="12"/><path d="M2665.53571,2113.46297c0,-13.25483 10.74517,-24 24,-24c13.25483,0 24,10.74517 24,24c0,13.25483 -10.74517,24 -24,24c-13.25483,0 -24,-10.74517 -24,-24z" fill="#000000" stroke-width="1" stroke-linecap="butt" stroke-dasharray="" font-family="sans-serif" font-weight="normal" font-size="12"/><path d="M2681.5736,2001.917c0,-13.25483 10.74517,-24 24,-24c13.25483,0 24,10.74517 24,24c0,13.25483 -10.74517,24 -24,24c-13.25483,0 -24,-10.74517 -24,-24z" fill="#000000" stroke-width="1" stroke-linecap="butt" stroke-dasharray="" font-family="sans-serif" font-weight="normal" font-size="12"/><path d="M2755.37184,1916.74929c0,-13.25483 10.74517,-24 24,-24c13.25483,0 24,10.74517 24,24c0,13.25483 -10.74517,24 -24,24c-13.25483,0 -24,-10.74517 -24,-24z" fill="#000000" stroke-width="1" stroke-linecap="butt" stroke-dasharray="" font-family="sans-serif" font-weight="normal" font-size="12"/><g stroke="#000000" stroke-width="2" stroke-linecap="round" stroke-dasharray="" font-family="sans-serif" font-weight="normal" font-size="12"><line x1="2887.5" y1="1885" x2="2995.62816" y2="1916.74929"/><line x1="2887.5" y1="1885" x2="2779.37184" y2="1916.74929"/><line x1="2995.62816" y1="1916.74929" x2="3069.4264" y2="2001.917"/><line x1="3069.4264" y1="2001.917" x2="3085.46429" y2="2113.46297"/><line x1="3085.46429" y1="2113.46297" x2="3038.64991" y2="2215.97215"/><line x1="3038.64991" y1="2215.97215" x2="2943.84651" y2="2276.89859"/><line x1="2943.84651" y1="2276.89859" x2="2831.15349" y2="2276.89859"/><line x1="2831.15349" y1="2276.89859" x2="2736.35009" y2="2215.97215"/><line x1="2736.35009" y1="2215.97215" x2="2689.53571" y2="2113.46297"/><line x1="2689.53571" y1="2113.46297" x2="2705.5736" y2="2001.917"/><line x1="2705.5736" y1="2001.917" x2="2779.37184" y2="1916.74929"/></g><g stroke="#000000" stroke-width="2" stroke-linecap="round" stroke-dasharray="" font-family="sans-serif" font-weight="normal" font-size="12"><line x1="2592.85714" y1="2379.5841" x2="2619.88918" y2="2387.52143"/><line x1="2592.85714" y1="2379.5841" x2="2565.8251" y2="2387.52143"/><line x1="2619.88918" y1="2387.52143" x2="2638.33874" y2="2408.81335"/><line x1="2638.33874" y1="2408.81335" x2="2642.34821" y2="2436.69985"/><line x1="2642.34821" y1="2436.69985" x2="2630.64462" y2="2462.32714"/><line x1="2630.64462" y1="2462.32714" x2="2606.94377" y2="2477.55875"/><line x1="2606.94377" y1="2477.55875" x2="2578.77052" y2="2477.55875"/><line x1="2578.77052" y1="2477.55875" x2="2555.06966" y2="2462.32714"/><line x1="2555.06966" y1="2462.32714" x2="2543.36607" y2="2436.69985"/><line x1="2543.36607" y1="2436.69985" x2="2547.37554" y2="2408.81335"/><line x1="2547.37554" y1="2408.81335" x2="2565.8251" y2="2387.52143"/></g><g stroke="#000000" stroke-width="2" stroke-linecap="round" stroke-dasharray="" font-family="sans-serif" font-weight="normal" font-size="12"><line x1="2887.5" y1="1885" x2="3069.4264" y2="2001.917"/><line x1="2887.5" y1="1885" x2="2705.5736" y2="2001.917"/><line x1="2995.62816" y1="1916.74929" x2="3085.46429" y2="2113.46297"/><line x1="2995.62816" y1="1916.74929" x2="2779.37184" y2="1916.74929"/><line x1="3069.4264" y1="2001.917" x2="3038.64991" y2="2215.97215"/><line x1="3085.46429" y1="2113.46297" x2="2943.84651" y2="2276.89859"/><line x1="3038.64991" y1="2215.97215" x2="2831.15349" y2="2276.89859"/><line x1="2943.84651" y1="2276.89859" x2="2736.35009" y2="2215.97215"/><line x1="2831.15349" y1="2276.89859" x2="2689.53571" y2="2113.46297"/><line x1="2736.35009" y1="2215.97215" x2="2705.5736" y2="2001.917"/><line x1="2689.53571" y1="2113.46297" x2="2779.37184" y2="1916.74929"/></g><g stroke="#000000" stroke-width="2" stroke-linecap="round" stroke-dasharray="" font-family="sans-serif" font-weight="normal" font-size="12"><line x1="2740.17857" y1="2379.5841" x2="2785.66017" y2="2408.81335"/><line x1="2740.17857" y1="2379.5841" x2="2694.69697" y2="2408.81335"/><line x1="2767.21061" y1="2387.52143" x2="2789.66964" y2="2436.69985"/><line x1="2767.21061" y1="2387.52143" x2="2713.14653" y2="2387.52143"/><line x1="2785.66017" y1="2408.81335" x2="2777.96605" y2="2462.32714"/><line x1="2789.66964" y1="2436.69985" x2="2754.2652" y2="2477.55875"/><line x1="2777.96605" y1="2462.32714" x2="2726.09194" y2="2477.55875"/><line x1="2754.2652" y1="2477.55875" x2="2702.39109" y2="2462.32714"/><line x1="2726.09194" y1="2477.55875" x2="2690.6875" y2="2436.69985"/><line x1="2702.39109" y1="2462.32714" x2="2694.69697" y2="2408.81335"/><line x1="2690.6875" y1="2436.69985" x2="2713.14653" y2="2387.52143"/></g><g stroke="#000000" stroke-width="2" stroke-linecap="round" stroke-dasharray="" font-family="sans-serif" font-weight="normal" font-size="12"><line x1="2887.5" y1="1885" x2="3085.46429" y2="2113.46297"/><line x1="2887.5" y1="1885" x2="2689.53571" y2="2113.46297"/><line x1="2995.62816" y1="1916.74929" x2="3038.64991" y2="2215.97215"/><line x1="2995.62816" y1="1916.74929" x2="2705.5736" y2="2001.917"/><line x1="3069.4264" y1="2001.917" x2="2943.84651" y2="2276.89859"/><line x1="3069.4264" y1="2001.917" x2="2779.37184" y2="1916.74929"/><line x1="3085.46429" y1="2113.46297" x2="2831.15349" y2="2276.89859"/><line x1="3038.64991" y1="2215.97215" x2="2736.35009" y2="2215.97215"/><line x1="2943.84651" y1="2276.89859" x2="2689.53571" y2="2113.46297"/><line x1="2831.15349" y1="2276.89859" x2="2705.5736" y2="2001.917"/><line x1="2736.35009" y1="2215.97215" x2="2779.37184" y2="1916.74929"/></g><g stroke="#000000" stroke-width="2" stroke-linecap="round" stroke-dasharray="" font-family="sans-serif" font-weight="normal" font-size="12"><line x1="2887.5" y1="2379.5841" x2="2936.99107" y2="2436.69985"/><line x1="2887.5" y1="2379.5841" x2="2838.00893" y2="2436.69985"/><line x1="2914.53204" y1="2387.52143" x2="2925.28748" y2="2462.32714"/><line x1="2914.53204" y1="2387.52143" x2="2842.0184" y2="2408.81335"/><line x1="2932.9816" y1="2408.81335" x2="2901.58663" y2="2477.55875"/><line x1="2932.9816" y1="2408.81335" x2="2860.46796" y2="2387.52143"/><line x1="2936.99107" y1="2436.69985" x2="2873.41337" y2="2477.55875"/><line x1="2925.28748" y1="2462.32714" x2="2849.71252" y2="2462.32714"/><line x1="2901.58663" y1="2477.55875" x2="2838.00893" y2="2436.69985"/><line x1="2873.41337" y1="2477.55875" x2="2842.0184" y2="2408.81335"/><line x1="2849.71252" y1="2462.32714" x2="2860.46796" y2="2387.52143"/></g><g stroke="#000000" stroke-width="2" stroke-linecap="round" stroke-dasharray="" font-family="sans-serif" font-weight="normal" font-size="12"><line x1="2887.5" y1="1885" x2="3038.64991" y2="2215.97215"/><line x1="2887.5" y1="1885" x2="2736.35009" y2="2215.97215"/><line x1="2995.62816" y1="1916.74929" x2="2943.84651" y2="2276.89859"/><line x1="2995.62816" y1="1916.74929" x2="2689.53571" y2="2113.46297"/><line x1="3069.4264" y1="2001.917" x2="2831.15349" y2="2276.89859"/><line x1="3069.4264" y1="2001.917" x2="2705.5736" y2="2001.917"/><line x1="3085.46429" y1="2113.46297" x2="2736.35009" y2="2215.97215"/><line x1="3085.46429" y1="2113.46297" x2="2779.37184" y2="1916.74929"/><line x1="3038.64991" y1="2215.97215" x2="2689.53571" y2="2113.46297"/><line x1="2943.84651" y1="2276.89859" x2="2705.5736" y2="2001.917"/><line x1="2831.15349" y1="2276.89859" x2="2779.37184" y2="1916.74929"/></g><g stroke="#000000" stroke-width="2" stroke-linecap="round" stroke-dasharray="" font-family="sans-serif" font-weight="normal" font-size="12"><line x1="3034.82143" y1="2379.5841" x2="3072.60891" y2="2462.32714"/><line x1="3034.82143" y1="2379.5841" x2="2997.03395" y2="2462.32714"/><line x1="3061.85347" y1="2387.52143" x2="3048.90806" y2="2477.55875"/><line x1="3061.85347" y1="2387.52143" x2="2985.33036" y2="2436.69985"/><line x1="3080.30303" y1="2408.81335" x2="3020.7348" y2="2477.55875"/><line x1="3080.30303" y1="2408.81335" x2="2989.33983" y2="2408.81335"/><line x1="3084.3125" y1="2436.69985" x2="2997.03395" y2="2462.32714"/><line x1="3084.3125" y1="2436.69985" x2="3007.78939" y2="2387.52143"/><line x1="3072.60891" y1="2462.32714" x2="2985.33036" y2="2436.69985"/><line x1="3048.90806" y1="2477.55875" x2="2989.33983" y2="2408.81335"/><line x1="3020.7348" y1="2477.55875" x2="3007.78939" y2="2387.52143"/></g><g stroke="#000000" stroke-width="2" stroke-linecap="round" stroke-dasharray="" font-family="sans-serif" font-weight="normal" font-size="12"><line x1="2887.5" y1="1885" x2="2943.84651" y2="2276.89859"/><line x1="2887.5" y1="1885" x2="2831.15349" y2="2276.89859"/><line x1="2995.62816" y1="1916.74929" x2="2831.15349" y2="2276.89859"/><line x1="2995.62816" y1="1916.74929" x2="2736.35009" y2="2215.97215"/><line x1="3069.4264" y1="2001.917" x2="2736.35009" y2="2215.97215"/><line x1="3069.4264" y1="2001.917" x2="2689.53571" y2="2113.46297"/><line x1="3085.46429" y1="2113.46297" x2="2689.53571" y2="2113.46297"/><line x1="3085.46429" y1="2113.46297" x2="2705.5736" y2="2001.917"/><line x1="3038.64991" y1="2215.97215" x2="2705.5736" y2="2001.917"/><line x1="3038.64991" y1="2215.97215" x2="2779.37184" y2="1916.74929"/><line x1="2943.84651" y1="2276.89859" x2="2779.37184" y2="1916.74929"/></g><g stroke="#000000" stroke-width="2" stroke-linecap="round" stroke-dasharray="" font-family="sans-serif" font-weight="normal" font-size="12"><line x1="3182.14286" y1="2379.5841" x2="3196.22948" y2="2477.55875"/><line x1="3182.14286" y1="2379.5841" x2="3168.05623" y2="2477.55875"/><line x1="3209.1749" y1="2387.52143" x2="3168.05623" y2="2477.55875"/><line x1="3209.1749" y1="2387.52143" x2="3144.35538" y2="2462.32714"/><line x1="3227.62446" y1="2408.81335" x2="3144.35538" y2="2462.32714"/><line x1="3227.62446" y1="2408.81335" x2="3132.65179" y2="2436.69985"/><line x1="3231.63393" y1="2436.69985" x2="3132.65179" y2="2436.69985"/><line x1="3231.63393" y1="2436.69985" x2="3136.66126" y2="2408.81335"/><line x1="3219.93034" y1="2462.32714" x2="3136.66126" y2="2408.81335"/><line x1="3219.93034" y1="2462.32714" x2="3155.11082" y2="2387.52143"/><line x1="3196.22948" y1="2477.55875" x2="3155.11082" y2="2387.52143"/></g></g></svg>