<svg x="0" y="0" width="2550" height="3300" version="1.1" xmlns="http://www.w3.org/2000/svg" xmlns:xlink="http://www.w3.org/1999/xlink"><g fill="none" stroke="none" stroke-width="none" stroke-linecap="none" stroke-linejoin="miter" stroke-miterlimit="10" stroke-dasharray="" stroke-dashoffset="0" font-family="sans-serif" font-weight="normal" font-size="12" text-anchor="start" mix-blend-mode="normal"><path d="M1215,600c0,-33.13708 26.86292,-60 60,-60c33.13708,0 60,26.86292 60,60c0,33.13708 -26.86292,60 -60,60c-33.13708,0 -60,-26.86292 -60,-60z" stroke-width="1" stroke-linecap="butt"/><line x1="1275" y1="540" x2="1275" y2="660" stroke="#000000" stroke-width="2" stroke-linecap="round"/><path d="M1205.71797,849.28203c0,-38.26341 31.01862,-69.28203 69.28203,-69.28203c38.26341,0 69.28203,31.01862 69.28203,69.28203c0,38.26341 -31.01862,69.28203 -69.28203,69.28203c-38.26341,0 -69.28203,-31.01862 -69.28203,-69.28203z" stroke-width="1" stroke-linecap="butt"/><line x1="1275" y1="780" x2="1335" y2="883.92305" stroke="#000000" stroke-width="2" stroke-linecap="round"/><line x1="1275" y1="780" x2="1215" y2="883.92305" stroke="#000000" stroke-width="2" stroke-linecap="round"/><line x1="1335" y1="883.92305" x2="1215" y2="883.92305" stroke="#000000" stroke-width="2" stroke-linecap="round"/><path d="M1190.14719,1123.41688c0,-46.86292 37.9899,-84.85281 84.85281,-84.85281c46.86292,0 84.85281,37.9899 84.85281,84.85281c0,46.86292 -37.9899,84.85281 -84.85281,84.85281c-46.86292,0 -84.85281,-37.9899 -84.85281,-84.85281z" stroke-width="1" stroke-linecap="butt"/><line x1="1275" y1="1038.56406" x2="1359.85281" y2="1123.41688" stroke="#000000" stroke-width="2" stroke-linecap="round"/><line x1="1275" y1="1038.56406" x2="1275" y2="1208.26969" stroke="#000000" stroke-width="2" stroke-linecap="round"/><line x1="1275" y1="1038.56406" x2="1190.14719" y2="1123.41688" stroke="#000000" stroke-width="2" stroke-linecap="round"/><line x1="1359.85281" y1="1123.41688" x2="1275" y2="1208.26969" stroke="#000000" stroke-width="2" stroke-linecap="round"/><line x1="1359.85281" y1="1123.41688" x2="1190.14719" y2="1123.41688" stroke="#000000" stroke-width="2" stroke-linecap="round"/><line x1="1275" y1="1208.26969" x2="1190.14719" y2="1123.41688" stroke="#000000" stroke-width="2" stroke-linecap="round"/><path d="M1172.9219,1430.34779c0,-56.37618 45.70192,-102.0781 102.0781,-102.0781c56.37618,0 102.0781,45.70192 102.0781,102.0781c0,56.37618 -45.70192,102.0781 -102.0781,102.0781c-56.37618,0 -102.0781,-45.70192 -102.0781,-102.0781z" stroke-width="1" stroke-linecap="butt"/><line x1="1275" y1="1328.26969" x2="1372.08204" y2="1398.80392" stroke="#000000" stroke-width="2" stroke-linecap="round"/><line x1="1275" y1="1328.26969" x2="1335" y2="1512.9307" stroke="#000000" stroke-width="2" stroke-linecap="round"/><line x1="1275" y1="1328.26969" x2="1215" y2="1512.9307" stroke="#000000" stroke-width="2" stroke-linecap="round"/><line x1="1275" y1="1328.26969" x2="1177.91796" y2="1398.80392" stroke="#000000" stroke-width="2" stroke-linecap="round"/><line x1="1372.08204" y1="1398.80392" x2="1335" y2="1512.9307" stroke="#000000" stroke-width="2" stroke-linecap="round"/><line x1="1372.08204" y1="1398.80392" x2="1215" y2="1512.9307" stroke="#000000" stroke-width="2" stroke-linecap="round"/><line x1="1372.08204" y1="1398.80392" x2="1177.91796" y2="1398.80392" stroke="#000000" stroke-width="2" stroke-linecap="round"/><line x1="1335" y1="1512.9307" x2="1215" y2="1512.9307" stroke="#000000" stroke-width="2" stroke-linecap="round"/><line x1="1335" y1="1512.9307" x2="1177.91796" y2="1398.80392" stroke="#000000" stroke-width="2" stroke-linecap="round"/><line x1="1215" y1="1512.9307" x2="1177.91796" y2="1398.80392" stroke="#000000" stroke-width="2" stroke-linecap="round"/><path d="M1155,1772.42589c0,-66.27417 53.72583,-120 120,-120c66.27417,0 120,53.72583 120,120c0,66.27417 -53.72583,120 -120,120c-66.27417,0 -120,-53.72583 -120,-120z" stroke-width="1" stroke-linecap="butt"/><line x1="1275" y1="1652.42589" x2="1378.92305" y2="1712.42589" stroke="#000000" stroke-width="2" stroke-linecap="round"/><line x1="1275" y1="1652.42589" x2="1378.92305" y2="1832.42589" stroke="#000000" stroke-width="2" stroke-linecap="round"/><line x1="1275" y1="1652.42589" x2="1275" y2="1892.42589" stroke="#000000" stroke-width="2" stroke-linecap="round"/><line x1="1275" y1="1652.42589" x2="1171.07695" y2="1832.42589" stroke="#000000" stroke-width="2" stroke-linecap="round"/><line x1="1275" y1="1652.42589" x2="1171.07695" y2="1712.42589" stroke="#000000" stroke-width="2" stroke-linecap="round"/><line x1="1378.92305" y1="1712.42589" x2="1378.92305" y2="1832.42589" stroke="#000000" stroke-width="2" stroke-linecap="round"/><line x1="1378.92305" y1="1712.42589" x2="1275" y2="1892.42589" stroke="#000000" stroke-width="2" stroke-linecap="round"/><line x1="1378.92305" y1="1712.42589" x2="1171.07695" y2="1832.42589" stroke="#000000" stroke-width="2" stroke-linecap="round"/><line x1="1378.92305" y1="1712.42589" x2="1171.07695" y2="1712.42589" stroke="#000000" stroke-width="2" stroke-linecap="round"/><line x1="1378.92305" y1="1832.42589" x2="1275" y2="1892.42589" stroke="#000000" stroke-width="2" stroke-linecap="round"/><line x1="1378.92305" y1="1832.42589" x2="1171.07695" y2="1832.42589" stroke="#000000" stroke-width="2" stroke-linecap="round"/><line x1="1378.92305" y1="1832.42589" x2="1171.07695" y2="1712.42589" stroke="#000000" stroke-width="2" stroke-linecap="round"/><line x1="1275" y1="1892.42589" x2="1171.07695" y2="1832.42589" stroke="#000000" stroke-width="2" stroke-linecap="round"/><line x1="1275" y1="1892.42589" x2="1171.07695" y2="1712.42589" stroke="#000000" stroke-width="2" stroke-linecap="round"/><line x1="1171.07695" y1="1832.42589" x2="1171.07695" y2="1712.42589" stroke="#000000" stroke-width="2" stroke-linecap="round"/><path d="M1136.71411,2150.71178c0,-76.37319 61.9127,-138.28589 138.28589,-138.28589c76.37319,0 138.28589,61.9127 138.28589,138.28589c0,76.37319 -61.9127,138.28589 -138.28589,138.28589c-76.37319,0 -138.28589,-61.9127 -138.28589,-138.28589z" stroke-width="1" stroke-linecap="butt"/><line x1="1275" y1="2012.42589" x2="1383.11626" y2="2064.49193" stroke="#000000" stroke-width="2" stroke-linecap="round"/><line x1="1275" y1="2012.42589" x2="1409.81878" y2="2181.48328" stroke="#000000" stroke-width="2" stroke-linecap="round"/><line x1="1275" y1="2012.42589" x2="1335" y2="2275.30306" stroke="#000000" stroke-width="2" stroke-linecap="round"/><line x1="1275" y1="2012.42589" x2="1215" y2="2275.30306" stroke="#000000" stroke-width="2" stroke-linecap="round"/><line x1="1275" y1="2012.42589" x2="1140.18122" y2="2181.48328" stroke="#000000" stroke-width="2" stroke-linecap="round"/><line x1="1275" y1="2012.42589" x2="1166.88374" y2="2064.49193" stroke="#000000" stroke-width="2" stroke-linecap="round"/><line x1="1383.11626" y1="2064.49193" x2="1409.81878" y2="2181.48328" stroke="#000000" stroke-width="2" stroke-linecap="round"/><line x1="1383.11626" y1="2064.49193" x2="1335" y2="2275.30306" stroke="#000000" stroke-width="2" stroke-linecap="round"/><line x1="1383.11626" y1="2064.49193" x2="1215" y2="2275.30306" stroke="#000000" stroke-width="2" stroke-linecap="round"/><line x1="1383.11626" y1="2064.49193" x2="1140.18122" y2="2181.48328" stroke="#000000" stroke-width="2" stroke-linecap="round"/><line x1="1383.11626" y1="2064.49193" x2="1166.88374" y2="2064.49193" stroke="#000000" stroke-width="2" stroke-linecap="round"/><line x1="1409.81878" y1="2181.48328" x2="1335" y2="2275.30306" stroke="#000000" stroke-width="2" stroke-linecap="round"/><line x1="1409.81878" y1="2181.48328" x2="1215" y2="2275.30306" stroke="#000000" stroke-width="2" stroke-linecap="round"/><line x1="1409.81878" y1="2181.48328" x2="1140.18122" y2="2181.48328" stroke="#000000" stroke-width="2" stroke-linecap="round"/><line x1="1409.81878" y1="2181.48328" x2="1166.88374" y2="2064.49193" stroke="#000000" stroke-width="2" stroke-linecap="round"/><line x1="1335" y1="2275.30306" x2="1215" y2="2275.30306" stroke="#000000" stroke-width="2" stroke-linecap="round"/><line x1="1335" y1="2275.30306" x2="1140.18122" y2="2181.48328" stroke="#000000" stroke-width="2" stroke-linecap="round"/><line x1="1335" y1="2275.30306" x2="1166.88374" y2="2064.49193" stroke="#000000" stroke-width="2" stroke-linecap="round"/><line x1="1215" y1="2275.30306" x2="1140.18122" y2="2181.48328" stroke="#000000" stroke-width="2" stroke-linecap="round"/><line x1="1215" y1="2275.30306" x2="1166.88374" y2="2064.49193" stroke="#000000" stroke-width="2" stroke-linecap="round"/><line x1="1140.18122" y1="2181.48328" x2="1166.88374" y2="2064.49193" stroke="#000000" stroke-width="2" stroke-linecap="round"/><path d="M1118.21244,2565.78523c0,-86.59138 70.19618,-156.78756 156.78756,-156.78756c86.59138,0 156.78756,70.19618 156.78756,156.78756c0,86.59138 -70.19618,156.78756 -156.78756,156.78756c-86.59138,0 -156.78756,-70.19618 -156.78756,-156.78756z" stroke-width="1" stroke-linecap="butt"/><line x1="1275" y1="2408.99767" x2="1385.86554" y2="2454.91968" stroke="#000000" stroke-width="2" stroke-linecap="round"/><line x1="1275" y1="2408.99767" x2="1431.78756" y2="2565.78523" stroke="#000000" stroke-width="2" stroke-linecap="round"/><line x1="1275" y1="2408.99767" x2="1385.86554" y2="2676.65077" stroke="#000000" stroke-width="2" stroke-linecap="round"/><line x1="1275" y1="2408.99767" x2="1275" y2="2722.57278" stroke="#000000" stroke-width="2" stroke-linecap="round"/><line x1="1275" y1="2408.99767" x2="1164.13446" y2="2676.65077" stroke="#000000" stroke-width="2" stroke-linecap="round"/><line x1="1275" y1="2408.99767" x2="1118.21244" y2="2565.78523" stroke="#000000" stroke-width="2" stroke-linecap="round"/><line x1="1275" y1="2408.99767" x2="1164.13446" y2="2454.91968" stroke="#000000" stroke-width="2" stroke-linecap="round"/><line x1="1385.86554" y1="2454.91968" x2="1431.78756" y2="2565.78523" stroke="#000000" stroke-width="2" stroke-linecap="round"/><line x1="1385.86554" y1="2454.91968" x2="1385.86554" y2="2676.65077" stroke="#000000" stroke-width="2" stroke-linecap="round"/><line x1="1385.86554" y1="2454.91968" x2="1275" y2="2722.57278" stroke="#000000" stroke-width="2" stroke-linecap="round"/><line x1="1385.86554" y1="2454.91968" x2="1164.13446" y2="2676.65077" stroke="#000000" stroke-width="2" stroke-linecap="round"/><line x1="1385.86554" y1="2454.91968" x2="1118.21244" y2="2565.78523" stroke="#000000" stroke-width="2" stroke-linecap="round"/><line x1="1385.86554" y1="2454.91968" x2="1164.13446" y2="2454.91968" stroke="#000000" stroke-width="2" stroke-linecap="round"/><line x1="1431.78756" y1="2565.78523" x2="1385.86554" y2="2676.65077" stroke="#000000" stroke-width="2" stroke-linecap="round"/><line x1="1431.78756" y1="2565.78523" x2="1275" y2="2722.57278" stroke="#000000" stroke-width="2" stroke-linecap="round"/><line x1="1431.78756" y1="2565.78523" x2="1164.13446" y2="2676.65077" stroke="#000000" stroke-width="2" stroke-linecap="round"/><line x1="1431.78756" y1="2565.78523" x2="1118.21244" y2="2565.78523" stroke="#000000" stroke-width="2" stroke-linecap="round"/><line x1="1431.78756" y1="2565.78523" x2="1164.13446" y2="2454.91968" stroke="#000000" stroke-width="2" stroke-linecap="round"/><line x1="1385.86554" y1="2676.65077" x2="1275" y2="2722.57278" stroke="#000000" stroke-width="2" stroke-linecap="round"/><line x1="1385.86554" y1="2676.65077" x2="1164.13446" y2="2676.65077" stroke="#000000" stroke-width="2" stroke-linecap="round"/><line x1="1385.86554" y1="2676.65077" x2="1118.21244" y2="2565.78523" stroke="#000000" stroke-width="2" stroke-linecap="round"/><line x1="1385.86554" y1="2676.65077" x2="1164.13446" y2="2454.91968" stroke="#000000" stroke-width="2" stroke-linecap="round"/><line x1="1275" y1="2722.57278" x2="1164.13446" y2="2676.65077" stroke="#000000" stroke-width="2" stroke-linecap="round"/><line x1="1275" y1="2722.57278" x2="1118.21244" y2="2565.78523" stroke="#000000" stroke-width="2" stroke-linecap="round"/><line x1="1275" y1="2722.57278" x2="1164.13446" y2="2454.91968" stroke="#000000" stroke-width="2" stroke-linecap="round"/><line x1="1164.13446" y1="2676.65077" x2="1118.21244" y2="2565.78523" stroke="#000000" stroke-width="2" stroke-linecap="round"/><line x1="1164.13446" y1="2676.65077" x2="1164.13446" y2="2454.91968" stroke="#000000" stroke-width="2" stroke-linecap="round"/><line x1="1118.21244" y1="2565.78523" x2="1164.13446" y2="2454.91968" stroke="#000000" stroke-width="2" stroke-linecap="round"/></g></svg>