<svg x="0" y="0" width="2550" height="3300" version="1.1" xmlns="http://www.w3.org/2000/svg" xmlns:xlink="http://www.w3.org/1999/xlink"><g fill="none" stroke="none" stroke-width="none" stroke-linecap="none" stroke-linejoin="miter" stroke-miterlimit="10" stroke-dasharray="" stroke-dashoffset="0" font-family="sans-serif" font-weight="normal" font-size="12" text-anchor="start" mix-blend-mode="normal"><path d="M1225,361c0,-27.61424 22.38576,-50 50,-50c27.61424,0 50,22.38576 50,50c0,27.61424 -22.38576,50 -50,50c-27.61424,0 -50,-22.38576 -50,-50z" stroke-width="1" stroke-linecap="butt"/><line x1="1275" y1="311" x2="1275" y2="411" stroke="#000000" stroke-width="2" stroke-linecap="round"/><path d="M1217.26497,565.73503c0,-31.88617 25.84885,-57.73503 57.73503,-57.73503c31.88617,0 57.73503,25.84885 57.73503,57.73503c0,31.88617 -25.84885,57.73503 -57.73503,57.73503c-31.88617,0 -57.73503,-25.84885 -57.73503,-57.73503z" stroke-width="1" stroke-linecap="butt"/><line x1="1275" y1="508" x2="1325" y2="594.60254" stroke="#000000" stroke-width="2" stroke-linecap="round"/><line x1="1275" y1="508" x2="1225" y2="594.60254" stroke="#000000" stroke-width="2" stroke-linecap="round"/><line x1="1325" y1="594.60254" x2="1225" y2="594.60254" stroke="#000000" stroke-width="2" stroke-linecap="round"/><path d="M1204.28932,791.18073c0,-39.05243 31.65825,-70.71068 70.71068,-70.71068c39.05243,0 70.71068,31.65825 70.71068,70.71068c0,39.05243 -31.65825,70.71068 -70.71068,70.71068c-39.05243,0 -70.71068,-31.65825 -70.71068,-70.71068z" stroke-width="1" stroke-linecap="butt"/><line x1="1275" y1="720.47005" x2="1345.71068" y2="791.18073" stroke="#000000" stroke-width="2" stroke-linecap="round"/><line x1="1275" y1="720.47005" x2="1275" y2="861.89141" stroke="#000000" stroke-width="2" stroke-linecap="round"/><line x1="1275" y1="720.47005" x2="1204.28932" y2="791.18073" stroke="#000000" stroke-width="2" stroke-linecap="round"/><line x1="1345.71068" y1="791.18073" x2="1275" y2="861.89141" stroke="#000000" stroke-width="2" stroke-linecap="round"/><line x1="1345.71068" y1="791.18073" x2="1204.28932" y2="791.18073" stroke="#000000" stroke-width="2" stroke-linecap="round"/><line x1="1275" y1="861.89141" x2="1204.28932" y2="791.18073" stroke="#000000" stroke-width="2" stroke-linecap="round"/><path d="M1189.93492,1043.95649c0,-46.98015 38.08493,-85.06508 85.06508,-85.06508c46.98015,0 85.06508,38.08493 85.06508,85.06508c0,46.98015 -38.08493,85.06508 -85.06508,85.06508c-46.98015,0 -85.06508,-38.08493 -85.06508,-85.06508z" stroke-width="1" stroke-linecap="butt"/><line x1="1275" y1="958.89141" x2="1355.9017" y2="1017.66994" stroke="#000000" stroke-width="2" stroke-linecap="round"/><line x1="1275" y1="958.89141" x2="1325" y2="1112.77559" stroke="#000000" stroke-width="2" stroke-linecap="round"/><line x1="1275" y1="958.89141" x2="1225" y2="1112.77559" stroke="#000000" stroke-width="2" stroke-linecap="round"/><line x1="1275" y1="958.89141" x2="1194.0983" y2="1017.66994" stroke="#000000" stroke-width="2" stroke-linecap="round"/><line x1="1355.9017" y1="1017.66994" x2="1325" y2="1112.77559" stroke="#000000" stroke-width="2" stroke-linecap="round"/><line x1="1355.9017" y1="1017.66994" x2="1225" y2="1112.77559" stroke="#000000" stroke-width="2" stroke-linecap="round"/><line x1="1355.9017" y1="1017.66994" x2="1194.0983" y2="1017.66994" stroke="#000000" stroke-width="2" stroke-linecap="round"/><line x1="1325" y1="1112.77559" x2="1225" y2="1112.77559" stroke="#000000" stroke-width="2" stroke-linecap="round"/><line x1="1325" y1="1112.77559" x2="1194.0983" y2="1017.66994" stroke="#000000" stroke-width="2" stroke-linecap="round"/><line x1="1225" y1="1112.77559" x2="1194.0983" y2="1017.66994" stroke="#000000" stroke-width="2" stroke-linecap="round"/><path d="M1175,1326.02157c0,-55.22847 44.77153,-100 100,-100c55.22847,0 100,44.77153 100,100c0,55.22847 -44.77153,100 -100,100c-55.22847,0 -100,-44.77153 -100,-100z" stroke-width="1" stroke-linecap="butt"/><line x1="1275" y1="1226.02157" x2="1361.60254" y2="1276.02157" stroke="#000000" stroke-width="2" stroke-linecap="round"/><line x1="1275" y1="1226.02157" x2="1361.60254" y2="1376.02157" stroke="#000000" stroke-width="2" stroke-linecap="round"/><line x1="1275" y1="1226.02157" x2="1275" y2="1426.02157" stroke="#000000" stroke-width="2" stroke-linecap="round"/><line x1="1275" y1="1226.02157" x2="1188.39746" y2="1376.02157" stroke="#000000" stroke-width="2" stroke-linecap="round"/><line x1="1275" y1="1226.02157" x2="1188.39746" y2="1276.02157" stroke="#000000" stroke-width="2" stroke-linecap="round"/><line x1="1361.60254" y1="1276.02157" x2="1361.60254" y2="1376.02157" stroke="#000000" stroke-width="2" stroke-linecap="round"/><line x1="1361.60254" y1="1276.02157" x2="1275" y2="1426.02157" stroke="#000000" stroke-width="2" stroke-linecap="round"/><line x1="1361.60254" y1="1276.02157" x2="1188.39746" y2="1376.02157" stroke="#000000" stroke-width="2" stroke-linecap="round"/><line x1="1361.60254" y1="1276.02157" x2="1188.39746" y2="1276.02157" stroke="#000000" stroke-width="2" stroke-linecap="round"/><line x1="1361.60254" y1="1376.02157" x2="1275" y2="1426.02157" stroke="#000000" stroke-width="2" stroke-linecap="round"/><line x1="1361.60254" y1="1376.02157" x2="1188.39746" y2="1376.02157" stroke="#000000" stroke-width="2" stroke-linecap="round"/><line x1="1361.60254" y1="1376.02157" x2="1188.39746" y2="1276.02157" stroke="#000000" stroke-width="2" stroke-linecap="round"/><line x1="1275" y1="1426.02157" x2="1188.39746" y2="1376.02157" stroke="#000000" stroke-width="2" stroke-linecap="round"/><line x1="1275" y1="1426.02157" x2="1188.39746" y2="1276.02157" stroke="#000000" stroke-width="2" stroke-linecap="round"/><line x1="1188.39746" y1="1376.02157" x2="1188.39746" y2="1276.02157" stroke="#000000" stroke-width="2" stroke-linecap="round"/><path d="M1159.76176,1638.25982c0,-63.64432 51.59392,-115.23824 115.23824,-115.23824c63.64432,0 115.23824,51.59392 115.23824,115.23824c0,63.64432 -51.59392,115.23824 -115.23824,115.23824c-63.64432,0 -115.23824,-51.59392 -115.23824,-115.23824z" stroke-width="1" stroke-linecap="butt"/><line x1="1275" y1="1523.02157" x2="1365.09689" y2="1566.40995" stroke="#000000" stroke-width="2" stroke-linecap="round"/><line x1="1275" y1="1523.02157" x2="1387.34898" y2="1663.90274" stroke="#000000" stroke-width="2" stroke-linecap="round"/><line x1="1275" y1="1523.02157" x2="1325" y2="1742.08589" stroke="#000000" stroke-width="2" stroke-linecap="round"/><line x1="1275" y1="1523.02157" x2="1225" y2="1742.08589" stroke="#000000" stroke-width="2" stroke-linecap="round"/><line x1="1275" y1="1523.02157" x2="1162.65102" y2="1663.90274" stroke="#000000" stroke-width="2" stroke-linecap="round"/><line x1="1275" y1="1523.02157" x2="1184.90311" y2="1566.40995" stroke="#000000" stroke-width="2" stroke-linecap="round"/><line x1="1365.09689" y1="1566.40995" x2="1387.34898" y2="1663.90274" stroke="#000000" stroke-width="2" stroke-linecap="round"/><line x1="1365.09689" y1="1566.40995" x2="1325" y2="1742.08589" stroke="#000000" stroke-width="2" stroke-linecap="round"/><line x1="1365.09689" y1="1566.40995" x2="1225" y2="1742.08589" stroke="#000000" stroke-width="2" stroke-linecap="round"/><line x1="1365.09689" y1="1566.40995" x2="1162.65102" y2="1663.90274" stroke="#000000" stroke-width="2" stroke-linecap="round"/><line x1="1365.09689" y1="1566.40995" x2="1184.90311" y2="1566.40995" stroke="#000000" stroke-width="2" stroke-linecap="round"/><line x1="1387.34898" y1="1663.90274" x2="1325" y2="1742.08589" stroke="#000000" stroke-width="2" stroke-linecap="round"/><line x1="1387.34898" y1="1663.90274" x2="1225" y2="1742.08589" stroke="#000000" stroke-width="2" stroke-linecap="round"/><line x1="1387.34898" y1="1663.90274" x2="1162.65102" y2="1663.90274" stroke="#000000" stroke-width="2" stroke-linecap="round"/><line x1="1387.34898" y1="1663.90274" x2="1184.90311" y2="1566.40995" stroke="#000000" stroke-width="2" stroke-linecap="round"/><line x1="1325" y1="1742.08589" x2="1225" y2="1742.08589" stroke="#000000" stroke-width="2" stroke-linecap="round"/><line x1="1325" y1="1742.08589" x2="1162.65102" y2="1663.90274" stroke="#000000" stroke-width="2" stroke-linecap="round"/><line x1="1325" y1="1742.08589" x2="1184.90311" y2="1566.40995" stroke="#000000" stroke-width="2" stroke-linecap="round"/><line x1="1225" y1="1742.08589" x2="1162.65102" y2="1663.90274" stroke="#000000" stroke-width="2" stroke-linecap="round"/><line x1="1225" y1="1742.08589" x2="1184.90311" y2="1566.40995" stroke="#000000" stroke-width="2" stroke-linecap="round"/><line x1="1162.65102" y1="1663.90274" x2="1184.90311" y2="1566.40995" stroke="#000000" stroke-width="2" stroke-linecap="round"/><path d="M1144.3437,1981.15436c0,-72.15948 58.49682,-130.6563 130.6563,-130.6563c72.15948,0 130.6563,58.49682 130.6563,130.6563c0,72.15948 -58.49682,130.6563 -130.6563,130.6563c-72.15948,0 -130.6563,-58.49682 -130.6563,-130.6563z" stroke-width="1" stroke-linecap="butt"/><line x1="1275" y1="1850.49806" x2="1367.38795" y2="1888.7664" stroke="#000000" stroke-width="2" stroke-linecap="round"/><line x1="1275" y1="1850.49806" x2="1405.6563" y2="1981.15436" stroke="#000000" stroke-width="2" stroke-linecap="round"/><line x1="1275" y1="1850.49806" x2="1367.38795" y2="2073.54231" stroke="#000000" stroke-width="2" stroke-linecap="round"/><line x1="1275" y1="1850.49806" x2="1275" y2="2111.81065" stroke="#000000" stroke-width="2" stroke-linecap="round"/><line x1="1275" y1="1850.49806" x2="1182.61205" y2="2073.54231" stroke="#000000" stroke-width="2" stroke-linecap="round"/><line x1="1275" y1="1850.49806" x2="1144.3437" y2="1981.15436" stroke="#000000" stroke-width="2" stroke-linecap="round"/><line x1="1275" y1="1850.49806" x2="1182.61205" y2="1888.7664" stroke="#000000" stroke-width="2" stroke-linecap="round"/><line x1="1367.38795" y1="1888.7664" x2="1405.6563" y2="1981.15436" stroke="#000000" stroke-width="2" stroke-linecap="round"/><line x1="1367.38795" y1="1888.7664" x2="1367.38795" y2="2073.54231" stroke="#000000" stroke-width="2" stroke-linecap="round"/><line x1="1367.38795" y1="1888.7664" x2="1275" y2="2111.81065" stroke="#000000" stroke-width="2" stroke-linecap="round"/><line x1="1367.38795" y1="1888.7664" x2="1182.61205" y2="2073.54231" stroke="#000000" stroke-width="2" stroke-linecap="round"/><line x1="1367.38795" y1="1888.7664" x2="1144.3437" y2="1981.15436" stroke="#000000" stroke-width="2" stroke-linecap="round"/><line x1="1367.38795" y1="1888.7664" x2="1182.61205" y2="1888.7664" stroke="#000000" stroke-width="2" stroke-linecap="round"/><line x1="1405.6563" y1="1981.15436" x2="1367.38795" y2="2073.54231" stroke="#000000" stroke-width="2" stroke-linecap="round"/><line x1="1405.6563" y1="1981.15436" x2="1275" y2="2111.81065" stroke="#000000" stroke-width="2" stroke-linecap="round"/><line x1="1405.6563" y1="1981.15436" x2="1182.61205" y2="2073.54231" stroke="#000000" stroke-width="2" stroke-linecap="round"/><line x1="1405.6563" y1="1981.15436" x2="1144.3437" y2="1981.15436" stroke="#000000" stroke-width="2" stroke-linecap="round"/><line x1="1405.6563" y1="1981.15436" x2="1182.61205" y2="1888.7664" stroke="#000000" stroke-width="2" stroke-linecap="round"/><line x1="1367.38795" y1="2073.54231" x2="1275" y2="2111.81065" stroke="#000000" stroke-width="2" stroke-linecap="round"/><line x1="1367.38795" y1="2073.54231" x2="1182.61205" y2="2073.54231" stroke="#000000" stroke-width="2" stroke-linecap="round"/><line x1="1367.38795" y1="2073.54231" x2="1144.3437" y2="1981.15436" stroke="#000000" stroke-width="2" stroke-linecap="round"/><line x1="1367.38795" y1="2073.54231" x2="1182.61205" y2="1888.7664" stroke="#000000" stroke-width="2" stroke-linecap="round"/><line x1="1275" y1="2111.81065" x2="1182.61205" y2="2073.54231" stroke="#000000" stroke-width="2" stroke-linecap="round"/><line x1="1275" y1="2111.81065" x2="1144.3437" y2="1981.15436" stroke="#000000" stroke-width="2" stroke-linecap="round"/><line x1="1275" y1="2111.81065" x2="1182.61205" y2="1888.7664" stroke="#000000" stroke-width="2" stroke-linecap="round"/><line x1="1182.61205" y1="2073.54231" x2="1144.3437" y2="1981.15436" stroke="#000000" stroke-width="2" stroke-linecap="round"/><line x1="1182.61205" y1="2073.54231" x2="1182.61205" y2="1888.7664" stroke="#000000" stroke-width="2" stroke-linecap="round"/><line x1="1144.3437" y1="1981.15436" x2="1182.61205" y2="1888.7664" stroke="#000000" stroke-width="2" stroke-linecap="round"/><path d="M1128.80978,2355.00087c0,-80.73863 65.45159,-146.19022 146.19022,-146.19022c80.73863,0 146.19022,65.45159 146.19022,146.19022c0,80.73863 -65.45159,146.19022 -146.19022,146.19022c-80.73863,0 -146.19022,-65.45159 -146.19022,-146.19022z" stroke-width="1" stroke-linecap="butt"/><line x1="1275" y1="2208.81065" x2="1368.96926" y2="2243.01267" stroke="#000000" stroke-width="2" stroke-linecap="round"/><line x1="1275" y1="2208.81065" x2="1418.96926" y2="2329.61521" stroke="#000000" stroke-width="2" stroke-linecap="round"/><line x1="1275" y1="2208.81065" x2="1401.60444" y2="2428.09598" stroke="#000000" stroke-width="2" stroke-linecap="round"/><line x1="1275" y1="2208.81065" x2="1325" y2="2492.37474" stroke="#000000" stroke-width="2" stroke-linecap="round"/><line x1="1275" y1="2208.81065" x2="1225" y2="2492.37474" stroke="#000000" stroke-width="2" stroke-linecap="round"/><line x1="1275" y1="2208.81065" x2="1148.39556" y2="2428.09598" stroke="#000000" stroke-width="2" stroke-linecap="round"/><line x1="1275" y1="2208.81065" x2="1131.03074" y2="2329.61521" stroke="#000000" stroke-width="2" stroke-linecap="round"/><line x1="1275" y1="2208.81065" x2="1181.03074" y2="2243.01267" stroke="#000000" stroke-width="2" stroke-linecap="round"/><line x1="1368.96926" y1="2243.01267" x2="1418.96926" y2="2329.61521" stroke="#000000" stroke-width="2" stroke-linecap="round"/><line x1="1368.96926" y1="2243.01267" x2="1401.60444" y2="2428.09598" stroke="#000000" stroke-width="2" stroke-linecap="round"/><line x1="1368.96926" y1="2243.01267" x2="1325" y2="2492.37474" stroke="#000000" stroke-width="2" stroke-linecap="round"/><line x1="1368.96926" y1="2243.01267" x2="1225" y2="2492.37474" stroke="#000000" stroke-width="2" stroke-linecap="round"/><line x1="1368.96926" y1="2243.01267" x2="1148.39556" y2="2428.09598" stroke="#000000" stroke-width="2" stroke-linecap="round"/><line x1="1368.96926" y1="2243.01267" x2="1131.03074" y2="2329.61521" stroke="#000000" stroke-width="2" stroke-linecap="round"/><line x1="1368.96926" y1="2243.01267" x2="1181.03074" y2="2243.01267" stroke="#000000" stroke-width="2" stroke-linecap="round"/><line x1="1418.96926" y1="2329.61521" x2="1401.60444" y2="2428.09598" stroke="#000000" stroke-width="2" stroke-linecap="round"/><line x1="1418.96926" y1="2329.61521" x2="1325" y2="2492.37474" stroke="#000000" stroke-width="2" stroke-linecap="round"/><line x1="1418.96926" y1="2329.61521" x2="1225" y2="2492.37474" stroke="#000000" stroke-width="2" stroke-linecap="round"/><line x1="1418.96926" y1="2329.61521" x2="1148.39556" y2="2428.09598" stroke="#000000" stroke-width="2" stroke-linecap="round"/><line x1="1418.96926" y1="2329.61521" x2="1131.03074" y2="2329.61521" stroke="#000000" stroke-width="2" stroke-linecap="round"/><line x1="1418.96926" y1="2329.61521" x2="1181.03074" y2="2243.01267" stroke="#000000" stroke-width="2" stroke-linecap="round"/><line x1="1401.60444" y1="2428.09598" x2="1325" y2="2492.37474" stroke="#000000" stroke-width="2" stroke-linecap="round"/><line x1="1401.60444" y1="2428.09598" x2="1225" y2="2492.37474" stroke="#000000" stroke-width="2" stroke-linecap="round"/><line x1="1401.60444" y1="2428.09598" x2="1148.39556" y2="2428.09598" stroke="#000000" stroke-width="2" stroke-linecap="round"/><line x1="1401.60444" y1="2428.09598" x2="1131.03074" y2="2329.61521" stroke="#000000" stroke-width="2" stroke-linecap="round"/><line x1="1401.60444" y1="2428.09598" x2="1181.03074" y2="2243.01267" stroke="#000000" stroke-width="2" stroke-linecap="round"/><line x1="1325" y1="2492.37474" x2="1225" y2="2492.37474" stroke="#000000" stroke-width="2" stroke-linecap="round"/><line x1="1325" y1="2492.37474" x2="1148.39556" y2="2428.09598" stroke="#000000" stroke-width="2" stroke-linecap="round"/><line x1="1325" y1="2492.37474" x2="1131.03074" y2="2329.61521" stroke="#000000" stroke-width="2" stroke-linecap="round"/><line x1="1325" y1="2492.37474" x2="1181.03074" y2="2243.01267" stroke="#000000" stroke-width="2" stroke-linecap="round"/><line x1="1225" y1="2492.37474" x2="1148.39556" y2="2428.09598" stroke="#000000" stroke-width="2" stroke-linecap="round"/><line x1="1225" y1="2492.37474" x2="1131.03074" y2="2329.61521" stroke="#000000" stroke-width="2" stroke-linecap="round"/><line x1="1225" y1="2492.37474" x2="1181.03074" y2="2243.01267" stroke="#000000" stroke-width="2" stroke-linecap="round"/><line x1="1148.39556" y1="2428.09598" x2="1131.03074" y2="2329.61521" stroke="#000000" stroke-width="2" stroke-linecap="round"/><line x1="1148.39556" y1="2428.09598" x2="1181.03074" y2="2243.01267" stroke="#000000" stroke-width="2" stroke-linecap="round"/><line x1="1131.03074" y1="2329.61521" x2="1181.03074" y2="2243.01267" stroke="#000000" stroke-width="2" stroke-linecap="round"/><path d="M1113.1966,2759.99449c0,-89.36155 72.44185,-161.8034 161.8034,-161.8034c89.36155,0 161.8034,72.44185 161.8034,161.8034c0,89.36155 -72.44185,161.8034 -161.8034,161.8034c-89.36155,0 -161.8034,-72.44185 -161.8034,-161.8034z" stroke-width="1" stroke-linecap="butt"/><line x1="1275" y1="2598.19109" x2="1370.10565" y2="2629.09279" stroke="#000000" stroke-width="2" stroke-linecap="round"/><line x1="1275" y1="2598.19109" x2="1428.88418" y2="2709.99449" stroke="#000000" stroke-width="2" stroke-linecap="round"/><line x1="1275" y1="2598.19109" x2="1428.88418" y2="2809.99449" stroke="#000000" stroke-width="2" stroke-linecap="round"/><line x1="1275" y1="2598.19109" x2="1370.10565" y2="2890.89619" stroke="#000000" stroke-width="2" stroke-linecap="round"/><line x1="1275" y1="2598.19109" x2="1275" y2="2921.79789" stroke="#000000" stroke-width="2" stroke-linecap="round"/><line x1="1275" y1="2598.19109" x2="1179.89435" y2="2890.89619" stroke="#000000" stroke-width="2" stroke-linecap="round"/><line x1="1275" y1="2598.19109" x2="1121.11582" y2="2809.99449" stroke="#000000" stroke-width="2" stroke-linecap="round"/><line x1="1275" y1="2598.19109" x2="1121.11582" y2="2709.99449" stroke="#000000" stroke-width="2" stroke-linecap="round"/><line x1="1275" y1="2598.19109" x2="1179.89435" y2="2629.09279" stroke="#000000" stroke-width="2" stroke-linecap="round"/><line x1="1370.10565" y1="2629.09279" x2="1428.88418" y2="2709.99449" stroke="#000000" stroke-width="2" stroke-linecap="round"/><line x1="1370.10565" y1="2629.09279" x2="1428.88418" y2="2809.99449" stroke="#000000" stroke-width="2" stroke-linecap="round"/><line x1="1370.10565" y1="2629.09279" x2="1370.10565" y2="2890.89619" stroke="#000000" stroke-width="2" stroke-linecap="round"/><line x1="1370.10565" y1="2629.09279" x2="1275" y2="2921.79789" stroke="#000000" stroke-width="2" stroke-linecap="round"/><line x1="1370.10565" y1="2629.09279" x2="1179.89435" y2="2890.89619" stroke="#000000" stroke-width="2" stroke-linecap="round"/><line x1="1370.10565" y1="2629.09279" x2="1121.11582" y2="2809.99449" stroke="#000000" stroke-width="2" stroke-linecap="round"/><line x1="1370.10565" y1="2629.09279" x2="1121.11582" y2="2709.99449" stroke="#000000" stroke-width="2" stroke-linecap="round"/><line x1="1370.10565" y1="2629.09279" x2="1179.89435" y2="2629.09279" stroke="#000000" stroke-width="2" stroke-linecap="round"/><line x1="1428.88418" y1="2709.99449" x2="1428.88418" y2="2809.99449" stroke="#000000" stroke-width="2" stroke-linecap="round"/><line x1="1428.88418" y1="2709.99449" x2="1370.10565" y2="2890.89619" stroke="#000000" stroke-width="2" stroke-linecap="round"/><line x1="1428.88418" y1="2709.99449" x2="1275" y2="2921.79789" stroke="#000000" stroke-width="2" stroke-linecap="round"/><line x1="1428.88418" y1="2709.99449" x2="1179.89435" y2="2890.89619" stroke="#000000" stroke-width="2" stroke-linecap="round"/><line x1="1428.88418" y1="2709.99449" x2="1121.11582" y2="2809.99449" stroke="#000000" stroke-width="2" stroke-linecap="round"/><line x1="1428.88418" y1="2709.99449" x2="1121.11582" y2="2709.99449" stroke="#000000" stroke-width="2" stroke-linecap="round"/><line x1="1428.88418" y1="2709.99449" x2="1179.89435" y2="2629.09279" stroke="#000000" stroke-width="2" stroke-linecap="round"/><line x1="1428.88418" y1="2809.99449" x2="1370.10565" y2="2890.89619" stroke="#000000" stroke-width="2" stroke-linecap="round"/><line x1="1428.88418" y1="2809.99449" x2="1275" y2="2921.79789" stroke="#000000" stroke-width="2" stroke-linecap="round"/><line x1="1428.88418" y1="2809.99449" x2="1179.89435" y2="2890.89619" stroke="#000000" stroke-width="2" stroke-linecap="round"/><line x1="1428.88418" y1="2809.99449" x2="1121.11582" y2="2809.99449" stroke="#000000" stroke-width="2" stroke-linecap="round"/><line x1="1428.88418" y1="2809.99449" x2="1121.11582" y2="2709.99449" stroke="#000000" stroke-width="2" stroke-linecap="round"/><line x1="1428.88418" y1="2809.99449" x2="1179.89435" y2="2629.09279" stroke="#000000" stroke-width="2" stroke-linecap="round"/><line x1="1370.10565" y1="2890.89619" x2="1275" y2="2921.79789" stroke="#000000" stroke-width="2" stroke-linecap="round"/><line x1="1370.10565" y1="2890.89619" x2="1179.89435" y2="2890.89619" stroke="#000000" stroke-width="2" stroke-linecap="round"/><line x1="1370.10565" y1="2890.89619" x2="1121.11582" y2="2809.99449" stroke="#000000" stroke-width="2" stroke-linecap="round"/><line x1="1370.10565" y1="2890.89619" x2="1121.11582" y2="2709.99449" stroke="#000000" stroke-width="2" stroke-linecap="round"/><line x1="1370.10565" y1="2890.89619" x2="1179.89435" y2="2629.09279" stroke="#000000" stroke-width="2" stroke-linecap="round"/><line x1="1275" y1="2921.79789" x2="1179.89435" y2="2890.89619" stroke="#000000" stroke-width="2" stroke-linecap="round"/><line x1="1275" y1="2921.79789" x2="1121.11582" y2="2809.99449" stroke="#000000" stroke-width="2" stroke-linecap="round"/><line x1="1275" y1="2921.79789" x2="1121.11582" y2="2709.99449" stroke="#000000" stroke-width="2" stroke-linecap="round"/><line x1="1275" y1="2921.79789" x2="1179.89435" y2="2629.09279" stroke="#000000" stroke-width="2" stroke-linecap="round"/><line x1="1179.89435" y1="2890.89619" x2="1121.11582" y2="2809.99449" stroke="#000000" stroke-width="2" stroke-linecap="round"/><line x1="1179.89435" y1="2890.89619" x2="1121.11582" y2="2709.99449" stroke="#000000" stroke-width="2" stroke-linecap="round"/><line x1="1179.89435" y1="2890.89619" x2="1179.89435" y2="2629.09279" stroke="#000000" stroke-width="2" stroke-linecap="round"/><line x1="1121.11582" y1="2809.99449" x2="1121.11582" y2="2709.99449" stroke="#000000" stroke-width="2" stroke-linecap="round"/><line x1="1121.11582" y1="2809.99449" x2="1179.89435" y2="2629.09279" stroke="#000000" stroke-width="2" stroke-linecap="round"/><line x1="1121.11582" y1="2709.99449" x2="1179.89435" y2="2629.09279" stroke="#000000" stroke-width="2" stroke-linecap="round"/></g></svg>