<svg x="0" y="0" width="1100" height="850" version="1.1" xmlns="http://www.w3.org/2000/svg" xmlns:xlink="http://www.w3.org/1999/xlink"><g fill="none" stroke="none" stroke-width="none" stroke-linecap="none" stroke-linejoin="miter" stroke-miterlimit="10" stroke-dasharray="" stroke-dashoffset="0" font-family="sans-serif" font-size="12" text-anchor="start" mix-blend-mode="normal"><rect x="20" y="25" width="510" height="695" fill="#000000" stroke-width="1" stroke-linecap="butt"/><g stroke-width="1" stroke-linecap="butt"/><rect x="-120" y="-110" transform="rotate(180)" width="12" height="12" stroke="#ffffff" stroke-width="0.5" stroke-linecap="butt" opacity="0"/><g stroke="#ffffff" stroke-width="0.5" stroke-linecap="round"><circle cx="-114" cy="-104" transform="rotate(180)" r="16" data-paper-data="{&quot;index&quot;:0}"/></g><rect x="-228" y="-110" transform="rotate(180)" width="12" height="12" stroke="#ffffff" stroke-width="0.5" stroke-linecap="butt" opacity="0"/><g stroke="#ffffff" stroke-width="0.5" stroke-linecap="round"><circle cx="-222" cy="-104" transform="rotate(180)" r="16" data-paper-data="{&quot;index&quot;:0}" opacity="0"/></g><rect x="-336" y="-110" transform="rotate(180)" width="12" height="12" stroke="#ffffff" stroke-width="0.5" stroke-linecap="butt" opacity="0"/><g stroke="#ffffff" stroke-width="0.5" stroke-linecap="round"><circle cx="-330" cy="-104" transform="rotate(180)" r="16" data-paper-data="{&quot;index&quot;:0}" opacity="0"/></g><rect x="-444" y="-110" transform="rotate(180)" width="12" height="12" stroke="#ffffff" stroke-width="0.5" stroke-linecap="butt" opacity="0"/><g stroke="#ffffff" stroke-width="0.5" stroke-linecap="round"><circle cx="-438" cy="-104" transform="rotate(180)" r="16" data-paper-data="{&quot;index&quot;:0}" opacity="0"/></g><rect x="-120" y="-196" transform="rotate(180)" width="12" height="12" stroke="#ffffff" stroke-width="0.5" stroke-linecap="butt" opacity="0"/><g stroke="#ffffff" stroke-width="0.5" stroke-linecap="round"><circle cx="-190" cy="114" transform="rotate(-90)" r="16" data-paper-data="{&quot;index&quot;:0}"/><circle cx="-174" cy="114" transform="rotate(-90)" r="16" data-paper-data="{&quot;index&quot;:1}"/></g><rect x="-228" y="-196" transform="rotate(180)" width="12" height="12" stroke="#ffffff" stroke-width="0.5" stroke-linecap="butt" opacity="0"/><g stroke="#ffffff" stroke-width="0.5"><circle cx="-190" cy="222" transform="rotate(-90)" r="16" data-paper-data="{&quot;index&quot;:0}" stroke-linecap="round" opacity="0"/><circle cx="-174" cy="222" transform="rotate(-90)" r="16" data-paper-data="{&quot;index&quot;:1}" stroke-linecap="round" opacity="0"/><path d="M222,174c5.92226,0 11.09301,3.21759 13.85948,8c-2.76648,4.78241 -7.93723,8 -13.85948,8c-5.92226,0 -11.09301,-3.21759 -13.85948,-8c2.76648,-4.78241 7.93723,-8 13.85948,-8z" stroke-linecap="butt"/></g><rect x="-336" y="-196" transform="rotate(180)" width="12" height="12" stroke="#ffffff" stroke-width="0.5" stroke-linecap="butt" opacity="0"/><g stroke="#ffffff" stroke-width="0.5" stroke-linecap="round"><circle cx="-190" cy="330" transform="rotate(-90)" r="16" data-paper-data="{&quot;index&quot;:0}" opacity="0"/><circle cx="-174" cy="330" transform="rotate(-90)" r="16" data-paper-data="{&quot;index&quot;:1}" opacity="0"/></g><rect x="-444" y="-196" transform="rotate(180)" width="12" height="12" stroke="#ffffff" stroke-width="0.5" stroke-linecap="butt" opacity="0"/><g stroke="#ffffff" stroke-width="0.5" stroke-linecap="round"><circle cx="-190" cy="438" transform="rotate(-90)" r="16" data-paper-data="{&quot;index&quot;:0}" opacity="0"/><circle cx="-174" cy="438" transform="rotate(-90)" r="16" data-paper-data="{&quot;index&quot;:1}" opacity="0"/></g><rect x="-120" y="-282" transform="rotate(180)" width="12" height="12" stroke="#ffffff" stroke-width="0.5" stroke-linecap="butt" opacity="0"/><g stroke="#ffffff" stroke-width="0.5" stroke-linecap="round"><circle cx="-296.02301" cy="-39.2731" transform="rotate(-120)" r="16" data-paper-data="{&quot;index&quot;:0}"/><circle cx="-280.02237" cy="-39.27274" transform="rotate(-120)" r="16" data-paper-data="{&quot;index&quot;:1}"/><circle cx="-288.02237" cy="-25.41633" transform="rotate(-120)" r="16" data-paper-data="{&quot;index&quot;:2}"/></g><rect x="-228" y="-282" transform="rotate(180)" width="12" height="12" stroke="#ffffff" stroke-width="0.5" stroke-linecap="butt" opacity="0"/><g stroke="#ffffff" stroke-width="0.5"><circle cx="-350.02301" cy="54.25764" transform="rotate(-120)" r="16" data-paper-data="{&quot;index&quot;:0}" stroke-linecap="round" opacity="0"/><circle cx="-334.02237" cy="54.25801" transform="rotate(-120)" r="16" data-paper-data="{&quot;index&quot;:1}" stroke-linecap="round" opacity="0"/><circle cx="-342.02237" cy="68.11441" transform="rotate(-120)" r="16" data-paper-data="{&quot;index&quot;:2}" stroke-linecap="round" opacity="0"/><path d="M214,262.14359c5.12883,-2.96113 11.21562,-2.75999 16.00267,-0.00154c-0.00489,5.52467 -2.87407,10.89621 -8.00267,13.85721c-5.12883,2.96113 -11.21562,2.75999 -16.00267,0.00154c0.00489,-5.52467 2.87407,-10.89621 8.00267,-13.85721z" stroke-linecap="butt"/><path d="M235.85641,268c1.45702,2.52363 2.14841,5.27919 2.14626,7.99772c-0.00089,0.00051 -0.00178,0.00103 -0.00267,0.00154c-7.65268,4.41828 -17.43813,1.79628 -21.85641,-5.85641c-1.45702,-2.52363 -2.14841,-5.27919 -2.14626,-7.99772c0.00089,-0.00051 0.00178,-0.00103 0.00267,-0.00154c7.65268,-4.41828 17.43813,-1.79628 21.85641,5.85641z" stroke-linecap="butt"/><path d="M227.85641,254.14286c4.41828,7.65268 1.79628,17.43813 -5.85641,21.85641c-0.00089,0.00051 -0.00178,0.00103 -0.00267,0.00154c-2.35567,-1.35741 -4.39659,-3.33409 -5.85374,-5.85795c-4.41828,-7.65268 -1.79628,-17.43813 5.85641,-21.85641c0.00089,-0.00052 0.00179,-0.00103 0.00268,-0.00155c2.35567,1.35741 4.39658,3.33409 5.85373,5.85795z" stroke-linecap="butt"/></g><rect x="-336" y="-282" transform="rotate(180)" width="12" height="12" stroke="#ffffff" stroke-width="0.5" stroke-linecap="butt" opacity="0"/><g stroke="#ffffff" stroke-width="0.5"><circle cx="-404.02301" cy="147.78838" transform="rotate(-120)" r="16" data-paper-data="{&quot;index&quot;:0}" stroke-linecap="round" opacity="0"/><circle cx="-388.02237" cy="147.78875" transform="rotate(-120)" r="16" data-paper-data="{&quot;index&quot;:1}" stroke-linecap="round" opacity="0"/><circle cx="-396.02237" cy="161.64516" transform="rotate(-120)" r="16" data-paper-data="{&quot;index&quot;:2}" stroke-linecap="round" opacity="0"/><path d="M322,262.14359c5.12883,-2.96113 11.21562,-2.75999 16.00267,-0.00154c-0.00489,5.52467 -2.87407,10.89621 -8.00267,13.85721c-0.00089,0.00052 -0.00179,0.00103 -0.00268,0.00155c-2.35567,-1.35741 -4.39658,-3.33409 -5.85373,-5.85795c-1.45702,-2.52363 -2.14841,-5.27919 -2.14626,-7.99772c0.00089,-0.00051 0.00178,-0.00103 0.00267,-0.00154z" stroke-linecap="butt"/></g><path d="M346.00267,275.99772c-0.00089,0.00051 -0.00178,0.00103 -0.00267,0.00154c-7.65268,4.41828 -17.43813,1.79628 -21.85641,-5.85641c-1.45702,-2.52363 -2.14841,-5.27919 -2.14626,-7.99772c0.00089,-0.00051 0.00178,-0.00103 0.00267,-0.00154c7.65268,-4.41828 17.43813,-1.79628 21.85641,5.85641c1.45703,2.52365 2.14842,5.27917 2.14626,7.99772z" stroke-width="1" stroke-linecap="butt"/><rect x="-444" y="-282" transform="rotate(180)" width="12" height="12" stroke="#ffffff" stroke-width="0.5" stroke-linecap="butt" opacity="0"/><g stroke="#ffffff" stroke-width="0.5" stroke-linecap="round"><circle cx="-458.02301" cy="241.31913" transform="rotate(-120)" r="16" data-paper-data="{&quot;index&quot;:0}" opacity="0"/><circle cx="-442.02237" cy="241.3195" transform="rotate(-120)" r="16" data-paper-data="{&quot;index&quot;:1}" opacity="0"/><circle cx="-450.02237" cy="255.1759" transform="rotate(-120)" r="16" data-paper-data="{&quot;index&quot;:2}" opacity="0"/></g><rect x="-120" y="-368" transform="rotate(180)" width="12" height="12" stroke="#ffffff" stroke-width="0.5" stroke-linecap="butt" opacity="0"/><g stroke="#ffffff" stroke-width="0.5" stroke-linecap="round"><circle cx="-279.7269" cy="-256.5012" transform="rotate(-150)" r="16" data-paper-data="{&quot;index&quot;:0}"/><circle cx="-263.72626" cy="-256.50156" transform="rotate(-150)" r="16" data-paper-data="{&quot;index&quot;:1}"/><circle cx="-271.7269" cy="-242.64479" transform="rotate(-150)" r="16" data-paper-data="{&quot;index&quot;:2}"/><circle cx="-287.72753" cy="-242.64442" transform="rotate(-150)" r="16" data-paper-data="{&quot;index&quot;:3}"/></g><rect x="-228" y="-368" transform="rotate(180)" width="12" height="12" stroke="#ffffff" stroke-width="0.5" stroke-linecap="butt" opacity="0"/><g stroke="#ffffff" stroke-width="0.5"><circle cx="-373.25764" cy="-202.5012" transform="rotate(-150)" r="16" data-paper-data="{&quot;index&quot;:0}" stroke-linecap="round" opacity="0"/><circle cx="-357.257" cy="-202.50156" transform="rotate(-150)" r="16" data-paper-data="{&quot;index&quot;:1}" stroke-linecap="round" opacity="0"/><circle cx="-365.25764" cy="-188.64479" transform="rotate(-150)" r="16" data-paper-data="{&quot;index&quot;:2}" stroke-linecap="round" opacity="0"/><circle cx="-381.25828" cy="-188.64442" transform="rotate(-150)" r="16" data-paper-data="{&quot;index&quot;:3}" stroke-linecap="round" opacity="0"/><path d="M208.14359,354c2.961,-5.1286 8.33254,-7.99778 13.85721,-8.00267c2.75845,4.78704 2.95959,10.87384 -0.00154,16.00267c-2.961,5.1286 -8.33254,7.99778 -13.85721,8.00267c-2.75845,-4.78704 -2.95959,-10.87384 0.00154,-16.00267z" stroke-linecap="butt"/><path d="M230,348.14359c2.52386,1.45715 4.50053,3.49807 5.85795,5.85374c-0.00051,0.00089 -0.00103,0.00178 -0.00154,0.00267c-4.41828,7.65268 -14.20372,10.27468 -21.85641,5.85641c-2.52387,-1.45716 -4.50056,-3.4981 -5.85798,-5.85379c0.00051,-0.00089 0.00106,-0.00172 0.00157,-0.00261c4.41828,-7.65268 14.20372,-10.27468 21.85641,-5.85641z" stroke-linecap="butt"/><path d="M230,348.14359c7.65268,4.41828 10.27468,14.20372 5.85641,21.85641c-0.00051,0.00089 -0.00103,0.00178 -0.00154,0.00267c-2.71854,0.00216 -5.47409,-0.68924 -7.99772,-2.14626c-7.65268,-4.41828 -10.27468,-14.20372 -5.85641,-21.85641c0.00052,-0.00089 0.00103,-0.00179 0.00155,-0.00268c2.71854,-0.00216 5.47409,0.68925 7.99772,2.14627z" stroke-linecap="butt"/><path d="M216.14286,340.14359c7.65268,4.41828 10.27468,14.20372 5.85641,21.85641c-0.00051,0.00089 -0.00103,0.00178 -0.00154,0.00267c-2.71853,0.00215 -5.4741,-0.68924 -7.99772,-2.14626c-7.65268,-4.41828 -10.27468,-14.20372 -5.85641,-21.85641c0.00052,-0.00089 0.00103,-0.00179 0.00155,-0.00268c2.71854,-0.00216 5.47409,0.68925 7.99772,2.14627z" stroke-linecap="butt"/><path d="M235.85795,337.99733c2.75845,4.78704 2.95959,10.87384 -0.00154,16.00267c-2.961,5.1286 -8.33254,7.99778 -13.85721,8.00267c-2.75845,-4.78704 -2.95959,-10.87384 0.00154,-16.00267c2.961,-5.1286 8.33254,-7.99778 13.85721,-8.00267z" stroke-linecap="butt"/></g><rect x="-336" y="-368" transform="rotate(180)" width="12" height="12" stroke="#ffffff" stroke-width="0.5" stroke-linecap="butt" opacity="0"/><g stroke="#ffffff" stroke-width="0.5"><circle cx="-466.78838" cy="-148.5012" transform="rotate(-150)" r="16" data-paper-data="{&quot;index&quot;:0}" stroke-linecap="round" opacity="0"/><circle cx="-450.78775" cy="-148.50156" transform="rotate(-150)" r="16" data-paper-data="{&quot;index&quot;:1}" stroke-linecap="round" opacity="0"/><circle cx="-458.78838" cy="-134.64479" transform="rotate(-150)" r="16" data-paper-data="{&quot;index&quot;:2}" stroke-linecap="round" opacity="0"/><circle cx="-474.78902" cy="-134.64442" transform="rotate(-150)" r="16" data-paper-data="{&quot;index&quot;:3}" stroke-linecap="round" opacity="0"/><path d="M316.14359,354c2.961,-5.1286 8.33254,-7.99778 13.85721,-8.00267c2.75845,4.78704 2.95959,10.87384 -0.00154,16.00267c-0.00052,0.00089 -0.00103,0.00179 -0.00155,0.00268c-2.71854,0.00216 -5.47409,-0.68925 -7.99772,-2.14627c-2.52386,-1.45715 -4.50053,-3.49807 -5.85795,-5.85374c0.00051,-0.00089 0.00103,-0.00178 0.00154,-0.00267z" stroke-linecap="butt"/><path d="M329.9992,362.00267c-2.75845,-4.78704 -2.95959,-10.87384 0.00154,-16.00267c0.00051,-0.00089 0.00103,-0.00178 0.00154,-0.00267c2.71853,-0.00215 5.4741,0.68924 7.99772,2.14626c2.52386,1.45715 4.50053,3.49807 5.85795,5.85374c-0.00051,0.00089 -0.00103,0.00178 -0.00154,0.00267c-2.961,5.1286 -8.33254,7.99778 -13.85721,8.00267z" stroke-linecap="butt"/></g><path d="M343.85795,353.99733c-0.00051,0.00089 -0.00103,0.00178 -0.00154,0.00267c-4.41828,7.65268 -14.20372,10.27468 -21.85641,5.85641c-2.52386,-1.45715 -4.50053,-3.49807 -5.85795,-5.85374c0.00051,-0.00089 0.00103,-0.00178 0.00154,-0.00267c4.41828,-7.65268 14.20372,-10.27468 21.85641,-5.85641c2.52387,1.45716 4.50053,3.49805 5.85795,5.85374z" stroke-width="1" stroke-linecap="butt"/><path d="M330.00074,346c0.00051,-0.00089 0.00103,-0.00178 0.00154,-0.00267c2.71853,-0.00215 5.4741,0.68924 7.99772,2.14626c7.65268,4.41828 10.27468,14.20372 5.85641,21.85641c-0.00052,0.00089 -0.00103,0.00179 -0.00155,0.00268c-2.71854,0.00216 -5.47409,-0.68925 -7.99772,-2.14627c-7.65268,-4.41828 -10.27468,-14.20372 -5.85641,-21.85641z" stroke-width="1" stroke-linecap="butt"/><rect x="-444" y="-368" transform="rotate(180)" width="12" height="12" stroke="#ffffff" stroke-width="0.5" stroke-linecap="butt" opacity="0"/><g stroke="#ffffff" stroke-width="0.5"><circle cx="-560.31913" cy="-94.5012" transform="rotate(-150)" r="16" data-paper-data="{&quot;index&quot;:0}" stroke-linecap="round" opacity="0"/><circle cx="-544.31849" cy="-94.50156" transform="rotate(-150)" r="16" data-paper-data="{&quot;index&quot;:1}" stroke-linecap="round" opacity="0"/><circle cx="-552.31913" cy="-80.64479" transform="rotate(-150)" r="16" data-paper-data="{&quot;index&quot;:2}" stroke-linecap="round" opacity="0"/><circle cx="-568.31976" cy="-80.64442" transform="rotate(-150)" r="16" data-paper-data="{&quot;index&quot;:3}" stroke-linecap="round" opacity="0"/><path d="M438.00154,345.99861c2.75775,4.78685 2.95859,10.87302 -0.00228,16.00139c-0.00027,0.00046 -0.00053,0.00093 -0.0008,0.00139c-2.75774,-4.78685 -2.95859,-10.87302 0.00227,-16.00139c0.00027,-0.00046 0.00054,-0.00092 0.0008,-0.00139z" stroke-linecap="butt"/></g><rect x="-120" y="-454" transform="rotate(180)" width="12" height="12" stroke="#ffffff" stroke-width="0.5" stroke-linecap="butt" opacity="0"/><g stroke="#ffffff" stroke-width="0.5" stroke-linecap="round"><circle cx="-114" cy="-448" transform="rotate(180)" r="16" data-paper-data="{&quot;index&quot;:0}"/><circle cx="-98" cy="-448" transform="rotate(180)" r="16" data-paper-data="{&quot;index&quot;:1}"/><circle cx="-106" cy="-434.14286" transform="rotate(180)" r="16" data-paper-data="{&quot;index&quot;:2}"/><circle cx="-122" cy="-434.14286" transform="rotate(180)" r="16" data-paper-data="{&quot;index&quot;:3}"/><circle cx="-130" cy="-448" transform="rotate(180)" r="16" data-paper-data="{&quot;index&quot;:4}"/></g><rect x="-228" y="-454" transform="rotate(180)" width="12" height="12" stroke="#ffffff" stroke-width="0.5" stroke-linecap="butt" opacity="0"/><g stroke="#ffffff" stroke-width="0.5"><circle cx="-222" cy="-448" transform="rotate(180)" r="16" data-paper-data="{&quot;index&quot;:0}" stroke-linecap="round" opacity="0"/><circle cx="-206" cy="-448" transform="rotate(180)" r="16" data-paper-data="{&quot;index&quot;:1}" stroke-linecap="round" opacity="0"/><circle cx="-214" cy="-434.14286" transform="rotate(180)" r="16" data-paper-data="{&quot;index&quot;:2}" stroke-linecap="round" opacity="0"/><circle cx="-230" cy="-434.14286" transform="rotate(180)" r="16" data-paper-data="{&quot;index&quot;:3}" stroke-linecap="round" opacity="0"/><circle cx="-238" cy="-448" transform="rotate(180)" r="16" data-paper-data="{&quot;index&quot;:4}" stroke-linecap="round" opacity="0"/><path d="M206,448c0,-5.92226 3.21759,-11.09301 8,-13.85948c4.78241,2.76648 8,7.93723 8,13.85948c0,5.92226 -3.21759,11.09301 -8,13.85948c-4.78241,-2.76648 -8,-7.93723 -8,-13.85948z" stroke-linecap="butt"/><path d="M222,432c2.9143,0 5.64661,0.77915 8,2.14052c0,0.00078 0,0.00156 0,0.00234c0,8.83656 -7.16344,16 -16,16c-2.91432,0 -5.64665,-0.77917 -8.00005,-2.14055c0,-0.00078 0.00005,-0.00153 0.00005,-0.00231c0,-8.83656 7.16344,-16 16,-16z" stroke-linecap="butt"/><path d="M222,432c8.83656,0 16,7.16344 16,16c0,0.00078 0,0.00156 0,0.00234c-2.35339,1.36137 -5.08569,2.14052 -8,2.14052c-8.83656,0 -16,-7.16344 -16,-16c0,-0.00078 0,-0.00157 0,-0.00235c2.35339,-1.36136 5.0857,-2.1405 8,-2.1405z" stroke-linecap="butt"/><path d="M230,434.14052c4.78241,2.76648 8,7.93723 8,13.85948c0,5.92226 -3.21759,11.09301 -8,13.85948c-4.78241,-2.76648 -8,-7.93723 -8,-13.85948c0,-5.92226 3.21759,-11.09301 8,-13.85948z" stroke-linecap="butt"/><path d="M206,432c8.83656,0 16,7.16344 16,16c0,0.00078 0,0.00156 0,0.00234c-2.35339,1.36137 -5.08569,2.14052 -8,2.14052c-8.83656,0 -16,-7.16344 -16,-16c0,-0.00078 0,-0.00157 0,-0.00235c2.35339,-1.36136 5.0857,-2.1405 8,-2.1405z" stroke-linecap="butt"/><path d="M222,420.28337c4.78241,2.76648 8,7.93723 8,13.85948c0,5.92226 -3.21759,11.09301 -8,13.85948c-4.78241,-2.76648 -8,-7.93723 -8,-13.85948c0,-5.92226 3.21759,-11.09301 8,-13.85948z" stroke-linecap="butt"/><path d="M246,434.14052c0,0.00078 0,0.00156 0,0.00234c0,8.83656 -7.16344,16 -16,16c-2.9143,0 -5.64661,-0.77915 -8,-2.14052c0,-0.00078 0,-0.00156 0,-0.00234c0,-8.83656 7.16344,-16 16,-16c2.9143,0 5.64661,0.77915 8,2.14052z" stroke-linecap="butt"/></g><rect x="-336" y="-454" transform="rotate(180)" width="12" height="12" stroke="#ffffff" stroke-width="0.5" stroke-linecap="butt" opacity="0"/><g stroke="#ffffff" stroke-width="0.5"><circle cx="-330" cy="-448" transform="rotate(180)" r="16" data-paper-data="{&quot;index&quot;:0}" stroke-linecap="round" opacity="0"/><circle cx="-314" cy="-448" transform="rotate(180)" r="16" data-paper-data="{&quot;index&quot;:1}" stroke-linecap="round" opacity="0"/><circle cx="-322" cy="-434.14286" transform="rotate(180)" r="16" data-paper-data="{&quot;index&quot;:2}" stroke-linecap="round" opacity="0"/><circle cx="-338" cy="-434.14286" transform="rotate(180)" r="16" data-paper-data="{&quot;index&quot;:3}" stroke-linecap="round" opacity="0"/><circle cx="-346" cy="-448" transform="rotate(180)" r="16" data-paper-data="{&quot;index&quot;:4}" stroke-linecap="round" opacity="0"/><path d="M314,448c0,-5.92226 3.21759,-11.09301 8,-13.85948c4.78241,2.76648 8,7.93723 8,13.85948c0,0.00078 0,0.00157 0,0.00235c-2.35339,1.36136 -5.0857,2.1405 -8,2.1405c-2.9143,0 -5.64661,-0.77915 -8,-2.14052c0,-0.00078 0,-0.00156 0,-0.00234z" stroke-linecap="butt"/><path d="M330,448.00234c-4.78241,-2.76648 -8,-7.93723 -8,-13.85948c0,-0.00078 0,-0.00156 0,-0.00234c2.35339,-1.36136 5.0857,-2.14052 8,-2.14052c2.9143,0 5.64661,0.77915 8,2.14052c0,0.00078 0,0.00156 0,0.00234c0,5.92226 -3.21759,11.09301 -8,13.85948z" stroke-linecap="butt"/><path d="M330,448.00234c0,-0.00078 0,-0.00156 0,-0.00234c0,-5.92226 3.21759,-11.09301 8,-13.85948c4.78241,2.76648 8,7.93723 8,13.85948c0,0.00078 0,0.00156 0,0.00234c-2.35339,1.36136 -5.0857,2.14052 -8,2.14052c-2.9143,0 -5.64661,-0.77915 -8,-2.14052z" stroke-linecap="butt"/></g><path d="M338,434.14052c0,0.00078 0,0.00156 0,0.00234c0,8.83656 -7.16344,16 -16,16c-2.9143,0 -5.64661,-0.77915 -8,-2.14052c0,-0.00078 0,-0.00156 0,-0.00234c0,-8.83656 7.16344,-16 16,-16c2.9143,0 5.64661,0.77915 8,2.14052z" stroke-width="1" stroke-linecap="butt"/><path d="M322,434.14286c0,-0.00078 0,-0.00156 0,-0.00234c2.35339,-1.36136 5.0857,-2.14052 8,-2.14052c8.83656,0 16,7.16344 16,16c0,0.00078 0,0.00157 0,0.00235c-2.35339,1.36136 -5.0857,2.1405 -8,2.1405c-8.83656,0 -16,-7.16344 -16,-16z" stroke-width="1" stroke-linecap="butt"/><path d="M330,448c0,-5.92226 3.21759,-11.09301 8,-13.85948c4.78241,2.76648 8,7.93723 8,13.85948c0,5.92226 -3.21759,11.09301 -8,13.85948c-4.78241,-2.76648 -8,-7.93723 -8,-13.85948z" stroke-width="1" stroke-linecap="butt"/><rect x="-444" y="-454" transform="rotate(180)" width="12" height="12" stroke="#ffffff" stroke-width="0.5" stroke-linecap="butt" opacity="0"/><g stroke="#ffffff" stroke-width="0.5"><circle cx="-438" cy="-448" transform="rotate(180)" r="16" data-paper-data="{&quot;index&quot;:0}" stroke-linecap="round" opacity="0"/><circle cx="-422" cy="-448" transform="rotate(180)" r="16" data-paper-data="{&quot;index&quot;:1}" stroke-linecap="round" opacity="0"/><circle cx="-430" cy="-434.14286" transform="rotate(180)" r="16" data-paper-data="{&quot;index&quot;:2}" stroke-linecap="round" opacity="0"/><circle cx="-446" cy="-434.14286" transform="rotate(180)" r="16" data-paper-data="{&quot;index&quot;:3}" stroke-linecap="round" opacity="0"/><circle cx="-454" cy="-448" transform="rotate(180)" r="16" data-paper-data="{&quot;index&quot;:4}" stroke-linecap="round" opacity="0"/><path d="M430,434.14052c4.78241,2.76648 8,7.93723 8,13.85948c0,0.00078 0,0.00156 0,0.00234c-4.7824,-2.76648 -8,-7.93723 -8,-13.85948c0,-0.00078 0,-0.00156 0,-0.00234z" stroke-linecap="butt"/><path d="M446,434.14052c0,0.00078 0,0.00156 0,0.00234c0,5.92226 -3.21759,11.09301 -8,13.85948c0,-0.00078 0,-0.00156 0,-0.00234c0,-5.92226 3.21759,-11.09301 8,-13.85948z" stroke-linecap="butt"/></g><rect x="-120" y="-540" transform="rotate(180)" width="12" height="12" stroke="#ffffff" stroke-width="0.5" stroke-linecap="butt" opacity="0"/><g stroke="#ffffff" stroke-width="0.5" stroke-linecap="round"><circle cx="168.2731" cy="-519.45757" transform="rotate(150)" r="16" data-paper-data="{&quot;index&quot;:0}"/><circle cx="184.27374" cy="-519.4572" transform="rotate(150)" r="16" data-paper-data="{&quot;index&quot;:1}"/><circle cx="176.27374" cy="-505.60079" transform="rotate(150)" r="16" data-paper-data="{&quot;index&quot;:2}"/><circle cx="160.2731" cy="-505.60116" transform="rotate(150)" r="16" data-paper-data="{&quot;index&quot;:3}"/><circle cx="152.27247" cy="-519.45793" transform="rotate(150)" r="16" data-paper-data="{&quot;index&quot;:4}"/><circle cx="160.27247" cy="-533.31434" transform="rotate(150)" r="16" data-paper-data="{&quot;index&quot;:5}"/></g><rect x="-228" y="-540" transform="rotate(180)" width="12" height="12" stroke="#ffffff" stroke-width="0.5" stroke-linecap="butt" opacity="0"/><g stroke="#ffffff" stroke-width="0.5"><circle cx="74.74236" cy="-573.45757" transform="rotate(150)" r="16" data-paper-data="{&quot;index&quot;:0}" stroke-linecap="round" opacity="0"/><circle cx="90.743" cy="-573.4572" transform="rotate(150)" r="16" data-paper-data="{&quot;index&quot;:1}" stroke-linecap="round" opacity="0"/><circle cx="82.743" cy="-559.60079" transform="rotate(150)" r="16" data-paper-data="{&quot;index&quot;:2}" stroke-linecap="round" opacity="0"/><circle cx="66.74236" cy="-559.60116" transform="rotate(150)" r="16" data-paper-data="{&quot;index&quot;:3}" stroke-linecap="round" opacity="0"/><circle cx="58.74172" cy="-573.45793" transform="rotate(150)" r="16" data-paper-data="{&quot;index&quot;:4}" stroke-linecap="round" opacity="0"/><circle cx="66.74172" cy="-587.31434" transform="rotate(150)" r="16" data-paper-data="{&quot;index&quot;:5}" stroke-linecap="round" opacity="0"/><path d="M208.14359,542c-2.96113,-5.12883 -2.75999,-11.21562 -0.00154,-16.00267c5.52467,0.00489 10.89621,2.87407 13.85721,8.00267c2.96113,5.12883 2.75999,11.21562 0.00154,16.00267c-5.52467,-0.00489 -10.89621,-2.87407 -13.85721,-8.00267z" stroke-linecap="butt"/><path d="M214,520.14359c2.52363,-1.45702 5.27919,-2.14841 7.99772,-2.14626c0.00051,0.00089 0.00103,0.00178 0.00154,0.00267c4.41828,7.65268 1.79628,17.43813 -5.85641,21.85641c-2.52365,1.45703 -5.27923,2.14842 -7.99779,2.14626c-0.00051,-0.00089 -0.00097,-0.00178 -0.00148,-0.00267c-4.41828,-7.65268 -1.79628,-17.43813 5.85641,-21.85641z" stroke-linecap="butt"/><path d="M214,520.14359c7.65268,-4.41828 17.43813,-1.79628 21.85641,5.85641c0.00051,0.00089 0.00103,0.00178 0.00154,0.00267c-1.35741,2.35568 -3.33408,4.39659 -5.85795,5.85374c-7.65268,4.41828 -17.43813,1.79628 -21.85641,-5.85641c-0.00052,-0.00089 -0.00103,-0.00179 -0.00155,-0.00268c1.35741,-2.35567 3.33409,-4.39658 5.85795,-5.85373z" stroke-linecap="butt"/><path d="M221.9992,517.99733c5.52467,0.00489 10.89621,2.87407 13.85721,8.00267c2.96113,5.12883 2.75999,11.21562 0.00154,16.00267c-5.52467,-0.00489 -10.89621,-2.87407 -13.85721,-8.00267c-2.96113,-5.12883 -2.75999,-11.21562 -0.00154,-16.00267z" stroke-linecap="butt"/><path d="M235.85487,525.99733c0.00051,0.00089 0.00103,0.00178 0.00154,0.00267c4.41828,7.65268 1.79628,17.43813 -5.85641,21.85641c-2.52363,1.45702 -5.27919,2.14841 -7.99772,2.14626c-0.00051,-0.00089 -0.00103,-0.00178 -0.00154,-0.00267c-4.41828,-7.65268 -1.79628,-17.43813 5.85641,-21.85641c2.52363,-1.45702 5.27919,-2.14841 7.99772,-2.14626z" stroke-linecap="butt"/><path d="M200.14286,528.14359c7.65268,-4.41828 17.43813,-1.79628 21.85641,5.85641c0.00051,0.00089 0.00103,0.00178 0.00154,0.00267c-1.35741,2.35567 -3.33409,4.39659 -5.85795,5.85374c-7.65268,4.41828 -17.43813,1.79628 -21.85641,-5.85641c-0.00052,-0.00089 -0.00103,-0.00179 -0.00155,-0.00268c1.35741,-2.35567 3.33409,-4.39658 5.85795,-5.85373z" stroke-linecap="butt"/><path d="M208.14205,509.99733c5.52467,0.00489 10.89621,2.87407 13.85721,8.00267c2.96113,5.12883 2.75999,11.21562 0.00154,16.00267c-5.52467,-0.00489 -10.89621,-2.87407 -13.85721,-8.00267c-2.96113,-5.12883 -2.75999,-11.21562 -0.00154,-16.00267z" stroke-linecap="butt"/><path d="M235.85487,509.99733c0.00051,0.00089 0.00103,0.00178 0.00154,0.00267c4.41828,7.65268 1.79628,17.43813 -5.85641,21.85641c-2.52363,1.45702 -5.27919,2.14841 -7.99772,2.14626c-0.00051,-0.00089 -0.00103,-0.00178 -0.00154,-0.00267c-4.41828,-7.65268 -1.79628,-17.43813 5.85641,-21.85641c2.52365,-1.45703 5.27917,-2.14842 7.99772,-2.14626z" stroke-linecap="butt"/><path d="M222.00074,534c-0.00051,-0.00089 -0.00103,-0.00178 -0.00154,-0.00267c1.35741,-2.35567 3.33409,-4.39659 5.85795,-5.85374c7.65268,-4.41828 17.43813,-1.79628 21.85641,5.85641c0.00052,0.00089 0.00103,0.00179 0.00155,0.00268c-1.35741,2.35567 -3.33409,4.39658 -5.85795,5.85373c-7.65268,4.41828 -17.43813,1.79628 -21.85641,-5.85641z" stroke-linecap="butt"/></g><rect x="-336" y="-540" transform="rotate(180)" width="12" height="12" stroke="#ffffff" stroke-width="0.5" stroke-linecap="butt" opacity="0"/><g stroke="#ffffff" stroke-width="0.5"><circle cx="-18.78838" cy="-627.45757" transform="rotate(150)" r="16" data-paper-data="{&quot;index&quot;:0}" stroke-linecap="round" opacity="0"/><circle cx="-2.78775" cy="-627.4572" transform="rotate(150)" r="16" data-paper-data="{&quot;index&quot;:1}" stroke-linecap="round" opacity="0"/><circle cx="-10.78775" cy="-613.60079" transform="rotate(150)" r="16" data-paper-data="{&quot;index&quot;:2}" stroke-linecap="round" opacity="0"/><circle cx="-26.78838" cy="-613.60116" transform="rotate(150)" r="16" data-paper-data="{&quot;index&quot;:3}" stroke-linecap="round" opacity="0"/><circle cx="-34.78902" cy="-627.45793" transform="rotate(150)" r="16" data-paper-data="{&quot;index&quot;:4}" stroke-linecap="round" opacity="0"/><circle cx="-26.78902" cy="-641.31434" transform="rotate(150)" r="16" data-paper-data="{&quot;index&quot;:5}" stroke-linecap="round" opacity="0"/><path d="M316.14359,542c-2.96113,-5.12883 -2.75999,-11.21562 -0.00154,-16.00267c5.52467,0.00489 10.89621,2.87407 13.85721,8.00267c0.00052,0.00089 0.00103,0.00179 0.00155,0.00268c-1.35741,2.35567 -3.33409,4.39658 -5.85795,5.85373c-2.52363,1.45702 -5.27919,2.14841 -7.99772,2.14626c-0.00051,-0.00089 -0.00103,-0.00178 -0.00154,-0.00267z" stroke-linecap="butt"/><path d="M330.0008,534.00267c-5.52467,-0.00489 -10.89621,-2.87407 -13.85721,-8.00267c-0.00051,-0.00089 -0.00103,-0.00178 -0.00154,-0.00267c1.35741,-2.35568 3.33408,-4.39659 5.85795,-5.85374c2.52363,-1.45702 5.27919,-2.14841 7.99772,-2.14626c0.00051,0.00089 0.00103,0.00178 0.00154,0.00267c2.96113,5.12883 2.75999,11.21562 0.00154,16.00267z" stroke-linecap="butt"/><path d="M330.00228,534.00267c-0.00051,-0.00089 -0.00103,-0.00178 -0.00154,-0.00267c-2.96113,-5.12883 -2.75999,-11.21562 -0.00154,-16.00267c5.52467,0.00489 10.89621,2.87407 13.85721,8.00267c0.00051,0.00089 0.00103,0.00178 0.00154,0.00267c-1.35741,2.35567 -3.33409,4.39659 -5.85795,5.85374c-2.52363,1.45702 -5.27919,2.14841 -7.99772,2.14626z" stroke-linecap="butt"/><path d="M329.99919,533.99734c1.35741,-2.35567 3.33409,-4.3966 5.85795,-5.85375c2.52363,-1.45702 5.27919,-2.14841 7.99772,-2.14626c0.00051,0.00089 0.00103,0.00178 0.00154,0.00267c2.96113,5.12883 2.75999,11.21562 0.00154,16.00267c-5.52467,-0.00489 -10.89621,-2.87407 -13.85721,-8.00267c-0.00052,-0.00089 -0.00103,-0.00177 -0.00154,-0.00266z" stroke-linecap="butt"/></g><path d="M329.99772,517.99733c0.00051,0.00089 0.00103,0.00178 0.00154,0.00267c4.41828,7.65268 1.79628,17.43813 -5.85641,21.85641c-2.52363,1.45702 -5.27919,2.14841 -7.99772,2.14626c-0.00051,-0.00089 -0.00103,-0.00178 -0.00154,-0.00267c-4.41828,-7.65268 -1.79628,-17.43813 5.85641,-21.85641c2.52365,-1.45703 5.27917,-2.14842 7.99772,-2.14626z" stroke-width="1" stroke-linecap="butt"/><path d="M316.14359,526c-0.00051,-0.00089 -0.00103,-0.00178 -0.00154,-0.00267c1.35741,-2.35568 3.33408,-4.39659 5.85795,-5.85374c7.65268,-4.41828 17.43813,-1.79628 21.85641,5.85641c0.00052,0.00089 0.00103,0.00179 0.00155,0.00268c-1.35741,2.35567 -3.33409,4.39658 -5.85795,5.85373c-7.65268,4.41828 -17.43813,1.79628 -21.85641,-5.85641z" stroke-width="1" stroke-linecap="butt"/><path d="M330.00074,534c-2.96113,-5.12883 -2.75999,-11.21562 -0.00154,-16.00267c5.52467,0.00489 10.89621,2.87407 13.85721,8.00267c2.96113,5.12883 2.75999,11.21562 0.00154,16.00267c-5.52467,-0.00489 -10.89621,-2.87407 -13.85721,-8.00267z" stroke-width="1" stroke-linecap="butt"/><path d="M335.85714,528.14359c2.52363,-1.45702 5.27919,-2.14841 7.99772,-2.14626c0.00051,0.00089 0.00103,0.00178 0.00154,0.00267c4.41828,7.65268 1.79628,17.43813 -5.85641,21.85641c-2.52365,1.45703 -5.27923,2.14842 -7.99779,2.14626c-0.00051,-0.00089 -0.00097,-0.00178 -0.00148,-0.00267c-4.41828,-7.65268 -1.79628,-17.43813 5.85641,-21.85641z" stroke-width="1" stroke-linecap="butt"/><rect x="-444" y="-540" transform="rotate(180)" width="12" height="12" stroke="#ffffff" stroke-width="0.5" stroke-linecap="butt" opacity="0"/><g stroke="#ffffff" stroke-width="0.5"><circle cx="-112.31913" cy="-681.45757" transform="rotate(150)" r="16" data-paper-data="{&quot;index&quot;:0}" stroke-linecap="round" opacity="0"/><circle cx="-96.31849" cy="-681.4572" transform="rotate(150)" r="16" data-paper-data="{&quot;index&quot;:1}" stroke-linecap="round" opacity="0"/><circle cx="-104.31849" cy="-667.60079" transform="rotate(150)" r="16" data-paper-data="{&quot;index&quot;:2}" stroke-linecap="round" opacity="0"/><circle cx="-120.31913" cy="-667.60116" transform="rotate(150)" r="16" data-paper-data="{&quot;index&quot;:3}" stroke-linecap="round" opacity="0"/><circle cx="-128.31976" cy="-681.45793" transform="rotate(150)" r="16" data-paper-data="{&quot;index&quot;:4}" stroke-linecap="round" opacity="0"/><circle cx="-120.31976" cy="-695.31434" transform="rotate(150)" r="16" data-paper-data="{&quot;index&quot;:5}" stroke-linecap="round" opacity="0"/><path d="M424.14206,525.99733c5.52467,0.00489 10.89621,2.87407 13.8572,8.00267c0.00051,0.00089 0.00103,0.00178 0.00154,0.00267c-5.52466,-0.00489 -10.89621,-2.87407 -13.85721,-8.00267c-0.00051,-0.00089 -0.00102,-0.00178 -0.00153,-0.00267z" stroke-linecap="butt"/><path d="M437.99846,533.99861c0.00027,0.00046 0.00053,0.00093 0.0008,0.00139c2.96087,5.12837 2.76003,11.21454 0.00227,16.00139c-0.00027,-0.00046 -0.00053,-0.00093 -0.0008,-0.00139c-2.96087,-5.12837 -2.76003,-11.21454 -0.00227,-16.00139z" stroke-linecap="butt"/><path d="M437.99846,517.99861c0.00027,0.00046 0.00053,0.00093 0.0008,0.00139c2.96087,5.12837 2.76003,11.21454 0.00227,16.00139c-0.00027,-0.00046 -0.00053,-0.00093 -0.0008,-0.00139c-2.96087,-5.12837 -2.76003,-11.21454 -0.00227,-16.00139z" stroke-linecap="butt"/><path d="M446,531.85641c-2.52553,1.45812 -5.28334,2.14946 -8.00387,2.14625c1.3575,-2.35792 3.33526,-4.40082 5.86101,-5.85907c2.52553,-1.45812 5.28334,-2.14946 8.00387,-2.14625c-1.3575,2.35792 -3.33526,4.40082 -5.86101,5.85907z" stroke-linecap="butt"/></g><rect x="-120" y="-626" transform="rotate(180)" width="12" height="12" stroke="#ffffff" stroke-width="0.5" stroke-linecap="butt" opacity="0"/><g stroke="#ffffff" stroke-width="0.5" stroke-linecap="round"><circle cx="-114" cy="-620" transform="rotate(180)" r="16" data-paper-data="{&quot;index&quot;:0}"/><circle cx="-98" cy="-620" transform="rotate(180)" r="16" data-paper-data="{&quot;index&quot;:1}"/><circle cx="-106" cy="-606.14286" transform="rotate(180)" r="16" data-paper-data="{&quot;index&quot;:2}"/><circle cx="-122" cy="-606.14286" transform="rotate(180)" r="16" data-paper-data="{&quot;index&quot;:3}"/><circle cx="-130" cy="-620" transform="rotate(180)" r="16" data-paper-data="{&quot;index&quot;:4}"/><circle cx="-122" cy="-633.85714" transform="rotate(180)" r="16" data-paper-data="{&quot;index&quot;:5}"/><circle cx="-106" cy="-633.85714" transform="rotate(180)" r="16" data-paper-data="{&quot;index&quot;:6}"/></g><rect x="-228" y="-626" transform="rotate(180)" width="12" height="12" stroke="#ffffff" stroke-width="0.5" stroke-linecap="butt" opacity="0"/><g stroke="#ffffff" stroke-width="0.5"><circle cx="-222" cy="-620" transform="rotate(180)" r="16" data-paper-data="{&quot;index&quot;:0}" stroke-linecap="round" opacity="0"/><circle cx="-206" cy="-620" transform="rotate(180)" r="16" data-paper-data="{&quot;index&quot;:1}" stroke-linecap="round" opacity="0"/><circle cx="-214" cy="-606.14286" transform="rotate(180)" r="16" data-paper-data="{&quot;index&quot;:2}" stroke-linecap="round" opacity="0"/><circle cx="-230" cy="-606.14286" transform="rotate(180)" r="16" data-paper-data="{&quot;index&quot;:3}" stroke-linecap="round" opacity="0"/><circle cx="-238" cy="-620" transform="rotate(180)" r="16" data-paper-data="{&quot;index&quot;:4}" stroke-linecap="round" opacity="0"/><circle cx="-230" cy="-633.85714" transform="rotate(180)" r="16" data-paper-data="{&quot;index&quot;:5}" stroke-linecap="round" opacity="0"/><circle cx="-214" cy="-633.85714" transform="rotate(180)" r="16" data-paper-data="{&quot;index&quot;:6}" stroke-linecap="round" opacity="0"/><path d="M206,620c0,-5.92226 3.21759,-11.09301 8,-13.85948c4.78241,2.76648 8,7.93723 8,13.85948c0,5.92226 -3.21759,11.09301 -8,13.85948c-4.78241,-2.76648 -8,-7.93723 -8,-13.85948z" stroke-linecap="butt"/><path d="M222,604c2.9143,0 5.64661,0.77915 8,2.14052c0,0.00078 0,0.00156 0,0.00234c0,8.83656 -7.16344,16 -16,16c-2.91432,0 -5.64665,-0.77917 -8.00005,-2.14055c0,-0.00078 0.00005,-0.00153 0.00005,-0.00231c0,-8.83656 7.16344,-16 16,-16z" stroke-linecap="butt"/><path d="M222,604c8.83656,0 16,7.16344 16,16c0,0.00078 0,0.00156 0,0.00234c-2.35339,1.36137 -5.08569,2.14052 -8,2.14052c-8.83656,0 -16,-7.16344 -16,-16c0,-0.00078 0,-0.00157 0,-0.00235c2.35339,-1.36136 5.0857,-2.1405 8,-2.1405z" stroke-linecap="butt"/><path d="M230,606.14052c4.78241,2.76648 8,7.93723 8,13.85948c0,5.92226 -3.21759,11.09301 -8,13.85948c-4.78241,-2.76648 -8,-7.93723 -8,-13.85948c0,-5.92226 3.21759,-11.09301 8,-13.85948z" stroke-linecap="butt"/><path d="M238,619.99766c0,0.00078 0,0.00156 0,0.00234c0,8.83656 -7.16344,16 -16,16c-2.9143,0 -5.64661,-0.77915 -8,-2.14052c0,-0.00078 0,-0.00156 0,-0.00234c0,-8.83656 7.16344,-16 16,-16c2.9143,0 5.64661,0.77915 8,2.14052z" stroke-linecap="butt"/><path d="M206,620c0,-0.00078 0,-0.00156 0,-0.00234c2.35339,-1.36136 5.0857,-2.14052 8,-2.14052c8.83656,0 16,7.16344 16,16c0,0.00078 0,0.00157 0,0.00235c-2.35339,1.36136 -5.0857,2.1405 -8,2.1405c-8.83656,0 -16,-7.16344 -16,-16z" stroke-linecap="butt"/><path d="M206,604c8.83656,0 16,7.16344 16,16c0,0.00078 0,0.00156 0,0.00234c-2.35339,1.36137 -5.08569,2.14052 -8,2.14052c-8.83656,0 -16,-7.16344 -16,-16c0,-0.00078 0,-0.00157 0,-0.00235c2.35339,-1.36136 5.0857,-2.1405 8,-2.1405z" stroke-linecap="butt"/><path d="M222,619.99766c0,0.00078 0,0.00156 0,0.00234c0,8.83656 -7.16344,16 -16,16c-2.9143,0 -5.64661,-0.77915 -8,-2.14052c0,-0.00078 0,-0.00156 0,-0.00234c0,-8.83656 7.16344,-16 16,-16c2.9143,0 5.64661,0.77915 8,2.14052z" stroke-linecap="butt"/><path d="M222,592.28337c4.78241,2.76648 8,7.93723 8,13.85948c0,5.92226 -3.21759,11.09301 -8,13.85948c-4.78241,-2.76648 -8,-7.93723 -8,-13.85948c0,-5.92226 3.21759,-11.09301 8,-13.85948z" stroke-linecap="butt"/><path d="M246,606.14052c0,0.00078 0,0.00156 0,0.00234c0,8.83656 -7.16344,16 -16,16c-2.9143,0 -5.64661,-0.77915 -8,-2.14052c0,-0.00078 0,-0.00156 0,-0.00234c0,-8.83656 7.16344,-16 16,-16c2.9143,0 5.64661,0.77915 8,2.14052z" stroke-linecap="butt"/><path d="M222,620c0,-0.00078 0,-0.00156 0,-0.00234c2.35339,-1.36136 5.0857,-2.14052 8,-2.14052c8.83656,0 16,7.16344 16,16c0,0.00078 0,0.00157 0,0.00235c-2.35339,1.36136 -5.0857,2.1405 -8,2.1405c-8.83656,0 -16,-7.16344 -16,-16z" stroke-linecap="butt"/><path d="M214,633.85714c0,-5.92226 3.21759,-11.09301 8,-13.85948c4.78241,2.76648 8,7.93723 8,13.85948c0,5.92226 -3.21759,11.09301 -8,13.85948c-4.78241,-2.76648 -8,-7.93723 -8,-13.85948z" stroke-linecap="butt"/></g><rect x="-336" y="-626" transform="rotate(180)" width="12" height="12" stroke="#ffffff" stroke-width="0.5" stroke-linecap="butt" opacity="0"/><g stroke="#ffffff" stroke-width="0.5"><circle cx="-330" cy="-620" transform="rotate(180)" r="16" data-paper-data="{&quot;index&quot;:0}" stroke-linecap="round" opacity="0"/><circle cx="-314" cy="-620" transform="rotate(180)" r="16" data-paper-data="{&quot;index&quot;:1}" stroke-linecap="round" opacity="0"/><circle cx="-322" cy="-606.14286" transform="rotate(180)" r="16" data-paper-data="{&quot;index&quot;:2}" stroke-linecap="round" opacity="0"/><circle cx="-338" cy="-606.14286" transform="rotate(180)" r="16" data-paper-data="{&quot;index&quot;:3}" stroke-linecap="round" opacity="0"/><circle cx="-346" cy="-620" transform="rotate(180)" r="16" data-paper-data="{&quot;index&quot;:4}" stroke-linecap="round" opacity="0"/><circle cx="-338" cy="-633.85714" transform="rotate(180)" r="16" data-paper-data="{&quot;index&quot;:5}" stroke-linecap="round" opacity="0"/><circle cx="-322" cy="-633.85714" transform="rotate(180)" r="16" data-paper-data="{&quot;index&quot;:6}" stroke-linecap="round" opacity="0"/><path d="M314,620c0,-5.92226 3.21759,-11.09301 8,-13.85948c4.78241,2.76648 8,7.93723 8,13.85948c0,0.00078 0,0.00157 0,0.00235c-2.35339,1.36136 -5.0857,2.1405 -8,2.1405c-2.9143,0 -5.64661,-0.77915 -8,-2.14052c0,-0.00078 0,-0.00156 0,-0.00234z" stroke-linecap="butt"/><path d="M314,619.99765c2.35339,-1.36136 5.0857,-2.1405 8,-2.1405c2.9143,0 5.64661,0.77915 8,2.14052c0,0.00078 0,0.00156 0,0.00234c0,5.92226 -3.21759,11.09301 -8,13.85948c-4.78241,-2.76648 -8,-7.93723 -8,-13.85948c0,-0.00078 0,-0.00157 0,-0.00235z" stroke-linecap="butt"/><path d="M330,620.00234c-4.78241,-2.76648 -8,-7.93723 -8,-13.85948c0,-0.00078 0,-0.00156 0,-0.00234c2.35339,-1.36136 5.0857,-2.14052 8,-2.14052c2.9143,0 5.64661,0.77915 8,2.14052c0,0.00078 0,0.00156 0,0.00234c0,5.92226 -3.21759,11.09301 -8,13.85948z" stroke-linecap="butt"/><path d="M330,620.00234c0,-0.00078 0,-0.00156 0,-0.00234c0,-5.92226 3.21759,-11.09301 8,-13.85948c4.78241,2.76648 8,7.93723 8,13.85948c0,0.00078 0,0.00156 0,0.00234c-2.35339,1.36136 -5.0857,2.14052 -8,2.14052c-2.9143,0 -5.64661,-0.77915 -8,-2.14052z" stroke-linecap="butt"/><path d="M329.99999,619.99766c2.35339,-1.36136 5.08571,-2.14052 8.00001,-2.14052c2.9143,0 5.64661,0.77915 8,2.14052c0,0.00078 0,0.00156 0,0.00234c0,5.92226 -3.21759,11.09301 -8,13.85948c-4.78241,-2.76648 -8,-7.93723 -8,-13.85948c0,-0.00078 -0.00001,-0.00155 -0.00001,-0.00234z" stroke-linecap="butt"/><path d="M330,636c-2.9143,0 -5.64661,-0.77915 -8,-2.14052c0,-0.00078 0,-0.00156 0,-0.00234c0,-5.92226 3.21759,-11.09301 8,-13.85948c4.78241,2.76648 8,7.93723 8,13.85948c0,0.00078 0,0.00156 0,0.00234c-2.35339,1.36137 -5.08569,2.14052 -8,2.14052z" stroke-linecap="butt"/></g><path d="M338,606.14052c0,0.00078 0,0.00156 0,0.00234c0,8.83656 -7.16344,16 -16,16c-2.9143,0 -5.64661,-0.77915 -8,-2.14052c0,-0.00078 0,-0.00156 0,-0.00234c0,-8.83656 7.16344,-16 16,-16c2.9143,0 5.64661,0.77915 8,2.14052z" stroke-width="1" stroke-linecap="butt"/><path d="M322,617.85714c8.83656,0 16,7.16344 16,16c0,0.00078 0,0.00156 0,0.00234c-2.35339,1.36137 -5.08569,2.14052 -8,2.14052c-8.83656,0 -16,-7.16344 -16,-16c0,-0.00078 0,-0.00157 0,-0.00235c2.35339,-1.36136 5.0857,-2.1405 8,-2.1405z" stroke-width="1" stroke-linecap="butt"/><path d="M322,606.14286c0,-0.00078 0,-0.00156 0,-0.00234c2.35339,-1.36136 5.0857,-2.14052 8,-2.14052c8.83656,0 16,7.16344 16,16c0,0.00078 0,0.00157 0,0.00235c-2.35339,1.36136 -5.0857,2.1405 -8,2.1405c-8.83656,0 -16,-7.16344 -16,-16z" stroke-width="1" stroke-linecap="butt"/><path d="M330,620c0,-5.92226 3.21759,-11.09301 8,-13.85948c4.78241,2.76648 8,7.93723 8,13.85948c0,5.92226 -3.21759,11.09301 -8,13.85948c-4.78241,-2.76648 -8,-7.93723 -8,-13.85948z" stroke-width="1" stroke-linecap="butt"/><path d="M338,617.85714c2.9143,0 5.64661,0.77915 8,2.14052c0,0.00078 0,0.00156 0,0.00234c0,8.83656 -7.16344,16 -16,16c-2.91432,0 -5.64665,-0.77917 -8.00005,-2.14055c0,-0.00078 0.00005,-0.00153 0.00005,-0.00231c0,-8.83656 7.16344,-16 16,-16z" stroke-width="1" stroke-linecap="butt"/><path d="M322,617.85714c8.83656,0 16,7.16344 16,16c0,0.00078 0,0.00156 0,0.00234c-2.35339,1.36137 -5.08569,2.14052 -8,2.14052c-8.83656,0 -16,-7.16344 -16,-16c0,-0.00078 0,-0.00157 0,-0.00235c2.35339,-1.36136 5.0857,-2.1405 8,-2.1405z" stroke-width="1" stroke-linecap="butt"/><rect x="-444" y="-626" transform="rotate(180)" width="12" height="12" stroke="#ffffff" stroke-width="0.5" stroke-linecap="butt" opacity="0"/><g stroke="#ffffff" stroke-width="0.5"><circle cx="-438" cy="-620" transform="rotate(180)" r="16" data-paper-data="{&quot;index&quot;:0}" stroke-linecap="round" opacity="0"/><circle cx="-422" cy="-620" transform="rotate(180)" r="16" data-paper-data="{&quot;index&quot;:1}" stroke-linecap="round" opacity="0"/><circle cx="-430" cy="-606.14286" transform="rotate(180)" r="16" data-paper-data="{&quot;index&quot;:2}" stroke-linecap="round" opacity="0"/><circle cx="-446" cy="-606.14286" transform="rotate(180)" r="16" data-paper-data="{&quot;index&quot;:3}" stroke-linecap="round" opacity="0"/><circle cx="-454" cy="-620" transform="rotate(180)" r="16" data-paper-data="{&quot;index&quot;:4}" stroke-linecap="round" opacity="0"/><circle cx="-446" cy="-633.85714" transform="rotate(180)" r="16" data-paper-data="{&quot;index&quot;:5}" stroke-linecap="round" opacity="0"/><circle cx="-430" cy="-633.85714" transform="rotate(180)" r="16" data-paper-data="{&quot;index&quot;:6}" stroke-linecap="round" opacity="0"/><path d="M430,606.14052c4.78241,2.76648 8,7.93723 8,13.85948c0,0.00078 0,0.00156 0,0.00234c-4.7824,-2.76648 -8,-7.93723 -8,-13.85948c0,-0.00078 0,-0.00156 0,-0.00234z" stroke-linecap="butt"/><path d="M438,619.99766c0,0.00078 0,0.00156 0,0.00234c0,5.92226 -3.21759,11.09301 -8,13.85948c0,-0.00078 0,-0.00156 0,-0.00234c0,-5.92226 3.21759,-11.09301 8,-13.85948z" stroke-linecap="butt"/><path d="M446,606.14052c0,0.00078 0,0.00156 0,0.00234c0,5.92226 -3.21759,11.09301 -8,13.85948c0,-0.00078 0,-0.00156 0,-0.00234c0,-5.92226 3.21759,-11.09301 8,-13.85948z" stroke-linecap="butt"/><path d="M430,622.14286c-2.91597,0 -5.64975,-0.78005 -8.00405,-2.14286c2.3543,-1.36281 5.08808,-2.14286 8.00405,-2.14286c2.91597,0 5.64975,0.78005 8.00405,2.14286c-2.3543,1.36281 -5.08808,2.14286 -8.00405,2.14286z" stroke-linecap="butt"/><path d="M446,622.14286c-2.91597,0 -5.64975,-0.78005 -8.00405,-2.14286c2.3543,-1.36281 5.08808,-2.14286 8.00405,-2.14286c2.91597,0 5.64975,0.78005 8.00405,2.14286c-2.3543,1.36281 -5.08808,2.14286 -8.00405,2.14286z" stroke-linecap="butt"/><path d="M438,620c0,-0.00078 0,-0.00156 0,-0.00234c4.7824,2.76648 8,7.93723 8,13.85948c0,0.00078 0,0.00156 0,0.00234c-4.78241,-2.76648 -8,-7.93723 -8,-13.85949z" stroke-linecap="butt"/></g><rect x="570" y="25" width="510" height="695" fill="#000000" stroke-width="1" stroke-linecap="butt"/><g stroke-width="1" stroke-linecap="butt"/><rect x="-670" y="-110" transform="rotate(180)" width="12" height="12" stroke="#ffffff" stroke-width="0.5" stroke-linecap="butt" opacity="0"/><g stroke="#ffffff" stroke-width="0.5" stroke-linecap="round"><circle cx="-664" cy="-104" transform="rotate(180)" r="16" data-paper-data="{&quot;index&quot;:0}" opacity="0"/></g><rect x="-778" y="-110" transform="rotate(180)" width="12" height="12" stroke="#ffffff" stroke-width="0.5" stroke-linecap="butt" opacity="0"/><g stroke="#ffffff" stroke-width="0.5" stroke-linecap="round"><circle cx="-772" cy="-104" transform="rotate(180)" r="16" data-paper-data="{&quot;index&quot;:0}" opacity="0"/></g><rect x="-886" y="-110" transform="rotate(180)" width="12" height="12" stroke="#ffffff" stroke-width="0.5" stroke-linecap="butt" opacity="0"/><g stroke="#ffffff" stroke-width="0.5" stroke-linecap="round"><circle cx="-880" cy="-104" transform="rotate(180)" r="16" data-paper-data="{&quot;index&quot;:0}" opacity="0"/></g><rect x="-994" y="-110" transform="rotate(180)" width="12" height="12" stroke="#ffffff" stroke-width="0.5" stroke-linecap="butt" opacity="0"/><g stroke="#ffffff" stroke-width="0.5" stroke-linecap="round"><circle cx="-988" cy="-104" transform="rotate(180)" r="16" data-paper-data="{&quot;index&quot;:0}"/></g><rect x="-670" y="-196" transform="rotate(180)" width="12" height="12" stroke="#ffffff" stroke-width="0.5" stroke-linecap="butt" opacity="0"/><g stroke="#ffffff" stroke-width="0.5" stroke-linecap="round"><circle cx="-190" cy="664" transform="rotate(-90)" r="16" data-paper-data="{&quot;index&quot;:0}" opacity="0"/><circle cx="-174" cy="664" transform="rotate(-90)" r="16" data-paper-data="{&quot;index&quot;:1}" opacity="0"/></g><rect x="-778" y="-196" transform="rotate(180)" width="12" height="12" stroke="#ffffff" stroke-width="0.5" stroke-linecap="butt" opacity="0"/><g stroke="#ffffff" stroke-width="0.5" stroke-linecap="round"><circle cx="-190" cy="772" transform="rotate(-90)" r="16" data-paper-data="{&quot;index&quot;:0}" opacity="0"/><circle cx="-174" cy="772" transform="rotate(-90)" r="16" data-paper-data="{&quot;index&quot;:1}" opacity="0"/></g><rect x="-886" y="-196" transform="rotate(180)" width="12" height="12" stroke="#ffffff" stroke-width="0.5" stroke-linecap="butt" opacity="0"/><g stroke="#ffffff" stroke-width="0.5" stroke-linecap="round"><circle cx="-190" cy="880" transform="rotate(-90)" r="16" data-paper-data="{&quot;index&quot;:0}" opacity="0"/><circle cx="-174" cy="880" transform="rotate(-90)" r="16" data-paper-data="{&quot;index&quot;:1}" opacity="0"/><circle cx="880" cy="182" r="8"/><circle cx="880" cy="182" r="13.85714"/></g><rect x="-994" y="-196" transform="rotate(180)" width="12" height="12" stroke="#ffffff" stroke-width="0.5" stroke-linecap="butt" opacity="0"/><g stroke="#ffffff" stroke-width="0.5" stroke-linecap="round"><circle cx="-190" cy="988" transform="rotate(-90)" r="16" data-paper-data="{&quot;index&quot;:0}"/><circle cx="-174" cy="988" transform="rotate(-90)" r="16" data-paper-data="{&quot;index&quot;:1}"/></g><rect x="-670" y="-282" transform="rotate(180)" width="12" height="12" stroke="#ffffff" stroke-width="0.5" stroke-linecap="butt" opacity="0"/><g stroke="#ffffff" stroke-width="0.5" stroke-linecap="round"><circle cx="-571.02301" cy="437.04087" transform="rotate(-120)" r="16" data-paper-data="{&quot;index&quot;:0}" opacity="0"/><circle cx="-555.02237" cy="437.04124" transform="rotate(-120)" r="16" data-paper-data="{&quot;index&quot;:1}" opacity="0"/><circle cx="-563.02237" cy="450.89764" transform="rotate(-120)" r="16" data-paper-data="{&quot;index&quot;:2}" opacity="0"/></g><rect x="-778" y="-282" transform="rotate(180)" width="12" height="12" stroke="#ffffff" stroke-width="0.5" stroke-linecap="butt" opacity="0"/><g stroke="#ffffff" stroke-width="0.5" stroke-linecap="round"><circle cx="-625.02301" cy="530.57161" transform="matrix(-0.5000000000000019,-0.8660254037844375,0.8660254037844375,-0.5000000000000019,0,0)" r="16" data-paper-data="{&quot;index&quot;:0}" opacity="0"/><circle cx="-609.02237" cy="530.57198" transform="rotate(-120)" r="16" data-paper-data="{&quot;index&quot;:1}" opacity="0"/><circle cx="-617.02237" cy="544.42839" transform="rotate(-120)" r="16" data-paper-data="{&quot;index&quot;:2}" opacity="0"/><circle cx="772" cy="266.7619" r="6.7619"/><circle cx="772" cy="266.7619" r="9.2381"/></g><rect x="-886" y="-282" transform="rotate(180)" width="12" height="12" stroke="#ffffff" stroke-width="0.5" stroke-linecap="butt" opacity="0"/><g stroke="#ffffff" stroke-width="0.5" stroke-linecap="round"><circle cx="-679.02301" cy="624.10236" transform="matrix(-0.5000000000000019,-0.8660254037844375,0.8660254037844375,-0.5000000000000019,0,0)" r="16" data-paper-data="{&quot;index&quot;:0}" opacity="0"/><circle cx="-663.02237" cy="624.10272" transform="matrix(-0.5000000000000019,-0.8660254037844375,0.8660254037844375,-0.5000000000000019,0,0)" r="16" data-paper-data="{&quot;index&quot;:1}" opacity="0"/><circle cx="-671.02237" cy="637.95913" transform="matrix(-0.5000000000000019,-0.8660254037844375,0.8660254037844375,-0.5000000000000019,0,0)" r="16" data-paper-data="{&quot;index&quot;:2}" opacity="0"/><circle cx="876" cy="269.07143" r="8"/><circle cx="884" cy="269.07143" r="8"/><circle cx="880" cy="262.14286" r="8"/><circle cx="876" cy="269.07143" r="13.85714"/><circle cx="884" cy="269.07143" r="13.85714"/><circle cx="880" cy="262.14286" r="13.85714"/></g><rect x="-994" y="-282" transform="rotate(180)" width="12" height="12" stroke="#ffffff" stroke-width="0.5" stroke-linecap="butt" opacity="0"/><g stroke="#ffffff" stroke-width="0.5" stroke-linecap="round"><circle cx="-733.02301" cy="717.6331" transform="matrix(-0.5000000000000019,-0.8660254037844375,0.8660254037844375,-0.5000000000000019,0,0)" r="16" data-paper-data="{&quot;index&quot;:0}"/><circle cx="-717.02237" cy="717.63347" transform="matrix(-0.5000000000000019,-0.8660254037844375,0.8660254037844375,-0.5000000000000019,0,0)" r="16" data-paper-data="{&quot;index&quot;:1}"/><circle cx="-725.02237" cy="731.48987" transform="matrix(-0.5000000000000019,-0.8660254037844375,0.8660254037844375,-0.5000000000000019,0,0)" r="16" data-paper-data="{&quot;index&quot;:2}"/></g><rect x="-670" y="-368" transform="rotate(180)" width="12" height="12" stroke="#ffffff" stroke-width="0.5" stroke-linecap="butt" opacity="0"/><g stroke="#ffffff" stroke-width="0.5" stroke-linecap="round"><circle cx="-756.04087" cy="18.4988" transform="rotate(-150)" r="16" data-paper-data="{&quot;index&quot;:0}" opacity="0"/><circle cx="-740.04023" cy="18.49844" transform="rotate(-150)" r="16" data-paper-data="{&quot;index&quot;:1}" opacity="0"/><circle cx="-748.04087" cy="32.35521" transform="rotate(-150)" r="16" data-paper-data="{&quot;index&quot;:2}" opacity="0"/><circle cx="-764.04151" cy="32.35558" transform="rotate(-150)" r="16" data-paper-data="{&quot;index&quot;:3}" opacity="0"/><circle cx="664" cy="354" r="2.14286"/><circle cx="664" cy="354" r="8"/></g><rect x="-778" y="-368" transform="rotate(180)" width="12" height="12" stroke="#ffffff" stroke-width="0.5" stroke-linecap="butt" opacity="0"/><g stroke="#ffffff" stroke-width="0.5" stroke-linecap="round"><circle cx="-849.57161" cy="72.4988" transform="rotate(-150)" r="16" data-paper-data="{&quot;index&quot;:0}" opacity="0"/><circle cx="-833.57097" cy="72.49844" transform="rotate(-150)" r="16" data-paper-data="{&quot;index&quot;:1}" opacity="0"/><circle cx="-841.57161" cy="86.35521" transform="rotate(-150)" r="16" data-paper-data="{&quot;index&quot;:2}" opacity="0"/><circle cx="-857.57225" cy="86.35558" transform="rotate(-150)" r="16" data-paper-data="{&quot;index&quot;:3}" opacity="0"/><circle cx="767.38095" cy="354" r="6.7619"/><circle cx="776.61905" cy="354" r="6.7619"/><circle cx="767.38095" cy="354" r="9.2381"/><circle cx="776.61905" cy="354" r="9.2381"/></g><rect x="-886" y="-368" transform="rotate(180)" width="12" height="12" stroke="#ffffff" stroke-width="0.5" stroke-linecap="butt" opacity="0"/><g stroke="#ffffff" stroke-width="0.5" stroke-linecap="round"><circle cx="-943.10236" cy="126.4988" transform="rotate(-150)" r="16" data-paper-data="{&quot;index&quot;:0}" opacity="0"/><circle cx="-927.10172" cy="126.49844" transform="rotate(-150)" r="16" data-paper-data="{&quot;index&quot;:1}" opacity="0"/><circle cx="-935.10236" cy="140.35521" transform="rotate(-150)" r="16" data-paper-data="{&quot;index&quot;:2}" opacity="0"/><circle cx="-951.10299" cy="140.35558" transform="rotate(-150)" r="16" data-paper-data="{&quot;index&quot;:3}" opacity="0"/><circle cx="873.07143" cy="358" r="8"/><circle cx="880" cy="354" r="8"/><circle cx="886.92857" cy="358" r="8"/><circle cx="873.07143" cy="350" r="8"/><circle cx="886.92857" cy="350" r="8"/><circle cx="873.07143" cy="358" r="13.85714"/><circle cx="880" cy="354" r="13.85714"/><circle cx="886.92857" cy="358" r="13.85714"/><circle cx="873.07143" cy="350" r="13.85714"/><circle cx="886.92857" cy="350" r="13.85714"/></g><rect x="-994" y="-368" transform="rotate(180)" width="12" height="12" stroke="#ffffff" stroke-width="0.5" stroke-linecap="butt" opacity="0"/><g stroke="#ffffff" stroke-width="0.5" stroke-linecap="round"><circle cx="-1036.6331" cy="180.4988" transform="rotate(-150)" r="16" data-paper-data="{&quot;index&quot;:0}"/><circle cx="-1020.63246" cy="180.49844" transform="rotate(-150)" r="16" data-paper-data="{&quot;index&quot;:1}"/><circle cx="-1028.6331" cy="194.35521" transform="rotate(-150)" r="16" data-paper-data="{&quot;index&quot;:2}"/><circle cx="-1044.63374" cy="194.35558" transform="rotate(-150)" r="16" data-paper-data="{&quot;index&quot;:3}"/></g><rect x="-670" y="-454" transform="rotate(180)" width="12" height="12" stroke="#ffffff" stroke-width="0.5" stroke-linecap="butt" opacity="0"/><g stroke="#ffffff" stroke-width="0.5" stroke-linecap="round"><circle cx="-664" cy="-448" transform="rotate(180)" r="16" data-paper-data="{&quot;index&quot;:0}" opacity="0"/><circle cx="-648" cy="-448" transform="rotate(180)" r="16" data-paper-data="{&quot;index&quot;:1}" opacity="0"/><circle cx="-656" cy="-434.14286" transform="rotate(180)" r="16" data-paper-data="{&quot;index&quot;:2}" opacity="0"/><circle cx="-672" cy="-434.14286" transform="rotate(180)" r="16" data-paper-data="{&quot;index&quot;:3}" opacity="0"/><circle cx="-680" cy="-448" transform="rotate(180)" r="16" data-paper-data="{&quot;index&quot;:4}" opacity="0"/><circle cx="660" cy="441.07143" r="2.14286"/><circle cx="668" cy="441.07143" r="2.14286"/><circle cx="660" cy="441.07143" r="8"/><circle cx="668" cy="441.07143" r="8"/></g><rect x="-778" y="-454" transform="rotate(180)" width="12" height="12" stroke="#ffffff" stroke-width="0.5" stroke-linecap="butt" opacity="0"/><g stroke="#ffffff" stroke-width="0.5" stroke-linecap="round"><circle cx="-772" cy="-448" transform="rotate(180)" r="16" data-paper-data="{&quot;index&quot;:0}" opacity="0"/><circle cx="-756" cy="-448" transform="rotate(180)" r="16" data-paper-data="{&quot;index&quot;:1}" opacity="0"/><circle cx="-764" cy="-434.14286" transform="rotate(180)" r="16" data-paper-data="{&quot;index&quot;:2}" opacity="0"/><circle cx="-780" cy="-434.14286" transform="rotate(180)" r="16" data-paper-data="{&quot;index&quot;:3}" opacity="0"/><circle cx="-788" cy="-448" transform="rotate(180)" r="16" data-paper-data="{&quot;index&quot;:4}" opacity="0"/><circle cx="764" cy="443.38095" r="6.7619"/><circle cx="772" cy="438.7619" r="6.7619"/><circle cx="780" cy="443.38095" r="6.7619"/><circle cx="764" cy="443.38095" r="9.2381"/><circle cx="772" cy="438.7619" r="9.2381"/><circle cx="780" cy="443.38095" r="9.2381"/></g><rect x="-886" y="-454" transform="rotate(180)" width="12" height="12" stroke="#ffffff" stroke-width="0.5" stroke-linecap="butt" opacity="0"/><g stroke="#ffffff" stroke-width="0.5" stroke-linecap="round"><circle cx="-880" cy="-448" transform="rotate(180)" r="16" data-paper-data="{&quot;index&quot;:0}" opacity="0"/><circle cx="-864" cy="-448" transform="rotate(180)" r="16" data-paper-data="{&quot;index&quot;:1}" opacity="0"/><circle cx="-872" cy="-434.14286" transform="rotate(180)" r="16" data-paper-data="{&quot;index&quot;:2}" opacity="0"/><circle cx="-888" cy="-434.14286" transform="rotate(180)" r="16" data-paper-data="{&quot;index&quot;:3}" opacity="0"/><circle cx="-896" cy="-448" transform="rotate(180)" r="16" data-paper-data="{&quot;index&quot;:4}" opacity="0"/><circle cx="872" cy="448" r="8"/><circle cx="876" cy="441.07143" r="8"/><circle cx="884" cy="441.07143" r="8"/><circle cx="888" cy="448" r="8"/><circle cx="868" cy="441.07143" r="8"/><circle cx="880" cy="434.14286" r="8"/><circle cx="892" cy="441.07143" r="8"/><circle cx="872" cy="448" r="13.85714"/><circle cx="876" cy="441.07143" r="13.85714"/><circle cx="884" cy="441.07143" r="13.85714"/><circle cx="888" cy="448" r="13.85714"/><circle cx="868" cy="441.07143" r="13.85714"/><circle cx="880" cy="434.14286" r="13.85714"/><circle cx="892" cy="441.07143" r="13.85714"/></g><rect x="-994" y="-454" transform="rotate(180)" width="12" height="12" stroke="#ffffff" stroke-width="0.5" stroke-linecap="butt" opacity="0"/><g stroke="#ffffff" stroke-width="0.5" stroke-linecap="round"><circle cx="-988" cy="-448" transform="rotate(180)" r="16" data-paper-data="{&quot;index&quot;:0}"/><circle cx="-972" cy="-448" transform="rotate(180)" r="16" data-paper-data="{&quot;index&quot;:1}"/><circle cx="-980" cy="-434.14286" transform="rotate(180)" r="16" data-paper-data="{&quot;index&quot;:2}"/><circle cx="-996" cy="-434.14286" transform="rotate(180)" r="16" data-paper-data="{&quot;index&quot;:3}"/><circle cx="-1004" cy="-448" transform="rotate(180)" r="16" data-paper-data="{&quot;index&quot;:4}"/></g><rect x="-670" y="-540" transform="rotate(180)" width="12" height="12" stroke="#ffffff" stroke-width="0.5" stroke-linecap="butt" opacity="0"/><g stroke="#ffffff" stroke-width="0.5" stroke-linecap="round"><circle cx="-308.04087" cy="-794.45757" transform="rotate(150)" r="16" data-paper-data="{&quot;index&quot;:0}" opacity="0"/><circle cx="-292.04023" cy="-794.4572" transform="rotate(150)" r="16" data-paper-data="{&quot;index&quot;:1}" opacity="0"/><circle cx="-300.04023" cy="-780.60079" transform="rotate(150)" r="16" data-paper-data="{&quot;index&quot;:2}" opacity="0"/><circle cx="-316.04087" cy="-780.60116" transform="rotate(150)" r="16" data-paper-data="{&quot;index&quot;:3}" opacity="0"/><circle cx="-324.04151" cy="-794.45793" transform="rotate(150)" r="16" data-paper-data="{&quot;index&quot;:4}" opacity="0"/><circle cx="-316.04151" cy="-808.31434" transform="rotate(150)" r="16" data-paper-data="{&quot;index&quot;:5}" opacity="0"/><circle cx="657.07143" cy="530" r="2.14286"/><circle cx="664" cy="542" r="2.14286"/><circle cx="664" cy="526" r="2.14286"/><circle cx="670.92857" cy="530" r="2.14286"/><circle cx="657.07143" cy="530" r="8"/><circle cx="664" cy="542" r="8"/><circle cx="664" cy="526" r="8"/><circle cx="670.92857" cy="530" r="8"/></g><rect x="-778" y="-540" transform="rotate(180)" width="12" height="12" stroke="#ffffff" stroke-width="0.5" stroke-linecap="butt" opacity="0"/><g stroke="#ffffff" stroke-width="0.5" stroke-linecap="round"><circle cx="-401.57161" cy="-848.45757" transform="rotate(150)" r="16" data-paper-data="{&quot;index&quot;:0}" opacity="0"/><circle cx="-385.57097" cy="-848.4572" transform="rotate(150)" r="16" data-paper-data="{&quot;index&quot;:1}" opacity="0"/><circle cx="-393.57097" cy="-834.60079" transform="rotate(150)" r="16" data-paper-data="{&quot;index&quot;:2}" opacity="0"/><circle cx="-409.57161" cy="-834.60116" transform="rotate(150)" r="16" data-paper-data="{&quot;index&quot;:3}" opacity="0"/><circle cx="-417.57225" cy="-848.45793" transform="rotate(150)" r="16" data-paper-data="{&quot;index&quot;:4}" opacity="0"/><circle cx="-409.57225" cy="-862.31434" transform="rotate(150)" r="16" data-paper-data="{&quot;index&quot;:5}" opacity="0"/><circle cx="762.7619" cy="534" r="6.7619"/><circle cx="767.38095" cy="526" r="6.7619"/><circle cx="776.61905" cy="526" r="6.7619"/><circle cx="781.2381" cy="534" r="6.7619"/><circle cx="762.7619" cy="534" r="9.2381"/><circle cx="767.38095" cy="526" r="9.2381"/><circle cx="776.61905" cy="526" r="9.2381"/><circle cx="781.2381" cy="534" r="9.2381"/></g><rect x="-886" y="-540" transform="rotate(180)" width="12" height="12" stroke="#ffffff" stroke-width="0.5" stroke-linecap="butt" opacity="0"/><g stroke="#ffffff" stroke-width="0.5" stroke-linecap="round"><circle cx="-495.10236" cy="-902.45757" transform="rotate(150)" r="16" data-paper-data="{&quot;index&quot;:0}" opacity="0"/><circle cx="-479.10172" cy="-902.4572" transform="rotate(150)" r="16" data-paper-data="{&quot;index&quot;:1}" opacity="0"/><circle cx="-487.10172" cy="-888.60079" transform="rotate(150)" r="16" data-paper-data="{&quot;index&quot;:2}" opacity="0"/><circle cx="-503.10236" cy="-888.60116" transform="rotate(150)" r="16" data-paper-data="{&quot;index&quot;:3}" opacity="0"/><circle cx="-511.10299" cy="-902.45793" transform="rotate(150)" r="16" data-paper-data="{&quot;index&quot;:4}" opacity="0"/><circle cx="-503.10299" cy="-916.31434" transform="rotate(150)" r="16" data-paper-data="{&quot;index&quot;:5}" opacity="0"/><circle cx="873.07143" cy="538" r="8"/><circle cx="873.07143" cy="530" r="8"/><circle cx="880" cy="526" r="8"/><circle cx="886.92857" cy="530" r="8"/><circle cx="886.92857" cy="538" r="8"/><circle cx="866.14286" cy="534" r="8"/><circle cx="873.07143" cy="522" r="8"/><circle cx="886.92857" cy="522" r="8"/><circle cx="893.85714" cy="534" r="8"/><circle cx="873.07143" cy="538" r="13.85714"/><circle cx="873.07143" cy="530" r="13.85714"/><circle cx="880" cy="526" r="13.85714"/><circle cx="886.92857" cy="530" r="13.85714"/><circle cx="886.92857" cy="538" r="13.85714"/><circle cx="866.14286" cy="534" r="13.85714"/><circle cx="873.07143" cy="522" r="13.85714"/><circle cx="886.92857" cy="522" r="13.85714"/><circle cx="893.85714" cy="534" r="13.85714"/></g><rect x="-994" y="-540" transform="rotate(180)" width="12" height="12" stroke="#ffffff" stroke-width="0.5" stroke-linecap="butt" opacity="0"/><g stroke="#ffffff" stroke-width="0.5" stroke-linecap="round"><circle cx="-588.6331" cy="-956.45757" transform="rotate(150)" r="16" data-paper-data="{&quot;index&quot;:0}"/><circle cx="-572.63246" cy="-956.4572" transform="rotate(150)" r="16" data-paper-data="{&quot;index&quot;:1}"/><circle cx="-580.63246" cy="-942.60079" transform="rotate(150)" r="16" data-paper-data="{&quot;index&quot;:2}"/><circle cx="-596.6331" cy="-942.60116" transform="rotate(150)" r="16" data-paper-data="{&quot;index&quot;:3}"/><circle cx="-604.63374" cy="-956.45793" transform="rotate(150)" r="16" data-paper-data="{&quot;index&quot;:4}"/><circle cx="-596.63374" cy="-970.31434" transform="rotate(150)" r="16" data-paper-data="{&quot;index&quot;:5}"/></g><rect x="-670" y="-626" transform="rotate(180)" width="12" height="12" stroke="#ffffff" stroke-width="0.5" stroke-linecap="butt" opacity="0"/><g stroke="#ffffff" stroke-width="0.5" stroke-linecap="round"><circle cx="-664" cy="-620" transform="rotate(180)" r="16" data-paper-data="{&quot;index&quot;:0}" opacity="0"/><circle cx="-648" cy="-620" transform="rotate(180)" r="16" data-paper-data="{&quot;index&quot;:1}" opacity="0"/><circle cx="-656" cy="-606.14286" transform="rotate(180)" r="16" data-paper-data="{&quot;index&quot;:2}" opacity="0"/><circle cx="-672" cy="-606.14286" transform="rotate(180)" r="16" data-paper-data="{&quot;index&quot;:3}" opacity="0"/><circle cx="-680" cy="-620" transform="rotate(180)" r="16" data-paper-data="{&quot;index&quot;:4}" opacity="0"/><circle cx="-672" cy="-633.85714" transform="rotate(180)" r="16" data-paper-data="{&quot;index&quot;:5}" opacity="0"/><circle cx="-656" cy="-633.85714" transform="rotate(180)" r="16" data-paper-data="{&quot;index&quot;:6}" opacity="0"/><circle cx="660" cy="613.07143" r="2.14286"/><circle cx="660" cy="626.92857" r="2.14286"/><circle cx="668" cy="613.07143" r="2.14286"/><circle cx="656" cy="620" r="2.14286"/><circle cx="672" cy="620" r="2.14286"/><circle cx="668" cy="626.92857" r="2.14286"/><circle cx="660" cy="613.07143" r="8"/><circle cx="660" cy="626.92857" r="8"/><circle cx="668" cy="613.07143" r="8"/><circle cx="656" cy="620" r="8"/><circle cx="672" cy="620" r="8"/><circle cx="668" cy="626.92857" r="8"/></g><rect x="-778" y="-626" transform="rotate(180)" width="12" height="12" stroke="#ffffff" stroke-width="0.5" stroke-linecap="butt" opacity="0"/><g stroke="#ffffff" stroke-width="0.5" stroke-linecap="round"><circle cx="-772" cy="-620" transform="rotate(180)" r="16" data-paper-data="{&quot;index&quot;:0}" opacity="0"/><circle cx="-756" cy="-620" transform="rotate(180)" r="16" data-paper-data="{&quot;index&quot;:1}" opacity="0"/><circle cx="-764" cy="-606.14286" transform="rotate(180)" r="16" data-paper-data="{&quot;index&quot;:2}" opacity="0"/><circle cx="-780" cy="-606.14286" transform="rotate(180)" r="16" data-paper-data="{&quot;index&quot;:3}" opacity="0"/><circle cx="-788" cy="-620" transform="rotate(180)" r="16" data-paper-data="{&quot;index&quot;:4}" opacity="0"/><circle cx="-780" cy="-633.85714" transform="rotate(180)" r="16" data-paper-data="{&quot;index&quot;:5}" opacity="0"/><circle cx="-764" cy="-633.85714" transform="rotate(180)" r="16" data-paper-data="{&quot;index&quot;:6}" opacity="0"/><circle cx="764" cy="615.38095" r="6.7619"/><circle cx="764" cy="624.61905" r="6.7619"/><circle cx="772" cy="610.7619" r="6.7619"/><circle cx="780" cy="615.38095" r="6.7619"/><circle cx="780" cy="624.61905" r="6.7619"/><circle cx="772" cy="629.2381" r="6.7619"/><circle cx="764" cy="615.38095" r="9.2381"/><circle cx="764" cy="624.61905" r="9.2381"/><circle cx="772" cy="610.7619" r="9.2381"/><circle cx="780" cy="615.38095" r="9.2381"/><circle cx="780" cy="624.61905" r="9.2381"/><circle cx="772" cy="629.2381" r="9.2381"/></g><rect x="-886" y="-626" transform="rotate(180)" width="12" height="12" stroke="#ffffff" stroke-width="0.5" stroke-linecap="butt" opacity="0"/><g stroke="#ffffff" stroke-width="0.5" stroke-linecap="round"><circle cx="-880" cy="-620" transform="rotate(180)" r="16" data-paper-data="{&quot;index&quot;:0}" opacity="0"/><circle cx="-864" cy="-620" transform="rotate(180)" r="16" data-paper-data="{&quot;index&quot;:1}" opacity="0"/><circle cx="-872" cy="-606.14286" transform="rotate(180)" r="16" data-paper-data="{&quot;index&quot;:2}" opacity="0"/><circle cx="-888" cy="-606.14286" transform="rotate(180)" r="16" data-paper-data="{&quot;index&quot;:3}" opacity="0"/><circle cx="-896" cy="-620" transform="rotate(180)" r="16" data-paper-data="{&quot;index&quot;:4}" opacity="0"/><circle cx="-888" cy="-633.85714" transform="rotate(180)" r="16" data-paper-data="{&quot;index&quot;:5}" opacity="0"/><circle cx="-872" cy="-633.85714" transform="rotate(180)" r="16" data-paper-data="{&quot;index&quot;:6}" opacity="0"/><circle cx="872" cy="620" r="8"/><circle cx="876" cy="613.07143" r="8"/><circle cx="884" cy="613.07143" r="8"/><circle cx="888" cy="620" r="8"/><circle cx="884" cy="626.92857" r="8"/><circle cx="876" cy="626.92857" r="8"/><circle cx="868" cy="613.07143" r="8"/><circle cx="868" cy="626.92857" r="8"/><circle cx="880" cy="606.14286" r="8"/><circle cx="892" cy="613.07143" r="8"/><circle cx="892" cy="626.92857" r="8"/><circle cx="880" cy="633.85714" r="8"/><circle cx="872" cy="620" r="13.85714"/><circle cx="876" cy="613.07143" r="13.85714"/><circle cx="884" cy="613.07143" r="13.85714"/><circle cx="888" cy="620" r="13.85714"/><circle cx="884" cy="626.92857" r="13.85714"/><circle cx="876" cy="626.92857" r="13.85714"/><circle cx="868" cy="613.07143" r="13.85714"/><circle cx="868" cy="626.92857" r="13.85714"/><circle cx="880" cy="606.14286" r="13.85714"/><circle cx="892" cy="613.07143" r="13.85714"/><circle cx="892" cy="626.92857" r="13.85714"/><circle cx="880" cy="633.85714" r="13.85714"/></g><rect x="-994" y="-626" transform="rotate(180)" width="12" height="12" stroke="#ffffff" stroke-width="0.5" stroke-linecap="butt" opacity="0"/><g stroke="#ffffff" stroke-width="0.5" stroke-linecap="round"><circle cx="-988" cy="-620" transform="rotate(180)" r="16" data-paper-data="{&quot;index&quot;:0}"/><circle cx="-972" cy="-620" transform="rotate(180)" r="16" data-paper-data="{&quot;index&quot;:1}"/><circle cx="-980" cy="-606.14286" transform="rotate(180)" r="16" data-paper-data="{&quot;index&quot;:2}"/><circle cx="-996" cy="-606.14286" transform="rotate(180)" r="16" data-paper-data="{&quot;index&quot;:3}"/><circle cx="-1004" cy="-620" transform="rotate(180)" r="16" data-paper-data="{&quot;index&quot;:4}"/><circle cx="-996" cy="-633.85714" transform="rotate(180)" r="16" data-paper-data="{&quot;index&quot;:5}"/><circle cx="-980" cy="-633.85714" transform="rotate(180)" r="16" data-paper-data="{&quot;index&quot;:6}"/></g></g></svg>